<svg xmlns="http://www.w3.org/2000/svg" xmlns:xlink="http://www.w3.org/1999/xlink" width="90" height="380" viewBox="0 0 23.813 100.542">
    <defs>
        <linearGradient id="b">
            <stop offset="0" stop-color="#fff"/>
            <stop offset="1" stop-opacity="0"/>
        </linearGradient>
        <linearGradient id="a">
            <stop offset="0" stop-color="#fdfdfd"/>
            <stop offset="1" stop-color="#fdfdfd"/>
        </linearGradient>
        <radialGradient gradientUnits="userSpaceOnUse" gradientTransform="matrix(.4218 0 0 .02673 -107.846 272.324)" r="69.827" fy="856.052" fx="285.494" cy="856.052" cx="285.494" id="d" xlink:href="#a"/>
        <linearGradient gradientUnits="userSpaceOnUse" y2="832.532" x2="279.915" y1="830.884" x1="268.967" id="h" xlink:href="#b" gradientTransform="matrix(.26458 0 0 .26458 -61.725 72.473)"/>
        <clipPath clipPathUnits="userSpaceOnUse" id="j">
            <rect width="23.813" height="10.672" y="288.699" rx=".332" ry=".236" fill="#fff" stroke-width=".3" stroke-miterlimit="10"/>
        </clipPath>
        <clipPath clipPathUnits="userSpaceOnUse" id="i">
            <rect width="23.813" height="10.672" y="288.699" rx=".332" ry=".236" fill="#fff" stroke-width=".3" stroke-miterlimit="10"/>
        </clipPath>
        <clipPath clipPathUnits="userSpaceOnUse" id="g">
            <rect width="23.813" height="10.672" y="288.699" rx=".332" ry=".236" fill="#fff" stroke-width=".3" stroke-miterlimit="10"/>
        </clipPath>
        <clipPath clipPathUnits="userSpaceOnUse" id="f">
            <rect width="99.864" height="44.758" x="224.513" y="-22.672" rx="1.391" ry=".989" fill="#fff" stroke-width=".3" stroke-miterlimit="10"/>
        </clipPath>
        <clipPath clipPathUnits="userSpaceOnUse" id="e">
            <rect width="23.813" height="10.672" y="288.699" rx=".332" ry=".236" fill="#fff" stroke-width=".3" stroke-miterlimit="10"/>
        </clipPath>
        <clipPath clipPathUnits="userSpaceOnUse" id="c">
            <rect width="23.813" height="10.672" y="288.699" rx=".332" ry=".236" fill="#fff" stroke-width=".3" stroke-miterlimit="10"/>
        </clipPath>
    </defs>
    <g transform="translate(0 -196.458)">
        <path d="M0 196.458h23.813V297H0z" fill-rule="evenodd"/>
        <flowRoot transform="matrix(.26458 0 0 .26458 -58.46 115.922)" style="line-height:125%" xml:space="preserve" font-style="normal" font-weight="400" font-size="10" font-family="sans-serif" letter-spacing="0" word-spacing="0" fill="#000" fill-opacity="1" stroke="none" stroke-width="1" stroke-linecap="butt" stroke-linejoin="miter" stroke-opacity="1">
            <flowRegion>
                <path d="M323.249 35.538h7.829v72.478h-7.829z"/>
            </flowRegion>
            <flowPara/>
        </flowRoot>
        <path d="M29.62 295.066l-17.043-.125-14.417.125-.879-3.47c4.81-1.005 10.75-1.725 16.171-1.72 5.716.005 9.886.466 17.047 1.845z" clip-path="url(#c)" fill="url(#d)" stroke="#8b8b8b" stroke-width=".397"/>
        <path d="M-1.863 292.126c10.904-1.21 21.545-.99 31.75.122l-.034 3.297H-1.863z" clip-path="url(#e)"/>
        <g transform="matrix(.23845 0 0 .23845 -53.535 294.105)" clip-path="url(#f)">
            <path d="M291.232-10.527l6.43-3.034 5.953-.742 4.222.511 5.886 2.16 4.683 4.37z" fill-rule="evenodd"/>
            <g stroke="#fff">
                <g color="#000" fill="none" stroke-linejoin="bevel">
                    <path d="M2.117 188.81l18.113 36.226 65.551 31.913 90.564 13.8 94.877-11.213 60.376-31.913 14.663-30.188-14.663-37.951.324 67.923-33.1-64.473-25.875 96.602-58.651-80.214-40.538 91.427-40.538-75.902-46.576 61.239-17.098-92.852-49.316 62.663 6.037-89.702 44.241 27.296 63.574 32.218 80-16.819 86.466-15.957 31.051-3.666-33.279-62.05 1.366 64.853-64.689-74.392-20.7 91.427-69.001-66.198-75.902 50.026L84.751 80.38l-59.346 55.816 24.151-56.064h34.501l81.077-37.088-18.975 69.864 89.702-24.15 62.101 7.762-66.314-54.334 4.212 46.571-70.726-45.713 66.414-1.725-53.476-15.525-12.938 16.388-49.164-6.9-66.414 44.85-33.333 49.417 9.183 6.647L2.118 188.81z" stroke-width="2.892" transform="matrix(.09825 0 0 .0698 286.195 -16.043)"/>
                    <path d="M133.17 195.51l12.99-80.876-61.407-35.517 32.081-44.697 28.463-4.313 32.776-5.175 41.401 6.9 12.938 10.35 47.438 20.7 18.975 34.501 30.188 30.188 2.803 31.913" stroke-width="2.892" transform="matrix(.09825 0 0 .0698 286.195 -16.043)"/>
                    <path d="M329.01 126.71l-49.16-63.83-59.77-31.05M1.926 188.186L16.11 129.84" stroke-width="2" transform="matrix(.09825 0 0 .0698 286.195 -16.043)"/>
                </g>
            </g>
            <path d="M320.187-2.25l-1.666-4.93" fill="none" stroke="#fff" stroke-width=".2"/>
        </g>
        <path d="M.963 292.22l3.148-1.342 1.33.418 1.107-.783 2.216.292.933-.35 3.024.98-1.042.477-9.504.292z" clip-path="url(#i)" fill-rule="evenodd"/>
        <g clip-path="url(#j)" font-size="1.984" fill="#fff" stroke-width=".2" stroke-miterlimit="10">
            <path d="M2.835 295.534v.169q-.075-.04-.157-.059-.081-.019-.168-.019-.133 0-.2.04-.066.041-.066.123 0 .062.048.098.047.035.19.067l.061.013q.19.041.27.116.08.073.08.206 0 .151-.12.24-.12.087-.328.087-.088 0-.183-.017-.094-.016-.198-.05v-.184q.099.051.195.077.096.025.19.025.125 0 .193-.042.068-.044.068-.122 0-.073-.05-.112-.048-.039-.213-.074l-.062-.015q-.166-.035-.24-.106-.073-.073-.073-.2 0-.152.108-.236.109-.083.308-.083.099 0 .186.015.087.014.161.043zM4.862 295.627q-.143 0-.227.112-.083.112-.083.307 0 .194.082.307.084.111.228.111.143 0 .226-.112.083-.113.083-.306t-.083-.306q-.083-.113-.226-.113zm0-.151q.233 0 .365.151.133.151.133.419 0 .266-.133.418-.132.151-.365.151-.233 0-.366-.15-.132-.153-.132-.42t.132-.418q.133-.151.366-.151zM6.9 296.159v-.657h.178v.65q0 .154.06.232.06.076.18.076.145 0 .228-.092.084-.092.084-.25v-.616h.179v1.085H7.63v-.166q-.065.098-.15.147-.086.047-.2.047-.186 0-.283-.116-.097-.116-.097-.34zM9.618 295.194v.308h.367v.139h-.367v.589q0 .132.035.17.037.038.149.038h.183v.15h-.183q-.207 0-.285-.077-.079-.078-.079-.281v-.59h-.13v-.138h.13v-.308h.18zM12.386 295.932v.655h-.178v-.649q0-.154-.06-.23-.06-.077-.18-.077-.145 0-.228.092-.084.092-.084.251v.613h-.179v-1.507h.18v.59q.063-.097.15-.146.087-.048.2-.048.187 0 .283.116.096.115.096.34zM14.18 296.424V297H14v-1.498h.18v.165q.056-.097.14-.144.087-.047.206-.047.198 0 .321.157.124.157.124.413 0 .255-.124.412-.123.157-.32.157-.12 0-.206-.046-.085-.048-.142-.145zm.606-.378q0-.197-.081-.309-.08-.112-.222-.112-.142 0-.223.112-.08.112-.08.309 0 .196.08.309.081.111.223.111.141 0 .222-.111.08-.113.08-.31zM16.95 295.627q-.143 0-.226.112-.084.112-.084.307 0 .194.083.307.083.111.228.111.142 0 .225-.112.084-.113.084-.306t-.084-.306q-.083-.113-.225-.113zm0-.151q.233 0 .366.151.133.151.133.419 0 .266-.133.418-.133.151-.365.151-.234 0-.367-.15-.132-.153-.132-.42t.132-.418q.133-.151.367-.151zM19.007 295.08h.178v1.507h-.178v-1.507zM21.749 296v.087h-.82q.012.184.11.281.1.096.278.096.102 0 .198-.025.097-.025.192-.076v.169q-.096.04-.197.062-.1.021-.204.021-.26 0-.412-.15-.151-.152-.151-.41 0-.266.143-.422.145-.157.389-.157.219 0 .346.141.128.14.128.383zm-.179-.052q-.002-.147-.082-.234-.08-.087-.211-.087-.15 0-.24.084-.089.085-.102.238l.635-.001z"/>
        </g>
        <text x="5.76" y="278.45" font-size="2.646" fill="#fff" stroke-width="2"/>
        <rect width="22.828" height="7.623" x=".492" y="280.547" rx="1.297" ry=".891" fill="#606060"/>
        <path d="M3.297 206.152l-.354.96h.71l-.356-.96zm-.147-.257h.296l.735 1.929h-.272l-.175-.495h-.87l-.176.495h-.275l.737-1.929zM13.669 206.903v.707h.418q.21 0 .312-.087.102-.088.102-.267 0-.181-.102-.267-.101-.086-.312-.086h-.418zm0-.793v.581h.386q.191 0 .284-.071.094-.072.094-.22 0-.146-.094-.218-.093-.072-.284-.072h-.386zm-.261-.215h.666q.299 0 .46.124.162.124.162.353 0 .177-.083.282-.083.104-.243.13.193.041.299.173.107.13.107.327 0 .258-.176.4-.176.14-.5.14h-.692v-1.929z" font-size="2.646" fill="#fff" stroke-width="2"/>
        <g font-size="1.984" fill="#fff" stroke-width="2">
            <path d="M13.694 198.147q.067-.12.16-.177.093-.057.22-.057.169 0 .26.12.093.117.093.336v.655h-.18v-.649q0-.156-.054-.231-.056-.076-.17-.076-.138 0-.218.092-.08.092-.08.251v.613h-.18v-.649q0-.157-.055-.231-.055-.076-.17-.076-.137 0-.218.093-.08.092-.08.25v.613h-.18v-1.085h.18v.169q.061-.1.146-.148.086-.047.203-.047.118 0 .2.06.084.06.123.174zM15.273 198.479q-.216 0-.3.05-.083.049-.083.168 0 .095.062.15.063.056.17.056.149 0 .238-.105.09-.105.09-.28v-.04h-.177zm.355-.074v.62h-.178v-.165q-.06.098-.152.146-.091.046-.223.046-.166 0-.265-.093-.098-.094-.098-.25 0-.184.122-.277.123-.093.366-.093h.25v-.017q0-.123-.081-.19-.08-.068-.227-.068-.093 0-.181.023-.088.022-.17.066v-.164q.098-.038.19-.056.092-.02.18-.02.235 0 .351.122.116.122.116.37zM16.903 198.37v.654h-.179v-.649q0-.154-.06-.23-.06-.077-.18-.077-.144 0-.228.092-.083.092-.083.251v.613h-.18v-1.085h.18v.169q.064-.098.15-.147.087-.048.2-.048.188 0 .284.116.096.116.096.34zM17.242 198.596v-.657h.178v.65q0 .154.06.232.06.076.18.076.145 0 .228-.092.084-.092.084-.25v-.616h.179v1.085h-.179v-.166q-.065.098-.15.147-.086.047-.2.047-.186 0-.283-.116-.097-.116-.097-.34zM19.013 198.479q-.216 0-.3.05-.083.049-.083.168 0 .095.062.15.063.056.17.056.149 0 .238-.105.09-.105.09-.28v-.04h-.177zm.356-.074v.62h-.179v-.165q-.06.098-.152.146-.09.046-.223.046-.166 0-.265-.093-.098-.094-.098-.25 0-.184.122-.277.123-.093.366-.093h.25v-.017q0-.123-.081-.19-.08-.068-.227-.068-.093 0-.181.023-.088.022-.17.066v-.164q.098-.038.19-.056.092-.02.18-.02.235 0 .351.122.117.122.117.37zM19.74 197.517h.179v1.507h-.178v-1.507zM13.34 200.251l-.265.72h.532l-.266-.72zm-.11-.193h.222l.552 1.447H13.8l-.132-.371h-.652l-.132.37h-.206l.552-1.446zM14.523 200.058h.165l-.504 1.63h-.165l.504-1.63zM15.08 200.814v.53h.314q.158 0 .233-.065.077-.066.077-.2 0-.136-.077-.2-.075-.065-.233-.065h-.314zm0-.595v.436h.29q.143 0 .213-.053.07-.055.07-.165 0-.11-.07-.164-.07-.054-.213-.054h-.29zm-.196-.16h.5q.224 0 .345.092.121.093.121.265 0 .132-.062.21-.062.08-.182.099.145.03.224.13.08.098.08.245 0 .194-.131.3-.132.105-.375.105h-.52v-1.447zM17.56 200.452v.168q-.075-.039-.156-.058-.082-.02-.169-.02-.133 0-.2.041-.066.041-.066.122 0 .062.048.098.047.035.19.067l.062.014q.19.04.27.115.08.074.08.207 0 .15-.12.239-.12.088-.329.088-.087 0-.182-.017-.094-.017-.199-.05v-.185q.1.052.195.078.096.025.19.025.126 0 .194-.043t.068-.122q0-.073-.05-.111-.048-.04-.214-.075l-.062-.014q-.166-.035-.24-.107-.073-.073-.073-.199 0-.153.109-.236.108-.083.308-.083.098 0 .186.014.087.015.16.044zM17.8 200.42h.178l.223.846.222-.846h.21l.223.846.222-.846h.178l-.284 1.085h-.21l-.234-.89-.234.89h-.21l-.284-1.085zM19.527 200.42h.179v1.085h-.179v-1.085zm0-.423h.179v.226h-.179v-.226zM20.254 200.111v.309h.367v.138h-.367v.59q0 .132.036.17.037.038.148.038h.183v.149h-.183q-.206 0-.285-.077-.078-.077-.078-.28v-.59h-.13v-.138h.13v-.308h.18zM21.638 200.461v.167q-.076-.042-.152-.062-.076-.021-.153-.021-.174 0-.27.11-.096.11-.096.308 0 .199.096.31.096.109.27.109.077 0 .153-.02.076-.022.152-.064v.165q-.075.035-.155.052-.08.018-.17.018-.245 0-.39-.154-.144-.154-.144-.416 0-.265.146-.418.146-.152.4-.152.082 0 .16.018.08.016.153.05zM22.848 200.85v.655h-.178v-.65q0-.153-.06-.23-.06-.077-.18-.077-.145 0-.228.093-.084.092-.084.25v.614h-.179v-1.508h.18v.591q.063-.098.15-.146.087-.049.2-.049.187 0 .283.117.096.115.096.34z"/>
        </g>
        <g font-size="2.646" fill="#fff" stroke-width="2">
            <path d="M17.22 206.035q-.284 0-.451.212-.167.212-.167.577 0 .364.167.576.167.212.452.212.284 0 .45-.212.166-.212.166-.576 0-.365-.167-.577-.165-.212-.45-.212zm0-.212q.406 0 .65.272.242.272.242.73 0 .455-.243.728-.243.271-.648.271-.407 0-.651-.271-.243-.272-.243-.729 0-.457.243-.729.244-.272.65-.272zM18.49 205.858h.263v1.172q0 .31.112.447.113.135.365.135.25 0 .363-.135.112-.137.112-.447v-1.172h.262v1.204q0 .377-.187.57-.186.192-.55.192-.366 0-.553-.192-.186-.193-.186-.57v-1.204zM20.19 205.858h1.633v.22h-.685v1.709h-.262v-1.71h-.685v-.22z"/>
        </g>
        <g font-size="4.63" fill="#fff" stroke-width="2">
            <path d="M3.663 198.698l-.62 1.68h1.242l-.622-1.68zm-.258-.45h.518l1.287 3.375h-.475l-.308-.866H2.906l-.308.866h-.481l1.288-3.375zM7.5 200.36q0-.46-.19-.72-.188-.262-.518-.262t-.52.263q-.188.26-.188.719 0 .458.188.72.19.26.52.26t.518-.26q.19-.262.19-.72zm-1.416-.884q.132-.227.33-.335.202-.11.48-.11.461 0 .748.365.29.367.29.964 0 .596-.29.963-.287.366-.748.366-.278 0-.48-.109-.198-.11-.33-.336v.38h-.418v-3.519h.418v1.37zM10.088 199.48q-.07-.04-.153-.059-.082-.02-.181-.02-.353 0-.543.23-.187.229-.187.658v1.334h-.419v-2.532h.419v.394q.13-.231.34-.342.211-.113.512-.113.043 0 .095.007.052.005.115.016l.002.427z"/>
        </g>
        <g font-size="2.646" fill="#fff" stroke-width=".3" stroke-miterlimit="10">
            <path d="M9.518 277.812v.254q-.148-.071-.28-.106-.132-.035-.255-.035-.213 0-.33.083-.114.083-.114.235 0 .128.076.194.078.064.292.104l.158.033q.292.055.43.196.14.14.14.375 0 .28-.19.425-.187.145-.55.145-.136 0-.292-.031-.153-.031-.319-.092v-.269q.16.09.312.134.152.046.3.046.223 0 .344-.088.122-.088.122-.25 0-.143-.088-.223-.087-.08-.286-.12l-.158-.031q-.292-.058-.423-.182-.13-.124-.13-.345 0-.256.18-.403.18-.148.497-.148.135 0 .276.025.14.024.288.074zM10.017 277.748h.262v1.172q0 .31.112.447.113.136.365.136.25 0 .363-.136.112-.137.112-.447v-1.172h.262v1.204q0 .378-.187.57-.186.193-.55.193-.366 0-.553-.193-.186-.192-.186-.57v-1.204zM11.984 277.748h.39l.491 1.313.495-1.313h.39v1.929h-.255v-1.694l-.498 1.323h-.262l-.497-1.323v1.694h-.254v-1.929zM15.42 277.812v.254q-.149-.071-.28-.106-.133-.035-.255-.035-.213 0-.33.083-.115.083-.115.235 0 .128.077.194.077.064.292.104l.157.033q.292.055.43.196.14.14.14.375 0 .28-.189.425-.187.145-.55.145-.137 0-.292-.031-.154-.031-.32-.092v-.269q.16.09.312.134.153.046.3.046.223 0 .345-.088.121-.088.121-.25 0-.143-.088-.223-.086-.08-.285-.12l-.159-.031q-.292-.058-.422-.182t-.13-.345q0-.256.179-.403.18-.148.497-.148.136 0 .277.025.14.024.288.074z"/>
        </g>
    </g>
</svg>
