<svg xmlns="http://www.w3.org/2000/svg" xmlns:xlink="http://www.w3.org/1999/xlink" width="90" height="380" viewBox="0 0 23.813 100.542">
    <defs>
        <linearGradient id="b">
            <stop offset="0" stop-color="#fff"/>
            <stop offset="1" stop-opacity="0"/>
        </linearGradient>
        <linearGradient id="a">
            <stop offset="0" stop-color="#fdfdfd"/>
            <stop offset="1" stop-color="#fdfdfd"/>
        </linearGradient>
        <radialGradient gradientUnits="userSpaceOnUse" gradientTransform="matrix(.4218 0 0 .02673 -105.982 272.192)" r="69.827" fy="856.052" fx="285.494" cy="856.052" cx="285.494" id="d" xlink:href="#a"/>
        <linearGradient gradientUnits="userSpaceOnUse" y2="832.532" x2="279.915" y1="830.884" x1="268.967" id="h" xlink:href="#b" gradientTransform="matrix(.26458 0 0 .26458 -59.861 72.341)"/>
        <clipPath clipPathUnits="userSpaceOnUse" id="j">
            <path d="M184.208 39.92h98.9v30.245h-98.9z" fill-rule="evenodd" stroke-width=".486" stroke-linejoin="round"/>
        </clipPath>
        <clipPath clipPathUnits="userSpaceOnUse" id="i">
            <path d="M0 288.998h23.813V297H0z" fill-rule="evenodd" stroke-width=".486" stroke-linejoin="round"/>
        </clipPath>
        <clipPath clipPathUnits="userSpaceOnUse" id="g">
            <path d="M0 288.998h23.813V297H0z" fill-rule="evenodd" stroke-width=".486" stroke-linejoin="round"/>
        </clipPath>
        <clipPath clipPathUnits="userSpaceOnUse" id="f">
            <path d="M216.698-20.865h99.864v33.56h-99.864z" fill-rule="evenodd" stroke-width=".486" stroke-linejoin="round"/>
        </clipPath>
        <clipPath clipPathUnits="userSpaceOnUse" id="e">
            <path d="M0 288.998h23.813V297H0z" fill-rule="evenodd" stroke-width=".486" stroke-linejoin="round"/>
        </clipPath>
        <clipPath clipPathUnits="userSpaceOnUse" id="c">
            <path d="M0 288.998h23.813V297H0z" fill-rule="evenodd" stroke-width=".486" stroke-linejoin="round"/>
        </clipPath>
    </defs>
    <g transform="translate(0 -196.458)">
        <path d="M0 196.458h23.813V297H0z" fill-rule="evenodd"/>
        <path d="M31.483 294.933l-17.042-.125-14.418.125-.878-3.47c4.81-1.004 10.75-1.724 16.17-1.72 5.716.006 9.887.467 17.047 1.845z" clip-path="url(#c)" fill="url(#d)" stroke="#8b8b8b" stroke-width=".397"/>
        <flowRoot transform="matrix(.26458 0 0 .26458 -58.46 115.922)" style="line-height:125%" xml:space="preserve" font-style="normal" font-weight="400" font-size="10" font-family="sans-serif" letter-spacing="0" word-spacing="0" fill="#000" fill-opacity="1" stroke="none" stroke-width="1" stroke-linecap="butt" stroke-linejoin="miter" stroke-opacity="1">
            <flowRegion>
                <path d="M323.249 35.538h7.829v72.478h-7.829z"/>
            </flowRegion>
            <flowPara/>
        </flowRoot>
        <path d="M0 291.993c10.904-1.21 21.546-.99 31.75.123l-.033 3.296H0z" clip-path="url(#e)"/>
        <g transform="matrix(.23845 0 0 .23845 -51.671 293.973)" clip-path="url(#f)">
            <path d="M291.232-10.527l6.43-3.034 5.953-.742 4.222.511 5.886 2.16 4.683 4.37z" fill-rule="evenodd"/>
            <g stroke="#fff">
                <g color="#000" fill="none" stroke-linejoin="bevel">
                    <path d="M2.117 188.81l18.113 36.226 65.551 31.913 90.564 13.8 94.877-11.213 60.376-31.913 14.663-30.188-14.663-37.951.324 67.923-33.1-64.473-25.875 96.602-58.651-80.214-40.538 91.427-40.538-75.902-46.576 61.239-17.098-92.852-49.316 62.663 6.037-89.702 44.241 27.296 63.574 32.218 80-16.819 86.466-15.957 31.051-3.666-33.279-62.05 1.366 64.853-64.689-74.392-20.7 91.427-69.001-66.198-75.902 50.026L84.751 80.38l-59.346 55.816 24.151-56.064h34.501l81.077-37.088-18.975 69.864 89.702-24.15 62.101 7.762-66.314-54.334 4.212 46.571-70.726-45.713 66.414-1.725-53.476-15.525-12.938 16.388-49.164-6.9-66.414 44.85-33.333 49.417 9.183 6.647L2.118 188.81z" stroke-width="2.892" transform="matrix(.09825 0 0 .0698 286.195 -16.043)"/>
                    <path d="M133.17 195.51l12.99-80.876-61.407-35.517 32.081-44.697 28.463-4.313 32.776-5.175 41.401 6.9 12.938 10.35 47.438 20.7 18.975 34.501 30.188 30.188 2.803 31.913" stroke-width="2.892" transform="matrix(.09825 0 0 .0698 286.195 -16.043)"/>
                    <path d="M329.01 126.71l-49.16-63.83-59.77-31.05M1.926 188.186L16.11 129.84" stroke-width="2" transform="matrix(.09825 0 0 .0698 286.195 -16.043)"/>
                </g>
            </g>
            <path d="M320.187-2.25l-1.666-4.93" fill="none" stroke="#fff" stroke-width=".2"/>
        </g>
        <path d="M2.826 292.087l3.72-1.531.758.608 1.108-.783 2.215.291.933-.35 3.024.98-1.042.478-9.503.292z" clip-path="url(#i)" fill-rule="evenodd"/>
        <g style="line-height:125%" transform="matrix(.24078 0 0 .26458 -44.353 278.436)" clip-path="url(#j)" font-weight="400" font-size="7.5" font-family="Geneva" letter-spacing="0" word-spacing="0" fill="#fff">
            <path style="-inkscape-font-specification:Geneva" d="M186.153 66.995h.681v.015q0 .263.201.44.202.171.682.171.42 0 .68-.205.264-.205.264-.483 0-.377-.512-.535l-.348-.106-.23-.073-.473-.147q-.81-.296-.81-.985 0-.483.392-.85.392-.366 1.165-.366.761 0 1.084.315.322.311.322.692v.015h-.685v-.015q0-.205-.209-.322-.205-.117-.549-.117-.41 0-.63.172-.216.168-.216.417 0 .19.14.312.142.117.475.212l.33.092.238.07q.498.142.619.2.124.06.249.15.172.133.253.32.084.186.084.435 0 .579-.418.974-.413.396-1.212.396-.505 0-.838-.15-.334-.15-.531-.414-.198-.267-.198-.615v-.015zM199.465 68.189q-.802 0-1.37-.542-.564-.546-.564-1.619 0-1.07.564-1.611.568-.546 1.37-.546.798 0 1.362.546.568.542.568 1.611 0 1.073-.568 1.619-.564.542-1.362.542zm0-.568q.549 0 .882-.436.337-.439.337-1.157 0-.714-.337-1.15-.333-.44-.882-.44-.553 0-.89.44-.334.436-.334 1.15 0 .718.334 1.157.337.436.89.436zM212.4 63.985h.68v4.09h-.68v-.714q-.213.33-.418.495-.205.164-.421.249-.217.084-.473.084-.567 0-.963-.319-.396-.322-.396-1.292v-2.593h.682v2.307q0 .897.238 1.084.238.187.59.187.303 0 .57-.176.272-.18.429-.498.161-.322.161-.894v-2.01zM224.18 67.497v.571q-.498.12-.762.12-.38 0-.688-.153-.304-.154-.465-.447-.158-.293-.158-.934v-2.102h-.71v-.567h.71v-.967h.682v.967h1.193v.567h-1.193v1.908q0 .542.084.755.084.208.263.307.184.1.436.1.202 0 .608-.125zM233.2 68.075h-.681v-5.91h.68v2.527q.217-.334.418-.495.206-.161.425-.242.224-.084.495-.084.384 0 .688.158.308.157.476.465.169.304.169.978v2.603h-.682v-2.31q0-.55-.073-.777-.073-.23-.278-.359-.205-.132-.469-.132-.3 0-.571.176-.271.176-.436.49-.161.316-.161.902v2.01zM245.04 69.665h-.682v-5.68h.682v.71q.212-.362.402-.513.194-.15.436-.23.242-.08.498-.08.469 0 .857.256.388.252.6.758.217.505.217 1.135 0 .934-.45 1.553-.447.615-1.257.615-.26 0-.494-.077-.23-.073-.41-.22-.18-.15-.4-.53v2.303zm0-3.633q0 .696.3 1.142.3.447.846.447.498 0 .827-.395.33-.396.33-1.183 0-.92-.348-1.275-.348-.358-.795-.358-.322 0-.604.197-.278.194-.417.583-.14.384-.14.842zM258.176 68.189q-.802 0-1.37-.542-.564-.546-.564-1.619 0-1.07.564-1.611.568-.546 1.37-.546.798 0 1.362.546.567.542.567 1.611 0 1.073-.567 1.619-.564.542-1.362.542zm0-.568q.549 0 .882-.436.337-.439.337-1.157 0-.714-.337-1.15-.333-.44-.882-.44-.553 0-.89.44-.334.436-.334 1.15 0 .718.334 1.157.337.436.89.436zM269.177 68.075h-.682v-5.91h.682v5.91zM280.456 67.024h.681v.037q0 .27-.216.553-.216.282-.571.428-.356.147-.817.147-.934 0-1.443-.604-.505-.605-.505-1.528 0-.944.534-1.563.539-.623 1.385-.623.465 0 .842.202.377.201.597.63.22.424.22 1.186v.227h-2.904q0 .656.351 1.08.355.425.982.425.45 0 .655-.172.209-.176.209-.388v-.037zm-2.154-1.42h2.209v-.081q0-.286-.14-.553-.135-.271-.377-.4-.241-.131-.564-.131-.38 0-.703.307-.322.304-.425.857z"/>
        </g>
        <g font-size="1.984" fill="#fff" stroke="#fff" stroke-width=".053">
            <path d="M5.945 217.643h.832v.164H6.14v.427h.574v.165H6.14v.69h-.196v-1.446zM7.77 218.411q.064.021.123.091.06.07.12.192l.199.395h-.21l-.186-.37q-.071-.146-.14-.194-.066-.047-.182-.047H7.28v.611h-.196v-1.446h.442q.248 0 .37.103.122.104.122.313 0 .137-.064.227-.063.09-.184.125zm-.49-.607v.513h.247q.141 0 .213-.065.072-.066.072-.193t-.072-.19q-.072-.065-.213-.065H7.28zM8.465 217.643h.914v.164H8.66v.429h.69v.164h-.69v.525h.737v.164h-.932v-1.446zM10.304 217.776q-.214 0-.34.158-.125.16-.125.434 0 .273.125.432.126.159.34.159.213 0 .337-.16.125-.158.125-.431 0-.275-.125-.434-.124-.158-.337-.158zm.274 1.287l.258.282h-.237l-.214-.231-.05.003h-.031q-.306 0-.489-.203-.182-.204-.182-.546 0-.343.182-.547.183-.204.489-.204.304 0 .486.204t.182.547q0 .252-.102.43-.1.18-.292.265zM11.256 217.643h.197v.879q0 .232.084.335.084.102.273.102.188 0 .273-.102.084-.103.084-.335v-.88h.197v.904q0 .283-.14.427-.14.144-.414.144-.274 0-.414-.144-.14-.144-.14-.427v-.903zM12.732 217.643h.914v.164h-.719v.429h.69v.164h-.69v.525h.737v.164h-.932v-1.446zM13.984 217.643h.263l.642 1.21v-1.21h.19v1.446h-.264l-.641-1.21v1.21h-.19v-1.446zM16.551 217.754v.207q-.099-.093-.21-.138-.112-.046-.238-.046-.248 0-.38.153-.132.15-.132.438 0 .285.132.438.132.15.38.15.126 0 .237-.045.112-.045.211-.137v.204q-.102.07-.218.105-.114.035-.242.035-.328 0-.517-.201-.19-.202-.19-.55 0-.348.19-.549.189-.201.517-.201.13 0 .244.035.116.034.216.102zM16.624 217.643h.21l.401.595.399-.595h.21l-.512.757v.69h-.196v-.69l-.512-.757z"/>
        </g>
        <g font-size="1.984" fill="#fff" stroke="#fff" stroke-width=".053">
            <path d="M6.964 226.107v.19q-.112-.052-.21-.079-.1-.026-.191-.026-.16 0-.247.062t-.087.176q0 .096.057.146.059.048.22.078l.118.024q.219.042.322.148.105.104.105.28 0 .211-.142.32-.14.108-.412.108-.103 0-.22-.023-.115-.023-.239-.069v-.201q.12.066.234.1.114.034.225.034.167 0 .258-.066t.091-.188q0-.106-.065-.166-.065-.06-.215-.09l-.119-.024q-.219-.043-.317-.136-.097-.093-.097-.26 0-.19.134-.301.136-.11.373-.11.102 0 .208.018.105.018.216.055zM7.16 226.06h1.223v.164H7.87v1.282h-.197v-1.282h-.514v-.165zM9.263 226.828q.063.021.122.09.06.07.12.193l.199.395h-.21l-.185-.371q-.072-.145-.14-.193-.067-.047-.183-.047h-.213v.611h-.196v-1.447h.442q.248 0 .37.104t.122.313q0 .137-.064.227-.063.09-.184.125zm-.49-.608v.514h.246q.141 0 .213-.065.073-.066.073-.193t-.073-.19q-.072-.066-.213-.066h-.246zM9.934 226.06h.197v.878q0 .233.084.336.085.101.274.101.188 0 .272-.101.084-.103.084-.336v-.879h.197v.903q0 .283-.14.428-.14.144-.413.144-.275 0-.415-.144-.14-.145-.14-.428v-.903zM12.493 226.17v.207q-.098-.092-.21-.137-.112-.046-.238-.046-.248 0-.38.152-.132.151-.132.438 0 .286.132.438.132.151.38.151.126 0 .237-.045.113-.046.211-.138v.205q-.102.07-.218.104-.114.035-.242.035-.328 0-.517-.2-.19-.202-.19-.55 0-.349.19-.55.189-.2.517-.2.13 0 .244.034.116.034.216.103zM12.597 226.06h1.224v.164h-.514v1.282h-.196v-1.282h-.514v-.165zM13.992 226.06h.197v.878q0 .233.084.336.085.101.274.101.188 0 .272-.101.084-.103.084-.336v-.879h.197v.903q0 .283-.14.428-.14.144-.413.144-.275 0-.415-.144-.14-.145-.14-.428v-.903zM16.154 226.828q.063.021.122.09.06.07.12.193l.199.395h-.21l-.185-.371q-.072-.145-.14-.193-.067-.047-.183-.047h-.213v.611h-.196v-1.447h.442q.248 0 .37.104t.122.313q0 .137-.064.227-.063.09-.184.125zm-.49-.608v.514h.246q.141 0 .213-.065.073-.066.073-.193t-.073-.19q-.072-.066-.213-.066h-.246zM16.848 226.06h.914v.164h-.718v.428h.688v.165h-.688v.524h.736v.165h-.932v-1.447z"/>
        </g>
        <g font-size="1.984" fill="#fff" stroke="#fff" stroke-width=".053">
            <path d="M5.839 235.498v.53h.314q.158 0 .233-.065.077-.066.077-.2 0-.136-.077-.2-.075-.065-.233-.065h-.314zm0-.595v.436h.29q.143 0 .213-.053.07-.055.07-.165 0-.11-.07-.164-.07-.054-.213-.054h-.29zm-.196-.16h.5q.224 0 .345.092.121.093.121.265 0 .132-.062.21-.062.08-.182.099.144.03.224.13.08.097.08.245 0 .193-.131.3-.132.105-.375.105h-.52v-1.447zM7.69 235.51q.063.022.122.092.06.07.12.191l.199.396h-.21l-.186-.371q-.072-.146-.14-.193-.066-.048-.182-.048h-.214v.612h-.195v-1.447h.441q.249 0 .37.104.123.103.123.313 0 .136-.064.226-.063.09-.184.125zm-.49-.607v.513h.245q.142 0 .214-.064.072-.066.072-.193t-.072-.191q-.072-.065-.214-.065H7.2zM8.383 234.742h.196v1.447h-.196v-1.447zM9.955 235.982v-.388h-.32v-.161h.514v.621q-.114.08-.25.122-.137.04-.292.04-.339 0-.53-.197-.192-.199-.192-.552 0-.355.191-.552.192-.2.531-.2.142 0 .269.036.127.035.235.103v.208q-.109-.092-.23-.139-.123-.046-.257-.046-.266 0-.4.148-.132.148-.132.442 0 .292.132.44.134.149.4.149.103 0 .185-.017.081-.019.146-.057zM10.507 234.742h.196v.593h.711v-.593h.196v1.447h-.196v-.69h-.711v.69h-.196v-1.447zM11.799 234.742h1.224v.165h-.514v1.282h-.197v-1.282H11.8v-.165zM13.216 234.742h.264l.641 1.21v-1.21h.19v1.447h-.263l-.642-1.21v1.21h-.19v-1.447zM14.7 234.742h.916v.165h-.72v.428h.69v.165h-.69v.524h.737v.165h-.932v-1.447zM16.82 234.79v.19q-.112-.053-.21-.08-.1-.025-.191-.025-.16 0-.247.062t-.087.176q0 .096.058.145.058.049.219.079l.118.024q.219.042.322.147.105.105.105.281 0 .21-.141.32-.14.108-.413.108-.103 0-.22-.024-.114-.023-.238-.068v-.202q.119.067.233.1.114.035.225.035.168 0 .259-.066.09-.066.09-.188 0-.107-.065-.167-.065-.06-.214-.09l-.12-.023q-.219-.044-.316-.137-.098-.093-.098-.259 0-.191.134-.302.136-.11.373-.11.102 0 .208.018.105.018.216.055zM18.083 234.79v.19q-.111-.053-.21-.08-.099-.025-.19-.025-.16 0-.248.062-.086.062-.086.176 0 .096.057.145.058.049.22.079l.117.024q.22.042.323.147.105.105.105.281 0 .21-.142.32-.14.108-.413.108-.102 0-.219-.024-.115-.023-.239-.068v-.202q.12.067.234.1.114.035.224.035.168 0 .26-.066.09-.066.09-.188 0-.107-.066-.167-.065-.06-.214-.09l-.12-.023q-.218-.044-.316-.137-.098-.093-.098-.259 0-.191.135-.302.136-.11.373-.11.102 0 .207.018.106.018.216.055z"/>
        </g>
        <g font-size="1.984" fill="#fff" stroke="#fff" stroke-width=".053">
            <path d="M7.597 244.423v1.125h.237q.3 0 .438-.136.14-.136.14-.428 0-.291-.14-.426-.139-.135-.438-.135h-.237zm-.195-.161h.402q.42 0 .617.175t.197.547q0 .374-.198.549-.198.175-.616.175h-.402v-1.446zM9.38 244.455l-.266.72h.532l-.267-.72zm-.111-.193h.222l.551 1.446h-.203l-.132-.37h-.652l-.132.37h-.206l.552-1.446zM10.254 244.262h.292l.369.984.371-.984h.292v1.446h-.191v-1.27l-.373.992h-.197l-.373-.992v1.27h-.19v-1.446zM12.16 244.423v.543h.245q.137 0 .211-.07.075-.071.075-.202 0-.13-.075-.2-.074-.071-.21-.071h-.247zm-.197-.161h.442q.243 0 .367.11.125.11.125.322 0 .214-.125.324-.124.109-.367.109h-.246v.581h-.196v-1.446zM13.161 244.262h.196v1.446h-.196v-1.446zM13.746 244.262h.264l.641 1.21v-1.21h.19v1.446h-.263l-.642-1.21v1.21h-.19v-1.446zM16.217 245.502v-.389h-.32v-.16h.514v.62q-.114.081-.25.123-.137.04-.292.04-.339 0-.53-.197-.192-.199-.192-.552 0-.355.191-.553.192-.198.531-.198.142 0 .269.035.127.034.235.102v.209q-.108-.093-.23-.139-.123-.047-.257-.047-.266 0-.4.149-.132.148-.132.442 0 .292.132.44.134.149.4.149.103 0 .185-.018.081-.018.146-.056z"/>
        </g>
        <g font-size="1.984" fill="#fff" stroke="#fff" stroke-width=".053">
            <path d="M7.568 253.075v.543h.246q.137 0 .212-.07.074-.071.074-.202 0-.13-.074-.2-.075-.071-.212-.071h-.246zm-.195-.161h.441q.244 0 .368.11.125.11.125.322 0 .214-.125.323-.124.11-.368.11h-.246v.581h-.195v-1.446zM9.157 253.046q-.213 0-.339.16-.125.158-.125.432t.125.433q.126.159.34.159.213 0 .337-.16.125-.158.125-.432t-.125-.433q-.124-.159-.338-.159zm0-.158q.305 0 .487.204.182.203.182.546 0 .342-.182.547-.182.203-.487.203t-.488-.203q-.182-.204-.182-.547 0-.343.182-.546.183-.204.488-.204zM11 252.961v.191q-.112-.053-.21-.08-.1-.026-.192-.026-.16 0-.247.062-.086.062-.086.177 0 .096.057.145.058.049.219.079l.118.024q.22.041.323.147.105.105.105.281 0 .21-.142.319-.14.108-.413.108-.102 0-.219-.023-.115-.023-.239-.069v-.201q.12.067.234.1.114.034.224.034.168 0 .259-.066.091-.065.091-.188 0-.106-.066-.166-.065-.06-.214-.09l-.12-.023q-.218-.044-.316-.137-.098-.093-.098-.259 0-.192.135-.302.136-.11.373-.11.102 0 .207.018.106.018.216.055zM11.396 252.914h.195v1.446h-.195v-1.446zM11.78 252.914h1.224v.164h-.513v1.282h-.197v-1.282h-.514v-.164zM13.198 252.914h.196v1.446h-.196v-1.446zM14.37 253.046q-.213 0-.339.16-.125.158-.125.432t.125.433q.126.159.34.159.212 0 .336-.16.125-.158.125-.432t-.125-.433q-.124-.159-.337-.159zm0-.158q.304 0 .487.204.182.203.182.546 0 .342-.182.547-.183.203-.487.203-.305 0-.488-.203-.182-.204-.182-.547 0-.343.182-.546.183-.204.488-.204zM15.345 252.914h.264l.641 1.21v-1.21h.19v1.446h-.264l-.641-1.21v1.21h-.19v-1.446z"/>
        </g>
        <g font-size="1.984" fill="#fff" stroke="#fff" stroke-width=".053">
            <path d="M4.383 269.615v.19q-.112-.053-.21-.079-.1-.026-.191-.026-.16 0-.248.062-.086.062-.086.176 0 .096.057.146.059.048.22.078l.118.024q.219.042.322.148.105.104.105.28 0 .21-.142.32-.14.108-.412.108-.103 0-.22-.023-.115-.024-.239-.07v-.2q.12.066.234.1.114.034.225.034.167 0 .258-.066t.091-.188q0-.106-.065-.167-.065-.06-.215-.09l-.119-.023q-.219-.044-.317-.137-.097-.093-.097-.258 0-.192.134-.303.136-.11.373-.11.102 0 .208.018.105.019.216.056zM4.578 269.567h1.224v.165H5.29v1.282h-.197v-1.282h-.514v-.165zM6.682 270.336q.063.021.122.09.06.07.12.193l.199.395h-.21l-.186-.371q-.071-.145-.139-.193-.067-.047-.183-.047h-.213v.61h-.196v-1.446h.442q.248 0 .37.104t.122.313q0 .137-.064.227-.063.09-.184.125zm-.49-.608v.514h.246q.141 0 .213-.065.073-.066.073-.193t-.073-.19q-.072-.066-.213-.066h-.246zM7.353 269.567h.197v.88q0 .232.084.334.085.102.274.102.188 0 .272-.102.084-.102.084-.335v-.879h.197v.903q0 .283-.14.428-.14.144-.413.144-.275 0-.415-.144-.14-.145-.14-.428v-.903zM8.83 269.567h.29l.37.985.371-.985h.292v1.447h-.191v-1.27l-.373.992h-.197l-.373-.992v1.27h-.19v-1.447z"/>
        </g>
        <g font-size="1.984" fill="#fff" stroke="#fff" stroke-width=".053">
            <path d="M14.738 271.014l-.552-1.447h.204l.459 1.218.46-1.218h.203l-.552 1.447h-.222zM16.03 269.567h.166l-.504 1.631h-.165l.504-1.63zM16.98 269.7q-.214 0-.34.159-.125.159-.125.433 0 .273.125.432.126.16.34.16.213 0 .337-.16.125-.159.125-.432 0-.274-.125-.433-.124-.159-.338-.159zm0-.159q.304 0 .486.205.182.203.182.546 0 .342-.182.547-.182.203-.487.203t-.488-.203q-.182-.204-.182-.547 0-.343.182-.546.183-.205.488-.205zM19.037 269.679v.206q-.098-.092-.21-.137-.112-.046-.238-.046-.248 0-.38.152-.132.151-.132.438 0 .286.132.438.132.151.38.151.126 0 .237-.045.113-.046.211-.138v.205q-.102.07-.218.104-.114.035-.242.035-.328 0-.517-.2-.19-.202-.19-.55 0-.349.19-.55.189-.2.517-.2.13 0 .244.034.116.034.216.103zM19.141 269.567h1.224v.165h-.514v1.282h-.196v-1.282h-.514v-.165z"/>
        </g>
        <g font-size="1.984" fill="#fff" stroke="#fff" stroke-width=".053">
            <path d="M2.582 276.08h.196v1.447h-.196v-1.446zM3.167 276.08h.264l.641 1.21v-1.21h.19v1.447H4l-.642-1.21v1.21h-.19v-1.446z"/>
        </g>
        <rect width="13.196" height="15.835" x="10.166" y="272.652" rx="1.53" ry="1.693" fill="#404040"/>
        <g font-size="1.984" fill="#fff" stroke="#fff" stroke-width=".053">
            <path d="M11.902 276.132q-.214 0-.34.159-.125.159-.125.433 0 .273.125.432.126.16.34.16.213 0 .337-.16.125-.159.125-.432 0-.274-.125-.433-.124-.159-.337-.159zm0-.159q.304 0 .486.205.182.203.182.546 0 .342-.182.547-.182.203-.486.203-.306 0-.489-.203-.182-.204-.182-.547 0-.343.182-.546.183-.205.489-.205zM13.072 276.16v1.125h.236q.3 0 .438-.136.14-.135.14-.428 0-.29-.14-.425-.138-.136-.438-.136h-.236zm-.196-.16h.402q.42 0 .618.175.196.174.196.546 0 .374-.197.55-.198.175-.617.175h-.402v-1.447zM14.6 276.16v1.125h.235q.3 0 .438-.136.14-.135.14-.428 0-.29-.14-.425-.138-.136-.438-.136H14.6zm-.197-.16h.402q.421 0 .618.175.196.174.196.546 0 .374-.197.55-.198.175-.617.175h-.402v-1.447z"/>
        </g>
        <g font-size="1.984" fill="#fff" stroke="#fff" stroke-width=".053">
            <path d="M11.14 284.214h.914v.164h-.719v.429h.69v.164h-.69v.525h.737v.164h-.932v-1.446zM12.765 285.66l-.553-1.446h.205l.458 1.218.46-1.218h.203l-.551 1.446h-.222zM13.748 284.214h.915v.164h-.72v.429h.69v.164h-.69v.525h.737v.164h-.932v-1.446zM15 284.214h.264l.641 1.21v-1.21h.19v1.446h-.264l-.641-1.21v1.21H15v-1.446z"/>
        </g>
        <g font-size="1.984" fill="#fff" stroke-width=".2">
            <path d="M2.116 201.732q-.03-.017-.063-.025-.034-.009-.075-.009-.144 0-.222.098-.077.097-.077.28v.565h-.171v-1.074h.171v.167q.054-.098.14-.145.086-.048.21-.048.017 0 .038.003.022.002.048.007v.181zM3.145 202.06v.086h-.784q.011.183.106.279.095.095.265.095.098 0 .19-.025.093-.025.183-.075v.167q-.091.04-.188.061-.096.021-.195.021-.249 0-.394-.15-.145-.15-.145-.404 0-.264.137-.419.138-.155.372-.155.21 0 .331.14.122.14.122.379zm-.17-.052q-.002-.145-.079-.23-.076-.087-.202-.087-.143 0-.229.083-.085.084-.098.235h.608zM4.085 201.599v.167q-.072-.039-.15-.058-.078-.02-.161-.02-.127 0-.191.041-.063.04-.063.121 0 .061.045.097.046.035.183.066l.058.014q.182.04.258.114.077.073.077.204 0 .15-.115.237-.114.087-.314.087-.084 0-.175-.017-.09-.016-.19-.05v-.182q.095.05.187.077.091.025.181.025.12 0 .186-.042.065-.044.065-.121 0-.072-.048-.11-.046-.04-.205-.075l-.059-.014q-.158-.034-.229-.105-.07-.072-.07-.197 0-.152.104-.234.103-.083.294-.083.095 0 .178.015.084.014.154.043zM4.816 201.69q-.138 0-.217.112-.08.11-.08.303t.079.304q.08.11.218.11.136 0 .215-.11.08-.112.08-.304 0-.19-.08-.302-.08-.112-.215-.112zm0-.149q.222 0 .349.15.127.15.127.414t-.127.415q-.127.15-.35.15-.223 0-.35-.15-.126-.151-.126-.415 0-.265.126-.414.127-.15.35-.15zM6.437 201.993v.648h-.17V202q0-.153-.058-.229-.058-.075-.173-.075-.138 0-.218.09-.08.092-.08.25v.607h-.17v-1.075h.17v.167q.062-.097.144-.145.084-.048.192-.048.18 0 .27.115.093.114.093.337zM7.25 202.101q-.206 0-.286.05-.08.048-.08.166 0 .094.06.15.06.054.163.054.142 0 .227-.103.086-.105.086-.277v-.04h-.17zm.34-.073v.613h-.17v-.163q-.058.098-.145.145-.088.046-.214.046-.16 0-.254-.092-.093-.093-.093-.248 0-.182.117-.274.117-.092.35-.092h.24v-.017q0-.122-.079-.188-.077-.067-.217-.067-.089 0-.173.022-.084.022-.162.066v-.163q.093-.037.181-.055.089-.02.172-.02.225 0 .336.121.112.121.112.367zM8.115 201.262v.305h.351v.137h-.35v.583q0 .132.034.17.035.037.141.037h.175v.147h-.175q-.197 0-.272-.075-.075-.077-.075-.278v-.584h-.125v-.137h.125v-.305h.171zM9.094 201.69q-.137 0-.217.112-.08.11-.08.303t.08.304q.079.11.217.11.136 0 .216-.11.08-.112.08-.304 0-.19-.08-.302-.08-.112-.216-.112zm0-.149q.222 0 .35.15.126.15.126.414t-.127.415q-.127.15-.349.15-.223 0-.35-.15-.126-.151-.126-.415 0-.265.126-.414.127-.15.35-.15zM10.454 201.732q-.029-.017-.063-.025-.034-.009-.074-.009-.145 0-.223.098-.077.097-.077.28v.565h-.171v-1.074h.171v.167q.054-.098.14-.145.086-.048.21-.048.017 0 .039.003l.047.007v.181z"/>
        </g>
        <g font-size="4.63" fill="#fff" stroke-width=".2">
            <path d="M3.203 197.807l-.62 1.68h1.242l-.622-1.68zm-.258-.45h.518l1.286 3.376h-.474l-.308-.866H2.446l-.308.866h-.481l1.288-3.376zM7.327 199.204v1.529H6.91v-1.515q0-.36-.14-.538-.14-.179-.42-.179-.338 0-.532.215-.195.215-.195.586v1.43h-.418v-2.531h.418v.393q.15-.228.35-.341.204-.113.469-.113.436 0 .66.27.224.27.224.794zM10.266 199.204v1.529H9.85v-1.515q0-.36-.14-.538-.14-.179-.42-.179-.338 0-.532.215-.195.215-.195.586v1.43h-.418v-2.531h.418v.393q.15-.228.35-.341.204-.113.469-.113.436 0 .66.27.224.27.224.794zM11.057 199.734V198.2h.416v1.517q0 .36.14.54.14.179.42.179.338 0 .532-.215.197-.215.197-.586v-1.435h.416v2.532h-.416v-.39q-.152.232-.353.345-.199.11-.463.11-.437 0-.663-.27-.226-.272-.226-.794zM14.04 197.215h.415v3.518h-.416v-3.518zM15.323 198.2h.416v2.533h-.416V198.2zm0-.985h.416v.527h-.416v-.527z"/>
        </g>
        <text x="2.475" y="204.373" font-size="2.646" fill="#fff" stroke="#fff" stroke-width=".265" stroke-dasharray=".26458334,.26458334"/>
        <g font-size="1.984" fill="#fff" stroke="#fff" stroke-width=".053">
            <path d="M1.054 205.882v.543H1.3q.137 0 .212-.07.074-.071.074-.202 0-.13-.074-.2-.075-.071-.212-.071h-.246zm-.195-.161H1.3q.244 0 .368.11.125.11.125.322 0 .214-.125.324-.124.11-.368.11h-.246v.58H.86v-1.446zM2.643 205.854q-.213 0-.339.158-.125.16-.125.434 0 .273.125.432.126.159.34.159.213 0 .337-.16.125-.158.125-.431 0-.275-.125-.434-.124-.158-.338-.158zm0-.16q.305 0 .487.205.182.204.182.547 0 .342-.182.546-.182.204-.487.204t-.488-.204q-.182-.203-.182-.546t.182-.547q.183-.204.488-.204zM3.618 205.72h.196v1.283h.704v.164h-.9v-1.446zM4.26 205.72h.21l.402.596.398-.595h.21l-.511.758v.688h-.197v-.688l-.512-.758zM5.868 205.882v.543h.246q.137 0 .211-.07.075-.071.075-.202 0-.13-.075-.2-.074-.071-.21-.071h-.247zm-.196-.161h.442q.243 0 .367.11.125.11.125.322 0 .214-.125.324-.124.11-.367.11h-.246v.58h-.196v-1.446zM6.87 205.72h.196v.594h.71v-.593h.196v1.446h-.195v-.688h-.711v.688H6.87v-1.446zM8.95 205.854q-.214 0-.34.158-.125.16-.125.434 0 .273.125.432.126.159.34.159.212 0 .336-.16.125-.158.125-.431 0-.275-.125-.434-.124-.158-.337-.158zm0-.16q.303 0 .486.205.182.204.182.547 0 .342-.182.546-.183.204-.487.204-.305 0-.488-.204-.182-.203-.182-.546t.182-.547q.183-.204.488-.204zM9.924 205.72h.263l.642 1.211v-1.21h.19v1.446h-.264l-.641-1.21v1.21h-.19v-1.446zM11.21 205.72h.21l.401.596.398-.595h.21l-.511.758v.688h-.197v-.688l-.511-.758z"/>
        </g>
        <g font-size="1.984" fill="#fff" stroke="#fff" stroke-width=".053">
            <path d="M1.388 212.338q.063.022.122.091.06.07.12.192l.198.396h-.21l-.185-.372q-.072-.145-.14-.192-.066-.048-.183-.048H.897v.612H.702v-1.447h.441q.248 0 .37.104.123.103.123.313 0 .136-.064.226-.063.09-.184.125zm-.49-.607v.513h.245q.142 0 .214-.065.072-.066.072-.192 0-.127-.072-.191-.072-.065-.214-.065H.897zM2.081 211.57h.915v.165h-.719v.428h.689v.165h-.689v.524h.736v.165h-.932v-1.447zM4.2 211.617v.191q-.111-.053-.21-.08-.099-.025-.19-.025-.16 0-.248.062-.086.062-.086.176 0 .096.057.145.058.049.22.079l.117.024q.22.042.323.147.105.105.105.281 0 .21-.142.319-.14.109-.413.109-.102 0-.219-.024-.115-.023-.239-.068v-.202q.12.067.234.1.114.035.224.035.168 0 .26-.066.09-.066.09-.188 0-.107-.066-.167-.065-.06-.214-.09l-.119-.023q-.219-.044-.317-.137-.098-.093-.098-.259 0-.191.135-.302.136-.11.373-.11.102 0 .207.018.106.018.216.055zM5.184 211.703q-.213 0-.34.159-.124.158-.124.433 0 .273.125.432.126.159.339.159.213 0 .337-.16.125-.158.125-.431 0-.275-.125-.433-.124-.16-.337-.16zm0-.16q.304 0 .486.205.182.204.182.547 0 .342-.182.546-.182.204-.486.204-.305 0-.488-.204-.183-.203-.183-.546t.183-.547q.183-.204.488-.204zM6.159 211.57h.263l.642 1.21v-1.21h.19v1.447H6.99l-.641-1.21v1.21h-.19v-1.447zM8.127 211.763l-.266.72h.532l-.266-.72zm-.11-.193h.221l.551 1.447h-.203l-.132-.372h-.652l-.132.372h-.206l.552-1.447zM8.644 211.57h1.224v.165h-.514v1.282h-.197v-1.282h-.513v-.165zM10.649 211.703q-.214 0-.34.159-.124.158-.124.433 0 .273.125.432.125.159.339.159.213 0 .337-.16.125-.158.125-.431 0-.275-.125-.433-.124-.16-.337-.16zm0-.16q.304 0 .486.205.182.204.182.547 0 .342-.182.546-.182.204-.486.204-.306 0-.489-.204-.182-.203-.182-.546t.182-.547q.183-.204.489-.204zM12.31 212.338q.062.022.121.091.06.07.12.192l.2.396h-.211l-.185-.372q-.072-.145-.14-.192-.066-.048-.183-.048h-.213v.612h-.196v-1.447h.442q.248 0 .37.104.122.103.122.313 0 .136-.063.226t-.185.125zm-.49-.607v.513h.245q.142 0 .213-.065.073-.066.073-.192 0-.127-.073-.191-.071-.065-.213-.065h-.246z"/>
        </g>
        <text y="222.175" x="7.575" font-size="1.984" fill="#fff" stroke-width=".2"/>
        <path d="M8.379 220.772h.962v.212h-.962v-.212z" font-size="2.646" fill="#fff" stroke="#fff" stroke-width=".062"/>
        <path d="M14.771 219.94v.72h.72v.219h-.72v.72h-.217v-.72h-.72v-.22h.72v-.72h.217z" font-size="2.646" fill="#fff" stroke="#fff" stroke-width=".053"/>
        <path d="M8.379 228.926h.962v.212h-.962v-.212z" fill="#fff" stroke="#fff" stroke-width=".062"/>
        <path d="M14.771 228.096v.72h.72v.219h-.72v.72h-.217v-.72h-.72v-.22h.72v-.72h.217z" fill="#fff" stroke="#fff" stroke-width=".053"/>
        <path d="M8.379 237.724h.962v.212h-.962v-.212z" fill="#fff" stroke="#fff" stroke-width=".062"/>
        <path d="M14.771 236.896v.72h.72v.219h-.72v.72h-.217v-.72h-.72v-.22h.72v-.72h.217z" fill="#fff" stroke="#fff" stroke-width=".053"/>
        <path d="M8.379 247.39h.962v.212h-.962v-.212z" fill="#fff" stroke="#fff" stroke-width=".062"/>
        <path d="M14.771 246.564v.72h.72v.22h-.72v.719h-.217v-.72h-.72v-.22h.72v-.72h.217z" fill="#fff" stroke="#fff" stroke-width=".053"/>
        <path d="M8.379 256.235h.962v.212h-.962v-.212z" fill="#fff" stroke="#fff" stroke-width=".062"/>
        <path d="M14.771 255.412v.72h.72v.219h-.72v.72h-.217v-.72h-.72v-.22h.72v-.72h.217z" fill="#fff" stroke="#fff" stroke-width=".053"/>
    </g>
</svg>
