<svg xmlns="http://www.w3.org/2000/svg" xmlns:xlink="http://www.w3.org/1999/xlink" width="60" height="380" viewBox="0 0 15.875 100.542">
    <defs>
        <linearGradient id="b">
            <stop offset="0" stop-color="#fff"/>
            <stop offset="1" stop-opacity="0"/>
        </linearGradient>
        <linearGradient id="a">
            <stop offset="0" stop-color="#fdfdfd"/>
            <stop offset="1" stop-color="#fdfdfd"/>
        </linearGradient>
        <radialGradient gradientUnits="userSpaceOnUse" gradientTransform="matrix(.4218 0 0 .02673 -117.37 272.324)" r="69.827" fy="856.052" fx="285.494" cy="856.052" cx="285.494" id="d" xlink:href="#a"/>
        <linearGradient gradientUnits="userSpaceOnUse" y2="832.532" x2="279.915" y1="830.884" x1="268.967" id="h" xlink:href="#b" gradientTransform="matrix(.26458 0 0 .26458 -75.483 72.473)"/>
        <clipPath clipPathUnits="userSpaceOnUse" id="j">
            <rect width="20.551" height="14.908" x="1.637" y="287.562" rx="0" ry="0" fill="#111bff" stroke-width=".3" stroke-miterlimit="10"/>
        </clipPath>
        <clipPath clipPathUnits="userSpaceOnUse" id="i">
            <rect width="15.866" height="14.908" x=".009" y="287.562" rx="0" ry="0" fill="#111bff" stroke-width=".3" stroke-miterlimit="10"/>
        </clipPath>
        <clipPath clipPathUnits="userSpaceOnUse" id="g">
            <rect width="15.866" height="14.908" x=".009" y="287.562" rx="0" ry="0" fill="#111bff" stroke-width=".3" stroke-miterlimit="10"/>
        </clipPath>
        <clipPath clipPathUnits="userSpaceOnUse" id="f">
            <rect width="66.538" height="62.519" x="282.25" y="-27.441" rx="0" ry="0" fill="#111bff" stroke-width=".3" stroke-miterlimit="10"/>
        </clipPath>
        <clipPath clipPathUnits="userSpaceOnUse" id="e">
            <rect width="15.866" height="14.908" x=".009" y="287.562" rx="0" ry="0" fill="#111bff" stroke-width=".3" stroke-miterlimit="10"/>
        </clipPath>
        <clipPath clipPathUnits="userSpaceOnUse" id="c">
            <rect width="15.866" height="14.908" x=".009" y="287.562" rx="0" ry="0" fill="#111bff" stroke-width=".3" stroke-miterlimit="10"/>
        </clipPath>
    </defs>
    <path d="M0 0h15.875v100.542H0z" fill-rule="evenodd"/>
    <path d="M20.095 295.066l-17.043-.125-14.417.125-.879-3.47c4.81-1.005 10.75-1.725 16.171-1.72 5.716.005 9.886.466 17.047 1.845z" clip-path="url(#c)" fill="url(#d)" stroke="#8b8b8b" stroke-width=".397" transform="translate(0 -196.458)"/>
    <path d="M-15.622 292.126c10.905-1.21 21.546-.99 31.75.122l-.033 3.297h-31.717z" clip-path="url(#e)" transform="translate(0 -196.458)"/>
    <g transform="matrix(.23845 0 0 .23845 -66.723 97.493)" clip-path="url(#f)">
        <path d="M291.232-10.527l6.43-3.034 5.953-.742 4.222.511 5.886 2.16 4.683 4.37z" fill-rule="evenodd"/>
        <g stroke="#fff">
            <g color="#000" fill="none" stroke-linejoin="bevel">
                <path d="M2.117 188.81l18.113 36.226 65.551 31.913 90.564 13.8 94.877-11.213 60.376-31.913 14.663-30.188-14.663-37.951.324 67.923-33.1-64.473-25.875 96.602-58.651-80.214-40.538 91.427-40.538-75.902-46.576 61.239-17.098-92.852-49.316 62.663 6.037-89.702 44.241 27.296 63.574 32.218 80-16.819 86.466-15.957 31.051-3.666-33.279-62.05 1.366 64.853-64.689-74.392-20.7 91.427-69.001-66.198-75.902 50.026L84.751 80.38l-59.346 55.816 24.151-56.064h34.501l81.077-37.088-18.975 69.864 89.702-24.15 62.101 7.762-66.314-54.334 4.212 46.571-70.726-45.713 66.414-1.725-53.476-15.525-12.938 16.388-49.164-6.9-66.414 44.85-33.333 49.417 9.183 6.647L2.118 188.81z" stroke-width="2.892" transform="matrix(.09825 0 0 .0698 286.195 -16.043)"/>
                <path d="M133.17 195.51l12.99-80.876-61.407-35.517 32.081-44.697 28.463-4.313 32.776-5.175 41.401 6.9 12.938 10.35 47.438 20.7 18.975 34.501 30.188 30.188 2.803 31.913" stroke-width="2.892" transform="matrix(.09825 0 0 .0698 286.195 -16.043)"/>
                <path d="M329.01 126.71l-49.16-63.83-59.77-31.05M1.926 188.186L16.11 129.84" stroke-width="2" transform="matrix(.09825 0 0 .0698 286.195 -16.043)"/>
            </g>
        </g>
        <path d="M320.187-2.25l-1.666-4.93" fill="none" stroke="#fff" stroke-width=".2"/>
    </g>
    <path d="M-12.795 292.22l3.148-1.342 1.33.418 1.107-.783 2.215.292.933-.35 3.024.98-1.041.477-9.504.292z" clip-path="url(#i)" fill-rule="evenodd" transform="translate(0 -196.458)"/>
    <g transform="matrix(.77203 0 0 1 -1.255 -196.458)" clip-path="url(#j)" font-size="1.984" fill="#fff" stroke-width=".2" stroke-miterlimit="10">
        <path d="M2.835 295.534v.169q-.075-.04-.157-.059-.081-.019-.168-.019-.133 0-.2.04-.066.041-.066.123 0 .062.048.098.047.035.19.067l.061.013q.19.041.27.116.08.073.08.206 0 .151-.12.24-.12.087-.328.087-.088 0-.183-.017-.094-.016-.198-.05v-.184q.099.051.195.077.096.025.19.025.125 0 .193-.042.068-.044.068-.122 0-.073-.05-.112-.048-.039-.213-.074l-.062-.015q-.166-.035-.24-.106-.073-.073-.073-.2 0-.152.108-.236.109-.083.308-.083.099 0 .186.015.087.014.161.043zM4.862 295.627q-.143 0-.227.112-.083.112-.083.307 0 .194.082.307.084.111.228.111.143 0 .226-.112.083-.113.083-.306t-.083-.306q-.083-.113-.226-.113zm0-.151q.233 0 .365.151.133.151.133.419 0 .266-.133.418-.132.151-.365.151-.233 0-.366-.15-.132-.153-.132-.42t.132-.418q.133-.151.366-.151zM6.9 296.159v-.657h.178v.65q0 .154.06.232.06.076.18.076.145 0 .228-.092.084-.092.084-.25v-.616h.179v1.085H7.63v-.166q-.065.098-.15.147-.086.047-.2.047-.186 0-.283-.116-.097-.116-.097-.34zM9.618 295.194v.308h.367v.139h-.367v.589q0 .132.035.17.037.038.149.038h.183v.15h-.183q-.207 0-.285-.077-.079-.078-.079-.281v-.59h-.13v-.138h.13v-.308h.18zM12.386 295.932v.655h-.178v-.649q0-.154-.06-.23-.06-.077-.18-.077-.145 0-.228.092-.084.092-.084.251v.613h-.179v-1.507h.18v.59q.063-.097.15-.146.087-.048.2-.048.187 0 .283.116.096.115.096.34zM14.18 296.424V297H14v-1.498h.18v.165q.056-.097.14-.144.087-.047.206-.047.198 0 .321.157.124.157.124.413 0 .255-.124.412-.123.157-.32.157-.12 0-.206-.046-.085-.048-.142-.145zm.606-.378q0-.197-.081-.309-.08-.112-.222-.112-.142 0-.223.112-.08.112-.08.309 0 .196.08.309.081.111.223.111.141 0 .222-.111.08-.113.08-.31zM16.95 295.627q-.143 0-.226.112-.084.112-.084.307 0 .194.083.307.083.111.228.111.142 0 .225-.112.084-.113.084-.306t-.084-.306q-.083-.113-.225-.113zm0-.151q.233 0 .366.151.133.151.133.419 0 .266-.133.418-.133.151-.365.151-.234 0-.367-.15-.132-.153-.132-.42t.132-.418q.133-.151.367-.151zM19.007 295.08h.178v1.507h-.178v-1.507zM21.749 296v.087h-.82q.012.184.11.281.1.096.278.096.102 0 .198-.025.097-.025.192-.076v.169q-.096.04-.197.062-.1.021-.204.021-.26 0-.412-.15-.151-.152-.151-.41 0-.266.143-.422.145-.157.389-.157.219 0 .346.141.128.14.128.383zm-.179-.052q-.002-.147-.082-.234-.08-.087-.211-.087-.15 0-.24.084-.089.085-.102.238l.635-.001z"/>
    </g>
    <g style="-inkscape-font-specification:sans-serif" font-weight="400" font-size="4.63" font-family="sans-serif" fill="#fff" stroke-width=".3">
        <path d="M2.663 1.182l-.62 1.68h1.242l-.622-1.68zm-.258-.45h.518l1.286 3.376h-.475l-.307-.866H1.905l-.307.866h-.482L2.405.732zM4.639 3.108V1.575h.416v1.517q0 .36.14.54.14.18.42.18.337 0 .532-.215.196-.215.196-.586V1.575h.416v2.533h-.416v-.39q-.151.231-.352.344-.2.111-.464.111-.436 0-.662-.271-.226-.271-.226-.794zM9.726 1.575L8.81 2.808l.963 1.3h-.49l-.738-.995-.737.995h-.49L8.3 2.783l-.9-1.208h.491l.672.903.671-.903h.49z"/>
    </g>
    <g style="-inkscape-font-specification:sans-serif" font-weight="400" font-size="1.984" font-family="sans-serif" fill="#fff" stroke-width=".3">
        <path d="M1.116 4.906h.915v.165h-.719v.428h.689v.165h-.689v.524h.736v.165h-.932V4.906zM2.91 4.845v.148h-.17q-.097 0-.134.039-.037.039-.037.14v.095h.293v.139H2.57v.947h-.18v-.947h-.17v-.139h.17v-.075q0-.181.085-.264.084-.083.267-.083h.169zM3.611 4.845v.148h-.17q-.096 0-.134.039-.037.039-.037.14v.095h.294v.139H3.27v.947h-.179v-.947h-.17v-.139h.17v-.075q0-.181.084-.264.085-.083.268-.083h.168zM4.692 5.766v.087h-.82q.012.184.11.28.1.097.278.097.102 0 .198-.026.097-.025.192-.075v.168q-.096.041-.197.062-.1.022-.204.022-.26 0-.412-.151-.151-.152-.151-.41 0-.266.143-.422.145-.157.389-.157.219 0 .346.142.128.14.128.382zm-.179-.053q-.002-.146-.082-.233-.08-.088-.211-.088-.15 0-.24.085-.089.084-.102.237h.635zM5.761 5.31v.166q-.075-.042-.152-.062-.075-.022-.153-.022-.173 0-.27.11-.095.11-.095.31 0 .198.096.308.096.11.27.11.077 0 .152-.02.077-.022.152-.064v.165q-.074.035-.155.052-.08.018-.17.018-.244 0-.389-.154-.144-.154-.144-.416 0-.265.145-.418.147-.152.4-.152.083 0 .161.018.079.016.152.05zM6.246 4.96v.307h.367v.139h-.367v.59q0 .132.036.17.037.037.148.037h.183v.15H6.43q-.206 0-.285-.077-.078-.077-.078-.28v-.59h-.131v-.138h.13v-.309h.18zM7.488 4.906h.196v1.282h.704v.165h-.9V4.906zM8.972 5.392q-.143 0-.226.113-.084.111-.084.306t.083.307q.083.112.227.112.143 0 .226-.113.084-.112.084-.306 0-.193-.084-.305-.083-.114-.226-.114zm0-.15q.233 0 .366.15.132.152.132.419 0 .266-.132.419-.133.15-.366.15-.233 0-.366-.15-.132-.153-.132-.419 0-.267.132-.419.133-.15.366-.15zM10.188 5.392q-.144 0-.227.113-.084.111-.084.306t.083.307q.083.112.228.112.142 0 .225-.113.084-.112.084-.306 0-.193-.084-.305-.083-.114-.225-.114zm0-.15q.232 0 .365.15.133.152.133.419 0 .266-.133.419-.133.15-.365.15-.234 0-.367-.15-.132-.153-.132-.419 0-.267.132-.419.133-.15.367-.15zM11.153 6.19v.575h-.18V5.267h.18v.165q.056-.097.141-.143.086-.048.205-.048.198 0 .321.157.124.157.124.413t-.124.413q-.123.157-.32.157-.12 0-.206-.047-.085-.047-.141-.144zm.606-.379q0-.197-.081-.308-.08-.112-.222-.112-.142 0-.223.112-.08.111-.08.308t.08.31q.081.11.223.11.141 0 .222-.11.081-.113.081-.31z"/>
    </g>
    <g style="-inkscape-font-specification:sans-serif" font-weight="400" font-size="1.984" font-family="sans-serif" fill="#fff" stroke-width=".3">
        <path d="M2.417 8.568v.19q-.111-.053-.21-.079-.099-.026-.191-.026-.16 0-.247.062-.086.062-.086.176 0 .096.057.146.058.048.219.078l.118.024q.22.042.323.148.104.104.104.28 0 .21-.141.32-.14.108-.413.108-.103 0-.219-.023-.115-.024-.24-.07v-.2q.12.066.234.1.115.034.225.034.168 0 .259-.066.09-.066.09-.188 0-.107-.065-.167-.065-.06-.214-.09l-.12-.023q-.218-.044-.316-.137-.098-.093-.098-.258 0-.192.135-.303.135-.11.373-.11.102 0 .207.018.106.019.216.056zM2.813 8.52h.915v.165H3.01v.428h.69v.165h-.69v.524h.737v.165h-.933V8.52zM4.065 8.52h.264l.641 1.21V8.52h.19v1.447h-.263l-.642-1.21v1.21h-.19V8.52zM5.745 8.681v1.125h.237q.3 0 .438-.136.14-.135.14-.428 0-.29-.14-.425-.139-.136-.438-.136h-.237zm-.195-.16h.402q.42 0 .617.175.197.174.197.546 0 .374-.198.55-.198.175-.616.175H5.55V8.52z"/>
    </g>
    <g style="-inkscape-font-specification:sans-serif" font-weight="400" font-size="1.984" font-family="sans-serif" fill="#fff" stroke-width=".3">
        <path d="M11.468 9.317q.063.02.122.09.06.07.12.193l.199.395h-.21l-.186-.371q-.072-.146-.14-.193-.066-.048-.182-.048h-.214v.612h-.195V8.548h.441q.249 0 .37.104.123.104.123.313 0 .137-.064.227-.063.09-.184.125zm-.49-.608v.514h.245q.142 0 .214-.065.072-.066.072-.193t-.072-.19q-.072-.066-.214-.066h-.246zM12.161 8.548h.915v.165h-.719v.428h.69v.165h-.69v.524h.737v.165h-.933V8.548zM13.213 8.548h1.223v.165h-.513v1.282h-.197V8.713h-.513v-.165z"/>
    </g>
    <path d="M7.487 13.354h.196v1.282h.705v.165h-.9v-1.447zM8.06 20.58q.063.022.122.091.06.07.12.192l.199.395h-.21l-.185-.37q-.072-.146-.14-.193-.067-.048-.183-.048H7.57v.611h-.196v-1.446h.442q.248 0 .37.104.122.103.122.312 0 .137-.064.227-.063.09-.184.125zm-.49-.607v.513h.246q.141 0 .213-.065.073-.066.073-.192 0-.127-.073-.191-.072-.065-.213-.065H7.57zM7.487 81.563h.196v1.281h.705v.165h-.9v-1.446zM8.06 88.788q.063.022.122.091.06.07.12.192l.199.396h-.21l-.185-.371q-.072-.146-.14-.193-.067-.048-.183-.048H7.57v.612h-.196V88.02h.442q.248 0 .37.104.122.103.122.313 0 .136-.064.226-.063.09-.184.125zm-.49-.607v.513h.246q.141 0 .213-.065.073-.065.073-.192t-.073-.191q-.072-.065-.213-.065H7.57z" font-weight="400" font-size="1.984" font-family="sans-serif" fill="#fff" stroke-width=".3"/>
    <g style="-inkscape-font-specification:sans-serif" font-weight="400" font-size="1.984" font-family="sans-serif" fill="#fff" stroke-width=".3">
        <path d="M.576 70.109h.292l.37.984.37-.984H1.9v1.446h-.191v-1.27l-.373.992h-.197l-.373-.992v1.27h-.19V70.11zM2.263 70.109h.197v.878q0 .233.084.336.085.101.274.101.187 0 .272-.101.084-.103.084-.336v-.878h.197v.903q0 .282-.14.427-.14.144-.413.144-.275 0-.415-.144-.14-.145-.14-.427v-.903zM3.538 70.109h1.224v.164H4.25v1.282h-.197v-1.282h-.514v-.164zM4.956 70.109h.915v.164h-.72v.428h.69v.165h-.69v.524h.737v.165h-.932V70.11z"/>
    </g>
    <g style="-inkscape-font-specification:sans-serif" font-weight="400" font-size="1.984" font-family="sans-serif" fill="#fff" stroke-width=".3">
        <path d="M8.501 70.864v.53h.314q.158 0 .233-.065.077-.066.077-.2 0-.136-.077-.2-.075-.065-.233-.065H8.5zm0-.595v.436h.29q.143 0 .213-.053.07-.054.07-.165 0-.11-.07-.163-.07-.055-.213-.055H8.5zm-.196-.16h.5q.224 0 .345.093.121.093.121.264 0 .133-.062.211-.062.079-.182.098.144.031.224.13.08.098.08.245 0 .194-.131.3-.132.105-.375.105h-.52V70.11zM9.358 70.109h.21l.402.594.398-.594h.21l-.511.757v.69H9.87v-.69l-.512-.757zM10.966 70.27v.543h.246q.137 0 .211-.07.075-.071.075-.202 0-.13-.075-.2-.074-.072-.211-.072h-.246zm-.196-.161h.442q.243 0 .367.11.125.11.125.322 0 .214-.125.323-.124.11-.367.11h-.246v.581h-.196V70.11zM12.325 70.301l-.265.72h.532l-.267-.72zm-.11-.192h.222l.551 1.446h-.203l-.132-.371H12l-.132.371h-.206l.552-1.446zM14.067 70.156v.19q-.111-.052-.21-.079-.099-.026-.19-.026-.16 0-.248.062-.086.062-.086.177 0 .095.057.145.058.048.22.078l.117.025q.22.041.323.147.105.104.105.28 0 .211-.142.32-.14.108-.413.108-.102 0-.219-.023-.115-.023-.239-.069v-.202q.12.067.234.101.114.034.224.034.168 0 .26-.066.09-.066.09-.188 0-.106-.066-.166-.065-.06-.214-.09l-.119-.024q-.219-.043-.317-.136-.098-.093-.098-.26 0-.191.135-.301.136-.11.373-.11.102 0 .207.018.106.018.216.055zM15.331 70.156v.19q-.111-.052-.21-.079-.1-.026-.191-.026-.16 0-.247.062-.086.062-.086.177 0 .095.057.145.058.048.219.078l.118.025q.219.041.323.147.104.104.104.28 0 .211-.141.32-.14.108-.413.108-.103 0-.219-.023-.115-.023-.24-.069v-.202q.12.067.234.101.114.034.225.034.168 0 .259-.066.09-.066.09-.188 0-.106-.065-.166-.065-.06-.214-.09l-.12-.024q-.218-.043-.316-.136-.098-.093-.098-.26 0-.191.134-.301.136-.11.374-.11.101 0 .207.018.106.018.216.055z"/>
    </g>
    <path d="M7.487 50.925h.196v1.282h.705v.165h-.9v-1.447zM8.06 58.68q.063.022.122.091.06.07.12.192l.199.395h-.21l-.185-.37q-.072-.146-.14-.193-.067-.048-.183-.048H7.57v.611h-.196v-1.446h.442q.248 0 .37.104.122.103.122.312 0 .137-.064.227-.063.09-.184.125zm-.49-.607v.513h.246q.141 0 .213-.065.073-.066.073-.192 0-.127-.073-.191-.072-.065-.213-.065H7.57z" font-weight="400" font-size="1.984" font-family="sans-serif" fill="#fff" stroke-width=".3"/>
    <path d="M12.456 28.593c-3.36 12.332-8.5 3.108-8.444 14.689" fill="none" stroke="#6060ff" stroke-width=".825"/>
    <path d="M4.08 45.786l-1.56-2.884 2.993-.084z" fill="#6060ff"/>
    <path d="M7.15 32.122c5.523 2.197 5.01 11.388 5.096 17.96" fill="none" stroke="#6060ff" stroke-width=".725"/>
    <g style="-inkscape-font-specification:sans-serif" font-weight="400" font-size="1.984" font-family="sans-serif" fill="#d0d8f6" stroke-width=".938">
        <path d="M1.643 41.78q.063.02.122.09.06.07.12.192l.199.396h-.21l-.185-.371q-.072-.146-.14-.193-.067-.048-.183-.048h-.213v.612H.957V41.01H1.4q.248 0 .37.104.122.103.122.313 0 .136-.064.226-.063.09-.184.125zm-.49-.608v.513h.246q.141 0 .213-.064.073-.066.073-.193t-.073-.191q-.072-.065-.213-.065h-.246zM2.337 41.011h.196v1.282h.704v.165h-.9V41.01z"/>
    </g>
    <g style="-inkscape-font-specification:sans-serif" font-weight="400" font-size="1.984" font-family="sans-serif" fill="#d0d8f6" stroke-width="3.543">
        <path d="M5.192 41.011h.196v1.282h.704v.165h-.9V41.01zM6.983 41.78q.063.02.122.09.06.07.12.192l.199.396h-.21l-.186-.371q-.071-.146-.14-.193-.066-.048-.182-.048h-.213v.612h-.196V41.01h.442q.248 0 .37.104.122.103.122.313 0 .136-.064.226-.063.09-.184.125zm-.49-.608v.513h.246q.141 0 .213-.064.072-.066.072-.193t-.072-.191q-.072-.065-.213-.065h-.246z"/>
    </g>
    <g style="-inkscape-font-specification:sans-serif" font-weight="400" font-size="1.984" font-family="sans-serif" fill="#d0d8f6" stroke-width=".938">
        <path d="M9.626 41.78q.063.02.122.09.06.07.12.192l.199.396h-.21l-.185-.371q-.072-.146-.14-.193-.067-.048-.183-.048h-.213v.612H8.94V41.01h.442q.248 0 .37.104.122.103.122.313 0 .136-.064.226-.063.09-.184.125zm-.49-.608v.513h.246q.141 0 .213-.064.073-.066.073-.193t-.073-.191q-.072-.065-.213-.065h-.246zM10.32 41.011h.196v1.282h.704v.165h-.9V41.01z"/>
    </g>
    <g style="-inkscape-font-specification:sans-serif" font-weight="400" font-size="1.984" font-family="sans-serif" fill="#d0d8f6" stroke-width="3.543">
        <path d="M13.175 41.011h.196v1.282h.704v.165h-.9V41.01zM14.966 41.78q.063.02.122.09.06.07.12.192l.199.396h-.21l-.186-.371q-.071-.146-.14-.193-.066-.048-.182-.048h-.214v.612h-.195V41.01h.442q.248 0 .37.104.122.103.122.313 0 .136-.064.226-.063.09-.184.125zm-.49-.608v.513h.246q.141 0 .213-.064.072-.066.072-.193t-.072-.191q-.072-.065-.213-.065h-.247z"/>
    </g>
    <g style="-inkscape-font-specification:sans-serif" font-weight="400" font-size="1.984" font-family="sans-serif" fill="#fff" stroke-width=".3">
        <path d="M2.417 46.138v.191q-.111-.053-.21-.08-.099-.025-.191-.025-.16 0-.247.062-.086.062-.086.176 0 .096.057.145.058.049.219.079l.118.024q.22.042.323.147.104.105.104.281 0 .21-.141.32-.14.108-.413.108-.103 0-.219-.024-.115-.023-.24-.068v-.202q.12.067.234.1.115.035.225.035.168 0 .259-.066.09-.066.09-.188 0-.107-.065-.167-.065-.06-.214-.09l-.12-.023q-.218-.044-.316-.137-.098-.093-.098-.258 0-.192.135-.303.135-.11.373-.11.102 0 .207.018.106.019.216.055zM2.813 46.091h.915v.165H3.01v.428h.69v.165h-.69v.524h.737v.165h-.933V46.09zM4.065 46.091h.264l.641 1.21v-1.21h.19v1.447h-.263l-.642-1.21v1.21h-.19V46.09zM5.745 46.252v1.125h.237q.3 0 .438-.136.14-.136.14-.428 0-.29-.14-.426-.139-.135-.438-.135h-.237zm-.195-.161h.402q.42 0 .617.175t.197.547q0 .374-.198.55-.198.175-.616.175H5.55V46.09z"/>
    </g>
    <g style="-inkscape-font-specification:sans-serif" font-weight="400" font-size="1.984" font-family="sans-serif" fill="#fff" stroke-width=".3">
        <path d="M11.468 46.887q.063.022.122.092.06.07.12.191l.199.396h-.21l-.186-.371q-.072-.146-.14-.193-.066-.048-.182-.048h-.214v.612h-.195v-1.447h.441q.249 0 .37.104.123.103.123.313 0 .136-.064.226-.063.09-.184.125zm-.49-.607v.513h.245q.142 0 .214-.064.072-.066.072-.193t-.072-.191q-.072-.065-.214-.065h-.246zM12.161 46.12h.915v.164h-.719v.428h.69v.165h-.69v.524h.737v.165h-.933v-1.447zM13.213 46.12h1.223v.164h-.513v1.282h-.197v-1.282h-.513v-.165z"/>
    </g>
    <path d="M5.075 30.745l1.767 2.761 1.523-2.578zM3.488 86.513l-1.407-.964 2.634-.027z" fill="#6060ff"/>
    <g style="-inkscape-font-specification:sans-serif" font-weight="400" font-size="1.984" font-family="sans-serif" fill="#91a7ff" stroke-width="3.543">
        <path d="M4.097 33.11v.15h-.17q-.096 0-.134.038-.037.039-.037.14v.095h.294v.139h-.294v.947h-.18v-.947h-.17v-.139h.17v-.075q0-.181.085-.264.084-.083.268-.083h.168zM5.177 34.031v.088h-.82q.012.184.111.28.1.096.277.096.103 0 .199-.025.097-.025.192-.075v.168q-.096.041-.197.062-.1.022-.204.022-.26 0-.412-.152-.151-.15-.151-.408 0-.267.143-.423.145-.157.389-.157.219 0 .346.142.127.14.127.382zM5 33.98q-.002-.146-.082-.233-.08-.088-.211-.088-.15 0-.24.085-.089.084-.102.237h.635zM6.394 34.031v.088h-.82q.012.184.111.28.1.096.277.096.103 0 .199-.025.097-.025.192-.075v.168q-.096.041-.197.062-.1.022-.204.022-.26 0-.412-.152-.151-.15-.151-.408 0-.267.143-.423.144-.157.389-.157.219 0 .346.142.127.14.127.382zm-.178-.052q-.002-.146-.082-.233-.08-.088-.211-.088-.15 0-.24.085-.089.084-.102.237h.635zM7.397 33.698v-.587h.179v1.508h-.179v-.163q-.056.097-.142.144-.085.047-.206.047-.196 0-.32-.157-.123-.157-.123-.413t.123-.413q.124-.157.32-.157.12 0 .206.048.086.046.142.143zm-.607.379q0 .197.08.309.082.111.223.111.142 0 .223-.111.081-.112.081-.31 0-.196-.081-.307-.081-.113-.223-.113-.141 0-.223.113-.08.111-.08.308zM8.722 34.077q0-.197-.082-.308-.08-.113-.221-.113-.142 0-.223.113-.08.111-.08.308t.08.309q.081.111.223.111.141 0 .221-.111.082-.112.082-.31zm-.607-.379q.056-.097.142-.143.086-.048.205-.048.198 0 .32.157.125.157.125.413t-.124.413q-.123.157-.32.157-.12 0-.206-.047t-.142-.144v.163h-.179V33.11h.18v.587zM9.696 34.073q-.216 0-.3.05-.083.049-.083.168 0 .095.062.151.063.055.17.055.149 0 .238-.104.09-.106.09-.28v-.04h-.177zM10.05 34v.62h-.178v-.165q-.061.099-.152.146-.091.047-.223.047-.167 0-.266-.093-.097-.094-.097-.251 0-.183.122-.276.123-.093.366-.093h.25v-.018q0-.123-.081-.19-.08-.068-.227-.068-.093 0-.181.023-.089.022-.17.067v-.165q.098-.038.19-.056.092-.02.18-.02.235 0 .351.122.116.122.116.37zM11.204 33.575v.167q-.075-.042-.152-.062-.075-.022-.153-.022-.173 0-.27.11-.095.11-.095.309t.096.31q.096.109.269.109.078 0 .153-.02.077-.022.152-.064v.165q-.074.035-.155.052-.08.018-.17.018-.244 0-.389-.154-.144-.155-.144-.416 0-.266.145-.418.146-.152.4-.152.083 0 .161.018.079.016.152.05zM11.506 33.11h.179v.891l.532-.468h.227l-.575.508.6.578h-.233l-.551-.53v.53h-.18V33.11z"/>
    </g>
</svg>
