<svg xmlns="http://www.w3.org/2000/svg" xmlns:xlink="http://www.w3.org/1999/xlink" width="60" height="380" viewBox="0 0 15.875 100.542">
    <defs>
        <linearGradient id="b">
            <stop offset="0" stop-color="#fff"/>
            <stop offset="1" stop-opacity="0"/>
        </linearGradient>
        <linearGradient id="a">
            <stop offset="0" stop-color="#fdfdfd"/>
            <stop offset="1" stop-color="#fdfdfd"/>
        </linearGradient>
        <radialGradient gradientUnits="userSpaceOnUse" gradientTransform="matrix(.4218 0 0 .02673 -106.258 272.324)" r="69.827" fy="856.052" fx="285.494" cy="856.052" cx="285.494" id="d" xlink:href="#a"/>
        <linearGradient gradientUnits="userSpaceOnUse" y2="832.532" x2="279.915" y1="830.884" x1="268.967" id="h" xlink:href="#b" gradientTransform="matrix(.26458 0 0 .26458 -60.137 72.473)"/>
        <clipPath clipPathUnits="userSpaceOnUse" id="j">
            <rect width="20.46" height="12.79" x="1.676" y="287.598" rx="1.31" ry=".903" fill="#fc00d8" stroke="#fff" stroke-width=".09" stroke-miterlimit="10"/>
        </clipPath>
        <clipPath clipPathUnits="userSpaceOnUse" id="i">
            <rect width="15.796" height="12.79" x=".04" y="287.598" rx="1.011" ry=".903" fill="#fc00d8" stroke="#fff" stroke-width=".079" stroke-miterlimit="10"/>
        </clipPath>
        <clipPath clipPathUnits="userSpaceOnUse" id="g">
            <rect width="15.796" height="12.79" x=".04" y="287.598" rx="1.011" ry=".903" fill="#fc00d8" stroke="#fff" stroke-width=".079" stroke-miterlimit="10"/>
        </clipPath>
        <clipPath clipPathUnits="userSpaceOnUse" id="f">
            <rect width="66.243" height="53.638" x="218.022" y="-27.289" rx="4.242" ry="3.788" fill="#fc00d8" stroke="#fff" stroke-width=".333" stroke-miterlimit="10"/>
        </clipPath>
        <clipPath clipPathUnits="userSpaceOnUse" id="e">
            <rect width="15.796" height="12.79" x=".04" y="287.598" rx="1.011" ry=".903" fill="#fc00d8" stroke="#fff" stroke-width=".079" stroke-miterlimit="10"/>
        </clipPath>
        <clipPath clipPathUnits="userSpaceOnUse" id="c">
            <rect width="15.796" height="12.79" x=".04" y="287.598" rx="1.011" ry=".903" fill="#fc00d8" stroke="#fff" stroke-width=".079" stroke-miterlimit="10"/>
        </clipPath>
    </defs>
    <g transform="translate(0 -196.458)">
        <path d="M0 196.458h15.875V297H0z" fill-rule="evenodd"/>
        <flowRoot transform="matrix(.26458 0 0 .26458 -58.46 115.922)" style="line-height:125%" xml:space="preserve" font-style="normal" font-weight="400" font-size="10" font-family="sans-serif" letter-spacing="0" word-spacing="0" fill="#000" fill-opacity="1" stroke="none" stroke-width="1" stroke-linecap="butt" stroke-linejoin="miter" stroke-opacity="1">
            <flowRegion>
                <path d="M323.249 35.538h7.829v72.478h-7.829z"/>
            </flowRegion>
            <flowPara/>
        </flowRoot>
        <path d="M31.207 295.066l-17.042-.125-14.418.125-.878-3.47c4.81-1.005 10.75-1.725 16.17-1.72 5.716.005 9.887.466 17.047 1.845z" clip-path="url(#c)" fill="url(#d)" stroke="#8b8b8b" stroke-width=".397"/>
        <path d="M-.276 292.126c10.904-1.21 21.546-.99 31.75.122l-.033 3.297H-.276z" clip-path="url(#e)"/>
        <g transform="matrix(.23845 0 0 .23845 -51.947 294.105)" clip-path="url(#f)">
            <path d="M291.232-10.527l6.43-3.034 5.953-.742 4.222.511 5.886 2.16 4.683 4.37z" fill-rule="evenodd"/>
            <g stroke="#fff">
                <g color="#000" fill="none" stroke-linejoin="bevel">
                    <path d="M2.117 188.81l18.113 36.226 65.551 31.913 90.564 13.8 94.877-11.213 60.376-31.913 14.663-30.188-14.663-37.951.324 67.923-33.1-64.473-25.875 96.602-58.651-80.214-40.538 91.427-40.538-75.902-46.576 61.239-17.098-92.852-49.316 62.663 6.037-89.702 44.241 27.296 63.574 32.218 80-16.819 86.466-15.957 31.051-3.666-33.279-62.05 1.366 64.853-64.689-74.392-20.7 91.427-69.001-66.198-75.902 50.026L84.751 80.38l-59.346 55.816 24.151-56.064h34.501l81.077-37.088-18.975 69.864 89.702-24.15 62.101 7.762-66.314-54.334 4.212 46.571-70.726-45.713 66.414-1.725-53.476-15.525-12.938 16.388-49.164-6.9-66.414 44.85-33.333 49.417 9.183 6.647L2.118 188.81z" stroke-width="2.892" transform="matrix(.09825 0 0 .0698 286.195 -16.043)"/>
                    <path d="M133.17 195.51l12.99-80.876-61.407-35.517 32.081-44.697 28.463-4.313 32.776-5.175 41.401 6.9 12.938 10.35 47.438 20.7 18.975 34.501 30.188 30.188 2.803 31.913" stroke-width="2.892" transform="matrix(.09825 0 0 .0698 286.195 -16.043)"/>
                    <path d="M329.01 126.71l-49.16-63.83-59.77-31.05M1.926 188.186L16.11 129.84" stroke-width="2" transform="matrix(.09825 0 0 .0698 286.195 -16.043)"/>
                </g>
            </g>
            <path d="M320.187-2.25l-1.666-4.93" fill="none" stroke="#fff" stroke-width=".2"/>
        </g>
        <path d="M2.55 292.22l3.149-1.342 1.329.418 1.108-.783 2.215.292.933-.35 3.024.98-1.042.477-9.503.292z" clip-path="url(#i)" fill-rule="evenodd"/>
        <g transform="matrix(.77203 0 0 1 -1.255 0)" clip-path="url(#j)" font-size="1.984" fill="#fff" stroke-width=".2" stroke-miterlimit="10">
            <path d="M2.835 295.534v.169q-.075-.04-.157-.059-.081-.019-.168-.019-.133 0-.2.04-.066.041-.066.123 0 .062.048.098.047.035.19.067l.061.013q.19.041.27.116.08.073.08.206 0 .151-.12.24-.12.087-.328.087-.088 0-.183-.017-.094-.016-.198-.05v-.184q.099.051.195.077.096.025.19.025.125 0 .193-.042.068-.044.068-.122 0-.073-.05-.112-.048-.039-.213-.074l-.062-.015q-.166-.035-.24-.106-.073-.073-.073-.2 0-.152.108-.236.109-.083.308-.083.099 0 .186.015.087.014.161.043zM4.862 295.627q-.143 0-.227.112-.083.112-.083.307 0 .194.082.307.084.111.228.111.143 0 .226-.112.083-.113.083-.306t-.083-.306q-.083-.113-.226-.113zm0-.151q.233 0 .365.151.133.151.133.419 0 .266-.133.418-.132.151-.365.151-.233 0-.366-.15-.132-.153-.132-.42t.132-.418q.133-.151.366-.151zM6.9 296.159v-.657h.178v.65q0 .154.06.232.06.076.18.076.145 0 .228-.092.084-.092.084-.25v-.616h.179v1.085H7.63v-.166q-.065.098-.15.147-.086.047-.2.047-.186 0-.283-.116-.097-.116-.097-.34zM9.618 295.194v.308h.367v.139h-.367v.589q0 .132.035.17.037.038.149.038h.183v.15h-.183q-.207 0-.285-.077-.079-.078-.079-.281v-.59h-.13v-.138h.13v-.308h.18zM12.386 295.932v.655h-.178v-.649q0-.154-.06-.23-.06-.077-.18-.077-.145 0-.228.092-.084.092-.084.251v.613h-.179v-1.507h.18v.59q.063-.097.15-.146.087-.048.2-.048.187 0 .283.116.096.115.096.34zM14.18 296.424V297H14v-1.498h.18v.165q.056-.097.14-.144.087-.047.206-.047.198 0 .321.157.124.157.124.413 0 .255-.124.412-.123.157-.32.157-.12 0-.206-.046-.085-.048-.142-.145zm.606-.378q0-.197-.081-.309-.08-.112-.222-.112-.142 0-.223.112-.08.112-.08.309 0 .196.08.309.081.111.223.111.141 0 .222-.111.08-.113.08-.31zM16.95 295.627q-.143 0-.226.112-.084.112-.084.307 0 .194.083.307.083.111.228.111.142 0 .225-.112.084-.113.084-.306t-.084-.306q-.083-.113-.225-.113zm0-.151q.233 0 .366.151.133.151.133.419 0 .266-.133.418-.133.151-.365.151-.234 0-.367-.15-.132-.153-.132-.42t.132-.418q.133-.151.367-.151zM19.007 295.08h.178v1.507h-.178v-1.507zM21.749 296v.087h-.82q.012.184.11.281.1.096.278.096.102 0 .198-.025.097-.025.192-.076v.169q-.096.04-.197.062-.1.021-.204.021-.26 0-.412-.15-.151-.152-.151-.41 0-.266.143-.422.145-.157.389-.157.219 0 .346.141.128.14.128.383zm-.179-.052q-.002-.147-.082-.234-.08-.087-.211-.087-.15 0-.24.084-.089.085-.102.238l.635-.001z"/>
        </g>
        <g font-size="4.63" fill="#fff" stroke="#fff" stroke-width=".116" stroke-miterlimit="10">
            <path d="M.923 198.857v.847h.502q.252 0 .373-.104.122-.105.122-.32 0-.217-.122-.319-.121-.104-.373-.104H.923zm0-.95v.697h.463q.229 0 .34-.086.113-.086.113-.263 0-.174-.113-.261-.111-.087-.34-.087H.923zm-.312-.256h.798q.358 0 .551.148.193.149.193.422 0 .212-.099.338-.099.125-.29.156.23.05.357.207.128.157.128.392 0 .31-.21.478-.21.168-.599.168H.61v-2.31zM3.558 199.09q-.345 0-.478.078-.133.08-.133.27 0 .151.1.24t.271.089q.237 0 .38-.167.143-.169.143-.447v-.064h-.283zm.568-.118v.988h-.285v-.263q-.097.158-.243.234-.145.074-.355.074-.266 0-.424-.148-.157-.15-.157-.4 0-.293.195-.442.197-.148.585-.148h.4v-.028q0-.197-.13-.303-.129-.109-.363-.109-.148 0-.289.036-.14.035-.27.107v-.263q.156-.06.303-.09.147-.031.286-.031.376 0 .561.195.186.195.186.59zM4.72 197.553h.285v2.407H4.72v-2.407zM6.386 199.09q-.345 0-.478.078-.133.08-.133.27 0 .151.1.24t.272.089q.236 0 .379-.167.144-.169.144-.447v-.064h-.284zm.568-.118v.988H6.67v-.263q-.098.158-.243.234-.146.074-.356.074-.266 0-.424-.148-.156-.15-.156-.4 0-.293.195-.442.196-.148.584-.148h.4v-.028q0-.197-.13-.303-.129-.109-.362-.109-.149 0-.29.036-.14.035-.27.107v-.263q.156-.06.303-.09.147-.031.286-.031.376 0 .562.195.185.195.185.59zM8.795 198.294v.266q-.12-.066-.243-.099-.12-.034-.244-.034-.277 0-.43.177-.153.174-.153.492 0 .317.153.493.153.175.43.175.124 0 .244-.033.123-.034.243-.1v.263q-.119.056-.247.083-.127.028-.271.028-.391 0-.622-.246-.23-.246-.23-.663 0-.424.232-.667.233-.243.639-.243.131 0 .256.028.126.026.243.08zM9.287 197.553h.285v2.407h-.285v-2.407zM10.954 199.09q-.345 0-.479.078-.133.08-.133.27 0 .151.1.24t.272.089q.236 0 .379-.167.144-.169.144-.447v-.064h-.283zm.567-.118v.988h-.284v-.263q-.098.158-.243.234-.146.074-.356.074-.266 0-.424-.148-.156-.15-.156-.4 0-.293.195-.442.196-.148.584-.148h.4v-.028q0-.197-.13-.303-.129-.109-.362-.109-.149 0-.29.036-.14.035-.27.107v-.263q.156-.06.303-.09.147-.031.286-.031.376 0 .562.195.185.195.185.59zM11.911 198.228h.302l.541 1.454.542-1.454h.302l-.65 1.732h-.387l-.65-1.732zM14.778 199.09q-.345 0-.478.078-.133.08-.133.27 0 .151.099.24.1.089.272.089.237 0 .38-.167.143-.169.143-.447v-.064h-.283zm.568-.118v.988h-.285v-.263q-.097.158-.243.234-.145.074-.356.074-.266 0-.423-.148-.157-.15-.157-.4 0-.293.195-.442.197-.148.585-.148h.4v-.028q0-.197-.13-.303-.13-.109-.363-.109-.148 0-.29.036-.14.035-.27.107v-.263q.156-.06.303-.09.147-.031.287-.031.376 0 .561.195.186.195.186.59z" stroke-width=".07938112000000001"/>
        </g>
        <g font-size="1.984" fill="#fff" stroke-width=".2" stroke-miterlimit="10">
            <path d="M1.281 201.823q-.213 0-.339.159-.125.159-.125.433 0 .273.125.432.126.16.34.16.213 0 .337-.16.125-.159.125-.432 0-.274-.125-.433-.124-.159-.338-.159zm.275 1.288l.257.282h-.236l-.214-.232-.05.003-.032.001q-.305 0-.488-.203-.182-.205-.182-.547 0-.343.182-.546.183-.205.488-.205t.487.205q.182.203.182.546 0 .252-.102.431-.1.18-.292.265zM2.23 202.709v-.657h.178v.65q0 .154.06.231.06.077.18.077.145 0 .228-.092.085-.092.085-.251v-.615h.178v1.085H2.96v-.167q-.065.099-.152.147-.085.048-.198.048-.187 0-.284-.116-.097-.117-.097-.34zM4.001 202.591q-.216 0-.3.05-.082.05-.082.168 0 .095.062.152.063.055.17.055.148 0 .237-.105.09-.106.09-.28v-.04h-.177zm.356-.073v.619h-.178v-.165q-.061.099-.153.147-.09.046-.222.046-.167 0-.266-.093-.098-.094-.098-.25 0-.184.122-.277.123-.093.367-.093h.25v-.017q0-.124-.082-.19-.08-.068-.227-.068-.093 0-.18.022-.089.022-.17.067v-.165q.098-.038.19-.056.092-.02.179-.02.235 0 .352.123.116.122.116.37zM5.443 202.216v-.587h.178v1.508h-.178v-.163q-.056.097-.142.144-.086.047-.206.047-.197 0-.32-.157-.124-.157-.124-.413t.123-.413q.124-.156.321-.156.12 0 .206.047t.142.143zm-.608.38q0 .196.08.308.082.112.224.112.141 0 .223-.112.081-.112.081-.309 0-.196-.081-.308-.082-.112-.223-.112-.142 0-.223.112-.08.112-.08.308zM7.001 203.137l-.552-1.447h.204l.459 1.218.459-1.218h.203l-.551 1.447H7zM9.068 201.802v.206q-.099-.092-.211-.137-.112-.046-.238-.046-.248 0-.38.152-.131.151-.131.438 0 .286.131.438.132.151.38.151.126 0 .238-.045.112-.046.21-.138v.205q-.102.07-.217.104-.115.035-.242.035-.329 0-.518-.2-.189-.202-.189-.55 0-.349.19-.55.188-.2.517-.2.13 0 .244.034.115.034.216.103zM9.856 201.883l-.266.72h.532l-.266-.72zm-.11-.193h.221l.551 1.447h-.203l-.132-.371h-.652l-.132.37h-.206l.552-1.446z"/>
        </g>
        <g font-size="2.646" fill="#fff" stroke-width=".053">
            <path d="M1.633 213.87h.26v1.93h-.26v-1.93zM2.413 213.87h.352l.855 1.614v-1.614h.253v1.93h-.351l-.855-1.614v1.613h-.254v-1.929z"/>
        </g>
        <g font-size="2.646" fill="#fff" stroke-width=".2">
            <path d="M1.633 234.644h.26v1.928h-.26v-1.928zM2.413 234.644h.352l.855 1.613v-1.613h.253v1.928h-.351l-.855-1.613v1.613h-.254v-1.928z"/>
        </g>
        <g font-size="2.646" fill="#fff" stroke-width=".2">
            <path d="M1.633 254.887h.26v1.93h-.26v-1.93zM2.413 254.887h.352l.855 1.614v-1.614h.253v1.93h-.351l-.855-1.614v1.613h-.254v-1.929z"/>
        </g>
        <g font-size="2.646" fill="#fff" stroke-width=".2">
            <path d="M1.633 275.66h.26v1.93h-.26v-1.93zM2.413 275.66h.352l.855 1.614v-1.614h.253v1.93h-.351l-.855-1.614v1.613h-.254v-1.929z"/>
        </g>
        <g font-size="2.646" fill="#fff" stroke-width=".2">
            <path d="M7.422 222.735v.276q-.132-.123-.282-.184-.148-.06-.316-.06-.331 0-.507.202t-.176.584q0 .381.176.584.176.202.507.202.168 0 .316-.061.15-.06.282-.183v.272q-.137.093-.29.14-.153.046-.324.046-.438 0-.69-.267-.252-.269-.252-.733 0-.465.252-.732.252-.269.69-.269.173 0 .326.047.153.045.288.136zM8.325 224.516l-.737-1.93h.273l.611 1.625.612-1.624h.272l-.735 1.929h-.296z"/>
        </g>
        <g font-size="2.646" fill="#fff" stroke-width=".2">
            <path d="M7.422 244.002v.275q-.132-.122-.282-.183-.148-.06-.316-.06-.331 0-.507.202t-.176.584q0 .381.176.584.176.201.507.201.168 0 .316-.06.15-.061.282-.184v.273q-.137.093-.29.14-.153.046-.324.046-.438 0-.69-.268-.252-.268-.252-.732 0-.465.252-.733.252-.268.69-.268.173 0 .326.046.153.045.288.137zM8.325 245.782l-.737-1.928h.273l.611 1.623.612-1.623h.272l-.735 1.928h-.296z"/>
        </g>
        <g font-size="2.646" fill="#fff" stroke-width=".2">
            <path d="M7.422 264.21v.276q-.132-.123-.282-.184-.148-.06-.316-.06-.331 0-.507.202t-.176.584q0 .381.176.584.176.202.507.202.168 0 .316-.06.15-.062.282-.184v.272q-.137.093-.29.14-.153.046-.324.046-.438 0-.69-.267-.252-.269-.252-.733 0-.465.252-.732.252-.269.69-.269.173 0 .326.047.153.045.288.137zM8.325 265.99l-.737-1.928h.273l.611 1.624.612-1.624h.272l-.735 1.929h-.296z"/>
        </g>
        <g font-size="2.646" fill="#fff" stroke-width=".2">
            <path d="M7.422 284.948v.275q-.132-.122-.282-.183-.148-.06-.316-.06-.331 0-.507.202-.176.201-.176.584 0 .381.176.584.176.201.507.201.168 0 .316-.06.15-.061.282-.184v.273q-.137.093-.29.14-.153.046-.324.046-.438 0-.69-.268-.252-.268-.252-.732 0-.465.252-.733.252-.268.69-.268.173 0 .326.046.153.045.288.137zM8.325 286.728l-.737-1.928h.273l.611 1.623.612-1.623h.272l-.735 1.928h-.296z"/>
        </g>
    </g>
</svg>
