<svg xmlns="http://www.w3.org/2000/svg" xmlns:xlink="http://www.w3.org/1999/xlink" width="90" height="380" viewBox="0 0 23.813 100.542">
    <defs>
        <linearGradient id="b">
            <stop offset="0" stop-color="#fff"/>
            <stop offset="1" stop-opacity="0"/>
        </linearGradient>
        <linearGradient id="a">
            <stop offset="0" stop-color="#fdfdfd"/>
            <stop offset="1" stop-color="#fdfdfd"/>
        </linearGradient>
        <radialGradient gradientUnits="userSpaceOnUse" gradientTransform="matrix(.4218 0 0 .02673 -107.846 272.324)" r="69.827" fy="856.052" fx="285.494" cy="856.052" cx="285.494" id="c" xlink:href="#a"/>
        <linearGradient gradientUnits="userSpaceOnUse" y2="832.532" x2="279.915" y1="830.884" x1="268.967" id="d" xlink:href="#b" gradientTransform="matrix(.26458 0 0 .26458 -61.725 72.473)"/>
    </defs>
    <g transform="translate(0 -196.458)">
        <path d="M0 196.458h23.813V297H0z" fill-rule="evenodd"/>
        <flowRoot transform="matrix(.26458 0 0 .26458 -58.46 115.922)" style="line-height:125%" xml:space="preserve" font-style="normal" font-weight="400" font-size="10" font-family="sans-serif" letter-spacing="0" word-spacing="0" fill="#000" fill-opacity="1" stroke="none" stroke-width="1" stroke-linecap="butt" stroke-linejoin="miter" stroke-opacity="1">
            <flowRegion>
                <path d="M323.249 35.538h7.829v72.478h-7.829z"/>
            </flowRegion>
            <flowPara/>
        </flowRoot>
        <path d="M29.62 295.066l-17.043-.125-14.417.125-.879-3.47c4.81-1.005 10.75-1.725 16.171-1.72 5.716.005 9.886.466 17.047 1.845z" fill="url(#c)" stroke="#8b8b8b" stroke-width=".397"/>
        <path d="M-1.863 292.126c10.904-1.21 21.545-.99 31.75.122l-.034 3.297H-1.863z"/>
        <path d="M15.91 291.595l1.533-.723 1.419-.177 1.006.122 1.404.515 1.117 1.041z" fill-rule="evenodd"/>
        <g stroke="#fff">
            <g color="#000" fill="none" stroke-linejoin="bevel">
                <path d="M2.117 188.81l18.113 36.226 65.551 31.913 90.564 13.8 94.877-11.213 60.376-31.913 14.663-30.188-14.663-37.951.324 67.923-33.1-64.473-25.875 96.602-58.651-80.214-40.538 91.427-40.538-75.902-46.576 61.239-17.098-92.852-49.316 62.663 6.037-89.702 44.241 27.296 63.574 32.218 80-16.819 86.466-15.957 31.051-3.666-33.279-62.05 1.366 64.853-64.689-74.392-20.7 91.427-69.001-66.198-75.902 50.026L84.751 80.38l-59.346 55.816 24.151-56.064h34.501l81.077-37.088-18.975 69.864 89.702-24.15 62.101 7.762-66.314-54.334 4.212 46.571-70.726-45.713 66.414-1.725-53.476-15.525-12.938 16.388-49.164-6.9-66.414 44.85-33.333 49.417 9.183 6.647L2.118 188.81z" stroke-width="2.892" transform="matrix(.02343 0 0 .01665 14.708 290.28)"/>
                <path d="M133.17 195.51l12.99-80.876-61.407-35.517 32.081-44.697 28.463-4.313 32.776-5.175 41.401 6.9 12.938 10.35 47.438 20.7 18.975 34.501 30.188 30.188 2.803 31.913" stroke-width="2.892" transform="matrix(.02343 0 0 .01665 14.708 290.28)"/>
                <path d="M329.01 126.71l-49.16-63.83-59.77-31.05M1.926 188.186L16.11 129.84" stroke-width="2" transform="matrix(.02343 0 0 .01665 14.708 290.28)"/>
            </g>
        </g>
        <path d="M22.813 293.569l-.397-1.176" fill="none" stroke="#fff" stroke-width=".04769"/>
        <path d="M.963 292.22l3.148-1.342 1.33.418 1.107-.783 2.216.292.933-.35 3.024.98-1.042.477-9.504.292z" fill-rule="evenodd"/>
        <g font-size="1.984" fill="#fff" stroke-width=".2" stroke-miterlimit="10">
            <path d="M2.835 295.534v.169q-.075-.04-.157-.059-.081-.019-.168-.019-.133 0-.2.04-.066.041-.066.123 0 .062.048.098.047.035.19.067l.061.013q.19.041.27.116.08.073.08.206 0 .151-.12.24-.12.087-.328.087-.088 0-.183-.017-.094-.016-.198-.05v-.184q.099.051.195.077.096.025.19.025.125 0 .193-.042.068-.044.068-.122 0-.073-.05-.112-.048-.039-.213-.074l-.062-.015q-.166-.035-.24-.106-.073-.073-.073-.2 0-.152.108-.236.109-.083.308-.083.099 0 .186.015.087.014.161.043zM4.862 295.627q-.143 0-.227.112-.083.112-.083.307 0 .194.082.307.084.111.228.111.143 0 .226-.112.083-.113.083-.306t-.083-.306q-.083-.113-.226-.113zm0-.151q.233 0 .365.151.133.151.133.419 0 .266-.133.418-.132.151-.365.151-.233 0-.366-.15-.132-.153-.132-.42t.132-.418q.133-.151.366-.151zM6.9 296.159v-.657h.178v.65q0 .154.06.232.06.076.18.076.145 0 .228-.092.084-.092.084-.25v-.616h.179v1.085H7.63v-.166q-.065.098-.15.147-.086.047-.2.047-.186 0-.283-.116-.097-.116-.097-.34zM9.618 295.194v.308h.367v.139h-.367v.589q0 .132.035.17.037.038.149.038h.183v.15h-.183q-.207 0-.285-.077-.079-.078-.079-.281v-.59h-.13v-.138h.13v-.308h.18zM12.386 295.932v.655h-.178v-.649q0-.154-.06-.23-.06-.077-.18-.077-.145 0-.228.092-.084.092-.084.251v.613h-.179v-1.507h.18v.59q.063-.097.15-.146.087-.048.2-.048.187 0 .283.116.096.115.096.34zM14.18 296.424V297H14v-1.498h.18v.165q.056-.097.14-.144.087-.047.206-.047.198 0 .321.157.124.157.124.413 0 .255-.124.412-.123.157-.32.157-.12 0-.206-.046-.085-.048-.142-.145zm.606-.378q0-.197-.081-.309-.08-.112-.222-.112-.142 0-.223.112-.08.112-.08.309 0 .196.08.309.081.111.223.111.141 0 .222-.111.08-.113.08-.31zM16.95 295.627q-.143 0-.226.112-.084.112-.084.307 0 .194.083.307.083.111.228.111.142 0 .225-.112.084-.113.084-.306t-.084-.306q-.083-.113-.225-.113zm0-.151q.233 0 .366.151.133.151.133.419 0 .266-.133.418-.133.151-.365.151-.234 0-.367-.15-.132-.153-.132-.42t.132-.418q.133-.151.367-.151zM19.007 295.08h.178v1.507h-.178v-1.507zM21.749 296v.087h-.82q.012.184.11.281.1.096.278.096.102 0 .198-.025.097-.025.192-.076v.169q-.096.04-.197.062-.1.021-.204.021-.26 0-.412-.15-.151-.152-.151-.41 0-.266.143-.422.145-.157.389-.157.219 0 .346.141.128.14.128.383zm-.179-.052q-.002-.147-.082-.234-.08-.087-.211-.087-.15 0-.24.084-.089.085-.102.238l.635-.001z"/>
        </g>
        <path d="M0 226.65h23.813M0 247.742h23.813M0 267.731h23.813" fill="none" stroke="#606060" stroke-width=".529"/>
        <g font-size="2.646" fill="#fff" stroke-width=".053">
            <path d="M3.88 214.97h.261v1.93H3.88v-1.93zM4.66 214.97h.352l.855 1.614v-1.613h.253v1.929H5.77l-.855-1.614v1.614H4.66v-1.93z"/>
        </g>
        <g font-size="2.646" fill="#fff" stroke-width=".2">
            <path d="M3.88 235.744h.261v1.929H3.88v-1.93zM4.66 235.744h.352l.855 1.613v-1.613h.253v1.929H5.77l-.855-1.614v1.614H4.66v-1.93z"/>
        </g>
        <g font-size="2.646" fill="#fff" stroke-width=".2">
            <path d="M3.88 255.988h.261v1.928H3.88v-1.928zM4.66 255.988h.352l.855 1.613v-1.613h.253v1.928H5.77l-.855-1.613v1.613H4.66v-1.928z"/>
        </g>
        <g font-size="2.646" fill="#fff" stroke-width=".2">
            <path d="M3.88 276.76h.261v1.93H3.88v-1.93zM4.66 276.76h.352l.855 1.614v-1.613h.253v1.928H5.77l-.855-1.613v1.613H4.66v-1.928z"/>
        </g>
        <g font-size="2.646" fill="#fff" stroke-width=".2">
            <path d="M10.173 222.777v.276q-.131-.123-.281-.184-.149-.06-.317-.06-.33 0-.506.202t-.176.584q0 .381.176.584.175.202.506.202.168 0 .317-.061.15-.06.281-.184v.273q-.137.093-.29.14-.153.046-.323.046-.438 0-.69-.267-.252-.269-.252-.733 0-.465.252-.732.252-.27.69-.27.173 0 .325.047.154.046.288.137zM11.076 224.558l-.736-1.93h.273l.61 1.625.613-1.624h.271l-.735 1.929h-.296z"/>
        </g>
        <g font-size="2.646" fill="#fff" stroke-width=".2">
            <path d="M10.173 244.044v.275q-.131-.123-.281-.183-.149-.061-.317-.061-.33 0-.506.203-.176.201-.176.584 0 .38.176.584.175.201.506.201.168 0 .317-.06.15-.061.281-.184v.273q-.137.093-.29.14-.153.046-.323.046-.438 0-.69-.268-.252-.268-.252-.732 0-.465.252-.733.252-.268.69-.268.173 0 .325.046.154.045.288.137zM11.076 245.824l-.736-1.929h.273l.61 1.624.613-1.624h.271l-.735 1.93h-.296z"/>
        </g>
        <g font-size="2.646" fill="#fff" stroke-width=".2">
            <path d="M10.173 264.252v.276q-.131-.123-.281-.184-.149-.06-.317-.06-.33 0-.506.202t-.176.584q0 .381.176.584.175.202.506.202.168 0 .317-.06.15-.062.281-.184v.272q-.137.093-.29.14-.153.046-.323.046-.438 0-.69-.267-.252-.269-.252-.733 0-.465.252-.732.252-.269.69-.269.173 0 .325.047.154.045.288.136zM11.076 266.033l-.736-1.93h.273l.61 1.625.613-1.624h.271l-.735 1.929h-.296z"/>
        </g>
        <g font-size="2.646" fill="#fff" stroke-width=".2">
            <path d="M10.173 284.46v.276q-.131-.123-.281-.183-.149-.061-.317-.061-.33 0-.506.203-.176.201-.176.584 0 .38.176.584.175.201.506.201.168 0 .317-.06.15-.061.281-.184v.273q-.137.093-.29.14-.153.046-.323.046-.438 0-.69-.268-.252-.269-.252-.732 0-.465.252-.733.252-.269.69-.269.173 0 .325.047.154.045.288.137zM11.076 286.241l-.736-1.929h.273l.61 1.624.613-1.624h.271l-.735 1.93h-.296z"/>
        </g>
        <g font-size="2.646" fill="#fff" stroke-width=".2">
            <path d="M17.876 215.183q-.284 0-.452.211-.166.212-.166.578 0 .364.166.576.168.212.452.212.285 0 .45-.212.167-.212.167-.576 0-.366-.167-.578-.165-.211-.45-.211zm0-.212q.406 0 .649.272t.243.729q0 .456-.243.729-.243.27-.649.27t-.65-.27q-.244-.272-.244-.73 0-.456.243-.728.245-.272.651-.272zM19.146 215.006h.263v1.171q0 .31.112.447.112.136.364.136.251 0 .363-.136.113-.137.113-.447v-1.171h.262v1.204q0 .377-.187.57-.186.192-.55.192-.366 0-.554-.193-.186-.192-.186-.57v-1.203zM20.847 215.006h1.631v.22h-.684v1.708h-.263v-1.709h-.684v-.22z"/>
        </g>
        <g font-size="2.646" fill="#fff" stroke-width=".2">
            <path d="M17.876 235.956q-.284 0-.452.211-.166.212-.166.578 0 .364.166.576.168.212.452.212.285 0 .45-.212.167-.212.167-.576 0-.366-.167-.578-.165-.211-.45-.211zm0-.212q.406 0 .649.272t.243.729q0 .456-.243.729-.243.27-.649.27t-.65-.27q-.244-.272-.244-.729 0-.457.243-.729.245-.272.651-.272zM19.146 235.779h.263v1.171q0 .31.112.447.112.136.364.136.251 0 .363-.136.113-.137.113-.447v-1.171h.262v1.204q0 .377-.187.57-.186.192-.55.192-.366 0-.554-.193-.186-.192-.186-.57v-1.203zM20.847 235.779h1.631v.22h-.684v1.708h-.263v-1.709h-.684v-.22z"/>
        </g>
        <g font-size="2.646" fill="#fff" stroke-width=".2">
            <path d="M17.876 256.2q-.284 0-.452.211-.166.212-.166.578 0 .364.166.576.168.212.452.212.285 0 .45-.212.167-.212.167-.576 0-.366-.167-.578-.165-.211-.45-.211zm0-.212q.406 0 .649.272t.243.729q0 .456-.243.729-.243.27-.649.27t-.65-.27q-.244-.272-.244-.73 0-.456.243-.728.245-.272.651-.272zM19.146 256.023h.263v1.171q0 .31.112.447.112.136.364.136.251 0 .363-.136.113-.137.113-.447v-1.171h.262v1.204q0 .377-.187.57-.186.192-.55.192-.366 0-.554-.193-.186-.192-.186-.57v-1.203zM20.847 256.023h1.631v.22h-.684v1.708h-.263v-1.709h-.684v-.22z"/>
        </g>
        <g font-size="2.646" fill="#fff" stroke-width=".2">
            <path d="M17.876 276.973q-.284 0-.452.211-.166.212-.166.578 0 .364.166.576.168.212.452.212.285 0 .45-.212.167-.212.167-.576 0-.366-.167-.578-.165-.211-.45-.211zm0-.212q.406 0 .649.272t.243.729q0 .456-.243.729-.243.27-.649.27t-.65-.27q-.244-.272-.244-.73 0-.456.243-.728.245-.272.651-.272zM19.146 276.796h.263v1.171q0 .31.112.447.112.136.364.136.251 0 .363-.136.113-.137.113-.447v-1.171h.262V278q0 .377-.187.57-.186.192-.55.192-.366 0-.554-.193-.186-.192-.186-.57v-1.203zM20.847 276.796h1.631v.22h-.684v1.708h-.263v-1.709h-.684v-.22z"/>
        </g>
        <g font-size="4.63" fill="#fff" stroke="#fff" stroke-width=".053">
            <path d="M1.844 199.505v1.237h.732q.369 0 .545-.152.179-.154.179-.468 0-.316-.179-.466-.176-.151-.545-.151h-.732zm0-1.388v1.017h.676q.334 0 .497-.124.165-.127.165-.385 0-.255-.165-.382-.163-.126-.497-.126h-.676zm-.457-.375h1.167q.522 0 .805.217.282.217.282.617 0 .31-.145.493-.144.183-.425.228.337.072.523.303.187.228.187.572 0 .452-.307.699-.308.246-.875.246H1.387v-3.375zM5.694 199.844q-.504 0-.699.115-.194.116-.194.394 0 .221.145.352.147.13.398.13.345 0 .553-.245.21-.246.21-.653v-.093h-.413zm.83-.172v1.445h-.416v-.384q-.143.23-.355.341-.213.109-.52.109-.39 0-.62-.218-.228-.219-.228-.585 0-.427.285-.644.287-.217.854-.217h.584v-.041q0-.287-.19-.443-.188-.159-.53-.159-.216 0-.422.052t-.396.156v-.384q.229-.088.443-.131.215-.045.419-.045.55 0 .82.285.272.284.272.863zM9.497 199.589v1.528H9.08v-1.515q0-.36-.14-.538-.14-.179-.421-.179-.337 0-.531.215-.195.215-.195.586v1.43h-.418v-2.531h.418v.393q.15-.228.35-.341.204-.113.469-.113.436 0 .66.271.224.27.224.794zM11.997 198.97v-1.37h.416v3.517h-.416v-.38q-.13.226-.332.337-.2.109-.48.109-.458 0-.748-.367-.287-.366-.287-.963t.287-.963q.29-.366.749-.366.28 0 .479.11.201.11.332.335zm-1.417.883q0 .46.187.721.19.26.52.26t.52-.26q.19-.262.19-.72 0-.46-.19-.72-.19-.262-.52-.262t-.52.262q-.187.26-.187.72zM14.42 199.844q-.503 0-.698.115-.194.116-.194.394 0 .221.144.352.147.13.398.13.346 0 .554-.245.21-.246.21-.653v-.093h-.413zm.83-.172v1.445h-.415v-.384q-.143.23-.355.341-.213.109-.52.109-.39 0-.62-.218-.228-.219-.228-.585 0-.427.285-.644.287-.217.854-.217h.584v-.041q0-.287-.19-.443-.188-.159-.53-.159-.216 0-.422.052t-.396.156v-.384q.229-.088.443-.131.215-.045.419-.045.549 0 .82.285.272.284.272.863zM18.224 199.589v1.528h-.416v-1.515q0-.36-.14-.538-.14-.179-.421-.179-.337 0-.531.215-.195.215-.195.586v1.43h-.418v-2.531h.418v.393q.15-.228.35-.341.204-.113.469-.113.436 0 .66.271.224.27.224.794zM20.209 199.844q-.505 0-.699.115-.194.116-.194.394 0 .221.144.352.147.13.398.13.346 0 .554-.245.21-.246.21-.653v-.093h-.413zm.83-.172v1.445h-.417v-.384q-.142.23-.355.341-.212.109-.52.109-.389 0-.62-.218-.227-.219-.227-.585 0-.427.284-.644.288-.217.855-.217h.583v-.041q0-.287-.19-.443-.187-.159-.529-.159-.217 0-.422.052-.206.052-.396.156v-.384q.228-.088.443-.131.215-.045.418-.045.55 0 .821.285.271.284.271.863z"/>
        </g>
        <g font-size="1.984" fill="#fff" stroke-width=".053">
            <path d="M1.545 203.455q0 .197.08.31.081.11.223.11.141 0 .223-.11.081-.113.081-.31 0-.196-.081-.308-.082-.112-.223-.112-.142 0-.223.112-.08.112-.08.308zm.607.38q-.056.096-.142.143-.085.047-.206.047-.196 0-.32-.157-.123-.157-.123-.413t.123-.413q.124-.157.32-.157.12 0 .206.048.086.046.142.143v-.164h.178v1.498h-.178v-.576zM2.68 203.569v-.657h.178v.65q0 .154.06.231.06.077.18.077.144 0 .228-.092.084-.092.084-.251v-.615h.178v1.085H3.41v-.167q-.065.099-.151.147-.086.048-.199.048-.187 0-.284-.116-.097-.117-.097-.34zM4.45 203.451q-.216 0-.299.05-.083.05-.083.168 0 .095.062.151.063.056.17.056.149 0 .238-.105.09-.106.09-.28v-.04H4.45zm.356-.073v.619h-.178v-.165q-.061.099-.152.146-.091.047-.223.047-.167 0-.266-.093-.097-.094-.097-.251 0-.183.122-.276.123-.093.366-.093h.25v-.018q0-.123-.082-.19-.08-.067-.226-.067-.093 0-.181.022-.089.022-.17.067v-.165q.098-.038.19-.056.092-.02.18-.02.235 0 .35.123.117.122.117.37zM5.892 203.076v-.587h.179v1.508h-.179v-.163q-.056.097-.142.144-.085.047-.206.047-.196 0-.32-.157-.123-.157-.123-.413t.123-.413q.124-.157.32-.157.12 0 .206.048.086.046.142.143zm-.607.38q0 .196.08.308.082.112.223.112.142 0 .223-.112.081-.112.081-.309 0-.196-.081-.308-.081-.112-.223-.112-.141 0-.223.112-.08.112-.08.308zM7.45 203.997l-.552-1.447h.204l.459 1.218.46-1.218h.203l-.552 1.447H7.45zM9.517 202.662v.206q-.099-.092-.211-.138-.112-.045-.238-.045-.248 0-.38.152-.131.151-.131.438 0 .286.132.438.131.151.38.151.125 0 .237-.045.112-.046.211-.138v.204q-.103.07-.218.105-.114.035-.242.035-.329 0-.518-.2-.189-.202-.189-.55 0-.349.19-.55.188-.2.517-.2.13 0 .244.034.115.034.216.103zM9.723 203.374h.523v.159h-.523v-.16zM10.703 203.834v.576h-.18v-1.498h.18v.164q.056-.097.142-.143.086-.048.205-.048.198 0 .32.157.125.157.125.413t-.124.413q-.123.157-.321.157-.12 0-.205-.047-.086-.047-.142-.144zm.607-.379q0-.196-.082-.308-.08-.112-.222-.112-.141 0-.223.112-.08.112-.08.308 0 .197.08.31.082.11.223.11.142 0 .222-.11.082-.113.082-.31zM12.21 203.037q-.143 0-.226.112-.083.111-.083.306t.082.307q.083.112.228.112.142 0 .225-.113.084-.112.084-.306 0-.193-.084-.305-.083-.113-.225-.113zm0-.152q.233 0 .366.152.133.15.133.418 0 .267-.133.419-.133.15-.365.15-.234 0-.367-.15-.131-.152-.131-.419t.131-.418q.133-.152.367-.152zM13.003 202.49h.179v1.507h-.179v-1.508zM14.047 203.451q-.216 0-.3.05-.083.05-.083.168 0 .095.062.151.063.056.17.056.149 0 .238-.105.09-.106.09-.28v-.04h-.177zm.355-.073v.619h-.178v-.165q-.06.099-.152.146-.091.047-.223.047-.166 0-.265-.093-.098-.094-.098-.251 0-.183.122-.276.123-.093.366-.093h.25v-.018q0-.123-.081-.19-.08-.067-.227-.067-.093 0-.181.022t-.17.067v-.165q.098-.038.19-.056.092-.02.18-.02.235 0 .351.123.116.122.116.37zM15.403 203.078q-.03-.017-.066-.025-.034-.009-.077-.009-.151 0-.233.099-.08.098-.08.282v.572h-.18v-1.086h.18v.169q.056-.099.146-.146.09-.049.22-.049.018 0 .04.003.022.002.05.007v.183zM15.592 202.912h.179v1.085h-.179v-1.085zm0-.423h.179v.226h-.179v-.226zM16.065 202.912h.847v.162l-.67.78h.67v.143h-.871v-.163l.67-.78h-.646v-.142zM18.113 203.41v.087h-.82q.012.184.111.28.1.097.277.097.103 0 .199-.025.097-.026.192-.076v.169q-.096.04-.197.062-.1.02-.204.02-.26 0-.412-.15-.151-.151-.151-.41 0-.266.143-.422.144-.157.389-.157.219 0 .346.142.127.14.127.383zm-.178-.053q-.002-.146-.082-.233-.08-.087-.211-.087-.15 0-.24.084-.089.084-.102.237h.635zM19.031 203.078q-.03-.017-.066-.025-.035-.009-.077-.009-.152 0-.233.099-.08.098-.08.282v.572h-.18v-1.086h.18v.169q.056-.099.146-.146.09-.049.219-.049.018 0 .04.003.023.002.05.007l.001.183z"/>
        </g>
        <g font-size="2.646" fill="#fff" stroke-width=".2">
            <path d="M9.099 212.227h.598v.211h-.598v-.211zM15.197 211.398v.72h.618v.22h-.618v.72h-.187v-.72h-.618v-.22h.618v-.72h.187z"/>
        </g>
        <g font-size="2.646" fill="#fff" stroke-width=".2">
            <path d="M8.339 233.678h.635v.212h-.635v-.212zM15.58 232.85v.72h.656v.22h-.656v.719h-.198v-.72h-.656v-.22h.656v-.719h.198z"/>
        </g>
        <g font-size="2.646" fill="#fff" stroke-width=".2">
            <path d="M8.762 254.197h.601v.212h-.6v-.212zM15.615 253.369v.72h.621v.22h-.621v.719h-.187v-.72h-.621v-.22h.62v-.72h.188z"/>
        </g>
        <g font-size="2.646" fill="#fff" stroke-width=".2">
            <path d="M8.339 275.245h.635v.212h-.635v-.212zM15.58 274.417v.72h.656v.22h-.656v.719h-.198v-.72h-.656v-.22h.656v-.719h.198z"/>
        </g>
    </g>
</svg>
