<svg xmlns="http://www.w3.org/2000/svg" xmlns:xlink="http://www.w3.org/1999/xlink" width="60" height="380" viewBox="0 0 15.875 100.542">
    <defs>
        <linearGradient id="b">
            <stop offset="0" stop-color="#fff"/>
            <stop offset="1" stop-opacity="0"/>
        </linearGradient>
        <linearGradient id="a">
            <stop offset="0" stop-color="#fdfdfd"/>
            <stop offset="1" stop-color="#fdfdfd"/>
        </linearGradient>
        <radialGradient gradientUnits="userSpaceOnUse" gradientTransform="matrix(.4218 0 0 .02673 -117.37 272.324)" r="69.827" fy="856.052" fx="285.494" cy="856.052" cx="285.494" id="d" xlink:href="#a"/>
        <linearGradient gradientUnits="userSpaceOnUse" y2="832.532" x2="279.915" y1="830.884" x1="268.967" id="h" xlink:href="#b" gradientTransform="matrix(.26458 0 0 .26458 -75.483 72.473)"/>
        <clipPath clipPathUnits="userSpaceOnUse" id="j">
            <rect width="20.551" height="14.908" x="1.637" y="287.562" rx="0" ry="0" fill="#111bff" stroke-width=".3" stroke-miterlimit="10"/>
        </clipPath>
        <clipPath clipPathUnits="userSpaceOnUse" id="i">
            <rect width="15.866" height="14.908" x=".009" y="287.562" rx="0" ry="0" fill="#111bff" stroke-width=".3" stroke-miterlimit="10"/>
        </clipPath>
        <clipPath clipPathUnits="userSpaceOnUse" id="g">
            <rect width="15.866" height="14.908" x=".009" y="287.562" rx="0" ry="0" fill="#111bff" stroke-width=".3" stroke-miterlimit="10"/>
        </clipPath>
        <clipPath clipPathUnits="userSpaceOnUse" id="f">
            <rect width="66.538" height="62.519" x="282.25" y="-27.441" rx="0" ry="0" fill="#111bff" stroke-width=".3" stroke-miterlimit="10"/>
        </clipPath>
        <clipPath clipPathUnits="userSpaceOnUse" id="e">
            <rect width="15.866" height="14.908" x=".009" y="287.562" rx="0" ry="0" fill="#111bff" stroke-width=".3" stroke-miterlimit="10"/>
        </clipPath>
        <clipPath clipPathUnits="userSpaceOnUse" id="c">
            <rect width="15.866" height="14.908" x=".009" y="287.562" rx="0" ry="0" fill="#111bff" stroke-width=".3" stroke-miterlimit="10"/>
        </clipPath>
    </defs>
    <g transform="translate(0 -196.458)">
        <path d="M0 196.458h15.875V297H0z" fill-rule="evenodd"/>
        <flowRoot transform="matrix(.26458 0 0 .26458 -58.46 115.922)" style="line-height:125%" xml:space="preserve" font-style="normal" font-weight="400" font-size="10" font-family="sans-serif" letter-spacing="0" word-spacing="0" fill="#000" fill-opacity="1" stroke="none" stroke-width="1" stroke-linecap="butt" stroke-linejoin="miter" stroke-opacity="1">
            <flowRegion>
                <path d="M323.249 35.538h7.829v72.478h-7.829z"/>
            </flowRegion>
            <flowPara/>
        </flowRoot>
        <path d="M20.095 295.066l-17.043-.125-14.417.125-.879-3.47c4.81-1.005 10.75-1.725 16.171-1.72 5.716.005 9.886.466 17.047 1.845z" clip-path="url(#c)" fill="url(#d)" stroke="#8b8b8b" stroke-width=".397"/>
        <path d="M-15.622 292.126c10.905-1.21 21.546-.99 31.75.122l-.033 3.297h-31.717z" clip-path="url(#e)"/>
        <g transform="matrix(.23845 0 0 .23845 -67.293 294.105)" clip-path="url(#f)">
            <path d="M291.232-10.527l6.43-3.034 5.953-.742 4.222.511 5.886 2.16 4.683 4.37z" fill-rule="evenodd"/>
            <g stroke="#fff">
                <g color="#000" fill="none" stroke-linejoin="bevel">
                    <path d="M2.117 188.81l18.113 36.226 65.551 31.913 90.564 13.8 94.877-11.213 60.376-31.913 14.663-30.188-14.663-37.951.324 67.923-33.1-64.473-25.875 96.602-58.651-80.214-40.538 91.427-40.538-75.902-46.576 61.239-17.098-92.852-49.316 62.663 6.037-89.702 44.241 27.296 63.574 32.218 80-16.819 86.466-15.957 31.051-3.666-33.279-62.05 1.366 64.853-64.689-74.392-20.7 91.427-69.001-66.198-75.902 50.026L84.751 80.38l-59.346 55.816 24.151-56.064h34.501l81.077-37.088-18.975 69.864 89.702-24.15 62.101 7.762-66.314-54.334 4.212 46.571-70.726-45.713 66.414-1.725-53.476-15.525-12.938 16.388-49.164-6.9-66.414 44.85-33.333 49.417 9.183 6.647L2.118 188.81z" stroke-width="2.892" transform="matrix(.09825 0 0 .0698 286.195 -16.043)"/>
                    <path d="M133.17 195.51l12.99-80.876-61.407-35.517 32.081-44.697 28.463-4.313 32.776-5.175 41.401 6.9 12.938 10.35 47.438 20.7 18.975 34.501 30.188 30.188 2.803 31.913" stroke-width="2.892" transform="matrix(.09825 0 0 .0698 286.195 -16.043)"/>
                    <path d="M329.01 126.71l-49.16-63.83-59.77-31.05M1.926 188.186L16.11 129.84" stroke-width="2" transform="matrix(.09825 0 0 .0698 286.195 -16.043)"/>
                </g>
            </g>
            <path d="M320.187-2.25l-1.666-4.93" fill="none" stroke="#fff" stroke-width=".2"/>
        </g>
        <path d="M-12.795 292.22l3.148-1.342 1.33.418 1.107-.783 2.215.292.933-.35 3.024.98-1.041.477-9.504.292z" clip-path="url(#i)" fill-rule="evenodd"/>
        <g transform="matrix(.77203 0 0 1 -1.255 0)" clip-path="url(#j)" font-size="1.984" fill="#fff" stroke-width=".2" stroke-miterlimit="10">
            <path d="M2.835 295.534v.169q-.075-.04-.157-.059-.081-.019-.168-.019-.133 0-.2.04-.066.041-.066.123 0 .062.048.098.047.035.19.067l.061.013q.19.041.27.116.08.073.08.206 0 .151-.12.24-.12.087-.328.087-.088 0-.183-.017-.094-.016-.198-.05v-.184q.099.051.195.077.096.025.19.025.125 0 .193-.042.068-.044.068-.122 0-.073-.05-.112-.048-.039-.213-.074l-.062-.015q-.166-.035-.24-.106-.073-.073-.073-.2 0-.152.108-.236.109-.083.308-.083.099 0 .186.015.087.014.161.043zM4.862 295.627q-.143 0-.227.112-.083.112-.083.307 0 .194.082.307.084.111.228.111.143 0 .226-.112.083-.113.083-.306t-.083-.306q-.083-.113-.226-.113zm0-.151q.233 0 .365.151.133.151.133.419 0 .266-.133.418-.132.151-.365.151-.233 0-.366-.15-.132-.153-.132-.42t.132-.418q.133-.151.366-.151zM6.9 296.159v-.657h.178v.65q0 .154.06.232.06.076.18.076.145 0 .228-.092.084-.092.084-.25v-.616h.179v1.085H7.63v-.166q-.065.098-.15.147-.086.047-.2.047-.186 0-.283-.116-.097-.116-.097-.34zM9.618 295.194v.308h.367v.139h-.367v.589q0 .132.035.17.037.038.149.038h.183v.15h-.183q-.207 0-.285-.077-.079-.078-.079-.281v-.59h-.13v-.138h.13v-.308h.18zM12.386 295.932v.655h-.178v-.649q0-.154-.06-.23-.06-.077-.18-.077-.145 0-.228.092-.084.092-.084.251v.613h-.179v-1.507h.18v.59q.063-.097.15-.146.087-.048.2-.048.187 0 .283.116.096.115.096.34zM14.18 296.424V297H14v-1.498h.18v.165q.056-.097.14-.144.087-.047.206-.047.198 0 .321.157.124.157.124.413 0 .255-.124.412-.123.157-.32.157-.12 0-.206-.046-.085-.048-.142-.145zm.606-.378q0-.197-.081-.309-.08-.112-.222-.112-.142 0-.223.112-.08.112-.08.309 0 .196.08.309.081.111.223.111.141 0 .222-.111.08-.113.08-.31zM16.95 295.627q-.143 0-.226.112-.084.112-.084.307 0 .194.083.307.083.111.228.111.142 0 .225-.112.084-.113.084-.306t-.084-.306q-.083-.113-.225-.113zm0-.151q.233 0 .366.151.133.151.133.419 0 .266-.133.418-.133.151-.365.151-.234 0-.367-.15-.132-.153-.132-.42t.132-.418q.133-.151.367-.151zM19.007 295.08h.178v1.507h-.178v-1.507zM21.749 296v.087h-.82q.012.184.11.281.1.096.278.096.102 0 .198-.025.097-.025.192-.076v.169q-.096.04-.197.062-.1.021-.204.021-.26 0-.412-.15-.151-.152-.151-.41 0-.266.143-.422.145-.157.389-.157.219 0 .346.141.128.14.128.383zm-.179-.052q-.002-.147-.082-.234-.08-.087-.211-.087-.15 0-.24.084-.089.085-.102.238l.635-.001z"/>
        </g>
        <g font-size="4.63" fill="#fff" stroke="#fff" stroke-width=".116" stroke-miterlimit="10">
            <g font-size="4.833">
                <path d="M1.245 198.91v.883h.524q.263 0 .389-.108.127-.11.127-.334 0-.226-.127-.333-.126-.108-.39-.108h-.523zm0-.992v.727h.483q.24 0 .356-.089.117-.09.117-.274 0-.183-.117-.273-.117-.09-.356-.09h-.483zm-.326-.268h.833q.374 0 .575.155.202.155.202.441 0 .221-.103.352-.103.131-.304.163.24.052.373.217.134.163.134.408 0 .323-.22.5-.219.175-.624.175H.919v-2.41zM3.996 199.152q-.36 0-.5.082-.138.083-.138.281 0 .159.103.252.105.092.284.092.247 0 .396-.174.15-.176.15-.467v-.066h-.295zm.592-.123v1.032h-.297v-.274q-.102.164-.253.244-.152.077-.372.077-.278 0-.442-.155-.163-.157-.163-.418 0-.305.203-.46.205-.155.61-.155h.417v-.03q0-.205-.136-.316-.134-.113-.377-.113-.155 0-.302.037t-.283.111v-.274q.163-.063.316-.094.154-.032.3-.032.392 0 .585.203.194.204.194.617zM6.712 198.97v1.091h-.297v-1.082q0-.256-.1-.384t-.3-.128q-.241 0-.38.154-.14.153-.14.418v1.022h-.298v-1.808h.299v.28q.106-.163.25-.243.145-.081.334-.081.312 0 .472.194.16.192.16.567zM8.498 198.527v-.979h.297v2.513h-.297v-.271q-.094.161-.238.24-.142.078-.342.078-.328 0-.534-.262-.205-.261-.205-.687 0-.427.205-.688.206-.262.534-.262.2 0 .342.08.144.077.238.238zm-1.013.632q0 .327.134.515.136.185.372.185t.371-.185q.136-.188.136-.515 0-.328-.136-.514-.135-.187-.371-.187t-.372.187q-.134.186-.134.514zM10.229 199.152q-.36 0-.499.082-.139.083-.139.281 0 .159.103.252.105.092.285.092.247 0 .395-.174.15-.176.15-.467v-.066h-.295zm.593-.123v1.032h-.297v-.274q-.102.164-.254.244-.152.077-.371.077-.278 0-.443-.155-.163-.157-.163-.418 0-.305.203-.46.206-.155.61-.155h.418v-.03q0-.205-.136-.316-.134-.113-.378-.113-.155 0-.302.037t-.283.111v-.274q.164-.063.317-.094.153-.032.299-.032.392 0 .586.203.194.204.194.617zM12.945 198.97v1.091h-.297v-1.082q0-.256-.1-.384t-.3-.128q-.241 0-.38.154-.139.153-.139.418v1.022h-.298v-1.808h.298v.28q.107-.163.25-.243.146-.081.335-.081.312 0 .471.194.16.192.16.567zM14.363 199.152q-.36 0-.499.082-.139.083-.139.281 0 .159.104.252.105.092.284.092.247 0 .395-.174.15-.176.15-.467v-.066h-.295zm.593-.123v1.032h-.297v-.274q-.102.164-.254.244-.152.077-.371.077-.278 0-.443-.155-.163-.157-.163-.418 0-.305.204-.46.205-.155.61-.155h.417v-.03q0-.205-.136-.316-.134-.113-.378-.113-.155 0-.302.037t-.282.111v-.274q.163-.063.316-.094.153-.032.299-.032.392 0 .586.203.194.204.194.617z" stroke-width=".07938112000000001"/>
            </g>
        </g>
        <g font-size="1.984" fill="#fff" stroke="none" stroke-width=".079" stroke-miterlimit="10">
            <path d="M1.419 201.858q-.213 0-.34.159-.124.159-.124.433 0 .273.125.432.126.159.339.159.213 0 .337-.16.125-.158.125-.431 0-.274-.125-.433-.124-.16-.337-.16zm.274 1.287l.258.282h-.236l-.215-.231-.049.003h-.032q-.305 0-.488-.203-.183-.204-.183-.546 0-.343.183-.547.183-.204.488-.204.304 0 .486.204.183.204.183.547 0 .252-.102.431-.1.18-.293.265zM2.368 202.743v-.657h.178v.65q0 .155.06.232.06.077.18.077.145 0 .228-.092.084-.092.084-.251v-.616h.178v1.086h-.178v-.167q-.065.099-.151.147-.085.048-.199.048-.187 0-.284-.116-.096-.117-.096-.34zM4.139 202.626q-.216 0-.3.05-.083.049-.083.168 0 .095.062.151.063.055.17.055.149 0 .238-.104.09-.106.09-.28v-.04H4.14zm.355-.073v.619h-.178v-.165q-.06.099-.152.146-.091.047-.223.047-.167 0-.265-.093-.098-.094-.098-.251 0-.183.122-.276.123-.093.366-.093h.25v-.018q0-.123-.081-.19-.08-.067-.227-.067-.093 0-.181.022t-.17.067v-.165q.098-.038.19-.056.092-.02.18-.02.235 0 .351.122.116.123.116.37zM5.58 202.251v-.587h.179v1.508H5.58v-.163q-.057.097-.143.144-.085.047-.205.047-.197 0-.321-.157-.123-.157-.123-.413t.123-.413q.124-.157.32-.157.12 0 .206.048.086.046.143.143zm-.607.379q0 .197.08.31.082.11.223.11.142 0 .223-.11.082-.113.082-.31t-.082-.308q-.081-.113-.223-.113-.141 0-.223.113-.08.111-.08.308zM6.961 201.886v.543h.246q.137 0 .212-.07.074-.071.074-.202 0-.13-.074-.2-.075-.071-.212-.071h-.246zm-.195-.161h.441q.244 0 .368.11.125.11.125.322 0 .214-.125.324-.124.11-.368.11h-.246v.58h-.195v-1.446zM8.306 202.211q-.143 0-.227.113-.083.111-.083.306t.082.307q.084.112.228.112.143 0 .226-.113.083-.112.083-.306 0-.193-.083-.305-.083-.114-.226-.114zm0-.15q.233 0 .365.15.133.152.133.419 0 .266-.133.419-.132.15-.365.15-.233 0-.366-.15-.132-.153-.132-.419 0-.267.132-.419.133-.15.366-.15zM9.099 201.664h.178v1.508H9.1v-1.508zM10.142 202.626q-.216 0-.3.05-.082.049-.082.168 0 .095.062.151.063.055.17.055.148 0 .238-.104.09-.106.09-.28v-.04h-.178zm.356-.073v.619h-.178v-.165q-.061.099-.152.146-.092.047-.223.047-.167 0-.266-.093-.098-.094-.098-.251 0-.183.122-.276.123-.093.367-.093h.25v-.018q0-.123-.082-.19-.08-.067-.226-.067-.094 0-.182.022t-.17.067v-.165q.099-.038.19-.056.093-.02.18-.02.235 0 .352.122.116.123.116.37zM11.499 202.253q-.03-.017-.066-.025-.035-.01-.078-.01-.15 0-.232.1-.08.098-.08.282v.571h-.18v-1.085h.18v.169q.056-.1.146-.147.09-.048.219-.048.018 0 .04.003.023.002.05.007v.183zM11.688 202.086h.178v1.086h-.178v-1.086zm0-.422h.178v.226h-.178v-.226zM12.16 202.086h.847v.163l-.67.78h.67v.143h-.87v-.163l.67-.78h-.646v-.143zM14.209 202.584v.088h-.82q.012.184.11.28.1.097.278.097.102 0 .198-.026.097-.025.192-.075v.168q-.096.041-.196.062-.101.022-.205.022-.26 0-.412-.151-.15-.152-.15-.41 0-.266.143-.422.144-.157.388-.157.22 0 .346.142.128.14.128.382zm-.178-.052q-.002-.146-.083-.233-.08-.088-.211-.088-.15 0-.24.085-.088.084-.102.237h.636zM15.126 202.253q-.03-.017-.065-.025-.035-.01-.078-.01-.151 0-.232.1-.08.098-.08.282v.571h-.18v-1.085h.18v.169q.055-.1.145-.147.09-.048.22-.048.018 0 .04.003.022.002.05.007v.183z"/>
        </g>
        <g font-size="2.646" fill="#fff" stroke-width=".053">
            <path d="M1.633 213.87h.26v1.93h-.26v-1.93zM2.413 213.87h.352l.855 1.614v-1.614h.253v1.93h-.351l-.855-1.614v1.613h-.254v-1.929z"/>
        </g>
        <g font-size="2.646" fill="#fff" stroke-width=".2">
            <path d="M1.633 234.644h.26v1.928h-.26v-1.928zM2.413 234.644h.352l.855 1.613v-1.613h.253v1.928h-.351l-.855-1.613v1.613h-.254v-1.928z"/>
        </g>
        <g font-size="2.646" fill="#fff" stroke-width=".2">
            <path d="M1.633 254.887h.26v1.93h-.26v-1.93zM2.413 254.887h.352l.855 1.614v-1.614h.253v1.93h-.351l-.855-1.614v1.613h-.254v-1.929z"/>
        </g>
        <g font-size="2.646" fill="#fff" stroke-width=".2">
            <path d="M1.633 275.66h.26v1.93h-.26v-1.93zM2.413 275.66h.352l.855 1.614v-1.614h.253v1.93h-.351l-.855-1.614v1.613h-.254v-1.929z"/>
        </g>
        <g font-size="2.646" fill="#fff" stroke-width=".2">
            <path d="M7.422 222.735v.276q-.132-.123-.282-.184-.148-.06-.316-.06-.331 0-.507.202t-.176.584q0 .381.176.584.176.202.507.202.168 0 .316-.061.15-.06.282-.183v.272q-.137.093-.29.14-.153.046-.324.046-.438 0-.69-.267-.252-.269-.252-.733 0-.465.252-.732.252-.269.69-.269.173 0 .326.047.153.045.288.136zM8.325 224.516l-.737-1.93h.273l.611 1.625.612-1.624h.272l-.735 1.929h-.296z"/>
        </g>
        <g font-size="2.646" fill="#fff" stroke-width=".2">
            <path d="M7.422 244.002v.275q-.132-.122-.282-.183-.148-.06-.316-.06-.331 0-.507.202t-.176.584q0 .381.176.584.176.201.507.201.168 0 .316-.06.15-.061.282-.184v.273q-.137.093-.29.14-.153.046-.324.046-.438 0-.69-.268-.252-.268-.252-.732 0-.465.252-.733.252-.268.69-.268.173 0 .326.046.153.045.288.137zM8.325 245.782l-.737-1.928h.273l.611 1.623.612-1.623h.272l-.735 1.928h-.296z"/>
        </g>
        <g font-size="2.646" fill="#fff" stroke-width=".2">
            <path d="M7.422 264.21v.276q-.132-.123-.282-.184-.148-.06-.316-.06-.331 0-.507.202t-.176.584q0 .381.176.584.176.202.507.202.168 0 .316-.06.15-.062.282-.184v.272q-.137.093-.29.14-.153.046-.324.046-.438 0-.69-.267-.252-.269-.252-.733 0-.465.252-.732.252-.269.69-.269.173 0 .326.047.153.045.288.137zM8.325 265.99l-.737-1.928h.273l.611 1.624.612-1.624h.272l-.735 1.929h-.296z"/>
        </g>
        <g font-size="2.646" fill="#fff" stroke-width=".2">
            <path d="M7.422 284.948v.275q-.132-.122-.282-.183-.148-.06-.316-.06-.331 0-.507.202-.176.201-.176.584 0 .381.176.584.176.201.507.201.168 0 .316-.06.15-.061.282-.184v.273q-.137.093-.29.14-.153.046-.324.046-.438 0-.69-.268-.252-.268-.252-.732 0-.465.252-.733.252-.268.69-.268.173 0 .326.046.153.045.288.137zM8.325 286.728l-.737-1.928h.273l.611 1.623.612-1.623h.272l-.735 1.928h-.296z"/>
        </g>
    </g>
</svg>
