<svg xmlns="http://www.w3.org/2000/svg" xmlns:xlink="http://www.w3.org/1999/xlink" width="90" height="380" viewBox="0 0 23.813 100.542">
    <defs>
        <linearGradient id="b">
            <stop offset="0" stop-color="#fff"/>
            <stop offset="1" stop-opacity="0"/>
        </linearGradient>
        <linearGradient id="a">
            <stop offset="0" stop-color="#fdfdfd"/>
            <stop offset="1" stop-color="#fdfdfd"/>
        </linearGradient>
        <radialGradient gradientUnits="userSpaceOnUse" gradientTransform="matrix(.4218 0 0 .02673 -107.846 272.324)" r="69.827" fy="856.052" fx="285.494" cy="856.052" cx="285.494" id="d" xlink:href="#a"/>
        <linearGradient gradientUnits="userSpaceOnUse" y2="832.532" x2="279.915" y1="830.884" x1="268.967" id="h" xlink:href="#b" gradientTransform="matrix(.26458 0 0 .26458 -61.725 72.473)"/>
        <clipPath clipPathUnits="userSpaceOnUse" id="j">
            <path fill="#111bff" stroke-width=".3" stroke-miterlimit="10" d="M0 289.038h23.801v11.604H0z"/>
        </clipPath>
        <clipPath clipPathUnits="userSpaceOnUse" id="i">
            <path fill="#111bff" stroke-width=".3" stroke-miterlimit="10" d="M0 289.038h23.801v11.604H0z"/>
        </clipPath>
        <clipPath clipPathUnits="userSpaceOnUse" id="g">
            <path fill="#111bff" stroke-width=".3" stroke-miterlimit="10" d="M0 289.038h23.801v11.604H0z"/>
        </clipPath>
        <clipPath clipPathUnits="userSpaceOnUse" id="f">
            <path fill="#111bff" stroke-width=".3" stroke-miterlimit="10" d="M224.513-21.251h99.817v48.665h-99.817z"/>
        </clipPath>
        <clipPath clipPathUnits="userSpaceOnUse" id="e">
            <path fill="#111bff" stroke-width=".3" stroke-miterlimit="10" d="M0 289.038h23.801v11.604H0z"/>
        </clipPath>
        <clipPath clipPathUnits="userSpaceOnUse" id="c">
            <path fill="#111bff" stroke-width=".3" stroke-miterlimit="10" d="M0 289.038h23.801v11.604H0z"/>
        </clipPath>
    </defs>
    <g transform="translate(0 -196.458)">
        <path d="M0 196.458h23.813V297H0z" fill-rule="evenodd"/>
        <flowRoot transform="matrix(.26458 0 0 .26458 -58.46 115.922)" style="line-height:125%" xml:space="preserve" font-style="normal" font-weight="400" font-size="10" font-family="sans-serif" letter-spacing="0" word-spacing="0" fill="#000" fill-opacity="1" stroke="none" stroke-width="1" stroke-linecap="butt" stroke-linejoin="miter" stroke-opacity="1">
            <flowRegion>
                <path d="M323.249 35.538h7.829v72.478h-7.829z"/>
            </flowRegion>
            <flowPara/>
        </flowRoot>
        <path d="M29.62 295.066l-17.043-.125-14.417.125-.879-3.47c4.81-1.005 10.75-1.725 16.171-1.72 5.716.005 9.886.466 17.047 1.845z" clip-path="url(#c)" fill="url(#d)" stroke="#8b8b8b" stroke-width=".397"/>
        <path d="M-1.863 292.126c10.904-1.21 21.545-.99 31.75.122l-.034 3.297H-1.863z" clip-path="url(#e)"/>
        <g transform="matrix(.23845 0 0 .23845 -53.535 294.105)" clip-path="url(#f)">
            <path d="M291.232-10.527l6.43-3.034 5.953-.742 4.222.511 5.886 2.16 4.683 4.37z" fill-rule="evenodd"/>
            <g stroke="#fff">
                <g color="#000" fill="none" stroke-linejoin="bevel">
                    <path d="M2.117 188.81l18.113 36.226 65.551 31.913 90.564 13.8 94.877-11.213 60.376-31.913 14.663-30.188-14.663-37.951.324 67.923-33.1-64.473-25.875 96.602-58.651-80.214-40.538 91.427-40.538-75.902-46.576 61.239-17.098-92.852-49.316 62.663 6.037-89.702 44.241 27.296 63.574 32.218 80-16.819 86.466-15.957 31.051-3.666-33.279-62.05 1.366 64.853-64.689-74.392-20.7 91.427-69.001-66.198-75.902 50.026L84.751 80.38l-59.346 55.816 24.151-56.064h34.501l81.077-37.088-18.975 69.864 89.702-24.15 62.101 7.762-66.314-54.334 4.212 46.571-70.726-45.713 66.414-1.725-53.476-15.525-12.938 16.388-49.164-6.9-66.414 44.85-33.333 49.417 9.183 6.647L2.118 188.81z" stroke-width="2.892" transform="matrix(.09825 0 0 .0698 286.195 -16.043)"/>
                    <path d="M133.17 195.51l12.99-80.876-61.407-35.517 32.081-44.697 28.463-4.313 32.776-5.175 41.401 6.9 12.938 10.35 47.438 20.7 18.975 34.501 30.188 30.188 2.803 31.913" stroke-width="2.892" transform="matrix(.09825 0 0 .0698 286.195 -16.043)"/>
                    <path d="M329.01 126.71l-49.16-63.83-59.77-31.05M1.926 188.186L16.11 129.84" stroke-width="2" transform="matrix(.09825 0 0 .0698 286.195 -16.043)"/>
                </g>
            </g>
            <path d="M320.187-2.25l-1.666-4.93" fill="none" stroke="#fff" stroke-width=".2"/>
        </g>
        <path d="M.963 292.22l3.148-1.342 1.33.418 1.107-.783 2.216.292.933-.35 3.024.98-1.042.477-9.504.292z" clip-path="url(#i)" fill-rule="evenodd"/>
        <g clip-path="url(#j)" font-size="1.984" fill="#fff" stroke-width=".2" stroke-miterlimit="10">
            <path d="M2.835 295.534v.169q-.075-.04-.157-.059-.081-.019-.168-.019-.133 0-.2.04-.066.041-.066.123 0 .062.048.098.047.035.19.067l.061.013q.19.041.27.116.08.073.08.206 0 .151-.12.24-.12.087-.328.087-.088 0-.183-.017-.094-.016-.198-.05v-.184q.099.051.195.077.096.025.19.025.125 0 .193-.042.068-.044.068-.122 0-.073-.05-.112-.048-.039-.213-.074l-.062-.015q-.166-.035-.24-.106-.073-.073-.073-.2 0-.152.108-.236.109-.083.308-.083.099 0 .186.015.087.014.161.043zM4.862 295.627q-.143 0-.227.112-.083.112-.083.307 0 .194.082.307.084.111.228.111.143 0 .226-.112.083-.113.083-.306t-.083-.306q-.083-.113-.226-.113zm0-.151q.233 0 .365.151.133.151.133.419 0 .266-.133.418-.132.151-.365.151-.233 0-.366-.15-.132-.153-.132-.42t.132-.418q.133-.151.366-.151zM6.9 296.159v-.657h.178v.65q0 .154.06.232.06.076.18.076.145 0 .228-.092.084-.092.084-.25v-.616h.179v1.085H7.63v-.166q-.065.098-.15.147-.086.047-.2.047-.186 0-.283-.116-.097-.116-.097-.34zM9.618 295.194v.308h.367v.139h-.367v.589q0 .132.035.17.037.038.149.038h.183v.15h-.183q-.207 0-.285-.077-.079-.078-.079-.281v-.59h-.13v-.138h.13v-.308h.18zM12.386 295.932v.655h-.178v-.649q0-.154-.06-.23-.06-.077-.18-.077-.145 0-.228.092-.084.092-.084.251v.613h-.179v-1.507h.18v.59q.063-.097.15-.146.087-.048.2-.048.187 0 .283.116.096.115.096.34zM14.18 296.424V297H14v-1.498h.18v.165q.056-.097.14-.144.087-.047.206-.047.198 0 .321.157.124.157.124.413 0 .255-.124.412-.123.157-.32.157-.12 0-.206-.046-.085-.048-.142-.145zm.606-.378q0-.197-.081-.309-.08-.112-.222-.112-.142 0-.223.112-.08.112-.08.309 0 .196.08.309.081.111.223.111.141 0 .222-.111.08-.113.08-.31zM16.95 295.627q-.143 0-.226.112-.084.112-.084.307 0 .194.083.307.083.111.228.111.142 0 .225-.112.084-.113.084-.306t-.084-.306q-.083-.113-.225-.113zm0-.151q.233 0 .366.151.133.151.133.419 0 .266-.133.418-.133.151-.365.151-.234 0-.367-.15-.132-.153-.132-.42t.132-.418q.133-.151.367-.151zM19.007 295.08h.178v1.507h-.178v-1.507zM21.749 296v.087h-.82q.012.184.11.281.1.096.278.096.102 0 .198-.025.097-.025.192-.076v.169q-.096.04-.197.062-.1.021-.204.021-.26 0-.412-.15-.151-.152-.151-.41 0-.266.143-.422.145-.157.389-.157.219 0 .346.141.128.14.128.383zm-.179-.052q-.002-.147-.082-.234-.08-.087-.211-.087-.15 0-.24.084-.089.085-.102.238l.635-.001z"/>
        </g>
        <g font-size="4.63" fill="#fff" stroke="none" stroke-width=".529">
            <path d="M1.716 199.489v1.236h.733q.368 0 .545-.151.178-.154.178-.468 0-.317-.178-.466-.177-.151-.545-.151h-.733zm0-1.389v1.018h.676q.335 0 .498-.124.165-.127.165-.385 0-.255-.165-.382-.163-.127-.498-.127h-.676zm-.456-.375h1.166q.522 0 .805.217.283.217.283.617 0 .31-.145.493t-.425.229q.337.072.522.303.188.228.188.572 0 .452-.308.698-.307.247-.875.247H1.26v-3.376zM4.373 200.101v-1.533h.416v1.518q0 .359.14.54.14.178.42.178.337 0 .532-.214.196-.215.196-.586v-1.436h.416v2.533h-.416v-.39q-.151.231-.352.344-.2.111-.464.111-.436 0-.662-.271-.226-.271-.226-.794zM7.766 197.85v.718h.857v.324h-.857v1.374q0 .31.084.398.086.088.346.088h.427v.349h-.427q-.482 0-.665-.179-.183-.18-.183-.656v-1.374h-.305v-.323h.305v-.72h.418z"/>
        </g>
        <g font-size="1.984" fill="#fff" stroke-width="2">
            <path d="M11.345 197.89q.067-.12.16-.178.093-.057.218-.057.17 0 .262.119.092.118.092.337v.655h-.18v-.649q0-.156-.054-.232-.056-.075-.169-.075-.138 0-.219.092-.08.092-.08.25v.614h-.18v-.649q0-.157-.055-.232-.055-.075-.17-.075-.137 0-.217.093-.08.092-.08.25v.613h-.18v-1.085h.18v.169q.06-.1.146-.148.085-.047.202-.047.118 0 .2.06.084.06.124.174zM12.923 198.22q-.216 0-.3.05-.083.05-.083.169 0 .095.062.15.063.056.17.056.15 0 .238-.105.09-.105.09-.28v-.04h-.177zm.356-.073v.62H13.1v-.165q-.06.098-.152.146-.09.046-.223.046-.166 0-.265-.093-.098-.094-.098-.25 0-.184.122-.277.123-.093.366-.093h.25v-.017q0-.123-.081-.19-.08-.068-.227-.068-.093 0-.181.022-.088.023-.17.067v-.164q.098-.038.19-.057.092-.019.18-.019.235 0 .351.122.117.122.117.37zM14.553 198.111v.655h-.178v-.649q0-.154-.06-.23-.06-.077-.18-.077-.145 0-.228.092-.084.092-.084.251v.613h-.18v-1.085h.18v.169q.064-.098.15-.147.088-.048.2-.048.188 0 .284.116.096.115.096.34zM14.892 198.338v-.657h.178v.65q0 .154.06.232.06.076.18.076.145 0 .228-.092.084-.092.084-.25v-.616h.179v1.085h-.179v-.167q-.064.1-.15.148-.086.047-.2.047-.186 0-.283-.116-.097-.116-.097-.34zM16.663 198.22q-.216 0-.3.05-.083.05-.083.169 0 .095.062.15.063.056.17.056.15 0 .238-.105.09-.105.09-.28v-.04h-.177zm.356-.073v.62h-.179v-.165q-.06.098-.152.146-.09.046-.223.046-.166 0-.265-.093-.098-.094-.098-.25 0-.184.122-.277.123-.093.366-.093h.25v-.017q0-.123-.081-.19-.08-.068-.227-.068-.093 0-.18.022-.089.023-.17.067v-.164q.097-.038.19-.057.092-.019.179-.019.235 0 .351.122.117.122.117.37zM17.39 197.259h.18v1.507h-.18v-1.507zM10.991 199.993l-.266.72h.532l-.266-.72zm-.11-.193h.221l.552 1.447h-.204l-.132-.371h-.652l-.131.37h-.207l.553-1.446zM12.173 199.8h.165l-.504 1.63h-.165l.504-1.63zM12.73 200.556v.53h.314q.158 0 .234-.065.076-.066.076-.2 0-.136-.076-.2-.076-.065-.234-.065h-.314zm0-.595v.436h.29q.143 0 .213-.053.07-.055.07-.165 0-.11-.07-.164-.07-.054-.213-.054h-.29zm-.196-.16h.5q.224 0 .345.092.122.093.122.265 0 .132-.062.21-.062.08-.183.099.145.03.224.13.08.097.08.245 0 .193-.131.3-.132.105-.375.105h-.52V199.8zM15.298 200.705q0-.197-.081-.308-.08-.112-.222-.112-.142 0-.223.112-.08.111-.08.308t.08.31q.081.11.223.11.141 0 .222-.11.08-.113.08-.31zm-.607-.379q.057-.097.142-.143.086-.048.205-.048.198 0 .32.157.125.157.125.413t-.124.413q-.123.157-.32.157-.12 0-.206-.047-.085-.047-.142-.144v.163h-.179v-1.508h.18v.587zM15.76 200.818v-.657h.178v.65q0 .155.06.232.06.077.18.077.145 0 .228-.092.085-.092.085-.251v-.616h.178v1.086h-.178v-.167q-.065.099-.152.147-.085.048-.198.048-.187 0-.284-.116-.097-.117-.097-.34zM17.73 200.193v.169q-.076-.039-.157-.058-.081-.02-.169-.02-.132 0-.2.041-.065.04-.065.122 0 .062.047.098.048.035.191.067l.061.014q.19.04.27.115.08.074.08.206 0 .152-.12.24t-.329.088q-.087 0-.182-.017-.094-.017-.198-.05v-.185q.098.051.194.078.096.025.19.025.126 0 .194-.043t.068-.122q0-.073-.05-.111-.048-.04-.214-.075l-.062-.014q-.165-.035-.239-.107-.074-.073-.074-.199 0-.153.109-.236.108-.083.308-.083.099 0 .186.014.087.015.16.044zM18.765 200.193v.169q-.076-.039-.157-.058-.082-.02-.169-.02-.133 0-.2.041-.065.04-.065.122 0 .062.047.098.048.035.191.067l.061.014q.19.04.27.115.08.074.08.206 0 .152-.12.24t-.329.088q-.087 0-.182-.017-.094-.017-.199-.05v-.185q.1.051.195.078.096.025.19.025.126 0 .194-.043t.068-.122q0-.073-.05-.111-.048-.04-.214-.075l-.062-.014q-.166-.035-.24-.107-.073-.073-.073-.199 0-.153.109-.236.108-.083.308-.083.099 0 .186.014.087.015.16.044z"/>
        </g>
        <text x="5.76" y="278.45" font-size="2.646" fill="#fff" stroke-width="2"/>
        <rect width="11.235" height="7.623" x=".529" y="280.547" rx="1.63" ry="1.315" fill="#606060"/>
        <g font-size="2.646" fill="#fff" stroke-width="2">
            <path d="M5.604 277.519l-.354.96h.71l-.356-.96zm-.147-.257h.296l.735 1.929h-.271l-.176-.495h-.87l-.175.495H4.72l.736-1.93zM10.452 277.325v.255q-.149-.071-.28-.106-.133-.035-.255-.035-.213 0-.33.083-.115.082-.115.235 0 .128.077.193t.291.105l.158.032q.292.056.43.197.14.14.14.374 0 .28-.189.425-.187.145-.55.145-.137 0-.292-.03-.154-.032-.32-.093v-.268q.16.089.312.134.153.045.3.045.223 0 .345-.088.121-.088.121-.25 0-.142-.088-.222-.086-.08-.285-.12l-.159-.032q-.292-.058-.422-.182-.131-.124-.131-.345 0-.255.18-.403.18-.147.497-.147.136 0 .276.024.141.025.289.074zM10.95 277.262h.262v1.172q0 .31.113.447.112.135.364.135.25 0 .363-.135.113-.137.113-.447v-1.172h.262v1.204q0 .377-.187.57-.186.192-.55.192-.366 0-.554-.192-.186-.193-.186-.57v-1.204zM12.918 277.262h.389l.492 1.312.495-1.312h.389v1.929h-.255v-1.694l-.497 1.323h-.263l-.497-1.323v1.694h-.253v-1.93zM17.985 278.27v.706h.418q.21 0 .312-.086.102-.088.102-.268 0-.18-.102-.266-.101-.087-.312-.087h-.418zm0-.794v.582h.386q.191 0 .284-.071.095-.073.095-.22 0-.146-.095-.218-.093-.073-.284-.073h-.386zm-.261-.214h.666q.299 0 .46.124.162.124.162.353 0 .177-.083.281-.083.105-.243.13.193.042.299.174.107.13.107.327 0 .258-.176.399-.176.14-.5.14h-.692v-1.928z"/>
        </g>
        <g font-size="2.646" fill="#fff" stroke-width="2">
            <path d="M2.208 204.462h.26v1.928h-.26v-1.928zM2.988 204.462h.352l.855 1.613v-1.613h.253v1.928h-.351l-.856-1.613v1.613h-.253v-1.928z"/>
        </g>
        <path d="M9.141 204.719l-.354.96h.71l-.356-.96zm-.147-.257h.296l.735 1.928h-.271l-.176-.494h-.87l-.175.494h-.275l.736-1.928zM19.98 205.47v.706h.419q.21 0 .311-.087.102-.088.102-.267 0-.181-.102-.266-.1-.087-.311-.087h-.419zm0-.794v.581h.387q.19 0 .284-.07.094-.073.094-.22 0-.146-.094-.219-.093-.072-.284-.072h-.387zm-.26-.214h.666q.298 0 .46.124.161.124.161.352 0 .177-.082.282-.083.105-.243.13.192.042.298.173.108.13.108.327 0 .259-.176.4-.176.14-.5.14h-.693v-1.928z" font-size="2.646" fill="#fff" stroke-width="2"/>
        <rect ry="1.315" rx="1.63" y="280.547" x="12.049" height="7.623" width="11.235" fill="#606060"/>
    </g>
</svg>
