<svg xmlns="http://www.w3.org/2000/svg" xmlns:xlink="http://www.w3.org/1999/xlink" width="90" height="380" viewBox="0 0 23.813 100.542">
    <defs>
        <linearGradient id="b">
            <stop offset="0" stop-color="#fff"/>
            <stop offset="1" stop-opacity="0"/>
        </linearGradient>
        <linearGradient id="a">
            <stop offset="0" stop-color="#fdfdfd"/>
            <stop offset="1" stop-color="#fdfdfd"/>
        </linearGradient>
        <radialGradient gradientUnits="userSpaceOnUse" gradientTransform="matrix(.4218 0 0 .02673 -105.982 272.192)" r="69.827" fy="856.052" fx="285.494" cy="856.052" cx="285.494" id="d" xlink:href="#a"/>
        <linearGradient gradientUnits="userSpaceOnUse" y2="832.532" x2="279.915" y1="830.884" x1="268.967" id="h" xlink:href="#b" gradientTransform="matrix(.26458 0 0 .26458 -59.861 72.341)"/>
        <clipPath clipPathUnits="userSpaceOnUse" id="j">
            <path fill="#fff" stroke="gray" stroke-width="1.664" d="M176.059 41.761h115.198v45.223H176.059z"/>
        </clipPath>
        <clipPath clipPathUnits="userSpaceOnUse" id="i">
            <path fill="#fff" stroke="gray" stroke-width=".388" d="M4.03 289.485h23.689v11.965H4.03z"/>
        </clipPath>
        <clipPath clipPathUnits="userSpaceOnUse" id="g">
            <path fill="#fff" stroke="gray" stroke-width=".388" d="M4.03 289.485h23.689v11.965H4.03z"/>
        </clipPath>
        <clipPath clipPathUnits="userSpaceOnUse" id="f">
            <path fill="#fff" stroke="gray" stroke-width="1.627" d="M233.601-18.821h99.346v50.18h-99.346z"/>
        </clipPath>
        <clipPath clipPathUnits="userSpaceOnUse" id="e">
            <path fill="#fff" stroke="gray" stroke-width=".388" d="M4.03 289.485h23.689v11.965H4.03z"/>
        </clipPath>
        <clipPath clipPathUnits="userSpaceOnUse" id="c">
            <path fill="#fff" stroke="gray" stroke-width=".388" d="M4.03 289.485h23.689v11.965H4.03z"/>
        </clipPath>
    </defs>
    <g transform="translate(0 -196.458)">
        <path d="M0 196.458h23.813V297H0z" fill-rule="evenodd"/>
        <path d="M23.9 203.796c-5.346 7.623-14.361 14.106-23.9 15.803l.087 36.849c12.742-1.57 20.068 3.013 23.813 9.193z" fill="#722072"/>
        <rect width="6.749" height="14.568" x="16.255" y="274.775" rx=".806" ry=".874" fill="#404040"/>
        <flowRoot transform="matrix(.26458 0 0 .26458 -58.46 115.922)" style="line-height:125%" xml:space="preserve" font-style="normal" font-weight="400" font-size="10" font-family="sans-serif" letter-spacing="0" word-spacing="0" fill="#000" fill-opacity="1" stroke="none" stroke-width="1" stroke-linecap="butt" stroke-linejoin="miter" stroke-opacity="1">
            <flowRegion>
                <path d="M323.249 35.538h7.829v72.478h-7.829z"/>
            </flowRegion>
            <flowPara/>
        </flowRoot>
        <path clip-path="url(#c)" d="M31.483 294.933l-17.042-.125-14.418.125-.878-3.47c4.81-1.004 10.75-1.724 16.17-1.72 5.716.006 9.887.467 17.047 1.845z" fill="url(#d)" stroke="#8b8b8b" stroke-width=".397" transform="translate(-3.969)"/>
        <path clip-path="url(#e)" d="M0 291.993c10.904-1.21 21.546-.99 31.75.123l-.033 3.296H0z" transform="translate(-3.969)"/>
        <g clip-path="url(#f)" transform="matrix(.23845 0 0 .23845 -55.64 293.973)">
            <path d="M291.232-10.527l6.43-3.034 5.953-.742 4.222.511 5.886 2.16 4.683 4.37z" fill-rule="evenodd"/>
            <g stroke="#fff">
                <g color="#000" fill="none" stroke-linejoin="bevel">
                    <path d="M2.117 188.81l18.113 36.226 65.551 31.913 90.564 13.8 94.877-11.213 60.376-31.913 14.663-30.188-14.663-37.951.324 67.923-33.1-64.473-25.875 96.602-58.651-80.214-40.538 91.427-40.538-75.902-46.576 61.239-17.098-92.852-49.316 62.663 6.037-89.702 44.241 27.296 63.574 32.218 80-16.819 86.466-15.957 31.051-3.666-33.279-62.05 1.366 64.853-64.689-74.392-20.7 91.427-69.001-66.198-75.902 50.026L84.751 80.38l-59.346 55.816 24.151-56.064h34.501l81.077-37.088-18.975 69.864 89.702-24.15 62.101 7.762-66.314-54.334 4.212 46.571-70.726-45.713 66.414-1.725-53.476-15.525-12.938 16.388-49.164-6.9-66.414 44.85-33.333 49.417 9.183 6.647L2.118 188.81z" stroke-width="2.892" transform="matrix(.09825 0 0 .0698 286.195 -16.043)"/>
                    <path d="M133.17 195.51l12.99-80.876-61.407-35.517 32.081-44.697 28.463-4.313 32.776-5.175 41.401 6.9 12.938 10.35 47.438 20.7 18.975 34.501 30.188 30.188 2.803 31.913" stroke-width="2.892" transform="matrix(.09825 0 0 .0698 286.195 -16.043)"/>
                    <path d="M329.01 126.71l-49.16-63.83-59.77-31.05M1.926 188.186L16.11 129.84" stroke-width="2" transform="matrix(.09825 0 0 .0698 286.195 -16.043)"/>
                </g>
            </g>
            <path d="M320.187-2.25l-1.666-4.93" fill="none" stroke="#fff" stroke-width=".2"/>
        </g>
        <path clip-path="url(#i)" d="M2.826 292.087l3.149-1.34 1.329.417 1.108-.783 2.215.291.933-.35 3.024.98-1.042.478-9.503.292z" fill-rule="evenodd" transform="translate(-3.969)"/>
        <g clip-path="url(#j)" transform="matrix(.20564 0 0 .26458 -36.142 278.436)" style="line-height:125%" font-weight="400" font-size="7.5" font-family="Geneva" letter-spacing="0" word-spacing="0" fill="#fff">
            <path d="M186.153 66.995h.681v.015q0 .263.201.44.202.171.682.171.42 0 .68-.205.264-.205.264-.483 0-.377-.512-.535l-.348-.106-.23-.073-.473-.147q-.81-.296-.81-.985 0-.483.392-.85.392-.366 1.165-.366.761 0 1.084.315.322.311.322.692v.015h-.685v-.015q0-.205-.209-.322-.205-.117-.549-.117-.41 0-.63.172-.216.168-.216.417 0 .19.14.312.142.117.475.212l.33.092.238.07q.498.142.619.2.124.06.249.15.172.133.253.32.084.186.084.435 0 .579-.418.974-.413.396-1.212.396-.505 0-.838-.15-.334-.15-.531-.414-.198-.267-.198-.615v-.015zM199.465 68.189q-.802 0-1.37-.542-.564-.546-.564-1.619 0-1.07.564-1.611.568-.546 1.37-.546.798 0 1.362.546.568.542.568 1.611 0 1.073-.568 1.619-.564.542-1.362.542zm0-.568q.549 0 .882-.436.337-.439.337-1.157 0-.714-.337-1.15-.333-.44-.882-.44-.553 0-.89.44-.334.436-.334 1.15 0 .718.334 1.157.337.436.89.436zM212.4 63.985h.68v4.09h-.68v-.714q-.213.33-.418.495-.205.164-.421.249-.217.084-.473.084-.567 0-.963-.319-.396-.322-.396-1.292v-2.593h.682v2.307q0 .897.238 1.084.238.187.59.187.303 0 .57-.176.272-.18.429-.498.161-.322.161-.894v-2.01zM224.18 67.497v.571q-.498.12-.762.12-.38 0-.688-.153-.304-.154-.465-.447-.158-.293-.158-.934v-2.102h-.71v-.567h.71v-.967h.682v.967h1.193v.567h-1.193v1.908q0 .542.084.755.084.208.263.307.184.1.436.1.202 0 .608-.125zM233.2 68.075h-.681v-5.91h.68v2.527q.217-.334.418-.495.206-.161.425-.242.224-.084.495-.084.384 0 .688.158.308.157.476.465.169.304.169.978v2.603h-.682v-2.31q0-.55-.073-.777-.073-.23-.278-.359-.205-.132-.469-.132-.3 0-.571.176-.271.176-.436.49-.161.316-.161.902v2.01zM245.04 69.665h-.682v-5.68h.682v.71q.212-.362.402-.513.194-.15.436-.23.242-.08.498-.08.469 0 .857.256.388.252.6.758.217.505.217 1.135 0 .934-.45 1.553-.447.615-1.257.615-.26 0-.494-.077-.23-.073-.41-.22-.18-.15-.4-.53v2.303zm0-3.633q0 .696.3 1.142.3.447.846.447.498 0 .827-.395.33-.396.33-1.183 0-.92-.348-1.275-.348-.358-.795-.358-.322 0-.604.197-.278.194-.417.583-.14.384-.14.842zM258.176 68.189q-.802 0-1.37-.542-.564-.546-.564-1.619 0-1.07.564-1.611.568-.546 1.37-.546.798 0 1.362.546.567.542.567 1.611 0 1.073-.567 1.619-.564.542-1.362.542zm0-.568q.549 0 .882-.436.337-.439.337-1.157 0-.714-.337-1.15-.333-.44-.882-.44-.553 0-.89.44-.334.436-.334 1.15 0 .718.334 1.157.337.436.89.436zM269.177 68.075h-.682v-5.91h.682v5.91zM280.456 67.024h.681v.037q0 .27-.216.553-.216.282-.571.428-.356.147-.817.147-.934 0-1.443-.604-.505-.605-.505-1.528 0-.944.534-1.563.539-.623 1.385-.623.465 0 .842.202.377.201.597.63.22.424.22 1.186v.227h-2.904q0 .656.351 1.08.355.425.982.425.45 0 .655-.172.209-.176.209-.388v-.037zm-2.154-1.42h2.209v-.081q0-.286-.14-.553-.135-.271-.377-.4-.241-.131-.564-.131-.38 0-.703.307-.322.304-.425.857z" style="-inkscape-font-specification:Geneva"/>
        </g>
        <g font-size="1.984" fill="#fff">
            <path d="M4.441 282.879v-.389h-.32v-.16h.514v.62q-.114.08-.25.122-.137.041-.292.041-.339 0-.53-.198-.192-.198-.192-.552 0-.355.191-.552.192-.199.531-.199.142 0 .269.035.127.035.235.103v.208q-.109-.092-.23-.139-.123-.046-.257-.046-.266 0-.4.148-.132.148-.132.442 0 .293.132.44.134.15.4.15.103 0 .185-.018.081-.019.146-.056zM5.477 281.831l-.266.72h.532l-.266-.72zm-.11-.193h.221l.551 1.447h-.203l-.132-.371h-.652l-.132.37h-.206l.552-1.446zM6.35 281.638h.195v1.447H6.35v-1.447zM6.935 281.638h.264l.641 1.21v-1.21h.19v1.447h-.264l-.641-1.21v1.21h-.19v-1.447z"/>
        </g>
        <g font-size="1.984" fill="#fff" stroke-width="937.5">
            <path d="M16.678 239.765v.53h.313q.158 0 .234-.065.077-.066.077-.2 0-.136-.077-.2-.076-.065-.234-.065h-.313zm0-.595v.436h.29q.143 0 .212-.054.071-.054.071-.164 0-.11-.07-.164-.07-.054-.214-.054h-.29zm-.196-.161h.5q.224 0 .345.093.12.093.12.264 0 .133-.061.212-.062.078-.182.098.144.03.224.13.08.097.08.244 0 .194-.132.3-.132.106-.375.106h-.52v-1.447zM17.842 239.009h.196v1.282h.704v.164h-.9v-1.446zM18.947 239.009h.914v.165h-.718v.428h.688v.165h-.688v.524h.736v.164h-.932v-1.446zM20.199 239.009h.263l.642 1.21v-1.21h.19v1.446h-.264l-.641-1.21v1.21h-.19v-1.446zM21.879 239.17v1.125h.236q.3 0 .438-.136.14-.136.14-.428 0-.29-.14-.426-.138-.135-.438-.135h-.236zm-.196-.161h.402q.42 0 .617.175t.197.547q0 .374-.198.55-.197.174-.616.174h-.402v-1.446z"/>
        </g>
        <path d="M7.157 276.678h.195v1.447h-.195v-1.447zM7.742 276.678h.264l.64 1.21v-1.21h.19v1.447h-.263l-.641-1.21v1.21h-.19v-1.447zM13.573 276.678h.196v1.282h.704v.165h-.9v-1.447zM7.413 286.946h.196v1.447h-.196v-1.447zM7.998 286.946h.264l.641 1.21v-1.21h.19v1.447H8.83l-.642-1.21v1.21h-.19v-1.447zM14.145 287.715q.063.021.123.09.06.07.12.193l.198.395h-.21l-.185-.371q-.072-.145-.14-.193-.066-.047-.183-.047h-.213v.61h-.196v-1.446h.442q.248 0 .37.104.123.104.123.313 0 .137-.064.227-.063.09-.185.125zm-.49-.608v.514h.246q.142 0 .213-.065.073-.066.073-.193t-.073-.19q-.071-.066-.213-.066h-.246z" fill="#fff"/>
        <g font-size="1.984" fill="#fff">
            <path d="M17.88 281.936q-.213 0-.339.159-.125.159-.125.433 0 .273.125.432.126.159.34.159.212 0 .337-.159.124-.159.124-.432 0-.274-.124-.433-.125-.16-.338-.16zm0-.159q.305 0 .487.204t.182.547q0 .342-.182.546-.182.204-.487.204t-.488-.204q-.182-.203-.182-.546t.182-.547q.183-.204.488-.204zM18.833 281.803h.196v.879q0 .233.085.335.084.102.273.102.188 0 .272-.102.085-.102.085-.335v-.879h.196v.903q0 .283-.14.428-.14.144-.413.144-.274 0-.415-.144-.14-.145-.14-.428v-.903zM20.108 281.803h1.224v.165h-.514v1.282h-.197v-1.282h-.513v-.165z"/>
        </g>
        <g font-size="1.984" fill="#fff">
            <path d="M2.006 258.354v.19q-.111-.053-.21-.079-.099-.026-.19-.026-.16 0-.248.062-.086.062-.086.176 0 .096.057.146.058.048.219.078l.118.024q.22.042.323.148.105.104.105.28 0 .21-.142.32-.14.108-.413.108-.102 0-.219-.023-.115-.024-.239-.07v-.2q.12.066.234.1.114.034.224.034.168 0 .259-.066t.091-.188q0-.106-.066-.166-.065-.06-.214-.09l-.12-.024q-.218-.043-.316-.136-.098-.093-.098-.26 0-.191.135-.301.136-.11.373-.11.102 0 .207.018.106.018.216.055zM2.598 258.467v.544h.246q.137 0 .212-.071.074-.07.074-.202 0-.13-.074-.2-.075-.07-.212-.07h-.246zm-.195-.16h.441q.244 0 .368.11.125.11.125.321 0 .215-.125.324-.124.11-.368.11h-.246v.58h-.195v-1.446zM4.286 259.075q.063.021.122.09.06.07.12.193l.2.395h-.211l-.185-.371q-.072-.146-.14-.193-.067-.048-.183-.048h-.213v.612H3.6v-1.447h.442q.248 0 .37.104t.122.313q0 .137-.064.227-.063.09-.184.125zm-.49-.608v.514h.246q.142 0 .213-.065.073-.066.073-.193t-.073-.191q-.071-.065-.213-.065h-.246zM4.98 258.306h.915v.165h-.72v.428h.69v.165h-.69v.524h.737v.165H4.98v-1.447zM6.715 258.5l-.265.719h.532l-.267-.72zm-.11-.194h.222l.551 1.447h-.203l-.132-.371H6.39l-.132.37h-.206l.552-1.446zM7.784 258.467v1.125h.237q.299 0 .437-.136.14-.135.14-.428 0-.29-.14-.425-.138-.136-.437-.136h-.237zm-.196-.16h.402q.421 0 .618.175.196.174.196.546 0 .374-.197.55-.198.175-.617.175h-.402v-1.447z"/>
        </g>
        <g font-size="1.984" fill="#fff">
            <path d="M15.94 259.048q.062.022.121.092.06.07.12.191l.2.396h-.211l-.185-.371q-.072-.146-.14-.193-.067-.048-.183-.048h-.213v.612h-.196v-1.447h.442q.248 0 .37.104.122.103.122.313 0 .136-.064.226-.063.09-.184.125zm-.491-.607v.513h.246q.142 0 .213-.064.073-.066.073-.193t-.073-.191q-.071-.065-.213-.065h-.246zM16.633 258.28h.915v.165h-.72v.428h.69v.165h-.69v.524h.737v.165h-.932v-1.447zM18.258 259.727l-.552-1.447h.204l.458 1.218.46-1.218h.203l-.551 1.447h-.222zM19.241 258.28h.915v.165h-.719v.428h.689v.165h-.689v.524h.736v.165h-.932v-1.447zM21.18 259.048q.062.022.121.092.06.07.12.191l.2.396h-.211l-.185-.371q-.072-.146-.14-.193-.067-.048-.183-.048h-.213v.612h-.196v-1.447h.442q.248 0 .37.104.122.103.122.313 0 .136-.064.226-.063.09-.184.125zm-.491-.607v.513h.246q.142 0 .213-.064.073-.066.073-.193t-.073-.191q-.071-.065-.213-.065h-.246zM22.069 259.036v.53h.314q.158 0 .233-.065.077-.066.077-.2 0-.136-.077-.2-.075-.065-.233-.065h-.314zm0-.595v.436h.29q.143 0 .213-.053.07-.055.07-.165 0-.11-.07-.164-.07-.054-.214-.054h-.29zm-.196-.16h.5q.224 0 .345.092.121.093.121.265 0 .132-.062.21-.062.08-.182.099.144.03.224.13.08.097.08.245 0 .194-.132.3-.131.105-.375.105h-.519v-1.447z"/>
        </g>
        <g style="line-height:125%" font-weight="400" font-size="1.984" font-family="sans-serif" letter-spacing="0" word-spacing="0" fill="#fff">
            <path d="M4.993 210.895v.191q-.112-.053-.21-.08-.1-.026-.191-.026-.16 0-.247.062t-.087.177q0 .096.057.145.059.048.22.079l.118.024q.219.041.322.147.105.105.105.281 0 .21-.141.319-.141.108-.413.108-.103 0-.22-.023-.115-.023-.239-.069v-.201q.12.067.234.1.114.034.225.034.167 0 .258-.066.092-.065.092-.188 0-.106-.066-.166-.065-.06-.214-.09l-.12-.024q-.219-.043-.317-.136-.097-.093-.097-.259 0-.192.134-.302.136-.11.373-.11.102 0 .208.018.105.018.216.055zM5.188 210.848h1.224v.164H5.9v1.282h-.197v-1.282h-.514v-.164zM6.584 210.848h.196v.878q0 .233.085.336.084.101.273.101.188 0 .272-.101.085-.103.085-.336v-.878h.196v.903q0 .283-.14.427-.14.144-.413.144-.274 0-.415-.144-.14-.144-.14-.427v-.903zM7.859 210.848h1.224v.164h-.514v1.282h-.197v-1.282H7.86v-.164z"/>
            <path d="M9.043 210.848h1.224v.164h-.514v1.282h-.197v-1.282h-.513v-.164zM10.462 210.848h.915v.164h-.719v.429h.689v.164h-.689v.525h.737v.164h-.933v-1.446zM12.4 211.616q.063.021.122.091.06.07.12.192l.2.395h-.211l-.185-.37q-.072-.146-.14-.194-.067-.047-.183-.047h-.213v.611h-.196v-1.446h.442q.248 0 .37.103.122.104.122.313 0 .137-.064.227-.063.09-.184.125zm-.49-.608v.514h.246q.142 0 .213-.065.073-.066.073-.193t-.073-.19q-.071-.066-.213-.066h-.246z"/>
        </g>
        <g style="line-height:125%" font-weight="400" font-size="1.984" font-family="sans-serif" letter-spacing="0" word-spacing="0" fill="#fff">
            <path d="M17.197 219.82v.544h.246q.137 0 .212-.07.074-.071.074-.202 0-.13-.074-.2-.075-.071-.212-.071h-.246zm-.195-.16h.441q.244 0 .368.11.125.11.125.322 0 .214-.125.324-.124.11-.368.11h-.246v.58h-.195v-1.446zM18.2 219.66h.195v1.447h-.196v-1.447zM18.584 219.66h1.224v.165h-.514v1.282h-.197v-1.282h-.513v-.165zM20.968 219.771v.207q-.098-.092-.21-.138-.112-.045-.238-.045-.248 0-.38.152-.132.15-.132.438 0 .286.132.438.132.15.38.15.126 0 .237-.045.113-.045.211-.137v.204q-.102.07-.218.105-.114.035-.242.035-.328 0-.517-.2-.19-.202-.19-.55 0-.35.19-.55.189-.201.517-.201.13 0 .244.035.116.034.216.102zM21.273 219.66h.195v.593h.712v-.593h.195v1.447h-.195v-.69h-.712v.69h-.195v-1.447z"/>
        </g>
        <g style="line-height:125%" font-weight="400" font-size="1.984" font-family="sans-serif" letter-spacing="0" word-spacing="0" fill="#fff">
            <path d="M8.576 253.672h.196v1.282h.704v.164h-.9v-1.446zM9.876 253.833v.543h.246q.137 0 .212-.07.074-.071.074-.202 0-.13-.074-.2-.075-.071-.212-.071h-.246zm-.195-.161h.441q.244 0 .368.11.125.11.125.322 0 .214-.125.323-.124.11-.368.11h-.246v.581h-.195v-1.446zM11.82 253.672h.164l-.504 1.63h-.165l.504-1.63zM12.812 253.672h.196v.593h.711v-.593h.196v1.446h-.196v-.689h-.711v.69h-.196v-1.447zM14.5 253.833v.543h.246q.137 0 .211-.07.075-.071.075-.202 0-.13-.075-.2-.074-.071-.21-.071H14.5zm-.196-.161h.442q.243 0 .367.11.125.11.125.322 0 .214-.125.323-.124.11-.367.11H14.5v.581h-.196v-1.446z"/>
        </g>
        <g style="line-height:125%" font-weight="400" font-size="1.984" font-family="sans-serif" letter-spacing="0" word-spacing="0" fill="#fff">
            <path d="M.817 239.203v1.125h.237q.299 0 .438-.136t.139-.428q0-.29-.14-.426-.138-.135-.437-.135H.817zm-.196-.161h.403q.42 0 .617.175.196.175.196.547 0 .374-.197.55-.198.175-.616.175H.62v-1.447zM2.148 239.042h.196v1.447h-.196v-1.447zM2.734 239.042h.831v.165h-.636v.426h.574v.165h-.574v.69h-.195v-1.446zM3.873 239.042h.831v.165H4.07v.426h.573v.165H4.07v.69h-.196v-1.446zM4.99 239.042h.197v.879q0 .232.084.335.085.102.274.102.188 0 .272-.102.084-.103.084-.335v-.879h.197v.903q0 .283-.14.427-.14.145-.413.145-.275 0-.415-.145-.14-.144-.14-.427v-.903zM7.333 239.09v.19q-.111-.053-.21-.08-.099-.025-.19-.025-.16 0-.248.062-.086.062-.086.176 0 .096.057.145.058.049.219.079l.118.024q.22.042.323.147.104.105.104.281 0 .21-.141.32-.14.108-.413.108-.103 0-.219-.024-.115-.023-.24-.068v-.202q.12.067.234.1.115.035.225.035.168 0 .259-.066t.091-.188q0-.107-.066-.167-.065-.06-.214-.09l-.12-.023q-.218-.044-.316-.137-.098-.093-.098-.259 0-.191.135-.302.135-.11.373-.11.102 0 .207.018.106.018.216.055zM7.73 239.042h.195v1.447H7.73v-1.447zM8.902 239.175q-.213 0-.34.159-.124.159-.124.433 0 .273.125.432.126.159.339.159.213 0 .337-.16.125-.158.125-.431 0-.274-.125-.433-.124-.16-.337-.16zm0-.16q.304 0 .486.205.182.204.182.547 0 .342-.182.546-.182.204-.486.204-.305 0-.488-.204-.183-.203-.183-.546t.183-.547q.183-.204.488-.204zM9.877 239.042h.263l.642 1.21v-1.21h.19v1.447h-.264l-.641-1.21v1.21h-.19v-1.447z"/>
        </g>
        <g style="line-height:125%" font-weight="400" font-size="1.984" font-family="sans-serif" letter-spacing="0" word-spacing="0" fill="#fff">
            <path d="M6.71 272.508h.832v.164h-.636v.427h.574v.165h-.574v.69H6.71v-1.446zM7.85 272.508h.914v.164h-.718v.429h.688v.164h-.688v.525h.736v.164H7.85v-1.446zM9.102 272.508h.914v.164h-.719v.429h.69v.164h-.69v.525h.737v.164h-.932v-1.446zM10.55 272.669v1.125h.236q.3 0 .438-.136.14-.136.14-.428 0-.291-.14-.426-.139-.135-.438-.135h-.237zm-.196-.161h.402q.42 0 .617.175t.197.547q0 .374-.198.549-.198.175-.616.175h-.402v-1.446zM12.076 273.264v.53h.314q.158 0 .234-.065.076-.066.076-.201 0-.136-.076-.2t-.234-.064h-.314zm0-.595v.436h.29q.143 0 .213-.054t.07-.164q0-.11-.07-.164-.07-.054-.213-.054h-.29zm-.195-.161h.5q.223 0 .344.093.122.093.122.264 0 .133-.062.211-.062.079-.183.098.145.031.224.13.08.098.08.245 0 .194-.131.3-.132.105-.375.105h-.52v-1.446zM13.724 272.7l-.265.72h.532l-.267-.72zm-.11-.192h.222l.551 1.446h-.203l-.132-.37H13.4l-.132.37h-.206l.552-1.446zM15.648 272.62v.206q-.099-.093-.211-.138-.112-.046-.238-.046-.248 0-.38.153-.131.15-.131.438 0 .285.131.438.132.15.38.15.126 0 .238-.045.112-.045.21-.137v.204q-.102.07-.217.105-.115.035-.242.035-.329 0-.518-.201-.189-.202-.189-.55 0-.348.19-.549.188-.201.517-.201.13 0 .244.035.115.033.216.102zM15.954 272.508h.196v.611l.649-.611h.252l-.718.674.77.772h-.259l-.694-.696v.696h-.196v-1.446z"/>
        </g>
        <g style="line-height:125%" font-weight="400" font-size="1.984" font-family="sans-serif" letter-spacing="0" word-spacing="0" fill="#fff">
            <path d="M7.78 234.53q-.213 0-.339.159-.125.159-.125.433 0 .273.125.432.126.159.34.159.212 0 .336-.159.125-.159.125-.432 0-.274-.125-.433-.124-.16-.337-.16zm0-.159q.304 0 .487.204.182.204.182.547 0 .342-.182.546-.183.204-.487.204-.305 0-.488-.204-.182-.203-.182-.546t.182-.547q.183-.204.488-.204zM9.095 235.844l-.552-1.447h.204l.458 1.218.46-1.218h.203l-.551 1.447h-.222zM10.08 234.397h.915v.165h-.719v.428h.69v.165h-.69v.524h.737v.165h-.933v-1.447zM12.018 235.166q.063.02.122.09.06.07.12.192l.2.396h-.211l-.185-.371q-.072-.146-.14-.193-.067-.048-.183-.048h-.213v.612h-.196v-1.447h.442q.248 0 .37.104t.122.313q0 .136-.064.227-.063.09-.184.125zm-.49-.608v.514h.246q.142 0 .213-.065.073-.066.073-.193t-.073-.191q-.071-.065-.213-.065h-.246zM12.712 234.397h.196v1.282h.704v.165h-.9v-1.447zM14.347 234.59l-.266.72h.532l-.266-.72zm-.11-.193h.221l.551 1.447h-.203l-.132-.371h-.652l-.132.37h-.206l.552-1.446zM15.415 234.558v.544h.246q.137 0 .212-.071.074-.07.074-.202 0-.13-.074-.2-.075-.07-.212-.07h-.246zm-.195-.16h.441q.244 0 .368.11.125.11.125.321 0 .214-.125.324-.124.11-.368.11h-.246v.58h-.195v-1.446z"/>
        </g>
        <g style="line-height:125%" font-weight="400" font-size="1.984" font-family="sans-serif" letter-spacing="0" word-spacing="0" fill="#fff">
            <path d="M7.476 206.34H8.7v.165h-.514v1.281H7.99v-1.281h-.514v-.165zM8.894 206.34h.195v1.446h-.195v-1.446zM9.479 206.34h.291l.37.984.37-.984h.292v1.446h-.19v-1.27l-.374.992h-.196l-.373-.992v1.27h-.19v-1.446zM11.188 206.34h.915v.165h-.72v.428h.69v.165h-.69v.524h.737v.164h-.932v-1.446z"/>
        </g>
        <g style="line-height:125%" font-weight="400" font-size="4.63" font-family="sans-serif" letter-spacing="0" word-spacing="0" fill="#fff">
            <path d="M3.758 197.55v.482q-.23-.214-.493-.32-.26-.107-.554-.107-.578 0-.886.355-.307.353-.307 1.022 0 .667.307 1.022.308.353.886.353.294 0 .554-.107.262-.106.493-.32v.476q-.24.163-.509.245-.266.08-.565.08-.766 0-1.207-.467-.441-.47-.441-1.282 0-.814.44-1.282.442-.47 1.208-.47.303 0 .57.081.269.08.504.24zM5.6 199.393q-.503 0-.698.116-.194.115-.194.393 0 .222.144.353.147.129.398.129.346 0 .554-.244.21-.247.21-.654v-.093h-.413zm.83-.171v1.444h-.416v-.384q-.142.23-.355.341-.212.109-.52.109-.388 0-.619-.217-.228-.22-.228-.586 0-.427.285-.644.287-.217.854-.217h.583v-.04q0-.288-.19-.444-.187-.158-.529-.158-.217 0-.422.052-.206.052-.396.156v-.385q.228-.088.443-.13.215-.046.418-.046.55 0 .821.285.271.285.271.864zM9.27 198.62q.156-.28.373-.413.217-.134.511-.134.396 0 .61.278.215.276.215.787v1.528h-.418v-1.514q0-.364-.129-.54-.129-.177-.393-.177-.324 0-.511.215-.188.214-.188.585v1.431h-.418v-1.514q0-.367-.129-.54-.129-.177-.398-.177-.319 0-.506.217-.188.215-.188.583v1.431h-.418v-2.532H7.7v.394q.142-.233.341-.344.2-.11.473-.11.276 0 .468.14.194.14.287.406zM11.802 198.134h.416v2.532h-.416v-2.532zm0-.986h.416v.527h-.416v-.527zM13.086 197.148h.416v3.518h-.416v-3.518zM14.37 197.148h.417v3.518h-.416v-3.518zM16.805 199.393q-.504 0-.698.116-.195.115-.195.393 0 .222.145.353.147.129.398.129.346 0 .554-.244.21-.247.21-.654v-.093h-.414zm.83-.171v1.444h-.416v-.384q-.142.23-.355.341-.212.109-.52.109-.389 0-.62-.217-.228-.22-.228-.586 0-.427.285-.644.287-.217.855-.217h.583v-.04q0-.288-.19-.444-.187-.158-.529-.158-.217 0-.423.052-.205.052-.395.156v-.385q.228-.088.443-.13.215-.046.418-.046.55 0 .82.285.272.285.272.864z"/>
        </g>
        <g style="line-height:125%" font-weight="400" font-size="1.984" font-family="sans-serif" letter-spacing="0" word-spacing="0" fill="#fff">
            <path d="M1.346 201.442v.308h.367v.138h-.367v.59q0 .132.036.17.037.038.148.038h.183v.149H1.53q-.206 0-.285-.077-.078-.077-.078-.28v-.59h-.131v-.138h.13v-.308h.18zM1.949 201.75h.178v1.085H1.95v-1.085zm0-.423h.178v.226H1.95v-.226zM3.344 201.958q.067-.12.16-.177.093-.057.219-.057.17 0 .262.119.092.118.092.337v.655h-.18v-.65q0-.155-.055-.23-.055-.076-.169-.076-.138 0-.218.092-.08.092-.08.25v.614h-.18v-.65q0-.156-.055-.23-.056-.076-.17-.076-.138 0-.218.093-.08.092-.08.25v.613h-.18v-1.085h.18v.168q.06-.1.146-.147.085-.047.202-.047.119 0 .201.06.083.06.123.174zM5.357 202.248v.087h-.82q.012.184.111.281.1.096.277.096.103 0 .199-.025.097-.026.192-.076v.169q-.096.04-.197.062-.1.021-.204.021-.26 0-.412-.151-.151-.151-.151-.41 0-.266.143-.422.145-.156.389-.156.219 0 .346.141.127.14.127.383zm-.178-.052q-.002-.147-.082-.234-.08-.087-.211-.087-.15 0-.24.084-.089.084-.102.237h.635zM6.97 201.782v.168q-.076-.038-.157-.058-.082-.02-.169-.02-.133 0-.2.042-.065.04-.065.122 0 .062.047.098.048.034.191.066l.061.014q.19.04.27.115.08.074.08.207 0 .15-.12.239-.12.088-.329.088-.087 0-.182-.017-.094-.017-.198-.05v-.185q.098.052.194.078.096.025.19.025.126 0 .194-.043t.068-.122q0-.072-.05-.111-.048-.039-.214-.075l-.062-.014q-.165-.035-.24-.107-.073-.072-.073-.198 0-.153.109-.237.108-.083.308-.083.099 0 .186.014.087.015.16.044zM7.49 201.442v.308h.366v.138H7.49v.59q0 .132.036.17.037.038.148.038h.183v.149h-.183q-.206 0-.285-.077-.078-.077-.078-.28v-.59h-.13v-.138h.13v-.308h.18zM8.72 201.916q-.03-.017-.065-.025-.035-.009-.078-.009-.15 0-.232.099-.08.098-.08.282v.572h-.18v-1.086h.18v.17q.055-.1.146-.147.09-.049.219-.049.018 0 .04.003.023.002.05.007v.183zM9.797 202.248v.087h-.82q.012.184.11.281.1.096.278.096.103 0 .199-.025.097-.026.191-.076v.169q-.095.04-.196.062-.101.021-.205.021-.26 0-.411-.151-.152-.151-.152-.41 0-.266.144-.422.144-.156.388-.156.22 0 .346.141.128.14.128.383zm-.178-.052q-.002-.147-.083-.234-.079-.087-.21-.087-.15 0-.24.084t-.103.237h.636zM10.264 201.442v.308h.367v.138h-.367v.59q0 .132.036.17.037.038.148.038h.183v.149h-.183q-.206 0-.285-.077-.078-.077-.078-.28v-.59h-.13v-.138h.13v-.308h.18zM11.648 201.791v.167q-.076-.042-.152-.062-.076-.021-.153-.021-.174 0-.27.11-.096.11-.096.308 0 .199.096.31.096.109.27.109.077 0 .153-.02.076-.022.152-.063v.164q-.075.035-.155.053-.08.017-.17.017-.245 0-.39-.154-.144-.154-.144-.416 0-.265.146-.417.146-.152.4-.152.082 0 .16.017.08.017.153.05zM12.858 202.18v.655h-.178v-.65q0-.153-.06-.23-.06-.076-.18-.076-.145 0-.228.092-.084.092-.084.25v.614h-.179v-1.508h.18v.591q.063-.097.15-.146.087-.048.2-.048.187 0 .283.116.096.115.096.34zM14.144 202.248v.087h-.82q.012.184.11.281.1.096.278.096.102 0 .198-.025.097-.026.192-.076v.169q-.096.04-.197.062-.1.021-.204.021-.26 0-.412-.151-.151-.151-.151-.41 0-.266.143-.422.145-.156.389-.156.219 0 .346.141.128.14.128.383zm-.179-.052q-.001-.147-.082-.234-.08-.087-.211-.087-.15 0-.24.084-.089.084-.102.237h.635zM15.061 201.916q-.03-.017-.066-.025-.034-.009-.077-.009-.151 0-.233.099-.08.098-.08.282v.572h-.18v-1.086h.18v.17q.056-.1.146-.147.09-.049.22-.049.018 0 .04.003.022.002.05.007v.183z"/>
        </g>
        <g font-size="1.984" fill="#fff" stroke-width="4" stroke-miterlimit="10">
            <path d="M2.11 219.707v.191q-.111-.053-.21-.08-.099-.025-.191-.025-.16 0-.247.062-.086.062-.086.176 0 .096.057.145.058.049.219.079l.118.024q.22.042.323.147.104.105.104.281 0 .21-.141.32-.14.108-.413.108-.103 0-.219-.024-.115-.023-.24-.068v-.202q.12.067.234.1.115.035.225.035.168 0 .259-.066.09-.066.09-.188 0-.107-.065-.167-.065-.06-.214-.09l-.12-.023q-.218-.044-.316-.137-.098-.093-.098-.259 0-.191.135-.302.135-.11.373-.11.101 0 .207.018.106.019.216.055zM3.59 219.771v.207q-.1-.092-.211-.138-.112-.045-.238-.045-.248 0-.38.152-.131.151-.131.438 0 .286.131.438.132.15.38.15.126 0 .238-.045.112-.045.21-.137v.204q-.102.07-.217.105-.115.035-.243.035-.328 0-.517-.2-.189-.202-.189-.55 0-.349.19-.55.188-.201.516-.201.13 0 .245.035.115.034.216.103zM4.58 220.428q.063.022.122.091.06.07.12.192l.199.396h-.21l-.185-.371q-.072-.146-.14-.193-.067-.048-.183-.048H4.09v.612h-.196v-1.447h.442q.248 0 .37.104.122.103.122.313 0 .136-.064.226-.063.09-.184.125zm-.49-.607v.513h.246q.141 0 .213-.065.073-.065.073-.192t-.073-.191q-.072-.065-.213-.065H4.09zM5.251 219.66h.197v.879q0 .232.084.335.085.102.274.102.188 0 .272-.102.084-.103.084-.335v-.879h.197v.903q0 .283-.14.427-.14.145-.413.145-.275 0-.415-.145-.14-.144-.14-.427v-.903zM6.923 220.416v.53h.314q.158 0 .233-.065.077-.066.077-.2 0-.136-.077-.2-.075-.065-.233-.065h-.314zm0-.595v.436h.29q.143 0 .213-.053.07-.055.07-.165 0-.11-.07-.164-.07-.054-.213-.054h-.29zm-.196-.161h.5q.224 0 .345.093.121.093.121.265 0 .132-.062.21-.062.08-.182.099.144.03.224.13.08.097.08.245 0 .193-.132.299-.131.106-.375.106h-.519v-1.447z"/>
        </g>
    </g>
</svg>
