<?xml version="1.0" encoding="UTF-8" standalone="no"?>
<!-- Created with Inkscape (http://www.inkscape.org/) -->

<svg
   xmlns:dc="http://purl.org/dc/elements/1.1/"
   xmlns:cc="http://creativecommons.org/ns#"
   xmlns:rdf="http://www.w3.org/1999/02/22-rdf-syntax-ns#"
   xmlns:svg="http://www.w3.org/2000/svg"
   xmlns="http://www.w3.org/2000/svg"
   xmlns:xlink="http://www.w3.org/1999/xlink"
   xmlns:sodipodi="http://sodipodi.sourceforge.net/DTD/sodipodi-0.dtd"
   xmlns:inkscape="http://www.inkscape.org/namespaces/inkscape"
   width="120"
   height="380"
   viewBox="0 0 31.750001 100.54167"
   version="1.1"
   id="svg8"
   inkscape:version="0.91 r13725"
   sodipodi:docname="Cornrows.svg">
  <defs
     id="defs2">
    <inkscape:perspective
       id="perspective4197"
       inkscape:persp3d-origin="240 : 126.66667 : 1"
       inkscape:vp_z="480 : 190 : 1"
       inkscape:vp_y="0 : 1000 : 0"
       inkscape:vp_x="0 : 190 : 1"
       sodipodi:type="inkscape:persp3d" />
    <linearGradient
       id="linearGradient4189"
       inkscape:collect="always">
      <stop
         id="stop4191"
         offset="0"
         style="stop-color:#ffffff;stop-opacity:1" />
      <stop
         id="stop4193"
         offset="1"
         style="stop-color:#000000;stop-opacity:0;" />
    </linearGradient>
    <linearGradient
       id="linearGradient5349"
       inkscape:collect="always">
      <stop
         id="stop5351"
         offset="0"
         style="stop-color:#fdfdfd;stop-opacity:1;" />
      <stop
         id="stop5353"
         offset="1"
         style="stop-color:#fdfdfd;stop-opacity:1" />
    </linearGradient>
    <radialGradient
       gradientUnits="userSpaceOnUse"
       gradientTransform="matrix(0.42180436,0,0,0.0267339,-105.98218,272.19192)"
       r="69.826797"
       fy="856.052"
       fx="285.49445"
       cy="856.052"
       cx="285.49445"
       id="radialGradient5357"
       xlink:href="#linearGradient5349"
       inkscape:collect="always" />
    <linearGradient
       gradientUnits="userSpaceOnUse"
       y2="832.53247"
       x2="279.91517"
       y1="830.88361"
       x1="268.96658"
       id="linearGradient4195"
       xlink:href="#linearGradient4189"
       inkscape:collect="always"
       gradientTransform="matrix(0.26458334,0,0,0.26458334,-59.861442,72.341009)" />
  </defs>
  <sodipodi:namedview
     id="base"
     pagecolor="#ffffff"
     bordercolor="#666666"
     borderopacity="1.0"
     inkscape:pageopacity="0.0"
     inkscape:pageshadow="2"
     inkscape:zoom="4.2323951"
     inkscape:cx="74.857067"
     inkscape:cy="113.66187"
     inkscape:document-units="mm"
     inkscape:current-layer="layer1"
     showgrid="false"
     units="px"
     inkscape:snap-bbox="true"
     inkscape:snap-page="true"
     inkscape:bbox-nodes="true"
     inkscape:snap-bbox-edge-midpoints="true"
     inkscape:window-width="1118"
     inkscape:window-height="1342"
     inkscape:window-x="1160"
     inkscape:window-y="76"
     inkscape:window-maximized="0"
     inkscape:showpageshadow="false"
     borderlayer="true" />
  <metadata
     id="metadata5">
    <rdf:RDF>
      <cc:Work
         rdf:about="">
        <dc:format>image/svg+xml</dc:format>
        <dc:type
           rdf:resource="http://purl.org/dc/dcmitype/StillImage" />
        <dc:title />
      </cc:Work>
    </rdf:RDF>
  </metadata>
  <g
     inkscape:label="Layer 1"
     inkscape:groupmode="layer"
     id="layer1"
     transform="translate(0,-196.45832)"
     style="display:inline">
    <path
       style="opacity:1;fill:#000000;fill-opacity:1;fill-rule:evenodd;stroke:none;stroke-width:0.48607069;stroke-linecap:butt;stroke-linejoin:round;stroke-miterlimit:4;stroke-dasharray:none;stroke-dashoffset:0;stroke-opacity:1;paint-order:normal"
       d="m 0,196.45831 31.750001,0 0,100.54168 -31.750001,0 z"
       id="rect817"
       inkscape:connector-curvature="0" />
    <g
       style="font-style:normal;font-weight:normal;font-size:10.58333492px;line-height:125%;font-family:sans-serif;letter-spacing:0px;word-spacing:0px;fill:#ffffff;fill-opacity:1;stroke:none;stroke-width:1px;stroke-linecap:butt;stroke-linejoin:miter;stroke-opacity:1"
       id="text3767"
       transform="matrix(1.2025274,0,0,1.2025274,-5.3087896,-45.372218)">
      <path
         d="m 8.2256892,202.57588 0,0.41277 q -0.1976623,-0.1841 -0.4224548,-0.27518 -0.2228547,-0.0911 -0.4747773,-0.0911 -0.4960938,0 -0.7596437,0.30425 -0.2635498,0.3023 -0.2635498,0.87591 0,0.57167 0.2635498,0.87592 0.2635499,0.3023 0.7596437,0.3023 0.2519226,0 0.4747773,-0.0911 0.2247925,-0.0911 0.4224548,-0.27517 l 0,0.40889 q -0.2054138,0.13952 -0.4360199,0.20929 -0.2286682,0.0698 -0.4844666,0.0698 -0.6569367,0 -1.0348207,-0.40114 -0.377884,-0.40307 -0.377884,-1.09877 0,-0.69763 0.377884,-1.09877 0.377884,-0.40308 1.0348207,-0.40308 0.2596741,0 0.4883423,0.0698 0.2306061,0.0678 0.4321442,0.20541 z"
         style="font-size:3.96875048px;fill:#ffffff;fill-opacity:1"
         id="path4638"
         inkscape:connector-curvature="0" />
      <path
         d="m 9.6597103,203.32584 q -0.2868042,0 -0.4534607,0.22479 -0.1666565,0.22285 -0.1666565,0.61236 0,0.38952 0.1647186,0.61431 0.1666565,0.22285 0.4553986,0.22285 0.2848664,0 0.4515227,-0.22479 0.166657,-0.22479 0.166657,-0.61237 0,-0.38563 -0.166657,-0.61042 -0.1666563,-0.22673 -0.4515227,-0.22673 z m 0,-0.30231 q 0.4650877,0 0.7305757,0.30231 0.265488,0.3023 0.265488,0.83715 0,0.53292 -0.265488,0.83716 -0.265488,0.30231 -0.7305757,0.30231 -0.4670258,0 -0.7325135,-0.30231 -0.2635498,-0.30424 -0.2635498,-0.83716 0,-0.53485 0.2635498,-0.83715 0.2654877,-0.30231 0.7325135,-0.30231 z"
         style="font-size:3.96875048px;fill:#ffffff;fill-opacity:1"
         id="path4640"
         inkscape:connector-curvature="0" />
      <path
         d="m 12.50256,203.40916 q -0.06007,-0.0349 -0.131775,-0.0504 -0.06976,-0.0174 -0.155029,-0.0174 -0.302307,0 -0.465088,0.19766 -0.160843,0.19573 -0.160843,0.56392 l 0,1.14334 -0.358505,0 0,-2.17041 0.358505,0 0,0.33719 q 0.112396,-0.19766 0.292618,-0.29262 0.180222,-0.0969 0.437958,-0.0969 0.03682,0 0.08139,0.006 0.04457,0.004 0.09883,0.0136 l 0.0019,0.36625 z"
         style="font-size:3.96875048px;fill:#ffffff;fill-opacity:1"
         id="path4642"
         inkscape:connector-curvature="0" />
      <path
         d="m 14.61871,203.93626 0,1.31 -0.356567,0 0,-1.29837 q 0,-0.30812 -0.120148,-0.46121 -0.120148,-0.15309 -0.360443,-0.15309 -0.288742,0 -0.455399,0.18409 -0.166656,0.1841 -0.166656,0.50191 l 0,1.22667 -0.358505,0 0,-2.17041 0.358505,0 0,0.33719 q 0.127899,-0.19572 0.300369,-0.29262 0.174408,-0.0969 0.401139,-0.0969 0.374008,0 0.565857,0.23254 0.191848,0.23061 0.191848,0.68019 z"
         style="font-size:3.96875048px;fill:#ffffff;fill-opacity:1"
         id="path4644"
         inkscape:connector-curvature="0" />
      <path
         d="m 16.595334,203.40916 q -0.06007,-0.0349 -0.131775,-0.0504 -0.06976,-0.0174 -0.155029,-0.0174 -0.302307,0 -0.465088,0.19766 -0.160843,0.19573 -0.160843,0.56392 l 0,1.14334 -0.358505,0 0,-2.17041 0.358505,0 0,0.33719 q 0.112396,-0.19766 0.292618,-0.29262 0.180222,-0.0969 0.437958,-0.0969 0.03682,0 0.08139,0.006 0.04457,0.004 0.09883,0.0136 l 0.0019,0.36625 z"
         style="font-size:3.96875048px;fill:#ffffff;fill-opacity:1"
         id="path4646"
         inkscape:connector-curvature="0" />
      <path
         d="m 17.732862,203.32584 q -0.286805,0 -0.453461,0.22479 -0.166657,0.22285 -0.166657,0.61236 0,0.38952 0.164719,0.61431 0.166657,0.22285 0.455399,0.22285 0.284866,0 0.451523,-0.22479 0.166656,-0.22479 0.166656,-0.61237 0,-0.38563 -0.166656,-0.61042 -0.166657,-0.22673 -0.451523,-0.22673 z m 0,-0.30231 q 0.465088,0 0.730575,0.30231 0.265488,0.3023 0.265488,0.83715 0,0.53292 -0.265488,0.83716 -0.265487,0.30231 -0.730575,0.30231 -0.467026,0 -0.732514,-0.30231 -0.26355,-0.30424 -0.26355,-0.83716 0,-0.53485 0.26355,-0.83715 0.265488,-0.30231 0.732514,-0.30231 z"
         style="font-size:3.96875048px;fill:#ffffff;fill-opacity:1"
         id="path4648"
         inkscape:connector-curvature="0" />
      <path
         d="m 19.114561,203.07585 0.356568,0 0.445709,1.6937 0.443771,-1.6937 0.420517,0 0.44571,1.6937 0.443771,-1.6937 0.356567,0 -0.567795,2.17041 -0.420517,0 -0.467025,-1.77896 -0.468964,1.77896 -0.420517,0 -0.567795,-2.17041 z"
         style="font-size:3.96875048px;fill:#ffffff;fill-opacity:1"
         id="path4650"
         inkscape:connector-curvature="0" />
      <path
         d="m 23.953413,203.1398 0,0.33719 q -0.151153,-0.0775 -0.313934,-0.11627 -0.162781,-0.0388 -0.337189,-0.0388 -0.265488,0 -0.3992,0.0814 -0.131775,0.0814 -0.131775,0.24417 0,0.12403 0.09495,0.19573 0.09496,0.0698 0.38176,0.13371 l 0.122085,0.0271 q 0.379822,0.0814 0.538727,0.23061 0.160843,0.14727 0.160843,0.41276 0,0.30231 -0.240295,0.47865 -0.238358,0.17635 -0.656937,0.17635 -0.174408,0 -0.364319,-0.0349 -0.187973,-0.0329 -0.397262,-0.10077 l 0,-0.3682 q 0.197662,0.10271 0.389511,0.15503 0.191848,0.0504 0.379822,0.0504 0.251922,0 0.387573,-0.0853 0.13565,-0.0872 0.13565,-0.24417 0,-0.14534 -0.09883,-0.22285 -0.09689,-0.0775 -0.428268,-0.14922 l -0.124024,-0.0291 q -0.331375,-0.0698 -0.478653,-0.21316 -0.147278,-0.14534 -0.147278,-0.39727 0,-0.30618 0.217042,-0.47283 0.217041,-0.16666 0.616241,-0.16666 0.197662,0 0.37207,0.0291 0.174408,0.0291 0.321686,0.0872 z"
         style="font-size:3.96875048px;fill:#ffffff;fill-opacity:1"
         id="path4652"
         inkscape:connector-curvature="0" />
    </g>
    <g
       style="font-style:normal;font-weight:normal;font-size:2.64583373px;line-height:125%;font-family:sans-serif;letter-spacing:0px;word-spacing:0px;fill:#ffffff;fill-opacity:1;stroke:none;stroke-width:1px;stroke-linecap:butt;stroke-linejoin:miter;stroke-opacity:1"
       id="text3771"
       transform="matrix(1.2780681,0,0,1.2780681,-6.6655853,-89.645392)">
      <path
         d="m 7.4575092,229.41032 q 0.066856,-0.12015 0.1598739,-0.17732 0.093018,-0.0572 0.218979,-0.0572 0.1695633,0 0.2616119,0.11918 0.092049,0.11821 0.092049,0.33719 l 0,0.655 -0.1792527,0 0,-0.64918 q 0,-0.156 -0.055229,-0.23158 -0.055229,-0.0756 -0.1685943,-0.0756 -0.1385575,0 -0.2189789,0.0921 -0.080421,0.0921 -0.080421,0.25096 l 0,0.61333 -0.1792527,0 0,-0.64918 q 0,-0.15697 -0.055229,-0.23158 -0.055229,-0.0756 -0.1705323,-0.0756 -0.1366196,0 -0.217041,0.093 -0.080421,0.0921 -0.080421,0.24999 l 0,0.61333 -0.1792526,0 0,-1.0852 0.1792526,0 0,0.16859 q 0.061043,-0.0998 0.1463089,-0.14728 0.085266,-0.0475 0.2025071,-0.0475 0.1182098,0 0.2005691,0.0601 0.083328,0.0601 0.1230546,0.17441 z"
         style="font-size:1.98437524px;fill:#ffffff;fill-opacity:1"
         id="path4655"
         inkscape:connector-curvature="0" />
      <path
         d="m 9.0359014,229.74169 q -0.2160721,0 -0.2994004,0.0494 -0.083328,0.0494 -0.083328,0.16859 0,0.095 0.062012,0.15116 0.062981,0.0552 0.1705322,0.0552 0.1482468,0 0.2373887,-0.10464 0.090111,-0.10561 0.090111,-0.28002 l 0,-0.0397 -0.1773148,0 z m 0.3555985,-0.0736 0,0.61915 -0.1782837,0 0,-0.16472 q -0.061043,0.0988 -0.1521225,0.14631 -0.09108,0.0465 -0.2228547,0.0465 -0.1666565,0 -0.2654877,-0.093 -0.097862,-0.094 -0.097862,-0.25095 0,-0.18313 0.1220855,-0.27615 0.1230546,-0.093 0.3662568,-0.093 l 0.2499848,0 0,-0.0174 q 0,-0.12305 -0.08139,-0.18991 -0.080421,-0.0678 -0.2267304,-0.0678 -0.093018,0 -0.1811905,0.0223 -0.088173,0.0223 -0.1695633,0.0669 l 0,-0.16472 q 0.097862,-0.0378 0.1899109,-0.0562 0.092049,-0.0194 0.1792526,-0.0194 0.2354508,0 0.3517228,0.12209 0.116272,0.12209 0.116272,0.37013 z"
         style="font-size:1.98437524px;fill:#ffffff;fill-opacity:1"
         id="path4657"
         inkscape:connector-curvature="0" />
      <path
         d="m 10.544531,229.24366 0,0.16666 q -0.07558,-0.0417 -0.152123,-0.062 -0.07558,-0.0213 -0.153091,-0.0213 -0.17344,0 -0.2693639,0.11046 -0.095924,0.10949 -0.095924,0.30812 0,0.19863 0.095924,0.30909 0.095924,0.10949 0.2693639,0.10949 0.07751,0 0.153091,-0.0204 0.07655,-0.0213 0.152123,-0.063 l 0,0.16472 q -0.07461,0.0349 -0.15503,0.0523 -0.07945,0.0174 -0.169563,0.0174 -0.2451402,0 -0.3895113,-0.15406 -0.144371,-0.15406 -0.144371,-0.41567 0,-0.26549 0.14534,-0.41761 0.1463089,-0.15213 0.4001693,-0.15213 0.08236,0 0.160843,0.0174 0.07848,0.0165 0.152123,0.0504 z"
         style="font-size:1.98437524px;fill:#ffffff;fill-opacity:1"
         id="path4659"
         inkscape:connector-curvature="0" />
      <path
         d="m 11.481489,229.36865 q -0.03004,-0.0174 -0.06589,-0.0252 -0.03488,-0.009 -0.07751,-0.009 -0.151154,0 -0.232544,0.0988 -0.08042,0.0979 -0.08042,0.28196 l 0,0.57167 -0.179252,0 0,-1.0852 0.179252,0 0,0.16859 q 0.0562,-0.0988 0.146309,-0.14631 0.09011,-0.0485 0.218979,-0.0485 0.01841,0 0.04069,0.003 0.02229,0.002 0.04942,0.007 l 9.69e-4,0.18313 z"
         style="font-size:1.98437524px;fill:#ffffff;fill-opacity:1"
         id="path4661"
         inkscape:connector-curvature="0" />
      <path
         d="m 12.050253,229.32699 q -0.143403,0 -0.226731,0.11239 -0.08333,0.11143 -0.08333,0.30619 0,0.19475 0.08236,0.30715 0.08333,0.11143 0.2277,0.11143 0.142433,0 0.225761,-0.1124 0.08333,-0.1124 0.08333,-0.30618 0,-0.19282 -0.08333,-0.30522 -0.08333,-0.11336 -0.225761,-0.11336 z m 0,-0.15116 q 0.232543,0 0.365287,0.15116 0.132744,0.15115 0.132744,0.41858 0,0.26645 -0.132744,0.41858 -0.132744,0.15115 -0.365287,0.15115 -0.233513,0 -0.366257,-0.15115 -0.131775,-0.15213 -0.131775,-0.41858 0,-0.26743 0.131775,-0.41858 0.132744,-0.15116 0.366257,-0.15116 z"
         style="font-size:1.98437524px;fill:#ffffff;fill-opacity:1"
         id="path4663"
         inkscape:connector-curvature="0" />
      <path
         d="m 13.897039,229.32699 q -0.143402,0 -0.22673,0.11239 -0.08333,0.11143 -0.08333,0.30619 0,0.19475 0.08236,0.30715 0.08333,0.11143 0.227699,0.11143 0.142434,0 0.225762,-0.1124 0.08333,-0.1124 0.08333,-0.30618 0,-0.19282 -0.08333,-0.30522 -0.08333,-0.11336 -0.225762,-0.11336 z m 0,-0.15116 q 0.232544,0 0.365288,0.15116 0.132744,0.15115 0.132744,0.41858 0,0.26645 -0.132744,0.41858 -0.132744,0.15115 -0.365288,0.15115 -0.233512,0 -0.366256,-0.15115 -0.131775,-0.15213 -0.131775,-0.41858 0,-0.26743 0.131775,-0.41858 0.132744,-0.15116 0.366256,-0.15116 z"
         style="font-size:1.98437524px;fill:#ffffff;fill-opacity:1"
         id="path4665"
         inkscape:connector-curvature="0" />
      <path
         d="m 15.381445,229.23397 0,0.16859 q -0.07558,-0.0387 -0.156967,-0.0581 -0.08139,-0.0194 -0.168595,-0.0194 -0.132743,0 -0.1996,0.0407 -0.06589,0.0407 -0.06589,0.12208 0,0.062 0.04748,0.0979 0.04748,0.0349 0.19088,0.0669 l 0.06104,0.0136 q 0.189911,0.0407 0.269364,0.11531 0.08042,0.0736 0.08042,0.20638 0,0.15115 -0.120148,0.23933 -0.119178,0.0882 -0.328468,0.0882 -0.0872,0 -0.182159,-0.0174 -0.09399,-0.0165 -0.198632,-0.0504 l 0,-0.18409 q 0.09883,0.0514 0.194756,0.0775 0.09592,0.0252 0.189911,0.0252 0.125961,0 0.193786,-0.0426 0.06783,-0.0436 0.06783,-0.12208 0,-0.0727 -0.04942,-0.11143 -0.04845,-0.0388 -0.214134,-0.0746 l -0.06201,-0.0145 q -0.165687,-0.0349 -0.239326,-0.10659 -0.07364,-0.0727 -0.07364,-0.19863 0,-0.15309 0.10852,-0.23642 0.108521,-0.0833 0.308121,-0.0833 0.09883,0 0.186035,0.0145 0.0872,0.0145 0.160843,0.0436 z"
         style="font-size:1.98437524px;fill:#ffffff;fill-opacity:1"
         id="path4667"
         inkscape:connector-curvature="0" />
      <path
         d="m 16.505407,229.24366 0,0.16666 q -0.07558,-0.0417 -0.152122,-0.062 -0.07558,-0.0213 -0.153092,-0.0213 -0.173439,0 -0.269363,0.11046 -0.09592,0.10949 -0.09592,0.30812 0,0.19863 0.09592,0.30909 0.09592,0.10949 0.269363,0.10949 0.07752,0 0.153092,-0.0204 0.07655,-0.0213 0.152122,-0.063 l 0,0.16472 q -0.07461,0.0349 -0.155029,0.0523 -0.07945,0.0174 -0.169563,0.0174 -0.24514,0 -0.389511,-0.15406 -0.144371,-0.15406 -0.144371,-0.41567 0,-0.26549 0.14534,-0.41761 0.146309,-0.15213 0.400169,-0.15213 0.08236,0 0.160843,0.0174 0.07848,0.0165 0.152122,0.0504 z"
         style="font-size:1.98437524px;fill:#ffffff;fill-opacity:1"
         id="path4669"
         inkscape:connector-curvature="0" />
      <path
         d="m 16.813528,229.202 0.178284,0 0,1.0852 -0.178284,0 0,-1.0852 z m 0,-0.42246 0.178284,0 0,0.22576 -0.178284,0 0,-0.22576 z"
         style="font-size:1.98437524px;fill:#ffffff;fill-opacity:1"
         id="path4671"
         inkscape:connector-curvature="0" />
      <path
         d="m 17.363882,228.77954 0.178284,0 0,1.50766 -0.178284,0 0,-1.50766 z"
         style="font-size:1.98437524px;fill:#ffffff;fill-opacity:1"
         id="path4673"
         inkscape:connector-curvature="0" />
      <path
         d="m 17.914236,228.77954 0.178284,0 0,1.50766 -0.178284,0 0,-1.50766 z"
         style="font-size:1.98437524px;fill:#ffffff;fill-opacity:1"
         id="path4675"
         inkscape:connector-curvature="0" />
      <path
         d="m 18.957777,229.74169 q -0.216072,0 -0.2994,0.0494 -0.08333,0.0494 -0.08333,0.16859 0,0.095 0.06201,0.15116 0.06298,0.0552 0.170532,0.0552 0.148247,0 0.237389,-0.10464 0.09011,-0.10561 0.09011,-0.28002 l 0,-0.0397 -0.177315,0 z m 0.355599,-0.0736 0,0.61915 -0.178284,0 0,-0.16472 q -0.06104,0.0988 -0.152123,0.14631 -0.09108,0.0465 -0.222854,0.0465 -0.166657,0 -0.265488,-0.093 -0.09786,-0.094 -0.09786,-0.25095 0,-0.18313 0.122085,-0.27615 0.123055,-0.093 0.366257,-0.093 l 0.249985,0 0,-0.0174 q 0,-0.12305 -0.08139,-0.18991 -0.08042,-0.0678 -0.22673,-0.0678 -0.09302,0 -0.18119,0.0223 -0.08817,0.0223 -0.169564,0.0669 l 0,-0.16472 q 0.09786,-0.0378 0.189911,-0.0562 0.09205,-0.0194 0.179253,-0.0194 0.235451,0 0.351723,0.12209 0.116272,0.12209 0.116272,0.37013 z"
         style="font-size:1.98437524px;fill:#ffffff;fill-opacity:1"
         id="path4677"
         inkscape:connector-curvature="0" />
      <path
         d="m 19.861793,228.89387 0,0.30813 0.367225,0 0,0.13855 -0.367225,0 0,0.58911 q 0,0.13275 0.03585,0.17054 0.03682,0.0378 0.148247,0.0378 l 0.183128,0 0,0.14921 -0.183128,0 q -0.206383,0 -0.284866,-0.0765 -0.07848,-0.0775 -0.07848,-0.281 l 0,-0.58911 -0.130806,0 0,-0.13855 0.130806,0 0,-0.30813 0.179253,0 z"
         style="font-size:1.98437524px;fill:#ffffff;fill-opacity:1"
         id="path4679"
         inkscape:connector-curvature="0" />
      <path
         d="m 20.884986,229.32699 q -0.143402,0 -0.22673,0.11239 -0.08333,0.11143 -0.08333,0.30619 0,0.19475 0.08236,0.30715 0.08333,0.11143 0.227699,0.11143 0.142433,0 0.225761,-0.1124 0.08333,-0.1124 0.08333,-0.30618 0,-0.19282 -0.08333,-0.30522 -0.08333,-0.11336 -0.225761,-0.11336 z m 0,-0.15116 q 0.232544,0 0.365288,0.15116 0.132744,0.15115 0.132744,0.41858 0,0.26645 -0.132744,0.41858 -0.132744,0.15115 -0.365288,0.15115 -0.233513,0 -0.366257,-0.15115 -0.131775,-0.15213 -0.131775,-0.41858 0,-0.26743 0.131775,-0.41858 0.132744,-0.15116 0.366257,-0.15116 z"
         style="font-size:1.98437524px;fill:#ffffff;fill-opacity:1"
         id="path4681"
         inkscape:connector-curvature="0" />
      <path
         d="m 22.306411,229.36865 q -0.03004,-0.0174 -0.06589,-0.0252 -0.03488,-0.009 -0.07751,-0.009 -0.151154,0 -0.232544,0.0988 -0.08042,0.0979 -0.08042,0.28196 l 0,0.57167 -0.179252,0 0,-1.0852 0.179252,0 0,0.16859 q 0.0562,-0.0988 0.146309,-0.14631 0.09011,-0.0485 0.218979,-0.0485 0.01841,0 0.04069,0.003 0.02229,0.002 0.04942,0.007 l 9.69e-4,0.18313 z"
         style="font-size:1.98437524px;fill:#ffffff;fill-opacity:1"
         id="path4683"
         inkscape:connector-curvature="0" />
    </g>
    <g
       style="font-style:normal;font-weight:normal;font-size:2.64583373px;line-height:125%;font-family:sans-serif;letter-spacing:0px;word-spacing:0px;fill:#ffffff;fill-opacity:1;stroke:none;stroke-width:1px;stroke-linecap:butt;stroke-linejoin:miter;stroke-opacity:1"
       id="text3775"
       transform="matrix(1.0212545,0,0,1.0212545,4.6448853,-1.5910842)">
      <path
         d="m 9.2366095,247.72964 1.1084595,0 0,0.21962 -0.8474935,0 0,0.56845 0.7648115,0 0,0.21962 -0.7648115,0 0,0.92113 -0.260966,0 0,-1.92882 z"
         id="path4686"
         inkscape:connector-curvature="0" />
      <path
         d="m 10.755897,247.72964 0.388865,0 0.492218,1.31258 0.494802,-1.31258 0.388865,0 0,1.92882 -0.254506,0 0,-1.69369 -0.497386,1.32291 -0.262258,0 -0.497386,-1.32291 0,1.69369 -0.253214,0 0,-1.92882 z"
         id="path4688"
         inkscape:connector-curvature="0" />
    </g>
    <g
       style="font-style:normal;font-weight:normal;font-size:2.64583373px;line-height:125%;font-family:sans-serif;letter-spacing:0px;word-spacing:0px;fill:#ffffff;fill-opacity:1;stroke:none;stroke-width:1px;stroke-linecap:butt;stroke-linejoin:miter;stroke-opacity:1"
       id="text3783"
       transform="matrix(0.82466603,0,0,0.82466603,7.025875,42.538543)">
      <path
         d="m 5.6618924,262.09275 1.6316836,0 0,0.21963 -0.6847128,0 0,1.7092 -0.262258,0 0,-1.7092 -0.6847128,0 0,-0.21963 z"
         id="path4691"
         inkscape:connector-curvature="0" />
      <path
         d="m 7.5519582,262.09275 0.2609661,0 0,1.92883 -0.2609661,0 0,-1.92883 z"
         id="path4693"
         inkscape:connector-curvature="0" />
      <path
         d="m 8.3322726,262.09275 0.3888652,0 0.4922181,1.31258 0.4948019,-1.31258 0.3888652,0 0,1.92883 -0.2545065,0 0,-1.6937 -0.4973857,1.32292 -0.2622579,0 -0.4973858,-1.32292 0,1.6937 -0.2532145,0 0,-1.92883 z"
         id="path4695"
         inkscape:connector-curvature="0" />
      <path
         d="m 10.872169,263.10044 0,0.70668 0.418579,0 q 0.210582,0 0.311351,-0.0866 0.102061,-0.0879 0.102061,-0.26742 0,-0.18087 -0.102061,-0.26614 -0.100769,-0.0866 -0.311351,-0.0866 l -0.418579,0 z m 0,-0.79323 0,0.58136 0.386282,0 q 0.191202,0 0.28422,-0.0711 0.09431,-0.0723 0.09431,-0.21962 0,-0.14599 -0.09431,-0.21833 -0.09302,-0.0724 -0.28422,-0.0724 l -0.386282,0 z m -0.260966,-0.21446 0.666626,0 q 0.298432,0 0.459921,0.12403 0.161489,0.12402 0.161489,0.35269 0,0.17699 -0.08268,0.28163 -0.08268,0.10465 -0.242879,0.13049 0.192495,0.0413 0.298431,0.17311 0.107229,0.13049 0.107229,0.32686 0,0.25838 -0.1757,0.3992 -0.1757,0.14082 -0.499969,0.14082 l -0.692465,0 0,-1.92883 z"
         id="path4697"
         inkscape:connector-curvature="0" />
      <path
         d="m 13.339719,263.11724 q 0.08397,0.0284 0.162781,0.12144 0.0801,0.093 0.160197,0.2558 l 0.264842,0.5271 -0.280345,0 -0.246755,-0.49481 q -0.0956,-0.19378 -0.186035,-0.25709 -0.08914,-0.0633 -0.244171,-0.0633 l -0.28422,0 0,0.8152 -0.260967,0 0,-1.92883 0.589112,0 q 0.330729,0 0.49351,0.13824 0.162781,0.13823 0.162781,0.41728 0,0.18216 -0.08527,0.30231 -0.08398,0.12015 -0.245464,0.16666 z m -0.653706,-0.81003 0,0.68471 0.328145,0 q 0.188619,0 0.28422,-0.0866 0.09689,-0.0878 0.09689,-0.25709 0,-0.16924 -0.09689,-0.2545 -0.0956,-0.0866 -0.28422,-0.0866 l -0.328145,0 z"
         id="path4699"
         inkscape:connector-curvature="0" />
      <path
         d="m 14.264728,262.09275 1.219564,0 0,0.21963 -0.958598,0 0,0.57102 0.918549,0 0,0.21963 -0.918549,0 0,0.69892 0.981852,0 0,0.21963 -1.242818,0 0,-1.92883 z"
         id="path4701"
         inkscape:connector-curvature="0" />
    </g>
    <g
       style="font-style:normal;font-weight:normal;font-size:2.64583373px;line-height:125%;font-family:sans-serif;letter-spacing:0px;word-spacing:0px;fill:#ffffff;fill-opacity:1;stroke:none;stroke-width:1px;stroke-linecap:butt;stroke-linejoin:miter;stroke-opacity:1"
       id="text3787"
       transform="matrix(0.85156517,0,0,0.85156517,5.1941925,33.622304)">
      <path
         d="m 9.4525434,279.53374 0,0.27518 q -0.131775,-0.12273 -0.2816366,-0.18345 -0.1485698,-0.0607 -0.3165182,-0.0607 -0.3307293,0 -0.5064292,0.20283 -0.1756998,0.20154 -0.1756998,0.58394 0,0.38112 0.1756998,0.58395 0.1756999,0.20153 0.5064292,0.20153 0.1679484,0 0.3165182,-0.0607 0.1498616,-0.0607 0.2816366,-0.18345 l 0,0.2726 q -0.1369426,0.093 -0.29068,0.13952 -0.1524455,0.0465 -0.3229778,0.0465 -0.4379578,0 -0.6898804,-0.26742 -0.2519227,-0.26872 -0.2519227,-0.73252 0,-0.46509 0.2519227,-0.73251 0.2519226,-0.26872 0.6898804,-0.26872 0.1731161,0 0.3255616,0.0465 0.1537374,0.0452 0.2880962,0.13694 z"
         id="path4711"
         inkscape:connector-curvature="0" />
      <path
         d="m 10.641102,279.56216 q -0.284221,0 -0.452169,0.21188 -0.166657,0.21187 -0.166657,0.57748 0,0.36432 0.166657,0.57619 0.167948,0.21188 0.452169,0.21188 0.28422,0 0.449585,-0.21188 0.166656,-0.21187 0.166656,-0.57619 0,-0.36561 -0.166656,-0.57748 -0.165365,-0.21188 -0.449585,-0.21188 z m 0,-0.21187 q 0.40566,0 0.648539,0.27259 0.242879,0.27131 0.242879,0.72864 0,0.45605 -0.242879,0.72864 -0.242879,0.2713 -0.648539,0.2713 -0.406952,0 -0.6511236,-0.2713 -0.2428793,-0.2713 -0.2428793,-0.72864 0,-0.45733 0.2428793,-0.72864 0.2441716,-0.27259 0.6511236,-0.27259 z"
         id="path4713"
         inkscape:connector-curvature="0" />
      <path
         d="m 11.940764,279.38517 0.260966,0 0,1.7092 0.939219,0 0,0.21963 -1.200185,0 0,-1.92883 z"
         id="path4715"
         inkscape:connector-curvature="0" />
      <path
         d="m 14.103423,279.56216 q -0.284221,0 -0.452169,0.21188 -0.166657,0.21187 -0.166657,0.57748 0,0.36432 0.166657,0.57619 0.167948,0.21188 0.452169,0.21188 0.28422,0 0.449585,-0.21188 0.166656,-0.21187 0.166656,-0.57619 0,-0.36561 -0.166656,-0.57748 -0.165365,-0.21188 -0.449585,-0.21188 z m 0,-0.21187 q 0.40566,0 0.648539,0.27259 0.242879,0.27131 0.242879,0.72864 0,0.45605 -0.242879,0.72864 -0.242879,0.2713 -0.648539,0.2713 -0.406952,0 -0.651123,-0.2713 -0.24288,-0.2713 -0.24288,-0.72864 0,-0.45733 0.24288,-0.72864 0.244171,-0.27259 0.651123,-0.27259 z"
         id="path4717"
         inkscape:connector-curvature="0" />
      <path
         d="m 16.317758,280.40966 q 0.08397,0.0284 0.162781,0.12144 0.0801,0.093 0.160197,0.2558 l 0.264842,0.5271 -0.280345,0 -0.246755,-0.49481 q -0.0956,-0.19378 -0.186035,-0.25709 -0.08914,-0.0633 -0.244171,-0.0633 l -0.284221,0 0,0.8152 -0.260966,0 0,-1.92883 0.589112,0 q 0.330729,0 0.49351,0.13824 0.16278,0.13823 0.16278,0.41728 0,0.18216 -0.08527,0.30231 -0.08397,0.12015 -0.245463,0.16666 z m -0.653707,-0.81003 0,0.68471 0.328146,0 q 0.188619,0 0.28422,-0.0866 0.09689,-0.0879 0.09689,-0.25709 0,-0.16924 -0.09689,-0.2545 -0.0956,-0.0866 -0.28422,-0.0866 l -0.328146,0 z"
         id="path4719"
         inkscape:connector-curvature="0" />
    </g>
    <rect
       style="opacity:1;fill:#4a4a4a;fill-opacity:1;stroke:none;stroke-width:0.26458335;stroke-miterlimit:4;stroke-dasharray:none;stroke-opacity:1"
       id="rect10365"
       width="9.56462"
       height="11.940146"
       x="10.972424"
       y="275.90375"
       ry="1.187772"
       rx="1.312791" />
    <g
       style="font-style:normal;font-weight:normal;font-size:2.64583373px;line-height:125%;font-family:sans-serif;letter-spacing:0px;word-spacing:0px;fill:#ffffff;fill-opacity:1;stroke:none;stroke-width:1px;stroke-linecap:butt;stroke-linejoin:miter;stroke-opacity:1"
       id="text3791"
       transform="translate(4.8262731,-7.1528457)">
      <path
         d="m 9.074568,292.41333 q -0.2842205,0 -0.4521689,0.21187 -0.1666565,0.21188 -0.1666565,0.57749 0,0.36432 0.1666565,0.57619 0.1679484,0.21187 0.4521689,0.21187 0.2842204,0 0.449585,-0.21187 0.1666565,-0.21187 0.1666565,-0.57619 0,-0.36561 -0.1666565,-0.57749 -0.1653646,-0.21187 -0.449585,-0.21187 z m 0,-0.21187 q 0.40566,0 0.6485393,0.27259 0.2428792,0.2713 0.2428792,0.72864 0,0.45604 -0.2428792,0.72864 -0.2428793,0.2713 -0.6485393,0.2713 -0.406952,0 -0.6511232,-0.2713 -0.2428793,-0.27131 -0.2428793,-0.72864 0,-0.45734 0.2428793,-0.72864 0.2441712,-0.27259 0.6511232,-0.27259 z"
         id="path4704"
         inkscape:connector-curvature="0" />
      <path
         d="m 10.344516,292.23634 0.262258,0 0,1.17176 q 0,0.31006 0.112397,0.447 0.112396,0.13565 0.364319,0.13565 0.25063,0 0.363027,-0.13565 0.112396,-0.13694 0.112396,-0.447 l 0,-1.17176 0.262258,0 0,1.20406 q 0,0.37724 -0.187327,0.56973 -0.186036,0.1925 -0.550354,0.1925 -0.365611,0 -0.552938,-0.1925 -0.186036,-0.19249 -0.186036,-0.56973 l 0,-1.20406 z"
         id="path4706"
         inkscape:connector-curvature="0" />
      <path
         d="m 12.044671,292.23634 1.631684,0 0,0.21962 -0.684713,0 0,1.7092 -0.262258,0 0,-1.7092 -0.684713,0 0,-0.21962 z"
         id="path4708"
         inkscape:connector-curvature="0" />
    </g>
    <g
       style="font-style:normal;font-weight:normal;font-size:2.64583349px;line-height:125%;font-family:sans-serif;letter-spacing:0px;word-spacing:0px;fill:#000000;fill-opacity:1;stroke:none;stroke-width:1px;stroke-linecap:butt;stroke-linejoin:miter;stroke-opacity:1"
       id="text4186"
       transform="matrix(1.0306083,0,0,1.0306083,0.85544006,-13.847178)">
      <path
         d="m 2.9215643,240.54811 1.6316835,0 0,0.21962 -0.6847128,0 0,1.7092 -0.2622579,0 0,-1.7092 -0.6847128,0 0,-0.21962 z"
         style="fill:#ffffff;fill-opacity:1"
         id="path4224"
         inkscape:connector-curvature="0" />
      <path
         d="m 5.7263028,241.57259 q 0.083974,0.0284 0.1627808,0.12144 0.080099,0.093 0.1601969,0.2558 l 0.2648418,0.5271 -0.2803447,0 -0.246755,-0.4948 q -0.095601,-0.19379 -0.1860351,-0.25709 -0.089142,-0.0633 -0.2441712,-0.0633 l -0.2842204,0 0,0.8152 -0.260966,0 0,-1.92882 0.5891114,0 q 0.3307292,0 0.4935099,0.13823 0.1627808,0.13823 0.1627808,0.41729 0,0.18216 -0.085266,0.3023 -0.083974,0.12015 -0.2454631,0.16666 z m -0.6537069,-0.81003 0,0.68472 0.3281454,0 q 0.188619,0 0.2842204,-0.0866 0.096893,-0.0878 0.096893,-0.25709 0,-0.16924 -0.096893,-0.25451 -0.095601,-0.0866 -0.2842204,-0.0866 l -0.3281454,0 z"
         style="fill:#ffffff;fill-opacity:1"
         id="path4226"
         inkscape:connector-curvature="0" />
      <path
         d="m 6.6513112,240.54811 0.260966,0 0,1.92882 -0.260966,0 0,-1.92882 z"
         style="fill:#ffffff;fill-opacity:1"
         id="path4228"
         inkscape:connector-curvature="0" />
      <path
         d="m 8.7467904,242.20175 0,-0.51805 -0.4263306,0 0,-0.21446 0.6847128,0 0,0.82811 q -0.1511536,0.10723 -0.333313,0.16278 -0.1821594,0.0543 -0.3888652,0.0543 -0.4521688,0 -0.7079671,-0.26355 -0.2545065,-0.26484 -0.2545065,-0.73638 0,-0.47284 0.2545065,-0.73639 0.2557983,-0.26485 0.7079671,-0.26485 0.188619,0 0.3578593,0.0465 0.1705323,0.0465 0.3139344,0.13695 l 0,0.27776 q -0.144694,-0.12274 -0.3074748,-0.18475 -0.1627808,-0.062 -0.3423564,-0.062 -0.3539836,0 -0.5322673,0.19766 -0.1769918,0.19767 -0.1769918,0.58912 0,0.39015 0.1769918,0.58781 0.1782837,0.19767 0.5322673,0.19767 0.1382345,0 0.246755,-0.0233 0.1085205,-0.0245 0.1950785,-0.0749 z"
         style="fill:#ffffff;fill-opacity:1"
         id="path4230"
         inkscape:connector-curvature="0" />
    </g>
    <g
       style="font-style:normal;font-weight:normal;font-size:2.64583349px;line-height:125%;font-family:sans-serif;letter-spacing:0px;word-spacing:0px;fill:#ffffff;fill-opacity:1;stroke:none;stroke-width:1px;stroke-linecap:butt;stroke-linejoin:miter;stroke-opacity:1"
       id="text4211"
       transform="matrix(0.9326758,0,0,0.9326758,-1.2024382,13.643698)">
      <path
         d="m 3.068473,249.91131 0.4263306,0 0,-1.47149 -0.4637961,0.093 0,-0.23771 0.4612122,-0.093 0.260966,0 0,1.7092 0.4263306,0 0,0.21963 -1.1110433,0 0,-0.21963 z"
         id="path4233"
         inkscape:connector-curvature="0" />
      <path
         d="m 5.1820392,250.13094 -0.7363892,-1.92883 0.2725932,0 0.6110739,1.62393 0.6123657,-1.62393 0.2713013,0 -0.7350973,1.92883 -0.2958476,0 z"
         id="path4235"
         inkscape:connector-curvature="0" />
      <path
         d="m 6.9054484,248.20211 0.2196248,0 -0.6717936,2.17429 -0.2196249,0 0.6717937,-2.17429 z"
         id="path4237"
         inkscape:connector-curvature="0" />
      <path
         d="m 8.1702293,248.3791 q -0.2842204,0 -0.4521689,0.21188 -0.1666565,0.21187 -0.1666565,0.57748 0,0.36432 0.1666565,0.57619 0.1679485,0.21188 0.4521689,0.21188 0.2842204,0 0.4495849,-0.21188 0.1666566,-0.21187 0.1666566,-0.57619 0,-0.36561 -0.1666566,-0.57748 -0.1653645,-0.21188 -0.4495849,-0.21188 z m 0,-0.21187 q 0.40566,0 0.6485392,0.27259 0.2428793,0.27131 0.2428793,0.72864 0,0.45605 -0.2428793,0.72864 -0.2428792,0.2713 -0.6485392,0.2713 -0.406952,0 -0.6511231,-0.2713 -0.2428793,-0.2713 -0.2428793,-0.72864 0,-0.45733 0.2428793,-0.72864 0.2441711,-0.27259 0.6511231,-0.27259 z"
         id="path4239"
         inkscape:connector-curvature="0" />
      <path
         d="m 10.914248,248.35068 0,0.27518 q -0.131775,-0.12273 -0.281637,-0.18345 -0.14857,-0.0607 -0.316518,-0.0607 -0.3307292,0 -0.5064291,0.20283 -0.1756999,0.20154 -0.1756999,0.58394 0,0.38112 0.1756999,0.58395 0.1756999,0.20153 0.5064291,0.20153 0.167948,0 0.316518,-0.0607 0.149862,-0.0607 0.281637,-0.18345 l 0,0.2726 q -0.136943,0.093 -0.29068,0.13952 -0.152446,0.0465 -0.322978,0.0465 -0.4379578,0 -0.6898804,-0.26742 -0.2519226,-0.26872 -0.2519226,-0.73252 0,-0.46509 0.2519226,-0.73251 0.2519226,-0.26872 0.6898804,-0.26872 0.173116,0 0.325562,0.0465 0.153737,0.0452 0.288096,0.13694 z"
         id="path4241"
         inkscape:connector-curvature="0" />
      <path
         d="m 11.052482,248.20211 1.631684,0 0,0.21963 -0.684713,0 0,1.7092 -0.262258,0 0,-1.7092 -0.684713,0 0,-0.21963 z"
         id="path4243"
         inkscape:connector-curvature="0" />
    </g>
    <g
       style="font-style:normal;font-weight:normal;font-size:1.91258764px;line-height:125%;font-family:sans-serif;letter-spacing:0px;word-spacing:0px;fill:#ffffff;fill-opacity:1;stroke:none;stroke-width:1px;stroke-linecap:butt;stroke-linejoin:miter;stroke-opacity:1"
       id="text4891"
       transform="matrix(1.2511047,0,0,1.2511047,-4.1065538,-68.483355)">
      <path
         d="m 13.879297,250.71744 0.80127,0 0,0.15876 -0.612626,0 0,0.41091 0.552858,0 0,0.15876 -0.552858,0 0,0.66585 -0.188644,0 0,-1.39428 z"
         id="path4913"
         inkscape:connector-curvature="0" />
      <path
         d="m 14.977541,250.71744 0.188644,0 0,1.39428 -0.188644,0 0,-1.39428 z"
         id="path4915"
         inkscape:connector-curvature="0" />
      <path
         d="m 15.541605,250.71744 0.254016,0 0.618229,1.16642 0,-1.16642 0.18304,0 0,1.39428 -0.254015,0 -0.618229,-1.16641 0,1.16641 -0.183041,0 0,-1.39428 z"
         id="path4917"
         inkscape:connector-curvature="0" />
      <path
         d="m 16.97231,250.71744 0.881584,0 0,0.15876 -0.69294,0 0,0.41278 0.663989,0 0,0.15876 -0.663989,0 0,0.50523 0.709749,0 0,0.15875 -0.898393,0 0,-1.39428 z"
         id="path4919"
         inkscape:connector-curvature="0" />
    </g>
    <g
       style="font-style:normal;font-weight:normal;font-size:1.93909621px;line-height:125%;font-family:sans-serif;letter-spacing:0px;word-spacing:0px;fill:#ffffff;fill-opacity:1;stroke:none;stroke-width:1px;stroke-linecap:butt;stroke-linejoin:miter;stroke-opacity:1"
       id="text4895"
       transform="matrix(1.1982303,0,0,1.1982303,-2.8419191,-61.282862)">
      <path
         d="m 20.815336,255.89517 0,0.20167 q -0.09658,-0.0899 -0.206408,-0.13445 -0.108884,-0.0445 -0.231971,-0.0445 -0.242387,0 -0.371156,0.14865 -0.128768,0.14771 -0.128768,0.42797 0,0.27931 0.128768,0.42796 0.128769,0.14771 0.371156,0.14771 0.123087,0 0.231971,-0.0445 0.109832,-0.0445 0.206408,-0.13444 l 0,0.19978 q -0.100363,0.0682 -0.213035,0.10225 -0.111726,0.0341 -0.236706,0.0341 -0.320974,0 -0.505605,-0.19599 -0.18463,-0.19694 -0.18463,-0.53685 0,-0.34086 0.18463,-0.53685 0.184631,-0.19694 0.505605,-0.19694 0.126874,0 0.238599,0.0341 0.112672,0.0331 0.211142,0.10037 z"
         id="path4900"
         inkscape:connector-curvature="0" />
      <path
         d="m 21.686415,255.916 q -0.208302,0 -0.331389,0.15528 -0.12214,0.15527 -0.12214,0.42323 0,0.267 0.12214,0.42228 0.123087,0.15528 0.331389,0.15528 0.208301,0 0.329494,-0.15528 0.122141,-0.15528 0.122141,-0.42228 0,-0.26796 -0.122141,-0.42323 -0.121193,-0.15528 -0.329494,-0.15528 z m 0,-0.15528 q 0.297302,0 0.475305,0.19978 0.178003,0.19883 0.178003,0.53401 0,0.33423 -0.178003,0.534 -0.178003,0.19884 -0.475305,0.19884 -0.29825,0 -0.4772,-0.19884 -0.178003,-0.19883 -0.178003,-0.534 0,-0.33518 0.178003,-0.53401 0.17895,-0.19978 0.4772,-0.19978 z"
         id="path4902"
         inkscape:connector-curvature="0" />
      <path
         d="m 23.079193,255.9747 -0.25943,0.70349 0.519807,0 -0.260377,-0.70349 z m -0.107938,-0.18842 0.216823,0 0.538743,1.41361 -0.198833,0 -0.128768,-0.36263 -0.637213,0 -0.128768,0.36263 -0.201674,0 0.53969,-1.41361 z"
         id="path4904"
         inkscape:connector-curvature="0" />
      <path
         d="m 24.604527,256.53711 q 0.06154,0.0208 0.1193,0.089 0.0587,0.0682 0.117406,0.18748 l 0.194099,0.3863 -0.20546,0 -0.180844,-0.36263 q -0.07006,-0.14203 -0.136343,-0.18842 -0.06533,-0.0464 -0.178949,-0.0464 l -0.208302,0 0,0.59745 -0.191258,0 0,-1.41361 0.431752,0 q 0.242387,0 0.361687,0.10131 0.119299,0.10131 0.119299,0.30583 0,0.1335 -0.06249,0.22155 -0.06154,0.0881 -0.179897,0.12214 z m -0.479093,-0.59366 0,0.50182 0.240494,0 q 0.138236,0 0.208301,-0.0634 0.07101,-0.0644 0.07101,-0.18841 0,-0.12404 -0.07101,-0.18653 -0.07006,-0.0634 -0.208301,-0.0634 l -0.240494,0 z"
         id="path4906"
         inkscape:connector-curvature="0" />
      <path
         d="m 26.129861,255.83268 0,0.18652 q -0.108885,-0.0521 -0.205461,-0.0776 -0.09658,-0.0256 -0.186524,-0.0256 -0.156226,0 -0.24144,0.0606 -0.08427,0.0606 -0.08427,0.17233 0,0.0937 0.05586,0.14202 0.05681,0.0473 0.213982,0.0767 l 0.115513,0.0237 q 0.213982,0.0407 0.315292,0.14392 0.102257,0.10226 0.102257,0.27458 0,0.20546 -0.138236,0.3115 -0.13729,0.10605 -0.403347,0.10605 -0.100364,0 -0.213983,-0.0227 -0.112672,-0.0227 -0.233865,-0.0672 l 0,-0.19694 q 0.116459,0.0653 0.228185,0.0985 0.111725,0.0331 0.219663,0.0331 0.1638,0 0.252802,-0.0644 0.089,-0.0644 0.089,-0.18368 0,-0.10415 -0.06438,-0.16285 -0.06344,-0.0587 -0.209248,-0.0881 l -0.116459,-0.0227 q -0.213983,-0.0426 -0.309612,-0.1335 -0.09563,-0.0909 -0.09563,-0.25281 0,-0.18747 0.131608,-0.2954 0.132556,-0.10794 0.364528,-0.10794 0.09942,0 0.20262,0.018 0.103204,0.018 0.211142,0.054 z"
         id="path4908"
         inkscape:connector-curvature="0" />
      <path
         d="m 26.517113,255.78628 0.893802,0 0,0.16096 -0.702544,0 0,0.4185 0.673192,0 0,0.16096 -0.673192,0 0,0.51223 0.719587,0 0,0.16096 -0.910845,0 0,-1.41361 z"
         id="path4910"
         inkscape:connector-curvature="0" />
    </g>
    <path
       style="opacity:1;fill:url(#radialGradient5357);fill-opacity:1;stroke:#8b8b8b;stroke-width:0.39687501;stroke-linejoin:miter;stroke-miterlimit:4;stroke-dasharray:none;stroke-opacity:1"
       d="m 31.483446,294.93321 -17.042828,-0.12503 -14.4172474,0.12503 -0.87873195,-3.46985 c 4.80992545,-1.00484 10.75039865,-1.72449 16.17117335,-1.71947 5.715286,0.005 9.886121,0.46573 17.046366,1.84449 z"
       id="path5329"
       inkscape:connector-curvature="0"
       sodipodi:nodetypes="ccccacc" />
    <flowRoot
       transform="matrix(0.26458334,0,0,0.26458334,-58.459936,293.81811)"
       style="font-style:normal;font-variant:normal;font-weight:normal;font-stretch:normal;font-size:10px;line-height:125%;font-family:'Trajan Pro 3';-inkscape-font-specification:'Trajan Pro 3, ';letter-spacing:0px;word-spacing:0px;fill:#000000;fill-opacity:1;stroke:none;stroke-width:1px;stroke-linecap:butt;stroke-linejoin:miter;stroke-opacity:1"
       id="flowRoot4136"
       xml:space="preserve"><flowRegion
         id="flowRegion4138"><rect
           style="font-style:normal;font-variant:normal;font-weight:normal;font-stretch:normal;font-family:'Trajan Pro 3';-inkscape-font-specification:'Trajan Pro 3, '"
           y="51.42857"
           x="91.428574"
           height="117.14286"
           width="388.57144"
           id="rect4140" /></flowRegion><flowPara
         id="flowPara4142" /></flowRoot>    <flowRoot
       transform="matrix(0.26458334,0,0,0.26458334,-58.459936,115.92228)"
       style="font-style:normal;font-weight:normal;font-size:10px;line-height:125%;font-family:sans-serif;letter-spacing:0px;word-spacing:0px;fill:#000000;fill-opacity:1;stroke:none;stroke-width:1px;stroke-linecap:butt;stroke-linejoin:miter;stroke-opacity:1"
       id="flowRoot5341"
       xml:space="preserve"><flowRegion
         id="flowRegion5343"><rect
           y="35.537983"
           x="323.24881"
           height="72.478447"
           width="7.8286824"
           id="rect5345" /></flowRegion><flowPara
         id="flowPara5347" /></flowRoot>    <path
       sodipodi:nodetypes="ccccc"
       inkscape:connector-curvature="0"
       id="rect5381"
       d="M -1.0865176e-6,291.9933 C 10.904412,290.78346 21.545669,291.00362 31.750002,292.11599 l -0.03339,3.29649 -31.7166130865176,0 z"
       style="opacity:1;fill:#000000;fill-opacity:1;stroke:none;stroke-width:1.00699997;stroke-linejoin:miter;stroke-miterlimit:4;stroke-dasharray:none;stroke-opacity:1" />
    <g
       transform="matrix(0.23844891,0,0,0.23844891,-51.671412,293.97285)"
       id="g5348">
      <path
         style="fill:#000000;fill-opacity:1;fill-rule:evenodd;stroke:none;stroke-width:1px;stroke-linecap:butt;stroke-linejoin:miter;stroke-opacity:1"
         d="m 291.23228,-10.52707 6.43066,-3.03395 5.95249,-0.742 4.22115,0.51115 5.88653,2.16005 4.68284,4.36955 z"
         id="path4179"
         inkscape:connector-curvature="0" />
      <g
         inkscape:label="Back"
         id="layer2-0"
         transform="translate(109.83831,-148.57805)">
        <g
           inkscape:label="Back"
           id="layer2-5"
           transform="matrix(0.09824765,0,0,0.06980857,176.35705,132.53479)"
           style="stroke:#ffffff;stroke-opacity:1">
          <g
             id="g2838"
             style="stroke:#ffffff;stroke-opacity:1" />
          <g
             id="g2852"
             style="stroke:#ffffff;stroke-opacity:1">
            <path
               d="m 2.1174,188.81 18.113,36.226 65.551,31.913 90.564,13.8 94.877,-11.213 60.376,-31.913 14.663,-30.188 -14.663,-37.951 0.32345,67.923 -33.099,-64.473 -25.876,96.602 -58.651,-80.214 -40.538,91.427 -40.538,-75.902 -46.576,61.239 -17.098,-92.852 -49.316,62.663 6.0376,-89.702 44.241,27.296 63.574,32.218 79.999,-16.819 86.467,-15.957 31.051,-3.6657 -33.27949,-62.050611 1.366,64.853611 -64.689,-74.392 -20.7,91.427 -69.001,-66.198 -75.902,50.026 15.35717,-82.554584 -59.34617,55.816584 24.151,-56.064 34.501,0 81.077,-37.088 -18.975,69.864 89.702,-24.151 62.101,7.7627 -66.314,-54.334 4.2124,46.571 -70.726,-45.713 66.414,-1.725 -53.476,-15.525 -12.938,16.388 -49.164,-6.9001 -66.414,44.851 -33.333,49.416 9.1828,6.6475 -23.288,52.614 z"
               style="color:#000000;fill:none;stroke:#ffffff;stroke-width:2.89188218;stroke-linejoin:bevel;stroke-miterlimit:4;stroke-dasharray:none;stroke-opacity:1"
               sodipodi:nodetypes="ccccccccccccccccccccccccccccccccccccccccccccccccc"
               id="path3614"
               inkscape:connector-curvature="0" />
            <path
               d="M 133.17,195.51 146.16,114.634 84.75317,79.116604 116.834,34.42 l 28.463,-4.3126 32.776,-5.1751 41.401,6.9001 12.938,10.35 47.438,20.7 18.975,34.501 30.188,30.188 2.8032,31.913"
               style="color:#000000;fill:none;stroke:#ffffff;stroke-width:2.89188218;stroke-linejoin:bevel;stroke-miterlimit:4;stroke-dasharray:none;stroke-opacity:1"
               sodipodi:nodetypes="cccccccccccc"
               id="path3616"
               inkscape:connector-curvature="0" />
            <path
               d="M 329.01,126.71 279.85,62.88 220.08,31.83"
               style="color:#000000;fill:none;stroke:#ffffff;stroke-width:2;stroke-linejoin:bevel;stroke-opacity:1"
               sodipodi:nodetypes="ccc"
               id="path3618"
               inkscape:connector-curvature="0" />
            <path
               d="M 1.9262189,188.1862 16.108581,129.83899"
               style="color:#000000;fill:none;stroke:#ffffff;stroke-width:2;stroke-linejoin:bevel;stroke-opacity:1"
               id="path3620"
               inkscape:connector-curvature="0"
               sodipodi:nodetypes="cc" />
          </g>
        </g>
      </g>
      <path
         style="fill:none;fill-rule:evenodd;stroke:#ffffff;stroke-width:0.2;stroke-linecap:butt;stroke-linejoin:miter;stroke-miterlimit:4;stroke-dasharray:none;stroke-opacity:1"
         d="m 320.18675,-2.24965 -1.66538,-4.93018"
         id="path4177"
         inkscape:connector-curvature="0" />
      <ellipse
         style="opacity:0;fill:#000000;fill-opacity:1;stroke:none;stroke-width:0.2;stroke-miterlimit:4;stroke-dasharray:none;stroke-opacity:1"
         id="path4183"
         cx="308.89188"
         cy="-0.40290931"
         rx="12.102836"
         ry="4.2211528" />
    </g>
    <ellipse
       ry="1.0121423"
       rx="2.800842"
       cy="292.6152"
       cx="11.398611"
       id="path4187"
       style="opacity:0;fill:url(#linearGradient4195);fill-opacity:1;stroke:none;stroke-width:0.2;stroke-miterlimit:4;stroke-dasharray:none;stroke-opacity:1" />
    <path
       sodipodi:nodetypes="cccccccccc"
       inkscape:connector-curvature="0"
       id="path4209"
       d="m 2.826339,292.08697 3.7196502,-1.53131 0.7579386,0.60829 1.1077655,-0.7832 2.2155227,0.29151 0.932852,-0.34981 3.023931,0.97939 -1.041619,0.47818 -9.5034344,0.29152 z"
       style="fill:#000000;fill-opacity:1;fill-rule:evenodd;stroke:none;stroke-width:1px;stroke-linecap:butt;stroke-linejoin:miter;stroke-opacity:1" />
    <g
       id="layer2"
       inkscape:label="Layer 2"
       transform="matrix(0.26458334,0,0,0.26458334,-59.404877,294.76305)" />
    <g
       id="flowRoot4144"
       style="font-style:normal;font-weight:normal;font-size:10px;line-height:125%;font-family:sans-serif;letter-spacing:0px;word-spacing:0px;fill:#000000;fill-opacity:1;stroke:none;stroke-width:1px;stroke-linecap:butt;stroke-linejoin:miter;stroke-opacity:1"
       transform="matrix(0.26458334,0,0,0.26458334,-45.946934,278.43557)">
      <path
         inkscape:connector-curvature="0"
         id="path5362"
         style="font-style:normal;font-variant:normal;font-weight:normal;font-stretch:normal;font-size:7.5px;font-family:Geneva;-inkscape-font-specification:Geneva;fill:#ffffff;fill-opacity:1"
         d="m 186.15283,66.994991 0.68115,0 0,0.01465 q 0,0.263672 0.20142,0.439453 0.20142,0.172119 0.68115,0.172119 0.42115,0 0.68116,-0.205078 0.26367,-0.205078 0.26367,-0.483398 0,-0.377198 -0.5127,-0.534668 l -0.3479,-0.106202 -0.23071,-0.07324 -0.47241,-0.146484 q -0.80933,-0.296631 -0.80933,-0.985108 0,-0.483398 0.39185,-0.849609 0.39184,-0.366211 1.16455,-0.366211 0.76172,0 1.08398,0.314942 0.32227,0.311279 0.32227,0.692138 l 0,0.01465 -0.68482,0 0,-0.01465 q 0,-0.205078 -0.20874,-0.322265 -0.20508,-0.117188 -0.54931,-0.117188 -0.41016,0 -0.62989,0.172119 -0.21606,0.168457 -0.21606,0.417481 0,0.190429 0.13916,0.311279 0.14282,0.117187 0.47607,0.212402 l 0.32959,0.09155 0.23804,0.06958 q 0.49805,0.142822 0.6189,0.201416 0.12451,0.05859 0.24902,0.150147 0.17212,0.131836 0.25268,0.318603 0.0842,0.186768 0.0842,0.435791 0,0.578613 -0.41748,0.974121 -0.41382,0.395508 -1.21216,0.395508 -0.50537,0 -0.83862,-0.150146 -0.33325,-0.150147 -0.531,-0.413819 -0.19776,-0.267334 -0.19776,-0.615234 l 0,-0.01465 z" />
      <path
         inkscape:connector-curvature="0"
         id="path5364"
         style="font-style:normal;font-variant:normal;font-weight:normal;font-stretch:normal;font-size:7.5px;font-family:Geneva;-inkscape-font-specification:Geneva;fill:#ffffff;fill-opacity:1"
         d="m 199.4646,68.188839 q -0.802,0 -1.36963,-0.541992 -0.56396,-0.545654 -0.56396,-1.618652 0,-1.069336 0.56396,-1.611329 0.56763,-0.545654 1.36963,-0.545654 0.79834,0 1.3623,0.545654 0.56763,0.541993 0.56763,1.611329 0,1.072998 -0.56763,1.618652 -0.56396,0.541992 -1.3623,0.541992 z m 0,-0.567627 q 0.54932,0 0.88257,-0.435791 0.33691,-0.439453 0.33691,-1.157226 0,-0.714112 -0.33691,-1.149903 -0.33325,-0.439453 -0.88257,-0.439453 -0.55298,0 -0.88989,0.439453 -0.33325,0.435791 -0.33325,1.149903 0,0.717773 0.33325,1.157226 0.33691,0.435791 0.88989,0.435791 z" />
      <path
         inkscape:connector-curvature="0"
         id="path5366"
         style="font-style:normal;font-variant:normal;font-weight:normal;font-stretch:normal;font-size:7.5px;font-family:Geneva;-inkscape-font-specification:Geneva;fill:#ffffff;fill-opacity:1"
         d="m 212.39917,63.984738 0.68115,0 0,4.090576 -0.68115,0 0,-0.714112 q -0.2124,0.32959 -0.41748,0.494385 -0.20508,0.164795 -0.42114,0.249024 -0.21607,0.08423 -0.47242,0.08423 -0.56762,0 -0.96313,-0.318603 -0.39551,-0.322266 -0.39551,-1.292725 l 0,-2.592773 0.68115,0 0,2.307128 q 0,0.897217 0.23804,1.083985 0.23804,0.186767 0.5896,0.186767 0.30396,0 0.57129,-0.175781 0.271,-0.179443 0.42847,-0.498047 0.16113,-0.322265 0.16113,-0.893554 l 0,-2.010498 z" />
      <path
         inkscape:connector-curvature="0"
         id="path5368"
         style="font-style:normal;font-variant:normal;font-weight:normal;font-stretch:normal;font-size:7.5px;font-family:Geneva;-inkscape-font-specification:Geneva;fill:#ffffff;fill-opacity:1"
         d="m 224.18018,67.4967 0,0.571289 q -0.49805,0.12085 -0.76172,0.12085 -0.38086,0 -0.68848,-0.153809 -0.30395,-0.153808 -0.46509,-0.446777 -0.15747,-0.292969 -0.15747,-0.933838 l 0,-2.102051 -0.71045,0 0,-0.567626 0.71045,0 0,-0.966797 0.68115,0 0,0.966797 1.19385,0 0,0.567626 -1.19385,0 0,1.907959 q 0,0.541993 0.0842,0.754395 0.0842,0.20874 0.26367,0.307617 0.18311,0.09888 0.4358,0.09888 0.20141,0 0.60791,-0.124512 z" />
      <path
         inkscape:connector-curvature="0"
         id="path5370"
         style="font-style:normal;font-variant:normal;font-weight:normal;font-stretch:normal;font-size:7.5px;font-family:Geneva;-inkscape-font-specification:Geneva;fill:#ffffff;fill-opacity:1"
         d="m 233.19995,68.075314 -0.68115,0 0,-5.910645 0.68115,0 0,2.526856 q 0.21607,-0.333252 0.41748,-0.494385 0.20508,-0.161133 0.42481,-0.241699 0.22338,-0.08423 0.49438,-0.08423 0.38452,0 0.68848,0.157471 0.30761,0.157471 0.47607,0.465088 0.16846,0.303955 0.16846,0.977783 l 0,2.60376 -0.68115,0 0,-2.310791 q 0,-0.549317 -0.0733,-0.776368 -0.0732,-0.230712 -0.27832,-0.358886 -0.20507,-0.131836 -0.46875,-0.131836 -0.30029,0 -0.57129,0.175781 -0.27099,0.175781 -0.43579,0.490723 -0.16113,0.314941 -0.16113,0.900879 l 0,2.010498 z" />
      <path
         inkscape:connector-curvature="0"
         id="path5372"
         style="font-style:normal;font-variant:normal;font-weight:normal;font-stretch:normal;font-size:7.5px;font-family:Geneva;-inkscape-font-specification:Geneva;fill:#ffffff;fill-opacity:1"
         d="m 245.03955,69.664669 -0.68115,0 0,-5.679931 0.68115,0 0,0.710449 q 0.2124,-0.362549 0.40283,-0.512696 0.19409,-0.150146 0.43579,-0.230712 0.2417,-0.08057 0.49805,-0.08057 0.46875,0 0.85693,0.256348 0.38819,0.252685 0.60059,0.758056 0.21606,0.505372 0.21606,1.135254 0,0.933838 -0.45043,1.552735 -0.44678,0.615234 -1.25611,0.615234 -0.26001,0 -0.49438,-0.0769 -0.23072,-0.07324 -0.41016,-0.219727 -0.17944,-0.150146 -0.39917,-0.531006 l 0,2.303467 z m 0,-3.632812 q 0,0.6958 0.30029,1.142578 0.3003,0.446777 0.84595,0.446777 0.49805,0 0.82764,-0.395508 0.32959,-0.395508 0.32959,-1.182861 0,-0.919189 -0.3479,-1.274414 -0.3479,-0.358887 -0.79468,-0.358887 -0.32227,0 -0.60425,0.197754 -0.27832,0.194092 -0.41748,0.582275 -0.13916,0.384522 -0.13916,0.842286 z" />
      <path
         inkscape:connector-curvature="0"
         id="path5374"
         style="font-style:normal;font-variant:normal;font-weight:normal;font-stretch:normal;font-size:7.5px;font-family:Geneva;-inkscape-font-specification:Geneva;fill:#ffffff;fill-opacity:1"
         d="m 258.17554,68.188839 q -0.802,0 -1.36963,-0.541992 -0.56397,-0.545654 -0.56397,-1.618652 0,-1.069336 0.56397,-1.611329 0.56763,-0.545654 1.36963,-0.545654 0.79834,0 1.3623,0.545654 0.56763,0.541993 0.56763,1.611329 0,1.072998 -0.56763,1.618652 -0.56396,0.541992 -1.3623,0.541992 z m 0,-0.567627 q 0.54931,0 0.88257,-0.435791 0.33691,-0.439453 0.33691,-1.157226 0,-0.714112 -0.33691,-1.149903 -0.33326,-0.439453 -0.88257,-0.439453 -0.55298,0 -0.8899,0.439453 -0.33325,0.435791 -0.33325,1.149903 0,0.717773 0.33325,1.157226 0.33692,0.435791 0.8899,0.435791 z" />
      <path
         inkscape:connector-curvature="0"
         id="path5376"
         style="font-style:normal;font-variant:normal;font-weight:normal;font-stretch:normal;font-size:7.5px;font-family:Geneva;-inkscape-font-specification:Geneva;fill:#ffffff;fill-opacity:1"
         d="m 269.17651,68.075314 -0.68115,0 0,-5.910645 0.68115,0 0,5.910645 z" />
      <path
         inkscape:connector-curvature="0"
         id="path5378"
         style="font-style:normal;font-variant:normal;font-weight:normal;font-stretch:normal;font-size:7.5px;font-family:Geneva;-inkscape-font-specification:Geneva;fill:#ffffff;fill-opacity:1"
         d="m 280.45581,67.024288 0.68115,0 0,0.03662 q 0,0.270996 -0.21606,0.552979 -0.21607,0.281982 -0.57129,0.428467 -0.35523,0.146484 -0.81665,0.146484 -0.93384,0 -1.44287,-0.604248 -0.50537,-0.604248 -0.50537,-1.5271 0,-0.944824 0.53466,-1.56372 0.53833,-0.622559 1.38428,-0.622559 0.46509,0 0.84229,0.201416 0.37719,0.201416 0.59692,0.629883 0.21973,0.424805 0.21973,1.186523 l 0,0.227051 -2.90406,0 q 0,0.655518 0.35157,1.080322 0.35522,0.424805 0.98144,0.424805 0.45044,0 0.65552,-0.172119 0.20874,-0.175781 0.20874,-0.388184 l 0,-0.03662 z m -2.15332,-1.420898 2.20825,0 0,-0.08057 q 0,-0.285644 -0.13916,-0.552978 -0.1355,-0.270996 -0.3772,-0.39917 -0.24169,-0.131836 -0.56396,-0.131836 -0.38086,0 -0.70313,0.307617 -0.32226,0.303955 -0.4248,0.856934 z" />
    </g>
    <ellipse
       style="opacity:0;fill:#ffffff;fill-opacity:1;stroke:#ffffff;stroke-width:0.82020831;stroke-miterlimit:4;stroke-dasharray:none;stroke-opacity:1"
       id="path5422"
       cx="15.56002"
       cy="285.20172"
       rx="15.56002"
       ry="2.6503332" />
    <g
       style="font-style:normal;font-weight:normal;font-size:2.64583349px;line-height:125%;font-family:sans-serif;letter-spacing:0px;word-spacing:0px;fill:#000000;fill-opacity:1;stroke:none;stroke-width:1px;stroke-linecap:butt;stroke-linejoin:miter;stroke-opacity:1"
       id="text5184"
       transform="translate(-1.5875001,5.8208337)">
      <path
         d="m 22.733159,228.11962 0,0.25451 q -0.14857,-0.0711 -0.280345,-0.10594 -0.131775,-0.0349 -0.254506,-0.0349 -0.213166,0 -0.329438,0.0827 -0.11498,0.0827 -0.11498,0.23513 0,0.1279 0.07622,0.19378 0.07751,0.0646 0.291972,0.10465 l 0.157613,0.0323 q 0.291972,0.0556 0.430206,0.19637 0.139527,0.13952 0.139527,0.37465 0,0.28035 -0.188619,0.42504 -0.187327,0.14469 -0.550354,0.14469 -0.136943,0 -0.291972,-0.031 -0.153737,-0.031 -0.319102,-0.0917 l 0,-0.26872 q 0.158905,0.0892 0.31135,0.13436 0.152446,0.0452 0.299724,0.0452 0.2235,0 0.34494,-0.0879 0.12144,-0.0879 0.12144,-0.25063 0,-0.14211 -0.08785,-0.22221 -0.08656,-0.0801 -0.285513,-0.12015 l -0.158905,-0.031 q -0.291972,-0.0581 -0.422455,-0.18216 -0.130483,-0.12403 -0.130483,-0.34494 0,-0.2558 0.179576,-0.40308 0.180868,-0.14728 0.497386,-0.14728 0.13565,0 0.276469,0.0245 0.140818,0.0246 0.288096,0.0736 z"
         style="fill:#ffffff;fill-opacity:1"
         id="path5189"
         inkscape:connector-curvature="0" />
      <path
         d="m 23.26155,228.05631 0.260966,0 0,0.79065 0.948263,0 0,-0.79065 0.260966,0 0,1.92883 -0.260966,0 0,-0.91855 -0.948263,0 0,0.91855 -0.260966,0 0,-1.92883 z"
         style="fill:#ffffff;fill-opacity:1"
         id="path5191"
         inkscape:connector-curvature="0" />
      <path
         d="m 25.895757,228.31341 -0.353984,0.95989 0.709259,0 -0.355275,-0.95989 z m -0.147278,-0.2571 0.295847,0 0.735098,1.92883 -0.271302,0 -0.175699,-0.4948 -0.869456,0 -0.1757,0.4948 -0.275177,0 0.736389,-1.92883 z"
         style="fill:#ffffff;fill-opacity:1"
         id="path5193"
         inkscape:connector-curvature="0" />
      <path
         d="m 27.320735,228.27077 0,0.72476 0.328145,0 q 0.182159,0 0.281637,-0.0943 0.09948,-0.0943 0.09948,-0.26871 0,-0.17312 -0.09948,-0.26743 -0.09948,-0.0943 -0.281637,-0.0943 l -0.328145,0 z m -0.260966,-0.21446 0.589111,0 q 0.32427,0 0.489634,0.14728 0.166657,0.14599 0.166657,0.42892 0,0.28551 -0.166657,0.4315 -0.165364,0.14598 -0.489634,0.14598 l -0.328145,0 0,0.77515 -0.260966,0 0,-1.92883 z"
         style="fill:#ffffff;fill-opacity:1"
         id="path5195"
         inkscape:connector-curvature="0" />
      <path
         d="m 28.65657,228.05631 1.219564,0 0,0.21963 -0.958598,0 0,0.57102 0.918549,0 0,0.21963 -0.918549,0 0,0.69892 0.981853,0 0,0.21963 -1.242819,0 0,-1.92883 z"
         style="fill:#ffffff;fill-opacity:1"
         id="path5197"
         inkscape:connector-curvature="0" />
    </g>
    <g
       style="font-style:normal;font-weight:normal;font-size:2.64583349px;line-height:125%;font-family:sans-serif;letter-spacing:0px;word-spacing:0px;fill:#ffffff;fill-opacity:1;stroke:none;stroke-width:1px;stroke-linecap:butt;stroke-linejoin:miter;stroke-opacity:1"
       id="text10356"
       transform="translate(-1.4319104e-7,-3.1750002)">
      <path
         d="m 11.424894,264.59978 0.69634,0 0,0.21188 -0.69634,0 0,-0.21188 z"
         id="path10361"
         inkscape:connector-curvature="0" />
      <path
         d="m 19.364978,263.77167 0,0.71959 0.719595,0 0,0.21963 -0.719595,0 0,0.71959 -0.217041,0 0,-0.71959 -0.719594,0 0,-0.21963 0.719594,0 0,-0.71959 0.217041,0 z"
         id="path10363"
         inkscape:connector-curvature="0" />
    </g>
  </g>
</svg>
