<svg xmlns="http://www.w3.org/2000/svg" xmlns:xlink="http://www.w3.org/1999/xlink" width="90" height="380" viewBox="0 0 23.813 100.542">
    <defs>
        <linearGradient id="b">
            <stop offset="0" stop-color="#fff"/>
            <stop offset="1" stop-opacity="0"/>
        </linearGradient>
        <linearGradient id="a">
            <stop offset="0" stop-color="#fdfdfd"/>
            <stop offset="1" stop-color="#fdfdfd"/>
        </linearGradient>
        <radialGradient gradientUnits="userSpaceOnUse" gradientTransform="matrix(.4218 0 0 .02673 -105.982 272.192)" r="69.827" fy="856.052" fx="285.494" cy="856.052" cx="285.494" id="d" xlink:href="#a"/>
        <linearGradient gradientUnits="userSpaceOnUse" y2="832.532" x2="279.915" y1="830.884" x1="268.967" id="h" xlink:href="#b" gradientTransform="matrix(.26458 0 0 .26458 -59.861 72.341)"/>
        <clipPath clipPathUnits="userSpaceOnUse" id="i">
            <rect width="23.813" height="9.379" y="287.621" rx=".347" ry=".314" fill="#606060"/>
        </clipPath>
        <clipPath clipPathUnits="userSpaceOnUse" id="g">
            <rect width="23.813" height="9.379" y="287.621" rx=".347" ry=".314" fill="#606060"/>
        </clipPath>
        <clipPath clipPathUnits="userSpaceOnUse" id="f">
            <rect width="99.864" height="39.333" x="216.698" y="-26.638" rx="1.457" ry="1.318" fill="#606060"/>
        </clipPath>
        <clipPath clipPathUnits="userSpaceOnUse" id="e">
            <rect width="23.813" height="9.379" y="287.621" rx=".347" ry=".314" fill="#606060"/>
        </clipPath>
        <clipPath clipPathUnits="userSpaceOnUse" id="c">
            <rect width="23.813" height="9.379" y="287.621" rx=".347" ry=".314" fill="#606060"/>
        </clipPath>
    </defs>
    <g transform="translate(0 -196.458)">
        <path d="M0 196.458h23.813V297H0z" fill-rule="evenodd"/>
        <g style="line-height:125%" font-weight="400" font-size="3.969" font-family="sans-serif" letter-spacing="0" word-spacing="0" fill="#fff">
            <path d="M3.783 198.23v.497q-.238-.221-.508-.33-.268-.11-.571-.11-.597 0-.914.366-.317.363-.317 1.053 0 .687.317 1.053.317.364.914.364.303 0 .57-.11.271-.11.509-.33v.491q-.247.168-.525.252-.275.084-.582.084-.79 0-1.245-.483-.454-.484-.454-1.321 0-.839.454-1.321.455-.485 1.245-.485.312 0 .587.084.277.081.52.247zM5.507 199.133q-.345 0-.545.27-.2.268-.2.736 0 .469.198.74.2.267.547.267.343 0 .543-.27t.2-.737q0-.463-.2-.734-.2-.272-.543-.272zm0-.364q.56 0 .879.364.319.363.319 1.006 0 .641-.32 1.007-.319.364-.878.364-.561 0-.88-.364-.318-.366-.318-1.007 0-.643.317-1.006.32-.364.881-.364zM8.926 199.233q-.072-.042-.159-.06-.084-.022-.186-.022-.364 0-.56.238-.193.235-.193.678v1.375h-.43v-2.61h.43v.406q.135-.238.352-.352.217-.117.527-.117.044 0 .098.007.053.005.118.017l.003.44zM11.47 199.867v1.575h-.428v-1.561q0-.37-.145-.555-.144-.184-.433-.184-.347 0-.548.221-.2.222-.2.604v1.475h-.431v-2.61h.43v.406q.155-.236.362-.352.21-.117.482-.117.45 0 .68.28.231.277.231.818zM13.847 199.233q-.072-.042-.158-.06-.084-.022-.186-.022-.364 0-.56.238-.193.235-.193.678v1.375h-.431v-2.61h.43v.406q.136-.238.353-.352.216-.117.526-.117.045 0 .098.007.054.005.12.017l.001.44zM15.215 199.133q-.345 0-.545.27-.2.268-.2.736 0 .469.198.74.2.267.547.267.343 0 .543-.27t.2-.737q0-.463-.2-.734-.2-.272-.543-.272zm0-.364q.56 0 .879.364.32.363.32 1.006 0 .641-.32 1.007-.32.364-.879.364-.561 0-.88-.364-.317-.366-.317-1.007 0-.643.316-1.006.32-.364.881-.364zM16.877 198.832h.429l.536 2.037.533-2.037h.506l.536 2.037.534-2.037h.428l-.682 2.61h-.506l-.562-2.14-.564 2.14h-.505l-.683-2.61zM22.696 198.909v.405q-.182-.093-.378-.14-.196-.046-.405-.046-.32 0-.48.098-.159.098-.159.293 0 .15.114.236.115.084.46.16l.146.033q.457.098.648.278.194.177.194.496 0 .363-.29.575-.286.213-.79.213-.21 0-.438-.042-.226-.04-.477-.122v-.442q.237.123.468.186.23.06.457.06.303 0 .466-.102.163-.105.163-.294 0-.174-.119-.268-.116-.093-.515-.179l-.149-.035q-.398-.084-.575-.256-.178-.175-.178-.478 0-.368.261-.569.261-.2.741-.2.238 0 .448.035.21.035.387.105z"/>
        </g>
        <g style="line-height:125%" font-weight="400" font-size="1.984" font-family="sans-serif" letter-spacing="0" word-spacing="0" fill="#fff">
            <path d="M2.065 203.557q.086-.154.205-.227.119-.073.28-.073.216 0 .334.152.118.151.118.431v.837h-.23v-.83q0-.199-.07-.295-.07-.097-.215-.097-.178 0-.28.118-.103.117-.103.32v.784h-.23v-.83q0-.2-.07-.295-.07-.097-.218-.097-.174 0-.277.119-.103.118-.103.32v.783H.977v-1.387h.23v.216q.077-.128.186-.188.109-.061.259-.061.151 0 .256.077.107.076.157.223zM4.083 203.98q-.276 0-.383.063-.106.063-.106.216 0 .121.079.193.08.07.218.07.19 0 .303-.133.115-.135.115-.358v-.05h-.226zm.454-.094v.791H4.31v-.21q-.078.126-.194.187-.116.06-.285.06-.213 0-.34-.12-.124-.12-.124-.32 0-.234.156-.353.157-.12.468-.12h.32v-.021q0-.158-.105-.243-.102-.087-.29-.087-.118 0-.231.029-.113.028-.217.085v-.21q.125-.049.243-.072.118-.025.23-.025.3 0 .449.156.148.156.148.473zM6.01 203.344v.213q-.096-.054-.194-.08-.096-.027-.195-.027-.222 0-.344.141-.123.14-.123.394t.123.395q.122.14.344.14.099 0 .195-.026.098-.027.195-.08v.21q-.095.045-.198.067-.102.022-.217.022-.313 0-.498-.197-.184-.197-.184-.531 0-.34.185-.534.187-.194.512-.194.105 0 .205.022.1.021.195.064zM7.208 203.503q-.038-.022-.084-.032-.044-.011-.099-.011-.193 0-.297.126-.103.125-.103.36v.73h-.229v-1.386h.23v.215q.071-.126.186-.187.115-.062.28-.062.024 0 .052.004.029.003.063.01l.001.233zM7.935 203.45q-.183 0-.29.144-.106.142-.106.391 0 .249.105.393.107.142.291.142.182 0 .289-.144.106-.143.106-.39 0-.247-.106-.391-.107-.145-.289-.145zm0-.193q.298 0 .467.193.17.193.17.535 0 .34-.17.535-.17.193-.467.193-.298 0-.468-.193-.168-.194-.168-.535 0-.342.168-.535.17-.193.468-.193zM10.296 203.45q-.184 0-.29.144-.107.142-.107.391 0 .249.106.393.106.142.29.142.183 0 .29-.144.106-.143.106-.39 0-.247-.107-.391-.106-.145-.288-.145zm0-.193q.297 0 .467.193.17.193.17.535 0 .34-.17.535-.17.193-.467.193-.299 0-.468-.193-.169-.194-.169-.535 0-.342.169-.535.17-.193.468-.193zM12.193 203.331v.216q-.097-.05-.2-.075-.105-.024-.216-.024-.17 0-.255.052-.085.052-.085.156 0 .079.061.125.06.044.244.085l.078.018q.243.052.344.147.103.094.103.264 0 .193-.153.306-.153.112-.42.112-.112 0-.233-.022-.12-.02-.254-.064v-.235q.126.065.249.099.123.032.243.032.16 0 .247-.055t.087-.156q0-.093-.063-.142-.062-.05-.274-.095l-.079-.019q-.212-.045-.306-.136-.094-.093-.094-.254 0-.196.139-.302.138-.107.393-.107.127 0 .238.019.112.018.206.056zM13.63 203.344v.213q-.097-.054-.195-.08-.097-.027-.196-.027-.221 0-.344.141-.123.14-.123.394t.123.395q.123.14.344.14.1 0 .196-.026.098-.027.194-.08v.21q-.095.045-.198.067-.101.022-.217.022-.313 0-.497-.197-.185-.197-.185-.531 0-.34.186-.534.187-.194.511-.194.106 0 .206.022.1.021.194.064zM14.023 203.29h.228v1.387h-.228v-1.387zm0-.54h.228v.289h-.228v-.289zM14.727 202.75h.227v1.927h-.227v-1.927zM15.43 202.75h.228v1.927h-.228v-1.927zM16.764 203.98q-.277 0-.383.063-.107.063-.107.216 0 .121.08.193.08.07.218.07.19 0 .303-.133.115-.135.115-.358v-.05h-.226zm.454-.094v.791h-.228v-.21q-.078.126-.194.187-.117.06-.285.06-.213 0-.34-.12-.124-.12-.124-.32 0-.234.156-.353.157-.12.468-.12h.32v-.021q0-.158-.105-.243-.103-.087-.29-.087-.118 0-.231.029-.113.028-.217.085v-.21q.125-.049.243-.072.118-.025.229-.025.3 0 .45.156.148.156.148.473zM17.919 202.897v.393h.47v.177h-.47v.753q0 .17.046.218.047.049.19.049h.233v.19h-.234q-.263 0-.364-.097-.1-.1-.1-.36v-.752h-.167v-.178h.167v-.393h.229zM19.227 203.45q-.184 0-.29.144-.107.142-.107.391 0 .249.106.393.106.142.29.142.183 0 .29-.144.106-.143.106-.39 0-.247-.107-.391-.106-.145-.288-.145zm0-.193q.297 0 .467.193.17.193.17.535 0 .34-.17.535-.17.193-.467.193-.299 0-.468-.193-.169-.194-.169-.535 0-.342.169-.535.17-.193.468-.193zM21.043 203.503q-.038-.022-.084-.032-.044-.011-.099-.011-.193 0-.297.126-.103.125-.103.36v.73h-.229v-1.386h.23v.215q.071-.126.186-.187.115-.062.28-.062.024 0 .052.004.028.003.063.01l.001.233z"/>
        </g>
        <g style="line-height:125%" font-weight="400" font-size="2.646" font-family="sans-serif" letter-spacing="0" word-spacing="0" fill="#fff">
            <path d="M10.23 249.816h1.131v.225h-.865v.58h.78v.225h-.78v.94h-.267v-1.97zM11.78 249.816h.398l.503 1.34.505-1.34h.397v1.97h-.26v-1.73l-.508 1.352h-.268l-.507-1.351v1.73h-.26v-1.97z"/>
        </g>
        <g style="line-height:125%" font-weight="400" font-size="2.646" font-family="sans-serif" letter-spacing="0" word-spacing="0" fill="#fff">
            <path d="M7.847 259.736h1.345v.181h-.565v1.41h-.216v-1.41h-.564v-.181zM9.405 259.736h.215v1.59h-.215v-1.59zM10.049 259.736h.32l.406 1.082.408-1.082h.321v1.59h-.21v-1.396l-.41 1.09h-.216l-.41-1.09v1.397h-.21v-1.591zM12.143 260.567v.583h.345q.174 0 .257-.072.084-.072.084-.22 0-.15-.084-.22-.083-.071-.257-.071h-.345zm0-.654v.48h.319q.158 0 .234-.06.078-.06.078-.18 0-.121-.078-.18-.076-.06-.234-.06h-.319zm-.215-.177h.55q.246 0 .38.102.132.102.132.291 0 .146-.068.232-.068.087-.2.108.159.034.246.143.088.107.088.27 0 .212-.145.328-.144.117-.412.117h-.57v-1.591zM14.178 260.58q.07.024.134.1.067.078.133.212l.218.435h-.231l-.204-.409q-.079-.16-.153-.212-.074-.052-.201-.052h-.235v.673h-.215v-1.591h.486q.272 0 .407.114.134.114.134.344 0 .15-.07.25-.07.098-.203.137zm-.539-.667v.564h.27q.156 0 .235-.071.08-.072.08-.212t-.08-.21q-.079-.071-.234-.071h-.27zM14.941 259.736h1.006v.181h-.79v.47h.757v.182h-.758v.576h.81v.182H14.94v-1.591z"/>
        </g>
        <g style="line-height:125%" font-weight="400" font-size="2.646" font-family="sans-serif" letter-spacing="0" word-spacing="0" fill="#fff">
            <path d="M9.395 271.664v.234q-.112-.105-.24-.156-.126-.052-.27-.052-.28 0-.43.173-.15.171-.15.497 0 .324.15.497.15.172.43.172.144 0 .27-.052.128-.052.24-.156v.232q-.116.08-.247.119-.13.04-.275.04-.373 0-.588-.228-.214-.23-.214-.624 0-.396.214-.624.215-.229.588-.229.147 0 .277.04.13.038.245.117zM10.407 271.688q-.242 0-.385.18-.142.18-.142.492 0 .31.142.49.143.181.385.181.242 0 .383-.18.142-.18.142-.491t-.142-.492q-.14-.18-.383-.18zm0-.18q.346 0 .553.231.206.231.206.62 0 .39-.206.621-.207.231-.553.231-.346 0-.554-.23-.207-.232-.207-.621 0-.39.207-.62.208-.233.554-.233zM11.514 271.537h.222v1.455h.8v.188h-1.022v-1.643zM13.356 271.688q-.242 0-.385.18-.142.18-.142.492 0 .31.142.49.143.181.385.181.242 0 .383-.18.141-.18.141-.491t-.141-.492q-.141-.18-.383-.18zm0-.18q.345 0 .552.231.207.231.207.62 0 .39-.207.621-.207.231-.552.231-.347 0-.555-.23-.207-.232-.207-.621 0-.39.207-.62.208-.233.555-.233zM15.241 272.41q.072.024.139.103.068.079.136.218l.226.449h-.239l-.21-.422q-.081-.165-.158-.219-.076-.054-.208-.054h-.242v.695h-.223v-1.643h.502q.282 0 .42.118.139.117.139.355 0 .155-.073.257-.071.103-.209.142zm-.556-.69v.583h.28q.16 0 .241-.074.083-.075.083-.219 0-.144-.083-.217-.081-.073-.242-.073h-.28z"/>
        </g>
        <rect width="9.565" height="10.94" x="7.124" y="277.963" ry="1.088" rx="1.313" fill="#606060"/>
        <g style="line-height:125%" font-weight="400" font-size="2.646" font-family="sans-serif" letter-spacing="0" word-spacing="0" fill="#fff">
            <path d="M10.052 286.319q-.284 0-.452.212-.166.212-.166.577 0 .364.166.576.168.212.452.212.285 0 .45-.212.167-.212.167-.576 0-.365-.167-.577-.165-.212-.45-.212zm0-.212q.406 0 .649.273.243.27.243.728 0 .456-.243.729-.243.271-.649.271-.407 0-.65-.271-.244-.271-.244-.729 0-.457.243-.728.244-.273.651-.273zM11.322 286.142h.263v1.172q0 .31.112.447.112.135.364.135.25 0 .363-.135.113-.137.113-.447v-1.172h.262v1.204q0 .377-.187.57-.186.192-.55.192-.366 0-.554-.192-.186-.193-.186-.57v-1.204zM13.022 286.142h1.632v.22h-.685v1.709h-.262v-1.71h-.685v-.22z"/>
        </g>
        <g style="line-height:125%" font-weight="400" font-size="2.646" font-family="sans-serif" letter-spacing="0" word-spacing="0" fill="#fff">
            <path d="M1.22 222.422h1.682v.226h-.705v1.762h-.27v-1.762H1.22v-.226zM4.111 223.478q.087.03.168.125.082.096.165.264l.273.543h-.289l-.254-.51q-.099-.2-.192-.265-.092-.065-.252-.065h-.293v.84H3.17v-1.988h.607q.34 0 .508.142.168.143.168.43 0 .188-.088.312-.086.124-.253.172zm-.674-.835v.706h.339q.194 0 .293-.09.1-.09.1-.264 0-.175-.1-.263-.099-.089-.293-.089h-.339zM5.065 222.422h.268v1.988h-.268v-1.988zM7.224 224.126v-.534h-.44v-.22h.706v.853q-.155.11-.343.168-.188.056-.4.056-.467 0-.73-.272-.263-.273-.263-.759 0-.487.262-.759.264-.273.73-.273.195 0 .369.048.176.048.323.141v.286q-.149-.126-.316-.19-.168-.064-.353-.064-.365 0-.549.204-.182.204-.182.607 0 .402.182.606.184.204.549.204.142 0 .254-.024.112-.026.201-.078z"/>
        </g>
        <g style="line-height:125%" font-weight="400" font-size="2.646" font-family="sans-serif" letter-spacing="0" word-spacing="0" fill="#fff">
            <path d="M1.66 245.672h.397v-1.373l-.432.087v-.222l.43-.087h.243v1.595h.398v.204H1.659v-.204zM3.63 245.876l-.686-1.799h.254l.57 1.515.571-1.515h.253l-.685 1.8H3.63zM5.238 244.077h.205l-.627 2.028h-.204l.626-2.028zM6.418 244.243q-.265 0-.422.197-.155.198-.155.539 0 .34.155.537.157.198.422.198t.42-.198q.154-.197.154-.537 0-.341-.155-.539-.154-.197-.42-.197zm0-.198q.378 0 .605.254.226.253.226.68 0 .425-.226.68-.227.252-.605.252-.38 0-.608-.253-.226-.253-.226-.68 0-.426.226-.679.228-.254.608-.254zM8.977 244.216v.257q-.123-.115-.263-.171-.138-.057-.295-.057-.308 0-.472.19-.164.187-.164.544 0 .355.164.544.164.188.472.188.157 0 .295-.056.14-.057.263-.171v.254q-.128.087-.271.13-.142.043-.301.043-.409 0-.644-.249-.235-.25-.235-.683 0-.434.235-.683.235-.251.644-.251.161 0 .303.043.144.042.269.128zM9.106 244.077h1.522v.205h-.639v1.594h-.244v-1.594h-.64v-.205z"/>
        </g>
        <g style="line-height:125%" font-weight="400" font-size="1.913" font-family="sans-serif" letter-spacing="0" word-spacing="0" fill="#fff">
            <path d="M9.47 234.785h1.002v.199h-.766v.514h.691v.198h-.691v.833H9.47v-1.744zM10.844 234.785h.236v1.744h-.236v-1.744zM11.55 234.785h.317l.774 1.46v-1.46h.229v1.744h-.318l-.773-1.459v1.46h-.23v-1.745zM13.34 234.785h1.102v.199h-.867v.516h.831v.199h-.83v.632h.887v.198H13.34v-1.744z"/>
        </g>
        <g style="line-height:125%" font-weight="400" font-size="1.939" font-family="sans-serif" letter-spacing="0" word-spacing="0" fill="#fff">
            <path d="M14.691 244.28v.242q-.115-.108-.247-.161-.13-.054-.278-.054-.29 0-.445.178-.154.177-.154.513 0 .335.154.513.155.177.445.177.148 0 .278-.053.132-.054.247-.161v.24q-.12.08-.255.122-.134.04-.284.04-.384 0-.605-.234-.222-.236-.222-.644 0-.408.222-.643.22-.236.605-.236.152 0 .286.04.135.04.253.121zM15.735 244.305q-.25 0-.397.186-.146.186-.146.507 0 .32.146.506.147.186.397.186t.395-.186q.146-.186.146-.506t-.146-.507q-.145-.186-.395-.186zm0-.186q.356 0 .57.24.213.238.213.64 0 .4-.213.64-.214.237-.57.237-.357 0-.572-.238-.213-.238-.213-.64 0-.401.213-.64.215-.239.572-.239zM17.404 244.375l-.31.843h.622l-.312-.843zm-.13-.225h.26l.646 1.694h-.238l-.155-.435h-.763l-.154.435h-.242l.647-1.694zM19.232 245.05q.073.024.143.106.07.082.14.225l.233.463h-.246l-.217-.435q-.084-.17-.163-.226-.079-.055-.215-.055h-.25v.716h-.229v-1.694h.518q.29 0 .433.121.143.121.143.367 0 .16-.075.265-.074.106-.215.146zm-.574-.712v.601h.288q.165 0 .25-.076.084-.077.084-.225 0-.15-.085-.224-.084-.076-.25-.076h-.287zM21.06 244.205v.224q-.131-.063-.247-.093-.116-.03-.223-.03-.188 0-.29.072-.1.072-.1.206 0 .112.066.17.068.057.257.092l.138.029q.257.048.378.172.122.123.122.33 0 .245-.165.372t-.484.127q-.12 0-.256-.027-.135-.027-.28-.08v-.236q.14.078.273.118.134.04.263.04.197 0 .303-.078.107-.077.107-.22 0-.125-.077-.195-.076-.07-.25-.105l-.14-.028q-.257-.05-.371-.16-.115-.109-.115-.303 0-.224.158-.354.159-.129.437-.129.119 0 .242.022.124.021.253.064zM21.523 244.15h1.071v.193h-.841v.501h.806v.193h-.806v.614h.862v.193h-1.092v-1.694z"/>
        </g>
        <path d="M31.483 294.933l-17.042-.125-14.418.125-.878-3.47c4.81-1.004 10.75-1.724 16.17-1.72 5.716.006 9.887.467 17.047 1.845z" clip-path="url(#c)" fill="url(#d)" stroke="#8b8b8b" stroke-width=".397"/>
        <flowRoot transform="matrix(.26458 0 0 .26458 -58.46 115.922)" style="line-height:125%" xml:space="preserve" font-style="normal" font-weight="400" font-size="10" font-family="sans-serif" letter-spacing="0" word-spacing="0" fill="#000" fill-opacity="1" stroke="none" stroke-width="1" stroke-linecap="butt" stroke-linejoin="miter" stroke-opacity="1">
            <flowRegion>
                <path d="M323.249 35.538h7.829v72.478h-7.829z"/>
            </flowRegion>
            <flowPara/>
        </flowRoot>
        <path d="M0 291.993c10.904-1.21 21.546-.99 31.75.123l-.033 3.296H0z" clip-path="url(#e)"/>
        <g transform="matrix(.23845 0 0 .23845 -51.671 293.973)" clip-path="url(#f)">
            <path d="M291.232-10.527l6.43-3.034 5.953-.742 4.222.511 5.886 2.16 4.683 4.37z" fill-rule="evenodd"/>
            <g stroke="#fff">
                <g color="#000" fill="none" stroke-linejoin="bevel">
                    <path d="M2.117 188.81l18.113 36.226 65.551 31.913 90.564 13.8 94.877-11.213 60.376-31.913 14.663-30.188-14.663-37.951.324 67.923-33.1-64.473-25.875 96.602-58.651-80.214-40.538 91.427-40.538-75.902-46.576 61.239-17.098-92.852-49.316 62.663 6.037-89.702 44.241 27.296 63.574 32.218 80-16.819 86.466-15.957 31.051-3.666-33.279-62.05 1.366 64.853-64.689-74.392-20.7 91.427-69.001-66.198-75.902 50.026L84.751 80.38l-59.346 55.816 24.151-56.064h34.501l81.077-37.088-18.975 69.864 89.702-24.15 62.101 7.762-66.314-54.334 4.212 46.571-70.726-45.713 66.414-1.725-53.476-15.525-12.938 16.388-49.164-6.9-66.414 44.85-33.333 49.417 9.183 6.647L2.118 188.81z" stroke-width="2.892" transform="matrix(.09825 0 0 .0698 286.195 -16.043)"/>
                    <path d="M133.17 195.51l12.99-80.876-61.407-35.517 32.081-44.697 28.463-4.313 32.776-5.175 41.401 6.9 12.938 10.35 47.438 20.7 18.975 34.501 30.188 30.188 2.803 31.913" stroke-width="2.892" transform="matrix(.09825 0 0 .0698 286.195 -16.043)"/>
                    <path d="M329.01 126.71l-49.16-63.83-59.77-31.05M1.926 188.186L16.11 129.84" stroke-width="2" transform="matrix(.09825 0 0 .0698 286.195 -16.043)"/>
                </g>
            </g>
            <path d="M320.187-2.25l-1.666-4.93" fill="none" stroke="#fff" stroke-width=".2"/>
        </g>
        <path d="M2.826 292.087l3.72-1.531.758.608 1.108-.783 2.215.291.933-.35 3.024.98-1.042.478-9.503.292z" clip-path="url(#i)" fill-rule="evenodd"/>
        <g style="line-height:125%" font-weight="400" font-size="2.646" font-family="sans-serif" letter-spacing="0" word-spacing="0" fill="#fff">
            <path d="M7.576 264.07h1.697v.212H7.576v-.211zM15.516 263.243v.72h.72v.219h-.72v.72H15.3v-.72h-.72v-.22h.72v-.72h.217z"/>
        </g>
        <g style="line-height:125%" font-weight="400" font-size="1.984" font-family="sans-serif" letter-spacing="0" word-spacing="0" fill="#fff">
            <path d="M2.835 295.14v.169q-.075-.039-.157-.058-.081-.02-.168-.02-.133 0-.2.04-.066.042-.066.123 0 .062.048.098.047.035.19.067l.061.013q.19.041.27.116.08.073.08.206 0 .151-.12.24-.12.088-.328.088-.088 0-.183-.018-.094-.016-.198-.05v-.184q.099.051.195.077.096.025.19.025.125 0 .193-.042.068-.044.068-.122 0-.073-.05-.112-.048-.038-.213-.074l-.062-.015q-.166-.035-.24-.106-.073-.073-.073-.199 0-.153.108-.236.109-.084.308-.084.1 0 .186.015.087.014.161.043zM4.862 295.233q-.143 0-.227.113-.083.111-.083.306 0 .194.082.307.084.111.228.111.143 0 .226-.112.083-.112.083-.306 0-.193-.083-.305-.083-.114-.226-.114zm0-.151q.233 0 .365.151.133.151.133.419 0 .266-.133.418-.132.151-.365.151-.233 0-.366-.15-.132-.153-.132-.42t.132-.418q.133-.151.366-.151zM6.9 295.765v-.657h.178v.65q0 .154.06.232.06.076.18.076.145 0 .228-.092.084-.092.084-.25v-.616h.179v1.085H7.63v-.166q-.065.098-.15.147-.086.047-.2.047-.186 0-.283-.116-.097-.116-.097-.34zM9.618 294.8v.308h.367v.139h-.367v.589q0 .133.035.17.037.038.149.038h.183v.15h-.183q-.207 0-.285-.077-.079-.078-.079-.281v-.59h-.13v-.138h.13v-.308h.18zM12.386 295.538v.655h-.178v-.649q0-.154-.06-.23-.06-.077-.18-.077-.145 0-.228.092-.084.092-.084.251v.613h-.179v-1.507h.18v.59q.063-.097.15-.146.087-.048.2-.048.187 0 .283.116.096.116.096.34zM14.18 296.03v.576H14v-1.498h.18v.165q.056-.097.14-.144.087-.047.206-.047.198 0 .321.157.124.157.124.413 0 .255-.124.412-.123.157-.32.157-.12 0-.206-.046-.085-.048-.142-.144zm.606-.378q0-.197-.081-.308-.08-.113-.222-.113-.142 0-.223.113-.08.111-.08.308 0 .196.08.309.081.111.223.111.141 0 .222-.111.08-.113.08-.31zM16.95 295.233q-.143 0-.226.113-.084.111-.084.306 0 .194.083.307.083.111.228.111.142 0 .225-.112.084-.112.084-.306 0-.193-.084-.305-.083-.114-.225-.114zm0-.151q.233 0 .366.151.133.151.133.419 0 .266-.133.418-.133.151-.365.151-.234 0-.367-.15-.132-.153-.132-.42t.132-.418q.133-.151.367-.151zM19.007 294.686h.178v1.507h-.178v-1.507zM21.749 295.606v.087h-.82q.012.184.11.281.1.096.278.096.102 0 .198-.025.097-.025.192-.076v.17q-.096.04-.197.061-.1.021-.204.021-.26 0-.412-.15-.151-.152-.151-.41 0-.266.143-.422.145-.157.389-.157.219 0 .346.141.128.14.128.383zm-.179-.052q-.002-.146-.082-.234-.08-.087-.211-.087-.15 0-.24.084-.089.085-.102.238l.635-.001z"/>
        </g>
    </g>
</svg>
