<svg xmlns="http://www.w3.org/2000/svg" xmlns:xlink="http://www.w3.org/1999/xlink" width="120" height="380" viewBox="0 0 31.75 100.542">
    <defs>
        <linearGradient id="a">
            <stop offset="0" stop-color="#fdfdfd"/>
            <stop offset="1" stop-color="#fdfdfd"/>
        </linearGradient>
        <radialGradient gradientUnits="userSpaceOnUse" gradientTransform="matrix(.4218 0 0 .02673 -105.982 272.192)" r="69.827" fy="856.052" fx="285.494" cy="856.052" cx="285.494" id="e" xlink:href="#a"/>
        <clipPath clipPathUnits="userSpaceOnUse" id="i">
            <path fill="#623a58" stroke-width="3.543" d="M173.658 27.835h120v42.33h-120z"/>
        </clipPath>
        <clipPath clipPathUnits="userSpaceOnUse" id="h">
            <path fill="#623a58" stroke-width="3.543" d="M0 285.8h31.75V297H0z"/>
        </clipPath>
        <clipPath clipPathUnits="userSpaceOnUse" id="g">
            <path fill="#623a58" stroke-width="3.543" d="M216.698-34.274H349.85v46.969H216.698z"/>
        </clipPath>
        <clipPath clipPathUnits="userSpaceOnUse" id="f">
            <path fill="#623a58" stroke-width="3.543" d="M0 285.8h31.75V297H0z"/>
        </clipPath>
        <clipPath clipPathUnits="userSpaceOnUse" id="d">
            <path fill="#623a58" stroke-width="3.543" d="M0 285.8h31.75V297H0z"/>
        </clipPath>
        <clipPath clipPathUnits="userSpaceOnUse" id="c">
            <path fill="#fff" stroke-width="3.543" d="M-.087 225.234h24.891v15.669H-.087z"/>
        </clipPath>
        <clipPath clipPathUnits="userSpaceOnUse" id="b">
            <rect width="31.75" height="20.892" y="269.335" ry=".412" fill="#505050"/>
        </clipPath>
    </defs>
    <path d="M0 0h31.75v100.542H0z" fill-rule="evenodd"/>
    <path d="M.323 277.336h17.91c1.787 0 3.226 1.116 3.226 2.502v6.961c0 1.386-1.439 2.502-3.226 2.502H.323c-1.787 0-3.226-1.116-3.226-2.502v-6.961c0-1.386 1.439-2.502 3.226-2.502z" clip-path="url(#b)" transform="matrix(.78703 0 0 1 0 -196.458)" fill="#ff0"/>
    <path d="M.089 225.67h13.89a2.496 2.496 0 0 1 2.502 2.502v6.961a2.496 2.496 0 0 1-2.502 2.502H.09a2.496 2.496 0 0 1-2.502-2.502v-6.961a2.496 2.496 0 0 1 2.502-2.502z" clip-path="url(#c)" transform="matrix(1.01938 0 0 .9659 .089 -188.354)" fill="#ff0"/>
    <path d="M0 39.293h31.75V59.98H0z" fill="#3a3a3a"/>
    <path d="M.171 58.273h17.935c7.43 0 2.508-3.364 13.391-3.364l.253 10.143H0z" fill="#151515"/>
    <path d="M24.476 84.758h5.589c.586 0 1.057.358 1.057.804v6.477c0 .445-.471.804-1.057.804h-5.589c-.586 0-1.057-.359-1.057-.804v-6.477c0-.446.471-.804 1.057-.804z" fill="#4a4a4a"/>
    <path d="M31.483 294.933l-17.042-.125-14.418.125-.878-3.47c4.81-1.004 10.75-1.724 16.17-1.72 5.716.006 9.887.467 17.047 1.845z" clip-path="url(#d)" fill="url(#e)" stroke="#8b8b8b" stroke-width=".397" transform="translate(0 -196.458)"/>
    <path d="M0 291.993c10.904-1.21 21.546-.99 31.75.123l-.033 3.296H0z" clip-path="url(#f)" transform="translate(0 -196.458)"/>
    <g transform="matrix(.23845 0 0 .23845 -50.084 97.515)" clip-path="url(#g)">
        <path d="M291.232-10.527l6.43-3.034 5.953-.742 4.222.511 5.886 2.16 4.683 4.37z" fill-rule="evenodd"/>
        <g stroke="#fff">
            <g color="#000" fill="none" stroke-linejoin="bevel">
                <path d="M2.117 188.81l18.113 36.226 65.551 31.913 90.564 13.8 94.877-11.213 60.376-31.913 14.663-30.188-14.663-37.951.324 67.923-33.1-64.473-25.875 96.602-58.651-80.214-40.538 91.427-40.538-75.902-46.576 61.239-17.098-92.852-49.316 62.663 6.037-89.702 44.241 27.296 63.574 32.218 80-16.819 86.466-15.957 31.051-3.666-33.279-62.05 1.366 64.853-64.689-74.392-20.7 91.427-69.001-66.198-75.902 50.026L84.751 80.38l-59.346 55.816 24.151-56.064h34.501l81.077-37.088-18.975 69.864 89.702-24.15 62.101 7.762-66.314-54.334 4.212 46.571-70.726-45.713 66.414-1.725-53.476-15.525-12.938 16.388-49.164-6.9-66.414 44.85-33.333 49.417 9.183 6.647L2.118 188.81z" stroke-width="2.892" transform="matrix(.09825 0 0 .0698 286.195 -16.043)"/>
                <path d="M133.17 195.51l12.99-80.876-61.407-35.517 32.081-44.697 28.463-4.313 32.776-5.175 41.401 6.9 12.938 10.35 47.438 20.7 18.975 34.501 30.188 30.188 2.803 31.913" stroke-width="2.892" transform="matrix(.09825 0 0 .0698 286.195 -16.043)"/>
                <path d="M329.01 126.71l-49.16-63.83-59.77-31.05M1.926 188.186L16.11 129.84" stroke-width="2" transform="matrix(.09825 0 0 .0698 286.195 -16.043)"/>
            </g>
        </g>
        <path d="M320.187-2.25l-1.666-4.93" fill="none" stroke="#fff" stroke-width=".2"/>
    </g>
    <path d="M2.826 292.087l3.72-1.531.758.608 1.108-.783 2.215.291.933-.35 3.024.98-1.042.478-9.503.292z" clip-path="url(#h)" fill-rule="evenodd" transform="translate(0 -196.458)"/>
    <g style="line-height:125%" transform="matrix(.26458 0 0 .26458 -45.947 81.977)" clip-path="url(#i)" font-weight="400" font-size="7.5" font-family="Geneva" letter-spacing="0" word-spacing="0" fill="#fff">
        <path style="-inkscape-font-specification:Geneva" d="M186.153 66.995h.681v.015q0 .263.201.44.202.171.682.171.42 0 .68-.205.264-.205.264-.483 0-.377-.512-.535l-.348-.106-.23-.073-.473-.147q-.81-.296-.81-.985 0-.483.392-.85.392-.366 1.165-.366.761 0 1.084.315.322.311.322.692v.015h-.685v-.015q0-.205-.209-.322-.205-.117-.549-.117-.41 0-.63.172-.216.168-.216.417 0 .19.14.312.142.117.475.212l.33.092.238.07q.498.142.619.2.124.06.249.15.172.133.253.32.084.186.084.435 0 .579-.418.974-.413.396-1.212.396-.505 0-.838-.15-.334-.15-.531-.414-.198-.267-.198-.615v-.015zM199.465 68.189q-.802 0-1.37-.542-.564-.546-.564-1.619 0-1.07.564-1.611.568-.546 1.37-.546.798 0 1.362.546.568.542.568 1.611 0 1.073-.568 1.619-.564.542-1.362.542zm0-.568q.549 0 .882-.436.337-.439.337-1.157 0-.714-.337-1.15-.333-.44-.882-.44-.553 0-.89.44-.334.436-.334 1.15 0 .718.334 1.157.337.436.89.436zM212.4 63.985h.68v4.09h-.68v-.714q-.213.33-.418.495-.205.164-.421.249-.217.084-.473.084-.567 0-.963-.319-.396-.322-.396-1.292v-2.593h.682v2.307q0 .897.238 1.084.238.187.59.187.303 0 .57-.176.272-.18.429-.498.161-.322.161-.894v-2.01zM224.18 67.497v.571q-.498.12-.762.12-.38 0-.688-.153-.304-.154-.465-.447-.158-.293-.158-.934v-2.102h-.71v-.567h.71v-.967h.682v.967h1.193v.567h-1.193v1.908q0 .542.084.755.084.208.263.307.184.1.436.1.202 0 .608-.125zM233.2 68.075h-.681v-5.91h.68v2.527q.217-.334.418-.495.206-.161.425-.242.224-.084.495-.084.384 0 .688.158.308.157.476.465.169.304.169.978v2.603h-.682v-2.31q0-.55-.073-.777-.073-.23-.278-.359-.205-.132-.469-.132-.3 0-.571.176-.271.176-.436.49-.161.316-.161.902v2.01zM245.04 69.665h-.682v-5.68h.682v.71q.212-.362.402-.513.194-.15.436-.23.242-.08.498-.08.469 0 .857.256.388.252.6.758.217.505.217 1.135 0 .934-.45 1.553-.447.615-1.257.615-.26 0-.494-.077-.23-.073-.41-.22-.18-.15-.4-.53v2.303zm0-3.633q0 .696.3 1.142.3.447.846.447.498 0 .827-.395.33-.396.33-1.183 0-.92-.348-1.275-.348-.358-.795-.358-.322 0-.604.197-.278.194-.417.583-.14.384-.14.842zM258.176 68.189q-.802 0-1.37-.542-.564-.546-.564-1.619 0-1.07.564-1.611.568-.546 1.37-.546.798 0 1.362.546.567.542.567 1.611 0 1.073-.567 1.619-.564.542-1.362.542zm0-.568q.549 0 .882-.436.337-.439.337-1.157 0-.714-.337-1.15-.333-.44-.882-.44-.553 0-.89.44-.334.436-.334 1.15 0 .718.334 1.157.337.436.89.436zM269.177 68.075h-.682v-5.91h.682v5.91zM280.456 67.024h.681v.037q0 .27-.216.553-.216.282-.571.428-.356.147-.817.147-.934 0-1.443-.604-.505-.605-.505-1.528 0-.944.534-1.563.539-.623 1.385-.623.465 0 .842.202.377.201.597.63.22.424.22 1.186v.227h-2.904q0 .656.351 1.08.355.425.982.425.45 0 .655-.172.209-.176.209-.388v-.037zm-2.154-1.42h2.209v-.081q0-.286-.14-.553-.135-.271-.377-.4-.241-.131-.564-.131-.38 0-.703.307-.322.304-.425.857z"/>
    </g>
    <g style="-inkscape-font-specification:sans-serif" font-weight="400" font-size="1.984" font-family="sans-serif" fill="#fff" stroke-width="3.543">
        <path d="M1.195 27.301H2.42v.165h-.513v1.282h-.197v-1.282h-.514V27.3zM3.299 28.07q.063.02.122.09.06.07.12.192l.199.396h-.21l-.185-.371q-.072-.146-.14-.193-.067-.048-.183-.048h-.213v.612h-.196V27.3h.442q.248 0 .37.104.122.103.122.313 0 .136-.064.226-.063.09-.184.125zm-.49-.608v.513h.246q.141 0 .213-.064.073-.066.073-.193t-.073-.191q-.072-.065-.213-.065h-.246zM3.993 27.301h.195v1.447h-.195V27.3zM5.564 28.541v-.388h-.32v-.161h.514v.621q-.113.08-.25.122-.136.04-.292.04-.339 0-.53-.197-.191-.198-.191-.552 0-.355.19-.552.192-.2.531-.2.142 0 .269.036.128.035.235.103v.208q-.108-.092-.23-.139-.122-.046-.257-.046-.266 0-.4.148-.132.148-.132.442 0 .292.133.44.133.149.399.149.104 0 .185-.017.081-.019.146-.057z"/>
    </g>
    <g style="-inkscape-font-specification:sans-serif" font-weight="400" font-size="1.984" font-family="sans-serif" fill="#fff" stroke-width="3.543">
        <path d="M8.964 27.33h1.223v.164h-.513v1.282h-.197v-1.282h-.513v-.165zM10.577 27.49v1.125h.236q.3 0 .438-.136.14-.135.14-.428 0-.29-.14-.425-.138-.136-.438-.136h-.236zm-.196-.16h.402q.42 0 .618.175.196.174.196.546 0 .374-.197.55-.198.175-.617.175h-.402v-1.447zM11.908 27.33h.196v1.281h.704v.165h-.9v-1.447zM12.55 27.33h.211l.401.594.398-.595h.21l-.511.758v.689h-.197v-.69l-.511-.757z"/>
    </g>
    <g style="-inkscape-font-specification:sans-serif" font-weight="400" font-size="1.984" font-family="sans-serif" stroke-width="3.543">
        <path d="M1.777 36.797v1.985h-.164v-1.985h.164zM2.196 36.867l.504 1.63h-.165l-.504-1.63h.165zM3.38 37.06l-.265.72h.532l-.267-.72zm-.11-.193h.222l.55 1.447H3.84l-.131-.371h-.653l-.131.37h-.207l.553-1.446zM3.897 36.867h1.224v.165h-.513v1.282H4.41v-1.282h-.514v-.165z"/>
        <path d="M5.082 36.867h1.223v.165h-.513v1.282h-.197v-1.282h-.513v-.165z"/>
    </g>
    <g style="-inkscape-font-specification:sans-serif" font-weight="400" font-size="1.984" font-family="sans-serif" stroke-width="3.543">
        <path d="M9.48 36.797v1.985h-.165v-1.985h.165zM9.899 36.867l.503 1.63h-.164l-.504-1.63h.165zM10.795 37.028v1.125h.236q.3 0 .438-.136.14-.135.14-.428 0-.29-.14-.425-.138-.136-.438-.136h-.236zm-.196-.16h.402q.42 0 .617.174.197.175.197.547 0 .374-.198.55-.197.175-.616.175H10.6v-1.447zM12.126 36.867h.915v.165h-.72v.428h.69v.165h-.69v.524h.737v.165h-.932v-1.447zM14.461 36.978v.207q-.099-.092-.211-.138-.111-.045-.237-.045-.248 0-.38.152-.132.151-.132.438 0 .286.132.438.132.151.38.151.126 0 .237-.046.112-.045.211-.137v.204q-.102.07-.218.105-.114.035-.242.035-.328 0-.517-.2-.19-.202-.19-.55 0-.349.19-.55.189-.201.517-.201.13 0 .244.035.115.034.216.103z"/>
    </g>
    <g style="-inkscape-font-specification:sans-serif" font-weight="400" font-size="1.984" font-family="sans-serif" fill="#fff" stroke-width="3.543">
        <path d="M25.642 46.431q-.213 0-.339.159-.125.159-.125.433 0 .273.125.432.126.16.34.16.212 0 .337-.16.124-.159.124-.432 0-.274-.124-.433-.125-.159-.338-.159zm0-.159q.305 0 .487.205.182.203.182.546 0 .342-.182.547-.182.203-.487.203t-.488-.203q-.182-.204-.182-.547 0-.343.182-.546.183-.205.488-.205zM27.7 46.41v.206q-.098-.092-.21-.137-.112-.046-.238-.046-.248 0-.38.152-.132.151-.132.438 0 .286.132.438.132.151.38.151.126 0 .237-.045.112-.046.211-.138v.205q-.102.07-.218.104-.114.035-.242.035-.328 0-.517-.2-.19-.202-.19-.55 0-.349.19-.55.189-.2.517-.2.13 0 .244.034.116.034.216.103zM27.804 46.298h1.224v.165h-.514v1.282h-.196v-1.282h-.514v-.165zM29.595 47.745l-.553-1.447h.205l.458 1.218.46-1.218h.203l-.552 1.447h-.221z"/>
    </g>
    <g style="-inkscape-font-specification:sans-serif" font-weight="400" font-size="1.984" font-family="sans-serif" fill="#fff" stroke-width="3.543">
        <path d="M1.748 47.589l-.553-1.447H1.4l.458 1.218.46-1.218h.203L1.97 47.59h-.222zM3.04 46.142h.165l-.504 1.631h-.165l.504-1.63zM3.989 46.275q-.213 0-.34.16-.124.158-.124.432 0 .273.125.432.126.16.339.16.213 0 .337-.16.125-.159.125-.432 0-.274-.125-.433-.124-.159-.337-.159zm0-.159q.304 0 .486.205.182.203.182.546 0 .342-.182.547-.182.203-.486.203-.305 0-.488-.203-.183-.204-.183-.547 0-.343.183-.546.183-.205.488-.205zM6.047 46.254v.206q-.099-.092-.211-.137-.112-.046-.238-.046-.248 0-.38.152-.131.151-.131.438 0 .286.131.438.132.151.38.151.126 0 .238-.045.112-.046.21-.138v.205q-.102.07-.217.104-.114.035-.242.035-.329 0-.518-.2-.189-.202-.189-.55 0-.349.19-.55.188-.2.517-.2.13 0 .244.034.115.034.216.103zM6.15 46.142h1.224v.165h-.513v1.282h-.197v-1.282h-.513v-.165z"/>
    </g>
    <g style="-inkscape-font-specification:sans-serif" font-weight="400" font-size="1.984" font-family="sans-serif" fill="#fff" stroke-width="3.543">
        <path d="M1.881 56.635q.063.02.122.09.06.07.12.193l.2.395h-.211l-.185-.371q-.072-.146-.14-.193-.066-.048-.183-.048h-.213v.612h-.196v-1.447h.442q.248 0 .37.104t.122.313q0 .136-.063.227-.063.09-.185.125zm-.49-.608v.514h.246q.142 0 .213-.065.073-.066.073-.193t-.073-.191q-.071-.065-.213-.065h-.246zM3.162 55.999q-.213 0-.339.159-.125.159-.125.433 0 .273.125.432.126.159.34.159.213 0 .337-.159.125-.159.125-.432 0-.274-.125-.433-.124-.159-.338-.159zm0-.159q.305 0 .487.205.182.203.182.546 0 .342-.182.546-.182.204-.487.204t-.488-.204q-.182-.203-.182-.546t.182-.546q.183-.205.488-.205zM4.724 55.999q-.213 0-.339.159-.125.159-.125.433 0 .273.125.432.126.159.34.159.212 0 .336-.159.125-.159.125-.432 0-.274-.125-.433-.124-.159-.337-.159zm0-.159q.305 0 .487.205.182.203.182.546 0 .342-.182.546-.182.204-.487.204t-.488-.204q-.182-.203-.182-.546t.182-.546q.183-.205.488-.205zM5.498 55.866h1.224v.165H6.21v1.282h-.197V56.03h-.514v-.165z"/>
    </g>
    <g style="-inkscape-font-specification:sans-serif" font-weight="400" font-size="1.984" font-family="sans-serif" stroke-width="3.543">
        <path d="M2.338 91.893v.53h.314q.158 0 .233-.064.077-.066.077-.201 0-.136-.077-.2-.075-.065-.233-.065h-.314zm0-.594v.436h.29q.143 0 .213-.054t.07-.164q0-.11-.07-.164-.07-.055-.214-.055h-.29zm-.196-.161h.5q.224 0 .345.093.12.093.12.264 0 .133-.061.211-.062.079-.182.098.144.031.224.13.08.098.08.245 0 .194-.132.3-.132.105-.375.105h-.52v-1.446zM3.502 91.138h.196v1.446h-.196v-1.446zM3.887 91.138h1.224v.164h-.514v1.282H4.4v-1.282h-.513v-.164zM6.172 91.185v.191q-.112-.053-.21-.08-.1-.026-.191-.026-.16 0-.248.062-.086.062-.086.177 0 .096.057.145.059.048.22.079l.118.024q.219.041.322.147.105.105.105.281 0 .21-.142.319-.14.108-.412.108-.103 0-.22-.023-.115-.023-.239-.069v-.201q.12.067.234.1.114.034.225.034.167 0 .258-.066.091-.065.091-.188 0-.106-.065-.166-.065-.06-.215-.09l-.119-.024q-.219-.043-.317-.136-.097-.093-.097-.259 0-.192.134-.302.136-.11.373-.11.102 0 .208.018.105.018.216.055z"/>
    </g>
    <g style="-inkscape-font-specification:sans-serif" font-weight="400" font-size="1.984" font-family="sans-serif" fill="#fff" stroke-width="3.543">
        <path d="M25.915 91.27q-.213 0-.34.16-.124.158-.124.432 0 .273.125.432.126.16.339.16.213 0 .337-.16.125-.159.125-.432 0-.274-.125-.433-.124-.159-.337-.159zm0-.159q.304 0 .486.205.182.203.182.546 0 .342-.182.547-.182.203-.486.203-.306 0-.489-.203-.182-.204-.182-.547 0-.343.182-.546.183-.205.489-.205zM26.867 91.137h.197v.88q0 .232.084.335.084.101.273.101.188 0 .273-.101.084-.103.084-.336v-.879h.197v.904q0 .282-.14.427-.14.144-.414.144-.274 0-.414-.144-.14-.145-.14-.427v-.904zM28.142 91.137h1.224v.165h-.513v1.282h-.197v-1.282h-.514v-.165z"/>
    </g>
    <g style="-inkscape-font-specification:sans-serif" font-weight="400" font-size="1.984" font-family="sans-serif" stroke-width="3.543">
        <path d="M10.001 91.88q.063.021.122.09.06.07.12.193l.2.395h-.211l-.185-.371q-.072-.146-.14-.193-.067-.047-.183-.047h-.213v.61h-.196v-1.446h.442q.248 0 .37.104t.122.313q0 .137-.064.227-.063.09-.184.125zm-.49-.608v.514h.246q.142 0 .213-.065.073-.066.073-.193t-.073-.19q-.071-.066-.213-.066h-.246z"/>
        <path d="M11.1 91.304l-.266.72h.532l-.267-.72zm-.111-.193h.221l.552 1.447h-.204l-.131-.371h-.653l-.131.37h-.207l.553-1.446zM11.618 91.111h1.224v.165h-.513v1.282h-.197v-1.282h-.514v-.165zM13.036 91.111h.915v.165h-.72v.428h.69v.165h-.69v.524h.737v.165h-.932V91.11z"/>
    </g>
    <g style="-inkscape-font-specification:sans-serif" font-weight="400" font-size="1.984" font-family="sans-serif" fill="#fff" stroke-width="3.543">
        <path d="M2.485 5.62q.067-.12.16-.177.093-.057.22-.057.169 0 .26.12.093.118.093.337v.655h-.18v-.65q0-.156-.055-.231-.055-.076-.168-.076-.139 0-.22.092-.08.092-.08.251v.614h-.179v-.65q0-.157-.055-.231-.055-.076-.17-.076-.137 0-.218.093-.08.092-.08.25v.614h-.18V5.412h.18v.169q.06-.1.146-.147.085-.048.203-.048.118 0 .2.06.084.06.123.175zM4.064 5.952q-.216 0-.3.05-.083.049-.083.168 0 .095.062.151.063.055.17.055.149 0 .238-.104.09-.106.09-.28v-.04h-.177zm.355-.074v.62h-.178v-.165q-.061.099-.152.146-.091.047-.223.047-.167 0-.265-.093-.098-.094-.098-.251 0-.183.122-.276.123-.093.366-.093h.25v-.018q0-.123-.081-.19-.08-.067-.227-.067-.093 0-.181.022t-.17.067v-.165q.098-.038.19-.056.092-.02.18-.02.235 0 .351.122.116.123.116.37zM5.572 5.454v.167q-.075-.042-.152-.062-.075-.022-.153-.022-.173 0-.27.11-.095.11-.095.309t.096.31q.096.109.27.109.077 0 .152-.02.077-.022.152-.064v.165q-.074.035-.155.052-.08.018-.17.018-.244 0-.389-.154-.144-.154-.144-.416 0-.266.145-.418.147-.152.4-.152.083 0 .161.018.079.016.152.05zM6.51 5.58q-.03-.018-.067-.026-.034-.01-.077-.01-.151 0-.233.1-.08.098-.08.282v.571h-.18V5.412h.18v.169q.056-.1.146-.147.09-.048.22-.048.018 0 .04.003.022.002.05.007v.183zM7.078 5.537q-.143 0-.227.113-.083.111-.083.306t.082.307q.084.112.228.112.142 0 .226-.113.083-.112.083-.306 0-.193-.083-.305-.084-.114-.226-.114zm0-.15q.233 0 .365.15.133.152.133.419 0 .266-.133.419-.132.15-.365.15-.233 0-.366-.15-.132-.153-.132-.419 0-.267.132-.419.133-.15.366-.15zM8.925 5.537q-.144 0-.227.113-.083.111-.083.306t.082.307q.083.112.228.112.142 0 .226-.113.083-.112.083-.306 0-.193-.083-.305-.084-.114-.226-.114zm0-.15q.232 0 .365.15.133.152.133.419 0 .266-.133.419-.133.15-.365.15-.234 0-.366-.15-.132-.153-.132-.419 0-.267.132-.419.132-.15.366-.15zM10.41 5.444v.169q-.076-.039-.158-.058-.081-.02-.168-.02-.133 0-.2.041-.066.04-.066.122 0 .062.048.098.047.035.19.067l.062.014q.19.04.269.115.08.074.08.206 0 .151-.12.24-.119.088-.328.088-.087 0-.182-.018-.094-.016-.199-.05v-.184q.099.051.195.077.096.026.19.026.126 0 .193-.043.068-.044.068-.122 0-.073-.05-.111-.048-.04-.213-.075l-.062-.015q-.166-.034-.24-.106-.073-.073-.073-.199 0-.153.108-.236.109-.083.308-.083.1 0 .186.014.088.015.161.044zM11.533 5.454v.167q-.075-.042-.152-.062-.075-.022-.153-.022-.173 0-.27.11-.095.11-.095.309t.096.31q.096.109.269.109.078 0 .153-.02.077-.022.152-.064v.165q-.074.035-.155.052-.08.018-.17.018-.245 0-.389-.154-.144-.154-.144-.416 0-.266.145-.418.146-.152.4-.152.083 0 .161.018.079.016.152.05zM11.841 5.412h.179v1.086h-.179V5.412zm0-.422h.179v.226h-.179V4.99zM12.392 4.99h.178v1.508h-.178V4.99zM12.942 4.99h.178v1.508h-.178V4.99zM13.986 5.952q-.216 0-.3.05-.083.049-.083.168 0 .095.062.151.063.055.17.055.149 0 .238-.104.09-.106.09-.28v-.04h-.177zm.355-.074v.62h-.178v-.165q-.061.099-.152.146-.091.047-.223.047-.167 0-.266-.093-.097-.094-.097-.251 0-.183.122-.276.123-.093.366-.093h.25v-.018q0-.123-.081-.19-.08-.067-.227-.067-.093 0-.181.022-.089.022-.17.067v-.165q.098-.038.19-.056.092-.02.18-.02.235 0 .35.122.117.123.117.37zM14.89 5.104v.308h.367v.139h-.367v.59q0 .132.035.17.037.037.149.037h.183v.15h-.183q-.207 0-.285-.077-.079-.077-.079-.28v-.59h-.13v-.139h.13v-.308h.18zM15.913 5.537q-.144 0-.227.113-.083.111-.083.306t.082.307q.083.112.228.112.142 0 .226-.113.083-.112.083-.306 0-.193-.083-.305-.084-.114-.226-.114zm0-.15q.232 0 .365.15.133.152.133.419 0 .266-.133.419-.133.15-.365.15-.234 0-.366-.15-.132-.153-.132-.419 0-.267.132-.419.132-.15.366-.15zM17.334 5.58q-.03-.018-.066-.026-.035-.01-.077-.01-.151 0-.233.1-.08.098-.08.282v.571h-.18V5.412h.18v.169q.056-.1.146-.147.09-.048.22-.048.018 0 .04.003.022.002.05.007v.183z"/>
    </g>
    <g style="-inkscape-font-specification:sans-serif" font-weight="400" font-size="1.984" font-family="sans-serif" fill="#fff" stroke-width="3.543">
        <path d="M25.961 56.37v1.984h-.165v-1.985h.165zM26.38 56.439l.504 1.63h-.165l-.504-1.63h.165zM27.08 56.439h.832v.165h-.636v.426h.574v.165h-.574v.69h-.196V56.44zM28.22 56.439h.291l.37.984.37-.984h.292v1.447h-.19v-1.27l-.374.992h-.196l-.373-.993v1.27h-.19V56.44z"/>
    </g>
    <g style="-inkscape-font-specification:sans-serif" font-weight="400" font-size="1.984" font-family="sans-serif" fill="#fff" stroke-width="3.543">
        <path d="M25.63 65.784v1.984h-.165v-1.984h.165zM26.048 65.854l.504 1.63h-.165l-.503-1.63h.164zM26.548 65.854h1.224v.165h-.514V67.3h-.196V66.02h-.514v-.165zM27.966 65.854h.196V67.3h-.196v-1.446zM28.551 65.854h.292l.369.984.371-.984h.292V67.3h-.191v-1.27l-.373.992h-.197l-.373-.992v1.27h-.19v-1.446z"/>
    </g>
    <path d="M.171 77.323h17.935c7.43 0 2.508-3.364 13.391-3.364l.253 10.143H0z" fill="#2b1927"/>
    <g style="-inkscape-font-specification:sans-serif" font-weight="400" font-size="1.984" font-family="sans-serif" fill="#fff" stroke-width="3.543">
        <path d="M25.268 75.568v1.985h-.165v-1.985h.165zM25.686 75.638l.504 1.631h-.164l-.504-1.63h.164zM27.47 75.75v.206q-.099-.092-.211-.138-.111-.045-.237-.045-.248 0-.38.152-.132.151-.132.438 0 .286.132.438.132.151.38.151.126 0 .237-.045.112-.046.211-.138v.204q-.102.07-.218.105-.114.035-.242.035-.329 0-.517-.2-.19-.202-.19-.55 0-.349.19-.55.188-.2.517-.2.13 0 .244.034.115.034.216.103zM28.362 75.771q-.214 0-.34.159-.124.159-.124.433 0 .273.124.432.126.159.34.159.213 0 .337-.159.125-.159.125-.432 0-.274-.125-.433-.124-.159-.337-.159zm0-.159q.304 0 .486.205.182.203.182.546 0 .342-.182.546-.182.204-.486.204-.306 0-.489-.204-.182-.203-.182-.546t.182-.546q.183-.205.489-.205zM29.336 75.638h.196v1.282h.705v.165h-.9v-1.447z"/>
    </g>
    <g style="-inkscape-font-specification:sans-serif" font-weight="400" font-size="1.984" font-family="sans-serif" fill="#fff" stroke-width="3.543">
        <path d="M8.964 46.327h.831v.164H9.16v.427h.574v.164H9.16v.691h-.195v-1.446zM10.103 46.327h.196v1.446h-.196v-1.446zM10.688 46.327h.264l.641 1.21v-1.21h.19v1.446h-.263l-.642-1.21v1.21h-.19v-1.446zM12.173 46.327h.915v.164h-.72v.429h.69v.164h-.69v.524h.737v.165h-.932v-1.446z"/>
    </g>
    <g style="-inkscape-font-specification:sans-serif" font-weight="400" font-size="1.984" font-family="sans-serif" fill="#fff" stroke-width="3.543">
        <path d="M17.122 46.41v.206q-.099-.092-.211-.137-.112-.046-.238-.046-.248 0-.38.152-.131.151-.131.438 0 .286.132.438.131.151.38.151.125 0 .237-.045.112-.046.211-.138v.205q-.103.07-.218.104-.114.035-.242.035-.329 0-.518-.2-.189-.202-.189-.55 0-.349.19-.55.188-.2.517-.2.13 0 .244.034.115.034.216.103zM18.013 46.431q-.213 0-.339.159-.125.159-.125.433 0 .273.125.432.126.16.34.16.213 0 .337-.16.125-.159.125-.432 0-.274-.125-.433-.124-.159-.338-.159zm0-.159q.305 0 .487.205.182.203.182.546 0 .342-.182.547-.182.203-.487.203t-.488-.203q-.182-.204-.182-.547 0-.343.182-.546.183-.205.488-.205zM19.439 46.491l-.266.72h.532l-.266-.72zm-.11-.193h.221l.552 1.447h-.204l-.132-.371h-.652l-.132.37h-.206l.552-1.446zM21 47.067q.063.021.122.09.06.07.12.193l.199.395h-.21l-.186-.371q-.071-.145-.14-.193-.066-.047-.182-.047h-.214v.61h-.195v-1.446h.442q.248 0 .37.104t.122.313q0 .137-.064.227-.063.09-.184.125zm-.49-.608v.514h.246q.141 0 .213-.065.072-.066.072-.193t-.072-.19q-.072-.066-.213-.066h-.247zM22.56 46.346v.19q-.11-.053-.21-.079-.098-.026-.19-.026-.16 0-.248.062-.086.062-.086.176 0 .096.057.146.059.048.22.078l.118.024q.219.042.322.148.105.104.105.28 0 .211-.142.32-.14.108-.412.108-.103 0-.22-.023-.115-.024-.239-.07v-.2q.12.066.234.1.114.034.225.034.167 0 .258-.066t.091-.188q0-.106-.065-.166-.065-.06-.215-.09l-.119-.024q-.219-.043-.317-.136-.097-.093-.097-.26 0-.19.134-.301.136-.11.373-.11.102 0 .208.018.105.018.216.055zM22.957 46.298h.915v.165h-.72v.428h.69v.165h-.69v.524h.737v.165h-.932v-1.447z"/>
    </g>
    <g style="-inkscape-font-specification:sans-serif" font-weight="400" font-size="1.984" font-family="sans-serif" fill="#fff" stroke-width="3.543">
        <path d="M9.634 55.999q-.213 0-.339.159-.125.159-.125.433 0 .273.125.432.126.159.34.159.212 0 .336-.159.125-.159.125-.432 0-.274-.125-.433-.124-.16-.337-.16zm.274 1.288l.258.282H9.93l-.214-.232-.05.003h-.032q-.305 0-.488-.203-.182-.204-.182-.546 0-.343.182-.546.183-.205.488-.205.304 0 .487.205.182.203.182.546 0 .252-.102.431-.1.18-.293.265zM10.609 55.866h.264l.641 1.21v-1.21h.19v1.447h-.264l-.641-1.21v1.21h-.19v-1.447zM11.893 55.866h1.224v.165h-.514v1.282h-.197V56.03h-.513v-.165zM13.227 55.866h1.137v.15l-.915 1.132h.937v.165h-1.181v-.15l.914-1.132h-.892v-.165z"/>
    </g>
    <g style="-inkscape-font-specification:sans-serif" font-weight="400" font-size="1.984" font-family="sans-serif" fill="#fff" stroke-width="3.543">
        <path d="M10.022 60.593h.831v.164h-.635v.427h.573v.165h-.573v.69h-.196v-1.446zM11.162 60.593h.291l.37.984.37-.984h.292v1.446h-.19v-1.27l-.374.992h-.197l-.373-.992v1.27h-.19v-1.446z"/>
    </g>
    <g style="-inkscape-font-specification:sans-serif" font-weight="400" font-size="1.984" font-family="sans-serif" fill="#fff" stroke-width="3.543">
        <path d="M16.312 65.784h1.224v.165h-.514v1.282h-.197v-1.282h-.513v-.165zM17.73 65.784h.195v1.447h-.196v-1.447zM18.315 65.784h.291l.37.985.37-.985h.292v1.447h-.19v-1.27l-.374.992h-.197l-.373-.993v1.27h-.19v-1.446zM20.22 66.54v.53h.313q.158 0 .234-.065.076-.066.076-.2 0-.136-.076-.2-.076-.065-.234-.065h-.314zm0-.595v.436h.29q.143 0 .212-.053.071-.055.071-.165 0-.11-.07-.164-.07-.054-.214-.054h-.29zm-.196-.16h.5q.224 0 .345.092.12.093.12.265 0 .132-.061.21-.062.08-.182.099.144.03.223.13.08.097.08.245 0 .193-.131.3-.132.105-.375.105h-.52v-1.447zM22.07 66.552q.063.022.122.092.06.07.12.191l.199.396h-.21l-.185-.371q-.072-.146-.14-.193-.067-.048-.183-.048h-.213v.612h-.196v-1.447h.442q.248 0 .37.104.122.103.122.313 0 .136-.064.226-.063.09-.184.125zm-.49-.607v.513h.246q.141 0 .213-.064.073-.066.073-.193t-.073-.191q-.072-.065-.213-.065h-.246zM22.764 65.784h.915v.165h-.72v.428h.69v.165h-.69v.524h.737v.165h-.932v-1.447z"/>
    </g>
    <g style="-inkscape-font-specification:sans-serif" font-weight="400" font-size="1.984" font-family="sans-serif" fill="#fff" stroke-width="3.543">
        <path d="M9.896 80.141v.207q-.098-.093-.21-.138-.112-.046-.238-.046-.248 0-.38.153-.132.15-.132.438 0 .285.132.438.132.15.38.15.126 0 .237-.045.113-.045.211-.137v.204q-.102.07-.218.105-.114.035-.242.035-.328 0-.517-.201-.19-.202-.19-.55 0-.348.19-.549.189-.201.517-.201.13 0 .244.035.116.033.216.102zM10.788 80.162q-.213 0-.34.16-.124.158-.124.433 0 .273.125.432.126.159.339.159.213 0 .337-.16.125-.158.125-.431 0-.275-.125-.434-.124-.159-.337-.159zm0-.158q.304 0 .486.204t.182.547q0 .342-.182.546-.182.203-.486.203-.305 0-.489-.203-.182-.203-.182-.546t.182-.547q.184-.204.489-.204zM11.763 80.03h.195v1.282h.705v.164h-.9V80.03zM13.385 80.162q-.214 0-.34.16-.125.158-.125.433 0 .273.125.432.126.159.34.159.213 0 .337-.16.125-.158.125-.431 0-.275-.125-.434-.124-.159-.337-.159zm0-.158q.304 0 .486.204t.182.547q0 .342-.182.546-.182.203-.486.203-.306 0-.489-.203-.182-.203-.182-.546t.182-.547q.183-.204.489-.204zM15.045 80.798q.063.021.122.091.06.07.12.192l.2.395h-.211l-.185-.37q-.072-.146-.14-.194-.067-.047-.183-.047h-.213v.611h-.196V80.03h.442q.248 0 .37.103.122.104.122.313 0 .137-.064.227-.063.09-.184.125zm-.49-.607v.513h.246q.142 0 .213-.065.073-.066.073-.193t-.073-.19q-.071-.065-.213-.065h-.246z"/>
    </g>
    <g style="-inkscape-font-specification:sans-serif" font-weight="400" font-size="1.984" font-family="sans-serif" fill="#fdfdfe" stroke-width="3.543">
        <path d="M19.205 51.9q.063.022.122.092.06.07.12.192l.199.395h-.21l-.185-.371q-.072-.145-.14-.193-.067-.047-.183-.047h-.213v.611h-.196v-1.447h.442q.248 0 .37.104t.122.313q0 .137-.064.227-.063.09-.184.125zm-.49-.607v.514h.246q.141 0 .213-.065.073-.066.073-.193t-.073-.19q-.072-.066-.213-.066h-.246z"/>
        <path d="M20.303 51.325l-.266.72h.532l-.266-.72zm-.11-.193h.221l.552 1.447h-.204l-.132-.371h-.652l-.132.371h-.206l.552-1.447zM21.178 51.132h.263l.642 1.21v-1.21h.19v1.447h-.264l-.641-1.21v1.21h-.19v-1.447zM23.649 52.373v-.389h-.32v-.16h.513v.62q-.113.08-.25.122-.136.041-.291.041-.34 0-.531-.197-.191-.2-.191-.553 0-.354.19-.552.193-.199.532-.199.141 0 .268.035.128.035.236.103v.208q-.109-.092-.231-.138-.122-.047-.257-.047-.265 0-.4.148-.132.149-.132.442 0 .293.133.441.134.148.4.148.103 0 .184-.017.082-.018.147-.056z"/>
    </g>
    <g style="-inkscape-font-specification:sans-serif" font-weight="400" font-size="1.984" font-family="sans-serif" fill="#fdfdfe" stroke-width="3.543">
        <path d="M5.047 74.318h.292l.37.984.37-.984h.292v1.446H6.18v-1.27l-.373.992H5.61l-.373-.992v1.27h-.19v-1.446zM7.344 74.45q-.214 0-.34.16-.124.158-.124.433 0 .273.124.432.126.159.34.159.213 0 .337-.16.125-.158.125-.431 0-.275-.125-.434-.124-.158-.337-.158zm0-.158q.304 0 .486.204t.182.547q0 .342-.182.546-.182.204-.486.204-.306 0-.489-.204-.182-.203-.182-.546t.182-.547q.183-.204.489-.204zM8.514 74.479v1.125h.237q.299 0 .437-.136.14-.136.14-.428 0-.291-.14-.426-.138-.135-.437-.135h-.237zm-.196-.161h.402q.421 0 .618.175.196.175.196.547 0 .374-.197.55-.198.174-.617.174h-.402v-1.446zM9.823 74.318h.197v.879q0 .232.084.335.084.102.273.102.188 0 .273-.102.084-.103.084-.335v-.88h.197v.904q0 .283-.14.427-.14.145-.414.145-.274 0-.414-.145-.14-.144-.14-.427v-.903zM11.299 74.318h.196V75.6h.704v.164h-.9v-1.446zM12.933 74.51l-.265.72h.532l-.267-.72zm-.11-.192h.222l.551 1.446h-.203l-.132-.37h-.652l-.132.37h-.206l.552-1.446zM13.45 74.318h1.225v.165h-.514v1.281h-.197v-1.281h-.513v-.165zM14.868 74.318h.196v1.446h-.196v-1.446zM16.04 74.45q-.212 0-.338.16-.125.158-.125.433 0 .273.125.432.126.159.339.159.213 0 .337-.16.125-.158.125-.431 0-.275-.125-.434-.124-.158-.337-.158zm0-.158q.305 0 .487.204t.182.547q0 .342-.182.546-.182.204-.486.204-.305 0-.489-.204-.182-.203-.182-.546t.182-.547q.184-.204.489-.204zM17.016 74.318h.263l.641 1.21v-1.21h.19v1.446h-.263l-.642-1.21v1.21h-.19v-1.446z"/>
    </g>
    <g style="-inkscape-font-specification:sans-serif" font-weight="400" font-size="3.969" font-family="sans-serif" fill="#fff" stroke-width="3.543">
        <path d="M3.967 1.364v.413q-.198-.184-.423-.275-.222-.091-.474-.091-.497 0-.76.304-.264.302-.264.876 0 .571.264.876.263.302.76.302.252 0 .474-.091.225-.091.423-.275v.409q-.206.14-.436.209-.229.07-.485.07-.657 0-1.034-.402-.378-.403-.378-1.098 0-.698.378-1.099.377-.403 1.034-.403.26 0 .489.07.23.067.432.205zM5.4 2.114q-.286 0-.453.225-.166.223-.166.612 0 .39.164.614.167.223.456.223.285 0 .451-.224.167-.225.167-.613 0-.385-.167-.61-.166-.227-.451-.227zm0-.302q.466 0 .731.302.266.302.266.837 0 .533-.266.837-.265.303-.73.303-.467 0-.733-.303-.263-.304-.263-.837 0-.535.263-.837.266-.302.733-.302zM8.244 2.197q-.06-.035-.132-.05-.07-.017-.155-.017-.302 0-.465.197-.161.196-.161.564v1.143h-.359v-2.17h.359v.337q.112-.197.293-.292.18-.097.438-.097.036 0 .08.006.045.004.1.013l.002.367zM10.36 2.724v1.31h-.357V2.736q0-.308-.12-.461-.12-.153-.36-.153-.29 0-.456.184-.166.184-.166.502v1.226h-.359v-2.17h.359v.337q.128-.196.3-.292.174-.097.401-.097.374 0 .566.232.192.23.192.68zM12.336 2.197q-.06-.035-.131-.05-.07-.017-.155-.017-.303 0-.465.197-.161.196-.161.564v1.143h-.359v-2.17h.359v.337q.112-.197.292-.292.18-.097.438-.097.037 0 .082.006.044.004.099.013l.001.367zM13.474 2.114q-.287 0-.453.225-.167.223-.167.612 0 .39.165.614.166.223.455.223.285 0 .452-.224.166-.225.166-.613 0-.385-.166-.61-.167-.227-.452-.227zm0-.302q.465 0 .73.302.266.302.266.837 0 .533-.265.837-.266.303-.731.303-.467 0-.733-.303-.263-.304-.263-.837 0-.535.263-.837.266-.302.733-.302zM14.856 1.864h.356l.446 1.694.444-1.694h.42l.446 1.694.444-1.694h.356l-.567 2.17h-.421l-.467-1.779-.469 1.78h-.42l-.568-2.171zM19.695 1.928v.337q-.152-.077-.314-.116-.163-.039-.338-.039-.265 0-.399.081-.132.082-.132.245 0 .124.095.195.095.07.382.134l.122.027q.38.082.539.23.16.148.16.414 0 .302-.24.478-.238.177-.656.177-.175 0-.365-.035-.188-.033-.397-.101v-.368q.198.102.39.155.191.05.38.05.251 0 .387-.085.136-.087.136-.244 0-.146-.1-.223-.096-.078-.428-.15l-.124-.029q-.33-.07-.478-.213-.147-.145-.147-.397 0-.306.217-.473.217-.166.616-.166.197 0 .372.029.174.029.322.087zM20.257 1.141h.42l.719 1.076.723-1.076h.42l-.93 1.39.992 1.503h-.42l-.814-1.23-.82 1.23h-.422l1.033-1.544-.901-1.349z"/>
    </g>
    <g style="-inkscape-font-specification:sans-serif" font-weight="400" font-size="1.984" font-family="sans-serif" fill="#fff" stroke-width="3.543">
        <path d="M21.79 34.225v.191q-.11-.053-.21-.08-.099-.026-.19-.026-.16 0-.248.062-.086.062-.086.177 0 .096.057.145.058.048.22.078l.117.025q.22.041.323.147.105.105.105.28 0 .211-.142.32-.14.108-.413.108-.102 0-.218-.023t-.24-.069v-.201q.12.067.234.1.114.034.224.034.168 0 .26-.066.09-.066.09-.188 0-.106-.066-.166-.065-.06-.214-.09l-.119-.024q-.219-.043-.317-.136-.098-.093-.098-.259 0-.192.135-.302.136-.11.373-.11.102 0 .207.018.106.018.217.055zM22.187 34.178h.196v.593h.71v-.593h.196v1.446h-.195v-.689h-.711v.69h-.196v-1.447zM24.162 34.37l-.265.72h.532l-.267-.72zm-.11-.192h.222l.551 1.446h-.203l-.132-.37h-.652l-.132.37H23.5l.552-1.446zM25.231 34.338v.544h.246q.137 0 .212-.07.074-.071.074-.202 0-.13-.074-.2-.075-.071-.212-.071h-.246zm-.196-.16h.442q.244 0 .368.11.125.11.125.322 0 .214-.125.323-.124.11-.368.11h-.246v.581h-.196v-1.446zM26.233 34.178h.915v.164h-.72v.429h.69v.164h-.69v.525h.737v.164h-.932v-1.446z"/>
    </g>
</svg>
