<?xml version="1.0" encoding="UTF-8" standalone="no"?>
<svg
   xmlns:dc="http://purl.org/dc/elements/1.1/"
   xmlns:cc="http://creativecommons.org/ns#"
   xmlns:rdf="http://www.w3.org/1999/02/22-rdf-syntax-ns#"
   xmlns:svg="http://www.w3.org/2000/svg"
   xmlns="http://www.w3.org/2000/svg"
   xmlns:xlink="http://www.w3.org/1999/xlink"
   xmlns:sodipodi="http://sodipodi.sourceforge.net/DTD/sodipodi-0.dtd"
   xmlns:inkscape="http://www.inkscape.org/namespaces/inkscape"
   width="90"
   height="380"
   viewBox="0 0 23.813 100.542"
   version="1.1"
   id="svg139"
   sodipodi:docname="DeuxEtageres_noir.svg"
   inkscape:version="0.92.4 (5da689c313, 2019-01-14)">
  <metadata
     id="metadata143">
    <rdf:RDF>
      <cc:Work
         rdf:about="">
        <dc:format>image/svg+xml</dc:format>
        <dc:type
           rdf:resource="http://purl.org/dc/dcmitype/StillImage" />
      </cc:Work>
    </rdf:RDF>
  </metadata>
  <sodipodi:namedview
     pagecolor="#ffffff"
     bordercolor="#666666"
     borderopacity="1"
     objecttolerance="10"
     gridtolerance="10"
     guidetolerance="10"
     inkscape:pageopacity="0"
     inkscape:pageshadow="2"
     inkscape:window-width="1366"
     inkscape:window-height="715"
     id="namedview141"
     showgrid="false"
     inkscape:zoom="12.272499"
     inkscape:cx="45"
     inkscape:cy="101.03157"
     inkscape:window-x="-8"
     inkscape:window-y="-8"
     inkscape:window-maximized="1"
     inkscape:current-layer="svg139" />
  <defs
     id="defs17">
    <linearGradient
       id="b">
      <stop
         offset="0"
         stop-color="#fff"
         id="stop2" />
      <stop
         offset="1"
         stop-opacity="0"
         id="stop4" />
    </linearGradient>
    <linearGradient
       id="a">
      <stop
         offset="0"
         stop-color="#fdfdfd"
         id="stop7" />
      <stop
         offset="1"
         stop-color="#fdfdfd"
         id="stop9" />
    </linearGradient>
    <radialGradient
       gradientUnits="userSpaceOnUse"
       gradientTransform="matrix(.4218 0 0 .02673 -108.099 272.192)"
       r="69.827"
       fy="856.052"
       fx="285.494"
       cy="856.052"
       cx="285.494"
       id="d"
       xlink:href="#a" />
    <linearGradient
       gradientUnits="userSpaceOnUse"
       y2="832.532"
       x2="279.915"
       y1="830.884"
       x1="268.967"
       id="e"
       xlink:href="#b"
       gradientTransform="matrix(.26458 0 0 .26458 -61.978 72.341)" />
    <clipPath
       clipPathUnits="userSpaceOnUse"
       id="c">
      <path
         fill="#fff"
         stroke="#fff"
         stroke-width=".839"
         d="M.155 281.916h23.503v21.229H.155z"
         id="path14" />
    </clipPath>
  </defs>
  <path
     d="M0 0h23.813v100.542H0z"
     fill-rule="evenodd"
     id="path19" />
  <path
     d="M-.043 7.14l23.898-.12v13.517H.043z"
     fill="#2c2781"
     id="path21"
     style="fill:#545454;fill-opacity:1" />
  <path
     d="M0 20.537h23.813v19.22H0z"
     fill="#1f1e64"
     id="path23"
     style="fill:#414141;fill-opacity:1" />
  <path
     d="M0 39.757h23.813v20.327H0z"
     fill="#1b1f59"
     id="path25"
     style="fill:#3a3a3a;fill-opacity:1" />
  <path
     d="M 23.81,74.311097 0.252,74.249958 0.003,59.697187 23.754,59.573 Z"
     id="path27"
     style="fill:#2c2c2c;fill-opacity:1;fill-rule:evenodd;stroke-width:0.97738546"
     inkscape:connector-curvature="0" />
  <g
     clip-path="url(#c)"
     transform="translate(0 -196.458)"
     id="g69">
    <path
       d="M29.367 294.933l-17.043-.125-14.417.125-.879-3.47c4.81-1.004 10.75-1.724 16.171-1.72 5.715.006 9.886.467 17.047 1.845z"
       fill="url(#d)"
       stroke="#8b8b8b"
       stroke-width=".397"
       id="path29" />
    <path
       d="M-2.117 291.993c10.905-1.21 21.546-.99 31.75.123l-.033 3.296H-2.117z"
       id="path31" />
    <path
       d="M15.656 291.463l1.533-.724 1.42-.177 1.006.122 1.404.515 1.116 1.042z"
       fill-rule="evenodd"
       id="path33" />
    <g
       stroke="#fff"
       id="g43">
      <g
         color="#000"
         fill="none"
         stroke-linejoin="bevel"
         id="g41">
        <path
           d="M2.117 188.81l18.113 36.226 65.551 31.913 90.564 13.8 94.877-11.213 60.376-31.913 14.663-30.188-14.663-37.951.324 67.923-33.1-64.473-25.875 96.602-58.651-80.214-40.538 91.427-40.538-75.902-46.576 61.239-17.098-92.852-49.316 62.663 6.037-89.702 44.241 27.296 63.574 32.218 80-16.819 86.466-15.957 31.051-3.666-33.279-62.05 1.366 64.853-64.689-74.392-20.7 91.427-69.001-66.198-75.902 50.026L84.751 80.38l-59.346 55.816 24.151-56.064h34.501l81.077-37.088-18.975 69.864 89.702-24.15 62.101 7.762-66.314-54.334 4.212 46.571-70.726-45.713 66.414-1.725-53.476-15.525-12.938 16.388-49.164-6.9-66.414 44.85-33.333 49.417 9.183 6.647L2.118 188.81z"
           stroke-width="2.892"
           transform="matrix(.02343 0 0 .01665 14.455 290.147)"
           id="path35" />
        <path
           d="M133.17 195.51l12.99-80.876-61.407-35.517 32.081-44.697 28.463-4.313 32.776-5.175 41.401 6.9 12.938 10.35 47.438 20.7 18.975 34.501 30.188 30.188 2.803 31.913"
           stroke-width="2.892"
           transform="matrix(.02343 0 0 .01665 14.455 290.147)"
           id="path37" />
        <path
           d="M329.01 126.71l-49.16-63.83-59.77-31.05M1.926 188.186L16.11 129.84"
           stroke-width="2"
           transform="matrix(.02343 0 0 .01665 14.455 290.147)"
           id="path39" />
      </g>
    </g>
    <path
       d="M22.56 293.436l-.397-1.175"
       fill="none"
       stroke="#fff"
       stroke-width=".04769"
       id="path45" />
    <path
       d="M2.072 292.087l3.746-1.531.764.608 1.116-.783 2.231.291.94-.35 3.046.98-1.05.478-9.572.292z"
       fill-rule="evenodd"
       id="path47" />
    <g
       style="line-height:125%"
       font-weight="400"
       font-size="7.5"
       font-family="Geneva"
       letter-spacing="0"
       word-spacing="0"
       fill="#fff"
       id="g51">
      <path
         d="M1.636 296.161h.147v.004q0 .07.044.116.043.046.147.046.091 0 .147-.054.057-.055.057-.128 0-.1-.11-.142l-.076-.028-.05-.02-.102-.038q-.175-.078-.175-.26 0-.128.085-.225t.252-.097q.164 0 .234.083t.07.183v.004h-.148v-.004q0-.054-.046-.085-.044-.031-.118-.031-.089 0-.136.046-.047.044-.047.11 0 .05.03.082.03.031.103.057l.071.024.052.018q.107.038.133.053.027.016.054.04.037.035.055.085.018.049.018.115 0 .153-.09.258-.09.104-.262.104-.11 0-.182-.04t-.114-.109q-.043-.07-.043-.163v-.004zM4.514 296.477q-.174 0-.296-.143-.122-.145-.122-.428 0-.283.122-.427.122-.144.296-.144.172 0 .294.144.123.144.123.427 0 .283-.123.428-.122.143-.294.143zm0-.15q.119 0 .19-.115.073-.117.073-.306 0-.19-.072-.305-.072-.116-.191-.116-.12 0-.193.116-.072.116-.072.305 0 .19.072.306.073.115.193.115zM7.31 295.365h.147v1.082H7.31v-.189q-.046.087-.09.131-.044.044-.091.066-.047.022-.102.022-.123 0-.208-.084-.086-.085-.086-.342v-.686h.147v.61q0 .238.052.287.051.05.127.05.066 0 .124-.047.058-.047.092-.132.035-.085.035-.236v-.532zM9.857 296.294v.151q-.107.032-.164.032-.083 0-.15-.04-.065-.041-.1-.119-.034-.077-.034-.247v-.556h-.153v-.15h.153v-.256h.147v.256h.258v.15h-.258v.505q0 .143.019.2.018.055.057.08.04.027.094.027.043 0 .131-.033zM11.807 296.447h-.147v-1.564h.147v.669q.047-.088.09-.13.045-.044.092-.065.049-.022.107-.022.083 0 .15.041.066.042.102.124.036.08.036.258v.69h-.147v-.612q0-.146-.016-.206-.015-.06-.06-.095-.044-.034-.101-.034-.065 0-.124.046-.058.047-.094.13-.035.083-.035.238v.532zM14.367 296.868h-.147v-1.503h.147v.188q.046-.096.087-.136.042-.04.094-.06.053-.022.108-.022.101 0 .185.068.084.067.13.2.047.134.047.3 0 .248-.098.411-.096.163-.271.163-.056 0-.107-.02-.05-.02-.089-.058-.039-.04-.086-.14v.609zm0-.962q0 .185.065.303t.183.118q.107 0 .179-.105.071-.104.071-.313 0-.243-.075-.337-.075-.095-.172-.095-.07 0-.13.053-.06.05-.09.154-.031.101-.031.222zM17.207 296.477q-.173 0-.296-.143-.122-.145-.122-.428 0-.283.122-.427.123-.144.296-.144t.294.144q.123.144.123.427 0 .283-.123.428-.121.143-.294.143zm0-.15q.119 0 .19-.115.074-.117.074-.306 0-.19-.073-.305-.072-.116-.191-.116-.12 0-.192.116-.073.116-.073.305 0 .19.073.306.072.115.192.115zM19.585 296.447h-.147v-1.564h.147v1.564zM22.024 296.17h.147v.009q0 .071-.047.146-.046.075-.123.113-.077.04-.177.04-.202 0-.312-.16-.109-.16-.109-.405 0-.25.116-.413.116-.165.299-.165.1 0 .182.053.082.053.13.167.047.112.047.314v.06h-.628q0 .173.076.286.077.112.212.112.097 0 .142-.046.045-.046.045-.102v-.01zm-.466-.377h.478v-.021q0-.076-.03-.146-.03-.072-.082-.106-.052-.035-.122-.035-.082 0-.152.081-.07.08-.092.227z"
         style="-inkscape-font-specification:Geneva"
         id="path49" />
    </g>
    <g
       id="g67">
      <path
         d="M6.877 291.708l1.053-.496.974-.122.691.084.964.353.767.716z"
         fill-rule="evenodd"
         id="path53" />
      <g
         stroke="#fff"
         id="g63">
        <g
           color="#000"
           fill="none"
           stroke-linejoin="bevel"
           id="g61">
          <path
             d="M2.117 188.81l18.113 36.226 65.551 31.913 90.564 13.8 94.877-11.213 60.376-31.913 14.663-30.188-14.663-37.951.324 67.923-33.1-64.473-25.875 96.602-58.651-80.214-40.538 91.427-40.538-75.902-46.576 61.239-17.098-92.852-49.316 62.663 6.037-89.702 44.241 27.296 63.574 32.218 80-16.819 86.466-15.957 31.051-3.666-33.279-62.05 1.366 64.853-64.689-74.392-20.7 91.427-69.001-66.198-75.902 50.026L84.751 80.38l-59.346 55.816 24.151-56.064h34.501l81.077-37.088-18.975 69.864 89.702-24.15 62.101 7.762-66.314-54.334 4.212 46.571-70.726-45.713 66.414-1.725-53.476-15.525-12.938 16.388-49.164-6.9-66.414 44.85-33.333 49.417 9.183 6.647L2.118 188.81z"
             stroke-width="2.892"
             transform="matrix(.01608 0 0 .01143 6.053 290.805)"
             id="path55" />
          <path
             d="M133.17 195.51l12.99-80.876-61.407-35.517 32.081-44.697 28.463-4.313 32.776-5.175 41.401 6.9 12.938 10.35 47.438 20.7 18.975 34.501 30.188 30.188 2.803 31.913"
             stroke-width="2.892"
             transform="matrix(.01608 0 0 .01143 6.053 290.805)"
             id="path57" />
          <path
             d="M329.01 126.71l-49.16-63.83-59.77-31.05M1.926 188.186L16.11 129.84"
             stroke-width="2"
             transform="matrix(.01608 0 0 .01143 6.053 290.805)"
             id="path59" />
        </g>
      </g>
      <path
         d="M11.617 293.063l-.273-.807"
         fill="none"
         stroke="#fff"
         stroke-width=".032738"
         id="path65" />
    </g>
  </g>
  <g
     font-size="2.646"
     fill="#fff"
     stroke-width=".2"
     id="g73">
    <path
       d="M8.81 9.125h1.108v.22h-.847v.568h.764v.22h-.764v.92H8.81V9.126zM11.244 10.15q.084.028.162.12.08.094.16.257l.265.527h-.28l-.247-.495q-.095-.194-.186-.257-.089-.063-.244-.063h-.284v.815h-.261V9.125h.59q.33 0 .493.138.162.138.162.417 0 .183-.085.303-.084.12-.245.166zm-.654-.81v.684h.328q.189 0 .284-.086.097-.088.097-.258 0-.169-.097-.254-.095-.087-.284-.087h-.328zM12.169 9.125h1.22v.22h-.96v.57h.92v.22h-.92v.7h.982v.219H12.17V9.125zM14.62 9.302q-.284 0-.451.212-.167.212-.167.577t.167.577q.167.211.452.211.284 0 .45-.211.166-.212.166-.577t-.167-.577q-.165-.212-.45-.212zm.366 1.717l.344.376h-.315l-.286-.309-.066.004-.042.001q-.407 0-.651-.271-.243-.273-.243-.729 0-.457.243-.728.244-.273.65-.273t.65.273q.242.27.242.728 0 .336-.136.575-.134.24-.39.353z"
       id="path71" />
  </g>
  <g
     font-size="2.646"
     fill="#fff"
     stroke-width=".2"
     id="g77">
    <path
       d="M10.236 18.046v-.518H9.81v-.214h.684v.828q-.15.107-.333.163-.182.054-.389.054-.452 0-.708-.264-.254-.265-.254-.736 0-.473.254-.736.256-.265.708-.265.189 0 .358.046.17.047.314.137v.278q-.145-.123-.308-.185-.162-.062-.342-.062-.354 0-.532.198-.177.197-.177.589 0 .39.177.588.178.197.532.197.138 0 .247-.023.108-.024.195-.075zM11.617 16.65l-.354.96h.71l-.356-.96zm-.147-.257h.296l.735 1.928h-.272l-.175-.494h-.87l-.175.494h-.276l.737-1.928zM12.781 16.393h.261v1.928h-.261v-1.928zM13.561 16.393h.352l.855 1.613v-1.613h.253v1.928h-.351l-.855-1.613v1.613h-.254v-1.928z"
       id="path75" />
  </g>
  <g
     font-size="2.646"
     fill="#fff"
     stroke-width=".2"
     id="g81">
    <path
       d="M8.81 23.833h1.108v.22h-.847v.568h.764v.22h-.764v.92H8.81v-1.928zM11.244 24.857q.084.029.162.122.08.093.16.256l.265.527h-.28l-.247-.495q-.095-.194-.186-.257-.089-.064-.244-.064h-.284v.816h-.261v-1.93h.59q.33 0 .493.14.162.137.162.416 0 .183-.085.303-.084.12-.245.166zm-.654-.81v.685h.328q.189 0 .284-.087.097-.087.097-.257 0-.169-.097-.254-.095-.087-.284-.087h-.328zM12.169 23.833h1.22v.22h-.96v.57h.92v.22h-.92v.699h.982v.22H12.17v-1.93zM14.62 24.01q-.284 0-.451.212-.167.212-.167.577t.167.576q.167.212.452.212.284 0 .45-.212.166-.211.166-.576t-.167-.577q-.165-.212-.45-.212zm.366 1.717l.344.376h-.315l-.286-.309-.066.004-.042.001q-.407 0-.651-.271-.243-.273-.243-.729 0-.457.243-.729.244-.272.65-.272t.65.272q.242.272.242.729 0 .336-.136.575-.134.239-.39.353z"
       id="path79" />
  </g>
  <g
     font-size="2.646"
     fill="#fff"
     stroke-width=".2"
     id="g85">
    <path
       d="M10.236 31.526v-.518H9.81v-.215h.684v.829q-.15.107-.333.162-.182.055-.389.055-.452 0-.708-.264-.254-.265-.254-.736 0-.473.254-.737.256-.265.708-.265.189 0 .358.047.17.046.314.137v.278q-.145-.123-.308-.185-.162-.062-.342-.062-.354 0-.532.198-.177.197-.177.589 0 .39.177.588.178.197.532.197.138 0 .247-.023.108-.025.195-.075zM11.617 30.13l-.354.96h.71l-.356-.96zm-.147-.258h.296l.735 1.93h-.272l-.175-.496h-.87l-.175.495h-.276l.737-1.929zM12.781 29.872h.261v1.93h-.261v-1.93zM13.561 29.872h.352l.855 1.614v-1.614h.253v1.93h-.351l-.855-1.614V31.8h-.254v-1.929z"
       id="path83" />
  </g>
  <g
     font-size="2.646"
     fill="#fff"
     stroke-width=".2"
     id="g89">
    <path
       d="M8.81 42.156h1.108v.22h-.847v.569h.764v.22h-.764v.92H8.81v-1.929zM11.244 43.18q.084.03.162.122.08.093.16.256l.265.527h-.28l-.247-.495q-.095-.193-.186-.257-.089-.063-.244-.063h-.284v.815h-.261v-1.929h.59q.33 0 .493.139.162.138.162.417 0 .182-.085.302-.084.12-.245.167zm-.654-.81v.686h.328q.189 0 .284-.087.097-.088.097-.257 0-.17-.097-.255-.095-.086-.284-.086h-.328zM12.169 42.156h1.22v.22h-.96v.571h.92v.22h-.92v.699h.982v.22H12.17v-1.93zM14.62 42.333q-.284 0-.451.212-.167.212-.167.578 0 .364.167.576.167.212.452.212.284 0 .45-.212.166-.212.166-.576 0-.366-.167-.578-.165-.212-.45-.212zm.366 1.717l.344.376h-.315l-.286-.308-.066.004h-.042q-.407 0-.651-.27-.243-.273-.243-.73 0-.457.243-.728.244-.273.65-.273t.65.273q.242.271.242.729 0 .336-.136.575-.134.239-.39.352z"
       id="path87" />
  </g>
  <g
     font-size="2.646"
     fill="#fff"
     stroke-width=".2"
     id="g93">
    <path
       d="M10.236 50.931v-.518H9.81V50.2h.684v.828q-.15.107-.333.163-.182.054-.389.054-.452 0-.708-.264-.254-.264-.254-.736 0-.473.254-.736.256-.265.708-.265.189 0 .358.046.17.047.314.137v.278q-.145-.123-.308-.185-.162-.062-.342-.062-.354 0-.532.198-.177.198-.177.589 0 .39.177.588.178.197.532.197.138 0 .247-.023.108-.024.195-.075zM11.617 49.535l-.354.96h.71l-.356-.96zm-.147-.257h.296l.735 1.928h-.272l-.175-.494h-.87l-.175.494h-.276l.737-1.928zM12.781 49.278h.261v1.928h-.261v-1.928zM13.561 49.278h.352l.855 1.613v-1.613h.253v1.928h-.351l-.855-1.613v1.613h-.254v-1.928z"
       id="path91" />
  </g>
  <g
     font-size="2.646"
     fill="#fff"
     stroke-width=".2"
     id="g97">
    <path
       d="M8.81 63.764h1.108v.22h-.847v.568h.764v.22h-.764v.92H8.81v-1.928zM11.244 64.788q.084.029.162.122.08.093.16.255l.265.527h-.28l-.247-.494q-.095-.194-.186-.257-.089-.064-.244-.064h-.284v.815h-.261v-1.928h.59q.33 0 .493.138.162.138.162.417 0 .182-.085.302-.084.12-.245.167zm-.654-.81v.685h.328q.189 0 .284-.087.097-.088.097-.257 0-.17-.097-.254-.095-.087-.284-.087h-.328zM12.169 63.764h1.22v.22h-.96v.57h.92v.22h-.92v.699h.982v.22H12.17v-1.93zM14.62 63.94q-.284 0-.451.212-.167.212-.167.578 0 .364.167.576.167.212.452.212.284 0 .45-.212.166-.212.166-.576 0-.366-.167-.578-.165-.211-.45-.211zm.366 1.718l.344.376h-.315l-.286-.31-.066.005h-.042q-.407 0-.651-.27-.243-.273-.243-.73 0-.457.243-.728.244-.272.65-.272t.65.272q.242.271.242.729 0 .336-.136.575-.134.239-.39.352z"
       id="path95" />
  </g>
  <g
     font-size="2.646"
     fill="#fff"
     stroke-width=".2"
     id="g101">
    <path
       d="M10.236 71.754v-.518H9.81v-.215h.684v.828q-.15.108-.333.163-.182.055-.389.055-.452 0-.708-.264-.254-.265-.254-.736 0-.473.254-.737.256-.265.708-.265.189 0 .358.047.17.046.314.137v.278q-.145-.123-.308-.185-.162-.062-.342-.062-.354 0-.532.197-.177.198-.177.59 0 .39.177.587.178.198.532.198.138 0 .247-.023.108-.025.195-.075zM11.617 70.357l-.354.96h.71l-.356-.96zm-.147-.257h.296l.735 1.929h-.272l-.175-.495h-.87l-.175.495h-.276l.737-1.929zM12.781 70.1h.261v1.929h-.261V70.1zM13.561 70.1h.352l.855 1.614V70.1h.253v1.929h-.351l-.855-1.614v1.614h-.254V70.1z"
       id="path99" />
  </g>
  <path
     d="M12.437 35.942q-.285 0-.452.212-.167.212-.167.577 0 .364.167.576.167.212.452.212.284 0 .45-.212.166-.212.166-.576 0-.365-.167-.577-.165-.212-.45-.212zm.365 1.717l.344.376h-.315l-.286-.31-.066.005h-.042q-.407 0-.651-.27-.243-.273-.243-.729 0-.457.243-.729.244-.272.65-.272t.65.272q.242.272.242.729 0 .336-.136.575-.134.239-.39.353zM12.437 55.724q-.285 0-.452.212-.167.212-.167.578 0 .364.167.576.167.212.452.212.284 0 .45-.212.166-.212.166-.576 0-.366-.167-.578-.165-.212-.45-.212zm.365 1.717l.344.376h-.315l-.286-.308-.066.004h-.042q-.407 0-.651-.27-.243-.273-.243-.73 0-.457.243-.728.244-.273.65-.273t.65.273q.242.271.242.729 0 .335-.136.574-.134.24-.39.353z"
     font-size="2.646"
     fill="#fff"
     stroke-width=".2"
     id="path103" />
  <g
     font-size="2.646"
     fill="#fff"
     stroke-width=".2"
     id="g107">
    <path
       d="M3.702 76.93h.26v1.929h-.26v-1.93zM4.482 76.93h.351l.856 1.613V76.93h.253v1.929H5.59l-.855-1.614v1.614h-.253v-1.93z"
       id="path105" />
  </g>
  <g
     font-size="2.646"
     fill="#fff"
     stroke-width=".2"
     id="g111">
    <path
       d="M18.15 77.07q-.285 0-.453.211-.166.212-.166.578 0 .364.166.576.168.212.452.212.285 0 .45-.212.167-.212.167-.576 0-.366-.167-.578-.165-.212-.45-.212zm0-.213q.405 0 .648.273.243.271.243.729 0 .456-.243.728-.243.272-.649.272-.407 0-.65-.272-.244-.27-.244-.728 0-.458.243-.729.244-.273.651-.273zM19.42 76.892h.262v1.172q0 .31.112.447.112.136.364.136.251 0 .363-.136.113-.137.113-.447v-1.172h.262v1.204q0 .378-.187.57-.186.193-.55.193-.366 0-.554-.193-.186-.192-.186-.57v-1.204zM21.12 76.892h1.631v.22h-.685v1.71h-.262v-1.71h-.684v-.22z"
       id="path109" />
  </g>
  <path
     d="M8.836 29.123c4.363 0 3.024-2.112 4.37-2.128 1.347-.016.673 2.17 2.827 2.128"
     fill="none"
     stroke="#fff"
     stroke-width=".243"
     id="path113" />
  <g
     fill="none"
     stroke="#fff"
     id="g119">
    <path
       d="M9.243 66.591c4.07 0 1.39 1.52 6.385 1.52"
       stroke-width=".223"
       id="path115" />
    <path
       d="M12.565 68.16c-1.092.639-.936 1.064-3.235 1.064"
       stroke-width=".265"
       id="path117" />
  </g>
  <g
     fill="none"
     stroke="#fff"
     id="g125">
    <path
       d="M15.628 12.849c-4.071 0-1.39 1.52-6.385 1.52"
       stroke-width=".223"
       id="path121" />
    <path
       d="M12.305 14.417c1.093.639.937 1.064 3.235 1.064"
       stroke-width=".265"
       id="path123" />
  </g>
  <path
     d="M16.035 47.536c-4.363 0-3.024-2.112-4.37-2.128-1.347-.016-.673 2.17-2.827 2.128"
     fill="none"
     stroke="#fff"
     stroke-width=".243"
     id="path127" />
  <g
     style="-inkscape-font-specification:sans-serif"
     font-weight="400"
     font-size="3.182"
     font-family="sans-serif"
     fill="#fff"
     stroke-width=".938"
     id="g131">
    <path
       d="M.831.989v1.874h.365q.462 0 .676-.226.215-.226.215-.713 0-.485-.215-.71Q1.658.99 1.196.99H.83zM.53.72h.62q.65 0 .953.292.303.29.303.91 0 .624-.305.916-.305.293-.95.293H.53V.72zM4.305 2.153v.145H3.04q.018.307.17.469.155.16.428.16.159 0 .307-.043.15-.042.296-.125v.28q-.148.068-.304.104-.155.035-.315.035-.4 0-.635-.252-.234-.251-.234-.681 0-.444.222-.704.222-.262.6-.262.337 0 .533.236.197.234.197.638zm-.275-.087q-.003-.244-.127-.39-.123-.145-.326-.145-.23 0-.37.14-.137.141-.158.396l.981-.002zM4.722 2.418V1.323h.275v1.083q0 .257.093.386.093.128.278.128.223 0 .351-.153.13-.154.13-.419V1.323h.275v1.809H5.85v-.278q-.1.165-.233.245-.131.08-.306.08-.289 0-.438-.194-.15-.194-.15-.567zM8.085 1.323l-.605.88.637.929h-.324l-.488-.711-.487.71h-.324l.65-.946-.595-.862h.324l.444.644.444-.644h.324zM9.492.72h1.411v.275H9.794v.714h1.063v.274H9.794v.874h1.136v.275H9.492V.72zM11.684.81v.513h.566v.23h-.566v.983q0 .22.055.284.057.063.229.063h.282v.249h-.282q-.319 0-.44-.128-.121-.13-.121-.468v-.982h-.202v-.231h.202V.809h.277zM13.374 2.222q-.333 0-.462.083-.128.082-.128.28 0 .159.095.253.098.092.263.092.23 0 .367-.175.139-.176.139-.466v-.067h-.274zm.549-.122v1.032h-.275v-.275q-.094.165-.235.244-.14.077-.344.077-.257 0-.41-.155-.15-.156-.15-.418 0-.305.188-.46.19-.155.565-.155h.386v-.03q0-.204-.126-.316-.124-.113-.35-.113-.143 0-.28.037-.135.037-.26.112v-.275q.15-.063.292-.093.142-.033.277-.033.363 0 .542.204.18.203.18.617zM15.598 2.206q0-.323-.124-.5-.122-.178-.345-.178-.221 0-.345.178-.123.177-.123.5 0 .322.123.5.124.177.345.177.223 0 .345-.178.124-.177.124-.499zm.276.701q0 .462-.19.686-.19.226-.582.226-.145 0-.273-.024-.129-.022-.25-.07v-.29q.121.071.24.105.117.034.24.034.27 0 .405-.153.134-.152.134-.46v-.148q-.085.16-.218.24-.133.078-.318.078-.308 0-.496-.253-.189-.254-.189-.672 0-.42.189-.673.188-.254.496-.254.185 0 .318.08.133.078.218.238v-.274h.276v1.584zM17.872 2.153v.145h-1.265q.018.307.17.469.155.16.428.16.159 0 .307-.043.15-.042.296-.125v.28q-.148.068-.304.104-.155.035-.315.035-.4 0-.635-.252-.234-.251-.234-.681 0-.444.222-.704.222-.262.6-.262.337 0 .533.236.197.234.197.638zm-.275-.087q-.003-.244-.127-.39-.123-.145-.326-.145-.23 0-.37.14-.137.141-.158.396l.981-.002zm-.69-1.58l.422.604h-.228l-.488-.604h.295zM19.288 1.6q-.047-.028-.102-.041-.054-.015-.12-.015-.233 0-.358.165-.124.163-.124.47v.953h-.277v-1.81h.277v.282q.086-.165.225-.244.14-.08.338-.08.029 0 .063.004t.076.012l.002.305zM20.948 2.153v.145h-1.264q.018.307.17.469.154.16.428.16.158 0 .306-.043.15-.042.296-.125v.28q-.148.068-.303.104-.156.035-.316.035-.4 0-.635-.252-.233-.251-.233-.681 0-.444.221-.704.223-.262.6-.262.337 0 .533.236.197.234.197.638zm-.275-.087q-.003-.244-.127-.39-.122-.145-.326-.145-.23 0-.369.14-.137.141-.158.396l.98-.002zM22.464 1.376v.281q-.116-.064-.242-.097-.126-.032-.26-.032-.205 0-.308.068-.102.068-.102.203 0 .104.074.163.073.058.294.112l.094.022q.293.068.416.193.124.122.124.344 0 .251-.185.398-.184.147-.507.147-.135 0-.281-.029-.145-.027-.307-.084v-.307q.153.086.3.13.149.042.294.042.194 0 .299-.071.104-.073.104-.204 0-.121-.076-.186-.075-.064-.33-.124l-.096-.024q-.256-.058-.37-.178-.113-.121-.113-.33 0-.256.168-.395.167-.139.475-.139.153 0 .287.024.135.025.248.073z"
       id="path129" />
  </g>
  <g
     style="-inkscape-font-specification:sans-serif"
     font-weight="400"
     font-size="1.984"
     font-family="sans-serif"
     fill="#fff"
     stroke-width="3.543"
     id="g135">
    <path
       d="M1.46 4.323v.191q-.111-.053-.21-.08-.099-.026-.19-.026-.16 0-.248.062-.086.062-.086.177 0 .096.057.145.058.048.219.078l.118.025q.22.041.323.147.105.105.105.28 0 .211-.142.32-.14.108-.413.108-.102 0-.219-.023-.115-.023-.239-.069v-.201q.12.066.233.1.115.034.225.034.168 0 .259-.066t.091-.188q0-.106-.066-.166-.065-.06-.214-.09l-.12-.024q-.218-.043-.316-.136-.098-.093-.098-.259 0-.192.135-.302.135-.11.373-.11.102 0 .207.018.106.018.216.055zM2.025 4.329v.308h.367v.139h-.367v.589q0 .132.036.17.037.038.148.038h.183v.15H2.21q-.206 0-.285-.077-.078-.078-.078-.281v-.59h-.13v-.138h.13v-.308h.18zM3.556 5.135v.087h-.82q.012.184.11.281.1.096.278.096.103 0 .199-.025.096-.025.191-.076v.169q-.095.04-.196.062-.101.021-.205.021-.26 0-.411-.15-.152-.152-.152-.41 0-.266.144-.422.144-.157.388-.157.22 0 .346.141.128.14.128.383zm-.178-.052q-.002-.147-.083-.234-.079-.087-.21-.087-.15 0-.24.084-.09.085-.103.238l.636-.001zM4.474 4.804q-.03-.018-.066-.026-.035-.009-.078-.009-.15 0-.232.1-.08.097-.08.281v.572h-.18V4.637h.18v.168q.056-.098.146-.146.09-.048.219-.048.018 0 .04.003.023.002.05.007v.183zM5.55 5.135v.087h-.82q.012.184.11.281.1.096.278.096.103 0 .199-.025.097-.025.192-.076v.169q-.096.04-.197.062-.1.021-.205.021-.26 0-.411-.15-.152-.152-.152-.41 0-.266.144-.422.144-.157.388-.157.22 0 .346.141.128.14.128.383zm-.178-.052q-.002-.147-.082-.234-.08-.087-.212-.087-.149 0-.239.084-.09.085-.103.238l.636-.001zM6.261 4.762q-.143 0-.226.112-.084.112-.084.307 0 .194.083.307.083.111.227.111.143 0 .226-.112.083-.113.083-.306t-.083-.306q-.083-.113-.226-.113zm0-.151q.233 0 .366.151.132.151.132.419 0 .266-.132.418-.133.151-.366.151-.233 0-.366-.15-.132-.153-.132-.42t.132-.418q.133-.151.366-.151zM7.693 4.276h.915v.164H7.89v.429h.69v.164h-.69v.525h.737v.164h-.933V4.276zM9.532 4.408q-.213 0-.339.16-.125.158-.125.432t.125.433q.126.158.34.158.213 0 .337-.158.125-.16.125-.433 0-.274-.125-.433-.124-.159-.338-.159zm.275 1.288l.257.282h-.236l-.214-.232-.05.003-.032.001q-.305 0-.488-.203-.182-.204-.182-.547 0-.343.182-.546.183-.204.488-.204t.487.204q.182.203.182.546 0 .252-.102.432-.1.179-.292.264zM11.139 4.276h.831v.164h-.635v.427h.573v.164h-.573v.691h-.196V4.276zM12.13 4.637h.178v1.085h-.179V4.637zm0-.422h.178v.225h-.179v-.225zM12.682 4.215h.178v1.507h-.178V4.215zM13.408 4.329v.308h.367v.139h-.367v.589q0 .132.036.17.037.038.148.038h.183v.15h-.183q-.206 0-.285-.077-.078-.078-.078-.281v-.59h-.13v-.138h.13v-.308h.18zM14.94 5.135v.087h-.82q.011.184.11.281.1.096.277.096.103 0 .199-.025.097-.025.191-.076v.169q-.095.04-.196.062-.101.021-.205.021-.26 0-.411-.15-.152-.152-.152-.41 0-.266.144-.422.144-.157.388-.157.22 0 .346.141.128.14.128.383zm-.18-.052q-.001-.147-.082-.234-.079-.087-.21-.087-.15 0-.24.084-.09.085-.103.238l.636-.001zM15.857 4.804q-.03-.018-.066-.026-.035-.009-.078-.009-.15 0-.232.1-.08.097-.08.281v.572h-.18V4.637h.18v.168q.056-.098.146-.146.09-.048.219-.048.018 0 .04.003.023.002.05.007v.183z"
       id="path133" />
  </g>
  <path
     d="M10.269 81.501h.26v1.71h.94v.219h-1.2v-1.929zM11.183 90.006q.084.028.163.121.08.093.16.256l.265.527h-.28l-.247-.495q-.096-.194-.186-.257t-.244-.063h-.284v.815h-.261v-1.929h.589q.33 0 .493.138.163.139.163.418 0 .182-.085.302-.084.12-.246.167zm-.653-.81v.684h.328q.188 0 .284-.086.097-.088.097-.257 0-.17-.097-.255-.096-.086-.284-.086h-.328z"
     font-weight="400"
     font-size="2.646"
     font-family="sans-serif"
     fill="#fff"
     stroke-width="3.543"
     id="path137" />
</svg>
