<svg xmlns="http://www.w3.org/2000/svg" xmlns:xlink="http://www.w3.org/1999/xlink" width="90" height="380" viewBox="0 0 23.813 100.542">
    <defs>
        <linearGradient id="b">
            <stop offset="0" stop-color="#fff"/>
            <stop offset="1" stop-opacity="0"/>
        </linearGradient>
        <linearGradient id="a">
            <stop offset="0" stop-color="#fdfdfd"/>
            <stop offset="1" stop-color="#fdfdfd"/>
        </linearGradient>
        <radialGradient gradientUnits="userSpaceOnUse" gradientTransform="matrix(.4218 0 0 .02673 -105.982 272.192)" r="69.827" fy="856.052" fx="285.494" cy="856.052" cx="285.494" id="d" xlink:href="#a"/>
        <linearGradient gradientUnits="userSpaceOnUse" y2="832.532" x2="279.915" y1="830.884" x1="268.967" id="h" xlink:href="#b" gradientTransform="matrix(.26458 0 0 .26458 -59.861 72.341)"/>
        <clipPath clipPathUnits="userSpaceOnUse" id="j">
            <path d="M184.208 39.92h98.9v30.245h-98.9z" fill-rule="evenodd" stroke-width=".486" stroke-linejoin="round"/>
        </clipPath>
        <clipPath clipPathUnits="userSpaceOnUse" id="i">
            <path d="M0 288.998h23.813V297H0z" fill-rule="evenodd" stroke-width=".486" stroke-linejoin="round"/>
        </clipPath>
        <clipPath clipPathUnits="userSpaceOnUse" id="g">
            <path d="M0 288.998h23.813V297H0z" fill-rule="evenodd" stroke-width=".486" stroke-linejoin="round"/>
        </clipPath>
        <clipPath clipPathUnits="userSpaceOnUse" id="f">
            <path d="M216.698-20.865h99.864v33.56h-99.864z" fill-rule="evenodd" stroke-width=".486" stroke-linejoin="round"/>
        </clipPath>
        <clipPath clipPathUnits="userSpaceOnUse" id="e">
            <path d="M0 288.998h23.813V297H0z" fill-rule="evenodd" stroke-width=".486" stroke-linejoin="round"/>
        </clipPath>
        <clipPath clipPathUnits="userSpaceOnUse" id="c">
            <path d="M0 288.998h23.813V297H0z" fill-rule="evenodd" stroke-width=".486" stroke-linejoin="round"/>
        </clipPath>
    </defs>
    <path d="M0 0h23.813v100.542H0z" fill-rule="evenodd"/>
    <path d="M31.483 294.933l-17.042-.125-14.418.125-.878-3.47c4.81-1.004 10.75-1.724 16.17-1.72 5.716.006 9.887.467 17.047 1.845z" clip-path="url(#c)" fill="url(#d)" stroke="#8b8b8b" stroke-width=".397" transform="translate(0 -196.458)"/>
    <path d="M0 291.993c10.904-1.21 21.546-.99 31.75.123l-.033 3.296H0z" clip-path="url(#e)" transform="translate(0 -196.458)"/>
    <g transform="matrix(.23845 0 0 .23845 -51.671 97.515)" clip-path="url(#f)">
        <path d="M291.232-10.527l6.43-3.034 5.953-.742 4.222.511 5.886 2.16 4.683 4.37z" fill-rule="evenodd"/>
        <g stroke="#fff">
            <g color="#000" fill="none" stroke-linejoin="bevel">
                <path d="M2.117 188.81l18.113 36.226 65.551 31.913 90.564 13.8 94.877-11.213 60.376-31.913 14.663-30.188-14.663-37.951.324 67.923-33.1-64.473-25.875 96.602-58.651-80.214-40.538 91.427-40.538-75.902-46.576 61.239-17.098-92.852-49.316 62.663 6.037-89.702 44.241 27.296 63.574 32.218 80-16.819 86.466-15.957 31.051-3.666-33.279-62.05 1.366 64.853-64.689-74.392-20.7 91.427-69.001-66.198-75.902 50.026L84.751 80.38l-59.346 55.816 24.151-56.064h34.501l81.077-37.088-18.975 69.864 89.702-24.15 62.101 7.762-66.314-54.334 4.212 46.571-70.726-45.713 66.414-1.725-53.476-15.525-12.938 16.388-49.164-6.9-66.414 44.85-33.333 49.417 9.183 6.647L2.118 188.81z" stroke-width="2.892" transform="matrix(.09825 0 0 .0698 286.195 -16.043)"/>
                <path d="M133.17 195.51l12.99-80.876-61.407-35.517 32.081-44.697 28.463-4.313 32.776-5.175 41.401 6.9 12.938 10.35 47.438 20.7 18.975 34.501 30.188 30.188 2.803 31.913" stroke-width="2.892" transform="matrix(.09825 0 0 .0698 286.195 -16.043)"/>
                <path d="M329.01 126.71l-49.16-63.83-59.77-31.05M1.926 188.186L16.11 129.84" stroke-width="2" transform="matrix(.09825 0 0 .0698 286.195 -16.043)"/>
            </g>
        </g>
        <path d="M320.187-2.25l-1.666-4.93" fill="none" stroke="#fff" stroke-width=".2"/>
    </g>
    <path d="M2.826 292.087l3.72-1.531.758.608 1.108-.783 2.215.291.933-.35 3.024.98-1.042.478-9.503.292z" clip-path="url(#i)" fill-rule="evenodd" transform="translate(0 -196.458)"/>
    <g style="line-height:125%" transform="matrix(.24078 0 0 .26458 -44.353 81.977)" clip-path="url(#j)" font-weight="400" font-size="7.5" font-family="Geneva" letter-spacing="0" word-spacing="0" fill="#fff">
        <path style="-inkscape-font-specification:Geneva" d="M186.153 66.995h.681v.015q0 .263.201.44.202.171.682.171.42 0 .68-.205.264-.205.264-.483 0-.377-.512-.535l-.348-.106-.23-.073-.473-.147q-.81-.296-.81-.985 0-.483.392-.85.392-.366 1.165-.366.761 0 1.084.315.322.311.322.692v.015h-.685v-.015q0-.205-.209-.322-.205-.117-.549-.117-.41 0-.63.172-.216.168-.216.417 0 .19.14.312.142.117.475.212l.33.092.238.07q.498.142.619.2.124.06.249.15.172.133.253.32.084.186.084.435 0 .579-.418.974-.413.396-1.212.396-.505 0-.838-.15-.334-.15-.531-.414-.198-.267-.198-.615v-.015zM199.465 68.189q-.802 0-1.37-.542-.564-.546-.564-1.619 0-1.07.564-1.611.568-.546 1.37-.546.798 0 1.362.546.568.542.568 1.611 0 1.073-.568 1.619-.564.542-1.362.542zm0-.568q.549 0 .882-.436.337-.439.337-1.157 0-.714-.337-1.15-.333-.44-.882-.44-.553 0-.89.44-.334.436-.334 1.15 0 .718.334 1.157.337.436.89.436zM212.4 63.985h.68v4.09h-.68v-.714q-.213.33-.418.495-.205.164-.421.249-.217.084-.473.084-.567 0-.963-.319-.396-.322-.396-1.292v-2.593h.682v2.307q0 .897.238 1.084.238.187.59.187.303 0 .57-.176.272-.18.429-.498.161-.322.161-.894v-2.01zM224.18 67.497v.571q-.498.12-.762.12-.38 0-.688-.153-.304-.154-.465-.447-.158-.293-.158-.934v-2.102h-.71v-.567h.71v-.967h.682v.967h1.193v.567h-1.193v1.908q0 .542.084.755.084.208.263.307.184.1.436.1.202 0 .608-.125zM233.2 68.075h-.681v-5.91h.68v2.527q.217-.334.418-.495.206-.161.425-.242.224-.084.495-.084.384 0 .688.158.308.157.476.465.169.304.169.978v2.603h-.682v-2.31q0-.55-.073-.777-.073-.23-.278-.359-.205-.132-.469-.132-.3 0-.571.176-.271.176-.436.49-.161.316-.161.902v2.01zM245.04 69.665h-.682v-5.68h.682v.71q.212-.362.402-.513.194-.15.436-.23.242-.08.498-.08.469 0 .857.256.388.252.6.758.217.505.217 1.135 0 .934-.45 1.553-.447.615-1.257.615-.26 0-.494-.077-.23-.073-.41-.22-.18-.15-.4-.53v2.303zm0-3.633q0 .696.3 1.142.3.447.846.447.498 0 .827-.395.33-.396.33-1.183 0-.92-.348-1.275-.348-.358-.795-.358-.322 0-.604.197-.278.194-.417.583-.14.384-.14.842zM258.176 68.189q-.802 0-1.37-.542-.564-.546-.564-1.619 0-1.07.564-1.611.568-.546 1.37-.546.798 0 1.362.546.567.542.567 1.611 0 1.073-.567 1.619-.564.542-1.362.542zm0-.568q.549 0 .882-.436.337-.439.337-1.157 0-.714-.337-1.15-.333-.44-.882-.44-.553 0-.89.44-.334.436-.334 1.15 0 .718.334 1.157.337.436.89.436zM269.177 68.075h-.682v-5.91h.682v5.91zM280.456 67.024h.681v.037q0 .27-.216.553-.216.282-.571.428-.356.147-.817.147-.934 0-1.443-.604-.505-.605-.505-1.528 0-.944.534-1.563.539-.623 1.385-.623.465 0 .842.202.377.201.597.63.22.424.22 1.186v.227h-2.904q0 .656.351 1.08.355.425.982.425.45 0 .655-.172.209-.176.209-.388v-.037zm-2.154-1.42h2.209v-.081q0-.286-.14-.553-.135-.271-.377-.4-.241-.131-.564-.131-.38 0-.703.307-.322.304-.425.857z"/>
    </g>
    <g font-size="1.984" fill="#fff" stroke="#fff" stroke-width=".053">
        <path d="M14.738 74.556l-.552-1.447h.204l.459 1.218.46-1.218h.203l-.552 1.447h-.222zM16.03 73.109h.166l-.504 1.63h-.165l.504-1.63zM16.98 73.242q-.214 0-.34.159-.125.159-.125.433 0 .273.125.432.126.159.34.159.213 0 .337-.16.125-.158.125-.431 0-.274-.125-.433-.124-.16-.338-.16zm0-.16q.304 0 .486.205.182.204.182.547 0 .342-.182.546-.182.204-.487.204t-.488-.204q-.182-.203-.182-.546t.182-.547q.183-.204.488-.204zM19.037 73.22v.207q-.098-.092-.21-.138-.112-.045-.238-.045-.248 0-.38.152-.132.151-.132.438 0 .286.132.438.132.15.38.15.126 0 .237-.045.113-.045.211-.137v.204q-.102.07-.218.105-.114.035-.242.035-.328 0-.517-.2-.19-.202-.19-.55 0-.349.19-.55.189-.201.517-.201.13 0 .244.035.116.034.216.103zM19.141 73.109h1.224v.165h-.514v1.282h-.196v-1.282h-.514v-.165z"/>
    </g>
    <path d="M11.696 76.194h10.135c.848 0 1.53.755 1.53 1.693v12.448c0 .938-.682 1.693-1.53 1.693H11.696c-.848 0-1.53-.755-1.53-1.693V77.887c0-.938.682-1.693 1.53-1.693z" fill="#404040"/>
    <g font-size="1.984" fill="#fff" stroke="#fff" stroke-width=".053">
        <path d="M11.902 79.674q-.214 0-.34.159-.125.159-.125.433 0 .273.125.432.126.159.34.159.213 0 .337-.16.125-.158.125-.431 0-.274-.125-.433-.124-.16-.337-.16zm0-.16q.304 0 .486.205.182.204.182.547 0 .342-.182.546-.182.204-.486.204-.306 0-.489-.204-.182-.203-.182-.546t.182-.547q.183-.204.489-.204zM13.072 79.702v1.125h.236q.3 0 .438-.136.14-.136.14-.428 0-.29-.14-.426-.138-.135-.438-.135h-.236zm-.196-.161h.402q.42 0 .618.175.196.175.196.547 0 .374-.197.55-.198.175-.617.175h-.402V79.54zM14.6 79.702v1.125h.235q.3 0 .438-.136.14-.136.14-.428 0-.29-.14-.426-.138-.135-.438-.135H14.6zm-.197-.161h.402q.421 0 .618.175.196.175.196.547 0 .374-.197.55-.198.175-.617.175h-.402V79.54z"/>
    </g>
    <g font-size="1.984" fill="#fff" stroke="#fff" stroke-width=".053">
        <path d="M11.14 87.755h.914v.165h-.719v.428h.69v.165h-.69v.524h.737v.165h-.932v-1.447zM12.765 89.202l-.553-1.447h.205l.458 1.218.46-1.218h.203l-.551 1.447h-.222zM13.748 87.755h.915v.165h-.72v.428h.69v.165h-.69v.524h.737v.165h-.932v-1.447zM15 87.755h.264l.641 1.21v-1.21h.19v1.447h-.264l-.641-1.21v1.21H15v-1.447z"/>
    </g>
    <path d="M8.379 24.314h.962v.212h-.962v-.212z" font-size="2.646" fill="#fff" stroke="#fff" stroke-width=".062"/>
    <path d="M14.771 23.481v.72h.72v.22h-.72v.72h-.217v-.72h-.72v-.22h.72v-.72h.217z" font-size="2.646" fill="#fff" stroke="#fff" stroke-width=".053"/>
    <path d="M8.379 32.468h.962v.212h-.962v-.212z" fill="#fff" stroke="#fff" stroke-width=".062"/>
    <path d="M14.771 31.637v.72h.72v.22h-.72v.72h-.217v-.72h-.72v-.22h.72v-.72h.217z" fill="#fff" stroke="#fff" stroke-width=".053"/>
    <path d="M8.379 41.266h.962v.212h-.962v-.212z" fill="#fff" stroke="#fff" stroke-width=".062"/>
    <path d="M14.771 40.437v.72h.72v.22h-.72v.72h-.217v-.72h-.72v-.22h.72v-.72h.217z" fill="#fff" stroke="#fff" stroke-width=".053"/>
    <path d="M8.379 50.931h.962v.212h-.962v-.212z" fill="#fff" stroke="#fff" stroke-width=".062"/>
    <path d="M14.771 50.106v.72h.72v.219h-.72v.72h-.217v-.72h-.72v-.22h.72v-.72h.217z" fill="#fff" stroke="#fff" stroke-width=".053"/>
    <path d="M8.379 59.777h.962v.212h-.962v-.212z" fill="#fff" stroke="#fff" stroke-width=".062"/>
    <path d="M14.771 58.953v.72h.72v.22h-.72v.72h-.217v-.72h-.72v-.22h.72v-.72h.217z" fill="#fff" stroke="#fff" stroke-width=".053"/>
    <g style="line-height:100%" font-size="3.307" fill="#fff" stroke-width="10.63">
        <path d="M1.38 1.384V3.26h.394q.5 0 .73-.226.233-.226.233-.714 0-.484-.233-.709-.23-.226-.73-.226H1.38zm-.326-.268h.67q.701 0 1.029.292.328.291.328.911 0 .624-.33.916-.33.292-1.027.292h-.67v-2.41zM3.586 1.718h.297v1.81h-.297v-1.81zm0-.704h.297v.377h-.297v-.377zM5.656 1.772v.28q-.125-.064-.261-.096t-.281-.032q-.221 0-.333.067-.11.068-.11.204 0 .103.08.163.079.058.318.111l.101.023q.317.068.45.192.133.123.133.344 0 .252-.2.399-.199.147-.547.147-.146 0-.304-.03-.157-.027-.331-.083v-.307q.165.086.325.13.16.041.316.041.21 0 .323-.07.113-.074.113-.204 0-.121-.082-.186-.08-.065-.357-.124l-.103-.025q-.277-.058-.4-.177-.122-.121-.122-.331 0-.255.18-.394.182-.14.514-.14.165 0 .31.025.146.024.268.073zM7.05 2.618q-.36 0-.499.082-.139.083-.139.281 0 .159.104.252.105.092.284.092.247 0 .395-.174.15-.176.15-.467v-.066H7.05zm.593-.123v1.032h-.297v-.274q-.102.164-.254.243-.152.078-.371.078-.278 0-.443-.155-.163-.157-.163-.418 0-.306.204-.46.205-.156.61-.156h.417v-.029q0-.205-.136-.316-.134-.113-.378-.113-.155 0-.302.037t-.282.111v-.274q.163-.063.316-.094.153-.032.299-.032.392 0 .586.203.194.204.194.617zM9.416 1.772v.28q-.126-.064-.262-.096-.135-.032-.28-.032-.222 0-.333.067-.11.068-.11.204 0 .103.079.163.08.058.318.111l.102.023q.316.068.449.192.134.123.134.344 0 .252-.2.399-.199.147-.548.147-.145 0-.303-.03-.157-.027-.332-.083v-.307q.165.086.325.13.16.041.317.041.21 0 .323-.07.113-.074.113-.204 0-.121-.083-.186-.08-.065-.357-.124l-.103-.025q-.276-.058-.399-.177-.123-.121-.123-.331 0-.255.181-.394.181-.14.514-.14.165 0 .31.025.145.024.268.073zM10.282 1.205v.513h.612v.231h-.612v.982q0 .222.06.284.06.063.246.063h.306v.25h-.306q-.344 0-.474-.128-.131-.13-.131-.469V1.95h-.218v-.23h.218v-.514h.299zM12.334 1.996q-.05-.029-.11-.042-.058-.014-.129-.014-.252 0-.388.164-.134.164-.134.47v.953h-.298V1.72h.298v.28q.094-.164.244-.243.15-.081.365-.081.03 0 .068.005.037.003.082.011l.002.305zM13.282 1.927q-.239 0-.378.187-.139.186-.139.51 0 .325.137.512.14.186.38.186.237 0 .376-.187.14-.188.14-.51t-.14-.51q-.139-.188-.376-.188zm0-.252q.388 0 .609.252.221.252.221.697 0 .445-.221.698-.221.252-.609.252-.39 0-.61-.252-.22-.253-.22-.698 0-.445.22-.697.22-.252.61-.252zM14.576 2.813V1.718h.297v1.084q0 .257.1.386.1.128.3.128.24 0 .38-.154.14-.153.14-.418V1.718h.297v1.81h-.297v-.279q-.108.165-.252.246-.142.079-.33.079-.313 0-.474-.194-.161-.194-.161-.567zM17.859 1.772v.28q-.126-.064-.262-.096t-.281-.032q-.221 0-.333.067-.11.068-.11.204 0 .103.08.163.079.058.318.111l.101.023q.317.068.45.192.133.123.133.344 0 .252-.2.399-.198.147-.547.147-.146 0-.304-.03-.156-.027-.33-.083v-.307q.164.086.324.13.16.041.316.041.21 0 .323-.07.113-.074.113-.204 0-.121-.082-.186-.08-.065-.357-.124l-.103-.025q-.276-.058-.4-.177-.122-.121-.122-.331 0-.255.18-.394.182-.14.514-.14.165 0 .31.025.146.024.269.073zM1.38 4.691v.906h.41q.228 0 .352-.117.125-.118.125-.336 0-.217-.125-.335-.124-.118-.352-.118h-.41zm-.326-.268h.736q.406 0 .612.185.209.182.209.536 0 .357-.209.539-.206.183-.612.183h-.41v.968h-.326v-2.41zM4.468 5.856V6H3.102q.02.307.184.468.166.16.462.16.17 0 .33-.042.162-.042.32-.126v.281q-.16.068-.327.104-.168.035-.341.035-.433 0-.686-.252-.252-.252-.252-.681 0-.444.239-.704.24-.262.647-.262.365 0 .577.236.213.234.213.638zm-.297-.087q-.003-.244-.137-.39-.133-.145-.353-.145-.248 0-.398.14-.149.141-.172.396l1.06-.002zM5.771 5.925q-.36 0-.499.083-.139.082-.139.28 0 .159.104.253.105.092.284.092.247 0 .395-.175.15-.176.15-.467v-.066h-.295zm.593-.122v1.031h-.297V6.56q-.102.165-.254.244-.152.077-.371.077-.278 0-.443-.155-.163-.156-.163-.418 0-.305.204-.46.205-.155.61-.155h.417v-.03q0-.204-.136-.316-.134-.113-.378-.113-.155 0-.302.037t-.282.112v-.275q.163-.063.316-.094.153-.032.299-.032.392 0 .586.204.194.203.194.616zM8.286 5.095v.278q-.126-.07-.254-.103-.126-.036-.255-.036-.29 0-.45.184-.159.183-.159.514 0 .33.16.515.16.182.449.182.129 0 .255-.034.128-.035.254-.104v.274q-.125.058-.259.087-.132.03-.282.03-.409 0-.65-.257-.24-.257-.24-.693 0-.443.242-.696.244-.254.667-.254.137 0 .268.03.13.027.254.083zM10.346 5.856V6H8.98q.02.307.184.468.166.16.462.16.171 0 .33-.042.162-.042.32-.126v.281q-.16.068-.327.104-.168.035-.34.035-.434 0-.687-.252-.252-.252-.252-.681 0-.444.239-.704.24-.262.647-.262.365 0 .577.236.213.234.213.638zm-.297-.087q-.003-.244-.137-.39-.133-.145-.352-.145-.249 0-.4.14-.148.141-.17.396l1.059-.002z"/>
    </g>
    <g font-size="1.984" fill="#fff" stroke-width="10.63">
        <path d="M1.612 9.617v.206q-.099-.092-.211-.137-.112-.046-.238-.046-.248 0-.38.152-.131.151-.131.438 0 .286.131.438.132.151.38.151.126 0 .238-.045.112-.046.21-.138v.205q-.102.07-.217.104-.115.035-.242.035-.329 0-.518-.2-.189-.202-.189-.55 0-.349.19-.55.188-.2.517-.2.13 0 .244.034.115.034.216.103zM1.916 9.505h.196v.593h.711v-.593h.196v1.447h-.196v-.689h-.711v.69h-.196V9.504zM3.995 9.638q-.213 0-.339.16-.125.158-.125.432 0 .273.125.432.126.16.34.16.213 0 .337-.16.125-.159.125-.432 0-.274-.125-.433-.124-.159-.338-.159zm0-.159q.305 0 .487.205.182.203.182.546 0 .342-.182.547-.182.203-.487.203t-.488-.203q-.182-.204-.182-.547 0-.343.182-.546.183-.205.488-.205zM5.656 10.274q.063.021.122.09.06.07.12.193l.199.395h-.21l-.185-.371q-.072-.145-.14-.193-.067-.047-.183-.047h-.213v.611H4.97V9.505h.442q.248 0 .37.104t.122.313q0 .137-.064.227-.063.09-.184.125zm-.49-.608v.514h.246q.141 0 .213-.065.073-.066.073-.193t-.073-.19q-.072-.066-.213-.066h-.246zM6.546 9.666v1.125h.236q.3 0 .438-.135.14-.136.14-.429 0-.29-.14-.425-.139-.136-.438-.136h-.236zm-.196-.16h.402q.42 0 .617.175.197.174.197.546 0 .374-.198.55-.197.175-.616.175H6.35V9.505zM9.376 9.553v.19q-.112-.052-.21-.079-.1-.026-.191-.026-.16 0-.247.062t-.087.176q0 .096.058.146.058.048.219.078l.118.025q.219.041.322.147.105.104.105.28 0 .211-.141.32-.14.108-.413.108-.103 0-.22-.023-.114-.023-.238-.069v-.201q.119.066.233.1.114.034.225.034.167 0 .259-.066.09-.066.09-.188 0-.106-.065-.166-.065-.06-.214-.09l-.12-.024q-.219-.043-.316-.136-.098-.093-.098-.259 0-.192.134-.302.136-.11.373-.11.102 0 .208.018.105.018.216.055zM9.772 9.505h.196v1.447h-.196V9.505zM10.274 9.505h1.137v.15l-.915 1.132h.937v.165h-1.181v-.15l.914-1.132h-.892v-.165zM11.718 9.505h.914v.165h-.718v.428h.688v.165h-.688v.524h.736v.165h-.932V9.505z"/>
    </g>
    <g font-size="1.984" fill="#fff" stroke-width="10.63">
        <path d="M6.818 22.089q.063.021.122.091.06.07.12.192l.2.395h-.211l-.185-.37q-.072-.146-.14-.194-.066-.047-.183-.047h-.213v.611h-.196v-1.446h.442q.248 0 .37.103.122.104.122.313 0 .137-.064.227-.063.09-.184.125zm-.49-.608v.514h.246q.142 0 .213-.065.073-.066.073-.193t-.073-.19q-.071-.066-.213-.066h-.246zM8.1 21.453q-.214 0-.34.16-.125.158-.125.432t.125.432q.126.16.34.16.212 0 .337-.16.124-.158.124-.432t-.124-.433q-.125-.159-.338-.159zm0-.159q.304 0 .486.205.182.203.182.546 0 .342-.182.547-.182.203-.487.203t-.488-.203q-.182-.204-.182-.547 0-.343.182-.546.183-.205.488-.205zM9.661 21.453q-.213 0-.339.16-.125.158-.125.432t.125.432q.126.16.34.16.212 0 .336-.16.125-.158.125-.432t-.125-.433q-.124-.159-.337-.159zm0-.159q.304 0 .487.205.182.203.182.546 0 .342-.182.547-.183.203-.487.203-.305 0-.488-.203-.182-.204-.182-.547 0-.343.182-.546.183-.205.488-.205zM10.435 21.32h1.224v.165h-.513v1.282h-.197v-1.282h-.514v-.164zM12.485 21.32h.263l.642 1.21v-1.21h.19v1.447h-.264l-.641-1.21v1.21h-.19v-1.446zM14.556 21.453q-.213 0-.339.16-.125.158-.125.432t.125.432q.126.16.34.16.212 0 .336-.16.125-.158.125-.432t-.125-.433q-.124-.159-.337-.159zm0-.159q.305 0 .487.205.182.203.182.546 0 .342-.182.547-.182.203-.487.203t-.488-.203q-.182-.204-.182-.547 0-.343.182-.546.183-.205.488-.205zM15.33 21.32h1.224v.165h-.513v1.282h-.197v-1.282h-.514v-.164zM16.748 21.32h.915v.165h-.72v.429h.69v.164h-.69v.524h.737v.165h-.932v-1.446z"/>
    </g>
    <g font-size="1.984" fill="#fff" stroke-width="10.63">
        <path d="M6.761 30.2v.207q-.099-.092-.211-.138-.111-.045-.237-.045-.248 0-.38.152-.132.151-.132.438 0 .286.132.438.132.151.38.151.126 0 .237-.045.112-.046.211-.138v.204q-.102.07-.218.105-.114.035-.242.035-.328 0-.517-.2-.19-.202-.19-.55 0-.349.19-.55.189-.2.517-.2.13 0 .244.034.115.034.216.103zM7.065 30.09h.196v.592h.711v-.593h.196v1.447h-.196v-.69h-.71v.69h-.197v-1.447zM9.145 30.222q-.213 0-.34.159-.124.159-.124.433 0 .273.125.432.126.159.339.159.213 0 .337-.159.125-.159.125-.432 0-.274-.125-.433-.124-.16-.337-.16zm0-.159q.304 0 .486.204t.182.547q0 .342-.182.546-.182.204-.486.204-.305 0-.489-.204-.182-.203-.182-.546t.182-.547q.184-.204.489-.204zM10.806 30.858q.063.02.122.09.06.07.12.193l.198.395h-.21l-.185-.371q-.072-.146-.14-.193-.066-.048-.183-.048h-.213v.612h-.195v-1.447h.441q.248 0 .37.104.123.104.123.313 0 .136-.064.227-.063.09-.184.125zm-.49-.608v.514h.245q.142 0 .214-.065.072-.066.072-.193t-.072-.191q-.072-.065-.214-.065h-.246zM11.695 30.25v1.125h.236q.3 0 .438-.136.14-.135.14-.428 0-.29-.14-.425-.138-.136-.438-.136h-.236zm-.196-.16h.402q.42 0 .618.175.196.174.196.546 0 .374-.197.55-.198.175-.617.175H11.5v-1.447zM13.458 30.09h1.223v.164h-.513v1.282h-.197v-1.282h-.513v-.165z"/>
        <path d="M14.676 30.09h.21l.402.594.398-.595h.21l-.511.758v.689h-.197v-.69l-.512-.757zM16.284 30.25v.544h.246q.137 0 .211-.071.075-.07.075-.202 0-.13-.075-.2-.074-.07-.211-.07h-.246zm-.196-.16h.442q.243 0 .367.11.125.11.125.321 0 .214-.125.324-.124.11-.367.11h-.246v.58h-.196V30.09zM17.286 30.09h.914v.164h-.719v.428h.69v.165h-.69v.524h.737v.165h-.932v-1.447z"/>
    </g>
    <g font-size="1.984" fill="#fff" stroke-width="10.63">
        <path d="M4.82 39.37q.064.022.123.092.06.07.12.192l.199.395h-.21l-.186-.371q-.071-.145-.14-.193-.066-.047-.182-.047H4.33v.611h-.196v-1.447h.442q.248 0 .37.104t.122.313q0 .137-.064.227-.063.09-.184.125zm-.49-.607v.514h.247q.141 0 .213-.065.073-.066.073-.193t-.073-.19q-.072-.066-.213-.066H4.33zM5.515 38.602h.914v.165H5.71v.428h.69v.165h-.69v.524h.737v.165h-.932v-1.447zM7.753 39.843v-.389h-.32v-.16h.514v.62q-.114.08-.25.122-.137.041-.292.041-.34 0-.53-.197-.192-.2-.192-.553 0-.354.191-.552.192-.199.531-.199.142 0 .268.035.128.035.236.103v.208q-.109-.092-.23-.138-.123-.047-.257-.047-.266 0-.4.148-.132.149-.132.442 0 .293.132.441.134.148.4.148.103 0 .185-.017.081-.018.146-.056zM8.305 38.602h.196v1.447h-.196v-1.447zM9.758 38.65v.19q-.112-.052-.21-.079-.1-.026-.191-.026-.16 0-.248.062-.086.062-.086.176 0 .096.057.146.058.048.22.078l.118.025q.219.041.322.147.105.104.105.28 0 .211-.142.32-.14.108-.412.108-.103 0-.22-.023-.115-.023-.239-.069v-.201q.12.066.234.1.114.034.225.034.167 0 .258-.066t.091-.188q0-.106-.065-.166-.065-.06-.215-.09l-.119-.024q-.219-.043-.317-.136-.098-.093-.098-.259 0-.192.135-.302.136-.11.373-.11.102 0 .208.018.105.018.216.055zM9.953 38.602h1.224v.165h-.513v1.282h-.197v-1.282h-.514v-.165zM12.057 39.37q.063.022.122.092.06.07.12.192l.199.395h-.21l-.186-.371q-.071-.145-.14-.193-.066-.047-.182-.047h-.213v.611h-.196v-1.447h.442q.248 0 .37.104t.122.313q0 .137-.064.227-.063.09-.184.125zm-.49-.607v.514h.246q.141 0 .213-.065.073-.066.073-.193t-.073-.19q-.072-.066-.213-.066h-.246z"/>
        <path d="M13.155 38.795l-.266.72h.532l-.266-.72zm-.11-.193h.221l.551 1.447h-.203l-.132-.371h-.652l-.132.371h-.206l.552-1.447zM13.674 38.602h1.224v.165h-.514v1.282h-.196v-1.282h-.514v-.165zM15.092 38.602h.195v1.447h-.195v-1.447zM16.264 38.735q-.213 0-.34.16-.124.158-.124.432 0 .273.125.432.126.16.339.16.213 0 .337-.16.125-.159.125-.432 0-.274-.125-.433-.124-.159-.337-.159zm0-.159q.304 0 .486.205.183.203.183.546 0 .342-.183.547-.182.203-.486.203-.305 0-.488-.203-.182-.204-.182-.547 0-.343.182-.546.183-.205.488-.205zM17.239 38.602h.263l.642 1.21v-1.21h.19v1.447h-.264l-.641-1.21v1.21h-.19v-1.447zM19.59 38.65v.19q-.111-.052-.21-.079-.099-.026-.19-.026-.16 0-.248.062-.086.062-.086.176 0 .096.057.146.058.048.22.078l.117.025q.22.041.323.147.105.104.105.28 0 .211-.142.32-.14.108-.413.108-.102 0-.219-.023-.115-.023-.239-.069v-.201q.12.066.234.1.114.034.224.034.168 0 .26-.066.09-.066.09-.188 0-.106-.066-.166-.065-.06-.214-.09l-.12-.024q-.218-.043-.316-.136-.098-.093-.098-.259 0-.192.135-.302.136-.11.373-.11.102 0 .207.018.106.018.216.055z"/>
    </g>
    <g font-size="1.984" fill="#fff" stroke-width="10.63">
        <path d="M4.19 48.231v1.125h.236q.299 0 .438-.135.14-.136.14-.429 0-.29-.14-.425-.139-.136-.438-.136h-.237zm-.197-.16h.403q.42 0 .617.175.196.174.196.546 0 .374-.197.55-.198.175-.616.175h-.403v-1.446zM5.52 48.07h.915v.165h-.719v.429h.69v.164h-.69v.524h.737v.165H5.52v-1.446zM7.856 48.182v.206q-.1-.092-.212-.137-.111-.046-.237-.046-.248 0-.38.152t-.132.438q0 .286.132.438.132.151.38.151.126 0 .237-.045.113-.046.212-.138v.205q-.103.07-.218.104-.115.035-.243.035-.328 0-.517-.2-.189-.202-.189-.55 0-.348.189-.549.189-.202.517-.202.13 0 .245.035.115.034.216.103zM8.643 48.263l-.265.72h.532l-.267-.72zm-.11-.192h.222l.551 1.446h-.203l-.132-.37h-.652l-.132.37h-.206l.552-1.446zM9.163 48.07h.21l.401.595.398-.594h.21l-.511.757v.69h-.197v-.69l-.511-.757zM11.515 48.07h.165l-.504 1.631h-.165l.504-1.63zM12.992 48.263l-.266.72h.532l-.266-.72zm-.11-.192h.221l.552 1.446h-.204l-.132-.37h-.652l-.131.37h-.207l.552-1.446zM13.51 48.07h1.223v.165h-.513v1.282h-.197v-1.282h-.514v-.164z"/>
        <path d="M14.693 48.07h1.224v.165h-.513v1.282h-.197v-1.282h-.514v-.164zM16.441 48.263l-.265.72h.532l-.267-.72zm-.11-.192h.222l.551 1.446h-.203l-.132-.37h-.652l-.132.37h-.206l.552-1.446zM18.365 48.182v.206q-.1-.092-.212-.137-.111-.046-.237-.046-.248 0-.38.152t-.132.438q0 .286.132.438.132.151.38.151.126 0 .237-.045.113-.046.212-.138v.205q-.103.07-.218.104-.115.035-.243.035-.328 0-.517-.2-.189-.202-.189-.55 0-.348.189-.549.189-.202.517-.202.13 0 .245.035.115.034.216.103zM18.67 48.07h.197v.612l.649-.611h.252l-.718.674.769.772h-.258l-.694-.696v.696h-.196v-1.446z"/>
    </g>
    <g font-size="1.984" fill="#fff" stroke-width="10.63">
        <path d="M6.046 56.991h.831v.165h-.635v.426h.573v.165h-.573v.69h-.196v-1.446zM7.116 56.991h.21l.36.538.361-.538h.21l-.465.695.496.752h-.21l-.407-.616-.41.616H7.05l.516-.772-.45-.675zM9.661 57.184l-.265.72h.532l-.267-.72zm-.11-.193h.222l.551 1.447h-.203l-.132-.371h-.652l-.132.37h-.207l.553-1.446zM10.534 56.991h.292l.37.985.37-.985h.292v1.447h-.191v-1.27l-.373.992h-.197l-.373-.993v1.27h-.19v-1.446zM12.83 57.124q-.213 0-.339.159-.125.159-.125.433 0 .273.125.432.126.159.34.159.213 0 .337-.159.125-.159.125-.432 0-.274-.125-.433-.124-.16-.337-.16zm0-.159q.305 0 .487.204t.182.547q0 .342-.182.546-.182.204-.486.204-.306 0-.489-.204-.182-.203-.182-.546t.182-.547q.183-.204.489-.204zM13.783 56.991h.197v.879q0 .232.084.335.084.102.273.102.188 0 .273-.102.084-.103.084-.335v-.879h.197v.903q0 .283-.14.427-.14.145-.414.145-.274 0-.414-.145-.14-.144-.14-.427v-.903zM15.259 56.991h.263l.642 1.21v-1.21h.19v1.447h-.264l-.641-1.21v1.21h-.19V56.99zM16.543 56.991h1.223v.165h-.513v1.282h-.197v-1.282h-.513v-.165z"/>
    </g>
    <g font-size="1.984" fill="#fff" stroke-width="10.63">
        <path d="M1.727 73.291h.915v.165h-.72v.428h.69v.165h-.69v.524h.737v.165h-.932v-1.447zM2.979 73.291h.264l.641 1.21v-1.21h.19v1.447H3.81l-.641-1.21v1.21h-.19v-1.447zM4.836 74.738l-.552-1.447h.205l.458 1.218.46-1.218h.203l-.552 1.447h-.222zM6.251 73.291h1.224v.165H6.96v1.282h-.196v-1.282H6.25v-.165zM8.355 74.06q.063.021.122.09.06.07.12.193l.199.395h-.21l-.186-.371q-.072-.145-.14-.193-.066-.047-.182-.047h-.214v.611H7.67v-1.447h.441q.249 0 .37.104.123.104.123.313 0 .137-.064.227-.063.09-.184.125zm-.49-.608v.514h.245q.142 0 .214-.065.072-.066.072-.193t-.072-.19q-.072-.066-.214-.066h-.246zM9.048 73.291h.196v1.447h-.196v-1.447zM10.62 74.532v-.389h-.32v-.16h.514v.62q-.114.08-.25.122-.137.041-.292.041-.339 0-.53-.197-.192-.2-.192-.553 0-.354.191-.552.192-.199.531-.199.142 0 .269.035.127.035.235.103v.208q-.109-.092-.23-.138-.123-.047-.257-.047-.266 0-.4.148-.132.149-.132.442 0 .293.132.441.134.148.4.148.103 0 .185-.017.081-.018.146-.056z"/>
    </g>
    <g font-size="1.984" fill="#fff" stroke-width="10.63">
        <path d="M1.472 78.833h.831v.165h-.636v.427h.574v.164h-.574v.691h-.195v-1.447zM2.541 78.833h.21l.36.538.362-.538h.21l-.465.695.496.752h-.21l-.407-.615-.41.615h-.211l.516-.772-.45-.674zM4.603 78.833H4.8v1.447h-.196v-1.447zM5.189 78.833h.263l.642 1.21v-1.21h.19v1.447H6.02l-.642-1.21v1.21h-.19v-1.447z"/>
    </g>
    <g font-size="1.984" fill="#0f0" stroke-width="10.63">
        <path d="M2.995 13.081h.832v.165H3.19v.426h.574v.165H3.19v.69h-.196v-1.446zM4.722 13.214q-.213 0-.339.159-.125.159-.125.433 0 .273.125.432.126.159.34.159.212 0 .336-.159.125-.159.125-.432 0-.274-.125-.433-.124-.16-.337-.16zm0-.16q.304 0 .487.205.182.204.182.547 0 .342-.182.546-.183.204-.487.204-.305 0-.488-.204-.182-.203-.182-.546t.182-.547q.183-.204.488-.204zM6.383 13.85q.063.02.122.09.06.07.12.192l.199.396h-.21l-.186-.371q-.071-.146-.14-.193-.066-.048-.182-.048h-.213v.612h-.196V13.08h.442q.248 0 .37.104.122.103.122.313 0 .136-.064.226-.063.09-.184.125zm-.49-.608v.513h.246q.141 0 .213-.064.073-.066.073-.193t-.073-.191q-.072-.065-.213-.065h-.246zM7.077 13.081h.291l.37.984.37-.984H8.4v1.447h-.19v-1.27l-.374.992H7.64l-.373-.993v1.27h-.19v-1.446zM9.27 13.274l-.266.72h.532l-.267-.72zm-.111-.193h.222l.551 1.447H9.73l-.132-.371h-.652l-.132.37h-.206l.552-1.446zM10.142 13.081h.264l.641 1.21v-1.21h.19v1.447h-.263l-.642-1.21v1.21h-.19V13.08zM11.426 13.081h1.224v.165h-.514v1.282h-.196v-1.282h-.514v-.165z"/>
    </g>
    <g font-size="1.984" fill="#ff0" stroke-width="10.63">
        <path d="M5.504 15.406v.206q-.099-.092-.211-.137-.112-.046-.238-.046-.248 0-.38.152-.131.151-.131.438 0 .286.132.438.131.151.38.151.125 0 .237-.045.112-.046.211-.138v.205q-.103.07-.218.104-.114.035-.242.035-.329 0-.518-.2-.189-.202-.189-.55 0-.348.19-.549.188-.202.517-.202.13 0 .244.035.115.034.216.103zM5.808 15.294h.196v.593h.711v-.593h.196v1.447h-.196v-.689h-.711v.69h-.196v-1.448zM7.888 15.427q-.214 0-.34.16-.125.158-.125.432 0 .273.125.432.126.16.34.16.213 0 .337-.16.125-.159.125-.432 0-.274-.125-.433-.124-.159-.337-.159zm0-.159q.304 0 .486.205.182.203.182.546 0 .342-.182.547-.182.203-.486.203-.306 0-.489-.203-.182-.204-.182-.547 0-.343.182-.546.183-.205.489-.205zM9.548 16.063q.063.021.122.091.06.07.12.192l.2.395h-.211l-.185-.371q-.072-.145-.14-.193-.066-.047-.183-.047h-.213v.611h-.196v-1.447h.442q.248 0 .37.104t.122.313q0 .137-.064.227-.063.09-.184.125zm-.49-.608v.514h.246q.142 0 .213-.065.073-.066.073-.193t-.073-.19q-.071-.066-.213-.066h-.246zM10.22 15.294h.197v.88q0 .232.084.335.084.101.273.101.188 0 .272-.101.085-.103.085-.336v-.879h.196v.904q0 .282-.14.427-.14.144-.413.144-.274 0-.415-.144-.14-.145-.14-.427v-.904zM12.563 15.342v.19q-.112-.052-.21-.079-.1-.026-.191-.026-.16 0-.248.062-.086.062-.086.176 0 .096.057.146.059.048.22.078l.118.025q.219.041.322.147.105.104.105.28 0 .211-.142.32-.14.108-.412.108-.103 0-.22-.023-.115-.023-.239-.069v-.201q.12.066.234.1.114.034.225.034.167 0 .258-.066t.091-.188q0-.106-.065-.166-.065-.06-.215-.09l-.119-.024q-.219-.043-.317-.136-.097-.093-.097-.259 0-.192.134-.302.136-.11.373-.11.102 0 .208.018.105.018.216.055z"/>
    </g>
    <g font-size="1.984" fill="red" stroke-width="10.63">
        <path d="M5.69 18.532q.063.021.122.09.06.07.12.193l.199.395h-.21l-.185-.371q-.072-.145-.14-.193-.067-.047-.183-.047H5.2v.611h-.196v-1.447h.442q.248 0 .37.104t.122.313q0 .137-.064.227-.063.09-.184.125zm-.49-.608v.514h.246q.141 0 .213-.065.073-.066.073-.193t-.073-.19q-.072-.066-.213-.066H5.2zM6.384 17.763h.915v.165h-.72v.428h.69v.165h-.69v.524h.737v.165h-.932v-1.447zM8.009 19.21l-.553-1.447h.205l.458 1.218.46-1.218h.203L8.23 19.21h-.222zM8.992 17.763h.915v.165h-.72v.428h.69v.165h-.69v.524h.737v.165h-.932v-1.447zM10.93 18.532q.063.021.122.09.06.07.12.193l.199.395h-.21l-.185-.371q-.072-.145-.14-.193-.067-.047-.183-.047h-.213v.611h-.196v-1.447h.442q.248 0 .37.104t.122.313q0 .137-.064.227-.063.09-.184.125zm-.49-.608v.514h.246q.141 0 .213-.065.073-.066.073-.193t-.073-.19q-.072-.066-.213-.066h-.246zM11.82 18.52v.53h.313q.158 0 .234-.066.077-.066.077-.2 0-.136-.077-.2-.076-.065-.234-.065h-.313zm0-.596v.436h.29q.143 0 .212-.053.071-.054.071-.165 0-.11-.07-.164-.07-.054-.214-.054h-.29zm-.196-.16h.5q.224 0 .345.092.12.093.12.265 0 .133-.061.211-.062.079-.182.098.144.031.224.13.08.098.08.245 0 .194-.132.3-.132.105-.375.105h-.52v-1.447z"/>
    </g>
</svg>
