<?xml version="1.0" encoding="UTF-8" standalone="no"?>
<!-- Created with Inkscape (http://www.inkscape.org/) -->

<svg
   xmlns:dc="http://purl.org/dc/elements/1.1/"
   xmlns:cc="http://creativecommons.org/ns#"
   xmlns:rdf="http://www.w3.org/1999/02/22-rdf-syntax-ns#"
   xmlns:svg="http://www.w3.org/2000/svg"
   xmlns="http://www.w3.org/2000/svg"
   xmlns:xlink="http://www.w3.org/1999/xlink"
   xmlns:sodipodi="http://sodipodi.sourceforge.net/DTD/sodipodi-0.dtd"
   xmlns:inkscape="http://www.inkscape.org/namespaces/inkscape"
   width="120"
   height="380"
   viewBox="0 0 31.750001 100.54167"
   version="1.1"
   id="svg8"
   inkscape:version="0.91 r13725"
   sodipodi:docname="DosSaltos.svg">
  <defs
     id="defs2">
    <inkscape:perspective
       id="perspective4197"
       inkscape:persp3d-origin="240 : 126.66667 : 1"
       inkscape:vp_z="480 : 190 : 1"
       inkscape:vp_y="0 : 1000 : 0"
       inkscape:vp_x="0 : 190 : 1"
       sodipodi:type="inkscape:persp3d" />
    <linearGradient
       id="linearGradient4189"
       inkscape:collect="always">
      <stop
         id="stop4191"
         offset="0"
         style="stop-color:#ffffff;stop-opacity:1" />
      <stop
         id="stop4193"
         offset="1"
         style="stop-color:#000000;stop-opacity:0;" />
    </linearGradient>
    <linearGradient
       id="linearGradient5349"
       inkscape:collect="always">
      <stop
         id="stop5351"
         offset="0"
         style="stop-color:#fdfdfd;stop-opacity:1;" />
      <stop
         id="stop5353"
         offset="1"
         style="stop-color:#fdfdfd;stop-opacity:1" />
    </linearGradient>
    <radialGradient
       gradientUnits="userSpaceOnUse"
       gradientTransform="matrix(0.42180436,0,0,0.0267339,-105.98218,272.19192)"
       r="69.826797"
       fy="856.052"
       fx="285.49445"
       cy="856.052"
       cx="285.49445"
       id="radialGradient5357"
       xlink:href="#linearGradient5349"
       inkscape:collect="always" />
    <linearGradient
       gradientUnits="userSpaceOnUse"
       y2="832.53247"
       x2="279.91517"
       y1="830.88361"
       x1="268.96658"
       id="linearGradient4195"
       xlink:href="#linearGradient4189"
       inkscape:collect="always"
       gradientTransform="matrix(0.26458334,0,0,0.26458334,-59.861442,72.341009)" />
    <clipPath
       clipPathUnits="userSpaceOnUse"
       id="clipPath5515">
      <rect
         style="fill:#220eff;fill-opacity:1"
         id="rect5517"
         width="120.00001"
         height="37.775909"
         x="173.6577"
         y="40.181267"
         rx="0"
         ry="0" />
    </clipPath>
    <clipPath
       clipPathUnits="userSpaceOnUse"
       id="clipPath5519">
      <rect
         style="fill:#220eff;fill-opacity:1"
         id="rect5521"
         width="31.750002"
         height="9.9948759"
         x="4.4408921e-16"
         y="289.06686"
         rx="0"
         ry="0" />
    </clipPath>
    <clipPath
       clipPathUnits="userSpaceOnUse"
       id="clipPath5523">
      <rect
         style="fill:#220eff;fill-opacity:1"
         id="rect5525"
         width="31.750002"
         height="9.9948759"
         x="4.4408921e-16"
         y="289.06686"
         rx="0"
         ry="0" />
    </clipPath>
    <clipPath
       clipPathUnits="userSpaceOnUse"
       id="clipPath5527">
      <rect
         style="fill:#220eff;fill-opacity:1"
         id="rect5529"
         width="133.15222"
         height="41.916214"
         x="216.69804"
         y="-20.574579"
         rx="0"
         ry="0" />
    </clipPath>
    <clipPath
       clipPathUnits="userSpaceOnUse"
       id="clipPath5531">
      <rect
         style="fill:#220eff;fill-opacity:1"
         id="rect5533"
         width="31.750002"
         height="9.9948759"
         x="4.4408921e-16"
         y="289.06686"
         rx="0"
         ry="0" />
    </clipPath>
    <clipPath
       clipPathUnits="userSpaceOnUse"
       id="clipPath5535">
      <rect
         style="fill:#220eff;fill-opacity:1"
         id="rect5537"
         width="31.750002"
         height="9.9948759"
         x="4.4408921e-16"
         y="289.06686"
         rx="0"
         ry="0" />
    </clipPath>
  </defs>
  <sodipodi:namedview
     id="base"
     pagecolor="#ffffff"
     bordercolor="#666666"
     borderopacity="1.0"
     inkscape:pageopacity="0.0"
     inkscape:pageshadow="2"
     inkscape:zoom="2.1157895"
     inkscape:cx="60"
     inkscape:cy="190"
     inkscape:document-units="mm"
     inkscape:current-layer="layer1"
     showgrid="false"
     units="px"
     inkscape:snap-bbox="true"
     inkscape:snap-page="true"
     inkscape:bbox-nodes="true"
     inkscape:snap-bbox-edge-midpoints="true"
     inkscape:window-width="963"
     inkscape:window-height="1006"
     inkscape:window-x="517"
     inkscape:window-y="0"
     inkscape:window-maximized="0"
     inkscape:showpageshadow="false"
     borderlayer="true"
     inkscape:snap-global="false" />
  <metadata
     id="metadata5">
    <rdf:RDF>
      <cc:Work
         rdf:about="">
        <dc:format>image/svg+xml</dc:format>
        <dc:type
           rdf:resource="http://purl.org/dc/dcmitype/StillImage" />
        <dc:title />
      </cc:Work>
    </rdf:RDF>
  </metadata>
  <g
     inkscape:label="Layer 1"
     inkscape:groupmode="layer"
     id="layer1"
     transform="translate(0,-196.45832)"
     style="display:inline">
    <path
       style="opacity:1;fill:#000000;fill-opacity:1;fill-rule:evenodd;stroke:none;stroke-width:0.48607069;stroke-linecap:butt;stroke-linejoin:round;stroke-miterlimit:4;stroke-dasharray:none;stroke-dashoffset:0;stroke-opacity:1;paint-order:normal"
       d="m 8.9773593e-8,196.45831 31.750000910226408,0 0,100.54168 -31.750000910226404,0 z"
       id="rect817"
       inkscape:connector-curvature="0" />
    <path
       style="opacity:1;fill:url(#radialGradient5357);fill-opacity:1;stroke:#8b8b8b;stroke-width:0.39687501;stroke-linejoin:miter;stroke-miterlimit:4;stroke-dasharray:none;stroke-opacity:1"
       d="m 31.483446,294.93321 -17.042828,-0.12503 -14.4172474,0.12503 -0.87873195,-3.46985 c 4.80992545,-1.00484 10.75039865,-1.72449 16.17117335,-1.71947 5.715286,0.005 9.886121,0.46573 17.046366,1.84449 z"
       id="path5329"
       inkscape:connector-curvature="0"
       sodipodi:nodetypes="ccccacc"
       clip-path="url(#clipPath5535)" />
    <g
       transform="matrix(0.26458334,0,0,0.26458334,-58.459936,293.81811)"
       style="font-style:normal;font-variant:normal;font-weight:normal;font-stretch:normal;font-size:10px;line-height:125%;font-family:'Trajan Pro 3';-inkscape-font-specification:'Trajan Pro 3, ';letter-spacing:0px;word-spacing:0px;fill:#000000;fill-opacity:1;stroke:none;stroke-width:1px;stroke-linecap:butt;stroke-linejoin:miter;stroke-opacity:1"
       id="flowRoot4136" />
    <g
       transform="matrix(0.26458334,0,0,0.26458334,-58.459936,115.92228)"
       style="font-style:normal;font-weight:normal;font-size:10px;line-height:125%;font-family:sans-serif;letter-spacing:0px;word-spacing:0px;fill:#000000;fill-opacity:1;stroke:none;stroke-width:1px;stroke-linecap:butt;stroke-linejoin:miter;stroke-opacity:1"
       id="flowRoot5341" />
    <path
       sodipodi:nodetypes="ccccc"
       inkscape:connector-curvature="0"
       id="rect5381"
       d="M -1.0865176e-6,291.9933 C 10.904412,290.78346 21.545669,291.00362 31.750002,292.11599 l -0.03339,3.29649 -31.7166130865176,0 z"
       style="opacity:1;fill:#000000;fill-opacity:1;stroke:none;stroke-width:1.00699997;stroke-linejoin:miter;stroke-miterlimit:4;stroke-dasharray:none;stroke-opacity:1"
       clip-path="url(#clipPath5531)" />
    <path
       style="opacity:0;fill:url(#linearGradient4195);fill-opacity:1;stroke:none;stroke-width:0.2;stroke-miterlimit:4;stroke-dasharray:none;stroke-opacity:1"
       clip-path="url(#clipPath5523)"
       d="m 14.199453,292.6152 a 2.800842,1.0121423 0 0 1 -2.800842,1.01215 2.800842,1.0121423 0 0 1 -2.800842,-1.01215 2.800842,1.0121423 0 0 1 2.800842,-1.01214 2.800842,1.0121423 0 0 1 2.800842,1.01214 z"
       id="path4187" />
    <path
       sodipodi:nodetypes="cccccccccc"
       inkscape:connector-curvature="0"
       id="path4209"
       d="m 2.826339,292.08697 3.148468,-1.34092 1.3291208,0.4179 1.1077655,-0.7832 2.2155227,0.29151 0.932852,-0.34981 3.023931,0.97939 -1.041619,0.47818 -9.5034344,0.29152 z"
       style="fill:#000000;fill-opacity:1;fill-rule:evenodd;stroke:none;stroke-width:1px;stroke-linecap:butt;stroke-linejoin:miter;stroke-opacity:1"
       clip-path="url(#clipPath5519)" />
    <g
       id="layer2"
       inkscape:label="Layer 2"
       transform="matrix(0.26458334,0,0,0.26458334,-59.404877,294.76305)" />
    <g
       id="flowRoot4144"
       style="font-style:normal;font-weight:normal;font-size:10px;line-height:125%;font-family:sans-serif;letter-spacing:0px;word-spacing:0px;fill:#000000;fill-opacity:1;stroke:none;stroke-width:1px;stroke-linecap:butt;stroke-linejoin:miter;stroke-opacity:1"
       transform="matrix(0.26458334,0,0,0.26458334,-45.946934,278.43557)"
       clip-path="url(#clipPath5515)">
      <path
         inkscape:connector-curvature="0"
         id="path5362"
         style="font-style:normal;font-variant:normal;font-weight:normal;font-stretch:normal;font-size:7.5px;font-family:Geneva;-inkscape-font-specification:Geneva;fill:#ffffff;fill-opacity:1"
         d="m 186.15283,66.994991 0.68115,0 0,0.01465 q 0,0.263672 0.20142,0.439453 0.20142,0.172119 0.68115,0.172119 0.42115,0 0.68116,-0.205078 0.26367,-0.205078 0.26367,-0.483398 0,-0.377198 -0.5127,-0.534668 l -0.3479,-0.106202 -0.23071,-0.07324 -0.47241,-0.146484 q -0.80933,-0.296631 -0.80933,-0.985108 0,-0.483398 0.39185,-0.849609 0.39184,-0.366211 1.16455,-0.366211 0.76172,0 1.08398,0.314942 0.32227,0.311279 0.32227,0.692138 l 0,0.01465 -0.68482,0 0,-0.01465 q 0,-0.205078 -0.20874,-0.322265 -0.20508,-0.117188 -0.54931,-0.117188 -0.41016,0 -0.62989,0.172119 -0.21606,0.168457 -0.21606,0.417481 0,0.190429 0.13916,0.311279 0.14282,0.117187 0.47607,0.212402 l 0.32959,0.09155 0.23804,0.06958 q 0.49805,0.142822 0.6189,0.201416 0.12451,0.05859 0.24902,0.150147 0.17212,0.131836 0.25268,0.318603 0.0842,0.186768 0.0842,0.435791 0,0.578613 -0.41748,0.974121 -0.41382,0.395508 -1.21216,0.395508 -0.50537,0 -0.83862,-0.150146 -0.33325,-0.150147 -0.531,-0.413819 -0.19776,-0.267334 -0.19776,-0.615234 l 0,-0.01465 z" />
      <path
         inkscape:connector-curvature="0"
         id="path5364"
         style="font-style:normal;font-variant:normal;font-weight:normal;font-stretch:normal;font-size:7.5px;font-family:Geneva;-inkscape-font-specification:Geneva;fill:#ffffff;fill-opacity:1"
         d="m 199.4646,68.188839 q -0.802,0 -1.36963,-0.541992 -0.56396,-0.545654 -0.56396,-1.618652 0,-1.069336 0.56396,-1.611329 0.56763,-0.545654 1.36963,-0.545654 0.79834,0 1.3623,0.545654 0.56763,0.541993 0.56763,1.611329 0,1.072998 -0.56763,1.618652 -0.56396,0.541992 -1.3623,0.541992 z m 0,-0.567627 q 0.54932,0 0.88257,-0.435791 0.33691,-0.439453 0.33691,-1.157226 0,-0.714112 -0.33691,-1.149903 -0.33325,-0.439453 -0.88257,-0.439453 -0.55298,0 -0.88989,0.439453 -0.33325,0.435791 -0.33325,1.149903 0,0.717773 0.33325,1.157226 0.33691,0.435791 0.88989,0.435791 z" />
      <path
         inkscape:connector-curvature="0"
         id="path5366"
         style="font-style:normal;font-variant:normal;font-weight:normal;font-stretch:normal;font-size:7.5px;font-family:Geneva;-inkscape-font-specification:Geneva;fill:#ffffff;fill-opacity:1"
         d="m 212.39917,63.984738 0.68115,0 0,4.090576 -0.68115,0 0,-0.714112 q -0.2124,0.32959 -0.41748,0.494385 -0.20508,0.164795 -0.42114,0.249024 -0.21607,0.08423 -0.47242,0.08423 -0.56762,0 -0.96313,-0.318603 -0.39551,-0.322266 -0.39551,-1.292725 l 0,-2.592773 0.68115,0 0,2.307128 q 0,0.897217 0.23804,1.083985 0.23804,0.186767 0.5896,0.186767 0.30396,0 0.57129,-0.175781 0.271,-0.179443 0.42847,-0.498047 0.16113,-0.322265 0.16113,-0.893554 l 0,-2.010498 z" />
      <path
         inkscape:connector-curvature="0"
         id="path5368"
         style="font-style:normal;font-variant:normal;font-weight:normal;font-stretch:normal;font-size:7.5px;font-family:Geneva;-inkscape-font-specification:Geneva;fill:#ffffff;fill-opacity:1"
         d="m 224.18018,67.4967 0,0.571289 q -0.49805,0.12085 -0.76172,0.12085 -0.38086,0 -0.68848,-0.153809 -0.30395,-0.153808 -0.46509,-0.446777 -0.15747,-0.292969 -0.15747,-0.933838 l 0,-2.102051 -0.71045,0 0,-0.567626 0.71045,0 0,-0.966797 0.68115,0 0,0.966797 1.19385,0 0,0.567626 -1.19385,0 0,1.907959 q 0,0.541993 0.0842,0.754395 0.0842,0.20874 0.26367,0.307617 0.18311,0.09888 0.4358,0.09888 0.20141,0 0.60791,-0.124512 z" />
      <path
         inkscape:connector-curvature="0"
         id="path5370"
         style="font-style:normal;font-variant:normal;font-weight:normal;font-stretch:normal;font-size:7.5px;font-family:Geneva;-inkscape-font-specification:Geneva;fill:#ffffff;fill-opacity:1"
         d="m 233.19995,68.075314 -0.68115,0 0,-5.910645 0.68115,0 0,2.526856 q 0.21607,-0.333252 0.41748,-0.494385 0.20508,-0.161133 0.42481,-0.241699 0.22338,-0.08423 0.49438,-0.08423 0.38452,0 0.68848,0.157471 0.30761,0.157471 0.47607,0.465088 0.16846,0.303955 0.16846,0.977783 l 0,2.60376 -0.68115,0 0,-2.310791 q 0,-0.549317 -0.0733,-0.776368 -0.0732,-0.230712 -0.27832,-0.358886 -0.20507,-0.131836 -0.46875,-0.131836 -0.30029,0 -0.57129,0.175781 -0.27099,0.175781 -0.43579,0.490723 -0.16113,0.314941 -0.16113,0.900879 l 0,2.010498 z" />
      <path
         inkscape:connector-curvature="0"
         id="path5372"
         style="font-style:normal;font-variant:normal;font-weight:normal;font-stretch:normal;font-size:7.5px;font-family:Geneva;-inkscape-font-specification:Geneva;fill:#ffffff;fill-opacity:1"
         d="m 245.03955,69.664669 -0.68115,0 0,-5.679931 0.68115,0 0,0.710449 q 0.2124,-0.362549 0.40283,-0.512696 0.19409,-0.150146 0.43579,-0.230712 0.2417,-0.08057 0.49805,-0.08057 0.46875,0 0.85693,0.256348 0.38819,0.252685 0.60059,0.758056 0.21606,0.505372 0.21606,1.135254 0,0.933838 -0.45043,1.552735 -0.44678,0.615234 -1.25611,0.615234 -0.26001,0 -0.49438,-0.0769 -0.23072,-0.07324 -0.41016,-0.219727 -0.17944,-0.150146 -0.39917,-0.531006 l 0,2.303467 z m 0,-3.632812 q 0,0.6958 0.30029,1.142578 0.3003,0.446777 0.84595,0.446777 0.49805,0 0.82764,-0.395508 0.32959,-0.395508 0.32959,-1.182861 0,-0.919189 -0.3479,-1.274414 -0.3479,-0.358887 -0.79468,-0.358887 -0.32227,0 -0.60425,0.197754 -0.27832,0.194092 -0.41748,0.582275 -0.13916,0.384522 -0.13916,0.842286 z" />
      <path
         inkscape:connector-curvature="0"
         id="path5374"
         style="font-style:normal;font-variant:normal;font-weight:normal;font-stretch:normal;font-size:7.5px;font-family:Geneva;-inkscape-font-specification:Geneva;fill:#ffffff;fill-opacity:1"
         d="m 258.17554,68.188839 q -0.802,0 -1.36963,-0.541992 -0.56397,-0.545654 -0.56397,-1.618652 0,-1.069336 0.56397,-1.611329 0.56763,-0.545654 1.36963,-0.545654 0.79834,0 1.3623,0.545654 0.56763,0.541993 0.56763,1.611329 0,1.072998 -0.56763,1.618652 -0.56396,0.541992 -1.3623,0.541992 z m 0,-0.567627 q 0.54931,0 0.88257,-0.435791 0.33691,-0.439453 0.33691,-1.157226 0,-0.714112 -0.33691,-1.149903 -0.33326,-0.439453 -0.88257,-0.439453 -0.55298,0 -0.8899,0.439453 -0.33325,0.435791 -0.33325,1.149903 0,0.717773 0.33325,1.157226 0.33692,0.435791 0.8899,0.435791 z" />
      <path
         inkscape:connector-curvature="0"
         id="path5376"
         style="font-style:normal;font-variant:normal;font-weight:normal;font-stretch:normal;font-size:7.5px;font-family:Geneva;-inkscape-font-specification:Geneva;fill:#ffffff;fill-opacity:1"
         d="m 269.17651,68.075314 -0.68115,0 0,-5.910645 0.68115,0 0,5.910645 z" />
      <path
         inkscape:connector-curvature="0"
         id="path5378"
         style="font-style:normal;font-variant:normal;font-weight:normal;font-stretch:normal;font-size:7.5px;font-family:Geneva;-inkscape-font-specification:Geneva;fill:#ffffff;fill-opacity:1"
         d="m 280.45581,67.024288 0.68115,0 0,0.03662 q 0,0.270996 -0.21606,0.552979 -0.21607,0.281982 -0.57129,0.428467 -0.35523,0.146484 -0.81665,0.146484 -0.93384,0 -1.44287,-0.604248 -0.50537,-0.604248 -0.50537,-1.5271 0,-0.944824 0.53466,-1.56372 0.53833,-0.622559 1.38428,-0.622559 0.46509,0 0.84229,0.201416 0.37719,0.201416 0.59692,0.629883 0.21973,0.424805 0.21973,1.186523 l 0,0.227051 -2.90406,0 q 0,0.655518 0.35157,1.080322 0.35522,0.424805 0.98144,0.424805 0.45044,0 0.65552,-0.172119 0.20874,-0.175781 0.20874,-0.388184 l 0,-0.03662 z m -2.15332,-1.420898 2.20825,0 0,-0.08057 q 0,-0.285644 -0.13916,-0.552978 -0.1355,-0.270996 -0.3772,-0.39917 -0.24169,-0.131836 -0.56396,-0.131836 -0.38086,0 -0.70313,0.307617 -0.32226,0.303955 -0.4248,0.856934 z" />
    </g>
    <path
       style="opacity:0;fill:#ffffff;fill-opacity:1;stroke:#ffffff;stroke-width:0.82020831;stroke-miterlimit:4;stroke-dasharray:none;stroke-opacity:1"
       d="M 31.120041,284.67252 A 15.56002,2.6503332 0 0 1 15.56002,287.32286 15.56002,2.6503332 0 0 1 0,284.67252 a 15.56002,2.6503332 0 0 1 15.56002,-2.65033 15.56002,2.6503332 0 0 1 15.560021,2.65033 z"
       id="path5422"
       inkscape:connector-curvature="0" />
    <g
       style="font-size:7.5px;opacity:1;fill:#ffffff;fill-opacity:1;stroke:#9f9f9f;stroke-width:1.77165353;stroke-miterlimit:4;stroke-dasharray:none;stroke-opacity:1"
       id="flowRoot6030" />
    <path
       style="opacity:1;fill:#5b5b5b;fill-opacity:1;stroke:none;stroke-width:1.53299999;stroke-miterlimit:10;stroke-dasharray:none;stroke-opacity:1"
       d="m 2.2304907,276.95544 27.2890203,0 c 0.985284,0 1.778492,0.74053 1.778492,1.66038 l 0,8.29329 c 0,0.91985 -0.793208,1.66037 -1.778492,1.66037 l -27.2890203,0 c -0.9852849,0 -1.77849274,-0.74052 -1.77849274,-1.66037 l 0,-8.29329 c 0,-0.91985 0.79320784,-1.66038 1.77849274,-1.66038 z"
       id="rect4370"
       inkscape:connector-curvature="0" />
    <g
       style="font-size:2.64583349px;opacity:1;fill:#ffffff;fill-opacity:1;stroke:none;stroke-width:1.53299999;stroke-miterlimit:10;stroke-dasharray:none;stroke-opacity:1"
       id="text4372"
       transform="translate(0,3.9851199)">
      <path
         d="m 1.0583334,211.21516 1.6316834,0 0,0.21962 -0.6847127,0 0,1.7092 -0.2622579,0 0,-1.7092 -0.6847128,0 0,-0.21962 z"
         id="path4629"
         inkscape:connector-curvature="0" />
      <path
         d="m 3.8630719,212.23964 q 0.083974,0.0284 0.1627807,0.12144 0.080099,0.093 0.160197,0.2558 l 0.2648417,0.5271 -0.2803446,0 -0.246755,-0.4948 q -0.095601,-0.19379 -0.1860352,-0.25709 -0.089142,-0.0633 -0.2441711,-0.0633 l -0.2842204,0 0,0.81519 -0.260966,0 0,-1.92882 0.5891113,0 q 0.3307292,0 0.49351,0.13823 0.1627808,0.13824 0.1627808,0.41729 0,0.18216 -0.085266,0.30231 -0.083974,0.12015 -0.245463,0.16665 z m -0.6537069,-0.81002 0,0.68471 0.3281453,0 q 0.188619,0 0.2842204,-0.0866 0.096893,-0.0879 0.096893,-0.25709 0,-0.16924 -0.096893,-0.25451 -0.095601,-0.0865 -0.2842204,-0.0865 l -0.3281453,0 z"
         id="path4631"
         inkscape:connector-curvature="0" />
      <path
         d="m 4.7880802,211.21516 0.260966,0 0,1.92882 -0.260966,0 0,-1.92882 z"
         id="path4633"
         inkscape:connector-curvature="0" />
      <path
         d="m 6.8835595,212.8688 0,-0.51805 -0.4263306,0 0,-0.21446 0.6847128,0 0,0.82812 q -0.1511536,0.10722 -0.3333131,0.16278 -0.1821594,0.0543 -0.3888651,0.0543 -0.4521688,0 -0.7079672,-0.26355 -0.2545064,-0.26484 -0.2545064,-0.73639 0,-0.47284 0.2545064,-0.73639 0.2557984,-0.26484 0.7079672,-0.26484 0.188619,0 0.3578593,0.0465 0.1705322,0.0465 0.3139343,0.13694 l 0,0.27776 q -0.144694,-0.12273 -0.3074748,-0.18474 -0.1627807,-0.062 -0.3423563,-0.062 -0.3539836,0 -0.5322673,0.19767 -0.1769918,0.19766 -0.1769918,0.58911 0,0.39016 0.1769918,0.58782 0.1782837,0.19766 0.5322673,0.19766 0.1382344,0 0.2467549,-0.0233 0.1085206,-0.0246 0.1950786,-0.0749 z"
         id="path4635"
         inkscape:connector-curvature="0" />
    </g>
    <g
       style="font-size:2.64583349px;opacity:1;fill:#ffffff;fill-opacity:1;stroke:none;stroke-width:1.53299999;stroke-miterlimit:10;stroke-dasharray:none;stroke-opacity:1"
       id="text4380"
       transform="translate(0,3.9851599)">
      <path
         d="m 9.3033924,211.18028 1.1084596,0 0,0.21962 -0.8474936,0 0,0.56844 0.7648116,0 0,0.21963 -0.7648116,0 0,0.92113 -0.260966,0 0,-1.92882 z"
         id="path4616"
         inkscape:connector-curvature="0" />
      <path
         d="m 11.737353,212.20476 q 0.08397,0.0284 0.16278,0.12144 0.0801,0.093 0.160197,0.2558 l 0.264842,0.5271 -0.280345,0 -0.246755,-0.4948 q -0.0956,-0.19379 -0.186035,-0.25709 -0.08914,-0.0633 -0.244171,-0.0633 l -0.28422,0 0,0.8152 -0.260966,0 0,-1.92882 0.589111,0 q 0.330729,0 0.49351,0.13823 0.162781,0.13824 0.162781,0.41729 0,0.18216 -0.08527,0.30231 -0.08398,0.12014 -0.245463,0.16665 z m -0.653707,-0.81003 0,0.68472 0.328145,0 q 0.188619,0 0.28422,-0.0866 0.09689,-0.0878 0.09689,-0.25709 0,-0.16924 -0.09689,-0.25451 -0.0956,-0.0866 -0.28422,-0.0866 l -0.328145,0 z"
         id="path4618"
         inkscape:connector-curvature="0" />
      <path
         d="m 12.662361,211.18028 1.219564,0 0,0.21962 -0.958598,0 0,0.57103 0.918548,0 0,0.21962 -0.918548,0 0,0.69893 0.981852,0 0,0.21962 -1.242818,0 0,-1.92882 z"
         id="path4620"
         inkscape:connector-curvature="0" />
      <path
         d="m 14.33151,211.18028 1.219563,0 0,0.21962 -0.958597,0 0,0.57103 0.918548,0 0,0.21962 -0.918548,0 0,0.69893 0.981852,0 0,0.21962 -1.242818,0 0,-1.92882 z"
         id="path4622"
         inkscape:connector-curvature="0" />
      <path
         d="m 15.889554,211.18028 1.515412,0 0,0.19895 -1.219564,1.51025 1.249278,0 0,0.21962 -1.57484,0 0,-0.19895 1.219564,-1.51025 -1.18985,0 0,-0.21962 z"
         id="path4624"
         inkscape:connector-curvature="0" />
      <path
         d="m 17.814502,211.18028 1.219564,0 0,0.21962 -0.958598,0 0,0.57103 0.918548,0 0,0.21962 -0.918548,0 0,0.69893 0.981852,0 0,0.21962 -1.242818,0 0,-1.92882 z"
         id="path4626"
         inkscape:connector-curvature="0" />
    </g>
    <g
       style="font-size:2.64583349px;opacity:1;fill:#ffffff;fill-opacity:1;stroke:none;stroke-width:1.53299999;stroke-miterlimit:10;stroke-dasharray:none;stroke-opacity:1"
       id="text4388"
       transform="translate(2.6458335,-1.0583334)">
      <path
         d="m 19.782267,274.18101 0.260966,0 0,1.7092 0.939219,0 0,0.21962 -1.200185,0 0,-1.92882 z"
         id="path4594"
         inkscape:connector-curvature="0" />
      <path
         d="m 21.255045,274.18101 1.219564,0 0,0.21962 -0.958598,0 0,0.57103 0.918549,0 0,0.21962 -0.918549,0 0,0.69893 0.981852,0 0,0.21962 -1.242818,0 0,-1.92882 z"
         id="path4596"
         inkscape:connector-curvature="0" />
      <path
         d="m 23.42158,276.10983 -0.73639,-1.92882 0.272594,0 0.611073,1.62393 0.612366,-1.62393 0.271301,0 -0.735097,1.92882 -0.295847,0 z"
         id="path4598"
         inkscape:connector-curvature="0" />
      <path
         d="m 24.732869,274.18101 1.219564,0 0,0.21962 -0.958598,0 0,0.57103 0.918549,0 0,0.21962 -0.918549,0 0,0.69893 0.981852,0 0,0.21962 -1.242818,0 0,-1.92882 z"
         id="path4600"
         inkscape:connector-curvature="0" />
      <path
         d="m 26.402018,274.18101 0.260966,0 0,1.7092 0.939219,0 0,0.21962 -1.200185,0 0,-1.92882 z"
         id="path4602"
         inkscape:connector-curvature="0" />
    </g>
    <g
       style="font-size:2.64583349px;opacity:1;fill:#ffffff;fill-opacity:1;stroke:none;stroke-width:1.53299999;stroke-miterlimit:10;stroke-dasharray:none;stroke-opacity:1"
       id="text4392"
       transform="translate(-1.0583334,5.3874347)">
      <path
         d="m 3.1790013,227.36934 -0.7363892,-1.92882 0.2725932,0 0.6110738,1.62393 0.6123658,-1.62393 0.2713013,0 -0.7350973,1.92882 -0.2958476,0 z"
         id="path4583"
         inkscape:connector-curvature="0" />
      <path
         d="m 4.9024105,225.44052 0.2196248,0 -0.6717936,2.17428 -0.2196249,0 0.6717937,-2.17428 z"
         id="path4585"
         inkscape:connector-curvature="0" />
      <path
         d="m 6.1671913,225.61751 q -0.2842204,0 -0.4521688,0.21187 -0.1666565,0.21187 -0.1666565,0.57749 0,0.36431 0.1666565,0.57619 0.1679484,0.21187 0.4521688,0.21187 0.2842204,0 0.449585,-0.21187 0.1666565,-0.21188 0.1666565,-0.57619 0,-0.36562 -0.1666565,-0.57749 -0.1653646,-0.21187 -0.449585,-0.21187 z m 0,-0.21188 q 0.40566,0 0.6485393,0.2726 0.2428792,0.2713 0.2428792,0.72864 0,0.45604 -0.2428792,0.72863 -0.2428793,0.2713 -0.6485393,0.2713 -0.4069519,0 -0.6511231,-0.2713 -0.2428792,-0.2713 -0.2428792,-0.72863 0,-0.45734 0.2428792,-0.72864 0.2441712,-0.2726 0.6511231,-0.2726 z"
         id="path4587"
         inkscape:connector-curvature="0" />
      <path
         d="m 8.9112098,225.58909 0,0.27517 q -0.1317749,-0.12273 -0.2816366,-0.18345 -0.1485698,-0.0607 -0.3165182,-0.0607 -0.3307292,0 -0.506429,0.20283 -0.1756999,0.20154 -0.1756999,0.58395 0,0.38111 0.1756999,0.58394 0.1756998,0.20154 0.506429,0.20154 0.1679484,0 0.3165182,-0.0607 0.1498617,-0.0607 0.2816366,-0.18345 l 0,0.27259 q -0.1369426,0.093 -0.29068,0.13953 -0.1524455,0.0465 -0.3229777,0.0465 -0.4379578,0 -0.6898804,-0.26742 -0.2519226,-0.26872 -0.2519226,-0.73251 0,-0.46509 0.2519226,-0.73252 0.2519226,-0.26872 0.6898804,-0.26872 0.1731161,0 0.3255615,0.0465 0.1537374,0.0452 0.2880962,0.13695 z"
         id="path4589"
         inkscape:connector-curvature="0" />
      <path
         d="m 9.0494444,225.44052 1.6316836,0 0,0.21962 -0.6847129,0 0,1.7092 -0.2622579,0 0,-1.7092 -0.6847128,0 0,-0.21962 z"
         id="path4591"
         inkscape:connector-curvature="0" />
    </g>
    <g
       style="font-size:2.64583349px;opacity:1;fill:#ffffff;fill-opacity:1;stroke:none;stroke-width:1.53299999;stroke-miterlimit:10;stroke-dasharray:none;stroke-opacity:1"
       id="text4396"
       transform="translate(-5.379044,-4.7585653)">
      <path
         d="m 17.391862,235.55163 1.108459,0 0,0.21962 -0.847493,0 0,0.56845 0.764811,0 0,0.21962 -0.764811,0 0,0.92113 -0.260966,0 0,-1.92882 z"
         id="path4564"
         inkscape:connector-curvature="0" />
      <path
         d="m 19.825822,236.57612 q 0.08397,0.0284 0.162781,0.12143 0.0801,0.093 0.160197,0.2558 l 0.264841,0.5271 -0.280344,0 -0.246755,-0.4948 q -0.0956,-0.19379 -0.186035,-0.25709 -0.08914,-0.0633 -0.244172,-0.0633 l -0.28422,0 0,0.81519 -0.260966,0 0,-1.92882 0.589111,0 q 0.33073,0 0.49351,0.13823 0.162781,0.13824 0.162781,0.41729 0,0.18216 -0.08527,0.30231 -0.08397,0.12015 -0.245463,0.16666 z m -0.653707,-0.81003 0,0.68471 0.328145,0 q 0.188619,0 0.284221,-0.0866 0.09689,-0.0879 0.09689,-0.25709 0,-0.16924 -0.09689,-0.25451 -0.0956,-0.0865 -0.284221,-0.0865 l -0.328145,0 z"
         id="path4566"
         inkscape:connector-curvature="0" />
      <path
         d="m 20.75083,235.55163 1.219564,0 0,0.21962 -0.958598,0 0,0.57103 0.918549,0 0,0.21962 -0.918549,0 0,0.69893 0.981852,0 0,0.21962 -1.242818,0 0,-1.92882 z"
         id="path4568"
         inkscape:connector-curvature="0" />
      <path
         d="m 23.202877,235.76367 q -0.28422,0 -0.452169,0.21187 -0.166656,0.21188 -0.166656,0.57749 0,0.36432 0.166656,0.57619 0.167949,0.21187 0.452169,0.21187 0.28422,0 0.449585,-0.21187 0.166656,-0.21187 0.166656,-0.57619 0,-0.36561 -0.166656,-0.57749 -0.165365,-0.21187 -0.449585,-0.21187 z m 0.365611,1.71695 0.343648,0.37595 -0.315226,0 -0.285512,-0.30877 q -0.04263,0.003 -0.06589,0.004 -0.02196,0.001 -0.04263,0.001 -0.406952,0 -0.651123,-0.2713 -0.242879,-0.2726 -0.242879,-0.72864 0,-0.45734 0.242879,-0.72864 0.244171,-0.27259 0.651123,-0.27259 0.40566,0 0.648539,0.27259 0.24288,0.2713 0.24288,0.72864 0,0.3359 -0.135651,0.5749 -0.134359,0.239 -0.390157,0.35269 z"
         id="path4570"
         inkscape:connector-curvature="0" />
    </g>
    <g
       style="font-size:2.64583349px;opacity:1;fill:#00ff00;fill-opacity:1;stroke:none;stroke-width:0.05291667;stroke-miterlimit:10;stroke-dasharray:none;stroke-opacity:1"
       id="text5601"
       transform="translate(0.16940467,1.3707547)">
      <path
         d="m 21.689365,229.42231 0.260966,0 0,1.7092 0.93922,0 0,0.21963 -1.200186,0 0,-1.92883 z"
         style="fill:#00ff00;fill-opacity:1;stroke:none;stroke-width:0.05291667;stroke-miterlimit:10;stroke-dasharray:none;stroke-opacity:1"
         id="path5620"
         inkscape:connector-curvature="0" />
    </g>
    <g
       style="font-size:2.64583349px;opacity:1;fill:#ffff00;fill-opacity:1;stroke:none;stroke-width:0.05291667;stroke-miterlimit:10;stroke-dasharray:none;stroke-opacity:1"
       id="text5605"
       transform="translate(0.16940467,1.3707547)">
      <path
         d="m 24.569244,229.42231 0.388866,0 0.492218,1.31258 0.494801,-1.31258 0.388866,0 0,1.92883 -0.254507,0 0,-1.6937 -0.497385,1.32292 -0.262258,0 -0.497386,-1.32292 0,1.6937 -0.253215,0 0,-1.92883 z"
         style="fill:#ffff00;fill-opacity:1;stroke:none;stroke-width:0.05291667"
         id="path5617"
         inkscape:connector-curvature="0" />
    </g>
    <g
       style="font-size:2.64583349px;opacity:1;fill:#ff0000;fill-opacity:1;stroke:none;stroke-width:0.05291667;stroke-miterlimit:10;stroke-dasharray:none;stroke-opacity:1"
       id="text5609"
       transform="translate(0.16940467,1.3707547)">
      <path
         d="m 28.126741,229.42231 0.260966,0 0,0.79065 0.948263,0 0,-0.79065 0.260966,0 0,1.92883 -0.260966,0 0,-0.91855 -0.948263,0 0,0.91855 -0.260966,0 0,-1.92883 z"
         style="fill:#ff0000;fill-opacity:1;stroke:none;stroke-width:0.05291667"
         id="path5614"
         inkscape:connector-curvature="0" />
    </g>
    <g
       style="font-size:2.64583349px;opacity:1;fill:#ffffff;fill-opacity:1;stroke:none;stroke-width:0.2;stroke-miterlimit:10;stroke-dasharray:none;stroke-opacity:1"
       id="text5630"
       transform="translate(1.8260024,3.1750002)">
      <path
         d="m 8.768829,232.64254 1.373959,0 0,0.29657 -1.373959,0 0,-0.29657 z"
         id="path5635"
         inkscape:connector-curvature="0" />
      <path
         d="m 17.55124,231.81442 0,0.7196 0.719594,0 0,0.21962 -0.719594,0 0,0.7196 -0.217041,0 0,-0.7196 -0.719595,0 0,-0.21962 0.719595,0 0,-0.7196 0.217041,0 z"
         id="path5637"
         inkscape:connector-curvature="0" />
    </g>
    <g
       style="font-size:2.64583349px;fill:#ffffff;fill-opacity:1;stroke:none;stroke-width:0.99921262;stroke-miterlimit:4;stroke-dasharray:none;stroke-opacity:1"
       id="text4351"
       transform="translate(0,-0.52916669)">
      <path
         d="m 2.6238038,286.01623 0,0.27517 q -0.1317749,-0.12273 -0.2816366,-0.18345 -0.1485697,-0.0607 -0.3165181,-0.0607 -0.3307292,0 -0.5064291,0.20283 -0.1756999,0.20154 -0.1756999,0.58394 0,0.38112 0.1756999,0.58395 0.1756999,0.20154 0.5064291,0.20154 0.1679484,0 0.3165181,-0.0607 0.1498617,-0.0607 0.2816366,-0.18345 l 0,0.27259 q -0.1369426,0.093 -0.29068,0.13952 -0.1524454,0.0465 -0.3229777,0.0465 -0.4379578,0 -0.6898804,-0.26742 -0.2519226,-0.26872 -0.2519226,-0.73252 0,-0.46508 0.2519226,-0.73251 0.2519226,-0.26872 0.6898804,-0.26872 0.1731161,0 0.3255616,0.0465 0.1537374,0.0452 0.2880961,0.13695 z"
         id="path4420"
         inkscape:connector-curvature="0" />
      <path
         d="m 3.0294638,285.86766 0.260966,0 0,1.70919 0.9392192,0 0,0.21963 -1.2001852,0 0,-1.92882 z"
         id="path4422"
         inkscape:connector-curvature="0" />
      <path
         d="m 4.5022423,285.86766 0.260966,0 0,0.81519 0.8655803,-0.81519 0.3358969,0 -0.957306,0.89917 1.0257772,1.02965 -0.3436483,0 -0.9263001,-0.92889 0,0.92889 -0.260966,0 0,-1.92882 z"
         id="path4424"
         inkscape:connector-curvature="0" />
      <path
         d="m 6.3070417,287.57685 0.4263306,0 0,-1.47148 -0.463796,0.093 0,-0.23771 0.4612122,-0.093 0.260966,0 0,1.70919 0.4263306,0 0,0.21963 -1.1110434,0 0,-0.21963 z"
         id="path4426"
         inkscape:connector-curvature="0" />
    </g>
    <g
       style="font-size:2.64583349px;fill:#ffffff;fill-opacity:1;stroke:none;stroke-width:0.99921262;stroke-miterlimit:4;stroke-dasharray:none;stroke-opacity:1"
       id="text4355"
       transform="translate(0,-0.52916669)">
      <path
         d="m 9.9371275,286.01623 0,0.27517 q -0.1317749,-0.12273 -0.2816365,-0.18345 -0.1485698,-0.0607 -0.3165182,-0.0607 -0.3307292,0 -0.5064291,0.20283 -0.1756999,0.20154 -0.1756999,0.58394 0,0.38112 0.1756999,0.58395 0.1756999,0.20154 0.5064291,0.20154 0.1679484,0 0.3165182,-0.0607 0.1498616,-0.0607 0.2816365,-0.18345 l 0,0.27259 q -0.1369425,0.093 -0.2906799,0.13952 -0.1524455,0.0465 -0.3229777,0.0465 -0.4379578,0 -0.6898804,-0.26742 -0.2519227,-0.26872 -0.2519227,-0.73252 0,-0.46508 0.2519227,-0.73251 0.2519226,-0.26872 0.6898804,-0.26872 0.173116,0 0.3255615,0.0465 0.1537374,0.0452 0.2880961,0.13695 z"
         id="path4429"
         inkscape:connector-curvature="0" />
      <path
         d="m 10.342788,285.86766 0.260966,0 0,1.70919 0.939219,0 0,0.21963 -1.200185,0 0,-1.92882 z"
         id="path4431"
         inkscape:connector-curvature="0" />
      <path
         d="m 11.815566,285.86766 0.260966,0 0,0.81519 0.86558,-0.81519 0.335897,0 -0.957306,0.89917 1.025777,1.02965 -0.343648,0 -0.9263,-0.92889 0,0.92889 -0.260966,0 0,-1.92882 z"
         id="path4433"
         inkscape:connector-curvature="0" />
      <path
         d="m 13.799941,287.57685 0.910797,0 0,0.21963 -1.224731,0 0,-0.21963 q 0.14857,-0.15373 0.404368,-0.41212 0.25709,-0.25967 0.322978,-0.3346 0.125315,-0.14082 0.174408,-0.23771 0.05038,-0.0982 0.05038,-0.1925 0,-0.15373 -0.10852,-0.25063 -0.107229,-0.0969 -0.280345,-0.0969 -0.122732,0 -0.259674,0.0426 -0.135651,0.0426 -0.29068,0.12919 l 0,-0.26355 q 0.157613,-0.0633 0.294556,-0.0956 0.136942,-0.0323 0.25063,-0.0323 0.299724,0 0.478007,0.14987 0.178284,0.14986 0.178284,0.40049 0,0.11885 -0.04522,0.22608 -0.04392,0.10594 -0.161489,0.25063 -0.0323,0.0375 -0.205414,0.21704 -0.173116,0.17829 -0.488342,0.49997 z"
         id="path4435"
         inkscape:connector-curvature="0" />
    </g>
    <g
       style="font-size:2.64583349px;fill:#ffffff;fill-opacity:1;stroke:none;stroke-width:0.99921262;stroke-miterlimit:4;stroke-dasharray:none;stroke-opacity:1"
       id="text4363"
       transform="translate(0,-0.52916669)">
      <path
         d="m 16.873835,286.92962 q 0.08397,0.0284 0.16278,0.12144 0.0801,0.093 0.160197,0.25579 l 0.264842,0.5271 -0.280345,0 -0.246755,-0.4948 q -0.0956,-0.19378 -0.186035,-0.25709 -0.08914,-0.0633 -0.244171,-0.0633 l -0.28422,0 0,0.81519 -0.260966,0 0,-1.92882 0.589111,0 q 0.330729,0 0.49351,0.13824 0.162781,0.13823 0.162781,0.41728 0,0.18216 -0.08527,0.30231 -0.08397,0.12015 -0.245463,0.16666 z m -0.653707,-0.81003 0,0.68471 0.328145,0 q 0.188619,0 0.284221,-0.0866 0.09689,-0.0879 0.09689,-0.25709 0,-0.16924 -0.09689,-0.2545 -0.0956,-0.0866 -0.284221,-0.0866 l -0.328145,0 z"
         id="path4438"
         inkscape:connector-curvature="0" />
      <path
         d="m 17.798843,285.90513 0.3514,0 0.855245,1.6136 0,-1.6136 0.253214,0 0,1.92882 -0.3514,0 -0.855245,-1.61359 0,1.61359 -0.253214,0 0,-1.92882 z"
         id="path4440"
         inkscape:connector-curvature="0" />
      <path
         d="m 20.039016,286.11959 0,1.49991 0.315227,0 q 0.3992,0 0.583943,-0.18087 0.186036,-0.18087 0.186036,-0.57103 0,-0.38757 -0.186036,-0.56714 -0.184743,-0.18087 -0.583943,-0.18087 l -0.315227,0 z m -0.260966,-0.21446 0.536143,0 q 0.56069,0 0.822948,0.23384 0.262258,0.23254 0.262258,0.72863 0,0.49868 -0.26355,0.73252 -0.26355,0.23383 -0.821656,0.23383 l -0.536143,0 0,-1.92882 z"
         id="path4442"
         inkscape:connector-curvature="0" />
      <path
         d="m 21.882573,287.61433 0.426331,0 0,-1.47149 -0.463796,0.093 0,-0.23771 0.461212,-0.093 0.260966,0 0,1.7092 0.426331,0 0,0.21962 -1.111044,0 0,-0.21962 z"
         id="path4444"
         inkscape:connector-curvature="0" />
    </g>
    <g
       style="font-size:2.64583349px;fill:#ffffff;fill-opacity:1;stroke:none;stroke-width:0.99921262;stroke-miterlimit:4;stroke-dasharray:none;stroke-opacity:1"
       id="text4371"
       transform="translate(0,-0.52916669)">
      <path
         d="m 24.491991,286.92962 q 0.08397,0.0284 0.162781,0.12144 0.0801,0.093 0.160197,0.25579 l 0.264842,0.5271 -0.280345,0 -0.246755,-0.4948 q -0.0956,-0.19378 -0.186035,-0.25709 -0.08914,-0.0633 -0.244171,-0.0633 l -0.284221,0 0,0.81519 -0.260966,0 0,-1.92882 0.589112,0 q 0.330729,0 0.49351,0.13824 0.16278,0.13823 0.16278,0.41728 0,0.18216 -0.08527,0.30231 -0.08397,0.12015 -0.245463,0.16666 z m -0.653707,-0.81003 0,0.68471 0.328146,0 q 0.188619,0 0.28422,-0.0866 0.09689,-0.0879 0.09689,-0.25709 0,-0.16924 -0.09689,-0.2545 -0.0956,-0.0866 -0.28422,-0.0866 l -0.328146,0 z"
         id="path4447"
         inkscape:connector-curvature="0" />
      <path
         d="m 25.416999,285.90513 0.3514,0 0.855245,1.6136 0,-1.6136 0.253215,0 0,1.92882 -0.3514,0 -0.855245,-1.61359 0,1.61359 -0.253215,0 0,-1.92882 z"
         id="path4449"
         inkscape:connector-curvature="0" />
      <path
         d="m 27.657173,286.11959 0,1.49991 0.315226,0 q 0.399201,0 0.583944,-0.18087 0.186035,-0.18087 0.186035,-0.57103 0,-0.38757 -0.186035,-0.56714 -0.184743,-0.18087 -0.583944,-0.18087 l -0.315226,0 z m -0.260966,-0.21446 0.536143,0 q 0.560689,0 0.822947,0.23384 0.262258,0.23254 0.262258,0.72863 0,0.49868 -0.26355,0.73252 -0.26355,0.23383 -0.821655,0.23383 l -0.536143,0 0,-1.92882 z"
         id="path4451"
         inkscape:connector-curvature="0" />
      <path
         d="m 29.680306,287.61433 0.910797,0 0,0.21962 -1.224732,0 0,-0.21962 q 0.14857,-0.15374 0.404368,-0.41212 0.257091,-0.25967 0.322978,-0.33461 0.125315,-0.14081 0.174408,-0.23771 0.05038,-0.0982 0.05038,-0.19249 0,-0.15374 -0.10852,-0.25063 -0.107229,-0.0969 -0.280345,-0.0969 -0.122731,0 -0.259674,0.0426 -0.13565,0.0426 -0.29068,0.12919 l 0,-0.26355 q 0.157613,-0.0633 0.294556,-0.0956 0.136943,-0.0323 0.250631,-0.0323 0.299723,0 0.478007,0.14986 0.178283,0.14986 0.178283,0.40049 0,0.11886 -0.04522,0.22609 -0.04393,0.10593 -0.161489,0.25063 -0.0323,0.0375 -0.205414,0.21704 -0.173116,0.17828 -0.488342,0.49997 z"
         id="path4453"
         inkscape:connector-curvature="0" />
    </g>
    <g
       style="font-size:2.64583349px;fill:#ffffff;fill-opacity:1;stroke:none;stroke-width:0.99921262;stroke-miterlimit:4;stroke-dasharray:none;stroke-opacity:1"
       id="text4375"
       transform="translate(-0.52916669,-1.0583334)">
      <path
         d="m 3.09703,275.11773 q 0.083974,0.0284 0.1627808,0.12144 0.080098,0.093 0.1601969,0.25579 l 0.2648417,0.5271 -0.2803446,0 -0.246755,-0.4948 q -0.095601,-0.19378 -0.1860352,-0.25709 -0.089142,-0.0633 -0.2441711,-0.0633 l -0.2842204,0 0,0.81519 -0.260966,0 0,-1.92882 0.5891114,0 q 0.3307291,0 0.4935099,0.13824 0.1627808,0.13823 0.1627808,0.41728 0,0.18216 -0.085266,0.30231 -0.083974,0.12015 -0.2454631,0.16666 z m -0.6537069,-0.81003 0,0.68471 0.3281454,0 q 0.1886189,0 0.2842203,-0.0866 0.096893,-0.0879 0.096893,-0.25709 0,-0.16924 -0.096893,-0.2545 -0.095601,-0.0866 -0.2842203,-0.0866 l -0.3281454,0 z"
         id="path4456"
         inkscape:connector-curvature="0" />
      <path
         d="m 4.560765,274.35033 -0.3539836,0.95989 0.7092591,0 -0.3552755,-0.95989 z m -0.1472778,-0.25709 0.2958476,0 0.7350972,1.92882 -0.2713012,0 -0.1756999,-0.4948 -0.869456,0 -0.1756999,0.4948 -0.275177,0 0.7363892,-1.92882 z"
         id="path4458"
         inkscape:connector-curvature="0" />
      <path
         d="m 5.7273605,274.09324 0.3513998,0 0.855245,1.6136 0,-1.6136 0.2532145,0 0,1.92882 -0.3513998,0 -0.855245,-1.61359 0,1.61359 -0.2532145,0 0,-1.92882 z"
         id="path4460"
         inkscape:connector-curvature="0" />
      <path
         d="m 9.0217333,275.74689 0,-0.51806 -0.4263306,0 0,-0.21446 0.6847128,0 0,0.82812 q -0.1511536,0.10723 -0.333313,0.16278 -0.1821595,0.0543 -0.3888652,0.0543 -0.4521688,0 -0.7079672,-0.26355 -0.2545064,-0.26484 -0.2545064,-0.73639 0,-0.47284 0.2545064,-0.73639 0.2557984,-0.26484 0.7079672,-0.26484 0.188619,0 0.3578593,0.0465 0.1705322,0.0465 0.3139344,0.13694 l 0,0.27776 q -0.1446941,-0.12273 -0.3074748,-0.18474 -0.1627808,-0.062 -0.3423564,-0.062 -0.3539836,0 -0.5322673,0.19766 -0.1769918,0.19766 -0.1769918,0.58911 0,0.39016 0.1769918,0.58782 0.1782837,0.19766 0.5322673,0.19766 0.1382344,0 0.246755,-0.0233 0.1085205,-0.0245 0.1950785,-0.0749 z"
         id="path4462"
         inkscape:connector-curvature="0" />
      <path
         d="m 9.7581227,274.09324 1.2195643,0 0,0.21963 -0.958598,0 0,0.57102 0.918548,0 0,0.21963 -0.918548,0 0,0.69892 0.981852,0 0,0.21962 -1.2428183,0 0,-1.92882 z"
         id="path4464"
         inkscape:connector-curvature="0" />
    </g>
    <g
       style="font-size:2.64583349px;line-height:100%;text-align:center;text-anchor:middle;fill:#ffffff;fill-opacity:1;stroke:none;stroke-width:0.99921262;stroke-miterlimit:4;stroke-dasharray:none;stroke-opacity:1"
       id="text4379"
       transform="translate(-1.0583334,0)">
      <path
         d="m 12.189178,243.5467 0.260966,0 0,1.92882 -0.260966,0 0,-1.92882 z"
         id="path4467"
         inkscape:connector-curvature="0" />
      <path
         d="m 12.969492,243.5467 0.3514,0 0.855245,1.6136 0,-1.6136 0.253215,0 0,1.92882 -0.3514,0 -0.855245,-1.61359 0,1.61359 -0.253215,0 0,-1.92882 z"
         id="path4469"
         inkscape:connector-curvature="0" />
      <path
         d="m 14.681274,243.5467 1.631684,0 0,0.21963 -0.684713,0 0,1.70919 -0.262258,0 0,-1.70919 -0.684713,0 0,-0.21963 z"
         id="path4471"
         inkscape:connector-curvature="0" />
      <path
         d="m 16.57134,243.5467 1.219564,0 0,0.21963 -0.958598,0 0,0.57102 0.918549,0 0,0.21963 -0.918549,0 0,0.69892 0.981852,0 0,0.21962 -1.242818,0 0,-1.92882 z"
         id="path4473"
         inkscape:connector-curvature="0" />
      <path
         d="m 19.155162,244.57119 q 0.08397,0.0284 0.16278,0.12144 0.0801,0.093 0.160197,0.2558 l 0.264842,0.52709 -0.280345,0 -0.246754,-0.4948 q -0.0956,-0.19378 -0.186036,-0.25709 -0.08914,-0.0633 -0.244171,-0.0633 l -0.28422,0 0,0.81519 -0.260966,0 0,-1.92882 0.589111,0 q 0.330729,0 0.49351,0.13824 0.162781,0.13823 0.162781,0.41728 0,0.18216 -0.08527,0.30231 -0.08397,0.12015 -0.245463,0.16666 z m -0.653707,-0.81003 0,0.68471 0.328145,0 q 0.188619,0 0.284221,-0.0866 0.09689,-0.0879 0.09689,-0.25709 0,-0.16924 -0.09689,-0.2545 -0.0956,-0.0866 -0.284221,-0.0866 l -0.328145,0 z"
         id="path4475"
         inkscape:connector-curvature="0" />
      <path
         d="m 9.7552181,246.40699 0,0.72476 0.3281459,0 q 0.182159,0 0.281636,-0.0943 0.09948,-0.0943 0.09948,-0.26872 0,-0.17312 -0.09948,-0.26743 -0.09948,-0.0943 -0.281636,-0.0943 l -0.3281459,0 z m -0.260966,-0.21445 0.5891119,0 q 0.324269,0 0.489634,0.14727 0.166656,0.14599 0.166656,0.42892 0,0.28551 -0.166656,0.4315 -0.165365,0.14598 -0.489634,0.14598 l -0.3281459,0 0,0.77515 -0.260966,0 0,-1.92882 z"
         id="path4477"
         inkscape:connector-curvature="0" />
      <path
         d="m 11.873952,246.36953 q -0.28422,0 -0.452169,0.21187 -0.166656,0.21187 -0.166656,0.57748 0,0.36432 0.166656,0.5762 0.167949,0.21187 0.452169,0.21187 0.28422,0 0.449585,-0.21187 0.166657,-0.21188 0.166657,-0.5762 0,-0.36561 -0.166657,-0.57748 -0.165365,-0.21187 -0.449585,-0.21187 z m 0,-0.21188 q 0.40566,0 0.648539,0.2726 0.24288,0.2713 0.24288,0.72863 0,0.45605 -0.24288,0.72864 -0.242879,0.2713 -0.648539,0.2713 -0.406952,0 -0.651123,-0.2713 -0.242879,-0.2713 -0.242879,-0.72864 0,-0.45733 0.242879,-0.72863 0.244171,-0.2726 0.651123,-0.2726 z"
         id="path4479"
         inkscape:connector-curvature="0" />
      <path
         d="m 13.173614,246.19254 0.260966,0 0,1.70919 0.93922,0 0,0.21963 -1.200186,0 0,-1.92882 z"
         id="path4481"
         inkscape:connector-curvature="0" />
      <path
         d="m 15.353068,246.44963 -0.353984,0.95989 0.70926,0 -0.355276,-0.95989 z m -0.147278,-0.25709 0.295848,0 0.735097,1.92882 -0.271301,0 -0.1757,-0.4948 -0.869456,0 -0.1757,0.4948 -0.275177,0 0.736389,-1.92882 z"
         id="path4483"
         inkscape:connector-curvature="0" />
      <path
         d="m 16.042949,246.19254 1.631683,0 0,0.21962 -0.684713,0 0,1.7092 -0.262258,0 0,-1.7092 -0.684712,0 0,-0.21962 z"
         id="path4485"
         inkscape:connector-curvature="0" />
      <path
         d="m 17.933014,246.19254 0.260966,0 0,1.92882 -0.260966,0 0,-1.92882 z"
         id="path4487"
         inkscape:connector-curvature="0" />
      <path
         d="m 19.496226,246.36953 q -0.28422,0 -0.452169,0.21187 -0.166656,0.21187 -0.166656,0.57748 0,0.36432 0.166656,0.5762 0.167949,0.21187 0.452169,0.21187 0.284221,0 0.449585,-0.21187 0.166657,-0.21188 0.166657,-0.5762 0,-0.36561 -0.166657,-0.57748 -0.165364,-0.21187 -0.449585,-0.21187 z m 0,-0.21188 q 0.40566,0 0.64854,0.2726 0.242879,0.2713 0.242879,0.72863 0,0.45605 -0.242879,0.72864 -0.24288,0.2713 -0.64854,0.2713 -0.406952,0 -0.651123,-0.2713 -0.242879,-0.2713 -0.242879,-0.72864 0,-0.45733 0.242879,-0.72863 0.244171,-0.2726 0.651123,-0.2726 z"
         id="path4489"
         inkscape:connector-curvature="0" />
      <path
         d="m 20.795889,246.19254 0.3514,0 0.855245,1.61359 0,-1.61359 0.253214,0 0,1.92882 -0.3514,0 -0.855245,-1.6136 0,1.6136 -0.253214,0 0,-1.92882 z"
         id="path4491"
         inkscape:connector-curvature="0" />
    </g>
    <g
       style="font-size:2.64583349px;text-align:center;text-anchor:middle;fill:#ffffff;fill-opacity:1;stroke:none;stroke-width:0.99921262;stroke-miterlimit:4;stroke-dasharray:none;stroke-opacity:1"
       id="text4385"
       transform="translate(-1.0583334,-3.7041669)">
      <path
         d="m 8.9710286,263.98097 0.3888651,0 0.4922181,1.31258 0.4948022,-1.31258 0.388865,0 0,1.92882 -0.254507,0 0,-1.6937 -0.4973853,1.32292 -0.2622579,0 -0.4973857,-1.32292 0,1.6937 -0.2532145,0 0,-1.92882 z"
         id="path4494"
         inkscape:connector-curvature="0" />
      <path
         d="m 11.894623,264.23806 -0.353984,0.95989 0.709259,0 -0.355275,-0.95989 z m -0.147278,-0.25709 0.295848,0 0.735097,1.92882 -0.271301,0 -0.1757,-0.4948 -0.869456,0 -0.1757,0.4948 -0.275177,0 0.736389,-1.92882 z"
         id="path4496"
         inkscape:connector-curvature="0" />
      <path
         d="m 12.965617,263.98097 0.280345,0 0.479299,0.71701 0.481883,-0.71701 0.280344,0 -0.620117,0.9263 0.661459,1.00252 -0.280345,0 -0.542603,-0.82036 -0.546478,0.82036 -0.281637,0 0.688589,-1.02965 -0.600739,-0.89917 z"
         id="path4498"
         inkscape:connector-curvature="0" />
      <path
         d="m 14.895732,265.58164 0.272593,0 0,0.32815 -0.272593,0 0,-0.32815 z"
         id="path4500"
         inkscape:connector-curvature="0" />
      <path
         d="m 17.71339,264.04427 0,0.25451 q -0.14857,-0.0711 -0.280345,-0.10594 -0.131775,-0.0349 -0.254506,-0.0349 -0.213166,0 -0.329438,0.0827 -0.11498,0.0827 -0.11498,0.23513 0,0.1279 0.07622,0.19379 0.07751,0.0646 0.291972,0.10464 l 0.157613,0.0323 q 0.291972,0.0555 0.430206,0.19637 0.139527,0.13952 0.139527,0.37465 0,0.28035 -0.188619,0.42504 -0.187327,0.1447 -0.550354,0.1447 -0.136943,0 -0.291972,-0.031 -0.153737,-0.031 -0.319102,-0.0917 l 0,-0.26871 q 0.158905,0.0891 0.31135,0.13436 0.152446,0.0452 0.299724,0.0452 0.2235,0 0.34494,-0.0879 0.12144,-0.0879 0.12144,-0.25063 0,-0.14211 -0.08785,-0.22221 -0.08656,-0.0801 -0.285513,-0.12014 l -0.158905,-0.031 q -0.291972,-0.0581 -0.422455,-0.18216 -0.130483,-0.12402 -0.130483,-0.34494 0,-0.2558 0.179576,-0.40308 0.180868,-0.14727 0.497386,-0.14727 0.13565,0 0.276469,0.0245 0.140818,0.0245 0.288096,0.0736 z"
         id="path4502"
         inkscape:connector-curvature="0" />
      <path
         d="m 17.974356,263.98097 1.631683,0 0,0.21962 -0.684712,0 0,1.7092 -0.262258,0 0,-1.7092 -0.684713,0 0,-0.21962 z"
         id="path4504"
         inkscape:connector-curvature="0" />
      <path
         d="m 19.864421,263.98097 1.219564,0 0,0.21962 -0.958598,0 0,0.57103 0.918549,0 0,0.21962 -0.918549,0 0,0.69893 0.981852,0 0,0.21962 -1.242818,0 0,-1.92882 z"
         id="path4506"
         inkscape:connector-curvature="0" />
      <path
         d="m 21.794537,264.19542 0,0.72477 0.328145,0 q 0.182159,0 0.281636,-0.0943 0.09948,-0.0943 0.09948,-0.26872 0,-0.17312 -0.09948,-0.26743 -0.09948,-0.0943 -0.281636,-0.0943 l -0.328145,0 z m -0.260966,-0.21445 0.589111,0 q 0.32427,0 0.489634,0.14727 0.166657,0.14599 0.166657,0.42892 0,0.28551 -0.166657,0.4315 -0.165364,0.14598 -0.489634,0.14598 l -0.328145,0 0,0.77515 -0.260966,0 0,-1.92882 z"
         id="path4508"
         inkscape:connector-curvature="0" />
    </g>
    <g
       style="font-size:2.64583349px;line-height:100%;text-align:center;text-anchor:middle;fill:#ffffff;fill-opacity:1;stroke:none;stroke-width:0.99921262;stroke-miterlimit:4;stroke-dasharray:none;stroke-opacity:1"
       id="text4389"
       transform="translate(-0.52916669,-1.0583334)">
      <path
         d="m 13.255652,253.40204 q 0.08397,0.0284 0.16278,0.12144 0.0801,0.093 0.160197,0.2558 l 0.264842,0.5271 -0.280345,0 -0.246755,-0.4948 q -0.0956,-0.19379 -0.186035,-0.25709 -0.08914,-0.0633 -0.244171,-0.0633 l -0.28422,0 0,0.81519 -0.260966,0 0,-1.92882 0.589111,0 q 0.330729,0 0.49351,0.13823 0.162781,0.13824 0.162781,0.41729 0,0.18216 -0.08527,0.30231 -0.08398,0.12014 -0.245463,0.16665 z m -0.653707,-0.81002 0,0.68471 0.328145,0 q 0.188619,0 0.28422,-0.0866 0.09689,-0.0879 0.09689,-0.25709 0,-0.16924 -0.09689,-0.25451 -0.0956,-0.0866 -0.28422,-0.0866 l -0.328145,0 z"
         id="path4511"
         inkscape:connector-curvature="0" />
      <path
         d="m 14.18066,252.37756 0.3514,0 0.855245,1.61359 0,-1.61359 0.253214,0 0,1.92882 -0.3514,0 -0.855245,-1.6136 0,1.6136 -0.253214,0 0,-1.92882 z"
         id="path4513"
         inkscape:connector-curvature="0" />
      <path
         d="m 16.420833,252.59202 0,1.4999 0.315227,0 q 0.3992,0 0.583943,-0.18086 0.186036,-0.18087 0.186036,-0.57103 0,-0.38757 -0.186036,-0.56715 -0.184743,-0.18086 -0.583943,-0.18086 l -0.315227,0 z m -0.260966,-0.21446 0.536143,0 q 0.56069,0 0.822948,0.23383 0.262258,0.23255 0.262258,0.72864 0,0.49868 -0.26355,0.73252 -0.26355,0.23383 -0.821656,0.23383 l -0.536143,0 0,-1.92882 z"
         id="path4515"
         inkscape:connector-curvature="0" />
      <path
         d="m 19.450364,252.37756 0.219625,0 -0.671793,2.17428 -0.219625,0 0.671793,-2.17428 z"
         id="path4517"
         inkscape:connector-curvature="0" />
      <path
         d="m 10.276505,255.17196 0,0.27518 q -0.131775,-0.12273 -0.2816364,-0.18345 -0.1485698,-0.0607 -0.3165182,-0.0607 -0.3307292,0 -0.5064291,0.20283 -0.1756999,0.20154 -0.1756999,0.58394 0,0.38111 0.1756999,0.58394 0.1756999,0.20154 0.5064291,0.20154 0.1679484,0 0.3165182,-0.0607 0.1498614,-0.0607 0.2816364,-0.18345 l 0,0.27259 q -0.136942,0.093 -0.2906798,0.13953 -0.1524455,0.0465 -0.3229777,0.0465 -0.4379578,0 -0.6898804,-0.26743 -0.2519227,-0.26871 -0.2519227,-0.73251 0,-0.46509 0.2519227,-0.73251 0.2519226,-0.26872 0.6898804,-0.26872 0.173116,0 0.3255615,0.0465 0.153737,0.0452 0.288096,0.13694 z"
         id="path4519"
         inkscape:connector-curvature="0" />
      <path
         d="m 11.465063,255.20038 q -0.28422,0 -0.452169,0.21188 -0.166656,0.21187 -0.166656,0.57748 0,0.36432 0.166656,0.57619 0.167949,0.21188 0.452169,0.21188 0.284221,0 0.449585,-0.21188 0.166657,-0.21187 0.166657,-0.57619 0,-0.36561 -0.166657,-0.57748 -0.165364,-0.21188 -0.449585,-0.21188 z m 0,-0.21187 q 0.40566,0 0.648539,0.27259 0.24288,0.2713 0.24288,0.72864 0,0.45605 -0.24288,0.72864 -0.242879,0.2713 -0.648539,0.2713 -0.406952,0 -0.651123,-0.2713 -0.242879,-0.2713 -0.242879,-0.72864 0,-0.45734 0.242879,-0.72864 0.244171,-0.27259 0.651123,-0.27259 z"
         id="path4521"
         inkscape:connector-curvature="0" />
      <path
         d="m 12.764725,255.02339 0.260966,0 0,1.92882 -0.260966,0 0,-1.92882 z"
         id="path4523"
         inkscape:connector-curvature="0" />
      <path
         d="m 13.545039,255.02339 0.3514,0 0.855245,1.6136 0,-1.6136 0.253215,0 0,1.92882 -0.3514,0 -0.855245,-1.61359 0,1.61359 -0.253215,0 0,-1.92882 z"
         id="path4525"
         inkscape:connector-curvature="0" />
      <path
         d="m 16.099148,255.02339 1.631683,0 0,0.21963 -0.684713,0 0,1.70919 -0.262258,0 0,-1.70919 -0.684712,0 0,-0.21963 z"
         id="path4527"
         inkscape:connector-curvature="0" />
      <path
         d="m 18.772111,255.20038 q -0.28422,0 -0.452169,0.21188 -0.166656,0.21187 -0.166656,0.57748 0,0.36432 0.166656,0.57619 0.167949,0.21188 0.452169,0.21188 0.284221,0 0.449585,-0.21188 0.166657,-0.21187 0.166657,-0.57619 0,-0.36561 -0.166657,-0.57748 -0.165364,-0.21188 -0.449585,-0.21188 z m 0,-0.21187 q 0.40566,0 0.648539,0.27259 0.24288,0.2713 0.24288,0.72864 0,0.45605 -0.24288,0.72864 -0.242879,0.2713 -0.648539,0.2713 -0.406952,0 -0.651123,-0.2713 -0.242879,-0.2713 -0.242879,-0.72864 0,-0.45734 0.242879,-0.72864 0.244171,-0.27259 0.651123,-0.27259 z"
         id="path4529"
         inkscape:connector-curvature="0" />
      <path
         d="m 21.228034,255.0867 0,0.2545 q -0.14857,-0.071 -0.280345,-0.10593 -0.131775,-0.0349 -0.254506,-0.0349 -0.213165,0 -0.329437,0.0827 -0.11498,0.0827 -0.11498,0.23512 0,0.1279 0.07622,0.19379 0.07751,0.0646 0.291972,0.10465 l 0.157613,0.0323 q 0.291972,0.0556 0.430207,0.19637 0.139526,0.13953 0.139526,0.37466 0,0.28034 -0.188619,0.42504 -0.187327,0.14469 -0.550354,0.14469 -0.136943,0 -0.291972,-0.031 -0.153737,-0.031 -0.319102,-0.0917 l 0,-0.26872 q 0.158905,0.0891 0.311351,0.13436 0.152445,0.0452 0.299723,0.0452 0.223501,0 0.34494,-0.0879 0.12144,-0.0879 0.12144,-0.25063 0,-0.14211 -0.08785,-0.22221 -0.08656,-0.0801 -0.285512,-0.12015 l -0.158906,-0.031 q -0.291971,-0.0581 -0.422454,-0.18216 -0.130483,-0.12402 -0.130483,-0.34494 0,-0.25579 0.179575,-0.40307 0.180868,-0.14728 0.497386,-0.14728 0.135651,0 0.276469,0.0246 0.140818,0.0245 0.288096,0.0736 z"
         id="path4531"
         inkscape:connector-curvature="0" />
      <path
         d="m 22.912685,255.0867 0,0.2545 q -0.148569,-0.071 -0.280344,-0.10593 -0.131775,-0.0349 -0.254507,-0.0349 -0.213165,0 -0.329437,0.0827 -0.11498,0.0827 -0.11498,0.23512 0,0.1279 0.07622,0.19379 0.07751,0.0646 0.291972,0.10465 l 0.157613,0.0323 q 0.291971,0.0556 0.430206,0.19637 0.139526,0.13953 0.139526,0.37466 0,0.28034 -0.188619,0.42504 -0.187327,0.14469 -0.550354,0.14469 -0.136942,0 -0.291972,-0.031 -0.153737,-0.031 -0.319102,-0.0917 l 0,-0.26872 q 0.158906,0.0891 0.311351,0.13436 0.152445,0.0452 0.299723,0.0452 0.223501,0 0.344941,-0.0879 0.121439,-0.0879 0.121439,-0.25063 0,-0.14211 -0.08785,-0.22221 -0.08656,-0.0801 -0.285512,-0.12015 l -0.158905,-0.031 q -0.291972,-0.0581 -0.422455,-0.18216 -0.130483,-0.12402 -0.130483,-0.34494 0,-0.25579 0.179576,-0.40307 0.180867,-0.14728 0.497385,-0.14728 0.135651,0 0.276469,0.0246 0.140819,0.0245 0.288096,0.0736 z"
         id="path4533"
         inkscape:connector-curvature="0" />
    </g>
    <g
       style="font-size:2.64583349px;text-align:center;text-anchor:middle;fill:#ffffff;fill-opacity:1;stroke:none;stroke-width:0.99921262;stroke-miterlimit:4;stroke-dasharray:none;stroke-opacity:1"
       id="text4395"
       transform="translate(0.52916669,-2.1166668)">
      <path
         d="m 22.921905,239.2383 0,-0.51806 -0.42633,0 0,-0.21446 0.684713,0 0,0.82812 q -0.151154,0.10723 -0.333313,0.16278 -0.18216,0.0543 -0.388866,0.0543 -0.452168,0 -0.707967,-0.26355 -0.254506,-0.26484 -0.254506,-0.73639 0,-0.47284 0.254506,-0.73639 0.255799,-0.26484 0.707967,-0.26484 0.188619,0 0.35786,0.0465 0.170532,0.0465 0.313934,0.13694 l 0,0.27776 q -0.144694,-0.12273 -0.307475,-0.18474 -0.162781,-0.062 -0.342356,-0.062 -0.353984,0 -0.532267,0.19766 -0.176992,0.19766 -0.176992,0.58911 0,0.39016 0.176992,0.58782 0.178283,0.19766 0.532267,0.19766 0.138234,0 0.246755,-0.0232 0.10852,-0.0246 0.195078,-0.0749 z"
         id="path4536"
         inkscape:connector-curvature="0" />
      <path
         d="m 24.302958,237.84174 -0.353984,0.95989 0.70926,0 -0.355276,-0.95989 z m -0.147278,-0.25709 0.295848,0 0.735097,1.92882 -0.271301,0 -0.1757,-0.4948 -0.869456,0 -0.1757,0.4948 -0.275177,0 0.736389,-1.92882 z"
         id="path4538"
         inkscape:connector-curvature="0" />
      <path
         d="m 24.992838,237.58465 1.631684,0 0,0.21963 -0.684713,0 0,1.70919 -0.262258,0 0,-1.70919 -0.684713,0 0,-0.21963 z"
         id="path4540"
         inkscape:connector-curvature="0" />
      <path
         d="m 26.882904,237.58465 1.219564,0 0,0.21963 -0.958598,0 0,0.57102 0.918549,0 0,0.21962 -0.918549,0 0,0.69893 0.981852,0 0,0.21962 -1.242818,0 0,-1.92882 z"
         id="path4542"
         inkscape:connector-curvature="0" />
      <path
         d="m 28.964173,237.58465 0.219624,0 -0.671793,2.17429 -0.219625,0 0.671794,-2.17429 z"
         id="path4544"
         inkscape:connector-curvature="0" />
      <path
         d="m 23.681549,241.1064 0,0.72476 0.328145,0 q 0.18216,0 0.281637,-0.0943 0.09948,-0.0943 0.09948,-0.26872 0,-0.17311 -0.09948,-0.26742 -0.09948,-0.0943 -0.281637,-0.0943 l -0.328145,0 z m -0.260966,-0.21446 0.589111,0 q 0.32427,0 0.489635,0.14728 0.166656,0.14599 0.166656,0.42891 0,0.28552 -0.166656,0.4315 -0.165365,0.14599 -0.489635,0.14599 l -0.328145,0 0,0.77515 -0.260966,0 0,-1.92883 z"
         id="path4546"
         inkscape:connector-curvature="0" />
      <path
         d="m 24.845561,240.89194 0.26355,0 0.40566,1.63039 0.404368,-1.63039 0.293263,0 0.40566,1.63039 0.404369,-1.63039 0.264841,0 -0.484466,1.92883 -0.328146,0 -0.406952,-1.67432 -0.410827,1.67432 -0.328146,0 -0.483174,-1.92883 z"
         id="path4548"
         inkscape:connector-curvature="0" />
    </g>
    <g
       style="font-size:1.984375px;text-align:center;text-anchor:middle;fill:#ffffff;fill-opacity:1;stroke:none;stroke-width:0.99921262;stroke-miterlimit:4;stroke-dasharray:none;stroke-opacity:1"
       id="text4405"
       transform="translate(-12.959387,2.2798923)">
      <path
         d="m 14.327776,199.81087 0,0.30812 0.367226,0 0,0.13856 -0.367226,0 0,0.58911 q 0,0.13274 0.03585,0.17053 0.03682,0.0378 0.148247,0.0378 l 0.183129,0 0,0.14921 -0.183129,0 q -0.206383,0 -0.284866,-0.0765 -0.07848,-0.0775 -0.07848,-0.28099 l 0,-0.58911 -0.130806,0 0,-0.13856 0.130806,0 0,-0.30812 0.179253,0 z"
         id="path4562"
         inkscape:connector-curvature="0" />
      <path
         d="m 14.826777,200.11899 0.178283,0 0.222855,0.84685 0.221885,-0.84685 0.210259,0 0.222855,0.84685 0.221885,-0.84685 0.178284,0 -0.283897,1.0852 -0.210259,0 -0.233513,-0.88948 -0.234482,0.88948 -0.210258,0 -0.283897,-1.0852 z"
         id="path4565"
         inkscape:connector-curvature="0" />
      <path
         d="m 16.974901,200.24398 q -0.143402,0 -0.22673,0.1124 -0.08333,0.11142 -0.08333,0.30618 0,0.19476 0.08236,0.30715 0.08333,0.11143 0.227699,0.11143 0.142433,0 0.225762,-0.1124 0.08333,-0.11239 0.08333,-0.30618 0,-0.19282 -0.08333,-0.30521 -0.08333,-0.11337 -0.225762,-0.11337 z m 0,-0.15115 q 0.232544,0 0.365288,0.15115 0.132744,0.15115 0.132744,0.41858 0,0.26646 -0.132744,0.41858 -0.132744,0.15115 -0.365288,0.15115 -0.233513,0 -0.366257,-0.15115 -0.131774,-0.15212 -0.131774,-0.41858 0,-0.26743 0.131774,-0.41858 0.132744,-0.15115 0.366257,-0.15115 z"
         id="path4567"
         inkscape:connector-curvature="0" />
      <path
         d="m 19.113337,200.28371 0,-0.58718 0.178283,0 0,1.50766 -0.178283,0 0,-0.16278 q -0.0562,0.0969 -0.142434,0.14437 -0.08527,0.0465 -0.205413,0.0465 -0.196694,0 -0.320717,-0.15696 -0.123055,-0.15697 -0.123055,-0.41277 0,-0.2558 0.123055,-0.41277 0.124023,-0.15696 0.320717,-0.15696 0.120147,0 0.205413,0.0475 0.08623,0.0465 0.142434,0.14341 z m -0.607521,0.37885 q 0,0.19669 0.08042,0.30909 0.08139,0.11143 0.222855,0.11143 0.141464,0 0.222854,-0.11143 0.08139,-0.1124 0.08139,-0.30909 0,-0.19669 -0.08139,-0.30812 -0.08139,-0.1124 -0.222854,-0.1124 -0.141465,0 -0.222855,0.1124 -0.08042,0.11143 -0.08042,0.30812 z"
         id="path4569"
         inkscape:connector-curvature="0" />
      <path
         d="m 20.287683,200.28564 q -0.03004,-0.0174 -0.06589,-0.0252 -0.03488,-0.009 -0.07752,-0.009 -0.151153,0 -0.232544,0.0988 -0.08042,0.0979 -0.08042,0.28196 l 0,0.57167 -0.179253,0 0,-1.0852 0.179253,0 0,0.16859 q 0.0562,-0.0988 0.146309,-0.14631 0.09011,-0.0484 0.218979,-0.0484 0.01841,0 0.04069,0.003 0.02229,0.002 0.04942,0.007 l 9.68e-4,0.18312 z"
         id="path4571"
         inkscape:connector-curvature="0" />
      <path
         d="m 20.458216,200.77592 0,-0.65693 0.178283,0 0,0.65015 q 0,0.15406 0.06007,0.23158 0.06007,0.0765 0.180222,0.0765 0.144371,0 0.227699,-0.0921 0.0843,-0.092 0.0843,-0.25095 l 0,-0.61527 0.178284,0 0,1.0852 -0.178284,0 0,-0.16665 q -0.06492,0.0988 -0.151153,0.14727 -0.08527,0.0475 -0.198632,0.0475 -0.187004,0 -0.283897,-0.11627 -0.09689,-0.11627 -0.09689,-0.3401 z"
         id="path4573"
         inkscape:connector-curvature="0" />
      <path
         d="m 22.638315,200.54919 0,0.655 -0.178283,0 0,-0.64918 q 0,-0.15406 -0.06007,-0.23061 -0.06007,-0.0765 -0.180222,-0.0765 -0.144371,0 -0.227699,0.092 -0.08333,0.0921 -0.08333,0.25096 l 0,0.61333 -0.179253,0 0,-1.0852 0.179253,0 0,0.16859 q 0.06395,-0.0979 0.150184,-0.14631 0.0872,-0.0484 0.200569,-0.0484 0.187004,0 0.282929,0.11627 0.09592,0.1153 0.09592,0.34009 z"
         id="path4575"
         inkscape:connector-curvature="0" />
      <path
         d="m 22.989069,199.69653 0.179253,0 0,0.89045 0.531944,-0.46799 0.227699,0 -0.575546,0.50772 0.599769,0.57748 -0.232543,0 -0.551323,-0.53 0,0.53 -0.179253,0 0,-1.50766 z"
         id="path4577"
         inkscape:connector-curvature="0" />
      <path
         d="m 24.834887,200.15096 0,0.1686 q -0.07558,-0.0388 -0.156968,-0.0581 -0.08139,-0.0194 -0.168594,-0.0194 -0.132744,0 -0.1996,0.0407 -0.06589,0.0407 -0.06589,0.12208 0,0.062 0.04748,0.0979 0.04748,0.0349 0.19088,0.0668 l 0.06104,0.0136 q 0.189911,0.0407 0.269363,0.1153 0.08042,0.0736 0.08042,0.20638 0,0.15116 -0.120148,0.23933 -0.119179,0.0882 -0.328468,0.0882 -0.0872,0 -0.18216,-0.0174 -0.09399,-0.0165 -0.198631,-0.0504 l 0,-0.1841 q 0.09883,0.0514 0.194755,0.0775 0.09593,0.0252 0.189911,0.0252 0.125962,0 0.193787,-0.0426 0.06782,-0.0436 0.06782,-0.12208 0,-0.0727 -0.04941,-0.11143 -0.04845,-0.0388 -0.214135,-0.0746 l -0.06201,-0.0145 q -0.165688,-0.0349 -0.239327,-0.10658 -0.07364,-0.0727 -0.07364,-0.19864 0,-0.15309 0.108521,-0.23641 0.10852,-0.0833 0.30812,-0.0833 0.09883,0 0.186036,0.0145 0.0872,0.0145 0.160843,0.0436 z"
         id="path4579"
         inkscape:connector-curvature="0" />
    </g>
    <g
       transform="matrix(0,1,-1,0,0,0)"
       style="font-size:2.64583349px;text-align:center;text-anchor:middle;fill:#ffffff;fill-opacity:1;stroke:none;stroke-width:0.99921262;stroke-miterlimit:4;stroke-dasharray:none;stroke-opacity:1"
       id="text4342">
      <path
         d="m 216.22093,-29.436005 q 0,-0.258382 -0.10723,-0.400492 -0.10593,-0.14211 -0.29843,-0.14211 -0.1912,0 -0.29843,0.14211 -0.10594,0.14211 -0.10594,0.400492 0,0.257091 0.10594,0.399201 0.10723,0.14211 0.29843,0.14211 0.1925,0 0.29843,-0.14211 0.10723,-0.14211 0.10723,-0.399201 z m 0.23771,0.56069 q 0,0.369486 -0.16407,0.549062 -0.16407,0.180867 -0.50255,0.180867 -0.12532,0 -0.23642,-0.01938 -0.11111,-0.01809 -0.21575,-0.05684 l 0,-0.231252 q 0.10464,0.05684 0.2067,0.08397 0.10207,0.02713 0.208,0.02713 0.23384,0 0.35011,-0.122732 0.11627,-0.121439 0.11627,-0.368194 l 0,-0.117564 q -0.0736,0.127899 -0.18862,0.191203 -0.11498,0.0633 -0.27517,0.0633 -0.26614,0 -0.42892,-0.20283 -0.16278,-0.20283 -0.16278,-0.537435 0,-0.335897 0.16278,-0.538727 0.16278,-0.20283 0.42892,-0.20283 0.16019,0 0.27517,0.0633 0.11498,0.0633 0.18862,0.191203 l 0,-0.219625 0.23771,0 0,1.267365 z"
         style="fill:#ff0000"
         id="path5313" />
      <path
         d="m 217.60586,-29.423086 q -0.2881,0 -0.3992,0.06589 -0.1111,0.06589 -0.1111,0.224792 0,0.126608 0.0827,0.201538 0.084,0.07364 0.22737,0.07364 0.19767,0 0.31652,-0.139526 0.12015,-0.140818 0.12015,-0.373362 l 0,-0.05297 -0.23642,0 z m 0.47413,-0.09818 0,0.825531 -0.23771,0 0,-0.219625 q -0.0814,0.131775 -0.20283,0.195079 -0.12144,0.06201 -0.29714,0.06201 -0.22221,0 -0.35398,-0.124024 -0.13049,-0.125315 -0.13049,-0.334605 0,-0.244171 0.16278,-0.368194 0.16408,-0.124024 0.48835,-0.124024 l 0.33331,0 0,-0.02325 q 0,-0.164073 -0.10852,-0.253215 -0.10723,-0.09043 -0.30231,-0.09043 -0.12402,0 -0.24158,0.02971 -0.11757,0.02971 -0.22609,0.08914 l 0,-0.219624 q 0.13048,-0.05038 0.25322,-0.07493 0.12273,-0.02584 0.239,-0.02584 0.31393,0 0.46896,0.162781 0.15503,0.162781 0.15503,0.49351 z"
         style="fill:#ff0000"
         id="path5315" />
      <path
         d="m 218.81121,-30.553508 0,0.410828 0.48964,0 0,0.184743 -0.48964,0 0,0.785482 q 0,0.176992 0.0478,0.227376 0.0491,0.05038 0.19767,0.05038 l 0.24417,0 0,0.198954 -0.24417,0 q -0.27518,0 -0.37983,-0.102061 -0.10464,-0.103353 -0.10464,-0.374654 l 0,-0.785482 -0.17441,0 0,-0.184743 0.17441,0 0,-0.410828 0.239,0 z"
         style="fill:#ff0000"
         id="path5317" />
      <path
         d="m 220.85243,-29.478638 0,0.116272 -1.09295,0 q 0.0155,0.245463 0.14727,0.374654 0.13307,0.1279 0.36949,0.1279 0.13694,0 0.26484,-0.03359 0.12919,-0.03359 0.2558,-0.100769 l 0,0.224792 q -0.1279,0.05426 -0.26226,0.08268 -0.13436,0.02842 -0.27259,0.02842 -0.34623,0 -0.54906,-0.201538 -0.20154,-0.201539 -0.20154,-0.545187 0,-0.355275 0.1912,-0.563273 0.1925,-0.20929 0.51806,-0.20929 0.29197,0 0.46121,0.188619 0.17053,0.187328 0.17053,0.510305 z m -0.23771,-0.06976 q -0.003,-0.195078 -0.10981,-0.31135 -0.10594,-0.116272 -0.28164,-0.116272 -0.19895,0 -0.3191,0.112396 -0.11886,0.112396 -0.13694,0.316518 l 0.84749,-0.0013 z"
         style="fill:#ff0000"
         id="path5319" />
    </g>
    <g
       transform="matrix(0,1,-1,0,0,0)"
       style="font-size:2.64583349px;text-align:center;text-anchor:middle;fill:#00ff00;fill-opacity:1;stroke:none;stroke-width:0.99921262;stroke-miterlimit:4;stroke-dasharray:none;stroke-opacity:1"
       id="text4346">
      <path
         d="m 215.57886,-23.730109 0,0.410828 0.48963,0 0,0.184743 -0.48963,0 0,0.785482 q 0,0.176992 0.0478,0.227376 0.0491,0.05039 0.19766,0.05039 l 0.24417,0 0,0.198954 -0.24417,0 q -0.27518,0 -0.37982,-0.102061 -0.10465,-0.103353 -0.10465,-0.374654 l 0,-0.785482 -0.1744,0 0,-0.184743 0.1744,0 0,-0.410828 0.23901,0 z"
         style=""
         id="path5322" />
      <path
         d="m 217.22088,-23.097073 q -0.0401,-0.02325 -0.0879,-0.03359 -0.0465,-0.01163 -0.10336,-0.01163 -0.20153,0 -0.31006,0.131775 -0.10722,0.130483 -0.10722,0.375946 l 0,0.762228 -0.23901,0 0,-1.44694 0.23901,0 0,0.224792 q 0.0749,-0.131775 0.19507,-0.195078 0.12015,-0.0646 0.29198,-0.0646 0.0245,0 0.0543,0.0039 0.0297,0.0026 0.0659,0.009 l 0.001,0.244171 z"
         style=""
         id="path5324" />
      <path
         d="m 217.4728,-23.319281 0.23771,0 0,1.44694 -0.23771,0 0,-1.44694 z m 0,-0.563273 0.23771,0 0,0.301015 -0.23771,0 0,-0.301015 z"
         style=""
         id="path5326" />
      <path
         d="m 219.15874,-22.612606 q 0,-0.258382 -0.10723,-0.400492 -0.10593,-0.142111 -0.29843,-0.142111 -0.1912,0 -0.29843,0.142111 -0.10594,0.14211 -0.10594,0.400492 0,0.25709 0.10594,0.3992 0.10723,0.142111 0.29843,0.142111 0.1925,0 0.29843,-0.142111 0.10723,-0.14211 0.10723,-0.3992 z m 0.23771,0.560689 q 0,0.369487 -0.16407,0.549062 -0.16407,0.180868 -0.50255,0.180868 -0.12532,0 -0.23642,-0.01938 -0.11111,-0.01809 -0.21575,-0.05684 l 0,-0.231252 q 0.10464,0.05684 0.2067,0.08397 0.10207,0.02713 0.208,0.02713 0.23384,0 0.35011,-0.122731 0.11627,-0.12144 0.11627,-0.368195 l 0,-0.117564 q -0.0736,0.1279 -0.18862,0.191203 -0.11498,0.0633 -0.27517,0.0633 -0.26614,0 -0.42892,-0.20283 -0.16278,-0.20283 -0.16278,-0.537435 0,-0.335897 0.16278,-0.538727 0.16278,-0.20283 0.42892,-0.20283 0.16019,0 0.27517,0.0633 0.11498,0.0633 0.18862,0.191203 l 0,-0.219625 0.23771,0 0,1.267364 z"
         style=""
         id="path5328" />
    </g>
    <g
       transform="matrix(0,1,-1,0,0,0)"
       style="font-size:2.64583349px;text-align:center;text-anchor:middle;fill:#ffff00;fill-opacity:1;stroke:none;stroke-width:0.99921262;stroke-miterlimit:4;stroke-dasharray:none;stroke-opacity:1"
       id="text4350">
      <path
         d="m 216.31007,-26.468226 0,0.222209 q -0.10077,-0.05555 -0.20283,-0.08268 -0.10077,-0.02842 -0.20412,-0.02842 -0.23126,0 -0.35915,0.147278 -0.1279,0.145986 -0.1279,0.410827 0,0.264842 0.1279,0.41212 0.12789,0.145986 0.35915,0.145986 0.10335,0 0.20412,-0.02713 0.10206,-0.02842 0.20283,-0.08398 l 0,0.219625 q -0.0995,0.04651 -0.20671,0.06976 -0.10593,0.02325 -0.22608,0.02325 -0.32685,0 -0.51935,-0.205414 -0.19249,-0.205414 -0.19249,-0.55423 0,-0.353983 0.19378,-0.556813 0.19508,-0.20283 0.53356,-0.20283 0.10981,0 0.21446,0.02325 0.10464,0.02196 0.20283,0.06718 z"
         style=""
         id="path5331" />
      <path
         d="m 217.32293,-24.942479 q -0.10077,0.258382 -0.19637,0.337189 -0.0956,0.07881 -0.2558,0.07881 l -0.18991,0 0,-0.198954 0.13952,0 q 0.0982,0 0.15245,-0.04651 0.0543,-0.04651 0.12015,-0.219624 l 0.0426,-0.108521 -0.58524,-1.423686 0.25193,0 0.45217,1.131714 0.45216,-1.131714 0.25193,0 -0.63562,1.581299 z"
         style=""
         id="path5333" />
      <path
         d="m 219.32797,-26.468226 0,0.222209 q -0.10077,-0.05555 -0.20283,-0.08268 -0.10077,-0.02842 -0.20412,-0.02842 -0.23125,0 -0.35915,0.147278 -0.1279,0.145986 -0.1279,0.410827 0,0.264842 0.1279,0.41212 0.1279,0.145986 0.35915,0.145986 0.10335,0 0.20412,-0.02713 0.10206,-0.02842 0.20283,-0.08398 l 0,0.219625 q -0.0995,0.04651 -0.2067,0.06976 -0.10594,0.02325 -0.22609,0.02325 -0.32685,0 -0.51935,-0.205414 -0.19249,-0.205414 -0.19249,-0.55423 0,-0.353983 0.19379,-0.556813 0.19507,-0.20283 0.53356,-0.20283 0.10981,0 0.21445,0.02325 0.10465,0.02196 0.20283,0.06718 z"
         style=""
         id="path5335" />
      <path
         d="m 219.7388,-27.087051 0.23771,0 0,2.010213 -0.23771,0 0,-2.010213 z"
         style=""
         id="path5337" />
      <path
         d="m 221.71026,-25.859736 0,0.116272 -1.09296,0 q 0.0155,0.245464 0.14728,0.374655 0.13306,0.127899 0.36948,0.127899 0.13695,0 0.26485,-0.03359 0.12919,-0.03359 0.25579,-0.100769 l 0,0.224793 q -0.1279,0.05426 -0.26225,0.08268 -0.13436,0.02842 -0.2726,0.02842 -0.34623,0 -0.54906,-0.201538 -0.20154,-0.201538 -0.20154,-0.545187 0,-0.355275 0.19121,-0.563273 0.19249,-0.209289 0.51805,-0.209289 0.29197,0 0.46121,0.188619 0.17054,0.187327 0.17054,0.510304 z m -0.23772,-0.06976 q -0.003,-0.195078 -0.10981,-0.31135 -0.10593,-0.116272 -0.28163,-0.116272 -0.19896,0 -0.31911,0.112396 -0.11885,0.112396 -0.13694,0.316518 l 0.84749,-0.0013 z"
         style=""
         id="path5339" />
    </g>
    <g
       style="font-size:2.64583349px;text-align:center;text-anchor:middle;fill:#00ff00;fill-opacity:1;stroke:none;stroke-width:0.99921262;stroke-miterlimit:4;stroke-dasharray:none;stroke-opacity:1"
       id="text4354" />
    <g
       style="font-size:4.63020849px;text-align:center;text-anchor:middle;fill:#ffffff;fill-opacity:1;stroke:none;stroke-width:1.41732287;stroke-miterlimit:4;stroke-dasharray:none;stroke-opacity:1"
       id="text5308">
      <path
         d="m 1.5323028,197.96005 0,2.62484 0.5516459,0 q 0.6986008,0 1.0219015,-0.31652 0.3255615,-0.31652 0.3255615,-0.99929 0,-0.67825 -0.3255615,-0.99251 -0.3233007,-0.31652 -1.0219015,-0.31652 l -0.5516459,0 z m -0.4566905,-0.3753 0.9382503,0 q 0.9812062,0 1.4401576,0.40921 0.4589513,0.40695 0.4589513,1.27512 0,0.87268 -0.4612122,1.2819 -0.4612121,0.40921 -1.4378967,0.40921 l -0.9382503,0 0,-3.37544 z"
         style=""
         id="path5343" />
      <path
         d="m 5.6018219,198.71969 q -0.3346049,0 -0.5290375,0.26226 -0.1944326,0.26 -0.1944326,0.71443 0,0.45443 0.1921718,0.71669 0.1944326,0.25999 0.5312983,0.25999 0.3323441,0 0.5267767,-0.26226 0.1944326,-0.26225 0.1944326,-0.71442 0,-0.44991 -0.1944326,-0.71217 -0.1944326,-0.26452 -0.5267767,-0.26452 z m 0,-0.35269 q 0.5426026,0 0.8523382,0.35269 0.3097356,0.3527 0.3097356,0.97669 0,0.62173 -0.3097356,0.97668 -0.3097356,0.35269 -0.8523382,0.35269 -0.5448634,0 -0.854599,-0.35269 -0.3074748,-0.35495 -0.3074748,-0.97668 0,-0.62399 0.3074748,-0.97669 0.3097356,-0.35269 0.854599,-0.35269 z"
         style=""
         id="path5345" />
      <path
         d="m 9.0654349,198.50265 0,0.39339 q -0.1763458,-0.0904 -0.3662567,-0.13565 -0.1899109,-0.0452 -0.3933869,-0.0452 -0.3097356,0 -0.4657338,0.095 -0.1537374,0.095 -0.1537374,0.28486 0,0.1447 0.1107813,0.22835 0.1107814,0.0814 0.4453863,0.156 l 0.1424332,0.0316 q 0.4431254,0.095 0.6285146,0.26904 0.18765,0.17182 0.18765,0.48156 0,0.35269 -0.2803446,0.55843 -0.2780838,0.20573 -0.7664261,0.20573 -0.203476,0 -0.4250387,-0.0407 -0.2193019,-0.0384 -0.463473,-0.11756 l 0,-0.42957 q 0.2306061,0.11983 0.4544296,0.18087 0.2238236,0.0588 0.4431254,0.0588 0.2939098,0 0.4521688,-0.0995 0.1582591,-0.10174 0.1582591,-0.28487 0,-0.16956 -0.115303,-0.26 -0.1130422,-0.0904 -0.4996465,-0.17408 l -0.1446941,-0.0339 q -0.3866043,-0.0814 -0.5584284,-0.2487 -0.1718242,-0.16956 -0.1718242,-0.46347 0,-0.35721 0.2532146,-0.55165 0.2532145,-0.19443 0.7189484,-0.19443 0.230606,0 0.434082,0.0339 0.203476,0.0339 0.3753001,0.10174 z"
         style=""
         id="path5347" />
      <path
         d="m 13.381386,197.69553 0,0.44539 q -0.259997,-0.12435 -0.490603,-0.18539 -0.230606,-0.061 -0.445387,-0.061 -0.373039,0 -0.576515,0.14469 -0.201215,0.14469 -0.201215,0.41147 0,0.22383 0.13339,0.33913 0.13565,0.11304 0.510951,0.18313 l 0.275823,0.0565 q 0.51095,0.0972 0.752861,0.34365 0.244171,0.24417 0.244171,0.65564 0,0.49061 -0.330083,0.74382 -0.327823,0.25321 -0.96312,0.25321 -0.239649,0 -0.510951,-0.0543 -0.26904,-0.0543 -0.558428,-0.16052 l 0,-0.47025 q 0.278084,0.156 0.544863,0.23513 0.26678,0.0791 0.524516,0.0791 0.391126,0 0.603645,-0.15374 0.21252,-0.15374 0.21252,-0.43861 0,-0.24869 -0.153738,-0.38886 -0.151476,-0.14017 -0.499646,-0.21026 l -0.278084,-0.0543 q -0.510951,-0.10174 -0.739296,-0.31878 -0.228345,-0.21704 -0.228345,-0.60364 0,-0.44765 0.314257,-0.70539 0.316518,-0.25773 0.870425,-0.25773 0.237389,0 0.483821,0.043 0.246432,0.043 0.504168,0.12887 z"
         style=""
         id="path5349" />
      <path
         d="m 15.438754,199.68733 q -0.504168,0 -0.6986,0.11531 -0.194433,0.1153 -0.194433,0.39338 0,0.22157 0.144694,0.3527 0.146955,0.12886 0.397909,0.12886 0.345909,0 0.553906,-0.24417 0.210259,-0.24643 0.210259,-0.65338 l 0,-0.0927 -0.413735,0 z m 0.82973,-0.17182 0,1.44468 -0.415995,0 0,-0.38434 q -0.142433,0.2306 -0.354953,0.34138 -0.212519,0.10852 -0.519994,0.10852 -0.388865,0 -0.619471,-0.21704 -0.228345,-0.2193 -0.228345,-0.58556 0,-0.42729 0.284866,-0.64434 0.287127,-0.21704 0.854599,-0.21704 l 0.583298,0 0,-0.0407 q 0,-0.28713 -0.189911,-0.44313 -0.18765,-0.15826 -0.529038,-0.15826 -0.217041,0 -0.422777,0.052 -0.205737,0.052 -0.395648,0.156 l 0,-0.38434 q 0.228345,-0.0882 0.443125,-0.13113 0.21478,-0.0452 0.418256,-0.0452 0.549386,0 0.820687,0.28487 0.271301,0.28486 0.271301,0.86364 z"
         style=""
         id="path5351" />
      <path
         d="m 17.136648,197.44232 0.415995,0 0,3.51787 -0.415995,0 0,-3.51787 z"
         style=""
         id="path5353" />
      <path
         d="m 18.83228,197.7091 0,0.71894 0.85686,0 0,0.32331 -0.85686,0 0,1.37459 q 0,0.30973 0.08365,0.39791 0.08591,0.0882 0.345909,0.0882 l 0.427299,0 0,0.34817 -0.427299,0 q -0.48156,0 -0.664688,-0.17861 -0.183129,-0.18086 -0.183129,-0.65564 l 0,-1.37459 -0.305214,0 0,-0.32331 0.305214,0 0,-0.71894 0.418256,0 z"
         style=""
         id="path5355" />
      <path
         d="m 21.219732,198.71969 q -0.334605,0 -0.529038,0.26226 -0.194432,0.26 -0.194432,0.71443 0,0.45443 0.192171,0.71669 0.194433,0.25999 0.531299,0.25999 0.332344,0 0.526776,-0.26226 0.194433,-0.26225 0.194433,-0.71442 0,-0.44991 -0.194433,-0.71217 -0.194432,-0.26452 -0.526776,-0.26452 z m 0,-0.35269 q 0.542602,0 0.852338,0.35269 0.309735,0.3527 0.309735,0.97669 0,0.62173 -0.309735,0.97668 -0.309736,0.35269 -0.852338,0.35269 -0.544864,0 -0.854599,-0.35269 -0.307475,-0.35495 -0.307475,-0.97668 0,-0.62399 0.307475,-0.97669 0.309735,-0.35269 0.854599,-0.35269 z"
         style=""
         id="path5357" />
      <path
         d="m 24.683346,198.50265 0,0.39339 q -0.176346,-0.0904 -0.366257,-0.13565 -0.189911,-0.0452 -0.393387,-0.0452 -0.309735,0 -0.465734,0.095 -0.153737,0.095 -0.153737,0.28486 0,0.1447 0.110781,0.22835 0.110782,0.0814 0.445387,0.156 l 0.142433,0.0316 q 0.443125,0.095 0.628514,0.26904 0.18765,0.17182 0.18765,0.48156 0,0.35269 -0.280344,0.55843 -0.278084,0.20573 -0.766426,0.20573 -0.203476,0 -0.425039,-0.0407 -0.219302,-0.0384 -0.463473,-0.11756 l 0,-0.42957 q 0.230606,0.11983 0.45443,0.18087 0.223823,0.0588 0.443125,0.0588 0.29391,0 0.452169,-0.0995 0.158259,-0.10174 0.158259,-0.28487 0,-0.16956 -0.115303,-0.26 -0.113042,-0.0904 -0.499647,-0.17408 l -0.144694,-0.0339 q -0.386604,-0.0814 -0.558428,-0.2487 -0.171824,-0.16956 -0.171824,-0.46347 0,-0.35721 0.253214,-0.55165 0.253215,-0.19443 0.718949,-0.19443 0.230606,0 0.434082,0.0339 0.203476,0.0339 0.3753,0.10174 z"
         style=""
         id="path5359" />
    </g>
  </g>
  <g
     inkscape:groupmode="layer"
     id="layer3"
     inkscape:label="widgets"
     style="display:none">
    <rect
       style="display:inline;opacity:1;fill:#ff0200;fill-opacity:1;stroke:none;stroke-width:1;stroke-miterlimit:4;stroke-dasharray:none;stroke-opacity:1"
       id="rect5091"
       width="5.6426449"
       height="5.5571499"
       x="22.004379"
       y="51.120346" />
    <rect
       style="display:inline;opacity:1;fill:#00ff00;fill-opacity:1;stroke:none;stroke-width:1;stroke-miterlimit:4;stroke-dasharray:none;stroke-opacity:1"
       id="rect5093"
       width="5.2151713"
       height="5.2151713"
       x="22.084158"
       y="45.009415" />
    <rect
       style="display:inline;opacity:1;fill:#0000ff;fill-opacity:1;stroke:none;stroke-width:1;stroke-miterlimit:4;stroke-dasharray:none;stroke-opacity:1"
       id="rect4969"
       width="5.3861609"
       height="5.3861609"
       x="22.38339"
       y="83.223175" />
    <rect
       style="display:inline;opacity:1;fill:#00ff00;fill-opacity:1;stroke:none;stroke-width:1;stroke-miterlimit:4;stroke-dasharray:none;stroke-opacity:1"
       id="rect4975"
       width="5.3546834"
       height="5.5909305"
       x="2.3290534"
       y="75.108711" />
    <rect
       style="display:inline;opacity:1;fill:#00ff00;fill-opacity:1;stroke:none;stroke-width:1;stroke-miterlimit:4;stroke-dasharray:none;stroke-opacity:1"
       id="rect4979"
       width="5.5571499"
       height="5.5571499"
       x="2.4403408"
       y="44.95977" />
    <rect
       style="display:inline;opacity:1;fill:#00ff00;fill-opacity:1;stroke:none;stroke-width:1;stroke-miterlimit:4;stroke-dasharray:none;stroke-opacity:1"
       id="rect4981"
       width="5.7281394"
       height="5.7281394"
       x="11.818956"
       y="44.461246" />
    <rect
       style="display:inline;opacity:1;fill:#00ff00;fill-opacity:1;stroke:none;stroke-width:1;stroke-miterlimit:4;stroke-dasharray:none;stroke-opacity:1"
       id="rect4983"
       width="5.8136339"
       height="5.8136339"
       x="21.57119"
       y="27.209215" />
    <rect
       style="display:inline;opacity:1;fill:#00ff00;fill-opacity:1;stroke:none;stroke-width:1;stroke-miterlimit:4;stroke-dasharray:none;stroke-opacity:1"
       id="rect4989"
       width="5.5571499"
       height="5.5571499"
       x="12.466015"
       y="27.43049" />
    <rect
       style="display:inline;opacity:1;fill:#00ff00;fill-opacity:1;stroke:none;stroke-width:1;stroke-miterlimit:4;stroke-dasharray:none;stroke-opacity:1"
       id="rect4991"
       width="5.3006663"
       height="5.3006663"
       x="2.3290534"
       y="17.041332" />
    <rect
       style="display:inline;opacity:1;fill:#00ff00;fill-opacity:1;stroke:none;stroke-width:1;stroke-miterlimit:4;stroke-dasharray:none;stroke-opacity:1"
       id="rect5041"
       width="5.7281394"
       height="5.7281394"
       x="2.7565265"
       y="27.470434" />
    <rect
       style="display:inline;opacity:1;fill:#ff0000;fill-opacity:1;stroke:none;stroke-width:1;stroke-miterlimit:4;stroke-dasharray:none;stroke-opacity:1"
       id="rect5043"
       width="5.7281394"
       height="5.7281394"
       x="2.7565265"
       y="34.256905" />
    <rect
       style="display:inline;opacity:1;fill:#ff0000;fill-opacity:1;stroke:none;stroke-width:1;stroke-miterlimit:4;stroke-dasharray:none;stroke-opacity:1"
       id="rect5045"
       width="5.0441828"
       height="5.3861609"
       x="12.722499"
       y="34.045975" />
    <rect
       style="display:inline;opacity:1;fill:#ff0000;fill-opacity:1;stroke:none;stroke-width:1;stroke-miterlimit:4;stroke-dasharray:none;stroke-opacity:1"
       id="rect5047"
       width="5.3861609"
       height="5.3861609"
       x="21.784927"
       y="34.081181" />
    <rect
       style="display:inline;opacity:1;fill:#ff0000;fill-opacity:1;stroke:none;stroke-width:1;stroke-miterlimit:4;stroke-dasharray:none;stroke-opacity:1"
       id="rect5049"
       width="5.4716558"
       height="5.4716558"
       x="12.20437"
       y="51.205566" />
    <rect
       style="display:inline;opacity:1;fill:#ff0000;fill-opacity:1;stroke:none;stroke-width:1;stroke-miterlimit:4;stroke-dasharray:none;stroke-opacity:1"
       id="rect5053"
       width="5.3006663"
       height="5.4716558"
       x="12.046068"
       y="77.941887" />
    <rect
       style="display:inline;opacity:1;fill:#00ff00;fill-opacity:1;stroke:none;stroke-width:1;stroke-miterlimit:4;stroke-dasharray:none;stroke-opacity:1"
       id="rect4923"
       width="5.6426449"
       height="5.4586453"
       x="2.3290534"
       y="83.479645" />
    <rect
       style="display:inline;opacity:1;fill:#ff0000;fill-opacity:1;stroke:none;stroke-width:1;stroke-miterlimit:4;stroke-dasharray:none;stroke-opacity:1"
       id="rect4945"
       width="5.2151713"
       height="5.2151713"
       x="10.15766"
       y="17.126818" />
    <rect
       style="display:inline;opacity:1;fill:#0000ff;fill-opacity:1;stroke:none;stroke-width:1;stroke-miterlimit:4;stroke-dasharray:none;stroke-opacity:1"
       id="rect4947"
       width="5.6302543"
       height="5.4716554"
       x="22.38339"
       y="74.894981" />
    <rect
       style="display:inline;opacity:1;fill:#00ff00;fill-opacity:1;stroke:none;stroke-width:1;stroke-miterlimit:4;stroke-dasharray:none;stroke-opacity:1"
       id="rect5332"
       width="5.4716558"
       height="5.4716558"
       x="2.2228601"
       y="10.316954" />
  </g>
</svg>
