<svg xmlns="http://www.w3.org/2000/svg" xmlns:xlink="http://www.w3.org/1999/xlink" width="90" height="380" viewBox="0 0 23.813 100.542">
    <defs>
        <linearGradient id="b">
            <stop offset="0" stop-color="#fff"/>
            <stop offset="1" stop-opacity="0"/>
        </linearGradient>
        <linearGradient id="a">
            <stop offset="0" stop-color="#fdfdfd"/>
            <stop offset="1" stop-color="#fdfdfd"/>
        </linearGradient>
        <radialGradient gradientUnits="userSpaceOnUse" gradientTransform="matrix(.4218 0 0 .02673 -105.982 272.192)" r="69.827" fy="856.052" fx="285.494" cy="856.052" cx="285.494" id="d" xlink:href="#a"/>
        <linearGradient gradientUnits="userSpaceOnUse" y2="832.532" x2="279.915" y1="830.884" x1="268.967" id="h" xlink:href="#b" gradientTransform="matrix(.26458 0 0 .26458 -59.861 72.341)"/>
        <clipPath clipPathUnits="userSpaceOnUse" id="j">
            <path fill="#fff" stroke="gray" stroke-width="1.664" d="M176.059 41.761h115.198v45.223H176.059z"/>
        </clipPath>
        <clipPath clipPathUnits="userSpaceOnUse" id="i">
            <path fill="#fff" stroke="gray" stroke-width=".388" d="M4.03 289.485h23.689v11.965H4.03z"/>
        </clipPath>
        <clipPath clipPathUnits="userSpaceOnUse" id="g">
            <path fill="#fff" stroke="gray" stroke-width=".388" d="M4.03 289.485h23.689v11.965H4.03z"/>
        </clipPath>
        <clipPath clipPathUnits="userSpaceOnUse" id="f">
            <path fill="#fff" stroke="gray" stroke-width="1.627" d="M233.601-18.821h99.346v50.18h-99.346z"/>
        </clipPath>
        <clipPath clipPathUnits="userSpaceOnUse" id="e">
            <path fill="#fff" stroke="gray" stroke-width=".388" d="M4.03 289.485h23.689v11.965H4.03z"/>
        </clipPath>
        <clipPath clipPathUnits="userSpaceOnUse" id="c">
            <path fill="#fff" stroke="gray" stroke-width=".388" d="M4.03 289.485h23.689v11.965H4.03z"/>
        </clipPath>
    </defs>
    <g transform="translate(0 -196.458)">
        <path d="M0 196.458h23.813V297H0z" fill-rule="evenodd"/>
        <path d="M23.847 211.112v44.68c-13.772 2.616-16.351 1.726-23.863-.202 0-10.197-.077-30.124.103-38.45 12.254 2.94 18.324-9.768 23.76-6.028z" fill="#865f15"/>
        <rect width="6.749" height="14.568" x="16.255" y="274.775" rx=".806" ry=".874" fill="#404040"/>
        <flowRoot transform="matrix(.26458 0 0 .26458 -58.46 115.922)" style="line-height:125%" xml:space="preserve" font-style="normal" font-weight="400" font-size="10" font-family="sans-serif" letter-spacing="0" word-spacing="0" fill="#000" fill-opacity="1" stroke="none" stroke-width="1" stroke-linecap="butt" stroke-linejoin="miter" stroke-opacity="1">
            <flowRegion>
                <path d="M323.249 35.538h7.829v72.478h-7.829z"/>
            </flowRegion>
            <flowPara/>
        </flowRoot>
        <path clip-path="url(#c)" d="M31.483 294.933l-17.042-.125-14.418.125-.878-3.47c4.81-1.004 10.75-1.724 16.17-1.72 5.716.006 9.887.467 17.047 1.845z" fill="url(#d)" stroke="#8b8b8b" stroke-width=".397" transform="translate(-3.969)"/>
        <path clip-path="url(#e)" d="M0 291.993c10.904-1.21 21.546-.99 31.75.123l-.033 3.296H0z" transform="translate(-3.969)"/>
        <g clip-path="url(#f)" transform="matrix(.23845 0 0 .23845 -55.64 293.973)">
            <path d="M291.232-10.527l6.43-3.034 5.953-.742 4.222.511 5.886 2.16 4.683 4.37z" fill-rule="evenodd"/>
            <g stroke="#fff">
                <g color="#000" fill="none" stroke-linejoin="bevel">
                    <path d="M2.117 188.81l18.113 36.226 65.551 31.913 90.564 13.8 94.877-11.213 60.376-31.913 14.663-30.188-14.663-37.951.324 67.923-33.1-64.473-25.875 96.602-58.651-80.214-40.538 91.427-40.538-75.902-46.576 61.239-17.098-92.852-49.316 62.663 6.037-89.702 44.241 27.296 63.574 32.218 80-16.819 86.466-15.957 31.051-3.666-33.279-62.05 1.366 64.853-64.689-74.392-20.7 91.427-69.001-66.198-75.902 50.026L84.751 80.38l-59.346 55.816 24.151-56.064h34.501l81.077-37.088-18.975 69.864 89.702-24.15 62.101 7.762-66.314-54.334 4.212 46.571-70.726-45.713 66.414-1.725-53.476-15.525-12.938 16.388-49.164-6.9-66.414 44.85-33.333 49.417 9.183 6.647L2.118 188.81z" stroke-width="2.892" transform="matrix(.09825 0 0 .0698 286.195 -16.043)"/>
                    <path d="M133.17 195.51l12.99-80.876-61.407-35.517 32.081-44.697 28.463-4.313 32.776-5.175 41.401 6.9 12.938 10.35 47.438 20.7 18.975 34.501 30.188 30.188 2.803 31.913" stroke-width="2.892" transform="matrix(.09825 0 0 .0698 286.195 -16.043)"/>
                    <path d="M329.01 126.71l-49.16-63.83-59.77-31.05M1.926 188.186L16.11 129.84" stroke-width="2" transform="matrix(.09825 0 0 .0698 286.195 -16.043)"/>
                </g>
            </g>
            <path d="M320.187-2.25l-1.666-4.93" fill="none" stroke="#fff" stroke-width=".2"/>
        </g>
        <path clip-path="url(#i)" d="M2.826 292.087l3.149-1.34 1.329.417 1.108-.783 2.215.291.933-.35 3.024.98-1.042.478-9.503.292z" fill-rule="evenodd" transform="translate(-3.969)"/>
        <g clip-path="url(#j)" transform="matrix(.20564 0 0 .26458 -36.142 278.436)" style="line-height:125%" font-weight="400" font-size="7.5" font-family="Geneva" letter-spacing="0" word-spacing="0" fill="#fff">
            <path d="M186.153 66.995h.681v.015q0 .263.201.44.202.171.682.171.42 0 .68-.205.264-.205.264-.483 0-.377-.512-.535l-.348-.106-.23-.073-.473-.147q-.81-.296-.81-.985 0-.483.392-.85.392-.366 1.165-.366.761 0 1.084.315.322.311.322.692v.015h-.685v-.015q0-.205-.209-.322-.205-.117-.549-.117-.41 0-.63.172-.216.168-.216.417 0 .19.14.312.142.117.475.212l.33.092.238.07q.498.142.619.2.124.06.249.15.172.133.253.32.084.186.084.435 0 .579-.418.974-.413.396-1.212.396-.505 0-.838-.15-.334-.15-.531-.414-.198-.267-.198-.615v-.015zM199.465 68.189q-.802 0-1.37-.542-.564-.546-.564-1.619 0-1.07.564-1.611.568-.546 1.37-.546.798 0 1.362.546.568.542.568 1.611 0 1.073-.568 1.619-.564.542-1.362.542zm0-.568q.549 0 .882-.436.337-.439.337-1.157 0-.714-.337-1.15-.333-.44-.882-.44-.553 0-.89.44-.334.436-.334 1.15 0 .718.334 1.157.337.436.89.436zM212.4 63.985h.68v4.09h-.68v-.714q-.213.33-.418.495-.205.164-.421.249-.217.084-.473.084-.567 0-.963-.319-.396-.322-.396-1.292v-2.593h.682v2.307q0 .897.238 1.084.238.187.59.187.303 0 .57-.176.272-.18.429-.498.161-.322.161-.894v-2.01zM224.18 67.497v.571q-.498.12-.762.12-.38 0-.688-.153-.304-.154-.465-.447-.158-.293-.158-.934v-2.102h-.71v-.567h.71v-.967h.682v.967h1.193v.567h-1.193v1.908q0 .542.084.755.084.208.263.307.184.1.436.1.202 0 .608-.125zM233.2 68.075h-.681v-5.91h.68v2.527q.217-.334.418-.495.206-.161.425-.242.224-.084.495-.084.384 0 .688.158.308.157.476.465.169.304.169.978v2.603h-.682v-2.31q0-.55-.073-.777-.073-.23-.278-.359-.205-.132-.469-.132-.3 0-.571.176-.271.176-.436.49-.161.316-.161.902v2.01zM245.04 69.665h-.682v-5.68h.682v.71q.212-.362.402-.513.194-.15.436-.23.242-.08.498-.08.469 0 .857.256.388.252.6.758.217.505.217 1.135 0 .934-.45 1.553-.447.615-1.257.615-.26 0-.494-.077-.23-.073-.41-.22-.18-.15-.4-.53v2.303zm0-3.633q0 .696.3 1.142.3.447.846.447.498 0 .827-.395.33-.396.33-1.183 0-.92-.348-1.275-.348-.358-.795-.358-.322 0-.604.197-.278.194-.417.583-.14.384-.14.842zM258.176 68.189q-.802 0-1.37-.542-.564-.546-.564-1.619 0-1.07.564-1.611.568-.546 1.37-.546.798 0 1.362.546.567.542.567 1.611 0 1.073-.567 1.619-.564.542-1.362.542zm0-.568q.549 0 .882-.436.337-.439.337-1.157 0-.714-.337-1.15-.333-.44-.882-.44-.553 0-.89.44-.334.436-.334 1.15 0 .718.334 1.157.337.436.89.436zM269.177 68.075h-.682v-5.91h.682v5.91zM280.456 67.024h.681v.037q0 .27-.216.553-.216.282-.571.428-.356.147-.817.147-.934 0-1.443-.604-.505-.605-.505-1.528 0-.944.534-1.563.539-.623 1.385-.623.465 0 .842.202.377.201.597.63.22.424.22 1.186v.227h-2.904q0 .656.351 1.08.355.425.982.425.45 0 .655-.172.209-.176.209-.388v-.037zm-2.154-1.42h2.209v-.081q0-.286-.14-.553-.135-.271-.377-.4-.241-.131-.564-.131-.38 0-.703.307-.322.304-.425.857z" style="-inkscape-font-specification:Geneva"/>
        </g>
        <g font-size="1.984" fill="#fff" stroke-width="937.5">
            <path d="M5.896 234.522v.544h.247q.136 0 .21-.07.075-.072.075-.202t-.074-.201q-.075-.07-.211-.07h-.247zm-.195-.16h.442q.243 0 .367.11.125.11.125.321 0 .215-.125.324-.124.11-.367.11h-.247v.581h-.195v-1.447zM7.485 234.494q-.213 0-.339.159-.125.159-.125.433 0 .273.125.432.126.16.34.16.213 0 .337-.16.125-.159.125-.432 0-.274-.125-.433-.124-.159-.338-.159zm0-.159q.305 0 .487.205.182.203.182.546 0 .342-.182.547-.182.203-.487.203t-.488-.203q-.182-.204-.182-.547 0-.343.182-.546.183-.205.488-.205zM8.46 234.361h.196v1.282h.704v.165h-.9v-1.447zM9.103 234.361h.21l.401.595.398-.595h.21l-.511.758v.689h-.197v-.689l-.511-.758zM10.514 234.361h.264l.641 1.21v-1.21h.19v1.447h-.263l-.642-1.21v1.21h-.19v-1.447zM12.586 234.494q-.213 0-.34.159-.124.159-.124.433 0 .273.125.432.126.16.339.16.213 0 .337-.16.125-.159.125-.432 0-.274-.125-.433-.124-.159-.337-.159zm0-.159q.304 0 .486.205.183.203.183.546 0 .342-.183.547-.182.203-.486.203-.305 0-.488-.203-.183-.204-.183-.547 0-.343.183-.546.183-.205.488-.205zM13.56 234.361h.292l.37.985.37-.985h.292v1.447h-.19v-1.27l-.374.992h-.196l-.373-.992v1.27h-.19v-1.447zM15.27 234.361h.196v1.447h-.196v-1.447zM16.339 234.554l-.266.72h.532l-.266-.72zm-.11-.193h.221l.551 1.447h-.203l-.132-.371h-.652l-.132.371h-.206l.552-1.447zM17.212 234.361h.195v1.282h.705v.165h-.9v-1.447z"/>
        </g>
        <g font-size="1.984" fill="#fff" stroke-width=".3" stroke-miterlimit="10">
            <path d="M11.317 219.36h1.224v.164h-.514v1.282h-.197v-1.282h-.513v-.164zM13.42 220.128q.063.021.122.091.06.07.12.192l.2.395h-.211l-.185-.37q-.072-.146-.14-.194-.066-.047-.183-.047h-.213v.611h-.196v-1.446h.442q.248 0 .37.103.122.104.122.313 0 .137-.064.227-.062.09-.184.125zm-.49-.608v.514h.246q.142 0 .213-.065.073-.066.073-.193t-.073-.19q-.071-.065-.213-.065h-.246z"/>
            <path d="M14.518 219.552l-.265.72h.532l-.267-.72zm-.11-.192h.222l.55 1.446h-.203l-.131-.37h-.652l-.132.37h-.207l.553-1.446zM15.393 219.36h.264l.641 1.21v-1.21h.19v1.446h-.264l-.641-1.21v1.21h-.19v-1.446zM17.745 219.407v.191q-.112-.053-.21-.08-.1-.026-.191-.026-.16 0-.247.062t-.087.177q0 .096.057.145.059.048.22.078l.118.025q.219.041.322.147.105.105.105.281 0 .21-.142.319-.14.108-.412.108-.103 0-.22-.023-.115-.023-.239-.069v-.201q.12.067.234.1.114.034.225.034.167 0 .258-.066.092-.066.092-.188 0-.106-.066-.166-.065-.06-.215-.09l-.119-.024q-.219-.043-.317-.136-.097-.093-.097-.259 0-.192.134-.302.136-.11.373-.11.102 0 .208.018.105.018.216.055zM18.337 219.52v.544h.246q.136 0 .211-.07.075-.071.075-.202 0-.13-.075-.2-.075-.071-.211-.071h-.246zm-.196-.16h.442q.243 0 .367.11.125.11.125.322 0 .214-.125.323-.124.11-.367.11h-.246v.581h-.196v-1.446zM19.926 219.492q-.213 0-.34.16-.124.158-.124.432t.125.433q.126.158.339.158.213 0 .337-.158.125-.16.125-.433 0-.274-.125-.433-.124-.159-.337-.159zm0-.159q.304 0 .486.205.182.203.182.546 0 .342-.182.547-.182.203-.486.203-.305 0-.489-.203-.182-.204-.182-.547 0-.343.182-.546.184-.205.489-.205zM21.768 219.407v.191q-.112-.053-.21-.08-.1-.026-.191-.026-.16 0-.247.062t-.087.177q0 .096.057.145.059.048.22.078l.118.025q.219.041.322.147.105.105.105.281 0 .21-.142.319-.14.108-.412.108-.103 0-.22-.023-.115-.023-.239-.069v-.201q.12.067.234.1.114.034.225.034.167 0 .258-.066.092-.066.092-.188 0-.106-.066-.166-.065-.06-.215-.09l-.119-.024q-.219-.043-.317-.136-.097-.093-.097-.259 0-.192.134-.302.136-.11.373-.11.102 0 .208.018.105.018.216.055zM22.164 219.36h.915v.164h-.72v.429h.69v.164h-.69v.525h.737v.164h-.932v-1.446z"/>
        </g>
        <g font-size="1.984" fill="#fff">
            <path d="M4.441 282.879v-.389h-.32v-.16h.514v.62q-.114.08-.25.122-.137.041-.292.041-.339 0-.53-.198-.192-.198-.192-.552 0-.355.191-.552.192-.199.531-.199.142 0 .269.035.127.035.235.103v.208q-.109-.092-.23-.139-.123-.046-.257-.046-.266 0-.4.148-.132.148-.132.442 0 .293.132.44.134.15.4.15.103 0 .185-.018.081-.019.146-.056zM5.477 281.831l-.266.72h.532l-.266-.72zm-.11-.193h.221l.551 1.447h-.203l-.132-.371h-.652l-.132.37h-.206l.552-1.446zM6.35 281.638h.195v1.447H6.35v-1.447zM6.935 281.638h.264l.641 1.21v-1.21h.19v1.447h-.264l-.641-1.21v1.21h-.19v-1.447z"/>
        </g>
        <g font-size="1.984" fill="#fff" stroke-width="937.5">
            <path d="M.96 236.575h.832v.165h-.635v.426h.573v.165h-.573v.69H.96v-1.446zM2.1 236.575h.832v.165h-.636v.426h.574v.165h-.574v.69H2.1v-1.446zM3.006 236.575H4.23v.165h-.513v1.281H3.52v-1.281h-.514v-.165zM5.035 236.575h.197v.879q0 .232.084.335.085.102.274.102.188 0 .272-.102.084-.103.084-.335v-.88h.197v.904q0 .283-.14.427-.14.145-.413.145-.275 0-.415-.145-.14-.144-.14-.427v-.903zM6.707 236.736v.543h.246q.136 0 .211-.07.075-.071.075-.202 0-.13-.075-.2-.075-.071-.211-.071h-.246zm-.196-.161h.442q.243 0 .367.11.125.11.125.322 0 .214-.125.324-.124.11-.367.11h-.246v.58H6.51v-1.446zM7.904 236.736v1.125h.237q.3 0 .438-.136.14-.136.14-.428 0-.291-.14-.426-.139-.135-.438-.135h-.237zm-.195-.161h.402q.42 0 .617.175t.197.547q0 .374-.198.549-.198.175-.616.175h-.402v-1.446zM9.253 237.775h.205v.246h-.205v-.246zM10.808 236.575h.165l-.504 1.63h-.165l.504-1.63z"/>
        </g>
        <g font-size="1.984" fill="#fff" stroke-width="937.5">
            <path d="M1.974 254.008q-.213 0-.34.159-.124.159-.124.433 0 .273.125.432.126.159.339.159.213 0 .337-.159.125-.159.125-.432 0-.274-.125-.433-.124-.16-.337-.16zm.274 1.288l.258.282h-.237l-.214-.232-.05.003h-.031q-.305 0-.489-.203-.182-.204-.182-.546 0-.343.182-.547.184-.204.489-.204.304 0 .486.204t.182.547q0 .252-.101.431-.101.18-.293.265zM2.926 253.875h.197v.879q0 .232.084.335.085.102.273.102t.273-.102q.084-.103.084-.335v-.879h.197v.903q0 .283-.14.427-.14.145-.414.145-.274 0-.414-.145-.14-.144-.14-.427v-.903zM4.885 254.068l-.265.72h.532l-.267-.72zm-.11-.193h.222l.551 1.447h-.203l-.132-.371H4.56l-.132.37h-.206l.552-1.446zM5.758 253.875h.264l.641 1.21v-1.21h.19v1.447H6.59l-.642-1.21v1.21h-.19v-1.447zM7.042 253.875h1.224v.165h-.513v1.282h-.197v-1.282h-.514v-.165zM8.46 253.875h.196v1.447H8.46v-1.447zM8.962 253.875h1.136v.15l-.914 1.132h.937v.165H8.939v-.15l.915-1.132h-.892v-.165zM10.405 253.875h.915v.165h-.719v.428h.69v.165h-.69v.524h.737v.165h-.933v-1.447zM12.598 253.875h.165l-.504 1.63h-.165l.504-1.63zM13.787 254.036v.544h.246q.137 0 .211-.071.075-.07.075-.202 0-.13-.075-.2-.074-.071-.21-.071h-.247zm-.196-.16h.442q.243 0 .367.11.125.11.125.321 0 .214-.125.324-.124.11-.367.11h-.246v.58h-.196v-1.446zM15.146 254.068l-.265.72h.532l-.267-.72zm-.11-.193h.222l.551 1.447h-.203l-.132-.371h-.652l-.132.37h-.206l.552-1.446zM16.707 254.643q.063.022.122.092.06.07.12.191l.2.396h-.211l-.185-.371q-.072-.146-.14-.193-.066-.048-.183-.048h-.213v.612h-.196v-1.447h.442q.248 0 .37.104.122.103.122.313 0 .136-.064.226-.062.09-.184.125zm-.49-.607v.513h.246q.142 0 .213-.064.073-.066.073-.193t-.073-.191q-.071-.065-.213-.065h-.246zM17.06 253.875h1.223v.165h-.514v1.282h-.196v-1.282h-.514v-.165zM18.479 253.875h.195v1.447h-.195v-1.447zM19.547 254.068l-.265.72h.532l-.267-.72zm-.11-.193h.222l.551 1.447h-.203l-.132-.371h-.652l-.132.37h-.206l.552-1.446zM20.42 253.875h.196v1.282h.704v.165h-.9v-1.447zM22.392 253.923v.19q-.111-.053-.21-.079-.099-.026-.191-.026-.16 0-.247.062-.086.062-.086.176 0 .096.057.145.058.049.219.079l.118.024q.219.042.323.147.104.105.104.281 0 .21-.141.32-.14.108-.413.108-.103 0-.219-.024-.115-.023-.24-.068v-.202q.12.067.234.1.115.035.225.035.168 0 .259-.066.09-.066.09-.188 0-.107-.065-.167-.065-.06-.214-.09l-.12-.023q-.218-.044-.316-.137-.098-.093-.098-.259 0-.191.135-.302.135-.11.373-.11.101 0 .207.018.106.019.216.055z"/>
        </g>
        <g font-size="1.984" fill="#fff">
            <path d="M3.615 210.789h.831v.165H3.81v.426h.574v.165H3.81v.69h-.195v-1.446zM5.44 211.557q.063.022.122.091.06.07.12.192l.199.396h-.21l-.185-.371q-.072-.146-.14-.193-.067-.048-.183-.048H4.95v.612h-.196v-1.447h.442q.248 0 .37.104.122.103.122.313 0 .136-.064.226-.063.09-.184.125zm-.49-.607v.513h.246q.141 0 .213-.065.073-.065.073-.192t-.073-.191q-.072-.065-.213-.065H4.95zM6.134 210.789h.915v.165h-.72v.428h.69v.165h-.69v.524h.737v.165h-.932v-1.447zM7.386 210.789H8.3v.165h-.719v.428h.69v.165h-.69v.524h.737v.165h-.932v-1.447zM8.554 210.789h1.137v.15l-.915 1.132h.937v.165H8.532v-.15l.915-1.132h-.893v-.165zM9.998 210.789h.915v.165h-.72v.428h.69v.165h-.69v.524h.737v.165h-.932v-1.447z"/>
        </g>
        <g font-size="1.984" fill="#fff" stroke-width="937.5">
            <path d="M16.678 239.765v.53h.313q.158 0 .234-.065.077-.066.077-.2 0-.136-.077-.2-.076-.065-.234-.065h-.313zm0-.595v.436h.29q.143 0 .212-.054.071-.054.071-.164 0-.11-.07-.164-.07-.054-.214-.054h-.29zm-.196-.161h.5q.224 0 .345.093.12.093.12.264 0 .133-.061.212-.062.078-.182.098.144.03.224.13.08.097.08.244 0 .194-.132.3-.132.106-.375.106h-.52v-1.447zM17.842 239.009h.196v1.282h.704v.164h-.9v-1.446zM18.947 239.009h.914v.165h-.718v.428h.688v.165h-.688v.524h.736v.164h-.932v-1.446zM20.199 239.009h.263l.642 1.21v-1.21h.19v1.446h-.264l-.641-1.21v1.21h-.19v-1.446zM21.879 239.17v1.125h.236q.3 0 .438-.136.14-.136.14-.428 0-.29-.14-.426-.138-.135-.438-.135h-.236zm-.196-.161h.402q.42 0 .617.175t.197.547q0 .374-.198.55-.197.174-.616.174h-.402v-1.446z"/>
        </g>
        <path d="M7.157 276.678h.195v1.447h-.195v-1.447zM7.742 276.678h.264l.64 1.21v-1.21h.19v1.447h-.263l-.641-1.21v1.21h-.19v-1.447zM13.573 276.678h.196v1.282h.704v.165h-.9v-1.447zM7.413 286.946h.196v1.447h-.196v-1.447zM7.998 286.946h.264l.641 1.21v-1.21h.19v1.447H8.83l-.642-1.21v1.21h-.19v-1.447zM14.145 287.715q.063.021.123.09.06.07.12.193l.198.395h-.21l-.185-.371q-.072-.145-.14-.193-.066-.047-.183-.047h-.213v.61h-.196v-1.446h.442q.248 0 .37.104.123.104.123.313 0 .137-.064.227-.063.09-.185.125zm-.49-.608v.514h.246q.142 0 .213-.065.073-.066.073-.193t-.073-.19q-.071-.066-.213-.066h-.246z" fill="#fff"/>
        <g font-size="1.984" fill="#fff">
            <path d="M17.88 281.936q-.213 0-.339.159-.125.159-.125.433 0 .273.125.432.126.159.34.159.212 0 .337-.159.124-.159.124-.432 0-.274-.124-.433-.125-.16-.338-.16zm0-.159q.305 0 .487.204t.182.547q0 .342-.182.546-.182.204-.487.204t-.488-.204q-.182-.203-.182-.546t.182-.547q.183-.204.488-.204zM18.833 281.803h.196v.879q0 .233.085.335.084.102.273.102.188 0 .272-.102.085-.102.085-.335v-.879h.196v.903q0 .283-.14.428-.14.144-.413.144-.274 0-.415-.144-.14-.145-.14-.428v-.903zM20.108 281.803h1.224v.165h-.514v1.282h-.197v-1.282h-.513v-.165z"/>
        </g>
        <g font-size="1.984" fill="#fff" stroke-width=".3" stroke-miterlimit="10">
            <path d="M8.965 207.593v-.389h-.32v-.16h.514v.62q-.114.081-.25.123-.137.04-.292.04-.339 0-.53-.197-.192-.199-.192-.553 0-.354.191-.552.192-.198.531-.198.142 0 .268.034.128.035.236.103v.208q-.109-.092-.23-.138-.123-.047-.257-.047-.266 0-.4.149-.132.148-.132.441 0 .293.132.441.134.149.4.149.103 0 .185-.018.081-.018.146-.056zM9.517 206.353h.196v1.282h.704v.164h-.9v-1.446zM10.622 206.353h.196v1.446h-.196v-1.446zM11.006 206.353h1.224v.164h-.513v1.282h-.197v-1.282h-.514v-.164zM13.391 206.464v.207q-.099-.093-.211-.138-.112-.046-.238-.046-.248 0-.38.153-.131.15-.131.437 0 .286.132.438.131.152.38.152.125 0 .237-.046.112-.045.211-.137v.204q-.103.07-.218.105-.114.035-.242.035-.329 0-.518-.201-.189-.202-.189-.55 0-.348.19-.549.188-.201.517-.201.13 0 .244.035.115.033.216.102zM13.695 206.353h.196v.593h.711v-.593h.196v1.446h-.196v-.689h-.711v.69h-.196v-1.447z"/>
        </g>
        <g font-size="1.984" fill="#fff">
            <path d="M2.006 257.825v.19q-.111-.053-.21-.079-.099-.026-.19-.026-.16 0-.248.062-.086.062-.086.176 0 .096.057.146.058.048.219.078l.118.024q.22.042.323.148.105.104.105.28 0 .21-.142.32-.14.108-.413.108-.102 0-.219-.023-.115-.024-.239-.07v-.2q.12.066.234.1.114.034.224.034.168 0 .259-.066t.091-.188q0-.107-.066-.167-.065-.06-.214-.09l-.12-.023q-.218-.044-.316-.137-.098-.093-.098-.258 0-.192.135-.303.136-.11.373-.11.102 0 .207.018.106.019.216.056zM2.598 257.938v.544h.246q.137 0 .212-.071.074-.07.074-.202 0-.13-.074-.2-.075-.071-.212-.071h-.246zm-.195-.16h.441q.244 0 .368.11.125.109.125.321 0 .214-.125.324-.124.11-.368.11h-.246v.58h-.195v-1.446zM4.286 258.545q.063.022.122.092.06.07.12.191l.2.396h-.211l-.185-.371q-.072-.146-.14-.193-.067-.048-.183-.048h-.213v.612H3.6v-1.447h.442q.248 0 .37.104.122.103.122.313 0 .136-.064.226-.063.09-.184.125zm-.49-.607v.513h.246q.142 0 .213-.064.073-.066.073-.193t-.073-.191q-.071-.065-.213-.065h-.246zM4.98 257.777h.915v.165h-.72v.428h.69v.165h-.69v.524h.737v.165H4.98v-1.447zM6.715 257.97l-.265.72h.532l-.267-.72zm-.11-.193h.222l.551 1.447h-.203l-.132-.371H6.39l-.132.37h-.206l.552-1.446zM7.784 257.938v1.125h.237q.299 0 .437-.136.14-.135.14-.428 0-.29-.14-.425-.138-.136-.437-.136h-.237zm-.196-.16h.402q.421 0 .618.174.196.175.196.547 0 .374-.197.55-.198.175-.617.175h-.402v-1.447z"/>
        </g>
        <g font-size="1.984" fill="#fff">
            <path d="M6.71 272.544h.832v.165h-.636v.426h.574v.165h-.574v.69H6.71v-1.446zM7.85 272.544h.914v.165h-.718v.428h.688v.165h-.688v.524h.736v.164H7.85v-1.446zM9.102 272.544h.914v.165h-.719v.428h.69v.165h-.69v.524h.737v.164h-.932v-1.446zM10.55 272.705v1.125h.236q.3 0 .438-.136.14-.136.14-.428 0-.291-.14-.426-.139-.135-.438-.135h-.237zm-.196-.161h.402q.42 0 .617.175t.197.547q0 .374-.198.55-.198.174-.616.174h-.402v-1.446zM12.076 273.3v.53h.314q.158 0 .234-.065.076-.066.076-.2 0-.137-.076-.2-.076-.065-.234-.065h-.314zm0-.595v.436h.29q.143 0 .213-.054t.07-.164q0-.11-.07-.164-.07-.054-.213-.054h-.29zm-.195-.161h.5q.223 0 .344.093.122.093.122.264 0 .133-.062.212-.062.078-.183.097.145.031.224.13.08.098.08.245 0 .194-.131.3-.132.105-.375.105h-.52v-1.446zM13.724 272.737l-.265.72h.532l-.267-.72zm-.11-.193h.222l.551 1.446h-.203l-.132-.37H13.4l-.132.37h-.206l.552-1.446zM15.648 272.655v.207q-.099-.092-.211-.138-.112-.046-.238-.046-.248 0-.38.153-.131.15-.131.438 0 .285.131.438.132.15.38.15.126 0 .238-.045.112-.045.21-.137v.204q-.102.07-.217.105-.115.035-.242.035-.329 0-.518-.201-.189-.202-.189-.55 0-.348.19-.549.188-.201.517-.201.13 0 .244.035.115.033.216.102zM15.954 272.544h.196v.611l.649-.611h.252l-.718.674.77.772h-.259l-.694-.696v.696h-.196v-1.446z"/>
        </g>
        <g font-size="1.984" fill="#fff">
            <path d="M15.94 258.52q.062.02.121.09.06.07.12.192l.2.396h-.211l-.185-.372q-.072-.145-.14-.192-.067-.048-.183-.048h-.213v.612h-.196v-1.447h.442q.248 0 .37.104.122.103.122.313 0 .136-.064.226-.063.09-.184.125zm-.491-.608v.513h.246q.142 0 .213-.065.073-.065.073-.192t-.073-.191q-.071-.065-.213-.065h-.246zM16.633 257.75h.915v.166h-.72v.428h.69v.165h-.69v.524h.737v.165h-.932v-1.447zM18.258 259.198l-.552-1.447h.204l.458 1.218.46-1.218h.203l-.551 1.447h-.222zM19.241 257.75h.915v.166h-.719v.428h.689v.165h-.689v.524h.736v.165h-.932v-1.447zM21.18 258.52q.062.02.121.09.06.07.12.192l.2.396h-.211l-.185-.372q-.072-.145-.14-.192-.067-.048-.183-.048h-.213v.612h-.196v-1.447h.442q.248 0 .37.104.122.103.122.313 0 .136-.064.226-.063.09-.184.125zm-.491-.608v.513h.246q.142 0 .213-.065.073-.065.073-.192t-.073-.191q-.071-.065-.213-.065h-.246zM22.069 258.507v.53h.314q.158 0 .233-.065.077-.066.077-.2 0-.136-.077-.2-.075-.065-.233-.065h-.314zm0-.595v.436h.29q.143 0 .213-.053.07-.055.07-.165 0-.11-.07-.164-.07-.054-.214-.054h-.29zm-.196-.161h.5q.224 0 .345.093.121.093.121.264 0 .133-.062.212-.062.078-.182.098.144.03.224.13.08.097.08.245 0 .193-.132.299-.131.106-.375.106h-.519v-1.447z"/>
        </g>
        <g font-size="4.63" fill="#fff" stroke-width=".3" stroke-miterlimit="10">
            <path d="M1.058 197.224H3.03v.385H1.48v.999h1.485v.384H1.48v1.223h1.587v.385H1.058v-3.376zM5.23 198.142v.394q-.163-.09-.338-.136-.176-.045-.364-.045-.286 0-.43.095-.142.095-.142.285 0 .144.103.228.102.081.41.156l.132.032q.41.095.58.269.174.172.174.481 0 .353-.259.559-.256.205-.707.205-.188 0-.393-.04-.203-.039-.428-.118v-.43q.213.12.42.181.206.06.409.06.271 0 .417-.1.147-.102.147-.285 0-.17-.107-.26-.104-.09-.461-.174l-.134-.034q-.357-.081-.516-.249-.158-.17-.158-.463 0-.357.234-.552.233-.194.663-.194.213 0 .401.034.188.034.347.101zM6.34 200.22v1.343h-.386v-3.495h.387v.384q.12-.226.305-.335.185-.11.442-.11.426 0 .691.366.268.366.268.963t-.268.963q-.265.366-.69.366-.258 0-.443-.108-.184-.111-.305-.337zm1.308-.884q0-.459-.176-.719-.173-.262-.478-.262t-.48.262q-.173.26-.173.719 0 .459.173.721.175.26.48.26t.478-.26q.176-.262.176-.721zM10.684 199.23v.203H8.917q.025.43.238.656.215.224.597.224.222 0 .428-.06.21-.058.414-.175v.393q-.207.095-.424.145-.217.05-.44.05-.56 0-.888-.353-.326-.353-.326-.954 0-.622.31-.986.31-.366.837-.366.471 0 .745.33.276.327.276.893zm-.385-.122q-.004-.342-.177-.545-.171-.204-.455-.204-.322 0-.516.197-.192.197-.221.554l1.37-.002zM12.989 198.165v.389q-.163-.097-.328-.145-.163-.05-.33-.05-.374 0-.58.258-.207.256-.207.719 0 .463.206.721.207.256.58.256.168 0 .33-.048.166-.05.329-.147v.385q-.161.081-.335.122-.17.04-.365.04-.528 0-.84-.36-.31-.359-.31-.969 0-.62.313-.974.315-.355.862-.355.178 0 .347.04.169.039.328.118zM14.032 197.349v.719h.792v.323h-.792v1.375q0 .31.078.397.08.089.32.089h.394v.348h-.395q-.445 0-.614-.179-.169-.18-.169-.655v-1.375h-.282v-.323h.282v-.72h.386zM16.686 198.457q-.065-.041-.142-.06-.075-.02-.167-.02-.326 0-.5.231-.174.228-.174.658v1.334h-.386v-2.532h.386v.393q.12-.23.315-.341.194-.113.472-.113.04 0 .088.007.048.005.106.015l.002.428zM17.912 198.36q-.31 0-.489.262-.18.26-.18.714 0 .454.178.717.18.26.49.26.308 0 .487-.263.18-.262.18-.714 0-.45-.18-.712-.18-.265-.486-.265zm0-.353q.5 0 .787.352.286.353.286.977 0 .622-.286.977-.286.352-.787.352-.503 0-.79-.352-.283-.355-.283-.977 0-.624.284-.977.286-.352.789-.352z"/>
        </g>
        <g font-size="1.984" fill="#fff" stroke-width=".3" stroke-miterlimit="10">
            <path d="M1.83 202.3v.17q-.076-.04-.157-.059-.082-.02-.169-.02-.133 0-.2.042-.065.04-.065.122 0 .062.047.098.048.035.19.067l.062.013q.19.04.27.115.08.074.08.207 0 .151-.12.24-.12.087-.329.087-.087 0-.182-.017-.094-.017-.199-.05v-.185q.1.052.195.078.096.025.19.025.126 0 .194-.042.068-.044.068-.123 0-.072-.05-.111-.048-.039-.214-.075l-.062-.014q-.166-.035-.24-.107-.073-.072-.073-.198 0-.153.109-.237.108-.083.308-.083.099 0 .186.014.087.015.16.044zM2.345 203.191v.576h-.18v-1.498h.18v.165q.056-.097.142-.144.086-.047.205-.047.198 0 .32.157.125.157.125.412 0 .256-.124.413-.123.157-.321.157-.12 0-.205-.046-.086-.048-.142-.145zm.607-.379q0-.196-.082-.308-.08-.112-.222-.112-.141 0-.223.112-.08.112-.08.308 0 .197.08.31.082.11.223.11.142.001.222-.11.082-.113.082-.31zM4.36 202.767v.087h-.82q.012.184.111.281.1.096.277.096.103 0 .199-.025.097-.025.192-.076v.169q-.096.04-.197.062-.1.021-.204.021-.26 0-.412-.151-.151-.151-.151-.409 0-.266.143-.422.144-.157.389-.157.219 0 .346.141.127.14.127.383zm-.178-.052q-.002-.147-.082-.234-.08-.087-.211-.087-.15 0-.24.084-.089.084-.102.238l.635-.001zM5.43 202.31v.167q-.075-.042-.152-.062-.076-.021-.153-.021-.173 0-.27.11-.095.11-.095.308 0 .2.096.31.096.109.269.109.077 0 .153-.02.077-.022.152-.063v.164q-.074.035-.155.053-.08.017-.17.017-.245 0-.389-.154-.144-.154-.144-.416 0-.265.145-.417.146-.152.4-.152.083 0 .161.017.079.017.152.05zM5.915 201.96v.309h.367v.138h-.367v.59q0 .132.035.17.037.038.149.038h.183v.15h-.183q-.207 0-.285-.077-.079-.078-.079-.281v-.59h-.13v-.138h.13v-.308h.18zM7.146 202.436q-.03-.018-.066-.026-.035-.009-.077-.009-.151 0-.233.1-.08.097-.08.281v.572h-.18v-1.085h.18v.168q.056-.099.146-.146.09-.049.22-.049.017 0 .04.003.022.002.05.007v.184zM7.828 202.809q-.216 0-.3.049-.082.05-.082.169 0 .095.062.15.063.056.17.056.148 0 .237-.105.09-.105.09-.28v-.04h-.177zm.356-.074v.62h-.178v-.166q-.061.1-.153.147-.09.046-.222.046-.167 0-.266-.093-.098-.094-.098-.25 0-.184.122-.277.123-.093.367-.093h.25v-.017q0-.123-.082-.19-.08-.068-.227-.068-.093 0-.18.022-.089.023-.17.067v-.165q.098-.037.19-.056.092-.02.179-.02.235 0 .352.123.116.122.116.37zM8.556 201.846h.178v1.508h-.178v-1.508zM10.583 202.477q.067-.12.16-.177.093-.057.219-.057.17 0 .261.119.092.118.092.337v.655h-.179v-.65q0-.155-.055-.23-.055-.076-.169-.076-.138 0-.219.092-.08.092-.08.25v.614h-.18v-.65q0-.156-.054-.23-.056-.076-.171-.076-.137 0-.217.093-.08.092-.08.25v.613h-.18v-1.085h.18v.168q.06-.1.146-.147.085-.047.202-.047.119 0 .2.06.084.06.124.174zM12.161 202.809q-.216 0-.3.049-.082.05-.082.169 0 .095.062.15.063.056.17.056.148 0 .238-.105t.09-.28v-.04h-.178zm.356-.074v.62h-.178v-.166q-.061.1-.152.147-.092.046-.223.046-.167 0-.266-.093-.098-.094-.098-.25 0-.184.122-.277.123-.093.367-.093h.25v-.017q0-.123-.082-.19-.08-.068-.226-.068-.093 0-.182.022-.088.023-.17.067v-.165q.099-.037.19-.056.093-.02.18-.02.235 0 .352.123.116.122.116.37zM13.603 202.434v-.588h.178v1.508h-.178v-.163q-.056.097-.142.145-.086.046-.206.046-.196 0-.32-.157t-.124-.413q0-.255.124-.412.124-.157.32-.157.12 0 .206.047t.142.144zm-.607.378q0 .197.08.31.081.11.223.11.141.001.223-.11.081-.113.081-.31 0-.196-.081-.308-.082-.112-.223-.112-.142 0-.223.112-.08.112-.08.308zM15.05 202.7v.654h-.178v-.65q0-.153-.06-.23-.06-.076-.18-.076-.144 0-.228.092-.083.092-.083.25v.614h-.18v-1.085h.18v.169q.064-.098.15-.147.087-.048.2-.048.188 0 .284.116.096.115.096.34zM16.336 202.767v.087h-.82q.012.184.111.281.1.096.277.096.103 0 .199-.025.097-.025.192-.076v.169q-.096.04-.197.062-.1.021-.204.021-.26 0-.412-.151-.151-.151-.151-.409 0-.266.143-.422.144-.157.389-.157.219 0 .346.141.127.14.127.383zm-.178-.052q-.002-.147-.082-.234-.08-.087-.211-.087-.15 0-.24.084-.089.084-.102.238l.635-.001zM17.317 202.3v.17q-.076-.04-.157-.059-.081-.02-.169-.02-.132 0-.2.042-.065.04-.065.122 0 .062.047.098.048.035.191.067l.061.013q.19.04.27.115.08.074.08.207 0 .151-.12.24-.12.087-.328.087-.088 0-.183-.017-.094-.017-.198-.05v-.185q.099.052.195.078.095.025.19.025.125 0 .193-.042.068-.044.068-.123 0-.072-.05-.111-.048-.039-.214-.075l-.062-.014q-.165-.035-.239-.107-.073-.072-.073-.198 0-.153.108-.237.109-.083.308-.083.099 0 .186.014.087.015.161.044zM18.352 202.3v.17q-.076-.04-.157-.059-.082-.02-.169-.02-.132 0-.2.042-.065.04-.065.122 0 .062.047.098.048.035.191.067l.061.013q.19.04.27.115.08.074.08.207 0 .151-.12.24-.12.087-.329.087-.087 0-.182-.017-.094-.017-.198-.05v-.185q.098.052.194.078.096.025.19.025.126 0 .194-.042.068-.044.068-.123 0-.072-.05-.111-.048-.039-.214-.075l-.062-.014q-.165-.035-.239-.107-.074-.072-.074-.198 0-.153.109-.237.108-.083.308-.083.099 0 .186.014.087.015.16.044z"/>
        </g>
        <g font-size="1.984" fill="#fff" stroke-width="937.5">
            <path d="M1.205 220.286v.53h.314q.158 0 .234-.065.076-.066.076-.2 0-.136-.076-.2-.076-.065-.234-.065h-.314zm0-.595v.436h.29q.143 0 .213-.054t.07-.164q0-.11-.07-.164-.07-.054-.213-.054h-.29zm-.196-.161h.5q.224 0 .345.093.121.093.121.264 0 .133-.062.212-.062.078-.182.098.145.03.224.13.08.097.08.245 0 .193-.131.299-.132.106-.375.106h-.52v-1.447zM2.347 219.53h.197v.879q0 .232.084.335.085.102.274.102.188 0 .272-.102.084-.103.084-.335v-.88h.197v.904q0 .283-.14.427-.14.145-.413.145-.275 0-.415-.145-.14-.144-.14-.427v-.903zM3.823 219.53h.831v.165H4.02v.426h.573v.165H4.02v.69h-.196v-1.446zM4.963 219.53h.83v.165h-.635v.426h.574v.165h-.574v.69h-.195v-1.446zM6.102 219.53h.915v.165h-.72v.428h.69v.165h-.69v.524h.737v.165h-.932v-1.447zM8.04 220.298q.063.022.122.091.06.07.12.192l.199.396h-.21l-.186-.372q-.071-.145-.14-.192-.066-.048-.182-.048H7.55v.612h-.196v-1.447h.442q.248 0 .37.104.122.103.122.313 0 .136-.064.226-.063.09-.184.125zm-.49-.607v.513h.246q.141 0 .213-.065.073-.066.073-.192 0-.127-.073-.191-.072-.065-.213-.065H7.55z"/>
        </g>
        <g font-size="1.984" fill="#fff" stroke-width="937.5">
            <path d="M1.842 238.561h.292l.37.985.37-.985h.292v1.447h-.191v-1.27l-.373.992h-.197l-.373-.992v1.27h-.19v-1.447zM3.551 238.561h.915v.165h-.719v.428h.69v.165h-.69v.524h.737v.165H3.55v-1.447zM5.49 239.33q.062.02.121.09.06.07.12.192l.2.396H5.72l-.185-.371q-.072-.146-.14-.193-.066-.048-.183-.048H5v.612h-.196v-1.447h.442q.248 0 .37.104t.122.313q0 .136-.064.227-.063.09-.184.125zm-.49-.608v.514h.245q.142 0 .213-.065.073-.066.073-.193t-.073-.191q-.071-.065-.213-.065H5zM7.17 239.801v-.388h-.32v-.161h.513v.621q-.113.08-.25.122-.136.04-.291.04-.34 0-.531-.197-.191-.198-.191-.552 0-.355.19-.552.193-.199.532-.199.141 0 .268.035.128.035.235.103v.208q-.108-.092-.23-.139-.122-.046-.257-.046-.265 0-.4.148-.132.148-.132.442 0 .293.133.44.134.15.4.15.103 0 .184-.018.082-.019.146-.057zM7.722 238.561h.914v.165h-.718v.428h.688v.165h-.688v.524h.736v.165h-.932v-1.447z"/>
        </g>
    </g>
</svg>
