<svg xmlns="http://www.w3.org/2000/svg" xmlns:xlink="http://www.w3.org/1999/xlink" width="90" height="380" viewBox="0 0 23.813 100.542">
    <defs>
        <linearGradient id="b">
            <stop offset="0" stop-color="#fff"/>
            <stop offset="1" stop-opacity="0"/>
        </linearGradient>
        <linearGradient id="a">
            <stop offset="0" stop-color="#fdfdfd"/>
            <stop offset="1" stop-color="#fdfdfd"/>
        </linearGradient>
        <radialGradient gradientUnits="userSpaceOnUse" gradientTransform="matrix(.4218 0 0 .02673 -108.099 272.192)" r="69.827" fy="856.052" fx="285.494" cy="856.052" cx="285.494" id="d" xlink:href="#a"/>
        <linearGradient gradientUnits="userSpaceOnUse" y2="832.532" x2="279.915" y1="830.884" x1="268.967" id="e" xlink:href="#b" gradientTransform="matrix(.26458 0 0 .26458 -61.978 72.341)"/>
        <clipPath clipPathUnits="userSpaceOnUse" id="c">
            <path fill="#fff" stroke="#fff" stroke-width=".839" d="M.155 281.916h23.503v21.229H.155z"/>
        </clipPath>
    </defs>
    <g transform="translate(0 -196.458)">
        <path d="M0 196.458h23.813V297H0z" fill-rule="evenodd"/>
        <path d="M0 203.479s13.78.764 15.822-2.64c2.559-4.891 1.606-4.04 8.076-4.256l-.085 20.412H0z" fill="#545454"/>
        <path fill="#414141" d="M0 216.995h23.813v19.22H0z"/>
        <path fill="#3a3a3a" d="M0 236.215h23.813v20.327H0z"/>
        <path d="M23.813 278.355c-11.83 0-4.1-7.402-11.743-7.492l-11.815-.14-.25-14.578 23.752-.114z" fill="#2c2c2c" fill-rule="evenodd"/>
        <flowRoot transform="matrix(.26458 0 0 .26458 -58.46 115.922)" style="line-height:125%" xml:space="preserve" font-style="normal" font-weight="400" font-size="10" font-family="sans-serif" letter-spacing="0" word-spacing="0" fill="#000" fill-opacity="1" stroke="none" stroke-width="1" stroke-linecap="butt" stroke-linejoin="miter" stroke-opacity="1">
            <flowRegion>
                <path d="M323.249 35.538h7.829v72.478h-7.829z"/>
            </flowRegion>
            <flowPara/>
        </flowRoot>
        <g clip-path="url(#c)">
            <path d="M29.367 294.933l-17.043-.125-14.417.125-.879-3.47c4.81-1.004 10.75-1.724 16.171-1.72 5.715.006 9.886.467 17.047 1.845z" fill="url(#d)" stroke="#8b8b8b" stroke-width=".397"/>
            <path d="M-2.117 291.993c10.905-1.21 21.546-.99 31.75.123l-.033 3.296H-2.117z"/>
            <path d="M15.656 291.463l1.533-.724 1.42-.177 1.006.122 1.404.515 1.116 1.042z" fill-rule="evenodd"/>
            <g stroke="#fff">
                <g color="#000" fill="none" stroke-linejoin="bevel">
                    <path d="M2.117 188.81l18.113 36.226 65.551 31.913 90.564 13.8 94.877-11.213 60.376-31.913 14.663-30.188-14.663-37.951.324 67.923-33.1-64.473-25.875 96.602-58.651-80.214-40.538 91.427-40.538-75.902-46.576 61.239-17.098-92.852-49.316 62.663 6.037-89.702 44.241 27.296 63.574 32.218 80-16.819 86.466-15.957 31.051-3.666-33.279-62.05 1.366 64.853-64.689-74.392-20.7 91.427-69.001-66.198-75.902 50.026L84.751 80.38l-59.346 55.816 24.151-56.064h34.501l81.077-37.088-18.975 69.864 89.702-24.15 62.101 7.762-66.314-54.334 4.212 46.571-70.726-45.713 66.414-1.725-53.476-15.525-12.938 16.388-49.164-6.9-66.414 44.85-33.333 49.417 9.183 6.647L2.118 188.81z" stroke-width="2.892" transform="matrix(.02343 0 0 .01665 14.455 290.147)"/>
                    <path d="M133.17 195.51l12.99-80.876-61.407-35.517 32.081-44.697 28.463-4.313 32.776-5.175 41.401 6.9 12.938 10.35 47.438 20.7 18.975 34.501 30.188 30.188 2.803 31.913" stroke-width="2.892" transform="matrix(.02343 0 0 .01665 14.455 290.147)"/>
                    <path d="M329.01 126.71l-49.16-63.83-59.77-31.05M1.926 188.186L16.11 129.84" stroke-width="2" transform="matrix(.02343 0 0 .01665 14.455 290.147)"/>
                </g>
            </g>
            <path d="M22.56 293.436l-.397-1.175" fill="none" stroke="#fff" stroke-width=".04769"/>
            <path d="M.71 292.087l3.72-1.531.757.608 1.108-.783 2.216.291.932-.35 3.024.98-1.041.478-9.504.292z" fill-rule="evenodd"/>
            <g style="line-height:125%" font-weight="400" font-size="7.5" font-family="Geneva" letter-spacing="0" word-spacing="0" fill="#fff">
                <path d="M1.636 296.161h.147v.004q0 .07.044.116.043.046.147.046.091 0 .147-.054.057-.055.057-.128 0-.1-.11-.142l-.076-.028-.05-.02-.102-.038q-.175-.078-.175-.26 0-.128.085-.225t.252-.097q.164 0 .234.083t.07.183v.004h-.148v-.004q0-.054-.046-.085-.044-.031-.118-.031-.089 0-.136.046-.047.044-.047.11 0 .05.03.082.03.031.103.057l.071.024.052.018q.107.038.133.053.027.016.054.04.037.035.055.085.018.049.018.115 0 .153-.09.258-.09.104-.262.104-.11 0-.182-.04t-.114-.109q-.043-.07-.043-.163v-.004zM4.514 296.477q-.174 0-.296-.143-.122-.145-.122-.428 0-.283.122-.427.122-.144.296-.144.172 0 .294.144.123.144.123.427 0 .283-.123.428-.122.143-.294.143zm0-.15q.119 0 .19-.115.073-.117.073-.306 0-.19-.072-.305-.072-.116-.191-.116-.12 0-.193.116-.072.116-.072.305 0 .19.072.306.073.115.193.115zM7.31 295.365h.147v1.082H7.31v-.189q-.046.087-.09.131-.044.044-.091.066-.047.022-.102.022-.123 0-.208-.084-.086-.085-.086-.342v-.686h.147v.61q0 .238.052.287.051.05.127.05.066 0 .124-.047.058-.047.092-.132.035-.085.035-.236v-.532zM9.857 296.294v.151q-.107.032-.164.032-.083 0-.15-.04-.065-.041-.1-.119-.034-.077-.034-.247v-.556h-.153v-.15h.153v-.256h.147v.256h.258v.15h-.258v.505q0 .143.019.2.018.055.057.08.04.027.094.027.043 0 .131-.033zM11.807 296.447h-.147v-1.564h.147v.669q.047-.088.09-.13.045-.044.092-.065.049-.022.107-.022.083 0 .15.041.066.042.102.124.036.08.036.258v.69h-.147v-.612q0-.146-.016-.206-.015-.06-.06-.095-.044-.034-.101-.034-.065 0-.124.046-.058.047-.094.13-.035.083-.035.238v.532zM14.367 296.868h-.147v-1.503h.147v.188q.046-.096.087-.136.042-.04.094-.06.053-.022.108-.022.101 0 .185.068.084.067.13.2.047.134.047.3 0 .248-.098.411-.096.163-.271.163-.056 0-.107-.02-.05-.02-.089-.058-.039-.04-.086-.14v.609zm0-.962q0 .185.065.303t.183.118q.107 0 .179-.105.071-.104.071-.313 0-.243-.075-.337-.075-.095-.172-.095-.07 0-.13.053-.06.05-.09.154-.031.101-.031.222zM17.207 296.477q-.173 0-.296-.143-.122-.145-.122-.428 0-.283.122-.427.123-.144.296-.144t.294.144q.123.144.123.427 0 .283-.123.428-.121.143-.294.143zm0-.15q.119 0 .19-.115.074-.117.074-.306 0-.19-.073-.305-.072-.116-.191-.116-.12 0-.192.116-.073.116-.073.305 0 .19.073.306.072.115.192.115zM19.585 296.447h-.147v-1.564h.147v1.564zM22.024 296.17h.147v.009q0 .071-.047.146-.046.075-.123.113-.077.04-.177.04-.202 0-.312-.16-.109-.16-.109-.405 0-.25.116-.413.116-.165.299-.165.1 0 .182.053.082.053.13.167.047.112.047.314v.06h-.628q0 .173.076.286.077.112.212.112.097 0 .142-.046.045-.046.045-.102v-.01zm-.466-.377h.478v-.021q0-.076-.03-.146-.03-.072-.082-.106-.052-.035-.122-.035-.082 0-.152.081-.07.08-.092.227z" style="-inkscape-font-specification:Geneva"/>
            </g>
        </g>
        <text x="2.475" y="204.373" font-size="2.646" fill="#fff" stroke="#fff" stroke-width=".265" stroke-dasharray=".26458334,.26458334"/>
        <g font-size="1.984" fill="#fff" stroke-width=".2">
            <path d="M.984 201.17h.914v.165H1.18v.428h.69v.165h-.69v.524h.737v.165H.984v-1.447zM2.823 201.303q-.214 0-.34.16-.124.158-.124.432 0 .273.125.432.125.16.339.16.213 0 .337-.16.125-.159.125-.432 0-.274-.125-.433-.124-.159-.337-.159zm.274 1.288l.258.282h-.237l-.214-.232-.05.003-.031.001q-.306 0-.489-.203-.182-.205-.182-.547 0-.343.182-.546.183-.205.489-.205.304 0 .486.205.182.203.182.546 0 .252-.102.431-.1.18-.292.265zM4.43 201.17h.83v.165h-.635v.426h.573v.165h-.573v.691h-.196v-1.447zM5.42 201.532h.178v1.085h-.179v-1.085zm0-.423h.178v.226h-.179v-.226zM5.972 201.11h.178v1.507h-.178v-1.508zM6.698 201.224v.308h.368v.138h-.368v.59q0 .132.036.17.037.038.148.038h.184v.149h-.184q-.206 0-.284-.076-.079-.078-.079-.281v-.59h-.13v-.138h.13v-.308h.18zM8.23 202.03v.087h-.82q.011.184.11.281.1.096.277.096.103 0 .199-.025.097-.025.192-.076v.169q-.096.04-.197.062-.1.021-.205.021-.26 0-.411-.151-.151-.151-.151-.409 0-.266.143-.422.144-.157.388-.157.22 0 .346.141.128.14.128.383zm-.179-.052q-.002-.147-.082-.234-.08-.087-.212-.087-.149 0-.239.084t-.103.238l.636-.001zM9.147 201.698q-.03-.017-.066-.025-.035-.009-.078-.009-.15 0-.232.1-.08.097-.08.281v.572h-.18v-1.086h.18v.17q.056-.1.146-.147.09-.049.219-.049.018 0 .04.003.023.002.05.007v.183z"/>
        </g>
        <g font-size="2.646" fill="#fff" stroke-width=".2">
            <path d="M8.28 205.583H9.39v.22h-.848v.568h.765v.22h-.765v.921h-.26v-1.929zM10.714 206.608q.084.028.163.121.08.093.16.256l.265.527h-.28l-.247-.495q-.095-.193-.186-.257-.089-.063-.244-.063h-.284v.815H9.8v-1.929h.589q.33 0 .493.139.163.138.163.417 0 .182-.085.302-.084.12-.246.167zm-.653-.81v.684h.328q.189 0 .284-.086.097-.088.097-.257 0-.17-.097-.255-.095-.086-.284-.086h-.328zM11.64 205.583h1.219v.22H11.9v.57h.919v.22H11.9v.7h.982v.22H11.64v-1.93zM14.092 205.76q-.285 0-.453.212-.166.212-.166.578 0 .364.166.576.168.212.453.212.284 0 .45-.212.166-.212.166-.576 0-.366-.167-.578-.165-.212-.45-.212zm.365 1.717l.344.376h-.315l-.286-.309-.066.004-.042.001q-.407 0-.652-.27-.242-.273-.242-.73 0-.457.242-.728.245-.273.652-.273.405 0 .648.273.243.271.243.728 0 .336-.136.575-.134.24-.39.353z"/>
        </g>
        <g font-size="2.646" fill="#fff" stroke-width=".2">
            <path d="M9.707 214.504v-.518H9.28v-.214h.685v.828q-.151.107-.333.163-.182.054-.389.054-.452 0-.708-.263-.254-.265-.254-.737 0-.473.254-.736.256-.265.708-.265.189 0 .358.047.17.046.314.136v.278q-.145-.123-.308-.185-.162-.062-.342-.062-.354 0-.532.198-.177.198-.177.59 0 .39.177.587.178.198.532.198.138 0 .247-.023.108-.025.195-.075zM11.088 213.108l-.354.96h.71l-.356-.96zm-.147-.257h.295l.736 1.929H11.7l-.175-.495h-.87l-.176.495h-.275l.737-1.93zM12.252 212.85h.26v1.93h-.26v-1.93zM13.032 212.85h.352l.855 1.614v-1.613h.253v1.929h-.351l-.856-1.614v1.614h-.253v-1.93z"/>
        </g>
        <g font-size="2.646" fill="#fff" stroke-width=".2">
            <path d="M8.28 220.291H9.39v.22h-.848v.568h.765v.22h-.765v.921h-.26v-1.929zM10.714 221.316q.084.028.163.121.08.093.16.256l.265.527h-.28l-.247-.495q-.095-.194-.186-.257-.089-.063-.244-.063h-.284v.815H9.8v-1.929h.589q.33 0 .493.138.163.139.163.418 0 .182-.085.302-.084.12-.246.167zm-.653-.81v.684h.328q.189 0 .284-.086.097-.088.097-.257 0-.17-.097-.255-.095-.086-.284-.086h-.328zM11.64 220.291h1.219v.22H11.9v.57h.919v.22H11.9v.7h.982v.219H11.64v-1.929zM14.092 220.468q-.285 0-.453.212-.166.212-.166.578 0 .364.166.576.168.212.453.212.284 0 .45-.212.166-.212.166-.576 0-.366-.167-.578-.165-.212-.45-.212zm.365 1.717l.344.376h-.315l-.286-.309-.066.004-.042.001q-.407 0-.652-.271-.242-.273-.242-.729 0-.457.242-.728.245-.273.652-.273.405 0 .648.273.243.271.243.728 0 .336-.136.575-.134.24-.39.353z"/>
        </g>
        <g font-size="2.646" fill="#fff" stroke-width=".2">
            <path d="M9.707 227.984v-.518H9.28v-.214h.685v.828q-.151.107-.333.163-.182.054-.389.054-.452 0-.708-.264-.254-.264-.254-.736 0-.473.254-.736.256-.265.708-.265.189 0 .358.046.17.047.314.137v.278q-.145-.123-.308-.185-.162-.062-.342-.062-.354 0-.532.198-.177.198-.177.589 0 .39.177.588.178.197.532.197.138 0 .247-.023.108-.024.195-.075zM11.088 226.588l-.354.96h.71l-.356-.96zm-.147-.257h.295l.736 1.928H11.7l-.175-.494h-.87l-.176.494h-.275l.737-1.928zM12.252 226.33h.26v1.93h-.26v-1.93zM13.032 226.33h.352l.855 1.614v-1.613h.253v1.928h-.351l-.856-1.613v1.613h-.253v-1.928z"/>
        </g>
        <g font-size="2.646" fill="#fff" stroke-width=".2">
            <path d="M8.28 238.615H9.39v.22h-.848v.568h.765v.22h-.765v.92h-.26v-1.928zM10.714 239.64q.084.028.163.12.08.094.16.256l.265.528h-.28l-.247-.495q-.095-.194-.186-.257-.089-.064-.244-.064h-.284v.816H9.8v-1.93h.589q.33 0 .493.139.163.138.163.417 0 .182-.085.303-.084.12-.246.166zm-.653-.81v.684h.328q.189 0 .284-.087.097-.088.097-.257t-.097-.254q-.095-.087-.284-.087h-.328zM11.64 238.615h1.219v.22H11.9v.57h.919v.22H11.9v.699h.982v.22H11.64v-1.93zM14.092 238.792q-.285 0-.453.212-.166.212-.166.577 0 .364.166.576.168.212.453.212.284 0 .45-.212.166-.212.166-.576 0-.365-.167-.577-.165-.212-.45-.212zm.365 1.717l.344.376h-.315l-.286-.31-.066.005h-.042q-.407 0-.652-.27-.242-.273-.242-.729 0-.457.242-.729.245-.272.652-.272.405 0 .648.272t.243.729q0 .336-.136.575-.134.239-.39.353z"/>
        </g>
        <g font-size="2.646" fill="#fff" stroke-width=".2">
            <path d="M9.707 246.86v-.518H9.28v-.214h.685v.828q-.151.107-.333.163-.182.054-.389.054-.452 0-.708-.263-.254-.265-.254-.737 0-.473.254-.736.256-.265.708-.265.189 0 .358.046.17.047.314.137v.278q-.145-.123-.308-.185-.162-.062-.342-.062-.354 0-.532.198-.177.198-.177.59 0 .39.177.587.178.198.532.198.138 0 .247-.024.108-.024.195-.074zM11.088 245.464l-.354.96h.71l-.356-.96zm-.147-.257h.295l.736 1.929H11.7l-.175-.495h-.87l-.176.495h-.275l.737-1.93zM12.252 245.207h.26v1.929h-.26v-1.93zM13.032 245.207h.352l.855 1.613v-1.613h.253v1.929h-.351l-.856-1.614v1.614h-.253v-1.93z"/>
        </g>
        <g font-size="2.646" fill="#fff" stroke-width=".2">
            <path d="M8.28 260.222H9.39v.22h-.848v.568h.765v.22h-.765v.92h-.26v-1.928zM10.714 261.246q.084.029.163.122.08.093.16.256l.265.527h-.28l-.247-.495q-.095-.194-.186-.257-.089-.063-.244-.063h-.284v.815H9.8v-1.93h.589q.33 0 .493.14.163.137.163.416 0 .183-.085.303-.084.12-.246.166zm-.653-.81v.685h.328q.189 0 .284-.086.097-.088.097-.258 0-.169-.097-.254-.095-.087-.284-.087h-.328zM11.64 260.222h1.219v.22H11.9v.57h.919v.22H11.9v.7h.982v.219H11.64v-1.93zM14.092 260.399q-.285 0-.453.212-.166.212-.166.577t.166.576q.168.212.453.212.284 0 .45-.212.166-.211.166-.576t-.167-.577q-.165-.212-.45-.212zm.365 1.717l.344.376h-.315l-.286-.309-.066.004-.042.001q-.407 0-.652-.271-.242-.273-.242-.729 0-.457.242-.729.245-.272.652-.272.405 0 .648.272t.243.73q0 .335-.136.574-.134.239-.39.353z"/>
        </g>
        <g font-size="2.646" fill="#fff" stroke-width=".2">
            <path d="M9.707 268.212v-.518H9.28v-.214h.685v.828q-.151.107-.333.163-.182.054-.389.054-.452 0-.708-.264-.254-.265-.254-.736 0-.473.254-.737.256-.264.708-.264.189 0 .358.046.17.047.314.137v.278q-.145-.123-.308-.185-.162-.062-.342-.062-.354 0-.532.198-.177.197-.177.589 0 .39.177.588.178.197.532.197.138 0 .247-.023.108-.024.195-.075zM11.088 266.816l-.354.96h.71l-.356-.96zm-.147-.258h.295l.736 1.93H11.7l-.175-.495h-.87l-.176.494h-.275l.737-1.929zM12.252 266.558h.26v1.93h-.26v-1.93zM13.032 266.558h.352l.855 1.614v-1.614h.253v1.93h-.351l-.856-1.614v1.613h-.253v-1.929z"/>
        </g>
        <path d="M14.62 231.342q-.284 0-.451.212-.167.212-.167.577 0 .364.167.576.167.212.452.212.284 0 .45-.212.166-.212.166-.576 0-.365-.167-.577-.165-.212-.45-.212zm.366 1.717l.344.376h-.315l-.286-.31-.066.005h-.042q-.407 0-.651-.27-.243-.273-.243-.729 0-.457.243-.729.244-.272.65-.272t.65.272q.242.272.242.729 0 .336-.136.575-.134.239-.39.353zM14.62 250.595q-.284 0-.451.212-.167.212-.167.578 0 .364.167.576.167.212.452.212.284 0 .45-.212.166-.212.166-.576 0-.366-.167-.578-.165-.212-.45-.212zm.366 1.717l.344.376h-.315l-.286-.309-.066.004-.042.001q-.407 0-.651-.271-.243-.273-.243-.729 0-.457.243-.728.244-.273.65-.273t.65.273q.242.271.242.728 0 .336-.136.575-.134.24-.39.353z" font-size="2.646" fill="#fff" stroke-width=".2"/>
        <g font-size="2.646" fill="#fff" stroke-width=".2">
            <path d="M8.47 272.735h1.108v.22H8.73v.568h.765v.22H8.73v.92h-.26v-1.928zM10.903 273.76q.084.028.163.12.08.094.16.256l.265.527h-.28l-.247-.494q-.096-.194-.186-.257-.09-.064-.244-.064h-.285v.815h-.26v-1.928h.589q.33 0 .493.138.163.138.163.417 0 .182-.085.302-.084.12-.246.167zm-.654-.81v.684h.329q.188 0 .284-.087.097-.088.097-.257t-.097-.254q-.096-.087-.284-.087h-.329zM11.828 272.735h1.22v.22h-.959v.57h.919v.22h-.919v.699h.982v.22h-1.243v-1.93zM14.28 272.912q-.284 0-.452.211-.167.212-.167.578 0 .364.167.576.168.212.452.212.284 0 .45-.212.166-.212.166-.576 0-.366-.166-.578-.166-.211-.45-.211zm.366 1.717l.343.376h-.315l-.285-.31-.066.005h-.043q-.407 0-.651-.27-.243-.273-.243-.73 0-.457.243-.728.244-.272.651-.272.406 0 .649.272.243.271.243.729 0 .336-.136.575-.134.239-.39.352z"/>
        </g>
        <g font-size="2.646" fill="#fff" stroke-width=".2">
            <path d="M9.895 279.648v-.518H9.47v-.214h.685v.828q-.151.107-.334.162-.182.055-.388.055-.453 0-.708-.264-.255-.265-.255-.736 0-.473.255-.737t.708-.264q.188 0 .357.046.171.047.314.137v.278q-.144-.123-.307-.185t-.342-.062q-.354 0-.533.198-.177.197-.177.589 0 .39.177.588.179.197.533.197.138 0 .246-.023.109-.024.195-.075zM11.276 278.252l-.354.96h.71l-.356-.96zm-.147-.258h.296l.735 1.93h-.271l-.176-.496h-.87l-.175.495h-.275l.736-1.929zM12.44 277.994h.261v1.93h-.26v-1.93zM13.22 277.994h.352l.855 1.614v-1.614h.254v1.93h-.352l-.855-1.614v1.613h-.253v-1.929z"/>
        </g>
        <g font-size="2.646" fill="#fff" stroke-width=".2">
            <path d="M8.28 286.991h.261v1.929h-.26v-1.929zM9.06 286.991h.352l.855 1.614v-1.614h.254v1.929h-.352l-.855-1.614v1.614h-.253v-1.929z"/>
        </g>
        <g font-size="2.646" fill="#fff" stroke-width=".2">
            <path d="M12.473 283.992q-.284 0-.452.212-.167.211-.167.577 0 .364.167.576.168.212.452.212.284 0 .45-.212.166-.212.166-.576 0-.366-.166-.577-.166-.212-.45-.212zm0-.212q.406 0 .649.272.242.272.242.73 0 .455-.242.728-.243.271-.649.271-.407 0-.651-.271-.243-.272-.243-.729 0-.457.243-.729.244-.272.651-.272zM13.743 283.815h.262v1.171q0 .31.113.447.112.136.364.136.25 0 .363-.136.112-.136.112-.447v-1.171h.263v1.204q0 .377-.188.57-.186.192-.55.192-.366 0-.553-.192-.186-.193-.186-.57v-1.204zM15.443 283.815h1.632v.22h-.685v1.709h-.262v-1.71h-.685v-.22z"/>
        </g>
        <text x="22.56" y="200.545" font-size="4.63" fill="#fff" stroke-width="2"/>
        <g font-size="4.63" fill="#fff" stroke-width="2">
            <path d="M.984 197.005H2.8v.328H1.372v.85h1.369v.327H1.372v1.042h1.463v.327H.984v-2.874zM3.805 197.111v.612h.73v.275h-.73v1.17q0 .264.071.34.074.074.295.074h.364v.297H4.17q-.41 0-.566-.152-.156-.154-.156-.558v-1.17h-.26v-.276h.26v-.612h.356zM5.982 198.795q-.43 0-.595.098-.165.099-.165.335 0 .189.123.3.125.11.339.11.294 0 .471-.208.18-.21.18-.556v-.079h-.353zm.706-.146v1.23h-.354v-.327q-.121.196-.302.29-.18.093-.443.093-.33 0-.527-.185-.194-.187-.194-.499 0-.363.242-.548.245-.185.728-.185h.496v-.035q0-.244-.161-.377-.16-.135-.45-.135-.186 0-.36.045-.176.044-.338.133v-.328q.195-.075.378-.111.182-.039.356-.039.467 0 .698.243.231.242.231.735zM8.846 198.776q0-.385-.16-.597-.158-.211-.444-.211-.285 0-.445.211-.158.212-.158.597 0 .383.158.595.16.211.445.211.286 0 .444-.211.16-.212.16-.595zm.354.835q0 .55-.244.818-.245.27-.75.27-.186 0-.351-.03-.166-.026-.322-.084v-.344q.156.084.308.125.152.04.31.04.348 0 .522-.183.173-.18.173-.548v-.175q-.11.19-.281.285-.171.094-.41.094-.397 0-.64-.302-.242-.302-.242-.801 0-.5.243-.803.242-.302.639-.302.239 0 .41.095.171.094.28.284v-.327H9.2v1.888zM11.773 198.712v.174h-1.628q.023.365.22.558.198.19.55.19.204 0 .394-.05.193-.05.382-.15v.335q-.191.08-.391.123t-.406.043q-.516 0-.818-.3-.3-.3-.3-.813 0-.53.284-.839.287-.312.772-.312.435 0 .687.281.254.28.254.76zm-.354-.103q-.004-.291-.163-.464-.158-.174-.42-.174-.296 0-.475.168-.177.167-.204.471l1.262-.001zm-.887-1.883l.543.72h-.295l-.627-.72h.379zM13.596 198.054q-.06-.034-.13-.05-.07-.017-.155-.017-.3 0-.462.196-.16.195-.16.56v1.136h-.356v-2.156h.356v.335q.112-.196.291-.29.18-.097.435-.097.037 0 .08.006.045.004.1.014l.001.363zM15.734 198.712v.174h-1.628q.023.365.22.558.198.19.55.19.204 0 .394-.05.193-.05.382-.15v.335q-.191.08-.391.123t-.406.043q-.516 0-.818-.3-.3-.3-.3-.813 0-.53.284-.839.287-.312.772-.312.435 0 .687.281.254.28.254.76zm-.354-.103q-.004-.291-.163-.464-.158-.174-.42-.174-.296 0-.475.168-.177.167-.204.471l1.262-.001z"/>
        </g>
        <path d="M8.307 225.582c4.363 0 3.023-2.113 4.37-2.129 1.347-.016.673 2.171 2.826 2.129" fill="none" stroke="#fff" stroke-width=".243"/>
        <g fill="none" stroke="#fff">
            <path d="M8.714 263.05c4.07 0 1.39 1.52 6.385 1.52" stroke-width=".223"/>
            <path d="M12.036 264.618c-1.092.639-.936 1.065-3.235 1.065" stroke-width=".265"/>
        </g>
        <g fill="none" stroke="#fff">
            <path d="M15.099 209.307c-4.071 0-1.39 1.52-6.385 1.52" stroke-width=".223"/>
            <path d="M11.776 210.875c1.093.639.936 1.065 3.235 1.065" stroke-width=".265"/>
        </g>
        <path d="M15.506 243.994c-4.363 0-3.024-2.112-4.37-2.128-1.347-.016-.673 2.171-2.827 2.128" fill="none" stroke="#fff" stroke-width=".243"/>
    </g>
</svg>
