<svg xmlns="http://www.w3.org/2000/svg" xmlns:xlink="http://www.w3.org/1999/xlink" width="60" height="380" viewBox="0 0 15.875 100.542">
    <defs>
        <linearGradient id="b">
            <stop offset="0" stop-color="#fff"/>
            <stop offset="1" stop-opacity="0"/>
        </linearGradient>
        <linearGradient id="a">
            <stop offset="0" stop-color="#fdfdfd"/>
            <stop offset="1" stop-color="#fdfdfd"/>
        </linearGradient>
        <radialGradient gradientUnits="userSpaceOnUse" gradientTransform="matrix(.4218 0 0 .02673 -117.37 272.324)" r="69.827" fy="856.052" fx="285.494" cy="856.052" cx="285.494" id="d" xlink:href="#a"/>
        <linearGradient gradientUnits="userSpaceOnUse" y2="832.532" x2="279.915" y1="830.884" x1="268.967" id="h" xlink:href="#b" gradientTransform="matrix(.26458 0 0 .26458 -75.483 72.473)"/>
        <clipPath clipPathUnits="userSpaceOnUse" id="j">
            <rect width="20.551" height="14.908" x="1.637" y="287.562" rx="0" ry="0" fill="#111bff" stroke-width=".3" stroke-miterlimit="10"/>
        </clipPath>
        <clipPath clipPathUnits="userSpaceOnUse" id="i">
            <rect width="15.866" height="14.908" x=".009" y="287.562" rx="0" ry="0" fill="#111bff" stroke-width=".3" stroke-miterlimit="10"/>
        </clipPath>
        <clipPath clipPathUnits="userSpaceOnUse" id="g">
            <rect width="15.866" height="14.908" x=".009" y="287.562" rx="0" ry="0" fill="#111bff" stroke-width=".3" stroke-miterlimit="10"/>
        </clipPath>
        <clipPath clipPathUnits="userSpaceOnUse" id="f">
            <rect width="66.538" height="62.519" x="282.25" y="-27.441" rx="0" ry="0" fill="#111bff" stroke-width=".3" stroke-miterlimit="10"/>
        </clipPath>
        <clipPath clipPathUnits="userSpaceOnUse" id="e">
            <rect width="15.866" height="14.908" x=".009" y="287.562" rx="0" ry="0" fill="#111bff" stroke-width=".3" stroke-miterlimit="10"/>
        </clipPath>
        <clipPath clipPathUnits="userSpaceOnUse" id="c">
            <rect width="15.866" height="14.908" x=".009" y="287.562" rx="0" ry="0" fill="#111bff" stroke-width=".3" stroke-miterlimit="10"/>
        </clipPath>
    </defs>
    <path d="M0 0h15.875v100.542H0z" fill-rule="evenodd"/>
    <path d="M20.095 295.066l-17.043-.125-14.417.125-.879-3.47c4.81-1.005 10.75-1.725 16.171-1.72 5.716.005 9.886.466 17.047 1.845z" clip-path="url(#c)" fill="url(#d)" stroke="#8b8b8b" stroke-width=".397" transform="translate(0 -196.458)"/>
    <path d="M-15.622 292.126c10.905-1.21 21.546-.99 31.75.122l-.033 3.297h-31.717z" clip-path="url(#e)" transform="translate(0 -196.458)"/>
    <g transform="matrix(.23845 0 0 .23845 -62.318 97.578)" clip-path="url(#f)">
        <path d="M291.232-10.527l6.43-3.034 5.953-.742 4.222.511 5.886 2.16 4.683 4.37z" fill-rule="evenodd"/>
        <g stroke="#fff">
            <g color="#000" fill="none" stroke-linejoin="bevel">
                <path d="M2.117 188.81l18.113 36.226 65.551 31.913 90.564 13.8 94.877-11.213 60.376-31.913 14.663-30.188-14.663-37.951.324 67.923-33.1-64.473-25.875 96.602-58.651-80.214-40.538 91.427-40.538-75.902-46.576 61.239-17.098-92.852-49.316 62.663 6.037-89.702 44.241 27.296 63.574 32.218 80-16.819 86.466-15.957 31.051-3.666-33.279-62.05 1.366 64.853-64.689-74.392-20.7 91.427-69.001-66.198-75.902 50.026L84.751 80.38l-59.346 55.816 24.151-56.064h34.501l81.077-37.088-18.975 69.864 89.702-24.15 62.101 7.762-66.314-54.334 4.212 46.571-70.726-45.713 66.414-1.725-53.476-15.525-12.938 16.388-49.164-6.9-66.414 44.85-33.333 49.417 9.183 6.647L2.118 188.81z" stroke-width="2.892" transform="matrix(.09825 0 0 .0698 286.195 -16.043)"/>
                <path d="M133.17 195.51l12.99-80.876-61.407-35.517 32.081-44.697 28.463-4.313 32.776-5.175 41.401 6.9 12.938 10.35 47.438 20.7 18.975 34.501 30.188 30.188 2.803 31.913" stroke-width="2.892" transform="matrix(.09825 0 0 .0698 286.195 -16.043)"/>
                <path d="M329.01 126.71l-49.16-63.83-59.77-31.05M1.926 188.186L16.11 129.84" stroke-width="2" transform="matrix(.09825 0 0 .0698 286.195 -16.043)"/>
            </g>
        </g>
        <path d="M320.187-2.25l-1.666-4.93" fill="none" stroke="#fff" stroke-width=".2"/>
    </g>
    <path d="M-12.795 292.22l3.148-1.342 1.33.418 1.107-.783 2.215.292.933-.35 3.024.98-1.041.477-9.504.292z" clip-path="url(#i)" fill-rule="evenodd" transform="translate(0 -196.458)"/>
    <g transform="matrix(.77203 0 0 1 -1.255 -196.458)" clip-path="url(#j)" font-size="1.984" fill="#fff" stroke-width=".2" stroke-miterlimit="10">
        <path d="M2.835 295.534v.169q-.075-.04-.157-.059-.081-.019-.168-.019-.133 0-.2.04-.066.041-.066.123 0 .062.048.098.047.035.19.067l.061.013q.19.041.27.116.08.073.08.206 0 .151-.12.24-.12.087-.328.087-.088 0-.183-.017-.094-.016-.198-.05v-.184q.099.051.195.077.096.025.19.025.125 0 .193-.042.068-.044.068-.122 0-.073-.05-.112-.048-.039-.213-.074l-.062-.015q-.166-.035-.24-.106-.073-.073-.073-.2 0-.152.108-.236.109-.083.308-.083.099 0 .186.015.087.014.161.043zM4.862 295.627q-.143 0-.227.112-.083.112-.083.307 0 .194.082.307.084.111.228.111.143 0 .226-.112.083-.113.083-.306t-.083-.306q-.083-.113-.226-.113zm0-.151q.233 0 .365.151.133.151.133.419 0 .266-.133.418-.132.151-.365.151-.233 0-.366-.15-.132-.153-.132-.42t.132-.418q.133-.151.366-.151zM6.9 296.159v-.657h.178v.65q0 .154.06.232.06.076.18.076.145 0 .228-.092.084-.092.084-.25v-.616h.179v1.085H7.63v-.166q-.065.098-.15.147-.086.047-.2.047-.186 0-.283-.116-.097-.116-.097-.34zM9.618 295.194v.308h.367v.139h-.367v.589q0 .132.035.17.037.038.149.038h.183v.15h-.183q-.207 0-.285-.077-.079-.078-.079-.281v-.59h-.13v-.138h.13v-.308h.18zM12.386 295.932v.655h-.178v-.649q0-.154-.06-.23-.06-.077-.18-.077-.145 0-.228.092-.084.092-.084.251v.613h-.179v-1.507h.18v.59q.063-.097.15-.146.087-.048.2-.048.187 0 .283.116.096.115.096.34zM14.18 296.424V297H14v-1.498h.18v.165q.056-.097.14-.144.087-.047.206-.047.198 0 .321.157.124.157.124.413 0 .255-.124.412-.123.157-.32.157-.12 0-.206-.046-.085-.048-.142-.145zm.606-.378q0-.197-.081-.309-.08-.112-.222-.112-.142 0-.223.112-.08.112-.08.309 0 .196.08.309.081.111.223.111.141 0 .222-.111.08-.113.08-.31zM16.95 295.627q-.143 0-.226.112-.084.112-.084.307 0 .194.083.307.083.111.228.111.142 0 .225-.112.084-.113.084-.306t-.084-.306q-.083-.113-.225-.113zm0-.151q.233 0 .366.151.133.151.133.419 0 .266-.133.418-.133.151-.365.151-.234 0-.367-.15-.132-.153-.132-.42t.132-.418q.133-.151.367-.151zM19.007 295.08h.178v1.507h-.178v-1.507zM21.749 296v.087h-.82q.012.184.11.281.1.096.278.096.102 0 .198-.025.097-.025.192-.076v.169q-.096.04-.197.062-.1.021-.204.021-.26 0-.412-.15-.151-.152-.151-.41 0-.266.143-.422.145-.157.389-.157.219 0 .346.141.128.14.128.383zm-.179-.052q-.002-.147-.082-.234-.08-.087-.211-.087-.15 0-.24.084-.089.085-.102.238l.635-.001z"/>
    </g>
    <g style="-inkscape-font-specification:sans-serif" font-weight="400" font-size="1.984" font-family="sans-serif" fill="#fff" stroke-width=".079">
        <path d="M1.721 4.93l-.265.72h.532l-.267-.72zm-.11-.192h.222l.55 1.446H2.18l-.131-.37h-.653l-.131.37h-.207l.553-1.446zM2.73 4.79V5.1h.367v.139H2.73v.589q0 .132.036.17.036.038.148.038h.183v.15h-.183q-.207 0-.285-.077-.079-.078-.079-.281v-.59h-.13V5.1h.13v-.308h.18zM3.51 4.79V5.1h.368v.139H3.51v.589q0 .132.036.17.036.038.148.038h.183v.15h-.183q-.207 0-.285-.077-.079-.078-.079-.281v-.59h-.13V5.1h.13v-.308h.18zM5.042 5.597v.087h-.82q.012.184.11.281.1.096.277.096.103 0 .2-.025.096-.025.191-.076v.169q-.096.04-.197.062-.1.021-.204.021-.26 0-.412-.15-.151-.152-.151-.41 0-.266.143-.422.145-.157.389-.157.219 0 .346.141.128.14.128.383zm-.179-.052q-.002-.147-.082-.234-.08-.087-.211-.087-.15 0-.24.084-.089.085-.102.238l.635-.001zM6.232 5.53v.654h-.178v-.649q0-.154-.06-.23-.06-.077-.18-.077-.145 0-.228.092-.083.092-.083.251v.613h-.18V5.1h.18v.169q.064-.098.15-.147.087-.048.2-.048.188 0 .284.116.095.115.095.34zM6.572 5.756v-.657h.178v.65q0 .154.06.232.06.076.18.076.145 0 .228-.092.084-.092.084-.25v-.616h.178v1.085h-.178v-.167q-.065.1-.151.148-.085.047-.199.047-.187 0-.284-.116-.096-.116-.096-.34zM8.694 5.307q.067-.12.16-.177.093-.057.22-.057.169 0 .261.119.092.118.092.337v.655h-.18v-.649q0-.156-.054-.232-.056-.075-.17-.075-.138 0-.218.092-.08.092-.08.25v.614h-.18v-.649q0-.157-.055-.232-.055-.075-.17-.075-.137 0-.218.093-.08.092-.08.25v.613h-.18V5.1h.18v.169q.061-.1.146-.148.086-.047.203-.047.118 0 .2.06.084.06.123.174zM9.78 5.099h.178v1.085H9.78V5.1zm0-.422h.178v.225H9.78v-.225zM11.232 5.099l-.392.528.412.557h-.21l-.316-.426-.316.426h-.21l.422-.568-.386-.517h.21l.288.387.288-.387h.21zM12.37 5.597v.087h-.82q.013.184.111.281.1.096.277.096.103 0 .2-.025.096-.025.191-.076v.169q-.096.04-.197.062-.1.021-.204.021-.26 0-.412-.15-.151-.152-.151-.41 0-.266.143-.422.145-.157.389-.157.219 0 .346.141.128.14.128.383zm-.178-.052q-.002-.147-.082-.234-.08-.087-.211-.087-.15 0-.24.084-.089.085-.102.238l.635-.001zM13.288 5.266q-.03-.018-.066-.026-.035-.009-.077-.009-.151 0-.233.1-.08.097-.08.281v.572h-.18V5.099h.18v.168q.056-.099.146-.146.09-.049.22-.049.018 0 .04.003.022.002.05.007v.184z"/>
    </g>
    <g style="-inkscape-font-specification:sans-serif" font-weight="400" font-size="4.63" font-family="sans-serif" fill="#fff" stroke-width=".3">
        <path d="M1.058.86h1.94v.384H1.515v.995h1.338v.384H1.515v1.612h-.457V.86zM4.43 2.962q-.505 0-.7.116-.194.115-.194.393 0 .222.145.353.147.129.398.129.346 0 .554-.245.21-.246.21-.653v-.093h-.414zm.829-.172v1.445h-.416v-.384q-.142.23-.355.341-.212.109-.52.109-.389 0-.62-.217-.228-.22-.228-.586 0-.427.285-.644.287-.217.855-.217h.583v-.041q0-.287-.19-.443-.188-.158-.529-.158-.217 0-.423.052-.205.052-.395.156v-.385q.228-.088.443-.13.215-.046.418-.046.55 0 .82.285.272.285.272.863zM6.132.717h.416v3.518h-.416V.717zM7.416.717h.416v3.518h-.416V.717zM10.314 1.778v.393q-.176-.09-.366-.136-.19-.045-.393-.045-.31 0-.466.095-.154.095-.154.285 0 .145.11.228.112.082.446.156l.143.032q.443.095.628.269.188.172.188.482 0 .352-.28.558-.279.206-.767.206-.203 0-.425-.041-.22-.038-.463-.118v-.43q.23.12.454.182.224.059.443.059.294 0 .452-.1.159-.102.159-.285 0-.17-.116-.26-.113-.09-.5-.174L9.264 3.1q-.387-.081-.558-.249-.172-.17-.172-.463 0-.357.253-.552.253-.194.719-.194.23 0 .434.034.203.034.375.102z"/>
    </g>
    <path d="M11.73 15.797h1.949l-1.016 3.316zM11.73 28.857h1.949l-1.016 3.316zM11.73 41.917h1.949l-1.016 3.316zM11.73 54.977h1.949l-1.016 3.316zM11.73 68.037h1.949l-1.016 3.316z" fill="#3e77ca"/>
    <path d="M2.699 89.182h.32V88.08l-.349.07v-.179l.346-.07h.196v1.282h.32v.165h-.833v-.165z" font-weight="400" font-size="1.984" font-family="sans-serif" fill="#fff" stroke-width="3.543"/>
    <g style="-inkscape-font-specification:sans-serif" font-weight="400" font-size="1.984" font-family="sans-serif" fill="#fff" stroke-width="3.543">
        <path d="M11.956 89.154h.32v-1.103l-.348.07v-.179l.346-.07h.196v1.282h.32v.165h-.834v-.165zM13.604 88.001q-.151 0-.228.15-.075.148-.075.446 0 .298.075.447.077.148.228.148.152 0 .228-.148.076-.15.076-.447 0-.298-.076-.446-.076-.15-.228-.15zm0-.155q.243 0 .371.193.13.192.13.558 0 .366-.13.558-.128.192-.37.192-.244 0-.373-.192-.128-.192-.128-.558 0-.366.128-.558.129-.193.372-.193z"/>
    </g>
    <g style="-inkscape-font-specification:sans-serif" font-weight="400" font-size="1.984" font-family="sans-serif" fill="#fff" stroke-width="3.543">
        <path d="M5.827 91.425q-.03-.017-.066-.025-.035-.009-.078-.009-.15 0-.232.099-.08.098-.08.282v.572h-.18v-1.086h.18v.169q.056-.099.146-.146.09-.049.219-.049.018 0 .04.003.023.002.05.007v.183zM6.509 91.798q-.216 0-.3.05-.083.05-.083.168 0 .095.062.151.063.056.17.056.149 0 .238-.105.09-.106.09-.28v-.04H6.51zm.355-.073v.619h-.178v-.165q-.06.099-.152.146-.091.047-.223.047-.167 0-.265-.093-.098-.094-.098-.251 0-.183.122-.276.123-.093.366-.093h.25v-.018q0-.123-.081-.19-.08-.067-.227-.067-.093 0-.181.022t-.17.067v-.165q.098-.038.19-.056.092-.02.18-.02.235 0 .351.123.116.122.116.37zM8.139 91.689v.655H7.96v-.65q0-.153-.06-.23-.06-.076-.18-.076-.144 0-.228.092-.083.092-.083.25v.614h-.18v-1.085h.18v.168q.064-.098.15-.146.087-.048.2-.048.188 0 .284.116.096.115.096.34zM9.21 91.789q0-.194-.08-.3-.08-.107-.224-.107-.143 0-.224.106-.08.107-.08.3t.08.3q.08.107.224.107.144 0 .224-.107.08-.107.08-.3zm.178.42q0 .277-.123.412-.123.136-.376.136-.094 0-.178-.015-.083-.014-.162-.043v-.173q.079.043.155.063.077.02.156.02.176 0 .263-.092.087-.09.087-.276v-.088q-.055.096-.141.143-.087.048-.207.048-.2 0-.321-.152-.122-.152-.122-.403 0-.252.122-.404.122-.152.321-.152.12 0 .207.047.086.048.141.143v-.164h.178v.95zM10.684 91.757v.087h-.82q.012.184.11.28.1.097.278.097.103 0 .198-.025.097-.026.192-.076v.169q-.096.04-.196.062-.101.02-.205.02-.26 0-.412-.15-.15-.151-.15-.41 0-.266.143-.422.144-.157.388-.157.22 0 .346.142.128.14.128.383zm-.178-.053q-.002-.146-.083-.233-.08-.087-.21-.087-.15 0-.24.084t-.103.237h.636z"/>
    </g>
</svg>
