<?xml version="1.0" encoding="UTF-8" standalone="no"?>
<!-- Created with Inkscape (http://www.inkscape.org/) -->

<svg
   xmlns:dc="http://purl.org/dc/elements/1.1/"
   xmlns:cc="http://creativecommons.org/ns#"
   xmlns:rdf="http://www.w3.org/1999/02/22-rdf-syntax-ns#"
   xmlns:svg="http://www.w3.org/2000/svg"
   xmlns="http://www.w3.org/2000/svg"
   xmlns:xlink="http://www.w3.org/1999/xlink"
   xmlns:sodipodi="http://sodipodi.sourceforge.net/DTD/sodipodi-0.dtd"
   xmlns:inkscape="http://www.inkscape.org/namespaces/inkscape"
   width="60"
   height="380"
   viewBox="0 0 15.875001 100.54167"
   version="1.1"
   id="svg8"
   inkscape:version="0.92.4 (5da689c313, 2019-01-14)"
   sodipodi:docname="Ftagn.svg">
  <defs
     id="defs2">
    <inkscape:perspective
       id="perspective4197"
       inkscape:persp3d-origin="240.00001 : 126.66667 : 1"
       inkscape:vp_z="480.00002 : 190 : 1"
       inkscape:vp_y="0 : 1000 : 0"
       inkscape:vp_x="0 : 190 : 1"
       sodipodi:type="inkscape:persp3d" />
    <clipPath
       clipPathUnits="userSpaceOnUse"
       id="clipPath4626">
      <rect
         style="opacity:1;fill:#1500ae;fill-opacity:1;stroke:none;stroke-width:1;stroke-miterlimit:4;stroke-dasharray:none;stroke-opacity:1"
         id="rect4628"
         width="120.00001"
         height="101.82335"
         x="173.6577"
         y="-14.577243" />
    </clipPath>
    <clipPath
       clipPathUnits="userSpaceOnUse"
       id="clipPath4630">
      <rect
         style="opacity:1;fill:#1500ae;fill-opacity:1;stroke:none;stroke-width:1;stroke-miterlimit:4;stroke-dasharray:none;stroke-opacity:1"
         id="rect4632"
         width="31.750002"
         height="26.940762"
         x="1.110223e-15"
         y="274.57867" />
    </clipPath>
    <clipPath
       clipPathUnits="userSpaceOnUse"
       id="clipPath4634">
      <rect
         style="opacity:1;fill:#1500ae;fill-opacity:1;stroke:none;stroke-width:1;stroke-miterlimit:4;stroke-dasharray:none;stroke-opacity:1"
         id="rect4636"
         width="31.750002"
         height="26.940762"
         x="1.110223e-15"
         y="274.57867" />
    </clipPath>
    <clipPath
       clipPathUnits="userSpaceOnUse"
       id="clipPath4638">
      <rect
         style="opacity:1;fill:#1500ae;fill-opacity:1;stroke:none;stroke-width:1;stroke-miterlimit:4;stroke-dasharray:none;stroke-opacity:1"
         id="rect4640"
         width="133.15222"
         height="112.98337"
         x="216.69804"
         y="-81.334724" />
    </clipPath>
    <clipPath
       clipPathUnits="userSpaceOnUse"
       id="clipPath4642">
      <rect
         style="opacity:1;fill:#1500ae;fill-opacity:1;stroke:none;stroke-width:1;stroke-miterlimit:4;stroke-dasharray:none;stroke-opacity:1"
         id="rect4644"
         width="31.750002"
         height="26.940762"
         x="1.110223e-15"
         y="274.57867" />
    </clipPath>
    <clipPath
       clipPathUnits="userSpaceOnUse"
       id="clipPath4646">
      <rect
         style="opacity:1;fill:#1500ae;fill-opacity:1;stroke:none;stroke-width:1;stroke-miterlimit:4;stroke-dasharray:none;stroke-opacity:1"
         id="rect4648"
         width="31.750002"
         height="26.940762"
         x="1.110223e-15"
         y="274.57867" />
    </clipPath>
    <clipPath
       clipPathUnits="userSpaceOnUse"
       id="clipPath5173">
      <rect
         style="opacity:1;fill:#ffffff;fill-opacity:1;stroke:#808080;stroke-width:1.66364133;stroke-miterlimit:4;stroke-dasharray:none;stroke-opacity:1"
         id="rect5175"
         width="115.1981"
         height="45.223434"
         x="176.05865"
         y="41.761337" />
    </clipPath>
    <clipPath
       clipPathUnits="userSpaceOnUse"
       id="clipPath5177">
      <rect
         style="opacity:1;fill:#ffffff;fill-opacity:1;stroke:#808080;stroke-width:0.3880538;stroke-miterlimit:4;stroke-dasharray:none;stroke-opacity:1"
         id="rect5179"
         width="23.689032"
         height="11.965367"
         x="4.0304852"
         y="289.48492" />
    </clipPath>
    <clipPath
       clipPathUnits="userSpaceOnUse"
       id="clipPath5181">
      <rect
         style="opacity:1;fill:#ffffff;fill-opacity:1;stroke:#808080;stroke-width:0.3880538;stroke-miterlimit:4;stroke-dasharray:none;stroke-opacity:1"
         id="rect5183"
         width="23.689032"
         height="11.965367"
         x="4.0304852"
         y="289.48492" />
    </clipPath>
    <clipPath
       clipPathUnits="userSpaceOnUse"
       id="clipPath5185">
      <rect
         style="opacity:1;fill:#ffffff;fill-opacity:1;stroke:#808080;stroke-width:1.62740862;stroke-miterlimit:4;stroke-dasharray:none;stroke-opacity:1"
         id="rect5187"
         width="99.346359"
         height="50.180004"
         x="233.60097"
         y="-18.821331" />
    </clipPath>
    <clipPath
       clipPathUnits="userSpaceOnUse"
       id="clipPath5189">
      <rect
         style="opacity:1;fill:#ffffff;fill-opacity:1;stroke:#808080;stroke-width:0.3880538;stroke-miterlimit:4;stroke-dasharray:none;stroke-opacity:1"
         id="rect5191"
         width="23.689032"
         height="11.965367"
         x="4.0304852"
         y="289.48492" />
    </clipPath>
    <clipPath
       clipPathUnits="userSpaceOnUse"
       id="clipPath5193">
      <rect
         style="opacity:1;fill:#ffffff;fill-opacity:1;stroke:#808080;stroke-width:0.3880538;stroke-miterlimit:4;stroke-dasharray:none;stroke-opacity:1"
         id="rect5195"
         width="23.689032"
         height="11.965367"
         x="4.0304852"
         y="289.48492" />
    </clipPath>
    <inkscape:perspective
       sodipodi:type="inkscape:persp3d"
       inkscape:vp_x="0 : 190 : 1"
       inkscape:vp_y="0 : 1000 : 0"
       inkscape:vp_z="480.00001 : 190 : 1"
       inkscape:persp3d-origin="240 : 126.66667 : 1"
       id="perspective4197-8" />
    <linearGradient
       inkscape:collect="always"
       id="linearGradient4189">
      <stop
         style="stop-color:#ffffff;stop-opacity:1"
         offset="0"
         id="stop4191" />
      <stop
         style="stop-color:#000000;stop-opacity:0;"
         offset="1"
         id="stop4193" />
    </linearGradient>
    <linearGradient
       gradientTransform="matrix(0.26458334,0,0,0.26458334,-59.861442,72.341009)"
       inkscape:collect="always"
       xlink:href="#linearGradient4189"
       id="linearGradient4195"
       x1="268.96658"
       y1="830.88361"
       x2="279.91516"
       y2="832.53247"
       gradientUnits="userSpaceOnUse" />
    <clipPath
       id="clipPath4626-0"
       clipPathUnits="userSpaceOnUse">
      <rect
         y="-14.577243"
         x="173.6577"
         height="101.82335"
         width="120.00001"
         id="rect4628-4"
         style="opacity:1;fill:#1500ae;fill-opacity:1;stroke:none;stroke-width:1;stroke-miterlimit:4;stroke-dasharray:none;stroke-opacity:1" />
    </clipPath>
    <clipPath
       id="clipPath4630-5"
       clipPathUnits="userSpaceOnUse">
      <rect
         y="274.57867"
         x="1.110223e-15"
         height="26.940762"
         width="31.750002"
         id="rect4632-3"
         style="opacity:1;fill:#1500ae;fill-opacity:1;stroke:none;stroke-width:1;stroke-miterlimit:4;stroke-dasharray:none;stroke-opacity:1" />
    </clipPath>
    <clipPath
       id="clipPath4634-3"
       clipPathUnits="userSpaceOnUse">
      <rect
         y="274.57867"
         x="1.110223e-15"
         height="26.940762"
         width="31.750002"
         id="rect4636-2"
         style="opacity:1;fill:#1500ae;fill-opacity:1;stroke:none;stroke-width:1;stroke-miterlimit:4;stroke-dasharray:none;stroke-opacity:1" />
    </clipPath>
    <clipPath
       id="clipPath4638-0"
       clipPathUnits="userSpaceOnUse">
      <rect
         y="-81.334724"
         x="216.69804"
         height="112.98337"
         width="133.15222"
         id="rect4640-0"
         style="opacity:1;fill:#1500ae;fill-opacity:1;stroke:none;stroke-width:1;stroke-miterlimit:4;stroke-dasharray:none;stroke-opacity:1" />
    </clipPath>
    <clipPath
       id="clipPath4642-0"
       clipPathUnits="userSpaceOnUse">
      <rect
         y="274.57867"
         x="1.110223e-15"
         height="26.940762"
         width="31.750002"
         id="rect4644-4"
         style="opacity:1;fill:#1500ae;fill-opacity:1;stroke:none;stroke-width:1;stroke-miterlimit:4;stroke-dasharray:none;stroke-opacity:1" />
    </clipPath>
    <clipPath
       id="clipPath4646-5"
       clipPathUnits="userSpaceOnUse">
      <rect
         y="274.57867"
         x="1.110223e-15"
         height="26.940762"
         width="31.750002"
         id="rect4648-3"
         style="opacity:1;fill:#1500ae;fill-opacity:1;stroke:none;stroke-width:1;stroke-miterlimit:4;stroke-dasharray:none;stroke-opacity:1" />
    </clipPath>
    <clipPath
       id="clipPath5173-0"
       clipPathUnits="userSpaceOnUse">
      <rect
         y="41.761337"
         x="176.05865"
         height="45.223434"
         width="115.1981"
         id="rect5175-6"
         style="opacity:1;fill:#ffffff;fill-opacity:1;stroke:#808080;stroke-width:1.66364133;stroke-miterlimit:4;stroke-dasharray:none;stroke-opacity:1" />
    </clipPath>
    <clipPath
       id="clipPath5177-0"
       clipPathUnits="userSpaceOnUse">
      <rect
         y="289.48492"
         x="4.0304852"
         height="11.965367"
         width="23.689032"
         id="rect5179-9"
         style="opacity:1;fill:#ffffff;fill-opacity:1;stroke:#808080;stroke-width:0.3880538;stroke-miterlimit:4;stroke-dasharray:none;stroke-opacity:1" />
    </clipPath>
    <clipPath
       id="clipPath5181-5"
       clipPathUnits="userSpaceOnUse">
      <rect
         y="289.48492"
         x="4.0304852"
         height="11.965367"
         width="23.689032"
         id="rect5183-4"
         style="opacity:1;fill:#ffffff;fill-opacity:1;stroke:#808080;stroke-width:0.3880538;stroke-miterlimit:4;stroke-dasharray:none;stroke-opacity:1" />
    </clipPath>
    <clipPath
       id="clipPath5185-9"
       clipPathUnits="userSpaceOnUse">
      <rect
         y="-18.821331"
         x="233.60097"
         height="50.180004"
         width="99.346359"
         id="rect5187-9"
         style="opacity:1;fill:#ffffff;fill-opacity:1;stroke:#808080;stroke-width:1.62740862;stroke-miterlimit:4;stroke-dasharray:none;stroke-opacity:1" />
    </clipPath>
    <clipPath
       id="clipPath5189-4"
       clipPathUnits="userSpaceOnUse">
      <rect
         y="289.48492"
         x="4.0304852"
         height="11.965367"
         width="23.689032"
         id="rect5191-7"
         style="opacity:1;fill:#ffffff;fill-opacity:1;stroke:#808080;stroke-width:0.3880538;stroke-miterlimit:4;stroke-dasharray:none;stroke-opacity:1" />
    </clipPath>
    <clipPath
       id="clipPath5193-7"
       clipPathUnits="userSpaceOnUse">
      <rect
         y="289.48492"
         x="4.0304852"
         height="11.965367"
         width="23.689032"
         id="rect5195-1"
         style="opacity:1;fill:#ffffff;fill-opacity:1;stroke:#808080;stroke-width:0.3880538;stroke-miterlimit:4;stroke-dasharray:none;stroke-opacity:1" />
    </clipPath>
    <clipPath
       clipPathUnits="userSpaceOnUse"
       id="clipPath4668">
      <path
         inkscape:connector-curvature="0"
         id="path4670"
         d="m 7.875766,86.52701 15.875001,0 0,13.97626 -15.875001,0 z"
         style="opacity:1;fill:#000000;fill-opacity:1;fill-rule:evenodd;stroke:none;stroke-width:0.48607069;stroke-linecap:butt;stroke-linejoin:round;stroke-miterlimit:4;stroke-dasharray:none;stroke-dashoffset:0;stroke-opacity:1;paint-order:normal" />
    </clipPath>
    <clipPath
       clipPathUnits="userSpaceOnUse"
       id="clipPath4672">
      <path
         inkscape:connector-curvature="0"
         id="path4674"
         d="m 0,283.02373 15.875001,0 0,13.97626 -15.875001,0 z"
         style="opacity:1;fill:#000000;fill-opacity:1;fill-rule:evenodd;stroke:none;stroke-width:0.48607069;stroke-linecap:butt;stroke-linejoin:round;stroke-miterlimit:4;stroke-dasharray:none;stroke-dashoffset:0;stroke-opacity:1;paint-order:normal" />
    </clipPath>
    <clipPath
       clipPathUnits="userSpaceOnUse"
       id="clipPath4676">
      <path
         inkscape:connector-curvature="0"
         id="path4678"
         d="m 3.9380026,281.49123 23.7815144,0 0,16.40589 -23.7815144,0 z"
         style="opacity:1;fill:#000000;fill-opacity:1;fill-rule:evenodd;stroke:none;stroke-width:0.48607069;stroke-linecap:butt;stroke-linejoin:round;stroke-miterlimit:4;stroke-dasharray:none;stroke-dashoffset:0;stroke-opacity:1;paint-order:normal" />
    </clipPath>
    <clipPath
       clipPathUnits="userSpaceOnUse"
       id="clipPath5924">
      <rect
         style="opacity:1;fill:#111bff;fill-opacity:1;stroke:none;stroke-width:0.30000001;stroke-miterlimit:10;stroke-dasharray:none;stroke-opacity:1"
         id="rect5926"
         width="20.550829"
         height="14.907611"
         x="1.6366985"
         y="287.56183"
         rx="0"
         ry="0" />
    </clipPath>
    <clipPath
       clipPathUnits="userSpaceOnUse"
       id="clipPath5936">
      <rect
         style="opacity:1;fill:#111bff;fill-opacity:1;stroke:none;stroke-width:0.30000001;stroke-miterlimit:10;stroke-dasharray:none;stroke-opacity:1"
         id="rect5938"
         width="66.538155"
         height="62.5191"
         x="282.25021"
         y="-27.441273"
         rx="0"
         ry="0" />
    </clipPath>
    <clipPath
       clipPathUnits="userSpaceOnUse"
       id="clipPath5940">
      <rect
         style="opacity:1;fill:#111bff;fill-opacity:1;stroke:none;stroke-width:0.30000001;stroke-miterlimit:10;stroke-dasharray:none;stroke-opacity:1"
         id="rect5942"
         width="15.86595"
         height="14.907611"
         x="0.0090512317"
         y="287.56183"
         rx="0"
         ry="0" />
    </clipPath>
    <radialGradient
       gradientUnits="userSpaceOnUse"
       gradientTransform="matrix(0.42180436,0,0,0.0267339,-117.37069,272.32424)"
       r="69.826797"
       fy="856.052"
       fx="285.49445"
       cy="856.052"
       cx="285.49445"
       id="radialGradient5357"
       xlink:href="#linearGradient5349"
       inkscape:collect="always" />
    <linearGradient
       id="linearGradient5349"
       inkscape:collect="always">
      <stop
         id="stop5351"
         offset="0"
         style="stop-color:#fdfdfd;stop-opacity:1;" />
      <stop
         id="stop5353"
         offset="1"
         style="stop-color:#fdfdfd;stop-opacity:1" />
    </linearGradient>
    <clipPath
       clipPathUnits="userSpaceOnUse"
       id="clipPath5944">
      <rect
         style="opacity:1;fill:#111bff;fill-opacity:1;stroke:none;stroke-width:0.30000001;stroke-miterlimit:10;stroke-dasharray:none;stroke-opacity:1"
         id="rect5946"
         width="15.86595"
         height="14.907611"
         x="0.0090512317"
         y="287.56183"
         rx="0"
         ry="0" />
    </clipPath>
  </defs>
  <sodipodi:namedview
     id="base"
     pagecolor="#ffffff"
     bordercolor="#666666"
     borderopacity="1.0"
     inkscape:pageopacity="0.0"
     inkscape:pageshadow="2"
     inkscape:zoom="3.3661544"
     inkscape:cx="30.675161"
     inkscape:cy="18.910397"
     inkscape:document-units="mm"
     inkscape:current-layer="layer1"
     showgrid="false"
     units="px"
     inkscape:snap-bbox="true"
     inkscape:snap-page="true"
     inkscape:bbox-nodes="true"
     inkscape:snap-bbox-edge-midpoints="true"
     inkscape:window-width="1366"
     inkscape:window-height="715"
     inkscape:window-x="-8"
     inkscape:window-y="-8"
     inkscape:window-maximized="1"
     inkscape:showpageshadow="false"
     borderlayer="true"
     inkscape:snap-others="false"
     inkscape:snap-nodes="false"
     inkscape:snap-global="false" />
  <metadata
     id="metadata5">
    <rdf:RDF>
      <cc:Work
         rdf:about="">
        <dc:format>image/svg+xml</dc:format>
        <dc:type
           rdf:resource="http://purl.org/dc/dcmitype/StillImage" />
        <dc:title />
      </cc:Work>
    </rdf:RDF>
  </metadata>
  <g
     inkscape:label="Layer 1"
     inkscape:groupmode="layer"
     id="layer1"
     transform="translate(0,-196.45832)"
     style="display:inline">
    <path
       style="opacity:1;fill:#000000;fill-opacity:1;fill-rule:evenodd;stroke:none;stroke-width:0.48607069;stroke-linecap:butt;stroke-linejoin:round;stroke-miterlimit:4;stroke-dasharray:none;stroke-dashoffset:0;stroke-opacity:1;paint-order:normal"
       d="m 0,196.45831 15.875001,0 0,100.54168 -15.875001,0 z"
       id="rect817"
       inkscape:connector-curvature="0" />
    <flowRoot
       transform="matrix(0.26458334,0,0,0.26458334,-58.459936,293.81811)"
       style="font-style:normal;font-variant:normal;font-weight:normal;font-stretch:normal;line-height:0.01%;font-family:'Trajan Pro 3';-inkscape-font-specification:'Trajan Pro 3, ';letter-spacing:0px;word-spacing:0px;fill:#000000;fill-opacity:1;stroke:none;stroke-width:1px;stroke-linecap:butt;stroke-linejoin:miter;stroke-opacity:1"
       id="flowRoot4136"
       xml:space="preserve"><flowRegion
         id="flowRegion4138"><rect
           style="font-style:normal;font-variant:normal;font-weight:normal;font-stretch:normal;font-family:'Trajan Pro 3';-inkscape-font-specification:'Trajan Pro 3, '"
           y="51.42857"
           x="91.428574"
           height="117.14286"
           width="388.57144"
           id="rect4140" /></flowRegion><flowPara
         id="flowPara4142"
         style="font-size:10px;line-height:1.25"> </flowPara></flowRoot>    <flowRoot
       transform="matrix(0.26458334,0,0,0.26458334,-58.459936,115.92228)"
       style="font-style:normal;font-variant:normal;font-weight:normal;font-stretch:normal;line-height:0.01%;font-family:Luminari;-inkscape-font-specification:Luminari;letter-spacing:0px;word-spacing:0px;fill:#000000;fill-opacity:1;stroke:none;stroke-width:1px;stroke-linecap:butt;stroke-linejoin:miter;stroke-opacity:1"
       id="flowRoot5341"
       xml:space="preserve"><flowRegion
         id="flowRegion5343"><rect
           y="35.537983"
           x="323.24881"
           height="72.478447"
           width="7.8286824"
           id="rect5345"
           style="font-style:normal;font-variant:normal;font-weight:normal;font-stretch:normal;font-family:Luminari;-inkscape-font-specification:Luminari" /></flowRegion><flowPara
         id="flowPara5347"
         style="font-size:10px;line-height:1.25"> </flowPara></flowRoot>    <g
       id="layer2"
       inkscape:label="Layer 2"
       transform="matrix(0.26458334,0,0,0.26458334,-59.404877,294.76305)" />
    <path
       style="opacity:0;fill:#ffffff;fill-opacity:1;stroke:#ffffff;stroke-width:0.82020831;stroke-miterlimit:4;stroke-dasharray:none;stroke-opacity:1"
       d="m 30.061707,285.73086 a 15.56002,2.6503332 0 0 1 -15.560021,2.65034 15.56002,2.6503332 0 0 1 -15.5600194,-2.65034 15.56002,2.6503332 0 0 1 15.5600194,-2.65033 15.56002,2.6503332 0 0 1 15.560021,2.65033 z"
       id="path5422"
       inkscape:connector-curvature="0"
       clip-path="url(#clipPath4672)" />
    <flowRoot
       xml:space="preserve"
       id="flowRoot6030"
       style="line-height:0.01%;opacity:1;fill:#ffffff;fill-opacity:1;stroke:#9f9f9f;stroke-width:1.77165353;stroke-miterlimit:4;stroke-dasharray:none;stroke-opacity:1"><flowRegion
         id="flowRegion6032"><rect
           id="rect6034"
           width="7.9155955"
           height="17.98999"
           x="-7.9155955"
           y="209.8147" /></flowRegion><flowPara
         id="flowPara6036"
         style="font-size:7.5px;line-height:1.25"> </flowPara></flowRoot>    <g
       style="font-style:normal;font-variant:normal;font-weight:normal;font-stretch:normal;font-size:3.96875px;font-family:Luminari;-inkscape-font-specification:Luminari;fill:#ffffff;fill-opacity:1;stroke:none;stroke-width:3.54330707;stroke-miterlimit:4;stroke-dasharray:none;stroke-opacity:1"
       id="text4316">
      <path
         d="m 2.5143895,199.38063 q -0.055563,-0.0119 -0.1230312,-0.0198 -0.067469,-0.008 -0.142875,-0.0119 -0.075406,-0.004 -0.1508125,-0.004 -0.071438,-0.004 -0.1349375,-0.004 -0.027781,0 -0.0635,0 -0.03175,0 -0.059531,0 -0.027781,0 -0.047625,0.004 -0.019844,0.004 -0.019844,0.0119 0,0.10319 0,0.2421 0.00397,0.13494 0.00794,0.27384 0.00794,0.13494 0.015875,0.25003 0.00794,0.1151 0.023813,0.16669 0.00794,0.0318 0.067469,0.0437 0.059531,0.0159 0.1349375,0.0159 0.03175,0 0.0635,-0.004 0.035719,0 0.079375,0 0.043656,0 0.067469,0.0198 0.023813,0.0198 0.023813,0.0476 0,0.0318 -0.00794,0.0556 -0.00397,0.0238 -0.083344,0.0238 -0.03175,0 -0.1031875,-0.004 -0.067469,-0.004 -0.1508125,-0.008 -0.079375,-0.004 -0.1666875,0 -0.087312,0.004 -0.1547812,0.0159 -0.15875,0.0318 -0.2976563,0.0714 -0.1389062,0.0437 -0.2500312,0.0873 -0.11112505,0.0437 -0.1865313,0.0833 -0.0754063,0.0437 -0.10715625,0.0794 -0.015875,0.0199 -0.0238125,0.0199 -0.007938,0 -0.0198438,0 -0.007937,0 -0.0396875,-0.0238 -0.03175,-0.0199 -0.03175,-0.0556 0,-0.0198 0.0635,-0.0595 0.0674687,-0.0357 0.15875,-0.0794 0.0912812,-0.0397 0.1905,-0.0794 0.099219,-0.0357 0.1706563,-0.0556 0.019844,-0.0278 0.03175,-0.15875 0.015875,-0.127 0.023813,-0.37306 0.011906,-0.25003 0.015875,-0.6231 0.00794,-0.37306 0.011906,-0.89297 0,-0.14287 -0.00397,-0.28971 -0.00397,-0.15082 -0.011906,-0.27782 -0.00794,-0.13097 -0.023813,-0.22622 -0.015875,-0.0953 -0.039687,-0.13493 -0.019844,-0.0278 -0.075406,-0.0357 -0.051594,-0.0119 -0.1230313,-0.0119 l -0.15875,0 q -0.0198438,0 -0.047625,0 -0.0238125,0 -0.0515938,-0.004 -0.0277812,-0.008 -0.047625,-0.0198 -0.015875,-0.0119 -0.015875,-0.0317 0,-0.0437 0.0119063,-0.0595 0.0119063,-0.0198 0.10715625,-0.0198 0.0396875,0 0.0992188,0.004 0.0595313,0.004 0.1190625,0.008 0.0635,0 0.1230313,0.004 0.0635,0.004 0.111125,0.004 0.127,0 0.3135312,-0.0238 0.1905,-0.0238 0.3889375,-0.0318 0.1468438,-0.004 0.2976563,-0.004 0.1547812,-0.004 0.28575,-0.004 0.1349375,-0.004 0.2301875,-0.004 0.099219,-0.004 0.1349375,-0.0119 0.035719,-0.11112 0.079375,-0.1905 0.043656,-0.0833 0.091281,-0.0873 0.019844,0 0.051594,0.0159 0.035719,0.0119 0.035719,0.0357 -0.011906,0.0119 -0.019844,0.0238 -0.015875,0.0238 -0.015875,0.0357 -0.047625,0.0833 -0.087313,0.21431 -0.035719,0.13097 -0.0635,0.26987 -0.023813,0.13891 -0.035719,0.26988 -0.011906,0.13097 0,0.21828 -0.011906,0.0595 -0.047625,0.0595 -0.0635,0 -0.079375,-0.0198 -0.011906,-0.0238 -0.00397,-0.0476 0.00794,-0.0317 0.011906,-0.0794 0.00397,-0.0516 0.00397,-0.0833 0,-0.0953 -0.0635,-0.16272 -0.0635,-0.0714 -0.1706563,-0.11509 -0.1071562,-0.0476 -0.254,-0.0714 -0.142875,-0.0238 -0.3055937,-0.0238 -0.043656,0 -0.1190625,0.004 -0.071438,0 -0.1071563,0.0317 -0.00794,0.0318 -0.015875,0.13494 -0.00794,0.10318 -0.015875,0.24606 -0.00397,0.13891 -0.00794,0.30162 -0.00397,0.15875 -0.00794,0.30957 0,0.15081 -0.00397,0.27384 0,0.12303 0,0.18256 0.079375,0.004 0.1508125,0.004 0.075406,0 0.1468437,0 0.238125,0.004 0.4167188,-0.008 0.1825625,-0.0159 0.2420937,-0.0357 0.035719,-0.0119 0.055562,-0.0317 0.023813,-0.0238 0.035719,-0.0476 0.015875,-0.0238 0.027781,-0.0397 0.015875,-0.0198 0.03175,-0.0198 0.019844,0 0.039687,0.0198 0.019844,0.0198 0.011906,0.0357 -0.023813,0.0437 -0.043656,0.12303 -0.019844,0.0754 -0.035719,0.17066 -0.011906,0.0913 -0.023813,0.1905 -0.00794,0.0992 -0.00794,0.18653 0,0.0159 0,0.0317 0.00397,0.0159 0.00397,0.0357 0,0.0119 -0.019844,0.0198 -0.015875,0.004 -0.035719,0.004 -0.015875,0 -0.03175,-0.004 -0.015875,-0.004 -0.015875,-0.0159 0,-0.0238 -0.00397,-0.0556 -0.00397,-0.0357 -0.019844,-0.0675 -0.011906,-0.0318 -0.043656,-0.0595 -0.027781,-0.0318 -0.079375,-0.0516 l -0.059531,-0.0159 z"
         style=""
         id="path4740" />
      <path
         d="m 5.0997201,199.62272 q 0.00794,-0.008 0.011906,0.004 0.00794,0.008 0.00794,0.0278 0.00397,0.0159 0,0.0357 -0.00397,0.0198 -0.015875,0.0317 -0.079375,0.0754 -0.1984375,0.15875 -0.1190625,0.0833 -0.2460625,0.15478 -0.035719,0.0198 -0.099219,0.0516 -0.0635,0.0317 -0.142875,0.0635 -0.075406,0.0278 -0.15875,0.0476 -0.079375,0.0238 -0.1508125,0.0238 -0.142875,0 -0.269875,-0.0556 -0.127,-0.0556 -0.22225,-0.15081 -0.09525,-0.0992 -0.1508125,-0.23416 -0.051594,-0.13494 -0.051594,-0.29369 0,-0.17065 0.047625,-0.32147 0.047625,-0.15081 0.1071563,-0.26987 0.0635,-0.11906 0.1190625,-0.19844 0.055562,-0.0833 0.075406,-0.12303 -0.075406,-0.004 -0.1389062,-0.004 -0.059531,-0.004 -0.1150938,-0.004 -0.127,0 -0.2143125,0.004 -0.087312,0 -0.1547812,0.0159 -0.03175,0.008 -0.059531,0.0317 -0.027781,0.0238 -0.047625,0.0357 -0.00794,-0.008 -0.019844,-0.0198 -0.015875,-0.0159 -0.015875,-0.0318 0,-0.008 0.00397,-0.0119 0,-0.004 0.051594,-0.0437 0.051594,-0.0437 0.127,-0.0992 0.079375,-0.0595 0.1706562,-0.127 0.09525,-0.0714 0.1785938,-0.13097 0.087313,-0.0595 0.1468437,-0.0992 0.0635,-0.0436 0.083344,-0.0516 0.023813,-0.008 0.047625,0.008 0.023813,0.0159 0.015875,0.0238 -0.011906,0.008 -0.035719,0.0317 -0.023813,0.0198 -0.015875,0.0357 0.043656,0.0357 0.1508125,0.0635 0.1071563,0.0278 0.2420938,0.0476 0.1349375,0.0159 0.2778125,0.0278 0.142875,0.008 0.2579687,0.008 0.1706563,0 0.2738438,-0.008 0.1031875,-0.0119 0.1706562,-0.0278 0.0635,-0.0159 0.083344,-0.0238 0.00397,0 0.015875,0.0119 0.011906,0.0119 0.011906,0.0278 0,0.008 -0.059531,0.0397 -0.055562,0.0317 -0.1150938,0.0675 -0.035719,0.0199 -0.087312,0.0516 -0.047625,0.0317 -0.1071562,0.0635 -0.055562,0.0278 -0.1190625,0.0516 -0.0635,0.0238 -0.1230313,0.0278 -0.059531,0.008 -0.1389062,0.0119 -0.079375,0.004 -0.1666875,0.008 -0.087313,0 -0.1785938,0.004 -0.087312,0 -0.1627187,0 -0.011906,0.0198 -0.039687,0.0675 -0.023813,0.0437 -0.047625,0.1151 -0.023813,0.0714 -0.043656,0.16272 -0.019844,0.0913 -0.019844,0.19843 0,0.16272 0.047625,0.30163 0.051594,0.13494 0.1389062,0.23416 0.091281,0.0992 0.2143125,0.15478 0.1230313,0.0556 0.2659063,0.0556 0.083344,0 0.15875,-0.0198 0.079375,-0.0198 0.1468437,-0.0516 0.071438,-0.0317 0.1309688,-0.0675 0.059531,-0.0397 0.1031875,-0.0754 l 0.047625,-0.0437 z"
         style=""
         id="path4742" />
      <path
         d="m 6.3925404,199.55525 q -0.011906,-0.0675 -0.023813,-0.14684 -0.011906,-0.0794 -0.023813,-0.15081 -0.011906,-0.0714 -0.023813,-0.12304 -0.00794,-0.0516 -0.011906,-0.0675 -0.0635,0.0238 -0.142875,0.0556 -0.079375,0.0318 -0.15875,0.0714 -0.079375,0.0357 -0.1508125,0.0754 -0.071438,0.0357 -0.1190625,0.0675 -0.091281,0.0595 -0.1389062,0.11906 -0.047625,0.0595 -0.047625,0.14288 0,0.11509 0.067469,0.2024 0.067469,0.0873 0.2103438,0.0873 0.075406,0 0.1547812,-0.0278 0.083344,-0.0278 0.1508125,-0.0635 0.071438,-0.0357 0.1230313,-0.0714 0.051594,-0.0357 0.071438,-0.0556 0.03175,-0.0318 0.047625,-0.0516 0.019844,-0.0238 0.015875,-0.0635 z M 6.2774466,198.9401 q -0.023813,-0.12304 -0.055563,-0.21829 -0.03175,-0.0992 -0.079375,-0.16271 -0.047625,-0.0675 -0.1150937,-0.0992 -0.067469,-0.0357 -0.1666875,-0.0357 -0.087312,0 -0.1627188,0.0317 -0.071438,0.0318 -0.127,0.0754 -0.051594,0.0437 -0.083344,0.0873 -0.027781,0.0437 -0.03175,0.0675 -0.00397,0.0317 -0.035719,0.0317 -0.055562,0 -0.1031875,-0.0397 -0.047625,-0.0397 -0.047625,-0.0952 0,-0.0317 0.00794,-0.0476 0.091281,-0.0516 0.22225,-0.11112 0.1309688,-0.0595 0.269875,-0.11113 0.142875,-0.0516 0.2817813,-0.0833 0.1389062,-0.0357 0.2500312,-0.0357 0.1666875,0 0.254,0.0476 0.091281,0.0476 0.1349375,0.13493 0.043656,0.0873 0.051594,0.20638 0.011906,0.11509 0.019844,0.25003 0.011906,0.20241 0.03175,0.39291 0.019844,0.18653 0.059531,0.33337 0.039688,0.14288 0.099219,0.23416 0.0635,0.0873 0.1547813,0.0873 0.043656,0 0.09525,-0.0159 0.051594,-0.0159 0.099219,-0.0357 0.047625,-0.0238 0.083344,-0.0437 0.039688,-0.0238 0.051594,-0.0317 0.035719,0 0.043656,0.0357 0,0.0198 -0.00794,0.0357 -0.00794,0.008 -0.059531,0.0397 -0.051594,0.0317 -0.127,0.0754 -0.075406,0.0437 -0.1666875,0.0952 -0.091281,0.0476 -0.1825625,0.0913 -0.087313,0.0437 -0.1627187,0.0714 -0.075406,0.0278 -0.1190625,0.0278 -0.051594,0 -0.091281,-0.0437 -0.035719,-0.0397 -0.0635,-0.10715 -0.027781,-0.0714 -0.047625,-0.16272 -0.019844,-0.0913 -0.035719,-0.1905 -0.071438,0.0595 -0.1825625,0.14287 -0.111125,0.0794 -0.2420938,0.15082 -0.1309687,0.0714 -0.269875,0.12303 -0.1349375,0.0476 -0.2619375,0.0476 -0.1071562,0 -0.1865312,-0.0318 -0.079375,-0.0357 -0.1349375,-0.0913 -0.051594,-0.0556 -0.079375,-0.127 -0.023813,-0.0754 -0.023813,-0.15478 0,-0.127 0.075406,-0.20637 0.079375,-0.0833 0.2420938,-0.17066 0.075406,-0.0397 0.2103437,-0.10319 0.1349375,-0.0675 0.2738438,-0.13494 0.142875,-0.0675 0.2619375,-0.127 0.1230312,-0.0635 0.1785937,-0.0992 z"
         style=""
         id="path4744" />
      <path
         d="m 9.904016,198.43606 q -0.079375,0.0595 -0.2659063,0.10716 -0.1825625,0.0437 -0.4246562,0.0437 -0.047625,0 -0.1071563,0.004 -0.055563,0 -0.087312,0 0.015875,0.15081 -0.039688,0.30956 -0.051594,0.15875 -0.1230312,0.30162 -0.067469,0.13891 -0.127,0.24607 -0.059531,0.10715 -0.059531,0.15478 0,0.0635 0.055563,0.12303 0.055563,0.0595 0.1389063,0.11906 0.083344,0.0595 0.1785937,0.12303 0.09525,0.0595 0.1785938,0.13097 0.083344,0.0675 0.1389062,0.15081 0.055563,0.0834 0.055563,0.18257 0,0.14287 -0.111125,0.31353 -0.1071562,0.17065 -0.2936875,0.3175 -0.1865312,0.15081 -0.4365625,0.25003 -0.2500312,0.0992 -0.5318125,0.0992 -0.1309687,0 -0.28575,-0.0278 -0.1508125,-0.0278 -0.2817812,-0.0833 -0.127,-0.0556 -0.2143125,-0.1389 -0.083344,-0.0794 -0.083344,-0.1905 0,-0.0635 0.09525,-0.16669 0.099219,-0.10319 0.2262188,-0.21035 0.127,-0.10715 0.2500312,-0.20637 0.1230313,-0.0992 0.174625,-0.15875 0.011906,0 0.027781,0.0159 0.019844,0.0159 0.019844,0.0357 0,0.004 -0.00397,0.004 0,0.004 0,0.008 -0.039688,0.0317 -0.099219,0.0794 -0.055563,0.0476 -0.111125,0.10319 -0.055562,0.0556 -0.09525,0.11906 -0.039688,0.0675 -0.039688,0.13097 0,0.0833 0.0635,0.16272 0.067469,0.0834 0.1706563,0.14685 0.1071562,0.0635 0.2420937,0.10318 0.1349375,0.0397 0.2738438,0.0397 0.28575,0 0.4325937,-0.127 0.1508125,-0.12303 0.1508125,-0.34925 0,-0.0953 -0.055562,-0.18256 -0.051594,-0.0873 -0.1309687,-0.16272 -0.075406,-0.0754 -0.1706563,-0.14288 -0.091281,-0.0635 -0.1706562,-0.11906 -0.075406,-0.0556 -0.1309688,-0.10319 -0.051594,-0.0476 -0.051594,-0.0873 0,-0.0357 0.019844,-0.0794 0.023812,-0.0476 0.051594,-0.0913 0.027781,-0.0476 0.047625,-0.0833 0.023813,-0.0397 0.023813,-0.0595 0,0.004 -0.00794,-0.0119 -0.027781,0.0278 -0.079375,0.0556 -0.051594,0.0278 -0.1230313,0.0516 -0.067469,0.0238 -0.1468437,0.0397 -0.075406,0.0159 -0.1547813,0.0159 -0.1508125,0 -0.2659062,-0.0476 -0.1150938,-0.0516 -0.1944688,-0.13494 -0.075406,-0.0833 -0.1150937,-0.1905 -0.039688,-0.11112 -0.039688,-0.23416 0,-0.18256 0.051594,-0.31353 0.055562,-0.13097 0.1349375,-0.22225 0.083344,-0.0913 0.174625,-0.14684 0.091281,-0.0595 0.1666875,-0.0992 0.047625,-0.0238 0.111125,-0.0437 0.067469,-0.0238 0.142875,-0.0397 0.075406,-0.0199 0.1547813,-0.0318 0.079375,-0.0119 0.1508125,-0.0119 0.2500312,0 0.4048125,0.0556 0.1547812,0.0556 0.2024062,0.0992 0.047625,0.008 0.1706563,0.0119 0.1230312,0.004 0.2619375,0.004 0.1389062,0 0.2619375,0 0.127,0 0.1785937,0 0.019844,0 0.039688,0 0.019844,0 0.039687,-0.004 0.019844,0.004 0.015875,0.0198 -0.00397,0.0159 -0.019844,0.0238 z m -1.635125,1.07157 q 0.055563,0 0.111125,-0.0238 0.055563,-0.0238 0.099219,-0.0794 0.047625,-0.0595 0.075406,-0.15478 0.03175,-0.0992 0.03175,-0.24606 0,-0.13494 -0.03175,-0.25004 -0.027781,-0.11509 -0.087312,-0.19843 -0.059531,-0.0833 -0.1468438,-0.127 -0.087312,-0.0476 -0.206375,-0.0476 -0.1706562,0 -0.2897187,0.13097 -0.1190625,0.127 -0.1190625,0.36513 0,0.13096 0.047625,0.24606 0.047625,0.11509 0.1230312,0.2024 0.079375,0.0833 0.1825625,0.13494 0.1031875,0.0476 0.2103438,0.0476 z"
         style=""
         id="path4746" />
      <path
         d="m 10.159814,199.12663 q -0.004,0.0357 -0.0079,0.0635 -0.004,0.0278 -0.0079,0.0635 0,0.0357 -0.004,0.0913 0,0.0516 0,0.1389 0,0.14288 0.0079,0.23416 0.01191,0.0913 0.03175,0.14684 0.01984,0.0516 0.04763,0.0714 0.03175,0.0198 0.07541,0.0198 0.02778,0 0.05953,-0.008 0.0079,0 0.01191,0.0238 0.0079,0.0198 0,0.0278 -0.02381,0.0198 -0.09525,0.0595 -0.06747,0.0357 -0.154781,0.0714 -0.08731,0.0357 -0.1825629,0.0635 -0.091281,0.0278 -0.1547813,0.0278 -0.055562,0 -0.087312,-0.0159 -0.03175,-0.0119 -0.03175,-0.0317 0,-0.0199 0.00397,-0.0238 0.00397,-0.004 0.011906,-0.0198 0.00794,-0.0198 0.011906,-0.0476 0.00397,-0.0317 0.011906,-0.0714 0.00794,-0.0556 0.015875,-0.13891 0.00794,-0.0873 0.015875,-0.18653 0.00794,-0.10319 0.011906,-0.21034 0.00794,-0.11113 0.00794,-0.21432 0,-0.0437 -0.00397,-0.10715 0,-0.0675 -0.00397,-0.17066 -0.00397,-0.11509 -0.027781,-0.19447 -0.019844,-0.0833 -0.055563,-0.13097 -0.03175,-0.0516 -0.075406,-0.0754 -0.039687,-0.0238 -0.079375,-0.0238 -0.019844,0 -0.039688,0 -0.019844,0 -0.039687,0.004 -0.015875,0 -0.015875,-0.0357 0,-0.008 0.00397,-0.0119 0.00794,-0.008 0.039687,-0.0278 0.051594,-0.0357 0.1389063,-0.0873 0.087312,-0.0516 0.1785937,-0.0952 0.091281,-0.0437 0.1706563,-0.0754 0.083343,-0.0318 0.1270004,-0.0318 0.115093,0 0.115093,0.13097 0,0.0198 -0.004,0.0714 -0.004,0.0516 -0.0079,0.10715 0,0.0516 -0.004,0.0992 -0.004,0.0476 -0.004,0.0635 0.08334,-0.0794 0.178593,-0.16272 0.09525,-0.0833 0.206375,-0.15081 0.111125,-0.0714 0.234157,-0.11509 0.123031,-0.0437 0.254,-0.0437 0.238125,0 0.388937,0.13891 0.154781,0.13493 0.154781,0.43259 0,0.0794 -0.01191,0.18653 -0.0079,0.10716 -0.01984,0.22225 -0.01191,0.11509 -0.02381,0.22622 -0.0079,0.11112 -0.0079,0.19844 0,0.3175 0.206375,0.3175 0.03969,0 0.08731,-0.0119 0.05159,-0.0159 0.09525,-0.0317 0.04763,-0.0198 0.08334,-0.0357 0.03572,-0.0198 0.04763,-0.0318 0.004,-0.004 0.0079,0.008 0.0079,0.008 0.01191,0.0238 0.004,0.0159 0,0.0278 0,0.0119 -0.004,0.0159 -0.03175,0.0198 -0.138907,0.0754 -0.103187,0.0556 -0.234156,0.1151 -0.127,0.0556 -0.254,0.0992 -0.127,0.0476 -0.202406,0.0476 -0.09128,0 -0.127,-0.0437 -0.03175,-0.0437 -0.03175,-0.0913 0,-0.0318 0.0079,-0.0794 0.01191,-0.0476 0.02778,-0.15478 0.01588,-0.1151 0.02778,-0.26988 0.01587,-0.15478 0.01587,-0.33337 0,-0.34925 -0.130969,-0.52785 -0.127,-0.18256 -0.321469,-0.18256 -0.123031,0 -0.218281,0.0476 -0.09525,0.0476 -0.162719,0.13097 -0.06747,0.0794 -0.107156,0.18653 -0.03969,0.10318 -0.05159,0.22225 z"
         style=""
         id="path4748" />
    </g>
    <g
       style="font-style:normal;font-variant:normal;font-weight:normal;font-stretch:normal;font-size:1.984375px;font-family:Luminari;-inkscape-font-specification:Luminari;fill:#ffffff;fill-opacity:1;stroke:none;stroke-width:3.54330707;stroke-miterlimit:4;stroke-dasharray:none;stroke-opacity:1"
       id="text4320">
      <path
         d="m 0.83596483,202.48076 q -0.001984,0.0179 -0.003969,0.0317 -0.001984,0.0139 -0.003969,0.0318 0,0.0179 -0.001984,0.0456 0,0.0258 0,0.0695 0,0.0714 0.003969,0.11708 0.005953,0.0456 0.015875,0.0734 0.009922,0.0258 0.0238125,0.0357 0.015875,0.01 0.0377031,0.01 0.0138906,0 0.0297656,-0.004 0.003969,0 0.005953,0.0119 0.003969,0.01 0,0.0139 -0.0119062,0.01 -0.047625,0.0298 -0.0337344,0.0179 -0.0773906,0.0357 -0.0436562,0.0179 -0.0912812,0.0317 -0.0456406,0.0139 -0.0773906,0.0139 -0.0277812,0 -0.0436562,-0.008 -0.015875,-0.006 -0.015875,-0.0159 0,-0.01 0.001984,-0.0119 0.001984,-0.002 0.005953,-0.01 0.003969,-0.01 0.005953,-0.0238 0.001984,-0.0159 0.005953,-0.0357 0.003969,-0.0278 0.007938,-0.0695 0.003969,-0.0437 0.007938,-0.0933 0.003969,-0.0516 0.005953,-0.10517 0.003969,-0.0556 0.003969,-0.10716 0,-0.0218 -0.001984,-0.0536 0,-0.0337 -0.001984,-0.0853 -0.001984,-0.0576 -0.0138906,-0.0972 -0.009922,-0.0417 -0.0277812,-0.0655 -0.015875,-0.0258 -0.0377031,-0.0377 -0.0198438,-0.0119 -0.0396875,-0.0119 -0.009922,0 -0.0198437,0 -0.009922,0 -0.0198437,0.002 -0.007938,0 -0.007938,-0.0179 0,-0.004 0.001984,-0.006 0.003969,-0.004 0.0198437,-0.0139 0.0257969,-0.0179 0.0694531,-0.0437 0.0436562,-0.0258 0.0892969,-0.0476 0.0456406,-0.0218 0.0853281,-0.0377 0.0416719,-0.0159 0.0635,-0.0159 0.0575469,0 0.0575469,0.0655 0,0.01 -0.001984,0.0357 -0.001984,0.0258 -0.003969,0.0536 0,0.0258 -0.001984,0.0496 -0.001984,0.0238 -0.001984,0.0317 0.0416719,-0.0397 0.0892969,-0.0814 0.047625,-0.0417 0.10318747,-0.0754 0.055562,-0.0357 0.1170782,-0.0575 0.061516,-0.0218 0.127,-0.0218 0.1190625,0 0.1944687,0.0694 0.077391,0.0675 0.077391,0.2163 0,0.0397 -0.00595,0.0933 -0.00397,0.0536 -0.00992,0.11112 -0.00595,0.0575 -0.011906,0.11311 -0.00397,0.0556 -0.00397,0.0992 0,0.15875 0.1031875,0.15875 0.019844,0 0.043656,-0.006 0.025797,-0.008 0.047625,-0.0159 0.023812,-0.01 0.041672,-0.0179 0.017859,-0.01 0.023813,-0.0159 0.00198,-0.002 0.00397,0.004 0.00397,0.004 0.00595,0.0119 0.00198,0.008 0,0.0139 0,0.006 -0.00198,0.008 -0.015875,0.01 -0.069453,0.0377 -0.051594,0.0278 -0.1170781,0.0575 -0.0635,0.0278 -0.127,0.0496 -0.0635,0.0238 -0.1012031,0.0238 -0.045641,0 -0.0635,-0.0218 -0.015875,-0.0218 -0.015875,-0.0456 0,-0.0159 0.00397,-0.0397 0.00595,-0.0238 0.013891,-0.0774 0.00794,-0.0575 0.013891,-0.13493 0.00794,-0.0774 0.00794,-0.16669 0,-0.17463 -0.065484,-0.26392 -0.0635,-0.0913 -0.1607344,-0.0913 -0.061516,0 -0.10914059,0.0238 -0.047625,0.0238 -0.0813594,0.0655 -0.0337344,0.0397 -0.0535781,0.0933 -0.0198438,0.0516 -0.0257969,0.11112 z"
         style=""
         id="path4723" />
      <path
         d="m 2.5445117,202.84589 q -0.021828,0.0179 -0.059531,0.0476 -0.037703,0.0298 -0.087312,0.0595 -0.049609,0.0298 -0.1091407,0.0516 -0.059531,0.0198 -0.1250156,0.0198 -0.099219,0 -0.1766094,-0.0337 -0.077391,-0.0357 -0.1309687,-0.0933 -0.051594,-0.0595 -0.079375,-0.1389 -0.025797,-0.0794 -0.025797,-0.16868 0,-0.10517 0.03175,-0.18653 0.03175,-0.0814 0.077391,-0.14089 0.047625,-0.0615 0.1012032,-0.1012 0.053578,-0.0417 0.097234,-0.0655 0.019844,-0.0119 0.049609,-0.0258 0.03175,-0.0139 0.067469,-0.0258 0.037703,-0.0119 0.079375,-0.0198 0.043656,-0.01 0.089297,-0.01 0.085328,0 0.1647032,0.0218 0.081359,0.0218 0.142875,0.0695 0.061516,0.0456 0.099219,0.11906 0.037703,0.0734 0.037703,0.17661 0,0.0833 -0.03175,0.15676 -0.029766,0.0734 -0.071438,0.13097 -0.041672,0.0575 -0.083344,0.0992 -0.039687,0.0397 -0.057547,0.0575 z m -0.2242344,0.0318 q 0.1131094,0 0.1726407,-0.0853 0.061516,-0.0853 0.061516,-0.26194 0,-0.0893 -0.025797,-0.1647 -0.023813,-0.0774 -0.069453,-0.13494 -0.043656,-0.0575 -0.1031875,-0.0893 -0.059531,-0.0337 -0.1289844,-0.0337 -0.049609,0 -0.09525,0.0258 -0.043656,0.0258 -0.077391,0.0754 -0.033734,0.0476 -0.053578,0.11708 -0.019844,0.0695 -0.019844,0.15677 0,0.0933 0.027781,0.16669 0.029766,0.0734 0.077391,0.12501 0.047625,0.0496 0.1071562,0.0774 0.061516,0.0258 0.127,0.0258 z"
         style=""
         id="path4725" />
      <path
         d="m 3.6750784,202.99472 q 0.00397,0 0.013891,-0.002 0.011906,-0.004 0.015875,-0.004 0.011906,0 0.013891,0.0159 0.00397,0.0159 -0.00397,0.0218 -0.015875,0.0119 -0.039688,0.0278 -0.023813,0.0159 -0.053578,0.0318 -0.027781,0.0179 -0.055562,0.0337 -0.027781,0.0159 -0.047625,0.0278 -0.011906,0.006 -0.035719,0.0179 -0.021828,0.0139 -0.045641,0.0258 -0.021828,0.0139 -0.041672,0.0218 -0.019844,0.01 -0.025797,0.01 -0.00992,0 -0.019844,-0.01 -0.00794,-0.01 -0.00794,-0.0179 0,-0.01 0.00198,-0.0119 0.00198,0 0.00794,-0.004 0.011906,-0.008 0.03175,-0.0198 0.021828,-0.0119 0.03175,-0.0516 0.00794,-0.0337 0.015875,-0.10319 0.00794,-0.0694 0.013891,-0.16074 0.00595,-0.0933 0.00992,-0.2024 0.00397,-0.11113 0.00397,-0.22821 0,-0.0436 0,-0.0833 0,-0.0417 -0.00198,-0.0734 -0.00397,0 -0.03175,-0.002 -0.025797,-0.004 -0.055563,-0.008 -0.029766,-0.004 -0.055562,-0.008 -0.023813,-0.006 -0.023813,-0.0139 0,-0.004 -0.00198,-0.0119 0,-0.008 0.015875,-0.0238 0.015875,-0.0159 0.037703,-0.0357 0.023813,-0.0198 0.045641,-0.0397 0.021828,-0.0198 0.039687,-0.0357 0.019844,-0.0159 0.029766,-0.0258 0.00198,-0.0595 0.00198,-0.10716 0.00198,-0.0496 0.00595,-0.0893 0.00397,-0.0496 0.015875,-0.0774 0.011906,-0.0298 0.033734,-0.0556 0.023813,-0.0278 0.093266,-0.0695 0.069453,-0.0437 0.1647031,-0.0893 0.033734,-0.0159 0.057547,-0.0278 0.025797,-0.0119 0.049609,-0.0179 0.023813,-0.008 0.049609,-0.0119 0.025797,-0.004 0.059531,-0.004 0.087312,0 0.1488281,0.0198 0.0635,0.0179 0.097234,0.0476 0,0.008 -0.025797,0.0337 -0.025797,0.0258 -0.059531,0.0595 -0.033734,0.0318 -0.067469,0.0655 -0.033734,0.0337 -0.049609,0.0575 -0.00595,0.01 -0.017859,0.006 -0.011906,-0.004 -0.00794,-0.0119 0.00397,-0.008 0.00595,-0.0159 0.00397,-0.008 0.00397,-0.0198 0,-0.0536 -0.053578,-0.0933 -0.053578,-0.0397 -0.1369218,-0.0397 -0.047625,0 -0.079375,0.0298 -0.03175,0.0278 -0.049609,0.0952 -0.015875,0.0635 -0.023813,0.14883 -0.00595,0.0833 -0.00992,0.21431 0.027781,0.006 0.071438,0.01 0.045641,0.002 0.097234,0.002 0.033734,0 0.073422,0 0.041672,0 0.079375,-0.002 0.039687,-0.002 0.073422,-0.004 0.035719,-0.004 0.057547,-0.01 0.00794,0.008 0.00794,0.0179 -0.027781,0.0417 -0.087312,0.0695 -0.059531,0.0258 -0.1289844,0.0437 -0.067469,0.0159 -0.1369218,0.0218 -0.067469,0.006 -0.111125,0.006 0,0.0337 -0.00198,0.0953 -0.00198,0.0595 -0.00397,0.12899 -0.00198,0.0694 -0.00397,0.14089 0,0.0694 0,0.12502 0,0.0456 0,0.0893 0.00198,0.0437 0.00397,0.0774 0.00198,0.0337 0.00595,0.0575 0.00595,0.0218 0.015875,0.0258 z"
         style=""
         id="path4727" />
      <path
         d="m 4.3199692,202.65936 q 0,0.0417 0.00198,0.0814 0.00198,0.0377 0.013891,0.0655 0.011906,0.0278 0.035719,0.0456 0.023813,0.0159 0.067469,0.0159 0.021828,0 0.049609,-0.004 0.027781,-0.006 0.051594,-0.0139 0.025797,-0.008 0.043656,-0.0159 0.019844,-0.008 0.023813,-0.0119 0.00595,-0.006 0.00794,0 0.00198,0.006 0,0.0159 0,0.008 -0.00397,0.0179 -0.00397,0.008 -0.00992,0.0119 -0.019844,0.01 -0.069453,0.0357 -0.049609,0.0258 -0.1170782,0.0536 -0.0635,0.0278 -0.1250156,0.0476 -0.059531,0.0179 -0.099219,0.0179 -0.045641,0 -0.071438,-0.0278 -0.025797,-0.0278 -0.025797,-0.0695 0,-0.0139 0,-0.0238 0.00198,-0.01 0.00397,-0.0258 0.00198,-0.0198 0.00595,-0.0714 0.00595,-0.0536 0.00992,-0.11907 0.00595,-0.0655 0.00992,-0.13096 0.00397,-0.0675 0.00397,-0.1151 l 0,-0.0694 q 0,-0.0516 -0.00595,-0.0913 -0.00595,-0.0397 -0.019844,-0.0615 -0.00992,-0.0139 -0.025797,-0.0218 -0.013891,-0.01 -0.035719,-0.01 -0.011906,0 -0.023813,0.006 -0.011906,0.004 -0.017859,0.004 -0.00397,0 -0.013891,-0.0119 -0.00794,-0.0119 0.00198,-0.0179 0.013891,-0.01 0.057547,-0.0317 0.043656,-0.0218 0.09525,-0.0476 0.055562,-0.0278 0.1071563,-0.0476 0.051594,-0.0218 0.073422,-0.0218 0.021828,0 0.029766,0.0139 0.00794,0.0119 0.00794,0.0278 l 0,0.008 q 0,0.0198 -0.00595,0.0635 -0.00595,0.0437 -0.013891,0.10716 -0.00595,0.0635 -0.011906,0.14684 -0.00595,0.0833 -0.00595,0.18058 l 0,0.0952 z m -0.079375,-1.03188 q 0.00992,0.002 0.03175,0.0218 0.023813,0.0198 0.047625,0.0456 0.023813,0.0258 0.041672,0.0496 0.017859,0.0238 0.017859,0.0317 0,0.01 -0.023813,0.0298 -0.023813,0.0198 -0.055562,0.0417 -0.029766,0.0198 -0.059531,0.0357 -0.027781,0.0159 -0.039688,0.0159 -0.00595,0 -0.029766,-0.0179 -0.021828,-0.0198 -0.045641,-0.0437 -0.023813,-0.0238 -0.043656,-0.0456 -0.017859,-0.0238 -0.017859,-0.0318 0,-0.01 0.025797,-0.0298 0.025797,-0.0218 0.055563,-0.0437 0.03175,-0.0238 0.059531,-0.0397 0.029766,-0.0179 0.035719,-0.0199 z"
         style=""
         id="path4729" />
      <path
         d="m 5.2217436,202.80223 q 0.011906,0.008 0.011906,0.0198 0,0.0159 -0.045641,0.0417 -0.047625,0.0278 -0.127,0.0655 -0.077391,0.0377 -0.1547813,0.0655 -0.037703,0.0139 -0.067469,0.0238 -0.029766,0.01 -0.053578,0.01 -0.027781,0 -0.069453,-0.0139 -0.039688,-0.0119 -0.069453,-0.0298 -0.023813,-0.0159 -0.037703,-0.0238 -0.013891,-0.01 -0.013891,-0.0198 0,-0.008 0.00397,-0.0139 0.00595,-0.008 0.00992,-0.0179 0.00198,-0.006 0.00397,-0.0159 0.00198,-0.01 0.00198,-0.0198 0.00595,-0.0496 0.011906,-0.14288 0.00794,-0.0953 0.011906,-0.20835 0.00397,-0.1151 0.00595,-0.23615 0.00397,-0.12303 0.00397,-0.2282 0,-0.12898 -0.00198,-0.20836 0,-0.0794 -0.00397,-0.127 -0.00595,-0.0655 -0.015875,-0.0853 -0.00992,-0.0218 -0.021828,-0.0318 -0.013891,-0.0119 -0.027781,-0.0139 -0.011906,-0.004 -0.023813,-0.004 -0.00992,-0.002 -0.017859,-0.002 -0.00595,0 -0.00595,-0.004 0,-0.0655 0.055562,-0.0655 0.041672,0 0.097234,0.002 0.057547,0 0.09525,0 0.023813,0 0.049609,-0.002 0.027781,-0.004 0.053578,-0.006 0.025797,-0.004 0.047625,-0.008 0.021828,-0.004 0.03175,-0.008 0.00794,-0.002 0.011906,0.006 0.00595,0.008 0.00595,0.0198 0.00198,0.0119 -0.00397,0.0218 -0.00397,0.01 -0.011906,0.0119 -0.011906,0.002 -0.021828,0.002 -0.00794,0 -0.029766,0.008 -0.00992,0.004 -0.017859,0.0258 -0.00794,0.0198 -0.013891,0.0655 -0.00595,0.0437 -0.011906,0.11708 -0.00595,0.0714 -0.011906,0.18058 -0.00595,0.0873 -0.00992,0.17859 -0.00198,0.0893 -0.00595,0.17463 -0.00198,0.0853 -0.00397,0.15875 0,0.0734 0,0.12501 0,0.0575 0,0.11708 0.00198,0.0576 0.011906,0.0913 0.00992,0.0317 0.051594,0.0595 0.041672,0.0278 0.087313,0.0278 0.035719,0 0.073422,-0.01 0.037703,-0.01 0.069453,-0.0238 0.03175,-0.0139 0.055562,-0.0278 0.025797,-0.0139 0.037703,-0.0218 z"
         style=""
         id="path4731" />
      <path
         d="m 6.0302524,202.72881 q 0.00397,-0.004 0.00595,0.002 0.00397,0.004 0.00397,0.0139 0.00198,0.008 0,0.0179 -0.00198,0.01 -0.00794,0.0159 -0.039687,0.0377 -0.099219,0.0794 -0.059531,0.0417 -0.1230313,0.0774 -0.017859,0.01 -0.049609,0.0258 -0.03175,0.0159 -0.071438,0.0317 -0.037703,0.0139 -0.079375,0.0238 -0.039687,0.0119 -0.075406,0.0119 -0.071438,0 -0.1349375,-0.0278 -0.0635,-0.0278 -0.111125,-0.0754 -0.047625,-0.0496 -0.075406,-0.11707 -0.025797,-0.0675 -0.025797,-0.14685 0,-0.0853 0.023813,-0.16073 0.023813,-0.0754 0.053578,-0.13494 0.03175,-0.0595 0.059531,-0.0992 0.027781,-0.0417 0.037703,-0.0615 -0.037703,-0.002 -0.069453,-0.002 -0.029766,-0.002 -0.057547,-0.002 -0.0635,0 -0.1071563,0.002 -0.043656,0 -0.077391,0.008 -0.015875,0.004 -0.029766,0.0159 -0.013891,0.0119 -0.023813,0.0179 -0.00397,-0.004 -0.00992,-0.01 -0.00794,-0.008 -0.00794,-0.0159 0,-0.004 0.00198,-0.006 0,-0.002 0.025797,-0.0218 0.025797,-0.0218 0.0635,-0.0496 0.039688,-0.0298 0.085328,-0.0635 0.047625,-0.0357 0.089297,-0.0655 0.043656,-0.0298 0.073422,-0.0496 0.03175,-0.0218 0.041672,-0.0258 0.011906,-0.004 0.023813,0.004 0.011906,0.008 0.00794,0.0119 -0.00595,0.004 -0.017859,0.0159 -0.011906,0.01 -0.00794,0.0179 0.021828,0.0179 0.075406,0.0318 0.053578,0.0139 0.1210468,0.0238 0.067469,0.008 0.1389063,0.0139 0.071438,0.004 0.1289844,0.004 0.085328,0 0.1369218,-0.004 0.051594,-0.006 0.085328,-0.0139 0.03175,-0.008 0.041672,-0.0119 0.00198,0 0.00794,0.006 0.00595,0.006 0.00595,0.0139 0,0.004 -0.029766,0.0198 -0.027781,0.0159 -0.057547,0.0337 -0.017859,0.01 -0.043656,0.0258 -0.023813,0.0159 -0.053578,0.0318 -0.027781,0.0139 -0.059531,0.0258 -0.03175,0.0119 -0.061516,0.0139 -0.029766,0.004 -0.069453,0.006 -0.039687,0.002 -0.083344,0.004 -0.043656,0 -0.089297,0.002 -0.043656,0 -0.081359,0 -0.00595,0.01 -0.019844,0.0337 -0.011906,0.0218 -0.023813,0.0575 -0.011906,0.0357 -0.021828,0.0814 -0.00992,0.0456 -0.00992,0.0992 0,0.0814 0.023813,0.15081 0.025797,0.0675 0.069453,0.11708 0.045641,0.0496 0.1071562,0.0774 0.061516,0.0278 0.1329531,0.0278 0.041672,0 0.079375,-0.01 0.039688,-0.01 0.073422,-0.0258 0.035719,-0.0159 0.065484,-0.0337 0.029766,-0.0198 0.051594,-0.0377 l 0.023813,-0.0218 z"
         style=""
         id="path4733" />
      <path
         d="m 6.9445532,202.77247 q -0.021828,0.0238 -0.067469,0.0655 -0.045641,0.0417 -0.111125,0.0833 -0.0635,0.0417 -0.142875,0.0714 -0.079375,0.0298 -0.1686719,0.0298 -0.081359,0 -0.15875,-0.0238 -0.077391,-0.0258 -0.1389063,-0.0754 -0.061516,-0.0516 -0.099219,-0.12899 -0.035719,-0.0794 -0.035719,-0.18851 0,-0.0893 0.011906,-0.1528 0.011906,-0.0655 0.03175,-0.11311 0.019844,-0.0496 0.043656,-0.0833 0.025797,-0.0357 0.051594,-0.0635 0.03175,-0.0357 0.077391,-0.0675 0.045641,-0.0318 0.097234,-0.0576 0.053578,-0.0258 0.111125,-0.0397 0.059531,-0.0159 0.1190625,-0.0159 0.1071562,0 0.1666875,0.0357 0.061516,0.0357 0.061516,0.0992 0,0.0397 -0.023813,0.0734 0.019844,-0.006 0.049609,-0.0198 0.03175,-0.0139 0.0635,-0.0278 0.03175,-0.0159 0.055563,-0.0278 0.025797,-0.0119 0.033734,-0.0179 0.00397,-0.004 0.00794,-0.002 0.00595,0 0.00595,0.006 0,0.0258 -0.00992,0.0437 -0.00992,0.0159 -0.023813,0.0258 -0.03175,0.0198 -0.091281,0.0496 -0.059531,0.0298 -0.1329532,0.0635 -0.071438,0.0318 -0.1488281,0.0655 -0.077391,0.0317 -0.1468437,0.0615 -0.067469,0.0298 -0.1190625,0.0536 -0.049609,0.0218 -0.067469,0.0317 0,0.0675 0.025797,0.127 0.027781,0.0575 0.075406,0.10121 0.047625,0.0436 0.1131094,0.0694 0.067469,0.0238 0.1468438,0.0238 0.071438,0 0.1289843,-0.0139 0.057547,-0.0159 0.097234,-0.0337 0.039687,-0.0199 0.061516,-0.0337 0.023813,-0.0159 0.025797,-0.0159 0.00794,0 0.015875,0.008 0.00794,0.006 0.00794,0.0139 z m -0.6985,-0.30361 q 0.033734,-0.0119 0.075406,-0.0278 0.043656,-0.0179 0.083344,-0.0377 0.041672,-0.0198 0.075406,-0.0377 0.033734,-0.0179 0.051594,-0.0317 0.035719,-0.0258 0.035719,-0.0873 0,-0.0238 -0.00992,-0.0496 -0.00794,-0.0258 -0.025797,-0.0456 -0.017859,-0.0218 -0.043656,-0.0337 -0.025797,-0.0139 -0.057547,-0.0139 -0.027781,0 -0.059531,0.0198 -0.03175,0.0179 -0.059531,0.0615 -0.027781,0.0417 -0.047625,0.11311 -0.017859,0.0694 -0.017859,0.17066 z"
         style=""
         id="path4735" />
      <path
         d="m 7.8669775,202.16128 q -0.021828,0.0179 -0.051594,0.0456 -0.029766,0.0258 -0.0635,0.0516 -0.03175,0.0238 -0.065484,0.0417 -0.033734,0.0179 -0.065484,0.0179 -0.027781,0 -0.049609,-0.0119 -0.021828,-0.0139 -0.041672,-0.0278 -0.017859,-0.0159 -0.035719,-0.0278 -0.017859,-0.0139 -0.037703,-0.0139 -0.053578,0 -0.091281,0.0436 -0.035719,0.0437 -0.059531,0.11113 -0.021828,0.0675 -0.033734,0.14684 -0.00992,0.0794 -0.00992,0.1528 0,0.0615 0.00397,0.1012 0.00595,0.0377 0.015875,0.0615 0.00992,0.0218 0.025797,0.0298 0.017859,0.008 0.041672,0.008 0.025797,0 0.055562,-0.008 0.00595,-0.002 0.00794,0.008 0.00397,0.01 0.00397,0.0159 0,0.004 -0.00595,0.01 -0.00595,0.004 -0.00794,0.004 -0.043656,0.0179 -0.089297,0.0397 -0.045641,0.0198 -0.075406,0.0337 -0.027781,0.0119 -0.067469,0.0258 -0.037703,0.0139 -0.065484,0.0139 -0.03175,0 -0.053578,-0.01 -0.019844,-0.01 -0.019844,-0.0198 0,-0.01 0.00397,-0.0179 0.00595,-0.008 0.00992,-0.0298 0.00397,-0.0298 0.00794,-0.0694 0.00595,-0.0417 0.00992,-0.0893 0.00595,-0.0476 0.00794,-0.0972 0.00397,-0.0516 0.00397,-0.1012 0,-0.11113 -0.00794,-0.18852 -0.00595,-0.0774 -0.023813,-0.12502 -0.017859,-0.0476 -0.049609,-0.0675 -0.029766,-0.0218 -0.077391,-0.0218 -0.00992,0 -0.017859,0 -0.00794,0 -0.015875,0.002 -0.011906,0 -0.011906,-0.0119 0,-0.0119 0.011906,-0.0179 0.021828,-0.0139 0.067469,-0.0397 0.045641,-0.0278 0.093266,-0.0516 0.049609,-0.0258 0.09525,-0.0457 0.045641,-0.0198 0.067469,-0.0198 0.025797,0 0.043656,0.0179 0.017859,0.0159 0.025797,0.0417 0.00992,0.0258 0.013891,0.0595 0.00397,0.0318 0.00397,0.0635 0,0.0238 -0.00198,0.0496 0,0.0258 0,0.0556 0.089297,-0.13097 0.1607344,-0.20241 0.071438,-0.0734 0.1349375,-0.0734 0.023813,0 0.045641,0.0198 0.023813,0.0198 0.049609,0.0456 0.025797,0.0238 0.053578,0.0437 0.027781,0.0198 0.057547,0.0198 0.025797,0 0.037703,-0.006 0.011906,-0.006 0.019844,-0.01 0.015875,0 0.015875,0.0218 l 0,0.002 z"
         style=""
         id="path4737" />
    </g>
    <g
       id="g4599"
       transform="translate(-7.875766,196.49672)"
       clip-path="url(#clipPath4668)">
      <g
         style="display:inline"
         transform="translate(0,-196.45832)"
         id="layer1-0"
         inkscape:label="Layer 1">
        <g
           id="flowRoot4136-2"
           style="font-style:normal;font-variant:normal;font-weight:normal;font-stretch:normal;font-size:10px;line-height:125%;font-family:'Trajan Pro 3';-inkscape-font-specification:'Trajan Pro 3, ';letter-spacing:0px;word-spacing:0px;fill:#000000;fill-opacity:1;stroke:none;stroke-width:1px;stroke-linecap:butt;stroke-linejoin:miter;stroke-opacity:1"
           transform="matrix(0.26458334,0,0,0.26458334,-58.459936,293.81811)" />
        <g
           id="flowRoot5341-9"
           style="font-style:normal;font-weight:normal;font-size:10px;line-height:125%;font-family:sans-serif;letter-spacing:0px;word-spacing:0px;fill:#000000;fill-opacity:1;stroke:none;stroke-width:1px;stroke-linecap:butt;stroke-linejoin:miter;stroke-opacity:1"
           transform="matrix(0.26458334,0,0,0.26458334,-58.459936,115.92228)" />
        <g
           transform="matrix(0.26458334,0,0,0.26458334,-59.404877,294.76305)"
           inkscape:label="Layer 2"
           id="layer2-1" />
        <g
           transform="translate(-3.9687498,0)"
           id="g5028">
          <path
             id="path4187"
             d="m 14.199453,292.6152 a 2.800842,1.0121423 0 0 1 -2.800842,1.01215 2.800842,1.0121423 0 0 1 -2.800842,-1.01215 2.800842,1.0121423 0 0 1 2.800842,-1.01214 2.800842,1.0121423 0 0 1 2.800842,1.01214 z"
             clip-path="url(#clipPath5181-5)"
             style="opacity:0;fill:url(#linearGradient4195);fill-opacity:1;stroke:none;stroke-width:0.2;stroke-miterlimit:4;stroke-dasharray:none;stroke-opacity:1"
             inkscape:connector-curvature="0" />
          <path
             transform="matrix(1.3757714,0,0,1.300851,-1.514541,-87.749882)"
             sodipodi:nodetypes="ccccccccccccccccc"
             inkscape:connector-curvature="0"
             id="path4209"
             d="m 2.826339,292.08697 3.148468,-1.95398 0.6343206,1.31705 0.6173183,-1.15103 0.3763457,0.8637 -0.00717,-1.08548 1.0063768,1.04201 0.5568003,-1.20587 0.6385414,1.08288 0.4341889,-0.67455 0.5568,0.75592 0.720283,-1.04239 0.148094,1.08288 1.292471,-1.12413 -0.469431,1.82691 -8.4407986,0.25065 z"
             style="fill:#000000;fill-opacity:1;fill-rule:evenodd;stroke:none;stroke-width:1px;stroke-linecap:butt;stroke-linejoin:miter;stroke-opacity:1"
             clip-path="url(#clipPath5177-0)" />
        </g>
        <g
           id="flowRoot6030-0"
           style="font-size:7.5px;opacity:1;fill:#ffffff;fill-opacity:1;stroke:#9f9f9f;stroke-width:1.77165353;stroke-miterlimit:4;stroke-dasharray:none;stroke-opacity:1" />
      </g>
      <g
         style="display:none"
         inkscape:label="widgets"
         id="layer3-0">
        <rect
           y="51.120346"
           x="22.004379"
           height="5.5571499"
           width="5.6426449"
           id="rect5091-1"
           style="display:inline;opacity:1;fill:#ff0200;fill-opacity:1;stroke:none;stroke-width:1;stroke-miterlimit:4;stroke-dasharray:none;stroke-opacity:1" />
        <rect
           y="45.009415"
           x="22.084158"
           height="5.2151713"
           width="5.2151713"
           id="rect5093-2"
           style="display:inline;opacity:1;fill:#00ff00;fill-opacity:1;stroke:none;stroke-width:1;stroke-miterlimit:4;stroke-dasharray:none;stroke-opacity:1" />
        <rect
           y="83.223175"
           x="22.38339"
           height="5.3861609"
           width="5.3861609"
           id="rect4969-3"
           style="display:inline;opacity:1;fill:#0000ff;fill-opacity:1;stroke:none;stroke-width:1;stroke-miterlimit:4;stroke-dasharray:none;stroke-opacity:1" />
        <rect
           y="75.108711"
           x="2.3290534"
           height="5.5909305"
           width="5.3546834"
           id="rect4975-9"
           style="display:inline;opacity:1;fill:#00ff00;fill-opacity:1;stroke:none;stroke-width:1;stroke-miterlimit:4;stroke-dasharray:none;stroke-opacity:1" />
        <rect
           y="44.95977"
           x="2.4403408"
           height="5.5571499"
           width="5.5571499"
           id="rect4979-4"
           style="display:inline;opacity:1;fill:#00ff00;fill-opacity:1;stroke:none;stroke-width:1;stroke-miterlimit:4;stroke-dasharray:none;stroke-opacity:1" />
        <rect
           y="44.461246"
           x="11.818956"
           height="5.7281394"
           width="5.7281394"
           id="rect4981-2"
           style="display:inline;opacity:1;fill:#00ff00;fill-opacity:1;stroke:none;stroke-width:1;stroke-miterlimit:4;stroke-dasharray:none;stroke-opacity:1" />
        <rect
           y="27.209215"
           x="21.57119"
           height="5.8136339"
           width="5.8136339"
           id="rect4983-6"
           style="display:inline;opacity:1;fill:#00ff00;fill-opacity:1;stroke:none;stroke-width:1;stroke-miterlimit:4;stroke-dasharray:none;stroke-opacity:1" />
        <rect
           y="27.43049"
           x="12.466015"
           height="5.5571499"
           width="5.5571499"
           id="rect4989-1"
           style="display:inline;opacity:1;fill:#00ff00;fill-opacity:1;stroke:none;stroke-width:1;stroke-miterlimit:4;stroke-dasharray:none;stroke-opacity:1" />
        <rect
           y="17.041332"
           x="2.3290534"
           height="5.3006663"
           width="5.3006663"
           id="rect4991-6"
           style="display:inline;opacity:1;fill:#00ff00;fill-opacity:1;stroke:none;stroke-width:1;stroke-miterlimit:4;stroke-dasharray:none;stroke-opacity:1" />
        <rect
           y="27.470434"
           x="2.7565265"
           height="5.7281394"
           width="5.7281394"
           id="rect5041-6"
           style="display:inline;opacity:1;fill:#00ff00;fill-opacity:1;stroke:none;stroke-width:1;stroke-miterlimit:4;stroke-dasharray:none;stroke-opacity:1" />
        <rect
           y="34.256905"
           x="2.7565265"
           height="5.7281394"
           width="5.7281394"
           id="rect5043-5"
           style="display:inline;opacity:1;fill:#ff0000;fill-opacity:1;stroke:none;stroke-width:1;stroke-miterlimit:4;stroke-dasharray:none;stroke-opacity:1" />
        <rect
           y="34.045975"
           x="12.722499"
           height="5.3861609"
           width="5.0441828"
           id="rect5045-6"
           style="display:inline;opacity:1;fill:#ff0000;fill-opacity:1;stroke:none;stroke-width:1;stroke-miterlimit:4;stroke-dasharray:none;stroke-opacity:1" />
        <rect
           y="34.081181"
           x="21.784927"
           height="5.3861609"
           width="5.3861609"
           id="rect5047-8"
           style="display:inline;opacity:1;fill:#ff0000;fill-opacity:1;stroke:none;stroke-width:1;stroke-miterlimit:4;stroke-dasharray:none;stroke-opacity:1" />
        <rect
           y="51.205566"
           x="12.20437"
           height="5.4716558"
           width="5.4716558"
           id="rect5049-9"
           style="display:inline;opacity:1;fill:#ff0000;fill-opacity:1;stroke:none;stroke-width:1;stroke-miterlimit:4;stroke-dasharray:none;stroke-opacity:1" />
        <rect
           y="77.941887"
           x="12.046068"
           height="5.4716558"
           width="5.3006663"
           id="rect5053-4"
           style="display:inline;opacity:1;fill:#ff0000;fill-opacity:1;stroke:none;stroke-width:1;stroke-miterlimit:4;stroke-dasharray:none;stroke-opacity:1" />
        <rect
           y="83.479645"
           x="2.3290534"
           height="5.4586453"
           width="5.6426449"
           id="rect4923-7"
           style="display:inline;opacity:1;fill:#00ff00;fill-opacity:1;stroke:none;stroke-width:1;stroke-miterlimit:4;stroke-dasharray:none;stroke-opacity:1" />
        <rect
           y="17.126818"
           x="10.15766"
           height="5.2151713"
           width="5.2151713"
           id="rect4945-4"
           style="display:inline;opacity:1;fill:#ff0000;fill-opacity:1;stroke:none;stroke-width:1;stroke-miterlimit:4;stroke-dasharray:none;stroke-opacity:1" />
        <rect
           y="74.894981"
           x="22.38339"
           height="5.4716554"
           width="5.6302543"
           id="rect4947-6"
           style="display:inline;opacity:1;fill:#0000ff;fill-opacity:1;stroke:none;stroke-width:1;stroke-miterlimit:4;stroke-dasharray:none;stroke-opacity:1" />
        <rect
           y="10.316954"
           x="2.2228601"
           height="5.4716558"
           width="5.4716558"
           id="rect5332-8"
           style="display:inline;opacity:1;fill:#00ff00;fill-opacity:1;stroke:none;stroke-width:1;stroke-miterlimit:4;stroke-dasharray:none;stroke-opacity:1" />
      </g>
    </g>
    <path
       transform="translate(-0.00331824,0.0454744)"
       style="display:inline;opacity:1;fill:url(#radialGradient5357);fill-opacity:1;stroke:#8b8b8b;stroke-width:0.39687502;stroke-linejoin:miter;stroke-miterlimit:4;stroke-dasharray:none;stroke-opacity:1"
       d="m 20.094988,295.06553 -17.0428228,-0.12503 -14.4172472,0.12503 -0.878733,-3.46985 c 4.809927,-1.00484 10.7504003,-1.72449 16.1711726,-1.71947 5.7152827,0.005 9.8861174,0.46573 17.0463624,1.84449 z"
       id="path5329"
       inkscape:connector-curvature="0"
       sodipodi:nodetypes="ccccacc"
       clip-path="url(#clipPath5944)" />
    <path
       transform="translate(-0.00331824,0.0454744)"
       sodipodi:nodetypes="ccccc"
       inkscape:connector-curvature="0"
       id="rect5381"
       d="m -15.62179,292.12562 c 10.9044163,-1.20984 21.5456674,-0.98968 31.749998,0.12269 l -0.03339,3.29649 H -15.62179 Z"
       style="display:inline;opacity:1;fill:#000000;fill-opacity:1;stroke:none;stroke-width:1.00699997;stroke-linejoin:miter;stroke-miterlimit:4;stroke-dasharray:none;stroke-opacity:1"
       clip-path="url(#clipPath5940)" />
    <g
       style="display:inline"
       transform="matrix(0.23844891,0,0,0.23844891,-62.321673,294.08167)"
       id="g5348"
       clip-path="url(#clipPath5936)">
      <path
         style="fill:#000000;fill-opacity:1;fill-rule:evenodd;stroke:none;stroke-width:1px;stroke-linecap:butt;stroke-linejoin:miter;stroke-opacity:1"
         d="m 291.23228,-10.52707 6.43066,-3.03395 5.95249,-0.742 4.22115,0.51115 5.88653,2.16005 4.68284,4.36955 z"
         id="path4179"
         inkscape:connector-curvature="0" />
      <g
         inkscape:label="Back"
         id="layer2-0"
         transform="translate(109.83831,-148.57805)">
        <g
           inkscape:label="Back"
           id="layer2-5"
           transform="matrix(0.09824765,0,0,0.06980857,176.35705,132.53479)"
           style="stroke:#ffffff;stroke-opacity:1">
          <g
             id="g2838"
             style="stroke:#ffffff;stroke-opacity:1" />
          <g
             id="g2852"
             style="stroke:#ffffff;stroke-opacity:1">
            <path
               d="m 2.1174,188.81 18.113,36.226 65.551,31.913 90.564,13.8 94.877,-11.213 60.376,-31.913 14.663,-30.188 -14.663,-37.951 0.32345,67.923 -33.099,-64.473 -25.876,96.602 -58.651,-80.214 -40.538,91.427 -40.538,-75.902 -46.576,61.239 -17.098,-92.852 -49.316,62.663 6.0376,-89.702 44.241,27.296 63.574,32.218 79.999,-16.819 86.467,-15.957 31.051,-3.6657 -33.27949,-62.050611 1.366,64.853611 -64.689,-74.392 -20.7,91.427 -69.001,-66.198 -75.902,50.026 15.35717,-82.554584 -59.34617,55.816584 24.151,-56.064 h 34.501 l 81.077,-37.088 -18.975,69.864 89.702,-24.151 62.101,7.7627 -66.314,-54.334 4.2124,46.571 -70.726,-45.713 66.414,-1.725 -53.476,-15.525 -12.938,16.388 -49.164,-6.9001 -66.414,44.851 -33.333,49.416 9.1828,6.6475 -23.288,52.614 z"
               style="color:#000000;fill:none;stroke:#ffffff;stroke-width:2.89188218;stroke-linejoin:bevel;stroke-miterlimit:4;stroke-dasharray:none;stroke-opacity:1"
               sodipodi:nodetypes="ccccccccccccccccccccccccccccccccccccccccccccccccc"
               id="path3614"
               inkscape:connector-curvature="0" />
            <path
               d="M 133.17,195.51 146.16,114.634 84.75317,79.116604 116.834,34.42 l 28.463,-4.3126 32.776,-5.1751 41.401,6.9001 12.938,10.35 47.438,20.7 18.975,34.501 30.188,30.188 2.8032,31.913"
               style="color:#000000;fill:none;stroke:#ffffff;stroke-width:2.89188218;stroke-linejoin:bevel;stroke-miterlimit:4;stroke-dasharray:none;stroke-opacity:1"
               sodipodi:nodetypes="cccccccccccc"
               id="path3616"
               inkscape:connector-curvature="0" />
            <path
               d="M 329.01,126.71 279.85,62.88 220.08,31.83"
               style="color:#000000;fill:none;stroke:#ffffff;stroke-width:2;stroke-linejoin:bevel;stroke-opacity:1"
               sodipodi:nodetypes="ccc"
               id="path3618"
               inkscape:connector-curvature="0" />
            <path
               d="M 1.9262189,188.1862 16.108581,129.83899"
               style="color:#000000;fill:none;stroke:#ffffff;stroke-width:2;stroke-linejoin:bevel;stroke-opacity:1"
               id="path3620"
               inkscape:connector-curvature="0"
               sodipodi:nodetypes="cc" />
          </g>
        </g>
      </g>
      <path
         style="fill:none;fill-rule:evenodd;stroke:#ffffff;stroke-width:0.2;stroke-linecap:butt;stroke-linejoin:miter;stroke-miterlimit:4;stroke-dasharray:none;stroke-opacity:1"
         d="m 320.18675,-2.24965 -1.66538,-4.93018"
         id="path4177"
         inkscape:connector-curvature="0" />
      <path
         inkscape:connector-curvature="0"
         style="opacity:0;fill:#000000;fill-opacity:1;stroke:none;stroke-width:0.2;stroke-miterlimit:4;stroke-dasharray:none;stroke-opacity:1"
         d="m 320.99471,-0.40290931 a 12.102836,4.2211528 0 0 1 -12.10283,4.22115281 12.102836,4.2211528 0 0 1 -12.10284,-4.22115281 12.102836,4.2211528 0 0 1 12.10284,-4.22115279 12.102836,4.2211528 0 0 1 12.10283,4.22115279 z"
         id="path4183" />
    </g>
    <g
       style="font-size:1.98437524px;display:inline;opacity:1;fill:#ffffff;fill-opacity:1;stroke:none;stroke-width:0.2;stroke-miterlimit:10;stroke-dasharray:none;stroke-opacity:1"
       id="text6429"
       transform="matrix(0.77203451,0,0,1,-1.2578547,0.0454744)"
       clip-path="url(#clipPath5924)">
      <path
         d="m 2.8350986,295.53399 v 0.16859 q -0.075577,-0.0387 -0.1569672,-0.0581 -0.08139,-0.0194 -0.1685944,-0.0194 -0.1327438,0 -0.1996002,0.0407 -0.065888,0.0407 -0.065888,0.12209 0,0.062 0.047478,0.0979 0.047478,0.0349 0.1908798,0.0669 l 0.061043,0.0136 q 0.1899109,0.0407 0.2693634,0.11531 0.080421,0.0736 0.080421,0.20638 0,0.15115 -0.1201477,0.23933 -0.1191788,0.0882 -0.3284684,0.0882 -0.087204,0 -0.1821594,-0.0174 -0.093987,-0.0165 -0.1986313,-0.0504 v -0.18409 q 0.098831,0.0514 0.1947555,0.0775 0.095924,0.0252 0.189911,0.0252 0.1259613,0 0.1937866,-0.0426 0.067825,-0.0436 0.067825,-0.12209 0,-0.0727 -0.049416,-0.11142 -0.048447,-0.0388 -0.2141342,-0.0746 l -0.062012,-0.0145 q -0.1656876,-0.0349 -0.2393265,-0.10658 -0.073639,-0.0727 -0.073639,-0.19863 0,-0.15309 0.1085206,-0.23642 0.1085205,-0.0833 0.3081207,-0.0833 0.098831,0 0.1860352,0.0145 0.087204,0.0145 0.1608429,0.0436 z"
         id="path6460"
         inkscape:connector-curvature="0" />
      <path
         d="m 4.8621069,295.62701 q -0.1434021,0 -0.2267304,0.11239 -0.083328,0.11143 -0.083328,0.30619 0,0.19475 0.082359,0.30715 0.083328,0.11142 0.2276993,0.11142 0.1424332,0 0.2257614,-0.11239 0.083328,-0.1124 0.083328,-0.30618 0,-0.19282 -0.083328,-0.30522 -0.083328,-0.11336 -0.2257613,-0.11336 z m 0,-0.15116 q 0.2325439,0 0.3652878,0.15116 0.1327438,0.15115 0.1327438,0.41858 0,0.26645 -0.1327438,0.41857 -0.1327439,0.15116 -0.3652878,0.15116 -0.2335129,0 -0.3662568,-0.15116 -0.1317749,-0.15212 -0.1317749,-0.41857 0,-0.26743 0.1317749,-0.41858 0.1327439,-0.15116 0.3662568,-0.15116 z"
         id="path6462"
         inkscape:connector-curvature="0" />
      <path
         d="m 6.8997734,296.15895 v -0.65694 h 0.1782837 v 0.65016 q 0,0.15406 0.060074,0.23157 0.060074,0.0765 0.1802215,0.0765 0.1443711,0 0.2276993,-0.092 0.084297,-0.0921 0.084297,-0.25095 v -0.61528 h 0.1782837 v 1.08521 H 7.6303489 v -0.16666 q -0.064919,0.0988 -0.1511536,0.14728 -0.085266,0.0475 -0.1986313,0.0475 -0.1870041,0 -0.2838974,-0.11627 -0.096893,-0.11628 -0.096893,-0.3401 z"
         id="path6464"
         inkscape:connector-curvature="0" />
      <path
         d="m 9.6176312,295.19389 v 0.30812 h 0.3672257 v 0.13856 H 9.6176312 v 0.58911 q 0,0.13275 0.035851,0.17054 0.036819,0.0378 0.1482468,0.0378 h 0.1831283 v 0.14922 H 9.801729 q -0.2063828,0 -0.2848664,-0.0765 -0.078484,-0.0775 -0.078484,-0.28099 v -0.58911 h -0.130806 v -0.13856 h 0.130806 v -0.30812 h 0.1792526 z"
         id="path6466"
         inkscape:connector-curvature="0" />
      <path
         d="m 12.385873,295.93222 v 0.655 h -0.178284 v -0.64919 q 0,-0.15406 -0.06007,-0.2306 -0.06007,-0.0765 -0.180222,-0.0765 -0.144371,0 -0.227699,0.0921 -0.08333,0.092 -0.08333,0.25095 v 0.61334 h -0.179252 v -1.50766 h 0.179252 v 0.59105 q 0.06395,-0.0979 0.150185,-0.14631 0.0872,-0.0485 0.200569,-0.0485 0.187004,0 0.282929,0.11627 0.09592,0.11531 0.09592,0.3401 z"
         id="path6468"
         inkscape:connector-curvature="0" />
      <path
         d="m 14.179368,296.42444 v 0.57554 h -0.179252 v -1.49797 h 0.179252 v 0.16472 q 0.0562,-0.0969 0.141465,-0.1434 0.08624,-0.0475 0.205413,-0.0475 0.197663,0 0.320717,0.15697 0.124024,0.15697 0.124024,0.41277 0,0.25579 -0.124024,0.41276 -0.123054,0.15697 -0.320717,0.15697 -0.119178,0 -0.205413,-0.0465 -0.08527,-0.0475 -0.141465,-0.14437 z m 0.606552,-0.37885 q 0,-0.1967 -0.08139,-0.30813 -0.08042,-0.11239 -0.221886,-0.11239 -0.141464,0 -0.222854,0.11239 -0.08042,0.11143 -0.08042,0.30813 0,0.19669 0.08042,0.30909 0.08139,0.11142 0.222854,0.11142 0.141465,0 0.221886,-0.11142 0.08139,-0.1124 0.08139,-0.30909 z"
         id="path6470"
         inkscape:connector-curvature="0" />
      <path
         d="m 16.950518,295.62701 q -0.143402,0 -0.22673,0.11239 -0.08333,0.11143 -0.08333,0.30619 0,0.19475 0.08236,0.30715 0.08333,0.11142 0.227699,0.11142 0.142433,0 0.225761,-0.11239 0.08333,-0.1124 0.08333,-0.30618 0,-0.19282 -0.08333,-0.30522 -0.08333,-0.11336 -0.22576,-0.11336 z m 0,-0.15116 q 0.232544,0 0.365288,0.15116 0.132744,0.15115 0.132744,0.41858 0,0.26645 -0.132744,0.41857 -0.132744,0.15116 -0.365288,0.15116 -0.233513,0 -0.366257,-0.15116 -0.131775,-0.15212 -0.131775,-0.41857 0,-0.26743 0.131775,-0.41858 0.132744,-0.15116 0.366257,-0.15116 z"
         id="path6472"
         inkscape:connector-curvature="0" />
      <path
         d="m 19.006594,295.07956 h 0.178284 v 1.50766 h -0.178284 z"
         id="path6474"
         inkscape:connector-curvature="0" />
      <path
         d="m 21.748675,296.00005 v 0.0872 h -0.819718 q 0.01163,0.1841 0.110459,0.28099 0.0998,0.0959 0.277115,0.0959 0.102706,0 0.198631,-0.0252 0.09689,-0.0252 0.191849,-0.0756 v 0.16859 q -0.09593,0.0407 -0.196694,0.062 -0.100769,0.0213 -0.204445,0.0213 -0.259674,0 -0.411796,-0.15116 -0.151154,-0.15115 -0.151154,-0.40889 0,-0.26645 0.143402,-0.42245 0.144371,-0.15697 0.388542,-0.15697 0.218979,0 0.34591,0.14147 0.127899,0.14049 0.127899,0.38273 z m -0.178284,-0.0523 q -0.0019,-0.14631 -0.08236,-0.23351 -0.07945,-0.0872 -0.211228,-0.0872 -0.149215,0 -0.239326,0.0843 -0.08914,0.0843 -0.102707,0.23739 l 0.63562,-9.7e-4 z"
         id="path6476"
         inkscape:connector-curvature="0" />
    </g>
  </g>
  <g
     inkscape:groupmode="layer"
     id="layer3"
     inkscape:label="widgets"
     style="display:none">
    <rect
       style="display:inline;opacity:1;fill:#ff0200;fill-opacity:1;stroke:none;stroke-width:1;stroke-miterlimit:4;stroke-dasharray:none;stroke-opacity:1"
       id="rect5091"
       width="5.6426449"
       height="5.5571499"
       x="22.004379"
       y="51.120346" />
    <rect
       style="display:inline;opacity:1;fill:#00ff00;fill-opacity:1;stroke:none;stroke-width:1;stroke-miterlimit:4;stroke-dasharray:none;stroke-opacity:1"
       id="rect5093"
       width="5.2151713"
       height="5.2151713"
       x="22.084158"
       y="45.009415" />
    <rect
       style="display:inline;opacity:1;fill:#0000ff;fill-opacity:1;stroke:none;stroke-width:1;stroke-miterlimit:4;stroke-dasharray:none;stroke-opacity:1"
       id="rect4969"
       width="5.3861609"
       height="5.3861609"
       x="22.38339"
       y="83.223175" />
    <rect
       style="display:inline;opacity:1;fill:#00ff00;fill-opacity:1;stroke:none;stroke-width:1;stroke-miterlimit:4;stroke-dasharray:none;stroke-opacity:1"
       id="rect4975"
       width="5.3546834"
       height="5.5909305"
       x="2.3290534"
       y="75.108711" />
    <rect
       style="display:inline;opacity:1;fill:#00ff00;fill-opacity:1;stroke:none;stroke-width:1;stroke-miterlimit:4;stroke-dasharray:none;stroke-opacity:1"
       id="rect4979"
       width="5.5571499"
       height="5.5571499"
       x="2.4403408"
       y="44.95977" />
    <rect
       style="display:inline;opacity:1;fill:#00ff00;fill-opacity:1;stroke:none;stroke-width:1;stroke-miterlimit:4;stroke-dasharray:none;stroke-opacity:1"
       id="rect4981"
       width="5.7281394"
       height="5.7281394"
       x="11.818956"
       y="44.461246" />
    <rect
       style="display:inline;opacity:1;fill:#00ff00;fill-opacity:1;stroke:none;stroke-width:1;stroke-miterlimit:4;stroke-dasharray:none;stroke-opacity:1"
       id="rect4983"
       width="5.8136339"
       height="5.8136339"
       x="21.57119"
       y="27.209215" />
    <rect
       style="display:inline;opacity:1;fill:#00ff00;fill-opacity:1;stroke:none;stroke-width:1;stroke-miterlimit:4;stroke-dasharray:none;stroke-opacity:1"
       id="rect4989"
       width="5.5571499"
       height="5.5571499"
       x="12.466015"
       y="27.43049" />
    <rect
       style="display:inline;opacity:1;fill:#00ff00;fill-opacity:1;stroke:none;stroke-width:1;stroke-miterlimit:4;stroke-dasharray:none;stroke-opacity:1"
       id="rect4991"
       width="5.3006663"
       height="5.3006663"
       x="2.3290534"
       y="17.041332" />
    <rect
       style="display:inline;opacity:1;fill:#00ff00;fill-opacity:1;stroke:none;stroke-width:1;stroke-miterlimit:4;stroke-dasharray:none;stroke-opacity:1"
       id="rect5041"
       width="5.7281394"
       height="5.7281394"
       x="2.7565265"
       y="27.470434" />
    <rect
       style="display:inline;opacity:1;fill:#ff0000;fill-opacity:1;stroke:none;stroke-width:1;stroke-miterlimit:4;stroke-dasharray:none;stroke-opacity:1"
       id="rect5043"
       width="5.7281394"
       height="5.7281394"
       x="2.7565265"
       y="34.256905" />
    <rect
       style="display:inline;opacity:1;fill:#ff0000;fill-opacity:1;stroke:none;stroke-width:1;stroke-miterlimit:4;stroke-dasharray:none;stroke-opacity:1"
       id="rect5045"
       width="5.0441828"
       height="5.3861609"
       x="12.722499"
       y="34.045975" />
    <rect
       style="display:inline;opacity:1;fill:#ff0000;fill-opacity:1;stroke:none;stroke-width:1;stroke-miterlimit:4;stroke-dasharray:none;stroke-opacity:1"
       id="rect5047"
       width="5.3861609"
       height="5.3861609"
       x="21.784927"
       y="34.081181" />
    <rect
       style="display:inline;opacity:1;fill:#ff0000;fill-opacity:1;stroke:none;stroke-width:1;stroke-miterlimit:4;stroke-dasharray:none;stroke-opacity:1"
       id="rect5049"
       width="5.4716558"
       height="5.4716558"
       x="12.20437"
       y="51.205566" />
    <rect
       style="display:inline;opacity:1;fill:#ff0000;fill-opacity:1;stroke:none;stroke-width:1;stroke-miterlimit:4;stroke-dasharray:none;stroke-opacity:1"
       id="rect5053"
       width="5.3006663"
       height="5.4716558"
       x="12.046068"
       y="77.941887" />
    <rect
       style="display:inline;opacity:1;fill:#00ff00;fill-opacity:1;stroke:none;stroke-width:1;stroke-miterlimit:4;stroke-dasharray:none;stroke-opacity:1"
       id="rect4923"
       width="5.6426449"
       height="5.4586453"
       x="2.3290534"
       y="83.479645" />
    <rect
       style="display:inline;opacity:1;fill:#ff0000;fill-opacity:1;stroke:none;stroke-width:1;stroke-miterlimit:4;stroke-dasharray:none;stroke-opacity:1"
       id="rect4945"
       width="5.2151713"
       height="5.2151713"
       x="10.15766"
       y="17.126818" />
    <rect
       style="display:inline;opacity:1;fill:#0000ff;fill-opacity:1;stroke:none;stroke-width:1;stroke-miterlimit:4;stroke-dasharray:none;stroke-opacity:1"
       id="rect4947"
       width="5.6302543"
       height="5.4716554"
       x="22.38339"
       y="74.894981" />
    <rect
       style="display:inline;opacity:1;fill:#00ff00;fill-opacity:1;stroke:none;stroke-width:1;stroke-miterlimit:4;stroke-dasharray:none;stroke-opacity:1"
       id="rect5332"
       width="5.4716558"
       height="5.4716558"
       x="2.2228601"
       y="10.316954" />
  </g>
</svg>
