<svg xmlns="http://www.w3.org/2000/svg" xmlns:xlink="http://www.w3.org/1999/xlink" width="60" height="380" viewBox="0 0 15.875 100.542">
    <defs>
        <linearGradient id="b">
            <stop offset="0" stop-color="#fff"/>
            <stop offset="1" stop-opacity="0"/>
        </linearGradient>
        <linearGradient id="a">
            <stop offset="0" stop-color="#fdfdfd"/>
            <stop offset="1" stop-color="#fdfdfd"/>
        </linearGradient>
        <radialGradient xlink:href="#a" id="g" cx="285.494" cy="856.052" fx="285.494" fy="856.052" r="69.827" gradientTransform="matrix(.4218 0 0 .02673 -105.982 272.192)" gradientUnits="userSpaceOnUse"/>
        <linearGradient gradientTransform="matrix(.26458 0 0 .26458 -59.861 72.341)" xlink:href="#b" id="j" x1="268.967" y1="830.884" x2="279.915" y2="832.532" gradientUnits="userSpaceOnUse"/>
        <clipPath id="k" clipPathUnits="userSpaceOnUse">
            <path fill="#fff" stroke="gray" stroke-width=".388" d="M4.03 289.485h23.689v11.965H4.03z"/>
        </clipPath>
        <clipPath id="i" clipPathUnits="userSpaceOnUse">
            <path fill="#fff" stroke="gray" stroke-width=".388" d="M4.03 289.485h23.689v11.965H4.03z"/>
        </clipPath>
        <clipPath id="h" clipPathUnits="userSpaceOnUse">
            <path fill="#fff" stroke="gray" stroke-width=".388" d="M4.03 289.485h23.689v11.965H4.03z"/>
        </clipPath>
        <clipPath id="f" clipPathUnits="userSpaceOnUse">
            <path fill="#fff" stroke="gray" stroke-width=".388" d="M4.03 289.485h23.689v11.965H4.03z"/>
        </clipPath>
        <clipPath clipPathUnits="userSpaceOnUse" id="e">
            <path d="M7.876 86.527H23.75v13.976H7.876z" fill-rule="evenodd" stroke-width=".486" stroke-linejoin="round"/>
        </clipPath>
        <clipPath clipPathUnits="userSpaceOnUse" id="d">
            <path d="M0 283.024h15.875V297H0z" fill-rule="evenodd" stroke-width=".486" stroke-linejoin="round"/>
        </clipPath>
        <clipPath clipPathUnits="userSpaceOnUse" id="c">
            <path d="M3.938 281.491H27.72v16.406H3.938z" fill-rule="evenodd" stroke-width=".486" stroke-linejoin="round"/>
        </clipPath>
    </defs>
    <g transform="translate(0 -196.458)">
        <path d="M0 196.458h15.875V297H0z" fill-rule="evenodd"/>
        <flowRoot transform="matrix(.26458 0 0 .26458 -58.46 115.922)" style="line-height:125%;-inkscape-font-specification:Luminari" xml:space="preserve" font-style="normal" font-weight="400" font-size="10" font-family="Luminari" letter-spacing="0" word-spacing="0" fill="#000" fill-opacity="1" stroke="none" stroke-width="1" stroke-linecap="butt" stroke-linejoin="miter" stroke-opacity="1" font-stretch="normal" font-variant="normal">
            <flowRegion>
                <path style="-inkscape-font-specification:Luminari" d="M323.249 35.538h7.829v72.478h-7.829z"/>
            </flowRegion>
            <flowPara/>
        </flowRoot>
        <path d="M0 291.993l31.75.123-.033 3.296H0z" clip-path="url(#c)" transform="matrix(.66754 0 0 .8519 -2.629 43.22)"/>
        <g style="-inkscape-font-specification:Luminari" font-weight="400" font-size="3.969" font-family="Luminari" fill="#fff" stroke-width="3.543">
            <path d="M2.514 199.38q-.055-.011-.123-.02-.067-.007-.143-.011-.075-.004-.15-.004-.072-.004-.135-.004h-.124q-.027 0-.047.004t-.02.012v.242l.008.274.016.25q.008.115.024.166.008.032.067.044.06.016.135.016.032 0 .064-.004h.08q.043 0 .067.02.023.02.023.047 0 .032-.008.056-.003.024-.083.024-.032 0-.103-.004l-.15-.008q-.08-.004-.168 0-.087.004-.154.016-.16.032-.298.071-.139.044-.25.087-.111.044-.187.084-.075.043-.107.08-.016.02-.024.02h-.02q-.007 0-.039-.025-.032-.02-.032-.055 0-.02.064-.06.067-.036.158-.08l.191-.079q.1-.035.17-.055.02-.028.032-.159.016-.127.024-.373.012-.25.016-.623.008-.373.012-.893 0-.143-.004-.29-.004-.15-.012-.278-.008-.13-.024-.226-.016-.095-.04-.135-.02-.028-.075-.035-.051-.012-.123-.012H.816q-.024 0-.052-.004-.028-.008-.047-.02-.016-.012-.016-.032 0-.044.012-.06.011-.02.107-.02.04 0 .099.005l.119.008q.064 0 .123.004.064.004.111.004.127 0 .314-.024.19-.024.389-.032.146-.004.297-.004.155-.004.286-.004.135-.004.23-.004.1-.004.135-.012.036-.11.08-.19.043-.083.09-.087.02 0 .052.015.036.012.036.036-.012.012-.02.024-.016.024-.016.036-.047.083-.087.214-.036.13-.063.27-.024.139-.036.27-.012.13 0 .218-.012.06-.048.06-.063 0-.08-.02-.011-.024-.003-.048.008-.032.012-.08.004-.05.004-.083 0-.095-.064-.162-.063-.072-.17-.115-.108-.048-.254-.072-.143-.024-.306-.024-.044 0-.119.004-.071 0-.107.032-.008.032-.016.135-.008.103-.016.246l-.008.302-.008.31q0 .15-.004.273v.183q.08.004.151.004h.147q.238.004.417-.008.182-.016.242-.036.035-.012.055-.032.024-.024.036-.047l.028-.04q.016-.02.032-.02.02 0 .04.02.019.02.011.036-.024.043-.044.123-.02.075-.035.17l-.024.19q-.008.1-.008.187v.032q.004.016.004.036 0 .012-.02.02-.016.004-.036.004-.015 0-.031-.004t-.016-.016q0-.024-.004-.056-.004-.036-.02-.067-.012-.032-.044-.06-.027-.032-.08-.052l-.059-.015zM5.1 199.623q.008-.008.012.004.008.008.008.028.004.015 0 .035-.004.02-.016.032-.08.075-.199.159-.119.083-.246.154l-.099.052q-.064.032-.143.064-.075.027-.159.047-.079.024-.15.024-.143 0-.27-.056-.127-.055-.223-.15-.095-.1-.15-.235-.052-.135-.052-.293 0-.171.048-.322.047-.15.107-.27.063-.119.119-.198.055-.083.075-.123-.075-.004-.139-.004-.06-.004-.115-.004-.127 0-.214.004-.087 0-.155.016-.032.008-.06.031-.027.024-.047.036l-.02-.02q-.016-.016-.016-.031 0-.008.004-.012 0-.004.052-.044.051-.044.127-.1l.17-.126q.096-.072.18-.131l.146-.1q.063-.043.083-.051.024-.008.048.008t.016.024q-.012.008-.036.032-.024.02-.016.035.044.036.151.064.107.028.242.047.135.016.278.028.143.008.258.008.17 0 .274-.008.103-.012.17-.028.064-.016.084-.023.004 0 .016.011.012.012.012.028 0 .008-.06.04l-.115.067q-.036.02-.087.052-.048.032-.108.064-.055.027-.119.051-.063.024-.123.028-.06.008-.139.012l-.166.008q-.088 0-.179.004h-.163l-.04.067q-.023.044-.047.115-.024.072-.044.163-.02.091-.02.199 0 .162.048.301.052.135.14.234.09.1.213.155.123.056.266.056.084 0 .16-.02.078-.02.146-.052.071-.031.13-.067.06-.04.104-.076l.048-.043z"/>
            <path d="M6.393 199.555q-.012-.067-.024-.147l-.024-.15q-.012-.072-.024-.123-.008-.052-.012-.068l-.143.056q-.08.031-.158.071-.08.036-.151.075-.072.036-.12.068-.09.06-.138.119-.048.06-.048.143 0 .115.068.202.067.088.21.088.075 0 .155-.028.083-.028.15-.064.072-.035.124-.071.051-.036.071-.056.032-.032.048-.051.02-.024.016-.064zm-.116-.615q-.023-.123-.055-.218-.032-.1-.08-.163-.047-.067-.115-.1-.067-.035-.166-.035-.088 0-.163.032-.071.032-.127.075-.052.044-.083.088-.028.043-.032.067-.004.032-.036.032-.055 0-.103-.04-.048-.04-.048-.095 0-.032.008-.048.092-.051.223-.11.13-.06.27-.112.142-.052.281-.083.14-.036.25-.036.167 0 .254.048.092.047.135.135.044.087.052.206.012.115.02.25.012.202.031.393.02.186.06.333.04.143.1.234.063.088.154.088.044 0 .095-.016.052-.016.1-.036l.083-.044q.04-.023.051-.031.036 0 .044.035 0 .02-.008.036-.008.008-.06.04-.051.032-.126.075l-.167.095q-.091.048-.183.092-.087.043-.162.071-.076.028-.12.028-.051 0-.09-.044-.037-.04-.064-.107-.028-.071-.048-.163-.02-.09-.036-.19-.071.06-.182.143-.111.08-.242.15-.131.072-.27.124-.135.047-.262.047-.107 0-.187-.032-.079-.035-.135-.09-.051-.057-.079-.128-.024-.075-.024-.155 0-.127.076-.206.079-.083.242-.17.075-.04.21-.104l.274-.135q.143-.067.262-.127.123-.063.178-.1z"/>
            <path d="M9.904 198.436q-.08.06-.266.107-.182.044-.425.044-.047 0-.107.004H9.02q.016.15-.04.31-.051.158-.123.301-.067.139-.127.246-.06.107-.06.155 0 .063.056.123t.14.119q.083.06.178.123.095.06.178.131.084.068.14.15.055.084.055.183 0 .143-.111.314-.107.17-.294.317-.186.151-.437.25-.25.1-.531.1-.131 0-.286-.028-.15-.028-.282-.083-.127-.056-.214-.14-.084-.079-.084-.19 0-.063.096-.167.099-.103.226-.21t.25-.206q.123-.1.175-.159.012 0 .027.016.02.016.02.036 0 .004-.004.004v.008l-.099.079q-.056.048-.111.103-.056.056-.095.12-.04.067-.04.13 0 .084.063.163.068.083.171.147.107.063.242.103.135.04.274.04.286 0 .433-.127.15-.123.15-.35 0-.095-.055-.182-.052-.087-.131-.163-.075-.075-.17-.143l-.171-.119q-.076-.055-.131-.103-.052-.048-.052-.087 0-.036.02-.08.024-.047.052-.091l.047-.083q.024-.04.024-.06 0 .004-.008-.012-.028.028-.08.056-.051.028-.122.052-.068.023-.147.04-.076.015-.155.015-.15 0-.266-.047-.115-.052-.194-.135-.076-.084-.115-.19-.04-.112-.04-.235 0-.183.051-.314.056-.13.135-.222.084-.091.175-.147.091-.06.167-.099.047-.024.11-.044.068-.023.144-.04.075-.02.154-.031.08-.012.151-.012.25 0 .405.056.155.055.202.099.048.008.171.012.123.004.262.004h.481q.02 0 .039-.004.02.004.016.02-.004.015-.02.023zm-1.635 1.072q.055 0 .111-.024t.1-.08q.047-.06.075-.154.031-.1.031-.246 0-.135-.031-.25-.028-.116-.088-.199t-.147-.127q-.087-.047-.206-.047-.17 0-.29.13-.119.127-.119.366 0 .13.048.246.048.115.123.202.08.083.183.135.103.048.21.048z"/>
            <path d="M10.16 199.127l-.008.063-.008.064q0 .035-.004.09v.14q0 .143.008.234.012.091.032.147.02.051.047.071.032.02.076.02.027 0 .06-.008.007 0 .011.024.008.02 0 .028-.024.02-.095.06-.068.035-.155.07-.087.036-.182.064-.092.028-.155.028-.056 0-.088-.016-.031-.012-.031-.032t.004-.024q.004-.004.012-.02.008-.02.011-.047.004-.032.012-.071.008-.056.016-.14l.016-.186q.008-.103.012-.21.008-.111.008-.214 0-.044-.004-.108 0-.067-.004-.17-.004-.115-.028-.195-.02-.083-.055-.13-.032-.052-.076-.076-.04-.024-.08-.024h-.039q-.02 0-.04.004-.015 0-.015-.036 0-.008.004-.012.008-.008.04-.027.05-.036.138-.088.088-.051.179-.095.091-.044.17-.075.084-.032.127-.032.116 0 .116.131 0 .02-.004.071l-.008.108q0 .051-.004.099-.004.047-.004.063.083-.08.178-.163.096-.083.207-.15.11-.072.234-.115.123-.044.254-.044.238 0 .389.139.155.135.155.432 0 .08-.012.187-.008.107-.02.222l-.024.226q-.008.112-.008.199 0 .317.206.317.04 0 .088-.012.051-.015.095-.031l.083-.036q.036-.02.048-.032.004-.004.008.008.008.008.012.024t0 .028q0 .012-.004.016-.032.02-.14.075-.102.056-.233.115-.127.056-.254.1-.127.047-.203.047-.091 0-.127-.044-.031-.043-.031-.091 0-.032.007-.08.012-.047.028-.154.016-.115.028-.27.016-.155.016-.333 0-.35-.131-.528-.127-.183-.322-.183-.123 0-.218.048-.095.047-.163.13-.067.08-.107.187-.04.103-.051.223z"/>
        </g>
        <g style="-inkscape-font-specification:Luminari" font-weight="400" font-size="1.984" font-family="Luminari" fill="#fff" stroke-width="3.543">
            <path d="M.836 202.48l-.004.032-.004.032-.002.046v.07q0 .07.004.116.006.046.016.074.01.026.024.036.016.01.037.01.014 0 .03-.004.004 0 .006.011.004.01 0 .014-.012.01-.048.03-.033.018-.077.036t-.091.032q-.046.013-.078.013-.027 0-.043-.008-.016-.006-.016-.015 0-.01.002-.012l.006-.01q.004-.01.006-.024l.006-.036.008-.07.008-.093q.004-.051.006-.105.004-.055.004-.107l-.002-.054-.002-.085q-.002-.057-.014-.097-.01-.042-.028-.066-.016-.025-.038-.037-.02-.012-.04-.012h-.02l-.02.002q-.007 0-.007-.018 0-.004.002-.006l.02-.014q.026-.018.07-.044.043-.025.088-.047.046-.022.086-.038.041-.016.063-.016.058 0 .058.066l-.002.035-.004.054q0 .026-.002.05l-.002.031q.042-.04.09-.081.047-.042.102-.076.056-.035.117-.057.062-.022.127-.022.12 0 .195.07.077.067.077.216 0 .04-.006.093l-.01.111-.011.113q-.004.056-.004.1 0 .158.103.158.02 0 .043-.006l.048-.016.042-.018q.018-.01.024-.015.002-.002.004.004.003.004.005.011.002.008 0 .014 0 .006-.002.008-.015.01-.069.038-.052.028-.117.058-.064.027-.127.05-.064.023-.101.023-.046 0-.064-.022-.016-.022-.016-.045 0-.016.004-.04.006-.024.014-.078.008-.057.014-.134.008-.078.008-.167 0-.175-.065-.264-.064-.091-.161-.091-.062 0-.11.023-.047.024-.08.066-.034.04-.054.093-.02.052-.026.111zM2.545 202.846l-.06.047q-.038.03-.087.06-.05.03-.11.052-.059.02-.124.02-.1 0-.177-.034-.077-.036-.131-.094-.052-.06-.08-.139-.025-.079-.025-.168 0-.105.032-.187.031-.081.077-.14.048-.062.101-.102.054-.042.097-.065.02-.012.05-.026.032-.014.067-.026.038-.012.08-.02.043-.01.09-.01.084 0 .164.022.081.022.143.07.061.045.099.119.038.073.038.176 0 .084-.032.157-.03.073-.072.131-.041.057-.083.1l-.057.057zm-.225.032q.113 0 .173-.086.061-.085.061-.262 0-.089-.025-.164-.024-.078-.07-.135-.043-.058-.103-.09-.06-.033-.129-.033-.05 0-.095.026-.044.025-.078.075-.033.048-.053.117-.02.07-.02.157 0 .093.028.167.03.073.077.125.048.05.107.077.062.026.127.026zM3.675 202.995l.014-.002.016-.004q.012 0 .014.016.004.016-.004.021l-.04.028q-.024.016-.054.032-.027.018-.055.034l-.048.028-.035.017q-.022.014-.046.026-.022.014-.042.022-.02.01-.026.01-.01 0-.02-.01-.007-.01-.007-.018 0-.01.002-.012l.008-.004.031-.02q.022-.011.032-.051.008-.034.016-.103.008-.07.014-.161.006-.093.01-.203.004-.11.004-.228v-.083q0-.042-.002-.073l-.032-.002-.056-.008-.055-.008q-.024-.006-.024-.014l-.002-.012q0-.008.016-.024l.038-.036.045-.04.04-.035q.02-.016.03-.026l.002-.107q.002-.05.006-.09.004-.049.016-.077.012-.03.033-.055.024-.028.094-.07.07-.044.164-.09l.058-.027q.026-.012.05-.018.023-.008.05-.012.025-.004.059-.004.087 0 .148.02.064.018.098.048 0 .008-.026.033l-.06.06-.067.065q-.034.034-.05.058-.006.01-.018.006-.012-.004-.008-.012l.006-.016q.004-.008.004-.02 0-.053-.053-.093-.054-.04-.137-.04-.048 0-.08.03-.031.028-.05.095-.015.064-.023.15-.006.082-.01.213.028.006.072.01.045.002.097.002h.073q.042 0 .08-.002l.073-.004q.036-.004.058-.01.008.008.008.018-.028.042-.088.07-.06.026-.129.043-.067.016-.137.022-.067.006-.11.006 0 .034-.003.096l-.004.129-.004.14v.215l.004.077q.002.034.006.058.006.021.016.025z"/>
            <path d="M4.32 202.66q0 .041.002.08.002.038.014.066.012.028.036.046.023.016.067.016.022 0 .05-.004.027-.006.051-.014.026-.008.044-.016.02-.008.024-.012.006-.006.008 0t0 .016q0 .008-.004.018-.004.008-.01.012l-.07.035q-.05.026-.117.054-.063.028-.125.048-.06.018-.099.018-.046 0-.071-.028-.026-.028-.026-.07v-.024l.004-.025.006-.072q.006-.053.01-.119l.01-.13q.003-.068.003-.116v-.07q0-.05-.005-.09-.006-.04-.02-.062-.01-.014-.026-.022-.014-.01-.036-.01-.012 0-.024.006-.012.004-.018.004-.003 0-.013-.012-.008-.012.002-.018.013-.01.057-.031l.095-.048q.056-.028.108-.048.051-.021.073-.021t.03.014q.008.011.008.027v.008q0 .02-.006.064l-.014.107-.012.147q-.006.083-.006.18v.096zm-.08-1.033q.01.002.032.022.024.02.048.046t.042.05q.018.023.018.031 0 .01-.024.03-.024.02-.056.042-.03.02-.06.035-.027.016-.04.016-.005 0-.029-.018l-.046-.043-.043-.046q-.018-.024-.018-.032 0-.01.026-.03l.055-.043q.032-.024.06-.04.03-.018.036-.02z"/>
            <path d="M5.222 202.802q.012.008.012.02 0 .016-.046.042-.048.028-.127.065-.077.038-.155.066l-.067.024q-.03.01-.054.01-.028 0-.07-.014-.039-.012-.069-.03l-.037-.024q-.014-.01-.014-.02 0-.008.004-.014.006-.008.01-.018l.004-.015.002-.02q.005-.05.011-.143.008-.095.012-.209.004-.115.006-.236.004-.123.004-.228 0-.129-.002-.208 0-.08-.004-.127-.006-.066-.016-.086-.01-.021-.021-.031-.014-.012-.028-.014-.012-.004-.024-.004l-.018-.002q-.006 0-.006-.004 0-.066.056-.066l.097.002h.095l.05-.002.053-.006.048-.008q.022-.004.032-.008.008-.002.012.006.006.008.006.02.002.012-.004.022-.004.01-.012.012l-.022.002q-.008 0-.03.008-.01.004-.018.026-.008.02-.014.065-.006.044-.011.117-.006.072-.012.18-.006.088-.01.18-.002.089-.006.174l-.004.159v.242q.002.057.012.091.01.032.051.06.042.027.088.027.035 0 .073-.01.038-.01.07-.023.031-.014.055-.028l.038-.022z"/>
            <path d="M6.03 202.729q.004-.004.006.002.004.004.004.014.002.008 0 .018-.002.01-.008.016-.04.037-.099.079-.06.042-.123.077l-.05.026q-.031.016-.071.032-.038.014-.08.024-.04.012-.075.012-.071 0-.135-.028-.063-.028-.11-.076-.049-.05-.076-.117-.026-.067-.026-.147 0-.085.024-.16.024-.076.053-.135.032-.06.06-.1.028-.041.038-.061l-.07-.002-.057-.002q-.064 0-.108.002-.043 0-.077.008-.016.004-.03.016-.014.012-.024.018l-.01-.01q-.007-.008-.007-.016 0-.004.002-.006 0-.002.025-.022.026-.022.064-.05l.085-.063q.048-.036.09-.065l.073-.05q.032-.022.042-.026.011-.004.023.004t.008.012l-.018.016q-.011.01-.008.018.022.018.076.032.053.014.12.023.068.008.14.014.071.004.129.004.085 0 .137-.004.051-.006.085-.014l.042-.011q.002 0 .008.006t.006.013q0 .004-.03.02l-.058.034-.043.026q-.024.016-.054.032-.028.013-.06.025-.031.012-.061.014-.03.004-.07.006l-.083.004-.09.002h-.08l-.02.034q-.012.022-.024.057-.012.036-.022.082-.01.045-.01.099 0 .081.024.15.026.068.07.118.045.05.107.077.061.028.133.028.041 0 .079-.01.04-.01.073-.026.036-.016.066-.033.03-.02.051-.038l.024-.022z"/>
            <path d="M6.945 202.772q-.022.024-.068.066-.046.042-.111.083-.064.042-.143.072-.08.03-.169.03-.08 0-.158-.024-.078-.026-.14-.076-.06-.051-.098-.129-.036-.08-.036-.188 0-.09.012-.153.012-.066.031-.113.02-.05.044-.083.026-.036.052-.064.031-.036.077-.067.046-.032.097-.058.054-.026.111-.04.06-.016.12-.016.107 0 .166.036.062.036.062.1 0 .039-.024.073.02-.006.05-.02l.063-.028.056-.028q.025-.012.033-.018.004-.004.008-.002.006 0 .006.006 0 .026-.01.044-.01.016-.024.026-.031.02-.09.05-.06.03-.134.063l-.149.065-.146.062-.12.054q-.05.021-.067.031 0 .068.026.127.028.058.075.101.048.044.113.07.068.024.147.024.072 0 .13-.014.057-.016.096-.034.04-.02.062-.034.024-.016.026-.016.008 0 .016.008.008.006.008.014zm-.699-.303l.075-.028q.044-.018.084-.038l.075-.037q.034-.018.052-.032.036-.026.036-.087 0-.024-.01-.05-.008-.026-.026-.046-.018-.021-.044-.033-.026-.014-.057-.014-.028 0-.06.02-.032.018-.06.061-.027.042-.047.113-.018.07-.018.17z"/>
            <path d="M7.867 202.161q-.022.018-.052.046-.03.026-.063.051-.032.024-.066.042-.033.018-.065.018-.028 0-.05-.012l-.041-.028q-.018-.016-.036-.027-.018-.014-.038-.014-.053 0-.091.043-.036.044-.06.111-.021.068-.033.147-.01.08-.01.153 0 .062.004.101.006.038.016.062.01.022.025.03.018.008.042.008.026 0 .056-.008.006-.002.008.008.004.01.004.015 0 .004-.006.01l-.008.004q-.044.018-.09.04l-.075.034q-.028.012-.068.026-.037.014-.065.014-.032 0-.054-.01-.02-.01-.02-.02t.005-.018q.005-.008.01-.03l.007-.07q.006-.041.01-.089.006-.047.008-.097.004-.051.004-.101 0-.111-.008-.189-.006-.077-.024-.125-.017-.047-.05-.067-.029-.022-.077-.022H6.9l-.016.002q-.012 0-.012-.012t.012-.018l.067-.04q.046-.027.093-.051.05-.026.096-.046.045-.02.067-.02.026 0 .044.018.018.016.026.042.01.026.014.06.004.031.004.063l-.002.05v.055q.089-.13.16-.202.072-.074.135-.074.024 0 .046.02.024.02.05.046.025.024.053.044.028.02.058.02.025 0 .037-.007l.02-.01q.016 0 .016.022v.002z"/>
        </g>
        <g transform="translate(-7.876 196.497)" clip-path="url(#e)">
            <path d="M31.483 294.933l-17.042-.125-14.418.125-.878-3.47c4.81-1.004 10.75-1.724 16.17-1.72 5.716.006 9.887.467 17.047 1.845z" clip-path="url(#f)" fill="url(#g)" stroke="#8b8b8b" stroke-width=".397" transform="translate(-3.969 -196.458)"/>
            <path transform="matrix(1 0 0 1.36593 -3.969 -303.009)" d="M0 291.993c10.904-1.21 21.546-.99 31.75.123l-.033 3.296H0z" clip-path="url(#h)"/>
            <g stroke-width=".532" stroke="#fff">
                <path d="M14.983 294.241c.21-1.012 1.87-3.909 3.617-3.862.376.123.385 2.708.43 3.78l-1.43.338z" fill-rule="evenodd" transform="matrix(.2035 0 0 .39075 16.845 -18.67)"/>
                <path d="M18.59 290.43c-.45 1.151-1.001 2.803-1.001 4.036M18.376 290.4c-1.124 1.66-1.841 2.74-1.788 3.964M17.824 290.522c-1.317 1.671-1.953 2.566-2.085 3.76" fill="none" transform="matrix(.2035 0 0 .39075 16.845 -18.67)"/>
            </g>
            <g stroke-width=".288" stroke="#fff">
                <path d="M14.983 294.241c.21-1.012 1.87-3.909 3.617-3.862.376.123.385 2.708.43 3.78l-1.43.338z" fill-rule="evenodd" transform="matrix(.50086 0 0 .81336 8.76 -142.316)"/>
                <path d="M18.59 290.43c-.45 1.151-1.001 2.803-1.001 4.036M18.376 290.4c-1.124 1.66-1.841 2.74-1.788 3.964M17.824 290.522c-1.317 1.671-1.953 2.566-2.085 3.76" fill="none" transform="matrix(.50086 0 0 .81336 8.76 -142.316)"/>
            </g>
            <path transform="matrix(1.37577 0 0 1.30085 -5.483 -284.208)" d="M2.826 292.087l3.149-1.954.634 1.317.617-1.151.377.864-.007-1.086 1.006 1.042.557-1.206.638 1.083.435-.674.556.756.72-1.043.149 1.083 1.292-1.124-.47 1.827-8.44.25z" clip-path="url(#k)" fill-rule="evenodd"/>
            <g stroke-width=".154" stroke="#fff">
                <path d="M14.983 294.241c.21-1.012 1.87-3.909 3.617-3.862.376.123.385 2.708.43 3.78l-1.43.338z" fill-rule="evenodd" transform="matrix(.89624 0 0 1.17437 -.467 -247.696)"/>
                <path d="M18.59 290.43c-.45 1.151-1.001 2.803-1.001 4.036M18.376 290.4c-1.124 1.66-1.841 2.74-1.788 3.964M17.824 290.522c-1.317 1.671-1.953 2.566-2.085 3.76" fill="none" transform="matrix(.89624 0 0 1.17437 -.467 -247.696)"/>
            </g>
            <g style="-inkscape-font-specification:Luminari" font-weight="400" font-size="1.984" font-family="Luminari" fill="#fff" stroke-width="3.543">
                <path d="M9.419 99.842q-.016.01-.03.034-.014.022-.018.034-.002.004-.012.006-.008.004-.012.004-.017 0-.017-.018 0-.006.015-.032l.038-.061.052-.088.05-.081q.023-.038.033-.05.01-.01.024-.002.014.006.008.016-.004.004-.006.01t-.002.02q0 .018.03.046.031.025.079.051.048.024.105.042.058.018.113.018.066 0 .103-.038.04-.038.04-.1 0-.069-.044-.102-.043-.034-.109-.052-.063-.018-.14-.028-.076-.012-.142-.033-.063-.022-.107-.064-.043-.042-.043-.121 0-.062.041-.125.044-.064.113-.113.072-.05.163-.082.091-.031.19-.031.03 0 .07.006.04.006.077.016.04.008.072.018l.05.013q.004 0-.002.016-.006.018-.03.056-.024.036-.054.071-.028.036-.053.064-.024.028-.034.028h-.012q-.01 0-.014-.004.002-.01.002-.026 0-.07-.063-.11-.062-.039-.181-.039-.058 0-.095.034-.036.033-.036.081 0 .078.044.115.043.038.109.058.065.018.14.027.076.01.142.032.065.02.109.062.043.041.043.125 0 .037-.015.073-.016.036-.042.068-.026.031-.058.06-.031.025-.063.045-.03.02-.068.041-.037.02-.081.038-.044.018-.09.028-.045.012-.09.012-.022 0-.07-.01-.048-.008-.097-.02l-.086-.022q-.037-.012-.04-.016zM11.577 99.733l-.06.048q-.038.03-.087.06-.05.029-.11.05-.059.02-.124.02-.1 0-.177-.033-.077-.036-.131-.093-.052-.06-.08-.14-.025-.079-.025-.168 0-.105.032-.187.031-.081.077-.14.048-.062.101-.102.054-.041.097-.065.02-.012.05-.026.032-.014.067-.026.038-.012.08-.02.044-.01.09-.01.085 0 .164.022.081.022.143.07.061.045.099.119.038.073.038.176 0 .084-.032.157-.03.074-.072.131-.041.058-.083.1l-.057.057zm-.225.032q.113 0 .173-.085.062-.086.062-.262 0-.09-.026-.165-.024-.077-.07-.135-.043-.058-.103-.09-.06-.033-.129-.033-.05 0-.095.026-.044.026-.078.075-.033.048-.053.117-.02.07-.02.157 0 .093.028.167.03.073.077.125.048.05.107.077.062.026.127.026zM12.356 99.072q-.016-.004-.016-.016.002-.012.016-.014l.038-.013.075-.028.093-.034.088-.03.031-.01q.01-.004.016-.004t.014.006q.008.004.004.014-.006.016-.014.076l-.012.133-.012.142q-.004.072-.004.113 0 .16.068.247.067.085.21.085.074 0 .121-.03.05-.03.076-.07.018-.025.023-.113v-.041q.002-.026.002-.054l.002-.055.002-.046q.002-.091-.006-.169-.006-.08-.02-.117-.005-.024-.023-.024l-.024.002q-.01 0-.012-.018 0-.006.012-.011.012-.008.046-.022.031-.012.07-.024.039-.012.077-.02.037-.008.067-.01.03-.004.044.002l.002.006q.004.002.006.012.004.012-.006.075-.008.062-.018.203l-.014.188q-.006.092-.006.14 0 .093.034.148.035.054.087.054.034 0 .063-.014.032-.014.046-.024.016 0 .016.014.002.014-.006.018-.03.02-.083.05-.052.03-.11.057-.055.026-.107.045-.051.018-.083.018-.016 0-.03-.02-.012-.021-.02-.051-.008-.03-.012-.062-.004-.031-.004-.055-.041.03-.095.063-.053.032-.11.062-.058.028-.116.045-.056.018-.103.018-.121 0-.199-.063-.077-.066-.077-.169 0-.022.004-.065l.01-.1q.006-.055.01-.119.004-.063.004-.123 0-.091-.03-.139-.028-.05-.073-.055l-.032-.004zM14.989 99.616q.004-.004.006.002.004.004.004.014.002.008 0 .018-.002.01-.008.016-.04.037-.1.08-.059.04-.122.076l-.05.026q-.032.016-.072.032-.037.014-.079.024-.04.012-.075.012-.072 0-.135-.028-.064-.028-.111-.076-.048-.05-.076-.117-.026-.067-.026-.146 0-.086.024-.161.024-.076.054-.135.032-.06.06-.1.027-.041.037-.06-.038-.003-.07-.003l-.057-.002q-.063 0-.107.002-.044 0-.077.008-.016.004-.03.016-.014.012-.024.018l-.01-.01q-.008-.008-.008-.016 0-.004.002-.006 0-.002.026-.022.026-.022.063-.05l.086-.063q.047-.036.09-.065l.072-.05q.032-.022.042-.026.012-.004.024.004t.008.012l-.018.016q-.012.01-.008.018.022.018.076.032.053.014.12.024.068.008.14.013.07.004.128.004.086 0 .137-.004.052-.006.086-.013.031-.008.041-.012.002 0 .008.006t.006.014q0 .004-.03.02l-.057.033-.044.026q-.024.016-.053.032-.028.014-.06.025-.032.012-.061.014-.03.004-.07.006l-.083.004-.09.002h-.08l-.02.034q-.013.022-.024.058-.012.035-.022.081-.01.046-.01.1 0 .08.024.15.025.068.07.117.045.05.106.077.062.028.133.028.042 0 .08-.01.04-.01.073-.026.036-.015.065-.033.03-.02.052-.038l.024-.022zM15.745 99.12q.04-.036.09-.074.05-.04.103-.07.055-.035.115-.055.06-.021.121-.021.071 0 .133.023.063.022.111.066.048.044.075.105.028.06.028.135 0 .153-.053.282-.052.127-.123.224-.07.095-.14.159-.069.063-.102.083-.01.006-.02-.004t0-.022q.016-.012.047-.06.034-.045.068-.116.034-.072.06-.163.025-.091.025-.196 0-.088-.022-.155-.02-.068-.055-.113-.036-.046-.084-.07-.045-.024-.099-.024-.036 0-.075.012-.04.01-.074.03-.035.022-.07.054-.033.031-.049.065l-.008.016-.006.02-.006.032-.004.053-.01.113q-.002.054-.002.13 0 .097.012.15.012.052.07.06h.014l.018-.004.02-.006q.005 0 .007.006.004.006.004.012t-.021.018q-.022.011-.056.025l-.075.026-.076.024-.065.018q-.026.008-.036.008-.06 0-.06-.046 0-.01.01-.037.01-.028.016-.086l.016-.182q.008-.102.012-.203.006-.1.008-.198.004-.097.004-.175 0-.143-.006-.242-.004-.1-.008-.14-.006-.052-.012-.068-.006-.018-.014-.032-.01-.018-.026-.024-.014-.008-.027-.01-.012-.002-.022 0-.008 0-.008-.004 0-.028.018-.045.018-.018.047-.018l.12-.002q.06-.002.113-.006.043-.004.079-.012.038-.008.05-.012.015-.002.015.006.002.006.002.024 0 .012-.01.018-.01.006-.021.01l-.024.008q-.01.002-.014.008-.008.012-.016.073-.008.062-.016.157l-.012.208q-.004.115-.006.232l.002.002zM17.87 99.8q-.064.04-.157.072-.093.032-.18.032-.028 0-.064-.004l-.055-.008-.004.077q0 .04-.002.075 0 .038-.002.07v.054q0 .1.015.136.018.036.054.036.018 0 .048-.006.031-.004.055-.016.004-.004.008.008.006.012.006.022 0 .002-.028.01-.027.01-.071.022-.042.014-.091.028-.05.016-.096.027-.045.014-.08.022-.03.008-.039.008-.012 0-.022-.002-.01-.002-.01-.018 0-.01.007-.014.007-.002.011-.008.01-.011.012-.045l.006-.064.012-.184q.008-.105.014-.222l.01-.23q.006-.118.006-.213 0-.135-.012-.21-.01-.078-.03-.113-.02-.038-.045-.046-.024-.01-.052-.01l-.018.002h-.02q-.007 0-.007-.014 0-.01.002-.012 0-.004.007-.008l.036-.02.062-.03.075-.035q.04-.02.073-.034l.062-.026q.026-.01.036-.01.03 0 .04.026.011.026.013.07l-.002.057-.002.087q.026-.027.07-.067.045-.042.101-.08.058-.037.119-.063.064-.028.123-.028.085 0 .15.032.068.03.112.081.044.05.065.115.024.064.024.131 0 .096-.03.177-.027.08-.069.143-.042.061-.091.107-.05.046-.091.071l-.064.042zm-.447-.152q.006.022.032.045.026.022.066.042.041.018.093.032.054.012.113.012.054 0 .101-.02.05-.022.086-.066.035-.045.055-.117.022-.071.022-.172 0-.072-.02-.135-.02-.064-.057-.111-.038-.048-.09-.074-.051-.028-.113-.028-.032 0-.071.014-.038.014-.074.038-.035.024-.067.056-.03.031-.044.067-.01.024-.018.075-.006.05-.01.112l-.004.12v.11zM19.541 99.733l-.06.048q-.037.03-.087.06-.05.029-.109.05-.06.02-.125.02-.099 0-.176-.033-.078-.036-.131-.093-.052-.06-.08-.14-.026-.079-.026-.168 0-.105.032-.187.032-.081.078-.14.047-.062.1-.102.054-.041.098-.065.02-.012.05-.026.031-.014.067-.026.038-.012.08-.02.043-.01.089-.01.085 0 .165.022t.142.07q.062.045.1.119.037.073.037.176 0 .084-.031.157-.03.074-.072.131-.042.058-.083.1l-.058.057zm-.224.032q.113 0 .173-.085.061-.086.061-.262 0-.09-.026-.165-.023-.077-.07-.135-.043-.058-.102-.09-.06-.033-.13-.033-.049 0-.095.026-.043.026-.077.075-.034.048-.054.117-.02.07-.02.157 0 .093.028.167.03.073.078.125.047.05.107.077.062.026.127.026zM21.013 99.69q.012.007.012.02 0 .015-.046.041-.047.028-.127.066-.077.037-.154.065l-.068.024q-.03.01-.053.01-.028 0-.07-.014-.04-.012-.07-.03l-.037-.024q-.014-.01-.014-.02 0-.007.004-.013.006-.008.01-.018l.004-.016.002-.02q.006-.05.012-.143.008-.095.012-.208.004-.115.006-.236.004-.123.004-.229 0-.129-.002-.208 0-.08-.004-.127-.006-.065-.016-.085-.01-.022-.022-.032-.014-.012-.028-.014-.012-.004-.024-.004l-.017-.002q-.006 0-.006-.004 0-.065.055-.065l.097.002h.096l.05-.002.053-.006.047-.008q.022-.004.032-.008.008-.002.012.006.006.008.006.02.002.011-.004.021-.004.01-.012.012l-.022.002q-.008 0-.03.008-.01.004-.017.026-.008.02-.014.065-.006.044-.012.118-.006.07-.012.18-.006.087-.01.179-.002.089-.006.174l-.004.16v.241q.002.058.012.091.01.032.052.06.041.028.087.028.036 0 .073-.01.038-.01.07-.024.032-.014.055-.028l.038-.022zM22.255 99.66q-.022.023-.067.065-.046.042-.111.083-.064.042-.143.072-.08.03-.169.03-.081 0-.159-.024-.077-.026-.138-.076-.062-.051-.1-.129-.035-.079-.035-.188 0-.09.011-.153.012-.065.032-.113.02-.05.044-.083.026-.036.051-.064.032-.035.078-.067t.097-.058q.054-.026.111-.04.06-.015.12-.015.106 0 .166.035.061.036.061.1 0 .04-.023.073.02-.006.05-.02l.063-.028.055-.027q.026-.012.034-.018.004-.004.008-.002.006 0 .006.006 0 .025-.01.043-.01.016-.024.026-.031.02-.091.05-.06.03-.133.063l-.149.066-.147.061-.119.054q-.05.022-.067.032 0 .067.026.127.027.057.075.1.048.044.113.07.068.024.147.024.071 0 .129-.014.058-.016.097-.034.04-.02.062-.033.024-.016.026-.016.007 0 .015.008.008.006.008.014zm-.698-.304l.075-.028q.044-.018.084-.037l.075-.038q.034-.018.052-.032.035-.026.035-.087 0-.024-.01-.05-.008-.026-.025-.045-.018-.022-.044-.034-.026-.014-.058-.014-.027 0-.06.02-.03.018-.059.061-.027.042-.047.113-.018.07-.018.171z"/>
            </g>
        </g>
    </g>
</svg>
