<?xml version="1.0" encoding="UTF-8" standalone="no"?>
<!-- Created with Inkscape (http://www.inkscape.org/) -->

<svg
   xmlns:dc="http://purl.org/dc/elements/1.1/"
   xmlns:cc="http://creativecommons.org/ns#"
   xmlns:rdf="http://www.w3.org/1999/02/22-rdf-syntax-ns#"
   xmlns:svg="http://www.w3.org/2000/svg"
   xmlns="http://www.w3.org/2000/svg"
   xmlns:xlink="http://www.w3.org/1999/xlink"
   xmlns:sodipodi="http://sodipodi.sourceforge.net/DTD/sodipodi-0.dtd"
   xmlns:inkscape="http://www.inkscape.org/namespaces/inkscape"
   width="120"
   height="380"
   viewBox="0 0 31.750001 100.54167"
   version="1.1"
   id="svg8"
   inkscape:version="0.91 r13725"
   sodipodi:docname="Fuse.svg">
  <defs
     id="defs2">
    <inkscape:perspective
       id="perspective4197"
       inkscape:persp3d-origin="240 : 126.66667 : 1"
       inkscape:vp_z="480 : 190 : 1"
       inkscape:vp_y="0 : 1000 : 0"
       inkscape:vp_x="0 : 190 : 1"
       sodipodi:type="inkscape:persp3d" />
    <linearGradient
       id="linearGradient4189"
       inkscape:collect="always">
      <stop
         id="stop4191"
         offset="0"
         style="stop-color:#ffffff;stop-opacity:1" />
      <stop
         id="stop4193"
         offset="1"
         style="stop-color:#000000;stop-opacity:0;" />
    </linearGradient>
    <linearGradient
       id="linearGradient5349"
       inkscape:collect="always">
      <stop
         id="stop5351"
         offset="0"
         style="stop-color:#fdfdfd;stop-opacity:1;" />
      <stop
         id="stop5353"
         offset="1"
         style="stop-color:#fdfdfd;stop-opacity:1" />
    </linearGradient>
    <radialGradient
       gradientUnits="userSpaceOnUse"
       gradientTransform="matrix(0.42180436,0,0,0.0267339,-105.98218,272.19192)"
       r="69.826797"
       fy="856.052"
       fx="285.49445"
       cy="856.052"
       cx="285.49445"
       id="radialGradient5357"
       xlink:href="#linearGradient5349"
       inkscape:collect="always" />
    <linearGradient
       gradientUnits="userSpaceOnUse"
       y2="832.53247"
       x2="279.91517"
       y1="830.88361"
       x1="268.96658"
       id="linearGradient4195"
       xlink:href="#linearGradient4189"
       inkscape:collect="always"
       gradientTransform="matrix(0.26458334,0,0,0.26458334,-59.861442,72.341009)" />
  </defs>
  <sodipodi:namedview
     id="base"
     pagecolor="#ffffff"
     bordercolor="#666666"
     borderopacity="1.0"
     inkscape:pageopacity="0.0"
     inkscape:pageshadow="2"
     inkscape:zoom="3.1078947"
     inkscape:cx="44.883684"
     inkscape:cy="202.87045"
     inkscape:document-units="mm"
     inkscape:current-layer="layer1"
     showgrid="false"
     units="px"
     inkscape:snap-bbox="true"
     inkscape:snap-page="true"
     inkscape:bbox-nodes="true"
     inkscape:snap-bbox-edge-midpoints="true"
     inkscape:window-width="1165"
     inkscape:window-height="1347"
     inkscape:window-x="1242"
     inkscape:window-y="45"
     inkscape:window-maximized="0"
     inkscape:showpageshadow="false"
     borderlayer="true" />
  <metadata
     id="metadata5">
    <rdf:RDF>
      <cc:Work
         rdf:about="">
        <dc:format>image/svg+xml</dc:format>
        <dc:type
           rdf:resource="http://purl.org/dc/dcmitype/StillImage" />
        <dc:title />
      </cc:Work>
    </rdf:RDF>
  </metadata>
  <g
     inkscape:label="Layer 1"
     inkscape:groupmode="layer"
     id="layer1"
     transform="translate(0,-196.45832)"
     style="display:inline">
    <path
       style="opacity:1;fill:#000000;fill-opacity:1;fill-rule:evenodd;stroke:none;stroke-width:0.48607069;stroke-linecap:butt;stroke-linejoin:round;stroke-miterlimit:4;stroke-dasharray:none;stroke-dashoffset:0;stroke-opacity:1;paint-order:normal"
       d="m 0,196.45831 31.750001,0 0,100.54168 -31.750001,0 z"
       id="rect817"
       inkscape:connector-curvature="0" />
    <path
       style="opacity:1;fill:url(#radialGradient5357);fill-opacity:1;stroke:#8b8b8b;stroke-width:0.39687501;stroke-linejoin:miter;stroke-miterlimit:4;stroke-dasharray:none;stroke-opacity:1"
       d="m 31.483446,294.93321 -17.042828,-0.12503 -14.4172474,0.12503 -0.87873195,-3.46985 c 4.80992545,-1.00484 10.75039865,-1.72449 16.17117335,-1.71947 5.715286,0.005 9.886121,0.46573 17.046366,1.84449 z"
       id="path5329"
       inkscape:connector-curvature="0"
       sodipodi:nodetypes="ccccacc" />
    <flowRoot
       transform="matrix(0.26458334,0,0,0.26458334,-58.459936,293.81811)"
       style="font-style:normal;font-variant:normal;font-weight:normal;font-stretch:normal;font-size:10px;line-height:125%;font-family:'Trajan Pro 3';-inkscape-font-specification:'Trajan Pro 3, ';letter-spacing:0px;word-spacing:0px;fill:#000000;fill-opacity:1;stroke:none;stroke-width:1px;stroke-linecap:butt;stroke-linejoin:miter;stroke-opacity:1"
       id="flowRoot4136"
       xml:space="preserve"><flowRegion
         id="flowRegion4138"><rect
           style="font-style:normal;font-variant:normal;font-weight:normal;font-stretch:normal;font-family:'Trajan Pro 3';-inkscape-font-specification:'Trajan Pro 3, '"
           y="51.42857"
           x="91.428574"
           height="117.14286"
           width="388.57144"
           id="rect4140" /></flowRegion><flowPara
         id="flowPara4142" /></flowRoot>    <flowRoot
       transform="matrix(0.26458334,0,0,0.26458334,-58.459936,115.92228)"
       style="font-style:normal;font-weight:normal;font-size:10px;line-height:125%;font-family:sans-serif;letter-spacing:0px;word-spacing:0px;fill:#000000;fill-opacity:1;stroke:none;stroke-width:1px;stroke-linecap:butt;stroke-linejoin:miter;stroke-opacity:1"
       id="flowRoot5341"
       xml:space="preserve"><flowRegion
         id="flowRegion5343"><rect
           y="35.537983"
           x="323.24881"
           height="72.478447"
           width="7.8286824"
           id="rect5345" /></flowRegion><flowPara
         id="flowPara5347" /></flowRoot>    <path
       sodipodi:nodetypes="ccccc"
       inkscape:connector-curvature="0"
       id="rect5381"
       d="M -1.0865176e-6,291.9933 C 10.904412,290.78346 21.545669,291.00362 31.750002,292.11599 l -0.03339,3.29649 -31.7166130865176,0 z"
       style="opacity:1;fill:#000000;fill-opacity:1;stroke:none;stroke-width:1.00699997;stroke-linejoin:miter;stroke-miterlimit:4;stroke-dasharray:none;stroke-opacity:1" />
    <g
       transform="matrix(0.23844891,0,0,0.23844891,-51.671412,293.97285)"
       id="g5348">
      <path
         style="fill:#000000;fill-opacity:1;fill-rule:evenodd;stroke:none;stroke-width:1px;stroke-linecap:butt;stroke-linejoin:miter;stroke-opacity:1"
         d="m 291.23228,-10.52707 6.43066,-3.03395 5.95249,-0.742 4.22115,0.51115 5.88653,2.16005 4.68284,4.36955 z"
         id="path4179"
         inkscape:connector-curvature="0" />
      <g
         inkscape:label="Back"
         id="layer2-0"
         transform="translate(109.83831,-148.57805)">
        <g
           inkscape:label="Back"
           id="layer2-5"
           transform="matrix(0.09824765,0,0,0.06980857,176.35705,132.53479)"
           style="stroke:#ffffff;stroke-opacity:1">
          <g
             id="g2838"
             style="stroke:#ffffff;stroke-opacity:1" />
          <g
             id="g2852"
             style="stroke:#ffffff;stroke-opacity:1">
            <path
               d="m 2.1174,188.81 18.113,36.226 65.551,31.913 90.564,13.8 94.877,-11.213 60.376,-31.913 14.663,-30.188 -14.663,-37.951 0.32345,67.923 -33.099,-64.473 -25.876,96.602 -58.651,-80.214 -40.538,91.427 -40.538,-75.902 -46.576,61.239 -17.098,-92.852 -49.316,62.663 6.0376,-89.702 44.241,27.296 63.574,32.218 79.999,-16.819 86.467,-15.957 31.051,-3.6657 -33.27949,-62.050611 1.366,64.853611 -64.689,-74.392 -20.7,91.427 -69.001,-66.198 -75.902,50.026 15.35717,-82.554584 -59.34617,55.816584 24.151,-56.064 34.501,0 81.077,-37.088 -18.975,69.864 89.702,-24.151 62.101,7.7627 -66.314,-54.334 4.2124,46.571 -70.726,-45.713 66.414,-1.725 -53.476,-15.525 -12.938,16.388 -49.164,-6.9001 -66.414,44.851 -33.333,49.416 9.1828,6.6475 -23.288,52.614 z"
               style="color:#000000;fill:none;stroke:#ffffff;stroke-width:2.89188218;stroke-linejoin:bevel;stroke-miterlimit:4;stroke-dasharray:none;stroke-opacity:1"
               sodipodi:nodetypes="ccccccccccccccccccccccccccccccccccccccccccccccccc"
               id="path3614"
               inkscape:connector-curvature="0" />
            <path
               d="M 133.17,195.51 146.16,114.634 84.75317,79.116604 116.834,34.42 l 28.463,-4.3126 32.776,-5.1751 41.401,6.9001 12.938,10.35 47.438,20.7 18.975,34.501 30.188,30.188 2.8032,31.913"
               style="color:#000000;fill:none;stroke:#ffffff;stroke-width:2.89188218;stroke-linejoin:bevel;stroke-miterlimit:4;stroke-dasharray:none;stroke-opacity:1"
               sodipodi:nodetypes="cccccccccccc"
               id="path3616"
               inkscape:connector-curvature="0" />
            <path
               d="M 329.01,126.71 279.85,62.88 220.08,31.83"
               style="color:#000000;fill:none;stroke:#ffffff;stroke-width:2;stroke-linejoin:bevel;stroke-opacity:1"
               sodipodi:nodetypes="ccc"
               id="path3618"
               inkscape:connector-curvature="0" />
            <path
               d="M 1.9262189,188.1862 16.108581,129.83899"
               style="color:#000000;fill:none;stroke:#ffffff;stroke-width:2;stroke-linejoin:bevel;stroke-opacity:1"
               id="path3620"
               inkscape:connector-curvature="0"
               sodipodi:nodetypes="cc" />
          </g>
        </g>
      </g>
      <path
         style="fill:none;fill-rule:evenodd;stroke:#ffffff;stroke-width:0.2;stroke-linecap:butt;stroke-linejoin:miter;stroke-miterlimit:4;stroke-dasharray:none;stroke-opacity:1"
         d="m 320.18675,-2.24965 -1.66538,-4.93018"
         id="path4177"
         inkscape:connector-curvature="0" />
      <ellipse
         style="opacity:0;fill:#000000;fill-opacity:1;stroke:none;stroke-width:0.2;stroke-miterlimit:4;stroke-dasharray:none;stroke-opacity:1"
         id="path4183"
         cx="308.89188"
         cy="-0.40290931"
         rx="12.102836"
         ry="4.2211528" />
    </g>
    <ellipse
       ry="1.0121423"
       rx="2.800842"
       cy="292.6152"
       cx="11.398611"
       id="path4187"
       style="opacity:0;fill:url(#linearGradient4195);fill-opacity:1;stroke:none;stroke-width:0.2;stroke-miterlimit:4;stroke-dasharray:none;stroke-opacity:1" />
    <path
       sodipodi:nodetypes="cccccccccc"
       inkscape:connector-curvature="0"
       id="path4209"
       d="m 2.826339,292.08697 3.7196502,-1.53131 0.7579386,0.60829 1.1077655,-0.7832 2.2155227,0.29151 0.932852,-0.34981 3.023931,0.97939 -1.041619,0.47818 -9.5034344,0.29152 z"
       style="fill:#000000;fill-opacity:1;fill-rule:evenodd;stroke:none;stroke-width:1px;stroke-linecap:butt;stroke-linejoin:miter;stroke-opacity:1" />
    <g
       id="layer2"
       inkscape:label="Layer 2"
       transform="matrix(0.26458334,0,0,0.26458334,-59.404877,294.76305)" />
    <g
       id="flowRoot4144"
       style="font-style:normal;font-weight:normal;font-size:10px;line-height:125%;font-family:sans-serif;letter-spacing:0px;word-spacing:0px;fill:#000000;fill-opacity:1;stroke:none;stroke-width:1px;stroke-linecap:butt;stroke-linejoin:miter;stroke-opacity:1"
       transform="matrix(0.26458334,0,0,0.26458334,-45.946934,278.43557)">
      <path
         inkscape:connector-curvature="0"
         id="path5362"
         style="font-style:normal;font-variant:normal;font-weight:normal;font-stretch:normal;font-size:7.5px;font-family:Geneva;-inkscape-font-specification:Geneva;fill:#ffffff;fill-opacity:1"
         d="m 186.15283,66.994991 0.68115,0 0,0.01465 q 0,0.263672 0.20142,0.439453 0.20142,0.172119 0.68115,0.172119 0.42115,0 0.68116,-0.205078 0.26367,-0.205078 0.26367,-0.483398 0,-0.377198 -0.5127,-0.534668 l -0.3479,-0.106202 -0.23071,-0.07324 -0.47241,-0.146484 q -0.80933,-0.296631 -0.80933,-0.985108 0,-0.483398 0.39185,-0.849609 0.39184,-0.366211 1.16455,-0.366211 0.76172,0 1.08398,0.314942 0.32227,0.311279 0.32227,0.692138 l 0,0.01465 -0.68482,0 0,-0.01465 q 0,-0.205078 -0.20874,-0.322265 -0.20508,-0.117188 -0.54931,-0.117188 -0.41016,0 -0.62989,0.172119 -0.21606,0.168457 -0.21606,0.417481 0,0.190429 0.13916,0.311279 0.14282,0.117187 0.47607,0.212402 l 0.32959,0.09155 0.23804,0.06958 q 0.49805,0.142822 0.6189,0.201416 0.12451,0.05859 0.24902,0.150147 0.17212,0.131836 0.25268,0.318603 0.0842,0.186768 0.0842,0.435791 0,0.578613 -0.41748,0.974121 -0.41382,0.395508 -1.21216,0.395508 -0.50537,0 -0.83862,-0.150146 -0.33325,-0.150147 -0.531,-0.413819 -0.19776,-0.267334 -0.19776,-0.615234 l 0,-0.01465 z" />
      <path
         inkscape:connector-curvature="0"
         id="path5364"
         style="font-style:normal;font-variant:normal;font-weight:normal;font-stretch:normal;font-size:7.5px;font-family:Geneva;-inkscape-font-specification:Geneva;fill:#ffffff;fill-opacity:1"
         d="m 199.4646,68.188839 q -0.802,0 -1.36963,-0.541992 -0.56396,-0.545654 -0.56396,-1.618652 0,-1.069336 0.56396,-1.611329 0.56763,-0.545654 1.36963,-0.545654 0.79834,0 1.3623,0.545654 0.56763,0.541993 0.56763,1.611329 0,1.072998 -0.56763,1.618652 -0.56396,0.541992 -1.3623,0.541992 z m 0,-0.567627 q 0.54932,0 0.88257,-0.435791 0.33691,-0.439453 0.33691,-1.157226 0,-0.714112 -0.33691,-1.149903 -0.33325,-0.439453 -0.88257,-0.439453 -0.55298,0 -0.88989,0.439453 -0.33325,0.435791 -0.33325,1.149903 0,0.717773 0.33325,1.157226 0.33691,0.435791 0.88989,0.435791 z" />
      <path
         inkscape:connector-curvature="0"
         id="path5366"
         style="font-style:normal;font-variant:normal;font-weight:normal;font-stretch:normal;font-size:7.5px;font-family:Geneva;-inkscape-font-specification:Geneva;fill:#ffffff;fill-opacity:1"
         d="m 212.39917,63.984738 0.68115,0 0,4.090576 -0.68115,0 0,-0.714112 q -0.2124,0.32959 -0.41748,0.494385 -0.20508,0.164795 -0.42114,0.249024 -0.21607,0.08423 -0.47242,0.08423 -0.56762,0 -0.96313,-0.318603 -0.39551,-0.322266 -0.39551,-1.292725 l 0,-2.592773 0.68115,0 0,2.307128 q 0,0.897217 0.23804,1.083985 0.23804,0.186767 0.5896,0.186767 0.30396,0 0.57129,-0.175781 0.271,-0.179443 0.42847,-0.498047 0.16113,-0.322265 0.16113,-0.893554 l 0,-2.010498 z" />
      <path
         inkscape:connector-curvature="0"
         id="path5368"
         style="font-style:normal;font-variant:normal;font-weight:normal;font-stretch:normal;font-size:7.5px;font-family:Geneva;-inkscape-font-specification:Geneva;fill:#ffffff;fill-opacity:1"
         d="m 224.18018,67.4967 0,0.571289 q -0.49805,0.12085 -0.76172,0.12085 -0.38086,0 -0.68848,-0.153809 -0.30395,-0.153808 -0.46509,-0.446777 -0.15747,-0.292969 -0.15747,-0.933838 l 0,-2.102051 -0.71045,0 0,-0.567626 0.71045,0 0,-0.966797 0.68115,0 0,0.966797 1.19385,0 0,0.567626 -1.19385,0 0,1.907959 q 0,0.541993 0.0842,0.754395 0.0842,0.20874 0.26367,0.307617 0.18311,0.09888 0.4358,0.09888 0.20141,0 0.60791,-0.124512 z" />
      <path
         inkscape:connector-curvature="0"
         id="path5370"
         style="font-style:normal;font-variant:normal;font-weight:normal;font-stretch:normal;font-size:7.5px;font-family:Geneva;-inkscape-font-specification:Geneva;fill:#ffffff;fill-opacity:1"
         d="m 233.19995,68.075314 -0.68115,0 0,-5.910645 0.68115,0 0,2.526856 q 0.21607,-0.333252 0.41748,-0.494385 0.20508,-0.161133 0.42481,-0.241699 0.22338,-0.08423 0.49438,-0.08423 0.38452,0 0.68848,0.157471 0.30761,0.157471 0.47607,0.465088 0.16846,0.303955 0.16846,0.977783 l 0,2.60376 -0.68115,0 0,-2.310791 q 0,-0.549317 -0.0733,-0.776368 -0.0732,-0.230712 -0.27832,-0.358886 -0.20507,-0.131836 -0.46875,-0.131836 -0.30029,0 -0.57129,0.175781 -0.27099,0.175781 -0.43579,0.490723 -0.16113,0.314941 -0.16113,0.900879 l 0,2.010498 z" />
      <path
         inkscape:connector-curvature="0"
         id="path5372"
         style="font-style:normal;font-variant:normal;font-weight:normal;font-stretch:normal;font-size:7.5px;font-family:Geneva;-inkscape-font-specification:Geneva;fill:#ffffff;fill-opacity:1"
         d="m 245.03955,69.664669 -0.68115,0 0,-5.679931 0.68115,0 0,0.710449 q 0.2124,-0.362549 0.40283,-0.512696 0.19409,-0.150146 0.43579,-0.230712 0.2417,-0.08057 0.49805,-0.08057 0.46875,0 0.85693,0.256348 0.38819,0.252685 0.60059,0.758056 0.21606,0.505372 0.21606,1.135254 0,0.933838 -0.45043,1.552735 -0.44678,0.615234 -1.25611,0.615234 -0.26001,0 -0.49438,-0.0769 -0.23072,-0.07324 -0.41016,-0.219727 -0.17944,-0.150146 -0.39917,-0.531006 l 0,2.303467 z m 0,-3.632812 q 0,0.6958 0.30029,1.142578 0.3003,0.446777 0.84595,0.446777 0.49805,0 0.82764,-0.395508 0.32959,-0.395508 0.32959,-1.182861 0,-0.919189 -0.3479,-1.274414 -0.3479,-0.358887 -0.79468,-0.358887 -0.32227,0 -0.60425,0.197754 -0.27832,0.194092 -0.41748,0.582275 -0.13916,0.384522 -0.13916,0.842286 z" />
      <path
         inkscape:connector-curvature="0"
         id="path5374"
         style="font-style:normal;font-variant:normal;font-weight:normal;font-stretch:normal;font-size:7.5px;font-family:Geneva;-inkscape-font-specification:Geneva;fill:#ffffff;fill-opacity:1"
         d="m 258.17554,68.188839 q -0.802,0 -1.36963,-0.541992 -0.56397,-0.545654 -0.56397,-1.618652 0,-1.069336 0.56397,-1.611329 0.56763,-0.545654 1.36963,-0.545654 0.79834,0 1.3623,0.545654 0.56763,0.541993 0.56763,1.611329 0,1.072998 -0.56763,1.618652 -0.56396,0.541992 -1.3623,0.541992 z m 0,-0.567627 q 0.54931,0 0.88257,-0.435791 0.33691,-0.439453 0.33691,-1.157226 0,-0.714112 -0.33691,-1.149903 -0.33326,-0.439453 -0.88257,-0.439453 -0.55298,0 -0.8899,0.439453 -0.33325,0.435791 -0.33325,1.149903 0,0.717773 0.33325,1.157226 0.33692,0.435791 0.8899,0.435791 z" />
      <path
         inkscape:connector-curvature="0"
         id="path5376"
         style="font-style:normal;font-variant:normal;font-weight:normal;font-stretch:normal;font-size:7.5px;font-family:Geneva;-inkscape-font-specification:Geneva;fill:#ffffff;fill-opacity:1"
         d="m 269.17651,68.075314 -0.68115,0 0,-5.910645 0.68115,0 0,5.910645 z" />
      <path
         inkscape:connector-curvature="0"
         id="path5378"
         style="font-style:normal;font-variant:normal;font-weight:normal;font-stretch:normal;font-size:7.5px;font-family:Geneva;-inkscape-font-specification:Geneva;fill:#ffffff;fill-opacity:1"
         d="m 280.45581,67.024288 0.68115,0 0,0.03662 q 0,0.270996 -0.21606,0.552979 -0.21607,0.281982 -0.57129,0.428467 -0.35523,0.146484 -0.81665,0.146484 -0.93384,0 -1.44287,-0.604248 -0.50537,-0.604248 -0.50537,-1.5271 0,-0.944824 0.53466,-1.56372 0.53833,-0.622559 1.38428,-0.622559 0.46509,0 0.84229,0.201416 0.37719,0.201416 0.59692,0.629883 0.21973,0.424805 0.21973,1.186523 l 0,0.227051 -2.90406,0 q 0,0.655518 0.35157,1.080322 0.35522,0.424805 0.98144,0.424805 0.45044,0 0.65552,-0.172119 0.20874,-0.175781 0.20874,-0.388184 l 0,-0.03662 z m -2.15332,-1.420898 2.20825,0 0,-0.08057 q 0,-0.285644 -0.13916,-0.552978 -0.1355,-0.270996 -0.3772,-0.39917 -0.24169,-0.131836 -0.56396,-0.131836 -0.38086,0 -0.70313,0.307617 -0.32226,0.303955 -0.4248,0.856934 z" />
    </g>
    <g
       id="g5243"
       transform="translate(-4.9202012,0)" />
    <flowRoot
       xml:space="preserve"
       id="flowRoot6030"
       style="fill:#ffffff;font-size:7.5px;fill-opacity:1;stroke:#9f9f9f;stroke-opacity:1;opacity:1;stroke-width:1.77165354;stroke-miterlimit:4;stroke-dasharray:none"><flowRegion
         id="flowRegion6032"><rect
           id="rect6034"
           width="7.9155955"
           height="17.98999"
           x="-7.9155955"
           y="209.8147" /></flowRegion><flowPara
         id="flowPara6036" /></flowRoot>    <text
       xml:space="preserve"
       style="font-size:2.64583349px;opacity:1;fill:#ffffff;fill-opacity:1;stroke:#ffffff;stroke-width:0.26458334;stroke-miterlimit:4;stroke-dasharray:0.26458334,0.26458334;stroke-dashoffset:0;stroke-opacity:1"
       x="2.4751227"
       y="204.37328"
       id="text6123"><tspan
         sodipodi:role="line"
         id="tspan6125"
         x="2.4751227"
         y="204.37328"
         style="stroke-width:0.26458334;stroke-miterlimit:4;stroke-dasharray:0.26458334,0.26458334;stroke-dashoffset:0" /></text>
    <ellipse
       style="opacity:0;fill:#ffffff;fill-opacity:1;stroke:#ffffff;stroke-width:0.26458335;stroke-miterlimit:4;stroke-dasharray:none;stroke-opacity:1"
       id="path4344"
       cx="-7.0660105"
       cy="221.01909"
       rx="3.8309696"
       ry="4.1289339" />
    <rect
       style="opacity:0;fill:#7d7d7d;fill-opacity:1;stroke:#ffffff;stroke-width:0.26458335;stroke-miterlimit:4;stroke-dasharray:none;stroke-opacity:1"
       id="rect4346"
       width="9.279459"
       height="9.1091948"
       x="-11.748307"
       y="211.35654" />
    <g
       style="font-size:4.63020849px;opacity:1;fill:#ffffff;fill-opacity:1;stroke:none;stroke-width:0.26458335;stroke-miterlimit:4;stroke-dasharray:none;stroke-opacity:1"
       id="text5076">
      <path
         d="m 0.99524595,197.12084 1.93980415,0 0,0.38434 -1.4831137,0 0,0.99477 1.3384197,0 0,0.38435 -1.3384197,0 0,1.61198 -0.45669045,0 0,-3.37544 z"
         style="fill:#ffffff;fill-opacity:1;stroke:none;stroke-width:0.26458335;stroke-miterlimit:4;stroke-dasharray:none;stroke-opacity:1"
         id="path5142" />
      <path
         d="m 3.3397412,199.49698 0,-1.53285 0.4159953,0 0,1.51703 q 0,0.35947 0.1401724,0.54034 0.1401723,0.17861 0.4205169,0.17861 0.3368658,0 0.5312984,-0.21478 0.1966934,-0.21478 0.1966934,-0.58556 l 0,-1.43564 0.4159953,0 0,2.53215 -0.4159953,0 0,-0.38887 q -0.1514765,0.23061 -0.3526917,0.34365 -0.1989542,0.11078 -0.463473,0.11078 -0.4363429,0 -0.6624273,-0.2713 -0.2260844,-0.2713 -0.2260844,-0.79356 z"
         style="fill:#ffffff;fill-opacity:1;stroke:none;stroke-width:0.26458335;stroke-miterlimit:4;stroke-dasharray:none;stroke-opacity:1"
         id="path5144" />
      <path
         d="m 7.9360368,198.03874 0,0.39339 q -0.1763458,-0.0904 -0.3662567,-0.13565 -0.1899109,-0.0452 -0.3933869,-0.0452 -0.3097356,0 -0.4657338,0.095 -0.1537374,0.095 -0.1537374,0.28487 0,0.14469 0.1107813,0.22835 0.1107814,0.0814 0.4453863,0.15599 l 0.1424332,0.0317 q 0.4431254,0.095 0.6285146,0.26904 0.1876501,0.17182 0.1876501,0.48156 0,0.35269 -0.2803447,0.55842 -0.2780838,0.20574 -0.7664261,0.20574 -0.203476,0 -0.4250387,-0.0407 -0.2193018,-0.0384 -0.463473,-0.11757 l 0,-0.42956 q 0.2306061,0.11983 0.4544296,0.18087 0.2238236,0.0588 0.4431255,0.0588 0.2939097,0 0.4521688,-0.0995 0.158259,-0.10173 0.158259,-0.28486 0,-0.16957 -0.115303,-0.26 -0.1130422,-0.0904 -0.4996465,-0.17408 l -0.144694,-0.0339 q -0.3866044,-0.0814 -0.5584285,-0.24869 -0.1718241,-0.16956 -0.1718241,-0.46347 0,-0.35722 0.2532145,-0.55165 0.2532145,-0.19443 0.7189484,-0.19443 0.2306061,0 0.434082,0.0339 0.203476,0.0339 0.3753001,0.10174 z"
         style="fill:#ffffff;fill-opacity:1;stroke:none;stroke-width:0.26458335;stroke-miterlimit:4;stroke-dasharray:none;stroke-opacity:1"
         id="path5146" />
      <path
         d="m 10.902264,199.12621 0,0.20347 -1.912674,0 q 0.02713,0.42956 0.2577362,0.65565 0.232867,0.22382 0.6466014,0.22382 0.2396494,0 0.4634734,-0.0588 0.226084,-0.0588 0.447647,-0.17635 l 0,0.39339 q -0.223824,0.0949 -0.458952,0.14469 -0.235127,0.0497 -0.4770377,0.0497 -0.6059061,0 -0.9608587,-0.35269 -0.3526916,-0.35269 -0.3526916,-0.95408 0,-0.62173 0.3346049,-0.98572 0.3368658,-0.36626 0.9065984,-0.36626 0.5109507,0 0.8071217,0.33008 0.298431,0.32782 0.298431,0.89304 z m -0.415995,-0.12209 q -0.0045,-0.34139 -0.192172,-0.54486 -0.185389,-0.20348 -0.492864,-0.20348 -0.3481699,0 -0.5584284,0.19669 -0.2079977,0.1967 -0.2396495,0.55391 l 1.4831139,-0.002 z"
         style="fill:#ffffff;fill-opacity:1;stroke:none;stroke-width:0.26458335;stroke-miterlimit:4;stroke-dasharray:none;stroke-opacity:1"
         id="path5148" />
    </g>
    <g
       style="font-size:1.984375px;opacity:1;fill:#ffffff;fill-opacity:1;stroke:none;stroke-width:1;stroke-miterlimit:4;stroke-dasharray:none;stroke-opacity:1"
       id="text5080">
      <path
         d="m 13.134374,197.17898 0,0.16859 q -0.07558,-0.0387 -0.156967,-0.0581 -0.08139,-0.0194 -0.168595,-0.0194 -0.132744,0 -0.1996,0.0407 -0.06589,0.0407 -0.06589,0.12209 0,0.062 0.04748,0.0979 0.04748,0.0349 0.19088,0.0669 l 0.06104,0.0136 q 0.189911,0.0407 0.269363,0.11531 0.08042,0.0736 0.08042,0.20638 0,0.15115 -0.120148,0.23932 -0.119179,0.0882 -0.328468,0.0882 -0.0872,0 -0.18216,-0.0174 -0.09399,-0.0165 -0.198631,-0.0504 l 0,-0.1841 q 0.09883,0.0514 0.194755,0.0775 0.09593,0.0252 0.189911,0.0252 0.125962,0 0.193787,-0.0426 0.06782,-0.0436 0.06782,-0.12209 0,-0.0727 -0.04941,-0.11142 -0.04845,-0.0388 -0.214135,-0.0746 l -0.06201,-0.0145 q -0.165688,-0.0349 -0.239327,-0.10658 -0.07364,-0.0727 -0.07364,-0.19863 0,-0.15309 0.108521,-0.23642 0.10852,-0.0833 0.308121,-0.0833 0.09883,0 0.186035,0.0145 0.0872,0.0145 0.160843,0.0436 z"
         style=""
         id="path5117" />
      <path
         d="m 13.928899,198.33298 q -0.07558,0.19378 -0.147278,0.25289 -0.0717,0.0591 -0.191849,0.0591 l -0.142433,0 0,-0.14921 0.104645,0 q 0.07364,0 0.114334,-0.0349 0.04069,-0.0349 0.09011,-0.16472 l 0.03197,-0.0814 -0.438927,-1.06777 0.188942,0 0.339126,0.84879 0.339127,-0.84879 0.188942,0 -0.476715,1.18598 z"
         style=""
         id="path5119" />
      <path
         d="m 15.5538,197.57721 0,0.655 -0.178284,0 0,-0.64919 q 0,-0.15406 -0.06007,-0.2306 -0.06007,-0.0765 -0.180221,-0.0765 -0.144372,0 -0.2277,0.0921 -0.08333,0.0921 -0.08333,0.25095 l 0,0.61334 -0.179253,0 0,-1.08521 0.179253,0 0,0.1686 q 0.06395,-0.0979 0.150185,-0.14631 0.0872,-0.0485 0.200569,-0.0485 0.187004,0 0.282928,0.11627 0.09593,0.11531 0.09593,0.3401 z"
         style=""
         id="path5121" />
      <path
         d="m 16.692296,197.18867 0,0.16665 q -0.07558,-0.0417 -0.152122,-0.062 -0.07558,-0.0213 -0.153092,-0.0213 -0.173439,0 -0.269363,0.11045 -0.09593,0.10949 -0.09593,0.30812 0,0.19864 0.09593,0.30909 0.09592,0.10949 0.269363,0.10949 0.07752,0 0.153092,-0.0203 0.07654,-0.0213 0.152122,-0.063 l 0,0.16471 q -0.07461,0.0349 -0.155029,0.0523 -0.07945,0.0174 -0.169564,0.0174 -0.24514,0 -0.389511,-0.15406 -0.144371,-0.15406 -0.144371,-0.41568 0,-0.26548 0.14534,-0.41761 0.146309,-0.15212 0.40017,-0.15212 0.08236,0 0.160843,0.0174 0.07848,0.0165 0.152122,0.0504 z"
         style=""
         id="path5123" />
      <path
         d="m 12.618901,199.31935 0,0.30812 0.367226,0 0,0.13856 -0.367226,0 0,0.58911 q 0,0.13274 0.03585,0.17053 0.03682,0.0378 0.148247,0.0378 l 0.183128,0 0,0.14922 -0.183128,0 q -0.206383,0 -0.284867,-0.0765 -0.07848,-0.0775 -0.07848,-0.28099 l 0,-0.58911 -0.130806,0 0,-0.13856 0.130806,0 0,-0.30812 0.179252,0 z"
         style=""
         id="path5125" />
      <path
         d="m 13.850415,199.79413 q -0.03004,-0.0174 -0.06589,-0.0252 -0.03488,-0.009 -0.07752,-0.009 -0.151153,0 -0.232544,0.0988 -0.08042,0.0979 -0.08042,0.28196 l 0,0.57167 -0.179253,0 0,-1.08521 0.179253,0 0,0.1686 q 0.0562,-0.0988 0.146309,-0.14631 0.09011,-0.0484 0.218979,-0.0484 0.01841,0 0.0407,0.003 0.02229,0.002 0.04941,0.007 l 9.69e-4,0.18313 z"
         style=""
         id="path5127" />
      <path
         d="m 14.039357,199.62747 0.178284,0 0,1.08521 -0.178284,0 0,-1.08521 z m 0,-0.42245 0.178284,0 0,0.22576 -0.178284,0 0,-0.22576 z"
         style=""
         id="path5129" />
      <path
         d="m 15.303815,200.15748 q 0,-0.19379 -0.08042,-0.30037 -0.07945,-0.10658 -0.223823,-0.10658 -0.143402,0 -0.223824,0.10658 -0.07945,0.10658 -0.07945,0.30037 0,0.19282 0.07945,0.2994 0.08042,0.10658 0.223824,0.10658 0.144371,0 0.223823,-0.10658 0.08042,-0.10658 0.08042,-0.2994 z m 0.178284,0.42052 q 0,0.27711 -0.123055,0.41179 -0.123054,0.13565 -0.376915,0.13565 -0.09399,0 -0.177315,-0.0145 -0.08333,-0.0136 -0.161811,-0.0426 l 0,-0.17344 q 0.07848,0.0426 0.155029,0.063 0.07655,0.0203 0.155998,0.0203 0.175377,0 0.262581,-0.092 0.0872,-0.0911 0.0872,-0.27615 l 0,-0.0882 q -0.05523,0.0959 -0.141464,0.1434 -0.08623,0.0475 -0.206383,0.0475 -0.1996,0 -0.321686,-0.15213 -0.122085,-0.15212 -0.122085,-0.40307 0,-0.25192 0.122085,-0.40405 0.122086,-0.15212 0.321686,-0.15212 0.120148,0 0.206383,0.0475 0.08624,0.0475 0.141464,0.1434 l 0,-0.16472 0.178284,0 0,0.95053 z"
         style=""
         id="path5131" />
      <path
         d="m 16.563428,200.15748 q 0,-0.19379 -0.08042,-0.30037 -0.07945,-0.10658 -0.223823,-0.10658 -0.143402,0 -0.223824,0.10658 -0.07945,0.10658 -0.07945,0.30037 0,0.19282 0.07945,0.2994 0.08042,0.10658 0.223824,0.10658 0.144371,0 0.223823,-0.10658 0.08042,-0.10658 0.08042,-0.2994 z m 0.178284,0.42052 q 0,0.27711 -0.123055,0.41179 -0.123054,0.13565 -0.376915,0.13565 -0.09399,0 -0.177315,-0.0145 -0.08333,-0.0136 -0.161811,-0.0426 l 0,-0.17344 q 0.07848,0.0426 0.155029,0.063 0.07655,0.0203 0.155998,0.0203 0.175377,0 0.262581,-0.092 0.0872,-0.0911 0.0872,-0.27615 l 0,-0.0882 q -0.05523,0.0959 -0.141464,0.1434 -0.08623,0.0475 -0.206383,0.0475 -0.1996,0 -0.321686,-0.15213 -0.122085,-0.15212 -0.122085,-0.40307 0,-0.25192 0.122085,-0.40405 0.122086,-0.15212 0.321686,-0.15212 0.120148,0 0.206383,0.0475 0.08624,0.0475 0.141464,0.1434 l 0,-0.16472 0.178284,0 0,0.95053 z"
         style=""
         id="path5133" />
      <path
         d="m 18.037175,200.1255 0,0.0872 -0.819717,0 q 0.01163,0.18409 0.110458,0.28099 0.0998,0.0959 0.277115,0.0959 0.102707,0 0.198631,-0.0252 0.09689,-0.0252 0.191849,-0.0756 l 0,0.1686 q -0.09592,0.0407 -0.196693,0.062 -0.100769,0.0213 -0.204445,0.0213 -0.259674,0 -0.411797,-0.15116 -0.151153,-0.15115 -0.151153,-0.40889 0,-0.26645 0.143402,-0.42245 0.144371,-0.15697 0.388542,-0.15697 0.218979,0 0.345909,0.14146 0.127899,0.1405 0.127899,0.38273 z m -0.178284,-0.0523 q -0.0019,-0.14631 -0.08236,-0.23351 -0.07945,-0.0872 -0.211227,-0.0872 -0.149216,0 -0.239327,0.0843 -0.08914,0.0843 -0.102707,0.23739 l 0.63562,-9.7e-4 z"
         style=""
         id="path5135" />
      <path
         d="m 18.954755,199.79413 q -0.03004,-0.0174 -0.06589,-0.0252 -0.03488,-0.009 -0.07751,-0.009 -0.151154,0 -0.232544,0.0988 -0.08042,0.0979 -0.08042,0.28196 l 0,0.57167 -0.179252,0 0,-1.08521 0.179252,0 0,0.1686 q 0.0562,-0.0988 0.146309,-0.14631 0.09011,-0.0484 0.218979,-0.0484 0.01841,0 0.04069,0.003 0.02229,0.002 0.04942,0.007 l 9.69e-4,0.18313 z"
         style=""
         id="path5137" />
      <path
         d="m 19.835515,199.65945 0,0.16859 q -0.07558,-0.0388 -0.156967,-0.0581 -0.08139,-0.0194 -0.168595,-0.0194 -0.132743,0 -0.1996,0.0407 -0.06589,0.0407 -0.06589,0.12209 0,0.062 0.04748,0.0979 0.04748,0.0349 0.190879,0.0669 l 0.06104,0.0136 q 0.189911,0.0407 0.269364,0.1153 0.08042,0.0736 0.08042,0.20639 0,0.15115 -0.120148,0.23932 -0.119178,0.0882 -0.328468,0.0882 -0.0872,0 -0.182159,-0.0174 -0.09399,-0.0165 -0.198632,-0.0504 l 0,-0.1841 q 0.09883,0.0514 0.194756,0.0775 0.09592,0.0252 0.189911,0.0252 0.125961,0 0.193786,-0.0426 0.06783,-0.0436 0.06783,-0.12209 0,-0.0727 -0.04942,-0.11143 -0.04845,-0.0388 -0.214134,-0.0746 l -0.06201,-0.0145 q -0.165687,-0.0349 -0.239326,-0.10658 -0.07364,-0.0727 -0.07364,-0.19863 0,-0.15309 0.10852,-0.23642 0.108521,-0.0833 0.308121,-0.0833 0.09883,0 0.186035,0.0145 0.0872,0.0145 0.160843,0.0436 z"
         style=""
         id="path5139" />
    </g>
    <g
       style="font-size:2.64583349px;opacity:1;fill:#ffffff;fill-opacity:1;stroke:none;stroke-width:1;stroke-miterlimit:4;stroke-dasharray:none;stroke-opacity:1"
       id="text5094">
      <path
         d="m 5.6201326,278.02294 0,0.27518 q -0.1317749,-0.12274 -0.2816365,-0.18346 -0.1485698,-0.0607 -0.3165182,-0.0607 -0.3307292,0 -0.5064291,0.20283 -0.1756999,0.20154 -0.1756999,0.58395 0,0.38111 0.1756999,0.58394 0.1756999,0.20154 0.5064291,0.20154 0.1679484,0 0.3165182,-0.0607 0.1498616,-0.0607 0.2816365,-0.18345 l 0,0.27259 q -0.1369425,0.093 -0.2906799,0.13953 -0.1524455,0.0465 -0.3229777,0.0465 -0.4379578,0 -0.6898805,-0.26743 -0.2519226,-0.26872 -0.2519226,-0.73251 0,-0.46509 0.2519226,-0.73251 0.2519227,-0.26872 0.6898805,-0.26872 0.173116,0 0.3255615,0.0465 0.1537374,0.0452 0.2880961,0.13694 z"
         style=""
         id="path5110" />
      <path
         d="m 6.0257926,277.87437 0.260966,0 0,1.7092 0.9392192,0 0,0.21962 -1.2001852,0 0,-1.92882 z"
         style=""
         id="path5112" />
      <path
         d="m 7.4985712,277.87437 0.260966,0 0,0.81519 0.8655803,-0.81519 0.3358968,0 -0.957306,0.89917 1.0257773,1.02965 -0.3436483,0 -0.9263001,-0.92888 0,0.92888 -0.260966,0 0,-1.92882 z"
         style=""
         id="path5114" />
    </g>
    <g
       style="font-size:2.64583349px;opacity:1;fill:#ffffff;fill-opacity:1;stroke:none;stroke-width:1;stroke-miterlimit:4;stroke-dasharray:none;stroke-opacity:1"
       id="text5098">
      <path
         d="m 13.178052,279.10589 q 0.08397,0.0284 0.162781,0.12144 0.0801,0.093 0.160197,0.25579 l 0.264841,0.5271 -0.280344,0 -0.246755,-0.4948 q -0.0956,-0.19379 -0.186035,-0.25709 -0.08914,-0.0633 -0.244171,-0.0633 l -0.284221,0 0,0.81519 -0.260966,0 0,-1.92882 0.589111,0 q 0.33073,0 0.49351,0.13823 0.162781,0.13824 0.162781,0.41729 0,0.18216 -0.08527,0.30231 -0.08397,0.12015 -0.245463,0.16666 z m -0.653707,-0.81003 0,0.68471 0.328145,0 q 0.188619,0 0.284221,-0.0866 0.09689,-0.0879 0.09689,-0.25709 0,-0.16924 -0.09689,-0.2545 -0.0956,-0.0866 -0.284221,-0.0866 l -0.328145,0 z"
         style=""
         id="path5103" />
      <path
         d="m 15.259321,278.1447 0,0.25451 q -0.14857,-0.071 -0.280345,-0.10594 -0.131775,-0.0349 -0.254507,-0.0349 -0.213165,0 -0.329437,0.0827 -0.11498,0.0827 -0.11498,0.23513 0,0.1279 0.07622,0.19379 0.07751,0.0646 0.291972,0.10464 l 0.157613,0.0323 q 0.291972,0.0556 0.430206,0.19637 0.139526,0.13953 0.139526,0.37466 0,0.28034 -0.188619,0.42503 -0.187327,0.1447 -0.550354,0.1447 -0.136942,0 -0.291971,-0.031 -0.153738,-0.031 -0.319102,-0.0917 l 0,-0.26872 q 0.158905,0.0891 0.31135,0.13436 0.152446,0.0452 0.299723,0.0452 0.223501,0 0.344941,-0.0879 0.121439,-0.0879 0.121439,-0.25064 0,-0.14211 -0.08785,-0.2222 -0.08656,-0.0801 -0.285512,-0.12015 l -0.158905,-0.031 q -0.291972,-0.0581 -0.422455,-0.18216 -0.130483,-0.12402 -0.130483,-0.34494 0,-0.2558 0.179576,-0.40307 0.180867,-0.14728 0.497385,-0.14728 0.135651,0 0.276469,0.0246 0.140819,0.0245 0.288097,0.0736 z"
         style=""
         id="path5105" />
      <path
         d="m 15.520287,278.0814 1.631683,0 0,0.21963 -0.684713,0 0,1.70919 -0.262258,0 0,-1.70919 -0.684712,0 0,-0.21963 z"
         style=""
         id="path5107" />
    </g>
  </g>
  <g
     inkscape:groupmode="layer"
     id="layer3"
     inkscape:label="widgets"
     style="display:none">
    <rect
       style="display:inline;opacity:1;fill:#ff0200;fill-opacity:1;stroke:none;stroke-width:1;stroke-miterlimit:4;stroke-dasharray:none;stroke-opacity:1"
       id="rect5091"
       width="5.6426449"
       height="5.5571499"
       x="22.004379"
       y="51.120346" />
    <rect
       style="display:inline;opacity:1;fill:#00ff00;fill-opacity:1;stroke:none;stroke-width:1;stroke-miterlimit:4;stroke-dasharray:none;stroke-opacity:1"
       id="rect5093"
       width="5.2151713"
       height="5.2151713"
       x="22.084158"
       y="45.009415" />
    <rect
       style="display:inline;opacity:1;fill:#0000ff;fill-opacity:1;stroke:none;stroke-width:1;stroke-miterlimit:4;stroke-dasharray:none;stroke-opacity:1"
       id="rect4969"
       width="5.3861609"
       height="5.3861609"
       x="22.38339"
       y="83.223175" />
    <rect
       style="display:inline;opacity:1;fill:#00ff00;fill-opacity:1;stroke:none;stroke-width:1;stroke-miterlimit:4;stroke-dasharray:none;stroke-opacity:1"
       id="rect4975"
       width="5.3546834"
       height="5.5909305"
       x="2.3290534"
       y="75.108711" />
    <rect
       style="display:inline;opacity:1;fill:#00ff00;fill-opacity:1;stroke:none;stroke-width:1;stroke-miterlimit:4;stroke-dasharray:none;stroke-opacity:1"
       id="rect4979"
       width="5.5571499"
       height="5.5571499"
       x="2.4403408"
       y="44.95977" />
    <rect
       style="display:inline;opacity:1;fill:#00ff00;fill-opacity:1;stroke:none;stroke-width:1;stroke-miterlimit:4;stroke-dasharray:none;stroke-opacity:1"
       id="rect4981"
       width="5.7281394"
       height="5.7281394"
       x="11.818956"
       y="44.461246" />
    <rect
       style="display:inline;opacity:1;fill:#00ff00;fill-opacity:1;stroke:none;stroke-width:1;stroke-miterlimit:4;stroke-dasharray:none;stroke-opacity:1"
       id="rect4983"
       width="5.8136339"
       height="5.8136339"
       x="21.57119"
       y="27.209215" />
    <rect
       style="display:inline;opacity:1;fill:#00ff00;fill-opacity:1;stroke:none;stroke-width:1;stroke-miterlimit:4;stroke-dasharray:none;stroke-opacity:1"
       id="rect4989"
       width="5.5571499"
       height="5.5571499"
       x="12.466015"
       y="27.43049" />
    <rect
       style="display:inline;opacity:1;fill:#00ff00;fill-opacity:1;stroke:none;stroke-width:1;stroke-miterlimit:4;stroke-dasharray:none;stroke-opacity:1"
       id="rect4991"
       width="5.3006663"
       height="5.3006663"
       x="2.3290534"
       y="17.041332" />
    <rect
       style="display:inline;opacity:1;fill:#00ff00;fill-opacity:1;stroke:none;stroke-width:1;stroke-miterlimit:4;stroke-dasharray:none;stroke-opacity:1"
       id="rect5041"
       width="5.7281394"
       height="5.7281394"
       x="2.7565265"
       y="27.470434" />
    <rect
       style="display:inline;opacity:1;fill:#ff0000;fill-opacity:1;stroke:none;stroke-width:1;stroke-miterlimit:4;stroke-dasharray:none;stroke-opacity:1"
       id="rect5043"
       width="5.7281394"
       height="5.7281394"
       x="2.7565265"
       y="34.256905" />
    <rect
       style="display:inline;opacity:1;fill:#ff0000;fill-opacity:1;stroke:none;stroke-width:1;stroke-miterlimit:4;stroke-dasharray:none;stroke-opacity:1"
       id="rect5045"
       width="5.0441828"
       height="5.3861609"
       x="12.722499"
       y="34.045975" />
    <rect
       style="display:inline;opacity:1;fill:#ff0000;fill-opacity:1;stroke:none;stroke-width:1;stroke-miterlimit:4;stroke-dasharray:none;stroke-opacity:1"
       id="rect5047"
       width="5.3861609"
       height="5.3861609"
       x="21.784927"
       y="34.081181" />
    <rect
       style="display:inline;opacity:1;fill:#ff0000;fill-opacity:1;stroke:none;stroke-width:1;stroke-miterlimit:4;stroke-dasharray:none;stroke-opacity:1"
       id="rect5049"
       width="5.4716558"
       height="5.4716558"
       x="12.20437"
       y="51.205566" />
    <rect
       style="display:inline;opacity:1;fill:#ff0000;fill-opacity:1;stroke:none;stroke-width:1;stroke-miterlimit:4;stroke-dasharray:none;stroke-opacity:1"
       id="rect5053"
       width="5.3006663"
       height="5.4716558"
       x="12.046068"
       y="77.941887" />
    <rect
       style="display:inline;opacity:1;fill:#00ff00;fill-opacity:1;stroke:none;stroke-width:1;stroke-miterlimit:4;stroke-dasharray:none;stroke-opacity:1"
       id="rect4923"
       width="5.6426449"
       height="5.4586453"
       x="2.3290534"
       y="83.479645" />
    <rect
       style="display:inline;opacity:1;fill:#ff0000;fill-opacity:1;stroke:none;stroke-width:1;stroke-miterlimit:4;stroke-dasharray:none;stroke-opacity:1"
       id="rect4945"
       width="5.2151713"
       height="5.2151713"
       x="10.15766"
       y="17.126818" />
    <rect
       style="display:inline;opacity:1;fill:#0000ff;fill-opacity:1;stroke:none;stroke-width:1;stroke-miterlimit:4;stroke-dasharray:none;stroke-opacity:1"
       id="rect4947"
       width="5.6302543"
       height="5.4716554"
       x="22.38339"
       y="74.894981" />
    <rect
       style="display:inline;opacity:1;fill:#00ff00;fill-opacity:1;stroke:none;stroke-width:1;stroke-miterlimit:4;stroke-dasharray:none;stroke-opacity:1"
       id="rect5332"
       width="5.4716558"
       height="5.4716558"
       x="2.2228601"
       y="10.316954" />
  </g>
</svg>
