<svg xmlns="http://www.w3.org/2000/svg" xmlns:xlink="http://www.w3.org/1999/xlink" width="60" height="380" viewBox="0 0 15.875 100.542">
    <defs>
        <linearGradient id="b">
            <stop offset="0" stop-color="#fff"/>
            <stop offset="1" stop-opacity="0"/>
        </linearGradient>
        <linearGradient id="a">
            <stop offset="0" stop-color="#fdfdfd"/>
            <stop offset="1" stop-color="#fdfdfd"/>
        </linearGradient>
        <radialGradient gradientUnits="userSpaceOnUse" gradientTransform="matrix(.4218 0 0 .02673 -105.982 272.192)" r="69.827" fy="856.052" fx="285.494" cy="856.052" cx="285.494" id="d" xlink:href="#a"/>
        <linearGradient gradientUnits="userSpaceOnUse" y2="832.532" x2="279.915" y1="830.884" x1="268.967" id="h" xlink:href="#b" gradientTransform="matrix(.26458 0 0 .26458 -59.861 72.341)"/>
        <clipPath clipPathUnits="userSpaceOnUse" id="i">
            <rect width="15.875" height="13.846" y="283.154" rx=".088" ry=".062" fill="#fff" stroke-width=".3" stroke-miterlimit="10"/>
        </clipPath>
        <clipPath clipPathUnits="userSpaceOnUse" id="g">
            <rect width="15.875" height="13.846" y="283.154" rx=".088" ry=".062" fill="#fff" stroke-width=".3" stroke-miterlimit="10"/>
        </clipPath>
        <clipPath clipPathUnits="userSpaceOnUse" id="f">
            <rect width="66.576" height="58.065" x="216.698" y="-45.37" rx=".368" ry=".262" fill="#fff" stroke-width=".3" stroke-miterlimit="10"/>
        </clipPath>
        <clipPath clipPathUnits="userSpaceOnUse" id="e">
            <rect width="15.875" height="13.846" y="283.154" rx=".088" ry=".062" fill="#fff" stroke-width=".3" stroke-miterlimit="10"/>
        </clipPath>
        <clipPath clipPathUnits="userSpaceOnUse" id="c">
            <rect width="15.875" height="13.846" y="283.154" rx=".088" ry=".062" fill="#fff" stroke-width=".3" stroke-miterlimit="10"/>
        </clipPath>
    </defs>
    <g transform="translate(0 -196.458)">
        <path d="M0 196.458h15.875V297H0z" fill-rule="evenodd"/>
        <path d="M31.483 294.933l-17.042-.125-14.418.125-.818-4.252c4.81-1.005 11.243-1.144 16.412-.335 5.53.865 9.585-.136 16.745 1.242z" clip-path="url(#c)" fill="url(#d)" stroke="#8b8b8b" stroke-width=".397"/>
        <flowRoot transform="matrix(.26458 0 0 .26458 -58.46 115.922)" style="line-height:125%" xml:space="preserve" font-style="normal" font-weight="400" font-size="10" font-family="sans-serif" letter-spacing="0" word-spacing="0" fill="#000" fill-opacity="1" stroke="none" stroke-width="1" stroke-linecap="butt" stroke-linejoin="miter" stroke-opacity="1">
            <flowRegion>
                <path d="M323.249 35.538h7.829v72.478h-7.829z"/>
            </flowRegion>
            <flowPara/>
        </flowRoot>
        <path d="M0 291.993c11.211 0 21.887.123 31.75.123l-.033 3.296H0z" clip-path="url(#e)"/>
        <g transform="matrix(.23845 0 0 .23845 -51.671 293.973)" clip-path="url(#f)">
            <path d="M291.232-10.527l6.43-3.034 5.953-.742 4.222.511 5.886 2.16 4.683 4.37z" fill-rule="evenodd"/>
            <g stroke="#fff">
                <g color="#000" fill="none" stroke-linejoin="bevel">
                    <path d="M2.117 188.81l18.113 36.226 65.551 31.913 90.564 13.8 94.877-11.213 60.376-31.913 14.663-30.188-14.663-37.951.324 67.923-33.1-64.473-25.875 96.602-58.651-80.214-40.538 91.427-40.538-75.902-46.576 61.239-17.098-92.852-49.316 62.663 6.037-89.702 44.241 27.296 63.574 32.218 80-16.819 86.466-15.957 31.051-3.666-33.279-62.05 1.366 64.853-64.689-74.392-20.7 91.427-69.001-66.198-75.902 50.026L84.751 80.38l-59.346 55.816 24.151-56.064h34.501l81.077-37.088-18.975 69.864 89.702-24.15 62.101 7.762-66.314-54.334 4.212 46.571-70.726-45.713 66.414-1.725-53.476-15.525-12.938 16.388-49.164-6.9-66.414 44.85-33.333 49.417 9.183 6.647L2.118 188.81z" stroke-width="2.892" transform="matrix(.09825 0 0 .0698 286.195 -16.043)"/>
                    <path d="M133.17 195.51l12.99-80.876-61.407-35.517 32.081-44.697 28.463-4.313 32.776-5.175 41.401 6.9 12.938 10.35 47.438 20.7 18.975 34.501 30.188 30.188 2.803 31.913" stroke-width="2.892" transform="matrix(.09825 0 0 .0698 286.195 -16.043)"/>
                    <path d="M329.01 126.71l-49.16-63.83-59.77-31.05M1.926 188.186L16.11 129.84" stroke-width="2" transform="matrix(.09825 0 0 .0698 286.195 -16.043)"/>
                </g>
            </g>
            <path d="M320.187-2.25l-1.666-4.93" fill="none" stroke="#fff" stroke-width=".2"/>
        </g>
        <path d="M1.743 292.027l4.382-1.29 1.179.427 1.108-.783 2.215.291.933-.35 1.94 1.702-1.643.238-7.878.23z" clip-path="url(#i)" transform="translate(0 .53)" fill-rule="evenodd"/>
        <text x="2.475" y="204.373" font-size="2.646" fill="#fff" stroke="#fff" stroke-width=".265" stroke-dasharray=".26458334,.26458334"/>
        <g font-size="4.63" fill="#fff" stroke-width=".265">
            <path d="M1.137 197.12h1.94v.385H1.594v.995h1.338v.384H1.594v1.612h-.457v-3.375zM3.481 199.497v-1.533h.416v1.517q0 .36.14.54.14.18.421.18.337 0 .531-.216.197-.214.197-.585v-1.436h.416v2.532h-.416v-.389q-.151.231-.353.344-.199.11-.463.11-.436 0-.663-.27-.226-.272-.226-.794zM8.078 198.039v.393q-.177-.09-.367-.136-.19-.045-.393-.045-.31 0-.466.095-.153.095-.153.285 0 .145.11.229.111.08.446.155l.142.032q.443.095.629.27.187.171.187.48 0 .353-.28.56-.278.205-.766.205-.204 0-.426-.04-.219-.04-.463-.118v-.43q.23.12.454.181.224.059.444.059.293 0 .452-.1.158-.101.158-.285 0-.17-.115-.26-.113-.09-.5-.174l-.145-.034q-.386-.08-.558-.248-.172-.17-.172-.464 0-.357.253-.551.254-.195.72-.195.23 0 .433.034.204.034.376.102zM11.044 199.126v.204H9.13q.027.43.258.655.233.224.647.224.24 0 .463-.059.226-.058.448-.176v.393q-.224.095-.46.145-.234.05-.476.05-.606 0-.961-.353-.353-.353-.353-.954 0-.622.335-.986.337-.366.906-.366.511 0 .807.33.299.328.299.893zm-.416-.122q-.005-.341-.192-.545-.186-.203-.493-.203-.348 0-.559.196-.208.197-.24.554l1.484-.002z"/>
        </g>
        <g font-size="2.646" fill="#fff">
            <path d="M3.503 281.727v.275q-.131-.122-.281-.183-.149-.06-.317-.06-.33 0-.506.202-.176.201-.176.584 0 .381.176.584.176.201.506.201.168 0 .317-.06.15-.061.281-.184v.273q-.136.093-.29.14-.153.046-.323.046-.438 0-.69-.268-.252-.268-.252-.732 0-.465.252-.733.252-.268.69-.268.173 0 .325.046.154.045.288.137zM3.91 281.579h.26v1.709h.94v.22h-1.2v-1.93zM5.382 281.579h.26v.815l.866-.815h.336l-.957.899 1.026 1.03h-.344l-.926-.93v.93h-.261v-1.93z"/>
        </g>
        <g font-size="2.646" fill="#fff">
            <path d="M10.532 282.603q.084.028.163.121.08.093.16.256l.265.527h-.28l-.247-.494q-.096-.194-.186-.258-.09-.063-.244-.063h-.284v.815h-.261v-1.928h.589q.33 0 .493.138.163.138.163.417 0 .182-.085.302-.084.12-.246.167zm-.653-.81v.685h.328q.188 0 .284-.087.097-.088.097-.257 0-.17-.097-.254-.096-.087-.284-.087h-.328zM12.613 281.642v.254q-.148-.07-.28-.106-.132-.034-.254-.034-.214 0-.33.082-.115.083-.115.235 0 .128.076.194.078.065.292.105l.158.032q.292.056.43.196.14.14.14.375 0 .28-.189.425-.187.145-.55.145-.137 0-.292-.031-.154-.031-.32-.092v-.269q.16.09.312.135.153.045.3.045.223 0 .345-.088.121-.088.121-.25 0-.143-.088-.223-.086-.08-.285-.12l-.16-.03q-.291-.059-.422-.183-.13-.124-.13-.345 0-.256.18-.403.18-.147.497-.147.136 0 .276.024.141.025.288.074zM12.874 281.579h1.632v.22h-.685v1.708h-.262v-1.709h-.685v-.22z"/>
        </g>
        <g font-size="1.984" fill="#fff" stroke-width=".3" stroke-miterlimit="10">
            <path d="M1.89 201.547v.655h-.178v-.649q0-.154-.06-.23-.06-.077-.18-.077-.144 0-.228.092-.083.092-.083.251v.613h-.18v-1.085h.18v.169q.064-.098.15-.147.087-.048.2-.048.188 0 .284.116.096.116.096.34zM3.176 201.615v.087h-.82q.012.184.111.281.1.096.277.096.103 0 .199-.025.097-.025.192-.076v.17q-.096.04-.197.061-.1.021-.204.021-.26 0-.412-.15-.151-.152-.151-.41 0-.266.143-.422.144-.157.389-.157.219 0 .346.141.127.14.127.383zm-.178-.052q-.002-.146-.082-.234-.08-.087-.211-.087-.15 0-.24.084-.089.085-.102.238l.635-.001zM4.334 201.117l-.392.528.413.557h-.21l-.316-.426-.316.426h-.21l.42-.567-.385-.518h.21l.288.387.288-.387h.21zM4.785 200.809v.308h.367v.139h-.367v.589q0 .133.036.17.037.038.148.038h.183v.15H4.97q-.206 0-.285-.077-.078-.078-.078-.281v-.59h-.131v-.138h.13v-.308h.18zM6.192 202.04v.575h-.18v-1.498h.18v.165q.056-.097.141-.144.086-.047.206-.047.197 0 .32.157.124.157.124.413 0 .255-.124.412-.123.157-.32.157-.12 0-.206-.046-.085-.048-.141-.144zm.606-.38q0-.196-.081-.307-.08-.113-.222-.113-.141 0-.223.113-.08.111-.08.308 0 .196.08.309.082.111.223.111.142 0 .222-.111.081-.113.081-.31zM7.772 201.657q-.216 0-.3.05-.083.049-.083.168 0 .095.062.151.063.055.17.055.15 0 .238-.104.09-.106.09-.28v-.04h-.177zm.356-.074v.62h-.179v-.165q-.06.098-.152.146-.09.046-.223.046-.166 0-.265-.093-.098-.094-.098-.25 0-.184.122-.277.123-.093.366-.093h.25v-.017q0-.123-.081-.19-.08-.068-.227-.068-.093 0-.18.023-.09.022-.17.066v-.164q.097-.038.19-.056.091-.02.179-.02.235 0 .351.122.117.122.117.37zM8.676 200.809v.308h.367v.139h-.367v.589q0 .133.036.17.037.038.148.038h.183v.15H8.86q-.206 0-.285-.077-.078-.078-.078-.281v-.59h-.13v-.138h.13v-.308h.18zM9.455 200.809v.308h.367v.139h-.367v.589q0 .133.036.17.037.038.148.038h.183v.15H9.64q-.206 0-.285-.077-.078-.078-.078-.281v-.59h-.13v-.138h.13v-.308h.18zM10.986 201.615v.087h-.82q.012.184.11.281.1.096.278.096.103 0 .199-.025.096-.025.191-.076v.17q-.096.04-.196.061-.101.021-.205.021-.26 0-.412-.15-.15-.152-.15-.41 0-.266.143-.422.144-.157.388-.157.22 0 .346.141.128.14.128.383zm-.178-.052q-.002-.146-.083-.234-.079-.087-.21-.087-.15 0-.24.084-.09.085-.103.238l.636-.001zM11.904 201.284q-.03-.018-.066-.025-.035-.01-.078-.01-.15 0-.232.1-.08.097-.08.281v.572h-.18v-1.085h.18v.168q.055-.098.146-.146.09-.048.219-.048.018 0 .04.003.023.002.05.007v.183zM12.962 201.547v.655h-.179v-.649q0-.154-.06-.23-.06-.077-.18-.077-.144 0-.228.092-.083.092-.083.251v.613h-.18v-1.085h.18v.169q.064-.098.15-.147.087-.048.2-.048.188 0 .284.116.096.116.096.34z"/>
        </g>
        <g font-size="1.984" fill="#fff" stroke-width=".3" stroke-miterlimit="10">
            <path d="M1.393 295.32v.168q-.075-.039-.157-.058-.081-.02-.168-.02-.133 0-.2.041-.066.041-.066.122 0 .062.048.098.047.035.19.067l.062.014q.19.04.269.115.08.074.08.207 0 .15-.12.239-.119.088-.328.088-.087 0-.182-.017-.094-.017-.199-.05v-.185q.099.052.195.078.096.025.19.025.126 0 .194-.043.067-.043.067-.122 0-.073-.05-.111-.048-.04-.213-.075l-.062-.014q-.166-.035-.24-.107-.073-.073-.073-.199 0-.153.108-.236.109-.083.308-.083.1 0 .186.014.088.015.161.044zM2.789 295.413q-.144 0-.227.112-.083.111-.083.306t.082.307q.083.112.228.112.142 0 .225-.113.084-.112.084-.306 0-.193-.084-.305-.083-.113-.225-.113zm0-.152q.232 0 .365.152.133.15.133.418 0 .267-.133.419-.133.15-.365.15-.234 0-.367-.15-.131-.152-.131-.419t.131-.418q.133-.152.367-.152zM4.195 295.945v-.657h.178v.65q0 .154.06.231.06.077.18.077.144 0 .228-.092.084-.092.084-.251v-.615h.178v1.085h-.178v-.167q-.065.099-.151.147-.085.048-.199.048-.187 0-.284-.116-.096-.117-.096-.34zM6.28 294.98v.308h.368v.138H6.28v.59q0 .132.035.17.037.038.149.038h.183v.149h-.183q-.207 0-.285-.077-.079-.077-.079-.28v-.59h-.13v-.138h.13v-.308h.18zM8.417 295.718v.655H8.24v-.65q0-.153-.06-.23-.06-.076-.18-.076-.145 0-.228.092-.083.092-.083.25v.614h-.18v-1.508h.18v.591q.063-.098.15-.146.087-.049.2-.049.187 0 .283.117.096.115.096.34zM9.579 296.21v.576h-.18v-1.498h.18v.164q.056-.097.141-.143.087-.048.206-.048.197 0 .32.157.124.157.124.413t-.124.413q-.123.157-.32.157-.12 0-.206-.047-.085-.047-.141-.144zm.606-.379q0-.197-.081-.308-.08-.112-.222-.112-.141 0-.223.112-.08.111-.08.308t.08.31q.082.11.223.11.142 0 .222-.11.081-.113.081-.31zM11.718 295.413q-.143 0-.226.112-.084.111-.084.306t.083.307q.083.112.227.112.143 0 .226-.113.083-.112.083-.306 0-.193-.083-.305-.083-.113-.226-.113zm0-.152q.233 0 .366.152.132.15.132.418 0 .267-.132.419-.133.15-.366.15-.233 0-.366-.15-.132-.152-.132-.419t.132-.418q.133-.152.366-.152zM13.143 294.865h.178v1.508h-.178v-1.508zM15.253 295.786v.087h-.82q.012.184.11.28.1.097.278.097.103 0 .198-.025.097-.026.192-.076v.169q-.096.04-.196.062-.101.02-.205.02-.26 0-.412-.15-.15-.151-.15-.41 0-.266.143-.422.144-.157.388-.157.22 0 .346.142.128.14.128.383zm-.178-.053q-.002-.146-.083-.233-.08-.087-.21-.087-.15 0-.24.084t-.103.237h.636z"/>
        </g>
    </g>
</svg>
