<svg xmlns="http://www.w3.org/2000/svg" xmlns:xlink="http://www.w3.org/1999/xlink" width="150" height="380" viewBox="0 0 39.688 100.542">
    <defs>
        <linearGradient id="a">
            <stop offset="0" stop-color="#fdfdfd"/>
            <stop offset="1" stop-color="#fdfdfd"/>
        </linearGradient>
        <radialGradient gradientUnits="userSpaceOnUse" gradientTransform="matrix(.4218 0 0 .02673 -105.982 272.192)" r="69.827" fy="856.052" fx="285.494" cy="856.052" cx="285.494" id="e" xlink:href="#a"/>
        <clipPath clipPathUnits="userSpaceOnUse" id="f">
            <path fill="#fff" stroke="gray" stroke-width=".388" d="M4.03 289.485h23.689v11.965H4.03z"/>
        </clipPath>
        <clipPath clipPathUnits="userSpaceOnUse" id="d">
            <path fill="#fff" stroke="gray" stroke-width=".388" d="M4.03 289.485h23.689v11.965H4.03z"/>
        </clipPath>
        <clipPath clipPathUnits="userSpaceOnUse" id="c">
            <rect width="39.688" height="84.29" y="201.595" ry=".482" fill="#4f2538" stroke-width=".3"/>
        </clipPath>
        <clipPath clipPathUnits="userSpaceOnUse" id="b">
            <rect width="39.688" height="84.29" y="201.595" ry=".482" fill="#4f2538" stroke-width=".3"/>
        </clipPath>
    </defs>
    <g transform="translate(0 -196.458)">
        <path d="M0 196.458h39.688V297H0z" fill-rule="evenodd"/>
        <rect width="17.599" height="77.806" x="-1.347" y="203.447" ry="1.823" clip-path="url(#b)" transform="matrix(1 0 0 1.0249 0 -6.327)" fill="#ff0"/>
        <rect width="14.147" height="34.609" x="16.989" y="202.437" ry="1.847" fill="#ff0"/>
        <rect width="14.147" height="43.955" x="16.989" y="237.635" ry="1.782" fill="#ff0"/>
        <rect width="9.936" height="78.227" x="31.637" y="203.447" ry="1.937" clip-path="url(#c)" transform="matrix(.96862 0 0 1.01076 1.245 -3.032)" fill="#ff0"/>
        <path d="M31.483 294.933l-17.042-.125-14.418.125-.878-3.47c11.022-1.474 21.943-1.348 33.217.125z" clip-path="url(#d)" transform="matrix(1.66884 0 0 1 -6.572 0)" fill="url(#e)" stroke="#8b8b8b" stroke-width=".397"/>
        <path d="M0 291.993c10.583-.947 21.116-.808 31.75.123l-.033 3.296H0z" clip-path="url(#f)" transform="matrix(1.66884 0 0 1.36899 -6.65 -107.43)"/>
        <g font-size="1.984" fill="#fff">
            <path d="M17.197 199.374v.168q-.075-.038-.157-.058-.08-.019-.168-.019-.133 0-.2.04-.066.041-.066.123 0 .062.048.098.047.035.19.067l.062.013q.19.04.27.115.08.074.08.207 0 .151-.12.24-.12.087-.329.087-.087 0-.182-.017-.094-.017-.199-.05v-.185q.099.052.195.078.096.025.19.025.126 0 .194-.042.067-.044.067-.123 0-.072-.049-.11-.048-.04-.214-.076l-.062-.014q-.166-.035-.24-.107-.073-.072-.073-.198 0-.153.108-.237.109-.083.309-.083.098 0 .186.015.087.014.16.043zM17.992 200.528q-.076.194-.147.253-.072.059-.192.059h-.143v-.15h.105q.074 0 .114-.034.041-.035.09-.165l.032-.081-.438-1.068h.188l.34.849.339-.85h.189l-.477 1.187zM19.617 199.772v.655h-.178v-.65q0-.153-.06-.23-.06-.076-.18-.076-.145 0-.228.092-.084.092-.084.25v.614h-.179v-1.085h.18v.169q.063-.098.15-.147.087-.048.2-.048.187 0 .283.116.096.115.096.34zM20.15 199.034v.308h.368v.138h-.367v.59q0 .132.036.17.036.038.148.038h.183v.15h-.183q-.207 0-.285-.077-.078-.078-.078-.281v-.59h-.131v-.138h.13v-.308h.18zM21.656 199.772v.655h-.179v-.65q0-.153-.06-.23-.06-.076-.18-.076-.144 0-.228.092-.083.092-.083.25v.614h-.18v-1.507h.18v.59q.064-.097.15-.146.087-.048.2-.048.188 0 .284.116.096.115.096.34zM22.517 199.342h.189l.339.91.34-.91h.188l-.407 1.085h-.242l-.407-1.085zM24.24 199.467q-.144 0-.227.112-.083.112-.083.306 0 .195.082.308.083.111.228.111.142 0 .225-.112.084-.113.084-.307 0-.192-.084-.305-.083-.113-.225-.113zm0-.151q.232 0 .365.15.133.152.133.42 0 .266-.133.418-.133.151-.365.151-.234 0-.367-.15-.131-.153-.131-.42t.131-.418q.133-.151.367-.151zM25.032 199.342h.179v1.085h-.179v-1.085zm0-.423h.179v.226h-.179v-.226zM26.364 199.384v.166q-.076-.041-.153-.062-.075-.021-.153-.021-.173 0-.269.11-.096.11-.096.309 0 .198.096.309.096.11.27.11.077 0 .152-.021.077-.022.153-.063v.164q-.075.035-.155.053-.08.017-.17.017-.245 0-.39-.154-.144-.154-.144-.416 0-.265.145-.417.147-.152.4-.152.083 0 .161.017.079.017.153.05zM27.6 199.84v.087h-.82q.012.184.11.281.1.096.278.096.102 0 .198-.025.097-.025.192-.076v.169q-.096.04-.196.062-.101.021-.205.021-.26 0-.412-.151-.15-.151-.15-.409 0-.266.143-.422.144-.157.388-.157.22 0 .346.141.128.14.128.383zm-.178-.052q-.002-.147-.083-.234-.08-.087-.211-.087-.15 0-.24.084-.088.085-.102.238l.636-.001z"/>
        </g>
        <path d="M24.82 284.001v3.913c0 .899-.535 1.622-1.2 1.622h-5.432c-.665 0-1.2-.723-1.2-1.622V284c0-.899.535-1.622 1.2-1.622h5.432c.665 0 1.2.723 1.2 1.622z" fill="#ff0"/>
        <g font-size="2.646" stroke-width="1.772">
            <path d="M21.41 203.972h.261v1.71h.94v.219H21.41v-1.929zM22.883 203.972h1.108v.22h-.847v.568h.765v.22h-.765v.92h-.261v-1.928zM25.185 204.149q-.284 0-.452.212-.167.212-.167.577t.167.577q.168.211.452.211.284 0 .45-.211.166-.212.166-.577t-.166-.577q-.166-.212-.45-.212zm0-.212q.406 0 .648.273.243.271.243.728 0 .456-.243.729-.242.271-.648.271-.407 0-.651-.271-.243-.271-.243-.729 0-.457.243-.728.244-.273.65-.273z"/>
        </g>
        <g font-size="2.646" stroke-width="1.772">
            <path d="M34.174 205.817l-.737-1.93h.273l.61 1.625.613-1.624h.272l-.736 1.929h-.295zM36.93 204.036v.276q-.132-.123-.282-.184-.149-.06-.317-.06-.33 0-.506.202t-.176.584q0 .381.176.584.175.202.506.202.168 0 .317-.061.15-.06.281-.183v.272q-.137.093-.29.14-.153.046-.323.046-.438 0-.69-.267-.252-.269-.252-.733 0-.465.252-.732.252-.269.69-.269.173 0 .325.046.154.046.288.137zM37.335 203.888h1.108v.22h-.847v.568h.765v.22h-.765v.92h-.261v-1.928z"/>
        </g>
        <g font-size="2.646" stroke-width="1.772">
            <path d="M5.187 205.985l-.737-1.929h.273l.611 1.624.612-1.624h.272l-.735 1.93h-.296zM7.942 204.205v.275q-.131-.123-.281-.183-.149-.061-.317-.061-.33 0-.506.203-.176.201-.176.584 0 .38.176.584.176.201.506.201.168 0 .317-.06.15-.061.281-.184v.273q-.137.093-.29.14-.153.046-.323.046-.438 0-.69-.268-.252-.269-.252-.732 0-.465.252-.733.252-.269.69-.269.173 0 .325.047.154.045.288.137zM9.131 204.233q-.284 0-.452.212-.167.212-.167.578 0 .364.167.576.168.212.452.212.284 0 .45-.212.166-.212.166-.576 0-.366-.166-.578-.166-.212-.45-.212zm0-.212q.406 0 .649.273.242.271.242.729 0 .456-.242.728-.243.272-.649.272-.407 0-.651-.272-.243-.271-.243-.728 0-.458.243-.729.244-.273.651-.273z"/>
        </g>
        <g font-size="2.646" stroke-width="1.772">
            <path d="M20.187 238.285l-.354.96h.71l-.356-.96zm-.147-.257h.296l.735 1.928H20.8l-.176-.494h-.87l-.175.494h-.275l.736-1.928zM21.612 238.242v1.5h.316q.399 0 .584-.181.186-.18.186-.571 0-.388-.186-.567-.185-.181-.584-.181h-.316zm-.26-.214h.536q.56 0 .823.233.262.233.262.729 0 .499-.264.733-.263.233-.821.233h-.537v-1.928zM24.544 238.09v.255q-.149-.07-.28-.106-.132-.035-.255-.035-.213 0-.33.083-.114.083-.114.235 0 .128.076.194.077.065.292.105l.157.032q.292.056.43.196.14.14.14.375 0 .28-.189.425-.187.145-.55.145-.137 0-.292-.031-.154-.031-.319-.092v-.269q.159.09.311.135.153.045.3.045.224 0 .345-.088.121-.088.121-.25 0-.143-.087-.223-.087-.08-.286-.12l-.159-.03q-.292-.059-.422-.183t-.13-.345q0-.256.179-.403.18-.147.497-.147.136 0 .277.024.14.025.288.074zM25.987 239.052q.084.028.163.121.08.093.16.256l.265.527h-.28l-.247-.494q-.096-.194-.186-.258-.09-.063-.245-.063h-.284v.815h-.26v-1.928h.588q.331 0 .494.138.163.138.163.417 0 .182-.086.302-.084.12-.245.167zm-.654-.81v.685h.328q.189 0 .285-.087.096-.088.096-.257 0-.17-.096-.255-.096-.086-.285-.086h-.328z"/>
        </g>
        <g font-size="3.969" fill="#fff" stroke-width=".4">
            <path d="M3.156 200.22v-.778h-.639v-.321h1.027v1.242q-.227.16-.5.244-.273.081-.583.081-.678 0-1.062-.395-.382-.397-.382-1.104 0-.71.382-1.105.384-.397 1.062-.397.283 0 .537.07.255.07.47.205v.417q-.217-.185-.46-.278-.245-.093-.514-.093-.531 0-.799.297-.265.296-.265.884 0 .585.265.881.268.297.799.297.207 0 .37-.035.163-.037.292-.112zM6.05 199.322v1.31h-.357v-1.298q0-.308-.12-.461-.12-.153-.36-.153-.29 0-.456.184-.167.184-.167.502v1.226h-.358v-2.17h.358v.337q.128-.196.3-.293.175-.096.402-.096.374 0 .566.232.192.23.192.68zM7.606 198.712q-.287 0-.454.225-.166.222-.166.612t.164.614q.167.223.456.223.285 0 .451-.225.167-.224.167-.612 0-.386-.167-.61-.166-.227-.451-.227zm0-.302q.465 0 .73.302.266.302.266.837 0 .533-.266.837-.265.302-.73.302-.467 0-.733-.302-.263-.304-.263-.837 0-.535.263-.837.266-.302.733-.302zM10.88 198.878q.135-.24.32-.354.187-.114.438-.114.34 0 .524.238.184.236.184.674v1.31h-.359v-1.298q0-.312-.11-.463-.11-.151-.337-.151-.277 0-.438.184-.161.184-.161.502v1.226h-.359v-1.298q0-.314-.11-.463-.11-.151-.341-.151-.273 0-.434.186-.161.184-.161.5v1.226h-.359v-2.17h.359v.337q.122-.2.293-.295.17-.095.405-.095.236 0 .4.12.167.12.247.35zM14.908 199.458v.174h-1.64q.023.368.221.562.2.192.554.192.206 0 .398-.05.193-.05.383-.151v.337q-.192.081-.393.124-.202.042-.409.042-.52 0-.824-.302-.302-.302-.302-.818 0-.533.287-.845.289-.314.777-.314.438 0 .692.283.256.281.256.766zm-.357-.105q-.004-.292-.165-.467-.159-.174-.422-.174-.298 0-.479.168-.178.169-.205.475l1.271-.002z"/>
        </g>
        <g font-size="1.984" stroke-width=".4">
            <path d="M17.973 216.619v.168q-.076-.038-.157-.058-.082-.02-.169-.02-.133 0-.2.042-.065.04-.065.122 0 .062.047.098.048.034.19.066l.062.014q.19.04.27.115.08.074.08.207 0 .15-.12.239-.12.088-.329.088-.087 0-.182-.017-.094-.017-.199-.05v-.185q.1.052.195.078.096.025.19.025.126 0 .194-.043t.068-.122q0-.072-.05-.111-.048-.039-.214-.075l-.062-.014q-.166-.035-.24-.107-.073-.072-.073-.198 0-.154.109-.237.108-.083.308-.083.099 0 .186.014.087.015.16.044zM19.218 217.017v.655h-.179v-.65q0-.153-.06-.23-.06-.076-.18-.076-.144 0-.228.092-.083.092-.083.25v.614h-.18v-1.508h.18v.591q.064-.097.15-.146.087-.048.2-.048.188 0 .284.116.096.115.096.34zM20.068 217.126q-.216 0-.299.05-.083.05-.083.168 0 .095.062.152.063.055.17.055.148 0 .238-.105t.09-.28v-.04h-.178zm.356-.073v.619h-.178v-.165q-.061.1-.152.147-.091.046-.223.046-.167 0-.266-.093-.098-.094-.098-.25 0-.184.122-.277.124-.093.367-.093h.25v-.017q0-.123-.082-.19-.08-.068-.226-.068-.093 0-.182.022-.088.022-.17.067v-.165q.099-.037.19-.056.093-.02.18-.02.235 0 .352.123.116.122.116.37zM20.969 217.51v.575h-.18v-1.498h.18v.164q.056-.096.141-.143.086-.047.205-.047.198 0 .321.157.124.156.124.412t-.124.413q-.123.157-.32.157-.12 0-.206-.046-.085-.048-.141-.145zm.606-.38q0-.196-.081-.308-.08-.112-.222-.112-.142 0-.223.112-.08.112-.08.308 0 .197.08.31.081.11.223.11.141 0 .222-.11.081-.113.081-.31zM22.984 217.085v.087h-.82q.012.184.11.281.1.096.278.096.102 0 .198-.025.097-.026.192-.076v.169q-.096.04-.196.062-.101.021-.205.021-.26 0-.412-.151-.15-.151-.15-.41 0-.266.143-.422.144-.157.388-.157.22 0 .346.142.128.14.128.383zm-.178-.053q-.002-.146-.083-.233-.08-.087-.211-.087-.15 0-.24.084-.088.084-.102.237h.636z"/>
        </g>
        <g font-size="1.984" stroke-width=".4">
            <path d="M26.25 216.164v.149h-.17q-.096 0-.134.038-.036.04-.036.14v.096h.293v.138h-.293v.947h-.18v-.947h-.17v-.138h.17v-.076q0-.18.085-.263.084-.084.267-.084h.169zM27.032 216.754q-.03-.018-.066-.026-.035-.009-.078-.009-.15 0-.232.1-.08.097-.08.281v.572h-.18v-1.085h.18v.168q.056-.099.146-.146.09-.049.219-.049.018 0 .04.003.023.002.05.007v.183zM28.108 217.085v.087h-.82q.012.184.11.281.1.096.278.096.103 0 .199-.025.097-.025.192-.076v.169q-.096.04-.197.062-.1.021-.205.021-.26 0-.411-.151-.152-.151-.152-.409 0-.266.144-.422.144-.157.388-.157.22 0 .346.141.128.14.128.383zm-.178-.052q-.002-.147-.082-.234-.08-.087-.212-.087-.149 0-.239.084t-.103.238l.636-.001zM28.505 217.13q0 .197.08.31.082.11.224.11.141 0 .223-.11.081-.113.081-.31 0-.196-.081-.308-.082-.112-.223-.112-.142 0-.223.112-.08.112-.08.308zm.608.38q-.056.096-.142.144-.086.046-.206.046-.197 0-.32-.157-.124-.157-.124-.413 0-.255.123-.412.124-.157.321-.157.12 0 .206.047t.142.144v-.165h.178v1.498h-.178v-.576z"/>
        </g>
        <g style="line-height:100%" font-size="1.984" stroke-width=".4">
            <path d="M20.525 231.617h.195v1.282h.705v.165h-.9v-1.447zM21.63 231.617h.83v.165h-.635v.426h.574v.165h-.574v.69h-.196v-1.446zM23.356 231.75q-.213 0-.34.159-.124.159-.124.433 0 .273.125.432.126.16.339.16.213 0 .337-.16.125-.159.125-.432 0-.274-.125-.433-.124-.159-.337-.159zm0-.159q.304 0 .486.205.182.203.182.546 0 .342-.182.547-.182.203-.486.203-.305 0-.488-.203-.183-.204-.183-.547 0-.343.183-.546.183-.205.488-.205z"/>
            <path d="M20.937 234.088q-.143 0-.226.112-.084.112-.084.307 0 .194.083.307.083.111.227.111.143 0 .226-.112.084-.113.084-.306t-.084-.306q-.083-.113-.226-.113zm0-.151q.233 0 .366.151.132.151.132.419 0 .266-.132.418-.133.151-.366.151-.233 0-.366-.15-.132-.153-.132-.42t.132-.418q.133-.151.366-.151zM21.712 234.62v-.657h.178v.65q0 .154.06.232.06.076.18.076.145 0 .228-.092.084-.092.084-.25v-.616h.178v1.085h-.178v-.166q-.065.098-.151.147-.085.047-.199.047-.187 0-.283-.116-.097-.116-.097-.34zM23.166 233.655v.308h.367v.139h-.367v.589q0 .132.036.17.037.038.148.038h.183v.15h-.183q-.206 0-.285-.077-.078-.078-.078-.281v-.59h-.131v-.138h.13v-.308h.18z" style="line-height:100%"/>
        </g>
        <g font-size="1.984" fill="#fff" stroke-width=".4">
            <path d="M10.773 294.936v.169q-.076-.039-.157-.058-.082-.02-.169-.02-.133 0-.2.041-.065.04-.065.122 0 .062.047.098.048.035.19.067l.062.014q.19.04.27.115.08.073.08.206 0 .151-.12.24-.12.088-.329.088-.087 0-.182-.018-.094-.016-.199-.05v-.184q.1.051.195.077.096.026.19.026.126 0 .194-.043.068-.044.068-.122 0-.073-.05-.112-.048-.038-.214-.074l-.062-.015q-.166-.035-.24-.106-.073-.073-.073-.199 0-.153.109-.236.108-.084.308-.084.099 0 .186.015.087.014.16.044zM12.8 295.03q-.144 0-.227.112-.083.111-.083.306t.082.307q.083.111.228.111.142 0 .225-.112.084-.112.084-.306 0-.193-.084-.305-.083-.114-.225-.114zm0-.152q.232 0 .365.151.133.151.133.419 0 .266-.133.418-.133.152-.365.152-.234 0-.367-.152-.131-.152-.131-.418 0-.268.131-.419.133-.15.367-.15zM14.837 295.561v-.657h.179v.65q0 .155.06.232.06.077.18.077.144 0 .228-.092.084-.093.084-.251v-.616h.178v1.086h-.178v-.167q-.065.099-.151.147-.086.048-.199.048-.187 0-.284-.117-.097-.116-.097-.34zM17.555 294.596v.308h.367v.139h-.367v.589q0 .133.036.17.037.038.148.038h.183v.15h-.183q-.206 0-.285-.077-.078-.077-.078-.281v-.59h-.13v-.138h.13v-.308h.18zM20.323 295.335v.655h-.178v-.65q0-.154-.06-.23-.06-.077-.18-.077-.145 0-.228.092-.083.092-.083.251v.614h-.18v-1.508h.18v.59q.064-.097.15-.145.087-.049.2-.049.188 0 .283.116.096.116.096.34zM22.117 295.827v.575h-.18v-1.498h.18v.165q.056-.097.141-.143.087-.048.206-.048.197 0 .32.157.124.157.124.413t-.124.413q-.123.157-.32.157-.12 0-.206-.047-.085-.047-.141-.144zm.606-.38q0-.196-.081-.307-.08-.113-.222-.113-.141 0-.223.113-.08.111-.08.308t.08.309q.082.111.223.111.142 0 .222-.111.081-.112.081-.31zM24.888 295.03q-.143 0-.227.112-.083.111-.083.306t.082.307q.084.111.228.111.142 0 .226-.112.083-.112.083-.306 0-.193-.083-.305-.084-.114-.226-.114zm0-.152q.233 0 .365.151.133.151.133.419 0 .266-.133.418-.132.152-.365.152-.233 0-.366-.152-.132-.152-.132-.418 0-.268.132-.419.133-.15.366-.15zM26.944 294.482h.178v1.508h-.178v-1.508zM29.686 295.402v.088h-.82q.012.184.11.28.1.096.278.096.103 0 .199-.025.097-.025.192-.075v.168q-.096.04-.197.062t-.205.022q-.26 0-.411-.152-.152-.15-.152-.409 0-.266.144-.422.144-.157.388-.157.22 0 .346.142.128.14.128.382zm-.178-.052q-.002-.146-.082-.233-.08-.088-.212-.088-.149 0-.239.085-.09.084-.103.237h.636z"/>
        </g>
        <g font-size="1.984" stroke-width=".4">
            <path d="M5.651 217.51v.575h-.179v-1.498h.18v.165q.056-.097.14-.144.087-.047.206-.047.198 0 .32.157.125.157.125.412 0 .256-.124.413-.123.157-.32.157-.12 0-.206-.046-.085-.048-.142-.145zm.607-.38q0-.196-.082-.308-.08-.112-.221-.112-.142 0-.223.112-.08.112-.08.308 0 .197.08.31.081.11.223.11.141 0 .221-.11.082-.113.082-.31zM6.738 216.587h.179v1.085h-.179v-1.085zm0-.423h.179v.226h-.179v-.226zM7.465 216.279v.308h.367v.138h-.367v.59q0 .132.036.17.037.038.148.038h.183v.15H7.65q-.206 0-.285-.077-.078-.078-.078-.281v-.59h-.13v-.138h.13v-.308h.18zM8.849 216.629v.166q-.076-.042-.152-.062-.076-.021-.153-.021-.174 0-.27.11-.096.11-.096.308 0 .2.096.31.096.109.27.109.077 0 .153-.02.076-.022.152-.063v.164q-.075.035-.155.053-.08.017-.17.017-.245 0-.39-.154-.144-.154-.144-.416 0-.265.146-.417.146-.152.4-.152.082 0 .16.017.08.016.153.05zM10.059 217.017v.655h-.178v-.65q0-.153-.06-.23-.06-.076-.18-.076-.145 0-.228.092-.084.092-.084.25v.614H9.15v-1.508h.18v.592q.063-.098.15-.147.087-.048.2-.048.187 0 .283.116.096.115.096.34z"/>
        </g>
        <g font-size="1.984" stroke-width=".4">
            <path d="M33.955 238.224v.167q-.075-.042-.152-.062-.075-.022-.153-.022-.173 0-.27.11-.095.11-.095.309t.096.31q.096.109.27.109.077 0 .152-.02.077-.022.152-.064v.165q-.074.035-.155.052-.079.018-.17.018-.244 0-.389-.154-.144-.154-.144-.416 0-.266.145-.418.147-.152.4-.152.083 0 .161.018.079.016.152.05zM34.245 238.84v-.658h.178v.65q0 .155.06.232.06.077.18.077.145 0 .228-.092.085-.092.085-.251v-.616h.178v1.086h-.178v-.167q-.065.099-.151.147-.086.048-.2.048-.186 0-.283-.117-.097-.116-.097-.34zM35.7 237.874v.308h.367v.139H35.7v.59q0 .132.035.17.037.037.149.037h.183v.15h-.183q-.207 0-.285-.077-.079-.077-.079-.28v-.59h-.13v-.139h.13v-.308h.18zM36.723 238.307q-.144 0-.227.113-.083.111-.083.306t.082.307q.083.112.228.112.142 0 .225-.113.084-.112.084-.306 0-.193-.084-.305-.083-.114-.225-.114zm0-.15q.232 0 .365.15.133.152.133.419 0 .266-.133.419-.133.15-.365.15-.234 0-.367-.15-.131-.153-.131-.419 0-.267.131-.419.133-.15.367-.15zM38.065 237.76v.148h-.17q-.097 0-.135.039-.036.039-.036.14v.095h.293v.139h-.293v.947h-.18v-.947h-.17v-.139h.17v-.075q0-.181.085-.264.084-.083.267-.083h.169zM38.766 237.76v.148h-.17q-.096 0-.134.039-.037.039-.037.14v.095h.294v.139h-.294v.947h-.18v-.947h-.17v-.139h.17v-.075q0-.181.085-.264.084-.083.268-.083h.168z"/>
        </g>
        <g font-size="1.984" stroke-width=".4">
            <path d="M34.59 248.935q-.03-.017-.067-.025-.035-.01-.077-.01-.151 0-.233.1-.08.098-.08.282v.571h-.18v-1.085h.18v.169q.056-.1.146-.147.09-.048.219-.048.018 0 .04.003.023.002.05.007l.001.183zM35.666 249.266v.088h-.82q.012.184.11.28.1.097.277.097.103 0 .2-.026.096-.025.19-.075v.168q-.095.041-.196.062-.1.022-.204.022-.26 0-.412-.152-.151-.15-.151-.408 0-.267.143-.423.145-.157.389-.157.219 0 .346.142.128.14.128.382zm-.179-.052q-.002-.146-.082-.233-.08-.088-.211-.088-.15 0-.24.085-.089.084-.102.237h.635zM36.648 248.8v.169q-.075-.039-.157-.058-.081-.02-.168-.02-.133 0-.2.041-.066.04-.066.122 0 .062.048.098.047.035.19.067l.061.014q.19.04.27.115.08.073.08.206 0 .151-.12.24-.12.088-.328.088-.088 0-.183-.018-.094-.016-.198-.05v-.184q.099.051.195.077.096.026.19.026.125 0 .193-.043.068-.044.068-.122 0-.073-.05-.112-.048-.038-.213-.074l-.062-.015q-.166-.035-.24-.106-.073-.073-.073-.199 0-.153.108-.236.109-.084.308-.084.099 0 .186.015.087.014.161.044zM37.412 248.893q-.144 0-.227.113-.083.111-.083.306t.082.307q.083.112.228.112.142 0 .225-.113.084-.112.084-.306 0-.193-.084-.305-.083-.114-.225-.114zm0-.15q.232 0 .365.15.133.152.133.419 0 .266-.133.419-.133.15-.365.15-.234 0-.367-.15-.131-.153-.131-.419 0-.267.131-.419.133-.15.367-.15z"/>
        </g>
        <g font-size="1.984" stroke-width=".4">
            <path d="M33.03 259.54v.167q-.075-.041-.152-.062-.076-.021-.153-.021-.174 0-.27.11-.095.11-.095.309 0 .198.096.309.095.11.269.11.077 0 .153-.021.077-.022.152-.063v.164q-.074.035-.155.053-.08.017-.17.017-.245 0-.389-.154-.144-.154-.144-.416 0-.265.145-.417.146-.152.4-.152.083 0 .161.017t.152.05zM33.759 259.624q-.144 0-.227.112-.083.112-.083.306 0 .195.082.308.083.111.228.111.142 0 .226-.112.083-.113.083-.307 0-.192-.083-.305-.084-.113-.226-.113zm0-.151q.232 0 .365.15.133.152.133.42 0 .266-.133.418-.133.151-.365.151-.234 0-.367-.15-.131-.153-.131-.42t.131-.418q.133-.151.367-.151zM35.453 259.93v.654h-.178v-.65q0-.153-.06-.23-.06-.076-.18-.076-.145 0-.228.092-.083.092-.083.25v.614h-.18V259.5h.18v.169q.064-.098.15-.147.087-.048.2-.048.188 0 .283.116.096.115.096.34zM35.987 259.19v.309h.368v.138h-.368v.59q0 .132.036.17.037.038.148.038h.184v.15h-.184q-.206 0-.284-.077-.079-.078-.079-.281v-.59h-.13v-.138h.13v-.308h.18zM37.01 259.624q-.143 0-.226.112-.084.112-.084.306 0 .195.083.308.083.111.227.111.143 0 .226-.112.084-.113.084-.307 0-.192-.084-.305-.083-.113-.226-.113zm0-.151q.233 0 .366.15.133.152.133.42 0 .266-.133.418-.133.151-.366.151-.233 0-.366-.15-.132-.153-.132-.42t.132-.418q.133-.151.366-.151zM37.785 260.156v-.657h.178v.65q0 .154.06.232.06.076.18.076.145 0 .228-.092.084-.092.084-.25v-.616h.179v1.085h-.179v-.167q-.065.1-.15.148-.086.047-.2.047-.187 0-.283-.116-.097-.116-.097-.34zM39.692 259.666q-.03-.018-.066-.026-.035-.009-.078-.009-.151 0-.232.1-.08.097-.08.281v.572h-.18v-1.085h.18v.168q.055-.099.145-.146.09-.049.22-.049.018 0 .04.003.022.002.05.007v.184z"/>
        </g>
        <g font-size="1.984" stroke-width=".4">
            <path d="M33.925 269.004h.196v1.282h.704v.165h-.9v-1.447zM35.03 269.004h.83v.165h-.635v.426h.574v.165h-.574v.69h-.195v-1.446zM36.756 269.137q-.213 0-.339.159-.125.159-.125.433 0 .273.125.432.126.159.34.159.212 0 .336-.159.125-.159.125-.432 0-.274-.125-.433-.124-.16-.337-.16zm0-.159q.304 0 .487.204.182.204.182.547 0 .342-.182.546-.183.204-.487.204-.305 0-.488-.204-.182-.203-.182-.546t.182-.547q.183-.204.488-.204zM34.762 271.525q.067-.12.16-.177.093-.057.219-.057.17 0 .262.119.092.118.092.337v.655h-.18v-.65q0-.155-.055-.23-.055-.076-.168-.076-.139 0-.22.092-.08.092-.08.25v.614h-.18v-.65q0-.156-.054-.23-.056-.076-.17-.076-.138 0-.218.093-.08.092-.08.25v.613h-.18v-1.085h.18v.168q.06-.1.146-.147.085-.047.202-.047.119 0 .201.06.083.06.123.174zM36.268 271.442q-.144 0-.227.112-.083.112-.083.306 0 .195.082.308.083.111.228.111.142 0 .226-.112.083-.113.083-.307 0-.192-.083-.305-.084-.113-.226-.113zm0-.151q.232 0 .365.15.133.152.133.42 0 .266-.133.418-.133.151-.365.151-.234 0-.366-.15-.132-.153-.132-.42t.132-.418q.132-.151.366-.151zM37.774 271.482v-.588h.179v1.508h-.179v-.163q-.056.097-.142.145-.085.046-.205.046-.197 0-.321-.157-.123-.157-.123-.413 0-.255.123-.412.124-.157.32-.157.12 0 .206.047t.142.144zm-.607.378q0 .197.08.31.082.111.223.111.142 0 .223-.111.081-.113.081-.31 0-.196-.08-.308-.082-.112-.224-.112-.141 0-.223.112-.08.112-.08.308z"/>
        </g>
        <g style="line-height:100%" font-size="1.984" stroke-width=".4">
            <path d="M32.625 280.596l-.552-1.447h.204l.458 1.218.46-1.218h.203l-.551 1.447h-.222zM34.692 279.232v.207q-.1-.092-.212-.138-.111-.045-.237-.045-.248 0-.38.152-.132.15-.132.438 0 .286.132.438.132.15.38.15.126 0 .237-.045.113-.045.212-.137v.204q-.103.07-.218.105-.115.035-.243.035-.328 0-.517-.2-.189-.202-.189-.55 0-.349.189-.55.189-.201.517-.201.13 0 .245.035.115.034.216.102zM34.996 279.15h.831v.164h-.635v.426h.573v.165h-.573v.69h-.196v-1.446zM36.96 279.607q-.144 0-.228.113-.083.111-.083.306t.082.307q.084.112.228.112.143 0 .226-.113.083-.112.083-.306 0-.193-.083-.305-.083-.114-.226-.114zm0-.15q.232 0 .364.15.133.152.133.419 0 .266-.133.419-.132.15-.365.15-.233 0-.366-.15-.132-.153-.132-.419 0-.267.132-.419.133-.15.366-.15zM37.902 280.14v-.658h.178v.65q0 .155.06.232.06.077.18.077.145 0 .228-.092.084-.092.084-.251v-.616h.179v1.086h-.179v-.167q-.065.099-.15.147-.086.048-.2.048-.187 0-.283-.117-.097-.116-.097-.34zM39.32 279.202v.309h.368v.138h-.368v.59q0 .132.036.17.037.038.148.038h.184v.149h-.184q-.206 0-.284-.077-.079-.077-.079-.28v-.59h-.13v-.138h.13v-.309h.18z"/>
        </g>
        <g font-size="1.984" stroke-width=".4">
            <path d="M5.24 226.674h.178l.223.847.222-.847h.21l.223.847.222-.847h.178l-.284 1.085h-.21l-.233-.89-.235.89h-.21l-.284-1.085zM7.46 227.213q-.215 0-.299.05-.083.05-.083.168 0 .095.062.152.063.055.17.055.149 0 .238-.105.09-.106.09-.28v-.04h-.177zm.356-.073v.619h-.178v-.165q-.06.099-.152.147-.091.046-.223.046-.166 0-.265-.093-.098-.094-.098-.25 0-.184.122-.277.123-.093.366-.093h.25v-.017q0-.124-.081-.19-.08-.068-.227-.068-.093 0-.181.022t-.17.067v-.165q.098-.038.19-.056.092-.02.18-.02.235 0 .351.123.116.122.116.37zM8.06 226.674h.19l.339.91.339-.91h.189l-.407 1.085h-.242l-.407-1.085zM10.291 227.172v.087h-.82q.012.184.11.28.1.097.278.097.103 0 .199-.025.096-.026.191-.076v.169q-.096.04-.196.062-.101.02-.205.02-.26 0-.412-.15-.15-.151-.15-.41 0-.266.143-.422.144-.157.388-.157.22 0 .346.142.128.14.128.383zm-.178-.053q-.002-.146-.083-.233-.079-.087-.21-.087-.15 0-.24.084t-.103.237h.636z"/>
        </g>
        <g font-size="1.984" stroke-width=".4">
            <path d="M5.191 258.556v.543h.246q.137 0 .211-.07.075-.071.075-.202 0-.13-.075-.2-.074-.071-.21-.071H5.19zm-.196-.161h.442q.243 0 .367.11.125.11.125.322 0 .214-.125.323-.124.11-.367.11h-.246v.581h-.196v-1.446zM6.064 258.395h.198l.304 1.222.303-1.222h.22l.304 1.222.304-1.222h.198l-.363 1.446h-.246l-.305-1.255-.309 1.255h-.246l-.362-1.446zM8.154 258.395h.292l.369.984.37-.984h.293v1.446h-.191v-1.27l-.373.992h-.197l-.373-.992v1.27h-.19v-1.446z"/>
        </g>
        <g font-size="1.984" stroke-width=".4">
            <path d="M2.3 268.967h.832v.164h-.636v.427h.574v.164h-.574v.691h-.195v-1.446zM3.44 268.967h.292l.369.984.371-.984h.292v1.446h-.191v-1.27l-.373.992h-.197l-.373-.992v1.27h-.19v-1.446z"/>
        </g>
        <g font-size="1.984" stroke-width=".4">
            <path d="M18.669 249.446q0-.194-.08-.3-.08-.107-.225-.107-.143 0-.224.106-.079.107-.079.3t.08.3q.08.107.223.107.145 0 .224-.107.08-.107.08-.3zm.178.42q0 .277-.123.412-.123.136-.377.136-.094 0-.177-.015-.084-.014-.162-.043v-.173q.078.043.155.063.076.02.156.02.175 0 .262-.092.088-.09.088-.276v-.088q-.056.096-.142.143-.086.048-.206.048-.2 0-.322-.152t-.122-.403q0-.252.122-.404.122-.153.322-.153.12 0 .206.048.086.047.142.143v-.164h.178v.95zM19.707 249.455q-.216 0-.3.05-.083.05-.083.168 0 .095.062.151.063.056.171.056.148 0 .237-.105.09-.106.09-.28v-.04h-.177zm.356-.073V250h-.178v-.165q-.062.099-.153.146-.09.047-.222.047-.167 0-.266-.093-.098-.094-.098-.251 0-.183.122-.276.123-.093.367-.093h.25v-.018q0-.123-.082-.19-.08-.067-.227-.067-.093 0-.18.022-.089.022-.17.067v-.165q.098-.038.19-.056.092-.02.179-.02.235 0 .352.123.116.122.116.37zM20.611 248.607v.309h.367v.138h-.367v.59q0 .132.036.17.037.038.148.038h.183V250h-.183q-.206 0-.285-.077-.078-.077-.078-.28v-.59h-.13v-.138h.13v-.308h.18zM22.142 249.414v.087h-.82q.012.184.11.28.1.097.278.097.103 0 .199-.026.097-.025.191-.075v.168q-.095.041-.196.062-.101.022-.205.022-.26 0-.411-.151-.152-.152-.152-.41 0-.266.144-.422.144-.157.388-.157.22 0 .346.142.128.14.128.383zm-.178-.053q-.002-.146-.082-.233-.08-.087-.212-.087-.149 0-.239.084t-.103.237h.636z"/>
        </g>
        <path d="M27.928 248.8l-.266.72h.532l-.266-.72zm-.111-.193h.222l.551 1.447h-.203l-.132-.371h-.652l-.132.371h-.206l.552-1.447zM27.515 258.556v1.124h.237q.299 0 .438-.135.14-.136.14-.428 0-.291-.14-.426-.139-.135-.438-.135h-.237zm-.195-.161h.402q.42 0 .617.175.197.174.197.547 0 .374-.198.549-.198.175-.616.175h-.402v-1.446zM28.35 269.04v.191q-.112-.053-.21-.08-.1-.025-.192-.025-.16 0-.247.062-.086.062-.086.176 0 .096.057.145.058.049.22.079l.117.024q.22.042.323.147.105.105.105.281 0 .21-.142.32-.14.108-.413.108-.102 0-.219-.024-.115-.023-.239-.068v-.202q.12.067.234.1.114.035.224.035.168 0 .26-.066.09-.066.09-.188 0-.107-.066-.167-.065-.06-.214-.09l-.119-.023q-.219-.044-.317-.137-.098-.093-.098-.259 0-.191.135-.302.136-.11.373-.11.102 0 .207.018.106.019.216.055zM28.05 280.118q.063.021.122.091.06.07.12.192l.199.395h-.21l-.185-.37q-.072-.146-.14-.194-.067-.047-.183-.047h-.213v.611h-.196v-1.446h.442q.248 0 .37.103.122.104.122.313 0 .137-.064.227-.063.09-.184.125zm-.49-.608v.514h.246q.141 0 .213-.065.073-.066.073-.193t-.073-.19q-.072-.066-.213-.066h-.246z" font-size="1.984" stroke-width=".4"/>
        <g font-size="1.984" stroke-width=".4">
            <path d="M18.338 268.657l-.266.72h.532l-.266-.72zm-.11-.193h.221L19 269.91h-.203l-.132-.372h-.652l-.132.372h-.206l.552-1.447zM19.406 268.625v1.125h.237q.3 0 .438-.136.14-.136.14-.428 0-.29-.14-.426-.139-.135-.438-.135h-.237zm-.195-.161h.402q.42 0 .617.175t.197.547q0 .374-.198.55-.198.175-.616.175h-.402v-1.447zM21.605 268.511v.191q-.112-.053-.21-.08-.1-.025-.191-.025-.16 0-.247.062t-.087.176q0 .096.057.145.059.049.22.079l.118.024q.219.042.322.147.105.105.105.281 0 .21-.141.319-.141.109-.413.109-.103 0-.22-.024-.115-.023-.239-.069v-.201q.12.067.234.1.114.035.225.035.167 0 .258-.066.092-.066.092-.188 0-.107-.066-.167-.065-.06-.214-.09l-.12-.023q-.219-.044-.317-.137-.097-.093-.097-.259 0-.192.134-.302.136-.11.373-.11.102 0 .208.018.105.018.216.055zM22.687 269.232q.063.022.122.091.06.07.12.192l.199.396h-.21l-.185-.372q-.072-.145-.14-.192-.067-.048-.183-.048h-.213v.612H22v-1.447h.442q.248 0 .37.104.122.103.122.313 0 .136-.064.226-.063.09-.184.125zm-.49-.607v.513h.246q.141 0 .213-.065.073-.065.073-.192t-.073-.191q-.072-.065-.213-.065h-.246zM18.267 271.43q-.144 0-.227.113-.083.112-.083.306 0 .195.082.308.083.111.228.111.142 0 .226-.112.083-.113.083-.307 0-.192-.083-.305-.084-.113-.226-.113zm0-.15q.232 0 .365.15.133.152.133.42 0 .266-.133.418-.133.151-.365.151-.234 0-.366-.151-.132-.152-.132-.419t.132-.418q.132-.151.366-.151zM19.041 271.963v-.657h.178v.65q0 .154.06.232.06.076.18.076.145 0 .228-.092.085-.092.085-.251v-.615h.178v1.085h-.178v-.167q-.065.1-.152.148-.085.047-.198.047-.187 0-.284-.116-.097-.116-.097-.34zM20.495 270.998v.308h.368v.138h-.368v.59q0 .132.036.17.037.038.148.038h.184v.149h-.184q-.206 0-.284-.076-.079-.078-.079-.281v-.59h-.13v-.138h.13v-.308h.18z"/>
        </g>
        <g font-size="1.984" fill="#fff" stroke-width=".4">
            <path d="M10.253 286.253q-.216 0-.3.05-.083.049-.083.168 0 .095.062.151.063.056.17.056.15 0 .238-.105.09-.106.09-.28v-.04h-.177zm.356-.073v.619h-.179v-.165q-.06.099-.152.146-.09.047-.223.047-.166 0-.265-.093-.098-.094-.098-.251 0-.183.122-.276.123-.093.366-.093h.25v-.018q0-.123-.081-.19-.08-.067-.227-.067-.093 0-.18.022-.09.022-.17.067v-.165q.097-.038.19-.056.091-.02.179-.02.235 0 .351.123.117.122.117.37zM10.962 286.37v-.657h.179v.65q0 .155.06.232.06.077.18.077.144 0 .228-.092.084-.092.084-.251v-.616h.178v1.086h-.178v-.167q-.065.099-.151.147-.086.048-.199.048-.187 0-.284-.117-.097-.116-.097-.34zM12.954 285.878v-.587h.179v1.508h-.179v-.163q-.056.097-.142.144-.085.047-.205.047-.197 0-.321-.157-.123-.157-.123-.413t.123-.413q.124-.157.32-.157.12 0 .206.048.086.046.142.143zm-.607.38q0 .196.08.308.082.112.223.112.142 0 .223-.112.081-.112.081-.309t-.08-.308q-.082-.112-.224-.112-.141 0-.223.112-.08.111-.08.308zM13.5 285.713h.178v1.086H13.5v-1.086zm0-.422h.178v.226H13.5v-.226zM14.47 285.838q-.143 0-.226.113-.083.111-.083.306t.082.307q.083.112.228.112.142 0 .226-.113.083-.112.083-.306 0-.193-.083-.305-.084-.114-.226-.114zm0-.15q.233 0 .366.15.133.152.133.42 0 .266-.133.418-.133.15-.365.15-.234 0-.366-.15-.132-.152-.132-.419t.132-.419q.132-.15.366-.15z"/>
        </g>
        <g style="line-height:100%" font-size="1.984" stroke-width=".4">
            <path d="M5.17 274.746q.066-.12.16-.177.092-.057.218-.057.17 0 .262.12.092.117.092.336v.655h-.18v-.649q0-.156-.054-.232-.056-.075-.169-.075-.139 0-.219.092-.08.092-.08.251v.613h-.18v-.649q0-.157-.055-.231-.055-.076-.17-.076-.137 0-.217.093-.08.092-.08.25v.613h-.18v-1.085h.18v.169q.06-.1.145-.148.086-.047.203-.047.118 0 .2.06.084.06.124.174zM6.255 274.538h.178v1.085h-.178v-1.085zm0-.422h.178v.225h-.178v-.225zM7.707 274.538l-.392.528.413.557h-.21l-.317-.426-.316.426h-.21l.422-.567-.386-.518h.21l.288.387.288-.387h.21zM4.745 276.647q-.143 0-.227.113-.083.111-.083.306t.082.307q.084.112.228.112.143 0 .226-.113.083-.112.083-.306 0-.193-.083-.305-.083-.114-.226-.114zm0-.15q.233 0 .365.15.133.152.133.419 0 .266-.133.419-.132.15-.365.15-.233 0-.366-.15-.132-.153-.132-.419 0-.267.132-.419.133-.15.366-.15zM5.52 277.18v-.658h.178v.65q0 .155.06.232.06.077.18.077.144 0 .228-.092.084-.092.084-.251v-.616h.178v1.086H6.25v-.167q-.065.099-.151.147-.086.048-.199.048-.187 0-.284-.117-.097-.116-.097-.34zM6.974 276.214v.308h.367v.139h-.367v.59q0 .132.036.17.036.037.148.037h.183v.15h-.183q-.207 0-.285-.077-.079-.077-.079-.28v-.59h-.13v-.138h.13v-.309h.18z"/>
        </g>
        <g font-size="1.984" stroke-width=".4">
            <path d="M34.238 216.164v.309h.367v.138h-.367v.59q0 .132.036.17.037.038.148.038h.183v.149h-.183q-.206 0-.285-.077-.078-.077-.078-.28v-.59h-.131v-.138h.13v-.309h.18zM35.292 217.658q-.075.194-.147.253-.072.06-.192.06h-.142v-.15h.104q.074 0 .115-.035.04-.035.09-.164l.032-.082-.44-1.068h.19l.339.85.339-.85h.189l-.477 1.186zM36.187 217.395v.575h-.179v-1.498h.18v.165q.056-.097.141-.143.086-.048.205-.048.198 0 .321.157.124.157.124.413t-.124.413q-.123.157-.32.157-.12 0-.206-.047-.085-.047-.142-.144zm.607-.379q0-.197-.081-.308-.08-.112-.222-.112-.142 0-.223.112-.08.111-.08.308t.08.31q.081.11.223.11.141 0 .222-.11.081-.113.081-.31zM38.203 216.97v.088h-.82q.012.184.11.28.1.097.278.097.102 0 .198-.026.097-.025.192-.075v.168q-.096.041-.196.062-.101.022-.205.022-.26 0-.412-.151-.15-.152-.15-.41 0-.266.143-.422.144-.157.388-.157.219 0 .346.142.128.14.128.382zm-.178-.052q-.002-.146-.083-.233-.08-.087-.211-.087-.15 0-.24.084-.088.084-.102.237h.636z"/>
        </g>
        <g font-size="1.984" stroke-width=".4">
            <path d="M3.617 248.884v.088h-.82q.012.184.111.28.1.097.277.097.103 0 .199-.026.097-.025.192-.075v.168q-.096.041-.197.062-.1.022-.204.022-.26 0-.412-.152-.151-.15-.151-.408 0-.267.143-.423.145-.157.389-.157.219 0 .346.142.127.14.127.382zm-.178-.052q-.002-.146-.082-.233-.08-.088-.211-.088-.15 0-.24.085-.089.084-.102.237h.635zM4.775 248.386l-.392.528.413.558h-.21l-.316-.427-.316.427h-.21l.42-.568-.385-.518h.21l.288.387.288-.387h.21zM5.226 248.078v.308h.367v.139h-.367v.59q0 .132.036.17.037.037.148.037h.183v.15H5.41q-.206 0-.285-.077-.078-.077-.078-.28v-.59h-.131v-.139h.13v-.308h.18z"/>
        </g>
        <g font-size="1.984" stroke-width=".4">
            <path d="M10.547 248.71q.067-.121.16-.178.093-.057.219-.057.17 0 .262.119.092.118.092.337v.655h-.18v-.65q0-.155-.055-.23-.055-.076-.168-.076-.139 0-.22.092-.08.092-.08.25v.614h-.179v-.65q0-.156-.055-.23-.056-.076-.17-.076-.137 0-.218.093-.08.092-.08.25v.613h-.18V248.5h.18v.168q.06-.1.146-.147.085-.048.203-.048.118 0 .2.06.083.06.123.175zM11.632 248.5h.179v1.086h-.179V248.5zm0-.422h.179v.226h-.179v-.226zM13.085 248.5l-.393.529.413.557h-.21l-.316-.426-.316.426h-.21l.421-.568-.385-.517h.21l.288.386.288-.386h.21z"/>
        </g>
        <g font-size="1.984" stroke-width=".4">
            <path d="M22.409 226.633h.831v.165h-.635v.426h.573v.165h-.573v.691h-.196v-1.447zM23.549 226.633h.291l.37.985.37-.985h.292v1.447h-.19v-1.27l-.374.992h-.197l-.373-.992v1.27h-.19v-1.447z"/>
        </g>
        <g font-size="1.984" stroke-width=".4">
            <path d="M2.96 238.458v.169q-.076-.039-.157-.058-.081-.02-.169-.02-.132 0-.2.041-.065.04-.065.122 0 .062.047.098.048.035.191.067l.061.013q.19.041.27.116.08.073.08.206 0 .151-.12.24-.12.088-.328.088-.088 0-.183-.018-.094-.016-.198-.05v-.184q.099.051.195.077.095.025.19.025.125 0 .193-.042.068-.044.068-.122 0-.073-.05-.112-.048-.039-.214-.074l-.062-.015q-.165-.035-.239-.106-.073-.073-.073-.2 0-.152.108-.235.109-.084.308-.084.099 0 .186.015.087.014.161.043zM3.285 239.083v-.657h.178v.65q0 .154.06.232.06.076.18.076.145 0 .228-.092.084-.092.084-.25v-.616h.178v1.085h-.178v-.166q-.065.098-.151.147-.085.047-.199.047-.187 0-.283-.116-.097-.116-.097-.34zM5.342 238.97q0-.197-.082-.308-.08-.113-.222-.113-.141 0-.222.113-.08.111-.08.308 0 .196.08.309.08.111.222.111.142 0 .222-.111.082-.113.082-.31zm-.607-.38q.056-.096.142-.143.086-.047.205-.047.198 0 .32.157.125.157.125.413t-.124.412q-.123.157-.321.157-.12 0-.205-.046-.086-.048-.142-.144v.162h-.18v-1.507h.18v.587z"/>
        </g>
        <g font-size="1.984" stroke-width=".4">
            <path d="M10.355 238.635q.067-.12.16-.178.093-.057.219-.057.17 0 .261.12.092.117.092.336v.655h-.179v-.649q0-.156-.055-.231-.055-.076-.169-.076-.138 0-.219.092-.08.092-.08.251v.613h-.18v-.649q0-.157-.055-.231-.055-.076-.17-.076-.137 0-.217.093-.08.092-.08.25v.613h-.18v-1.085h.18v.169q.06-.1.146-.148.085-.047.202-.047.118 0 .2.06.084.06.124.174zM11.44 238.426h.178v1.085h-.178v-1.085zm0-.422h.178v.225h-.178v-.225zM12.892 238.426l-.392.528.413.557h-.21l-.316-.426-.316.426h-.21l.421-.567-.386-.518h.21l.288.387.288-.387h.21z"/>
        </g>
        <text style="line-height:100%;-inkscape-font-specification:sans-serif" x="9.816" y="270.681" font-weight="400" font-size="1.984" font-family="sans-serif" stroke-width=".3">
            <tspan x="9.816" y="270.681">LFO</tspan><tspan x="9.816" y="272.665">mod</tspan>
        </text>
    </g>
</svg>
