<svg xmlns="http://www.w3.org/2000/svg" xmlns:xlink="http://www.w3.org/1999/xlink" width="120" height="380" viewBox="0 0 31.75 100.542">
    <defs>
        <linearGradient id="b">
            <stop offset="0" stop-color="#fff"/>
            <stop offset="1" stop-opacity="0"/>
        </linearGradient>
        <linearGradient id="a">
            <stop offset="0" stop-color="#fdfdfd"/>
            <stop offset="1" stop-color="#fdfdfd"/>
        </linearGradient>
        <radialGradient gradientUnits="userSpaceOnUse" gradientTransform="matrix(.4218 0 0 .02673 -105.982 272.192)" r="69.827" fy="856.052" fx="285.494" cy="856.052" cx="285.494" id="c" xlink:href="#a"/>
        <linearGradient gradientUnits="userSpaceOnUse" y2="832.532" x2="279.915" y1="830.884" x1="268.967" id="d" xlink:href="#b" gradientTransform="matrix(.26458 0 0 .26458 -59.861 72.341)"/>
    </defs>
    <path d="M0 0h31.75v100.542H0z" fill-rule="evenodd"/>
    <path d="M31.483 294.933l-17.042-.125-14.418.125-.878-3.47c4.81-1.004 10.75-1.724 16.17-1.72 5.716.006 9.887.467 17.047 1.845z" fill="url(#c)" stroke="#8b8b8b" stroke-width=".397" transform="translate(0 -196.458)"/>
    <path d="M0 95.535c10.904-1.21 21.546-.99 31.75.123l-.033 3.296H0z"/>
    <path d="M17.773 95.004l1.533-.723 1.42-.177 1.006.122 1.404.515 1.116 1.042z" fill-rule="evenodd"/>
    <g stroke="#fff">
        <g color="#000" fill="none" stroke-linejoin="bevel">
            <path d="M2.117 188.81l18.113 36.226 65.551 31.913 90.564 13.8 94.877-11.213 60.376-31.913 14.663-30.188-14.663-37.951.324 67.923-33.1-64.473-25.875 96.602-58.651-80.214-40.538 91.427-40.538-75.902-46.576 61.239-17.098-92.852-49.316 62.663 6.037-89.702 44.241 27.296 63.574 32.218 80-16.819 86.466-15.957 31.051-3.666-33.279-62.05 1.366 64.853-64.689-74.392-20.7 91.427-69.001-66.198-75.902 50.026L84.751 80.38l-59.346 55.816 24.151-56.064h34.501l81.077-37.088-18.975 69.864 89.702-24.15 62.101 7.762-66.314-54.334 4.212 46.571-70.726-45.713 66.414-1.725-53.476-15.525-12.938 16.388-49.164-6.9-66.414 44.85-33.333 49.417 9.183 6.647L2.118 188.81z" stroke-width="2.892" transform="matrix(.02343 0 0 .01665 16.572 93.689)"/>
            <path d="M133.17 195.51l12.99-80.876-61.407-35.517 32.081-44.697 28.463-4.313 32.776-5.175 41.401 6.9 12.938 10.35 47.438 20.7 18.975 34.501 30.188 30.188 2.803 31.913" stroke-width="2.892" transform="matrix(.02343 0 0 .01665 16.572 93.689)"/>
            <path d="M329.01 126.71l-49.16-63.83-59.77-31.05M1.926 188.186L16.11 129.84" stroke-width="2" transform="matrix(.02343 0 0 .01665 16.572 93.689)"/>
        </g>
    </g>
    <path d="M24.677 96.978l-.397-1.175" fill="none" stroke="#fff" stroke-width=".04769"/>
    <path d="M2.826 95.629l3.149-1.341 1.329.418 1.108-.784 2.215.292.933-.35 3.024.98-1.042.478-9.503.291z" fill-rule="evenodd"/>
    <g style="line-height:125%" font-weight="400" font-size="7.5" font-family="Geneva" letter-spacing="0" word-spacing="0" fill="#fff">
        <path style="-inkscape-font-specification:Geneva" d="M3.306 99.703h.18v.004q0 .07.054.116.053.046.18.046.111 0 .18-.055.07-.054.07-.127 0-.1-.136-.142l-.092-.028-.061-.02-.125-.038q-.214-.079-.214-.26 0-.129.104-.226.103-.096.308-.096.201 0 .286.083.086.082.086.183v.004h-.181v-.004q0-.054-.056-.085-.054-.031-.145-.031-.109 0-.167.045-.057.045-.057.11 0 .051.037.083.038.031.126.056l.087.024.063.019q.132.038.164.053.033.016.066.04.045.035.067.084.022.05.022.115 0 .154-.11.258-.11.105-.321.105-.134 0-.222-.04t-.14-.11q-.053-.07-.053-.162v-.004zM6.828 100.019q-.212 0-.362-.144t-.15-.428q0-.283.15-.426.15-.144.362-.144.211 0 .36.144.15.143.15.426 0 .284-.15.428-.149.144-.36.144zm0-.15q.145 0 .234-.116.089-.116.089-.306 0-.189-.09-.304-.088-.116-.233-.116-.146 0-.235.116-.089.115-.089.304 0 .19.089.306.089.116.235.116zM10.25 98.907h.18v1.082h-.18v-.19q-.056.088-.11.132-.054.043-.112.066-.057.022-.125.022-.15 0-.254-.084-.105-.086-.105-.342v-.686h.18v.61q0 .237.063.287.063.05.156.05.08 0 .151-.047.072-.048.114-.132.042-.085.042-.237v-.531zM13.367 99.836v.15q-.131.033-.201.033-.1 0-.182-.04-.08-.042-.123-.119-.042-.078-.042-.247v-.556h-.188v-.15h.188v-.256h.18v.256h.316v.15H13v.505q0 .143.022.2.023.054.07.08.049.027.116.027.053 0 .16-.033zM15.754 99.989h-.18v-1.564h.18v.669q.057-.089.11-.131.055-.043.113-.064.059-.022.13-.022.102 0 .183.041.081.042.126.123.044.08.044.259v.689h-.18v-.612q0-.145-.02-.205-.019-.061-.073-.095-.054-.035-.124-.035-.08 0-.151.047-.072.046-.115.13-.043.083-.043.238v.532zM18.886 100.41h-.18v-1.503h.18v.188q.057-.096.107-.136.051-.04.115-.061.064-.021.132-.021.124 0 .227.067.103.067.159.2.057.135.057.301 0 .247-.12.411-.117.163-.332.163-.068 0-.13-.02-.061-.02-.109-.059-.047-.04-.106-.14v.61zm0-.962q0 .184.08.302.08.119.224.119.132 0 .219-.105t.087-.313q0-.243-.092-.337-.092-.095-.21-.095-.086 0-.16.052-.074.052-.11.154-.038.102-.038.223zM22.362 100.019q-.212 0-.362-.144t-.15-.428q0-.283.15-.426.15-.144.362-.144.211 0 .36.144.15.143.15.426 0 .284-.15.428-.149.144-.36.144zm0-.15q.145 0 .234-.116.089-.116.089-.306 0-.189-.09-.304-.088-.116-.233-.116-.146 0-.235.116-.089.115-.089.304 0 .19.089.306.089.116.235.116zM25.273 99.989h-.18v-1.564h.18v1.564zM28.257 99.71h.18v.01q0 .072-.057.147-.057.074-.151.113-.094.039-.216.039-.247 0-.382-.16-.134-.16-.134-.404 0-.25.142-.414.142-.164.366-.164.123 0 .223.053t.158.166q.058.113.058.314v.06h-.768q0 .174.093.286.094.113.26.113.119 0 .173-.046.055-.046.055-.103v-.01zm-.57-.375h.585v-.022q0-.075-.037-.146-.036-.072-.1-.105-.064-.035-.15-.035-.1 0-.185.081-.086.08-.113.227z"/>
    </g>
    <path d="M2.737 81.026h26.276c.949 0 1.713.74 1.713 1.66v8.294c0 .92-.764 1.66-1.713 1.66H2.737c-.949 0-1.713-.74-1.713-1.66v-8.293c0-.92.764-1.66 1.713-1.66z" fill="#606060"/>
    <g font-size="2.646" fill="#fff" stroke-width="1.533" stroke-miterlimit="10">
        <path d="M2.147 91.092h.426v-1.471l-.464.093v-.238l.462-.093h.26v1.71h.427v.219H2.147v-.22zM3.633 90.481h.696v.212h-.696v-.212zM4.887 90.39v.707h.419q.21 0 .311-.086.102-.088.102-.268 0-.18-.102-.266-.1-.086-.311-.086h-.419zm0-.792v.58h.386q.192 0 .285-.07.094-.072.094-.22 0-.146-.094-.218-.093-.072-.285-.072h-.386zm-.26-.215h.666q.298 0 .46.124.161.124.161.353 0 .177-.083.281-.082.105-.242.131.192.041.298.173.107.13.107.327 0 .258-.175.4-.176.14-.5.14h-.693v-1.929zM6.44 89.383h.26v1.929h-.26v-1.929zM6.953 89.383h1.631v.22H7.9v1.709h-.262v-1.71h-.685v-.219z"/>
    </g>
    <g font-size="2.646" fill="#fff" stroke-width="1.533" stroke-miterlimit="10">
        <path d="M17.795 89.308h.262v1.172q0 .31.112.447.113.136.365.136.25 0 .363-.136.112-.137.112-.447v-1.172h.262v1.204q0 .378-.187.57-.186.193-.55.193-.366 0-.553-.193-.186-.192-.186-.57v-1.204zM19.762 89.308h.352l.855 1.614v-1.614h.253v1.93h-.351l-.856-1.614v1.613h-.253v-1.929zM21.741 89.308h.261v1.93h-.26v-1.93z"/>
    </g>
    <g font-size="2.646" fill="#fff" stroke-width="1.533" stroke-miterlimit="10">
        <path d="M25.796 90.353v.707h.419q.21 0 .311-.086.102-.088.102-.268 0-.18-.102-.266-.1-.087-.311-.087h-.419zm0-.793v.582h.387q.19 0 .284-.071.094-.073.094-.22 0-.146-.094-.218-.093-.073-.284-.073h-.387zm-.26-.214h.666q.298 0 .46.124.161.124.161.353 0 .177-.082.281-.083.105-.243.13.192.042.298.174.107.13.107.327 0 .258-.175.399-.176.14-.5.14h-.693v-1.928zM27.35 89.346h.26v1.929h-.26v-1.93z"/>
    </g>
    <g font-size="2.646" fill="#fff" stroke-width="1.533" stroke-miterlimit="10">
        <path d="M10.362 18.585h1.108v.22h-.847v.568h.765v.22h-.765v.92h-.261v-1.928zM12.796 19.61q.084.028.162.12.08.094.16.257l.266.527h-.28l-.248-.495q-.095-.194-.186-.257-.089-.064-.244-.064h-.284v.816h-.261v-1.93h.59q.33 0 .493.139.162.138.162.417 0 .182-.085.303-.084.12-.245.166zm-.654-.81v.684h.328q.189 0 .284-.087.097-.087.097-.257 0-.169-.097-.254-.095-.087-.284-.087h-.328zM13.72 18.585h1.22v.22h-.958v.57h.918v.22h-.918v.699h.982v.22H13.72v-1.93zM15.39 18.585h1.22v.22h-.96v.57h.92v.22h-.92v.699h.983v.22H15.39v-1.93zM16.948 18.585h1.515v.199l-1.22 1.51h1.25v.22h-1.575v-.2l1.22-1.51h-1.19v-.22zM18.873 18.585h1.22v.22h-.96v.57h.92v.22h-.92v.699h.983v.22h-1.243v-1.93z"/>
    </g>
    <g font-size="2.646" fill="#fff" stroke-width="1.533" stroke-miterlimit="10">
        <path d="M21.899 76.779h.26v1.71h.94v.219h-1.2v-1.93zM23.372 76.779h1.22v.22h-.96v.57h.92v.22h-.92v.7h.983v.219h-1.243v-1.93zM25.538 78.708l-.736-1.93h.272l.612 1.625.612-1.624h.271l-.735 1.929h-.296zM26.85 76.779h1.22v.22h-.96v.57h.92v.22h-.92v.7h.982v.219H26.85v-1.93zM28.519 76.779h.26v1.71h.94v.219h-1.2v-1.93z"/>
    </g>
    <g font-size="2.646" fill="#fff" stroke-width="1.533" stroke-miterlimit="10">
        <path d="M2.12 35.674l-.736-1.93h.273l.61 1.625.613-1.624h.272l-.735 1.929H2.12zM3.844 33.745h.22l-.672 2.174h-.22l.672-2.174zM5.109 33.922q-.284 0-.452.212-.167.211-.167.577 0 .364.167.576.168.212.452.212.284 0 .45-.212.166-.212.166-.576 0-.366-.167-.577-.165-.212-.45-.212zm0-.212q.406 0 .648.272.243.272.243.73 0 .455-.243.728-.242.271-.648.271-.407 0-.651-.271-.243-.272-.243-.729 0-.457.243-.729.244-.272.65-.272zM7.853 33.893v.275q-.132-.122-.282-.183-.148-.06-.316-.06-.331 0-.507.202-.175.202-.175.584 0 .381.175.584.176.202.507.202.168 0 .316-.061.15-.06.282-.184v.273q-.137.093-.29.14-.153.046-.324.046-.438 0-.69-.267-.252-.27-.252-.733 0-.465.252-.732.252-.27.69-.27.173 0 .326.047.154.046.288.137zM7.991 33.745h1.632v.22h-.685v1.709h-.262v-1.71H7.99v-.22z"/>
    </g>
    <g font-size="2.646" fill="#fff" stroke-width="1.533" stroke-miterlimit="10">
        <path d="M12.524 33.71h1.108v.22h-.847v.568h.765v.22h-.765v.92h-.261V33.71zM14.958 34.734q.084.029.163.122.08.093.16.256l.265.527h-.28l-.248-.495q-.095-.194-.186-.257-.089-.064-.244-.064h-.284v.816h-.26v-1.93h.588q.33 0 .494.14.162.137.162.416 0 .183-.085.303-.084.12-.245.166zm-.654-.81v.685h.328q.189 0 .284-.087.097-.087.097-.257 0-.169-.097-.254-.095-.087-.284-.087h-.328zM15.883 33.71h1.22v.22h-.96v.57h.92v.22h-.92v.699h.983v.22h-1.243v-1.93zM18.335 33.922q-.284 0-.452.212-.167.212-.167.577t.167.576q.168.212.452.212.284 0 .45-.212.166-.211.166-.576t-.167-.577q-.165-.212-.45-.212zm.365 1.717l.344.376h-.315l-.286-.309-.066.004-.042.001q-.407 0-.651-.271-.243-.273-.243-.729 0-.457.243-.729.244-.272.65-.272t.65.272q.242.272.242.73 0 .335-.135.574-.135.239-.39.353z"/>
    </g>
    <g font-size="2.646" fill="#fff" stroke-width="1.533" stroke-miterlimit="10">
        <path d="M10.405 64.33v.254q-.149-.072-.28-.106-.132-.035-.255-.035-.213 0-.33.082-.114.083-.114.236 0 .127.076.193.077.065.292.105l.157.032q.292.056.43.197.14.14.14.374 0 .28-.189.425-.187.145-.55.145-.137 0-.292-.03-.154-.032-.319-.093v-.268q.159.089.311.134.153.045.3.045.224 0 .345-.088.121-.088.121-.25 0-.142-.087-.223-.087-.08-.286-.12l-.159-.03q-.292-.059-.422-.183t-.13-.345q0-.256.179-.403.18-.147.497-.147.136 0 .277.024.14.025.288.074zM10.933 64.266h.389l.492 1.312.495-1.312h.389v1.929h-.255V64.5l-.497 1.323h-.262l-.498-1.323v1.694h-.253v-1.93zM13.995 64.443q-.284 0-.452.212-.167.212-.167.577 0 .364.167.576.168.212.452.212.284 0 .45-.212.166-.212.166-.576 0-.365-.166-.577-.166-.212-.45-.212zm0-.212q.406 0 .649.272.242.272.242.73 0 .455-.242.728-.243.271-.649.271-.407 0-.651-.271-.243-.272-.243-.729 0-.457.243-.729.244-.272.651-.272zM16.078 64.443q-.285 0-.453.212-.166.212-.166.577 0 .364.166.576.168.212.453.212.284 0 .45-.212.166-.212.166-.576 0-.365-.167-.577-.165-.212-.45-.212zm0-.212q.405 0 .648.272t.243.73q0 .455-.243.728-.243.271-.648.271-.407 0-.652-.271-.242-.272-.242-.729 0-.457.242-.729.245-.272.652-.272zM17.11 64.266h1.631v.22h-.684v1.709h-.262v-1.71h-.685v-.22zM19 64.266h.26v.79h.95v-.79h.26v1.929h-.26v-.919h-.95v.919H19v-1.93z"/>
    </g>
    <g font-size="2.646" fill="#fff" stroke-width="1.533" stroke-miterlimit="10">
        <path d="M22.269 40.762h1.108v.22h-.848v.568h.765v.22h-.765v.921h-.26v-1.929zM23.788 40.762h.389l.492 1.313.495-1.313h.389v1.93h-.255v-1.695l-.497 1.323h-.263l-.497-1.323v1.694h-.253v-1.929z"/>
    </g>
    <g font-size="4.63" fill="#fff" stroke-width="1.533" stroke-miterlimit="10">
        <path d="M1.388 1.132h.457v2.992h1.644v.384h-2.1V1.132zM5.098 3.235q-.504 0-.698.115-.195.116-.195.394 0 .221.145.352.147.13.398.13.346 0 .554-.245.21-.246.21-.653v-.093h-.414zm.83-.172v1.445h-.416v-.384q-.142.23-.355.34-.212.11-.52.11-.389 0-.62-.218-.228-.219-.228-.585 0-.427.285-.644.287-.218.855-.218h.583v-.04q0-.287-.19-.443-.187-.159-.529-.159-.217 0-.423.052-.205.052-.395.156v-.384q.228-.088.443-.131.215-.045.418-.045.55 0 .82.285.272.284.272.863zM8.768 2.462q.156-.28.373-.414.217-.133.51-.133.396 0 .611.278.215.276.215.787v1.528h-.418V2.993q0-.364-.13-.54-.128-.177-.393-.177-.323 0-.51.215-.188.215-.188.586v1.43H8.42V2.994q0-.366-.13-.54-.128-.177-.397-.177-.319 0-.507.217-.187.215-.187.584v1.43H6.78V1.977H7.2v.393q.142-.233.341-.344.199-.11.473-.11.275 0 .468.14.194.14.287.407zM13.118 3.244q0-.459-.19-.719-.188-.262-.518-.262t-.52.262q-.188.26-.188.72 0 .458.188.72.19.26.52.26t.518-.26q.19-.262.19-.72zm-1.416-.884q.131-.226.33-.335.202-.11.48-.11.46 0 .748.366.29.366.29.963t-.29.963q-.287.366-.748.366-.278 0-.48-.108-.199-.11-.33-.337v.38h-.418V.99h.418v1.37zM15.853 2.05v.394q-.176-.09-.366-.136-.19-.045-.393-.045-.31 0-.466.095-.154.095-.154.285 0 .144.11.228.112.081.446.156l.143.032q.443.095.628.269.188.172.188.481 0 .353-.28.559-.279.205-.767.205-.203 0-.425-.04-.22-.039-.463-.118v-.43q.23.12.454.182.224.058.443.058.294 0 .452-.1.159-.1.159-.284 0-.17-.116-.26-.113-.09-.5-.174l-.144-.034q-.387-.081-.559-.249-.171-.17-.171-.463 0-.357.253-.552.253-.194.719-.194.23 0 .434.034.203.034.375.101z"/>
    </g>
    <g font-size="2.646" fill="#fff" stroke-width="1.533" stroke-miterlimit="10">
        <path d="M2.402 18.683v.255q-.149-.072-.28-.106-.132-.035-.255-.035-.213 0-.33.082-.114.083-.114.236 0 .127.076.193.077.065.292.105l.157.032q.292.056.43.197.14.14.14.374 0 .28-.188.425-.188.145-.55.145-.138 0-.293-.031-.154-.031-.319-.092v-.268q.159.089.311.134.153.045.3.045.224 0 .345-.088.122-.088.122-.25 0-.142-.088-.223-.087-.08-.286-.12l-.159-.03q-.292-.059-.422-.183t-.13-.345q0-.256.179-.403.18-.147.497-.147.136 0 .277.024.14.025.288.074zM2.665 18.62h.28l.536.793.53-.793h.281l-.682 1.01v.919h-.262v-.919l-.683-1.01zM4.548 18.62h.351l.855 1.613V18.62h.254v1.929h-.352l-.855-1.614v1.614h-.253v-1.93zM7.971 18.768v.275q-.131-.122-.281-.183-.149-.06-.317-.06-.33 0-.506.202t-.176.584q0 .381.176.584.175.202.506.202.168 0 .317-.061.15-.06.281-.184v.273q-.137.093-.29.14-.153.046-.323.046-.438 0-.69-.267-.252-.27-.252-.733 0-.465.252-.732.252-.27.69-.27.173 0 .325.047.154.046.288.137z"/>
    </g>
    <g font-size="2.646" fill="#fff" stroke-width="1.533" stroke-miterlimit="10">
        <path d="M2.151 77.787v.706h.419q.21 0 .311-.086.102-.088.102-.268 0-.18-.102-.266-.1-.086-.311-.086h-.419zm0-.794v.582h.387q.19 0 .284-.071.094-.073.094-.22 0-.146-.094-.218-.093-.073-.284-.073H2.15zm-.26-.214h.666q.298 0 .46.124.161.124.161.353 0 .177-.082.281-.083.105-.243.13.192.042.298.174.108.13.108.327 0 .258-.176.399-.176.14-.5.14H1.89V76.78zM4.349 77.036l-.354.96h.71l-.356-.96zm-.147-.257h.296l.735 1.929H4.96l-.175-.495h-.87l-.176.495h-.275l.737-1.93zM5.513 76.779h.351l.856 1.614v-1.614h.253v1.929H6.62l-.855-1.614v1.614h-.253v-1.93zM7.492 76.779h.261v.815l.866-.815h.336l-.958.9 1.026 1.029H8.68l-.926-.93v.93h-.26v-1.93z"/>
    </g>
    <g font-size="2.646" fill="#fff" stroke-width="1.533" stroke-miterlimit="10">
        <path d="M11.704 89.337v.254q-.149-.071-.28-.106-.132-.035-.255-.035-.213 0-.33.083-.114.083-.114.235 0 .128.076.194.077.064.292.104l.158.033q.292.055.43.196.14.14.14.375 0 .28-.19.425-.187.145-.55.145-.137 0-.292-.031-.153-.031-.319-.092v-.269q.16.09.312.134.152.046.3.046.223 0 .344-.088.122-.088.122-.25 0-.143-.088-.223-.087-.08-.286-.12l-.159-.031q-.292-.058-.422-.182t-.13-.345q0-.256.18-.403.18-.148.496-.148.136 0 .277.025.14.024.288.073zM12.203 89.273h.262v1.172q0 .31.112.447.113.136.365.136.25 0 .363-.136.112-.137.112-.447v-1.172h.262v1.204q0 .378-.187.57-.186.193-.55.193-.366 0-.553-.193-.186-.192-.186-.57v-1.204zM14.431 90.28v.708h.419q.21 0 .311-.087.102-.088.102-.267 0-.181-.102-.267-.1-.086-.311-.086h-.419zm0-.792v.581h.387q.19 0 .284-.071.094-.072.094-.22 0-.146-.094-.218-.093-.072-.284-.072h-.387zm-.26-.215h.666q.298 0 .46.124.161.124.161.353 0 .177-.082.282-.083.104-.243.13.192.041.298.173.107.13.107.327 0 .258-.175.4-.176.14-.5.14h-.693v-1.929z"/>
    </g>
    <g style="text-align:center" font-size="2.646" text-anchor="middle" fill="#fff" stroke-width=".375">
        <path d="M22.829 7.414v.707h.418q.211 0 .312-.087.102-.087.102-.267 0-.18-.102-.266-.101-.087-.312-.087h-.418zm0-.793v.582h.386q.191 0 .284-.071.095-.073.095-.22 0-.146-.095-.218-.093-.073-.284-.073h-.386zm-.261-.214h.666q.299 0 .46.124.162.124.162.352 0 .177-.083.282-.082.105-.243.13.193.042.299.174.107.13.107.327 0 .258-.176.399-.175.14-.5.14h-.692V6.408zM25.026 6.664l-.354.96h.71l-.356-.96zm-.147-.257h.296l.735 1.929h-.271l-.176-.495h-.87l-.175.495h-.275l.736-1.93zM26.19 6.407h.352l.855 1.613V6.407h.253v1.929H27.3l-.855-1.614v1.614h-.254v-1.93zM28.17 6.407h.26v.815l.866-.815h.336l-.957.899 1.025 1.03h-.343l-.926-.93v.93h-.261v-1.93z"/>
    </g>
    <g style="text-align:center" font-size="1.984" text-anchor="middle" fill="#0f0" stroke-width="1.417">
        <path d="M23.365 19.248l-.72-.266v.532l.72-.266zm.192-.11v.221l-1.446.551v-.203l.37-.132v-.652l-.37-.132v-.206l1.446.552zM23.397 20.316h-1.125v.237q0 .3.135.438.136.14.429.14.29 0 .425-.14.136-.139.136-.438v-.237zm.16-.195v.402q0 .42-.175.617-.174.197-.546.197-.374 0-.55-.198-.175-.198-.175-.616v-.402h1.446zM23.397 21.843h-1.125v.237q0 .3.135.438.136.14.429.14.29 0 .425-.14.136-.139.136-.438v-.237zm.16-.195v.402q0 .42-.175.617-.174.197-.546.197-.374 0-.55-.198-.175-.198-.175-.616v-.402h1.446z"/>
    </g>
    <g style="text-align:center" font-size="1.984" text-anchor="middle" fill="#ff0" stroke-width="1.417">
        <path d="M26.424 18.78h-.543v.247q0 .136.07.21.071.075.202.075.13 0 .2-.074.071-.075.071-.211v-.246zm.161-.195v.442q0 .243-.11.367-.11.125-.322.125-.214 0-.324-.125-.109-.124-.109-.367v-.246h-.581v-.196h1.446zM26.585 19.654v.197l-1.223.304 1.223.304v.22l-1.223.304 1.223.303v.199l-1.446-.364v-.246l1.255-.305-1.255-.308v-.246l1.446-.362zM26.585 21.744v.291l-.984.37.984.37v.292H25.14v-.19h1.27l-.992-.374v-.197l.992-.373h-1.27v-.19h1.446z"/>
    </g>
    <g style="text-align:center" font-size="1.984" text-anchor="middle" fill="red" stroke-width="1.417">
        <path d="M29.843 18.585v.197l-1.223.305 1.223.303v.22l-1.223.304 1.223.303v.2l-1.446-.364v-.246l1.255-.306-1.255-.308v-.246l1.446-.362zM29.843 20.675v.291l-.984.37.984.37v.292h-1.446v-.19h1.27l-.992-.374v-.196l.992-.373h-1.27v-.19h1.446zM29.65 22.867l-.72-.265v.532l.72-.267zm.193-.11v.222l-1.446.551v-.203l.37-.132v-.652l-.37-.132v-.206l1.446.552zM29.682 23.936h-.543v.246q0 .137.07.212.071.074.202.074.13 0 .2-.074.071-.075.071-.212v-.246zm.161-.196v.442q0 .244-.11.368-.11.125-.322.125-.214 0-.324-.125-.11-.124-.11-.368v-.246h-.58v-.196h1.446z"/>
    </g>
    <g style="-inkscape-font-specification:sans-serif" font-weight="400" font-size="1.984" font-family="sans-serif" fill="#fff" stroke-width=".3">
        <path d="M1.388 6.418h.179l.222.847.222-.847h.21l.223.847.222-.847h.179L2.56 7.503h-.21l-.234-.89-.235.89h-.21l-.284-1.085zM3.61 6.958q-.217 0-.3.049-.084.05-.084.169 0 .095.062.15.063.056.17.056.15 0 .238-.105.09-.105.09-.28v-.04H3.61zm.355-.074v.62h-.179v-.166q-.06.1-.152.147-.09.046-.223.046-.166 0-.265-.093-.098-.094-.098-.25 0-.184.122-.277.123-.093.366-.093h.25v-.017q0-.123-.081-.19-.08-.068-.227-.068-.093 0-.18.022-.09.023-.17.067v-.165q.097-.037.19-.056.092-.02.179-.02.235 0 .351.123.117.122.117.37zM4.209 6.418h.189l.339.91.34-.91h.188l-.407 1.085h-.242l-.407-1.085zM6.44 6.916v.087h-.82q.011.184.11.281.1.096.277.096.103 0 .199-.025.097-.025.192-.076v.169q-.096.04-.197.062-.1.021-.204.021-.26 0-.412-.151-.151-.151-.151-.409 0-.266.143-.422.144-.157.389-.157.219 0 .345.141.128.14.128.383zm-.179-.052q-.002-.147-.082-.234-.08-.087-.212-.087-.149 0-.239.084-.089.085-.103.238l.636-.001zM6.904 6.11v.308h.368v.138h-.368v.59q0 .132.036.17.037.038.149.038h.183v.15h-.183q-.207 0-.285-.077-.079-.078-.079-.281v-.59h-.13v-.138h.13V6.11h.18zM8 6.958q-.216 0-.3.049-.082.05-.082.169 0 .095.062.15.063.056.17.056.148 0 .238-.105t.09-.28v-.04H8zm.356-.074v.62h-.178v-.166q-.061.1-.153.147-.09.046-.222.046-.167 0-.266-.093-.098-.094-.098-.25 0-.184.122-.277.123-.093.367-.093h.25v-.017q0-.123-.082-.19-.08-.068-.227-.068-.093 0-.18.022-.089.023-.17.067v-.165q.098-.037.19-.056.092-.02.179-.02.235 0 .352.123.116.122.116.37zM9.507 6.961q0-.196-.081-.308-.08-.112-.222-.112-.142 0-.223.112-.08.112-.08.308 0 .197.08.31.081.111.223.111.141 0 .222-.111.081-.113.081-.31zM8.9 6.583q.057-.097.142-.144.086-.047.205-.047.198 0 .321.157.124.157.124.412 0 .256-.124.413-.123.157-.32.157-.12 0-.206-.046-.085-.048-.142-.145v.163h-.179V5.995h.18v.588zM9.988 5.995h.178v1.508h-.178V5.995zM11.466 6.916v.087h-.82q.012.184.11.281.1.096.278.096.103 0 .199-.025.097-.025.192-.076v.169q-.096.04-.197.062-.1.021-.205.021-.26 0-.411-.151-.152-.151-.152-.409 0-.266.144-.422.144-.157.388-.157.22 0 .346.141.128.14.128.383zm-.178-.052q-.002-.147-.082-.234-.08-.087-.212-.087-.149 0-.239.084-.09.085-.103.238l.636-.001zM12.807 6.543q-.143 0-.227.112-.083.112-.083.306 0 .195.082.308.084.111.228.111.143 0 .226-.112.083-.113.083-.307 0-.192-.083-.305-.083-.113-.226-.113zm0-.151q.233 0 .365.15.133.152.133.42 0 .266-.133.418-.132.151-.365.151-.233 0-.366-.15-.132-.153-.132-.42t.132-.418q.133-.151.366-.151zM14.292 6.45v.168q-.076-.038-.157-.058-.082-.019-.169-.019-.133 0-.2.04-.065.041-.065.123 0 .062.047.098.047.035.19.067l.062.013q.19.04.27.115.08.074.08.207 0 .151-.12.24-.12.087-.329.087-.087 0-.182-.017-.094-.017-.199-.05v-.185q.1.052.195.078.096.025.19.025.126 0 .194-.042.068-.044.068-.123 0-.072-.05-.11-.048-.04-.214-.076l-.062-.014q-.166-.035-.24-.107-.073-.072-.073-.198 0-.153.109-.237.108-.083.308-.083.099 0 .186.015.087.014.16.043zM15.416 6.46v.166q-.076-.041-.153-.062-.075-.021-.153-.021-.173 0-.269.11-.096.11-.096.309 0 .198.096.309.096.11.27.11.077 0 .152-.021.077-.022.153-.063v.164q-.075.035-.155.053-.08.017-.17.017-.245 0-.39-.154-.144-.154-.144-.416 0-.265.145-.417.147-.152.4-.152.083 0 .161.017.079.017.153.05zM15.724 6.418h.178v1.085h-.178V6.418zm0-.423h.178v.226h-.178v-.226zM16.274 5.995h.178v1.508h-.178V5.995zM16.824 5.995h.179v1.508h-.179V5.995zM17.868 6.958q-.216 0-.3.049-.083.05-.083.169 0 .095.062.15.063.056.17.056.149 0 .238-.105.09-.105.09-.28v-.04h-.177zm.356-.074v.62h-.179v-.166q-.06.1-.152.147-.091.046-.223.046-.166 0-.265-.093-.098-.094-.098-.25 0-.184.122-.277.123-.093.366-.093h.25v-.017q0-.123-.081-.19-.08-.068-.227-.068-.093 0-.181.022-.088.023-.17.067v-.165q.098-.037.19-.056.092-.02.18-.02.235 0 .351.123.117.122.117.37zM18.772 6.11v.308h.367v.138h-.367v.59q0 .132.036.17.037.038.148.038h.183v.15h-.183q-.206 0-.285-.077-.078-.078-.078-.281v-.59h-.131v-.138h.13V6.11h.18zM19.795 6.543q-.143 0-.227.112-.083.112-.083.306 0 .195.082.308.084.111.228.111.143 0 .226-.112.083-.113.083-.307 0-.192-.083-.305-.083-.113-.226-.113zm0-.151q.233 0 .365.15.133.152.133.42 0 .266-.133.418-.132.151-.365.151-.233 0-.366-.15-.132-.153-.132-.42t.132-.418q.133-.151.366-.151zM21.217 6.585q-.03-.018-.066-.026-.035-.009-.078-.009-.151 0-.232.1-.08.097-.08.281v.572h-.18V6.418h.18v.168q.055-.099.145-.146.09-.049.22-.049.018 0 .04.003.022.002.05.007v.184z"/>
    </g>
    <g style="-inkscape-font-specification:sans-serif" font-weight="400" font-size="2.646" font-family="sans-serif" fill="#fff" stroke-width=".3">
        <path d="M12.635 49.395q.084.029.163.122.08.093.16.256l.265.527h-.28l-.247-.495q-.096-.194-.186-.257t-.244-.063h-.284v.815h-.261V48.37h.589q.33 0 .493.138.163.138.163.418 0 .182-.085.302-.084.12-.246.166zm-.653-.81v.685h.328q.188 0 .284-.086.097-.088.097-.258 0-.169-.097-.254-.096-.087-.284-.087h-.328zM14.343 48.548q-.284 0-.452.212-.167.212-.167.577t.167.577q.168.211.452.211.284 0 .45-.211.166-.212.166-.577t-.166-.577q-.166-.212-.45-.212zm0-.212q.406 0 .649.273.243.271.243.728 0 .456-.243.729-.243.271-.649.271-.407 0-.65-.271-.244-.271-.244-.729 0-.457.243-.728.244-.273.651-.273zM15.471 48.371h.264l.405 1.63.405-1.63h.293l.406 1.63.404-1.63h.265l-.485 1.929H17.1l-.407-1.675-.41 1.675h-.329l-.483-1.929z"/>
    </g>
    <g style="-inkscape-font-specification:sans-serif" font-weight="400" font-size="2.646" font-family="sans-serif" fill="#fff" stroke-width=".3">
        <path d="M10.838 55.676v.276q-.132-.123-.282-.184-.149-.06-.317-.06-.33 0-.506.202t-.176.584q0 .381.176.584.176.202.506.202.168 0 .317-.061.15-.06.282-.183v.272q-.137.093-.291.14-.153.046-.323.046-.438 0-.69-.267-.252-.269-.252-.733 0-.465.252-.732.252-.269.69-.269.173 0 .325.047.154.045.289.136zM12.026 55.705q-.284 0-.452.212-.167.212-.167.577t.167.576q.168.212.452.212.284 0 .45-.212.166-.211.166-.576t-.166-.577q-.166-.212-.45-.212zm0-.212q.406 0 .649.273.243.27.243.728 0 .456-.243.729-.243.271-.649.271-.407 0-.651-.271-.243-.271-.243-.729 0-.457.243-.728.244-.273.651-.273zM13.326 55.528h.26v1.71h.94v.219h-1.2v-1.93zM14.642 55.528h.263V56.7q0 .31.112.447.112.135.364.135.25 0 .363-.135.113-.137.113-.447v-1.172h.262v1.204q0 .377-.187.57-.186.192-.55.192-.366 0-.554-.192-.186-.193-.186-.57v-1.204zM16.612 55.528h.39l.492 1.312.494-1.312h.39v1.929h-.255v-1.694l-.498 1.323h-.262l-.497-1.323v1.694h-.254v-1.93zM18.891 55.528h.352l.855 1.613v-1.613h.253v1.929H20l-.855-1.614v1.614h-.254v-1.93z"/>
    </g>
</svg>
