<?xml version="1.0" encoding="UTF-8" standalone="no"?>
<!-- Created with Inkscape (http://www.inkscape.org/) -->

<svg
   xmlns:dc="http://purl.org/dc/elements/1.1/"
   xmlns:cc="http://creativecommons.org/ns#"
   xmlns:rdf="http://www.w3.org/1999/02/22-rdf-syntax-ns#"
   xmlns:svg="http://www.w3.org/2000/svg"
   xmlns="http://www.w3.org/2000/svg"
   xmlns:xlink="http://www.w3.org/1999/xlink"
   xmlns:sodipodi="http://sodipodi.sourceforge.net/DTD/sodipodi-0.dtd"
   xmlns:inkscape="http://www.inkscape.org/namespaces/inkscape"
   width="90"
   height="380"
   viewBox="0 0 23.812501 100.54167"
   version="1.1"
   id="svg8"
   inkscape:version="0.91 r13725"
   sodipodi:docname="Oliverb.svg">
  <defs
     id="defs2">
    <inkscape:perspective
       id="perspective4197"
       inkscape:persp3d-origin="240 : 126.66667 : 1"
       inkscape:vp_z="480.00001 : 190 : 1"
       inkscape:vp_y="0 : 1000 : 0"
       inkscape:vp_x="0 : 190 : 1"
       sodipodi:type="inkscape:persp3d" />
    <linearGradient
       id="linearGradient4189"
       inkscape:collect="always">
      <stop
         id="stop4191"
         offset="0"
         style="stop-color:#ffffff;stop-opacity:1" />
      <stop
         id="stop4193"
         offset="1"
         style="stop-color:#000000;stop-opacity:0;" />
    </linearGradient>
    <linearGradient
       id="linearGradient5349"
       inkscape:collect="always">
      <stop
         id="stop5351"
         offset="0"
         style="stop-color:#fdfdfd;stop-opacity:1;" />
      <stop
         id="stop5353"
         offset="1"
         style="stop-color:#fdfdfd;stop-opacity:1" />
    </linearGradient>
    <radialGradient
       gradientUnits="userSpaceOnUse"
       gradientTransform="matrix(0.42180436,0,0,0.0267339,-105.98218,272.19192)"
       r="69.826797"
       fy="856.052"
       fx="285.49445"
       cy="856.052"
       cx="285.49445"
       id="radialGradient5357"
       xlink:href="#linearGradient5349"
       inkscape:collect="always" />
    <linearGradient
       gradientUnits="userSpaceOnUse"
       y2="832.53247"
       x2="279.91516"
       y1="830.88361"
       x1="268.96658"
       id="linearGradient4195"
       xlink:href="#linearGradient4189"
       inkscape:collect="always"
       gradientTransform="matrix(0.26458334,0,0,0.26458334,-59.861442,72.341009)" />
    <clipPath
       clipPathUnits="userSpaceOnUse"
       id="clipPath4626">
      <rect
         style="opacity:1;fill:#1500ae;fill-opacity:1;stroke:none;stroke-width:1;stroke-miterlimit:4;stroke-dasharray:none;stroke-opacity:1"
         id="rect4628"
         width="120.00001"
         height="101.82335"
         x="173.6577"
         y="-14.577243" />
    </clipPath>
    <clipPath
       clipPathUnits="userSpaceOnUse"
       id="clipPath4630">
      <rect
         style="opacity:1;fill:#1500ae;fill-opacity:1;stroke:none;stroke-width:1;stroke-miterlimit:4;stroke-dasharray:none;stroke-opacity:1"
         id="rect4632"
         width="31.750002"
         height="26.940762"
         x="1.110223e-15"
         y="274.57867" />
    </clipPath>
    <clipPath
       clipPathUnits="userSpaceOnUse"
       id="clipPath4634">
      <rect
         style="opacity:1;fill:#1500ae;fill-opacity:1;stroke:none;stroke-width:1;stroke-miterlimit:4;stroke-dasharray:none;stroke-opacity:1"
         id="rect4636"
         width="31.750002"
         height="26.940762"
         x="1.110223e-15"
         y="274.57867" />
    </clipPath>
    <clipPath
       clipPathUnits="userSpaceOnUse"
       id="clipPath4638">
      <rect
         style="opacity:1;fill:#1500ae;fill-opacity:1;stroke:none;stroke-width:1;stroke-miterlimit:4;stroke-dasharray:none;stroke-opacity:1"
         id="rect4640"
         width="133.15222"
         height="112.98337"
         x="216.69804"
         y="-81.334724" />
    </clipPath>
    <clipPath
       clipPathUnits="userSpaceOnUse"
       id="clipPath4642">
      <rect
         style="opacity:1;fill:#1500ae;fill-opacity:1;stroke:none;stroke-width:1;stroke-miterlimit:4;stroke-dasharray:none;stroke-opacity:1"
         id="rect4644"
         width="31.750002"
         height="26.940762"
         x="1.110223e-15"
         y="274.57867" />
    </clipPath>
    <clipPath
       clipPathUnits="userSpaceOnUse"
       id="clipPath4646">
      <rect
         style="opacity:1;fill:#1500ae;fill-opacity:1;stroke:none;stroke-width:1;stroke-miterlimit:4;stroke-dasharray:none;stroke-opacity:1"
         id="rect4648"
         width="31.750002"
         height="26.940762"
         x="1.110223e-15"
         y="274.57867" />
    </clipPath>
    <clipPath
       clipPathUnits="userSpaceOnUse"
       id="clipPath5173">
      <rect
         style="opacity:1;fill:#ffffff;fill-opacity:1;stroke:#808080;stroke-width:1.66364133;stroke-miterlimit:4;stroke-dasharray:none;stroke-opacity:1"
         id="rect5175"
         width="115.1981"
         height="45.223434"
         x="176.05865"
         y="41.761337" />
    </clipPath>
    <clipPath
       clipPathUnits="userSpaceOnUse"
       id="clipPath5177">
      <rect
         style="opacity:1;fill:#ffffff;fill-opacity:1;stroke:#808080;stroke-width:0.3880538;stroke-miterlimit:4;stroke-dasharray:none;stroke-opacity:1"
         id="rect5179"
         width="23.689032"
         height="11.965367"
         x="4.0304852"
         y="289.48492" />
    </clipPath>
    <clipPath
       clipPathUnits="userSpaceOnUse"
       id="clipPath5181">
      <rect
         style="opacity:1;fill:#ffffff;fill-opacity:1;stroke:#808080;stroke-width:0.3880538;stroke-miterlimit:4;stroke-dasharray:none;stroke-opacity:1"
         id="rect5183"
         width="23.689032"
         height="11.965367"
         x="4.0304852"
         y="289.48492" />
    </clipPath>
    <clipPath
       clipPathUnits="userSpaceOnUse"
       id="clipPath5185">
      <rect
         style="opacity:1;fill:#ffffff;fill-opacity:1;stroke:#808080;stroke-width:1.62740862;stroke-miterlimit:4;stroke-dasharray:none;stroke-opacity:1"
         id="rect5187"
         width="99.346359"
         height="50.180004"
         x="233.60097"
         y="-18.821331" />
    </clipPath>
    <clipPath
       clipPathUnits="userSpaceOnUse"
       id="clipPath5189">
      <rect
         style="opacity:1;fill:#ffffff;fill-opacity:1;stroke:#808080;stroke-width:0.3880538;stroke-miterlimit:4;stroke-dasharray:none;stroke-opacity:1"
         id="rect5191"
         width="23.689032"
         height="11.965367"
         x="4.0304852"
         y="289.48492" />
    </clipPath>
    <clipPath
       clipPathUnits="userSpaceOnUse"
       id="clipPath5193">
      <rect
         style="opacity:1;fill:#ffffff;fill-opacity:1;stroke:#808080;stroke-width:0.3880538;stroke-miterlimit:4;stroke-dasharray:none;stroke-opacity:1"
         id="rect5195"
         width="23.689032"
         height="11.965367"
         x="4.0304852"
         y="289.48492" />
    </clipPath>
  </defs>
  <sodipodi:namedview
     id="base"
     pagecolor="#ffffff"
     bordercolor="#666666"
     borderopacity="1.0"
     inkscape:pageopacity="0.0"
     inkscape:pageshadow="2"
     inkscape:zoom="2.1157895"
     inkscape:cx="57.377959"
     inkscape:cy="190"
     inkscape:document-units="mm"
     inkscape:current-layer="layer1"
     showgrid="false"
     units="px"
     inkscape:snap-bbox="true"
     inkscape:snap-page="true"
     inkscape:bbox-nodes="true"
     inkscape:snap-bbox-edge-midpoints="true"
     inkscape:window-width="953"
     inkscape:window-height="1006"
     inkscape:window-x="700"
     inkscape:window-y="44"
     inkscape:window-maximized="0"
     inkscape:showpageshadow="false"
     borderlayer="true"
     inkscape:snap-others="false"
     inkscape:snap-nodes="false"
     inkscape:snap-global="false" />
  <metadata
     id="metadata5">
    <rdf:RDF>
      <cc:Work
         rdf:about="">
        <dc:format>image/svg+xml</dc:format>
        <dc:type
           rdf:resource="http://purl.org/dc/dcmitype/StillImage" />
        <dc:title />
      </cc:Work>
    </rdf:RDF>
  </metadata>
  <g
     inkscape:label="Layer 1"
     inkscape:groupmode="layer"
     id="layer1"
     transform="translate(0,-196.45832)"
     style="display:inline">
    <path
       style="opacity:1;fill:#000000;fill-opacity:1;fill-rule:evenodd;stroke:none;stroke-width:0.48607069;stroke-linecap:butt;stroke-linejoin:round;stroke-miterlimit:4;stroke-dasharray:none;stroke-dashoffset:0;stroke-opacity:1;paint-order:normal"
       d="m 0,196.45831 23.812502,0 0,100.54168 -23.812502,0 z"
       id="rect817"
       inkscape:connector-curvature="0" />
    <path
       style="opacity:1;fill:#404040;fill-opacity:1;stroke:none;stroke-width:0.25431046;stroke-miterlimit:4;stroke-dasharray:none;stroke-opacity:1"
       d="m 17.060916,274.77527 5.137655,0 c 0.446366,0 0.805715,0.38969 0.805715,0.87374 l 0,12.82048 c 0,0.48405 -0.359349,0.87374 -0.805715,0.87374 l -5.137655,0 c -0.446366,0 -0.805715,-0.38969 -0.805715,-0.87374 l 0,-12.82048 c 0,-0.48405 0.359349,-0.87374 0.805715,-0.87374 z"
       id="rect6715" />
    <g
       transform="matrix(0.26458334,0,0,0.26458334,-58.459936,293.81811)"
       style="font-style:normal;font-variant:normal;font-weight:normal;font-stretch:normal;font-size:10px;line-height:125%;font-family:'Trajan Pro 3';-inkscape-font-specification:'Trajan Pro 3, ';letter-spacing:0px;word-spacing:0px;fill:#000000;fill-opacity:1;stroke:none;stroke-width:1px;stroke-linecap:butt;stroke-linejoin:miter;stroke-opacity:1"
       id="flowRoot4136" />
    <g
       transform="matrix(0.26458334,0,0,0.26458334,-58.459936,115.92228)"
       style="font-style:normal;font-weight:normal;font-size:10px;line-height:125%;font-family:sans-serif;letter-spacing:0px;word-spacing:0px;fill:#000000;fill-opacity:1;stroke:none;stroke-width:1px;stroke-linecap:butt;stroke-linejoin:miter;stroke-opacity:1"
       id="flowRoot5341" />
    <g
       id="layer2"
       inkscape:label="Layer 2"
       transform="matrix(0.26458334,0,0,0.26458334,-59.404877,294.76305)" />
    <g
       id="g5028"
       transform="translate(-3.9687498,0)">
      <path
         clip-path="url(#clipPath5193)"
         sodipodi:nodetypes="ccccacc"
         inkscape:connector-curvature="0"
         id="path5329"
         d="m 31.483446,294.93321 -17.042828,-0.12503 -14.4172474,0.12503 -0.87873195,-3.46985 c 4.80992545,-1.00484 10.75039865,-1.72449 16.17117335,-1.71947 5.715286,0.005 9.886121,0.46573 17.046366,1.84449 z"
         style="opacity:1;fill:url(#radialGradient5357);fill-opacity:1;stroke:#8b8b8b;stroke-width:0.39687502;stroke-linejoin:miter;stroke-miterlimit:4;stroke-dasharray:none;stroke-opacity:1" />
      <path
         clip-path="url(#clipPath5189)"
         style="opacity:1;fill:#000000;fill-opacity:1;stroke:none;stroke-width:1.00699997;stroke-linejoin:miter;stroke-miterlimit:4;stroke-dasharray:none;stroke-opacity:1"
         d="M -1.0865176e-6,291.9933 C 10.904412,290.78346 21.545669,291.00362 31.750002,292.11599 l -0.03339,3.29649 -31.7166130865176,0 z"
         id="rect5381"
         inkscape:connector-curvature="0"
         sodipodi:nodetypes="ccccc" />
      <g
         clip-path="url(#clipPath5185)"
         id="g5348"
         transform="matrix(0.23844891,0,0,0.23844891,-51.671412,293.97285)">
        <path
           inkscape:connector-curvature="0"
           id="path4179"
           d="m 291.23228,-10.52707 6.43066,-3.03395 5.95249,-0.742 4.22115,0.51115 5.88653,2.16005 4.68284,4.36955 z"
           style="fill:#000000;fill-opacity:1;fill-rule:evenodd;stroke:none;stroke-width:1px;stroke-linecap:butt;stroke-linejoin:miter;stroke-opacity:1" />
        <g
           transform="translate(109.83831,-148.57805)"
           id="layer2-0"
           inkscape:label="Back">
          <g
             style="stroke:#ffffff;stroke-opacity:1"
             transform="matrix(0.09824765,0,0,0.06980857,176.35705,132.53479)"
             id="layer2-5"
             inkscape:label="Back">
            <g
               style="stroke:#ffffff;stroke-opacity:1"
               id="g2838" />
            <g
               style="stroke:#ffffff;stroke-opacity:1"
               id="g2852">
              <path
                 inkscape:connector-curvature="0"
                 id="path3614"
                 sodipodi:nodetypes="ccccccccccccccccccccccccccccccccccccccccccccccccc"
                 style="color:#000000;fill:none;stroke:#ffffff;stroke-width:2.89188218;stroke-linejoin:bevel;stroke-miterlimit:4;stroke-dasharray:none;stroke-opacity:1"
                 d="m 2.1174,188.81 18.113,36.226 65.551,31.913 90.564,13.8 94.877,-11.213 60.376,-31.913 14.663,-30.188 -14.663,-37.951 0.32345,67.923 -33.099,-64.473 -25.876,96.602 -58.651,-80.214 -40.538,91.427 -40.538,-75.902 -46.576,61.239 -17.098,-92.852 -49.316,62.663 6.0376,-89.702 44.241,27.296 63.574,32.218 79.999,-16.819 86.467,-15.957 31.051,-3.6657 -33.27949,-62.050611 1.366,64.853611 -64.689,-74.392 -20.7,91.427 -69.001,-66.198 -75.902,50.026 15.35717,-82.554584 -59.34617,55.816584 24.151,-56.064 34.501,0 81.077,-37.088 -18.975,69.864 89.702,-24.151 62.101,7.7627 -66.314,-54.334 4.2124,46.571 -70.726,-45.713 66.414,-1.725 -53.476,-15.525 -12.938,16.388 -49.164,-6.9001 -66.414,44.851 -33.333,49.416 9.1828,6.6475 -23.288,52.614 z" />
              <path
                 inkscape:connector-curvature="0"
                 id="path3616"
                 sodipodi:nodetypes="cccccccccccc"
                 style="color:#000000;fill:none;stroke:#ffffff;stroke-width:2.89188218;stroke-linejoin:bevel;stroke-miterlimit:4;stroke-dasharray:none;stroke-opacity:1"
                 d="M 133.17,195.51 146.16,114.634 84.75317,79.116604 116.834,34.42 l 28.463,-4.3126 32.776,-5.1751 41.401,6.9001 12.938,10.35 47.438,20.7 18.975,34.501 30.188,30.188 2.8032,31.913" />
              <path
                 inkscape:connector-curvature="0"
                 id="path3618"
                 sodipodi:nodetypes="ccc"
                 style="color:#000000;fill:none;stroke:#ffffff;stroke-width:2;stroke-linejoin:bevel;stroke-opacity:1"
                 d="M 329.01,126.71 279.85,62.88 220.08,31.83" />
              <path
                 sodipodi:nodetypes="cc"
                 inkscape:connector-curvature="0"
                 id="path3620"
                 style="color:#000000;fill:none;stroke:#ffffff;stroke-width:2;stroke-linejoin:bevel;stroke-opacity:1"
                 d="M 1.9262189,188.1862 16.108581,129.83899" />
            </g>
          </g>
        </g>
        <path
           inkscape:connector-curvature="0"
           id="path4177"
           d="m 320.18675,-2.24965 -1.66538,-4.93018"
           style="fill:none;fill-rule:evenodd;stroke:#ffffff;stroke-width:0.2;stroke-linecap:butt;stroke-linejoin:miter;stroke-miterlimit:4;stroke-dasharray:none;stroke-opacity:1" />
        <path
           style="opacity:0;fill:#000000;fill-opacity:1;stroke:none;stroke-width:0.2;stroke-miterlimit:4;stroke-dasharray:none;stroke-opacity:1"
           d="m 320.99471,-0.40290931 a 12.102836,4.2211528 0 0 1 -12.10283,4.22115281 12.102836,4.2211528 0 0 1 -12.10284,-4.22115281 12.102836,4.2211528 0 0 1 12.10284,-4.22115279 12.102836,4.2211528 0 0 1 12.10283,4.22115279 z"
           id="path4183" />
      </g>
      <path
         style="opacity:0;fill:url(#linearGradient4195);fill-opacity:1;stroke:none;stroke-width:0.2;stroke-miterlimit:4;stroke-dasharray:none;stroke-opacity:1"
         clip-path="url(#clipPath5181)"
         d="m 14.199453,292.6152 a 2.800842,1.0121423 0 0 1 -2.800842,1.01215 2.800842,1.0121423 0 0 1 -2.800842,-1.01215 2.800842,1.0121423 0 0 1 2.800842,-1.01214 2.800842,1.0121423 0 0 1 2.800842,1.01214 z"
         id="path4187" />
      <path
         clip-path="url(#clipPath5177)"
         style="fill:#000000;fill-opacity:1;fill-rule:evenodd;stroke:none;stroke-width:1px;stroke-linecap:butt;stroke-linejoin:miter;stroke-opacity:1"
         d="m 2.826339,292.08697 3.148468,-1.34092 1.3291208,0.4179 1.1077655,-0.7832 2.2155227,0.29151 0.932852,-0.34981 3.023931,0.97939 -1.041619,0.47818 -9.5034344,0.29152 z"
         id="path4209"
         inkscape:connector-curvature="0"
         sodipodi:nodetypes="cccccccccc" />
      <g
         clip-path="url(#clipPath5173)"
         transform="matrix(0.20563734,0,0,0.26458334,-32.173747,278.43557)"
         style="font-style:normal;font-weight:normal;font-size:10px;line-height:125%;font-family:sans-serif;letter-spacing:0px;word-spacing:0px;fill:#000000;fill-opacity:1;stroke:none;stroke-width:1px;stroke-linecap:butt;stroke-linejoin:miter;stroke-opacity:1"
         id="flowRoot4144">
        <path
           d="m 186.15283,66.994991 0.68115,0 0,0.01465 q 0,0.263672 0.20142,0.439453 0.20142,0.172119 0.68115,0.172119 0.42115,0 0.68116,-0.205078 0.26367,-0.205078 0.26367,-0.483398 0,-0.377198 -0.5127,-0.534668 l -0.3479,-0.106202 -0.23071,-0.07324 -0.47241,-0.146484 q -0.80933,-0.296631 -0.80933,-0.985108 0,-0.483398 0.39185,-0.849609 0.39184,-0.366211 1.16455,-0.366211 0.76172,0 1.08398,0.314942 0.32227,0.311279 0.32227,0.692138 l 0,0.01465 -0.68482,0 0,-0.01465 q 0,-0.205078 -0.20874,-0.322265 -0.20508,-0.117188 -0.54931,-0.117188 -0.41016,0 -0.62989,0.172119 -0.21606,0.168457 -0.21606,0.417481 0,0.190429 0.13916,0.311279 0.14282,0.117187 0.47607,0.212402 l 0.32959,0.09155 0.23804,0.06958 q 0.49805,0.142822 0.6189,0.201416 0.12451,0.05859 0.24902,0.150147 0.17212,0.131836 0.25268,0.318603 0.0842,0.186768 0.0842,0.435791 0,0.578613 -0.41748,0.974121 -0.41382,0.395508 -1.21216,0.395508 -0.50537,0 -0.83862,-0.150146 -0.33325,-0.150147 -0.531,-0.413819 -0.19776,-0.267334 -0.19776,-0.615234 l 0,-0.01465 z"
           style="font-style:normal;font-variant:normal;font-weight:normal;font-stretch:normal;font-size:7.5px;font-family:Geneva;-inkscape-font-specification:Geneva;fill:#ffffff;fill-opacity:1"
           id="path5362"
           inkscape:connector-curvature="0" />
        <path
           d="m 199.4646,68.188839 q -0.802,0 -1.36963,-0.541992 -0.56396,-0.545654 -0.56396,-1.618652 0,-1.069336 0.56396,-1.611329 0.56763,-0.545654 1.36963,-0.545654 0.79834,0 1.3623,0.545654 0.56763,0.541993 0.56763,1.611329 0,1.072998 -0.56763,1.618652 -0.56396,0.541992 -1.3623,0.541992 z m 0,-0.567627 q 0.54932,0 0.88257,-0.435791 0.33691,-0.439453 0.33691,-1.157226 0,-0.714112 -0.33691,-1.149903 -0.33325,-0.439453 -0.88257,-0.439453 -0.55298,0 -0.88989,0.439453 -0.33325,0.435791 -0.33325,1.149903 0,0.717773 0.33325,1.157226 0.33691,0.435791 0.88989,0.435791 z"
           style="font-style:normal;font-variant:normal;font-weight:normal;font-stretch:normal;font-size:7.5px;font-family:Geneva;-inkscape-font-specification:Geneva;fill:#ffffff;fill-opacity:1"
           id="path5364"
           inkscape:connector-curvature="0" />
        <path
           d="m 212.39917,63.984738 0.68115,0 0,4.090576 -0.68115,0 0,-0.714112 q -0.2124,0.32959 -0.41748,0.494385 -0.20508,0.164795 -0.42114,0.249024 -0.21607,0.08423 -0.47242,0.08423 -0.56762,0 -0.96313,-0.318603 -0.39551,-0.322266 -0.39551,-1.292725 l 0,-2.592773 0.68115,0 0,2.307128 q 0,0.897217 0.23804,1.083985 0.23804,0.186767 0.5896,0.186767 0.30396,0 0.57129,-0.175781 0.271,-0.179443 0.42847,-0.498047 0.16113,-0.322265 0.16113,-0.893554 l 0,-2.010498 z"
           style="font-style:normal;font-variant:normal;font-weight:normal;font-stretch:normal;font-size:7.5px;font-family:Geneva;-inkscape-font-specification:Geneva;fill:#ffffff;fill-opacity:1"
           id="path5366"
           inkscape:connector-curvature="0" />
        <path
           d="m 224.18018,67.4967 0,0.571289 q -0.49805,0.12085 -0.76172,0.12085 -0.38086,0 -0.68848,-0.153809 -0.30395,-0.153808 -0.46509,-0.446777 -0.15747,-0.292969 -0.15747,-0.933838 l 0,-2.102051 -0.71045,0 0,-0.567626 0.71045,0 0,-0.966797 0.68115,0 0,0.966797 1.19385,0 0,0.567626 -1.19385,0 0,1.907959 q 0,0.541993 0.0842,0.754395 0.0842,0.20874 0.26367,0.307617 0.18311,0.09888 0.4358,0.09888 0.20141,0 0.60791,-0.124512 z"
           style="font-style:normal;font-variant:normal;font-weight:normal;font-stretch:normal;font-size:7.5px;font-family:Geneva;-inkscape-font-specification:Geneva;fill:#ffffff;fill-opacity:1"
           id="path5368"
           inkscape:connector-curvature="0" />
        <path
           d="m 233.19995,68.075314 -0.68115,0 0,-5.910645 0.68115,0 0,2.526856 q 0.21607,-0.333252 0.41748,-0.494385 0.20508,-0.161133 0.42481,-0.241699 0.22338,-0.08423 0.49438,-0.08423 0.38452,0 0.68848,0.157471 0.30761,0.157471 0.47607,0.465088 0.16846,0.303955 0.16846,0.977783 l 0,2.60376 -0.68115,0 0,-2.310791 q 0,-0.549317 -0.0733,-0.776368 -0.0732,-0.230712 -0.27832,-0.358886 -0.20507,-0.131836 -0.46875,-0.131836 -0.30029,0 -0.57129,0.175781 -0.27099,0.175781 -0.43579,0.490723 -0.16113,0.314941 -0.16113,0.900879 l 0,2.010498 z"
           style="font-style:normal;font-variant:normal;font-weight:normal;font-stretch:normal;font-size:7.5px;font-family:Geneva;-inkscape-font-specification:Geneva;fill:#ffffff;fill-opacity:1"
           id="path5370"
           inkscape:connector-curvature="0" />
        <path
           d="m 245.03955,69.664669 -0.68115,0 0,-5.679931 0.68115,0 0,0.710449 q 0.2124,-0.362549 0.40283,-0.512696 0.19409,-0.150146 0.43579,-0.230712 0.2417,-0.08057 0.49805,-0.08057 0.46875,0 0.85693,0.256348 0.38819,0.252685 0.60059,0.758056 0.21606,0.505372 0.21606,1.135254 0,0.933838 -0.45043,1.552735 -0.44678,0.615234 -1.25611,0.615234 -0.26001,0 -0.49438,-0.0769 -0.23072,-0.07324 -0.41016,-0.219727 -0.17944,-0.150146 -0.39917,-0.531006 l 0,2.303467 z m 0,-3.632812 q 0,0.6958 0.30029,1.142578 0.3003,0.446777 0.84595,0.446777 0.49805,0 0.82764,-0.395508 0.32959,-0.395508 0.32959,-1.182861 0,-0.919189 -0.3479,-1.274414 -0.3479,-0.358887 -0.79468,-0.358887 -0.32227,0 -0.60425,0.197754 -0.27832,0.194092 -0.41748,0.582275 -0.13916,0.384522 -0.13916,0.842286 z"
           style="font-style:normal;font-variant:normal;font-weight:normal;font-stretch:normal;font-size:7.5px;font-family:Geneva;-inkscape-font-specification:Geneva;fill:#ffffff;fill-opacity:1"
           id="path5372"
           inkscape:connector-curvature="0" />
        <path
           d="m 258.17554,68.188839 q -0.802,0 -1.36963,-0.541992 -0.56397,-0.545654 -0.56397,-1.618652 0,-1.069336 0.56397,-1.611329 0.56763,-0.545654 1.36963,-0.545654 0.79834,0 1.3623,0.545654 0.56763,0.541993 0.56763,1.611329 0,1.072998 -0.56763,1.618652 -0.56396,0.541992 -1.3623,0.541992 z m 0,-0.567627 q 0.54931,0 0.88257,-0.435791 0.33691,-0.439453 0.33691,-1.157226 0,-0.714112 -0.33691,-1.149903 -0.33326,-0.439453 -0.88257,-0.439453 -0.55298,0 -0.8899,0.439453 -0.33325,0.435791 -0.33325,1.149903 0,0.717773 0.33325,1.157226 0.33692,0.435791 0.8899,0.435791 z"
           style="font-style:normal;font-variant:normal;font-weight:normal;font-stretch:normal;font-size:7.5px;font-family:Geneva;-inkscape-font-specification:Geneva;fill:#ffffff;fill-opacity:1"
           id="path5374"
           inkscape:connector-curvature="0" />
        <path
           d="m 269.17651,68.075314 -0.68115,0 0,-5.910645 0.68115,0 0,5.910645 z"
           style="font-style:normal;font-variant:normal;font-weight:normal;font-stretch:normal;font-size:7.5px;font-family:Geneva;-inkscape-font-specification:Geneva;fill:#ffffff;fill-opacity:1"
           id="path5376"
           inkscape:connector-curvature="0" />
        <path
           d="m 280.45581,67.024288 0.68115,0 0,0.03662 q 0,0.270996 -0.21606,0.552979 -0.21607,0.281982 -0.57129,0.428467 -0.35523,0.146484 -0.81665,0.146484 -0.93384,0 -1.44287,-0.604248 -0.50537,-0.604248 -0.50537,-1.5271 0,-0.944824 0.53466,-1.56372 0.53833,-0.622559 1.38428,-0.622559 0.46509,0 0.84229,0.201416 0.37719,0.201416 0.59692,0.629883 0.21973,0.424805 0.21973,1.186523 l 0,0.227051 -2.90406,0 q 0,0.655518 0.35157,1.080322 0.35522,0.424805 0.98144,0.424805 0.45044,0 0.65552,-0.172119 0.20874,-0.175781 0.20874,-0.388184 l 0,-0.03662 z m -2.15332,-1.420898 2.20825,0 0,-0.08057 q 0,-0.285644 -0.13916,-0.552978 -0.1355,-0.270996 -0.3772,-0.39917 -0.24169,-0.131836 -0.56396,-0.131836 -0.38086,0 -0.70313,0.307617 -0.32226,0.303955 -0.4248,0.856934 z"
           style="font-style:normal;font-variant:normal;font-weight:normal;font-stretch:normal;font-size:7.5px;font-family:Geneva;-inkscape-font-specification:Geneva;fill:#ffffff;fill-opacity:1"
           id="path5378"
           inkscape:connector-curvature="0" />
      </g>
    </g>
    <path
       style="opacity:0;fill:#ffffff;fill-opacity:1;stroke:#ffffff;stroke-width:0.82020831;stroke-miterlimit:4;stroke-dasharray:none;stroke-opacity:1"
       d="m 30.061707,285.73086 a 15.56002,2.6503332 0 0 1 -15.560021,2.65034 15.56002,2.6503332 0 0 1 -15.5600194,-2.65034 15.56002,2.6503332 0 0 1 15.5600194,-2.65033 15.56002,2.6503332 0 0 1 15.560021,2.65033 z"
       id="path5422"
       inkscape:connector-curvature="0" />
    <g
       style="font-size:1.984375px;display:inline;opacity:1;fill:#ffffff;fill-opacity:1;stroke:none;stroke-width:1;stroke-miterlimit:4;stroke-dasharray:none;stroke-opacity:1"
       id="text5009"
       transform="translate(-3.8484803,-0.38597305)">
      <path
         d="m 14.583293,234.68913 0,0.19088 q -0.111427,-0.0533 -0.210259,-0.0795 -0.09883,-0.0262 -0.190879,-0.0262 -0.159874,0 -0.247078,0.062 -0.08624,0.062 -0.08624,0.17635 0,0.0959 0.05717,0.14534 0.05814,0.0484 0.218979,0.0785 l 0.118209,0.0242 q 0.218979,0.0417 0.322655,0.14728 0.104645,0.10465 0.104645,0.28099 0,0.21026 -0.141464,0.31878 -0.140496,0.10852 -0.412766,0.10852 -0.102707,0 -0.218979,-0.0232 -0.115303,-0.0233 -0.239326,-0.0688 l 0,-0.20154 q 0.119179,0.0669 0.233513,0.10077 0.114334,0.0339 0.224792,0.0339 0.167626,0 0.258705,-0.0659 0.09108,-0.0659 0.09108,-0.18797 0,-0.10659 -0.06589,-0.16666 -0.06492,-0.0601 -0.214135,-0.0901 l -0.119178,-0.0233 q -0.218979,-0.0436 -0.316842,-0.13662 -0.09786,-0.093 -0.09786,-0.2587 0,-0.19185 0.134682,-0.30231 0.135651,-0.11046 0.373039,-0.11046 0.101738,0 0.207352,0.0184 0.105614,0.0184 0.216072,0.0552 z"
         id="path5142"
         inkscape:connector-curvature="0" />
      <path
         d="m 14.979587,234.64165 0.195724,0 0,1.44662 -0.195724,0 0,-1.44662 z"
         id="path5144"
         inkscape:connector-curvature="0" />
      <path
         d="m 15.481494,234.64165 1.136558,0 0,0.14922 -0.914672,1.13268 0.936958,0 0,0.16472 -1.18113,0 0,-0.14921 0.914673,-1.13269 -0.892387,0 0,-0.16472 z"
         id="path5146"
         inkscape:connector-curvature="0" />
      <path
         d="m 16.925204,234.64165 0.914673,0 0,0.16472 -0.718948,0 0,0.42827 0.688911,0 0,0.16472 -0.688911,0 0,0.52419 0.736389,0 0,0.16472 -0.932114,0 0,-1.44662 z"
         id="path5148"
         inkscape:connector-curvature="0" />
    </g>
    <g
       style="font-size:1.984375px;display:inline;opacity:1;fill:#ffffff;fill-opacity:1;stroke:none;stroke-width:1;stroke-miterlimit:4;stroke-dasharray:none;stroke-opacity:1"
       id="text5013"
       transform="translate(4.4574839,-22.560371)">
      <path
         d="m 13.263606,242.41154 0,0.54357 0.246109,0 q 0.13662,0 0.211227,-0.0707 0.07461,-0.0707 0.07461,-0.20154 0,-0.12984 -0.07461,-0.20057 -0.07461,-0.0707 -0.211227,-0.0707 l -0.246109,0 z m -0.195724,-0.16085 0.441833,0 q 0.243202,0 0.367226,0.11046 0.124992,0.10949 0.124992,0.32169 0,0.21413 -0.124992,0.32362 -0.124024,0.10949 -0.367226,0.10949 l -0.246109,0 0,0.58136 -0.195724,0 0,-1.44662 z"
         id="path5151"
         inkscape:connector-curvature="0" />
      <path
         d="m 14.265483,242.25069 0.195724,0 0,1.44662 -0.195724,0 0,-1.44662 z"
         id="path5153"
         inkscape:connector-curvature="0" />
      <path
         d="m 14.650149,242.25069 1.223763,0 0,0.16472 -0.513535,0 0,1.2819 -0.196693,0 0,-1.2819 -0.513535,0 0,-0.16472 z"
         id="path5155"
         inkscape:connector-curvature="0" />
      <path
         d="m 17.034694,242.36212 0,0.20638 q -0.09883,-0.092 -0.211228,-0.13758 -0.111427,-0.0455 -0.237388,-0.0455 -0.248047,0 -0.379822,0.15212 -0.131775,0.15115 -0.131775,0.43796 0,0.28583 0.131775,0.43795 0.131775,0.15116 0.379822,0.15116 0.125961,0 0.237388,-0.0455 0.112397,-0.0455 0.211228,-0.13759 l 0,0.20444 q -0.102707,0.0698 -0.21801,0.10465 -0.114334,0.0349 -0.242234,0.0349 -0.328468,0 -0.51741,-0.20057 -0.188942,-0.20154 -0.188942,-0.54938 0,-0.34882 0.188942,-0.54939 0.188942,-0.20154 0.51741,-0.20154 0.129838,0 0.244172,0.0349 0.115303,0.0339 0.216072,0.10271 z"
         id="path5157"
         inkscape:connector-curvature="0" />
      <path
         d="m 17.338939,242.25069 0.195724,0 0,0.59299 0.711197,0 0,-0.59299 0.195725,0 0,1.44662 -0.195725,0 0,-0.68891 -0.711197,0 0,0.68891 -0.195724,0 0,-1.44662 z"
         id="path5159"
         inkscape:connector-curvature="0" />
    </g>
    <g
       style="font-size:1.984375px;display:inline;opacity:1;fill:#ffffff;fill-opacity:1;stroke:none;stroke-width:1;stroke-miterlimit:4;stroke-dasharray:none;stroke-opacity:1"
       id="text5021"
       transform="translate(-3.9937601,4.5887447)">
      <path
         d="m 13.436788,282.87852 0,-0.38855 -0.319748,0 0,-0.16084 0.513534,0 0,0.62109 q -0.113365,0.0804 -0.249985,0.12208 -0.136619,0.0407 -0.291648,0.0407 -0.339127,0 -0.530976,-0.19766 -0.19088,-0.19863 -0.19088,-0.5523 0,-0.35462 0.19088,-0.55229 0.191849,-0.19863 0.530976,-0.19863 0.141464,0 0.268394,0.0349 0.127899,0.0349 0.235451,0.10271 l 0,0.20832 q -0.108521,-0.0921 -0.230606,-0.13856 -0.122086,-0.0465 -0.256768,-0.0465 -0.265487,0 -0.3992,0.14825 -0.132744,0.14825 -0.132744,0.44183 0,0.29262 0.132744,0.44087 0.133713,0.14825 0.3992,0.14825 0.103676,0 0.185067,-0.0174 0.08139,-0.0184 0.146309,-0.0562 z"
         id="path5219"
         inkscape:connector-curvature="0" />
      <path
         d="m 14.472577,281.8311 -0.265488,0.71992 0.531945,0 -0.266457,-0.71992 z m -0.110458,-0.19282 0.221885,0 0.551323,1.44662 -0.203476,0 -0.131775,-0.3711 -0.652091,0 -0.131775,0.3711 -0.206383,0 0.552292,-1.44662 z"
         id="path5221"
         inkscape:connector-curvature="0" />
      <path
         d="m 15.345586,281.63828 0.195724,0 0,1.44662 -0.195724,0 0,-1.44662 z"
         id="path5223"
         inkscape:connector-curvature="0" />
      <path
         d="m 15.930821,281.63828 0.26355,0 0.641434,1.2102 0,-1.2102 0.189911,0 0,1.44662 -0.26355,0 -0.641434,-1.2102 0,1.2102 -0.189911,0 0,-1.44662 z"
         id="path5225"
         inkscape:connector-curvature="0" />
    </g>
    <g
       style="font-size:1.984375px;display:inline;opacity:1;fill:#ffffff;fill-opacity:1;stroke:none;stroke-width:1;stroke-miterlimit:4;stroke-dasharray:none;stroke-opacity:1"
       id="text5037"
       transform="translate(-8.4823528,-6.5646729)">
      <path
         d="m 12.097011,217.35369 0.831344,0 0,0.16472 -0.63562,0 0,0.42633 0.573608,0 0,0.16472 -0.573608,0 0,0.69085 -0.195724,0 0,-1.44662 z"
         id="path5112"
         inkscape:connector-curvature="0" />
      <path
         d="m 13.922481,218.12206 q 0.06298,0.0213 0.122085,0.0911 0.06007,0.0698 0.120148,0.19185 l 0.198631,0.39533 -0.210258,0 -0.185067,-0.3711 q -0.0717,-0.14534 -0.139526,-0.19282 -0.06686,-0.0475 -0.183128,-0.0475 l -0.213166,0 0,0.6114 -0.195724,0 0,-1.44662 0.441833,0 q 0.248047,0 0.370133,0.10368 0.122085,0.10367 0.122085,0.31296 0,0.13662 -0.06395,0.22673 -0.06298,0.0901 -0.184097,0.125 z m -0.490281,-0.60753 0,0.51354 0.246109,0 q 0.141465,0 0.213166,-0.0649 0.07267,-0.0659 0.07267,-0.19282 0,-0.12693 -0.07267,-0.19088 -0.0717,-0.0649 -0.213166,-0.0649 l -0.246109,0 z"
         id="path5114"
         inkscape:connector-curvature="0" />
      <path
         d="m 14.616237,217.35369 0.914673,0 0,0.16472 -0.718949,0 0,0.42827 0.688912,0 0,0.16472 -0.688912,0 0,0.52419 0.736389,0 0,0.16472 -0.932113,0 0,-1.44662 z"
         id="path5116"
         inkscape:connector-curvature="0" />
      <path
         d="m 15.868098,217.35369 0.914673,0 0,0.16472 -0.718948,0 0,0.42827 0.688911,0 0,0.16472 -0.688911,0 0,0.52419 0.736389,0 0,0.16472 -0.932114,0 0,-1.44662 z"
         id="path5118"
         inkscape:connector-curvature="0" />
      <path
         d="m 17.036632,217.35369 1.136558,0 0,0.14922 -0.914673,1.13268 0.936959,0 0,0.16472 -1.18113,0 0,-0.14922 0.914673,-1.13268 -0.892387,0 0,-0.16472 z"
         id="path5120"
         inkscape:connector-curvature="0" />
      <path
         d="m 18.480342,217.35369 0.914673,0 0,0.16472 -0.718949,0 0,0.42827 0.688912,0 0,0.16472 -0.688912,0 0,0.52419 0.73639,0 0,0.16472 -0.932114,0 0,-1.44662 z"
         id="path5122"
         inkscape:connector-curvature="0" />
    </g>
    <path
       inkscape:connector-curvature="0"
       id="path5212"
       style="font-size:medium;fill:#ffffff;fill-opacity:1;stroke:none;stroke-width:1;stroke-miterlimit:4;stroke-dasharray:none;stroke-opacity:1"
       d="m 2.8378212,281.93037 0.1957245,0 0,1.44661 -0.1957245,0 0,-1.44661 z" />
    <path
       inkscape:connector-curvature="0"
       id="path5214"
       style="font-size:medium;fill:#ffffff;fill-opacity:1;stroke:none;stroke-width:1;stroke-miterlimit:4;stroke-dasharray:none;stroke-opacity:1"
       d="m 3.4230568,281.93037 0.2635498,0 0.6414337,1.21019 0,-1.21019 0.189911,0 0,1.44661 -0.26355,0 -0.6414336,-1.21019 0,1.21019 -0.1899109,0 0,-1.44661 z" />
    <path
       inkscape:connector-curvature="0"
       id="path5216"
       style="font-size:medium;fill:#ffffff;fill-opacity:1;stroke:none;stroke-width:1;stroke-miterlimit:4;stroke-dasharray:none;stroke-opacity:1"
       d="m 15.160351,276.67819 0.195725,0 0,1.28189 0.704414,0 0,0.16472 -0.900139,0 0,-1.44661 z" />
    <path
       style="font-size:medium;fill:#ffffff;fill-opacity:1;stroke:none;stroke-width:1;stroke-miterlimit:4;stroke-dasharray:none;stroke-opacity:1"
       inkscape:connector-curvature="0"
       id="path5241"
       d="m 15.73299,287.71468 q 0.06298,0.0213 0.122086,0.0911 0.06007,0.0698 0.120147,0.19185 l 0.198632,0.39532 -0.210259,0 -0.185066,-0.3711 q -0.0717,-0.14534 -0.139526,-0.19282 -0.06686,-0.0475 -0.183129,-0.0475 l -0.213165,0 0,0.6114 -0.195725,0 0,-1.44662 0.441834,0 q 0.248047,0 0.370132,0.10368 0.122086,0.10368 0.122086,0.31296 0,0.13662 -0.06395,0.22674 -0.06298,0.0901 -0.184097,0.12499 z m -0.49028,-0.60752 0,0.51353 0.246109,0 q 0.141464,0 0.213165,-0.0649 0.07267,-0.0659 0.07267,-0.19282 0,-0.12693 -0.07267,-0.19087 -0.0717,-0.0649 -0.213165,-0.0649 l -0.246109,0 z" />
    <g
       style="font-size:1.984375px;opacity:1;fill:#ffffff;fill-opacity:1;stroke:none;stroke-width:1;stroke-miterlimit:4;stroke-dasharray:none;stroke-opacity:1"
       id="text5107"
       transform="translate(1.7741511,-2.4972937)">
      <path
         d="m 16.106163,284.43323 q -0.213165,0 -0.339127,0.1589 -0.124992,0.15891 -0.124992,0.43312 0,0.27323 0.124992,0.43214 0.125962,0.1589 0.339127,0.1589 0.213165,0 0.337189,-0.1589 0.124992,-0.15891 0.124992,-0.43214 0,-0.27421 -0.124992,-0.43312 -0.124024,-0.1589 -0.337189,-0.1589 z m 0,-0.15891 q 0.304245,0 0.486404,0.20445 0.18216,0.20347 0.18216,0.54648 0,0.34203 -0.18216,0.54647 -0.182159,0.20348 -0.486404,0.20348 -0.305214,0 -0.488342,-0.20348 -0.18216,-0.20347 -0.18216,-0.54647 0,-0.34301 0.18216,-0.54648 0.183128,-0.20445 0.488342,-0.20445 z"
         id="path5228"
         inkscape:connector-curvature="0" />
      <path
         d="m 17.058624,284.30048 0.196694,0 0,0.87883 q 0,0.23254 0.0843,0.33525 0.0843,0.10173 0.273239,0.10173 0.187973,0 0.27227,-0.10173 0.0843,-0.10271 0.0843,-0.33525 l 0,-0.87883 0.196694,0 0,0.90305 q 0,0.28293 -0.140495,0.4273 -0.139527,0.14437 -0.412766,0.14437 -0.274208,0 -0.414703,-0.14437 -0.139527,-0.14437 -0.139527,-0.4273 l 0,-0.90305 z"
         id="path5230"
         inkscape:connector-curvature="0" />
      <path
         d="m 18.33374,284.30048 1.223763,0 0,0.16472 -0.513535,0 0,1.2819 -0.196693,0 0,-1.2819 -0.513535,0 0,-0.16472 z"
         id="path5232"
         inkscape:connector-curvature="0" />
    </g>
    <g
       style="font-size:1.984375px;opacity:1;fill:#ffffff;fill-opacity:1;stroke:none;stroke-width:1;stroke-miterlimit:4;stroke-dasharray:none;stroke-opacity:1"
       id="text5428"
       transform="translate(-5.9457911,-5.6566929)">
      <path
         d="m 20.715511,217.18611 q 0.06298,0.0213 0.122086,0.0911 0.06007,0.0698 0.120148,0.19185 l 0.198631,0.39532 -0.210259,0 -0.185066,-0.3711 q -0.0717,-0.14534 -0.139526,-0.19281 -0.06686,-0.0475 -0.183129,-0.0475 l -0.213165,0 0,0.61139 -0.195724,0 0,-1.44661 0.441833,0 q 0.248047,0 0.370133,0.10367 0.122085,0.10368 0.122085,0.31297 0,0.13662 -0.06395,0.22673 -0.06298,0.0901 -0.184098,0.12499 z m -0.49028,-0.60752 0,0.51353 0.246109,0 q 0.141464,0 0.213165,-0.0649 0.07267,-0.0659 0.07267,-0.19282 0,-0.12693 -0.07267,-0.19088 -0.0717,-0.0649 -0.213165,-0.0649 l -0.246109,0 z"
         id="path5433"
         inkscape:connector-curvature="0" />
      <path
         d="m 21.409267,216.41775 0.914673,0 0,0.16472 -0.718948,0 0,0.42826 0.688911,0 0,0.16472 -0.688911,0 0,0.5242 0.736389,0 0,0.16471 -0.932114,0 0,-1.44661 z"
         id="path5435"
         inkscape:connector-curvature="0" />
      <path
         d="m 23.034168,217.86436 -0.552292,-1.44661 0.204445,0 0.458306,1.21795 0.459274,-1.21795 0.203476,0 -0.551323,1.44661 -0.221886,0 z"
         id="path5437"
         inkscape:connector-curvature="0" />
      <path
         d="m 24.017635,216.41775 0.914673,0 0,0.16472 -0.718948,0 0,0.42826 0.688911,0 0,0.16472 -0.688911,0 0,0.5242 0.736389,0 0,0.16471 -0.932114,0 0,-1.44661 z"
         id="path5439"
         inkscape:connector-curvature="0" />
      <path
         d="m 25.955502,217.18611 q 0.06298,0.0213 0.122085,0.0911 0.06007,0.0698 0.120148,0.19185 l 0.198631,0.39532 -0.210258,0 -0.185067,-0.3711 q -0.0717,-0.14534 -0.139526,-0.19281 -0.06686,-0.0475 -0.183128,-0.0475 l -0.213166,0 0,0.61139 -0.195724,0 0,-1.44661 0.441833,0 q 0.248047,0 0.370133,0.10367 0.122085,0.10368 0.122085,0.31297 0,0.13662 -0.06395,0.22673 -0.06298,0.0901 -0.184097,0.12499 z m -0.490281,-0.60752 0,0.51353 0.246109,0 q 0.141465,0 0.213166,-0.0649 0.07267,-0.0659 0.07267,-0.19282 0,-0.12693 -0.07267,-0.19088 -0.0717,-0.0649 -0.213166,-0.0649 l -0.246109,0 z"
         id="path5441"
         inkscape:connector-curvature="0" />
      <path
         d="m 27.516453,216.46523 0,0.19088 q -0.111428,-0.0533 -0.210259,-0.0795 -0.09883,-0.0262 -0.19088,-0.0262 -0.159873,0 -0.247077,0.062 -0.08624,0.062 -0.08624,0.17635 0,0.0959 0.05717,0.14534 0.05814,0.0485 0.218978,0.0785 l 0.11821,0.0242 q 0.218979,0.0417 0.322655,0.14727 0.104645,0.10465 0.104645,0.28099 0,0.21026 -0.141464,0.31878 -0.140496,0.10852 -0.412766,0.10852 -0.102707,0 -0.218979,-0.0232 -0.115303,-0.0233 -0.239326,-0.0688 l 0,-0.20154 q 0.119178,0.0668 0.233513,0.10077 0.114334,0.0339 0.224792,0.0339 0.167625,0 0.258705,-0.0659 0.09108,-0.0659 0.09108,-0.18797 0,-0.10658 -0.06589,-0.16666 -0.06492,-0.0601 -0.214134,-0.0901 l -0.119179,-0.0232 q -0.218978,-0.0436 -0.316841,-0.13662 -0.09786,-0.093 -0.09786,-0.25871 0,-0.19185 0.134682,-0.30231 0.13565,-0.11045 0.373039,-0.11045 0.101738,0 0.207352,0.0184 0.105613,0.0184 0.216072,0.0552 z"
         id="path5443"
         inkscape:connector-curvature="0" />
      <path
         d="m 27.912746,216.41775 0.914673,0 0,0.16472 -0.718948,0 0,0.42826 0.688911,0 0,0.16472 -0.688911,0 0,0.5242 0.736389,0 0,0.16471 -0.932114,0 0,-1.44661 z"
         id="path5445"
         inkscape:connector-curvature="0" />
    </g>
    <g
       style="font-size:7.5px;opacity:1;fill:#ffffff;fill-opacity:1;stroke:#9f9f9f;stroke-width:1.77165353;stroke-miterlimit:4;stroke-dasharray:none;stroke-opacity:1"
       id="flowRoot6030" />
    <g
       style="font-size:1.98437524px;text-align:center;text-anchor:middle;fill:#ffffff;fill-opacity:1;stroke:none;stroke-width:1.41732287;stroke-miterlimit:4;stroke-dasharray:none;stroke-opacity:1"
       id="text5075">
      <path
         d="m 0.94756352,219.65374 0,0.54357 0.24610908,0 q 0.1366195,0 0.2112274,-0.0707 0.074608,-0.0707 0.074608,-0.20154 0,-0.12984 -0.074608,-0.20057 -0.074608,-0.0707 -0.2112274,-0.0707 l -0.24610908,0 z m -0.19572451,-0.16084 0.44183359,0 q 0.2432022,0 0.3672256,0.11046 0.1249924,0.10948 0.1249924,0.32168 0,0.21414 -0.1249924,0.32362 -0.1240234,0.10949 -0.3672256,0.10949 l -0.24610908,0 0,0.58136 -0.19572451,0 0,-1.44661 z"
         style=""
         id="path6279" />
      <path
         d="m 2.6354452,220.26126 q 0.062981,0.0213 0.1220856,0.0911 0.060074,0.0698 0.1201477,0.19185 l 0.1986313,0.39532 -0.2102585,0 -0.1850663,-0.3711 q -0.071701,-0.14534 -0.1395264,-0.19281 -0.066856,-0.0475 -0.1831283,-0.0475 l -0.2131653,0 0,0.61139 -0.1957246,0 0,-1.44661 0.4418336,0 q 0.2480469,0 0.3701325,0.10367 0.1220856,0.10368 0.1220856,0.31297 0,0.13662 -0.06395,0.22673 -0.062981,0.0901 -0.1840973,0.12499 z m -0.4902802,-0.60752 0,0.51353 0.246109,0 q 0.1414642,0 0.2131653,-0.0649 0.07267,-0.0659 0.07267,-0.19282 0,-0.12693 -0.07267,-0.19088 -0.071701,-0.0649 -0.2131653,-0.0649 l -0.246109,0 z"
         style=""
         id="path6281" />
      <path
         d="m 3.3292013,219.4929 0.914673,0 0,0.16472 -0.7189485,0 0,0.42826 0.6889115,0 0,0.16472 -0.6889115,0 0,0.5242 0.7363893,0 0,0.16471 -0.9321138,0 0,-1.44661 z"
         style=""
         id="path6283" />
      <path
         d="m 4.4832009,220.31649 0.522255,0 0,0.15891 -0.522255,0 0,-0.15891 z"
         style=""
         id="path6285" />
      <path
         d="m 5.4937981,219.65374 0,1.12493 0.2364197,0 q 0.2994004,0 0.4379578,-0.13565 0.1395264,-0.13565 0.1395264,-0.42827 0,-0.29068 -0.1395264,-0.42536 -0.1385574,-0.13565 -0.4379578,-0.13565 l -0.2364197,0 z m -0.1957245,-0.16084 0.4021073,0 q 0.420517,0 0.6172105,0.17537 0.1966934,0.17441 0.1966934,0.54648 0,0.37401 -0.1976624,0.54939 -0.1976623,0.17537 -0.6162415,0.17537 l -0.4021073,0 0,-1.44661 z"
         style=""
         id="path6287" />
      <path
         d="m 6.8251122,219.4929 0.914673,0 0,0.16472 -0.7189485,0 0,0.42826 0.6889115,0 0,0.16472 -0.6889115,0 0,0.5242 0.7363892,0 0,0.16471 -0.9321137,0 0,-1.44661 z"
         style=""
         id="path6289" />
      <path
         d="m 8.0769742,219.4929 0.1957245,0 0,1.2819 0.7044145,0 0,0.16471 -0.900139,0 0,-1.44661 z"
         style=""
         id="path6291" />
      <path
         d="m 9.7115644,219.68571 -0.2654877,0.71992 0.5319444,0 -0.2664567,-0.71992 z m -0.1104583,-0.19281 0.2218857,0 0.5513232,1.44661 -0.203476,0 -0.131775,-0.3711 -0.6520922,0 -0.1317749,0.3711 -0.2063828,0 0.552292,-1.44661 z"
         style=""
         id="path6293" />
      <path
         d="m 10.230913,219.4929 0.210258,0 0.401138,0.59492 0.398232,-0.59492 0.210258,0 -0.511596,0.7577 0,0.68891 -0.196694,0 0,-0.68891 -0.511596,-0.7577 z"
         style=""
         id="path6295" />
    </g>
    <g
       style="font-size:1.98437524px;text-align:center;text-anchor:middle;fill:#ffffff;fill-opacity:1;stroke:none;stroke-width:1.41732287;stroke-miterlimit:4;stroke-dasharray:none;stroke-opacity:1"
       id="text5079">
      <path
         d="m 0.54267823,258.0736 0,1.12493 0.23641971,0 q 0.29940036,0 0.43795786,-0.13565 0.1395263,-0.13565 0.1395263,-0.42827 0,-0.29068 -0.1395263,-0.42536 -0.1385575,-0.13565 -0.43795786,-0.13565 l -0.23641971,0 z m -0.19572451,-0.16084 0.40210729,0 q 0.42051699,0 0.61721049,0.17537 0.1966934,0.17441 0.1966934,0.54648 0,0.37401 -0.1976624,0.54939 -0.1976623,0.17537 -0.61624149,0.17537 l -0.40210729,0 0,-1.44661 z"
         style=""
         id="path6298" />
      <path
         d="m 1.8739925,257.91276 0.1957245,0 0,1.44661 -0.1957245,0 0,-1.44661 z"
         style=""
         id="path6300" />
      <path
         d="m 2.4592281,257.91276 0.8313447,0 0,0.16472 -0.6356202,0 0,0.42633 0.5736085,0 0,0.16472 -0.5736085,0 0,0.69084 -0.1957245,0 0,-1.44661 z"
         style=""
         id="path6302" />
      <path
         d="m 3.5986937,257.91276 0.8313447,0 0,0.16472 -0.6356202,0 0,0.42633 0.5736085,0 0,0.16472 -0.5736085,0 0,0.69084 -0.1957245,0 0,-1.44661 z"
         style=""
         id="path6304" />
      <path
         d="m 4.7158736,257.91276 0.1966934,0 0,0.87882 q 0,0.23254 0.084297,0.33525 0.084297,0.10174 0.2732392,0.10174 0.187973,0 0.2722702,-0.10174 0.084297,-0.10271 0.084297,-0.33525 l 0,-0.87882 0.1966934,0 0,0.90304 q 0,0.28293 -0.1404953,0.4273 -0.1395264,0.14437 -0.4127655,0.14437 -0.2742081,0 -0.4147034,-0.14437 -0.1395264,-0.14437 -0.1395264,-0.4273 l 0,-0.90304 z"
         style=""
         id="path6306" />
      <path
         d="m 7.0587539,257.96024 0,0.19088 q -0.1114273,-0.0533 -0.2102585,-0.0795 -0.098831,-0.0262 -0.1908798,-0.0262 -0.159874,0 -0.247078,0.062 -0.086235,0.062 -0.086235,0.17635 0,0.0959 0.057167,0.14534 0.058136,0.0485 0.2189789,0.0785 l 0.1182099,0.0242 q 0.2189789,0.0417 0.3226547,0.14727 0.1046448,0.10465 0.1046448,0.28099 0,0.21026 -0.1414642,0.31878 -0.1404954,0.10852 -0.4127656,0.10852 -0.1027069,0 -0.2189789,-0.0233 -0.115303,-0.0232 -0.2393265,-0.0688 l 0,-0.20154 q 0.1191788,0.0668 0.2335129,0.10077 0.1143341,0.0339 0.2247925,0.0339 0.1676255,0 0.2587052,-0.0659 0.09108,-0.0659 0.09108,-0.18797 0,-0.10658 -0.065887,-0.16666 -0.064919,-0.0601 -0.2141342,-0.0901 l -0.1191788,-0.0233 q -0.2189789,-0.0436 -0.3168411,-0.13662 -0.097862,-0.093 -0.097862,-0.25871 0,-0.19185 0.1346817,-0.30231 0.1356507,-0.11045 0.3730393,-0.11045 0.101738,0 0.2073517,0.0184 0.1056137,0.0184 0.2160721,0.0552 z"
         style=""
         id="path6308" />
      <path
         d="m 7.4550479,257.91276 0.1957246,0 0,1.44661 -0.1957246,0 0,-1.44661 z"
         style=""
         id="path6310" />
      <path
         d="m 8.6274571,258.0455 q -0.2131653,0 -0.3391267,0.15891 -0.1249923,0.1589 -0.1249923,0.43311 0,0.27324 0.1249923,0.43214 0.1259614,0.15891 0.3391267,0.15891 0.2131653,0 0.3371887,-0.15891 0.1249924,-0.1589 0.1249924,-0.43214 0,-0.27421 -0.1249924,-0.43311 -0.1240234,-0.15891 -0.3371887,-0.15891 z m 0,-0.1589 q 0.304245,0 0.4864044,0.20444 0.1821595,0.20348 0.1821595,0.54648 0,0.34203 -0.1821595,0.54648 -0.1821594,0.20347 -0.4864044,0.20347 -0.305214,0 -0.4883424,-0.20347 -0.1821594,-0.20348 -0.1821594,-0.54648 0,-0.343 0.1821594,-0.54648 0.1831284,-0.20444 0.4883424,-0.20444 z"
         style=""
         id="path6312" />
      <path
         d="m 9.6022037,257.91276 0.2635498,0 0.6414335,1.2102 0,-1.2102 0.189911,0 0,1.44661 -0.26355,0 -0.6414334,-1.21019 0,1.21019 -0.1899109,0 0,-1.44661 z"
         style=""
         id="path6314" />
    </g>
    <g
       style="font-size:1.98437524px;text-align:center;text-anchor:middle;fill:#ffffff;fill-opacity:1;stroke:none;stroke-width:1.41732287;stroke-miterlimit:4;stroke-dasharray:none;stroke-opacity:1"
       id="text5083"
       transform="translate(0,0.52916675)">
      <path
         d="m 0.57358322,271.82249 0.2916489,0 0.36916358,0.98443 0.3711014,-0.98443 0.2916489,0 0,1.44661 -0.1908798,0 0,-1.27027 -0.3730393,0.99219 -0.1966935,0 -0.37303927,-0.99219 0,1.27027 -0.18991091,0 0,-1.44661 z"
         id="path6317"
         inkscape:connector-curvature="0" />
      <path
         d="m 2.869955,271.95523 q -0.2131653,0 -0.3391266,0.15891 -0.1249924,0.1589 -0.1249924,0.43311 0,0.27324 0.1249924,0.43214 0.1259613,0.15891 0.3391266,0.15891 0.2131653,0 0.3371888,-0.15891 0.1249923,-0.1589 0.1249923,-0.43214 0,-0.27421 -0.1249923,-0.43311 -0.1240235,-0.15891 -0.3371888,-0.15891 z m 0,-0.1589 q 0.304245,0 0.4864045,0.20444 0.1821594,0.20348 0.1821594,0.54648 0,0.34203 -0.1821594,0.54648 -0.1821595,0.20347 -0.4864045,0.20347 -0.305214,0 -0.4883424,-0.20347 -0.1821594,-0.20348 -0.1821594,-0.54648 0,-0.343 0.1821594,-0.54648 0.1831284,-0.20444 0.4883424,-0.20444 z"
         id="path6319"
         inkscape:connector-curvature="0" />
      <path
         d="m 4.0404264,271.98333 0,1.12493 0.2364197,0 q 0.2994003,0 0.4379578,-0.13565 0.1395264,-0.13565 0.1395264,-0.42827 0,-0.29068 -0.1395264,-0.42536 -0.1385575,-0.13565 -0.4379578,-0.13565 l -0.2364197,0 z m -0.1957245,-0.16084 0.4021073,0 q 0.420517,0 0.6172104,0.17537 0.1966935,0.17441 0.1966935,0.54648 0,0.37401 -0.1976624,0.54939 -0.1976624,0.17537 -0.6162415,0.17537 l -0.4021073,0 0,-1.44661 z"
         id="path6321"
         inkscape:connector-curvature="0" />
      <path
         d="m 5.3891817,273.02299 0.2044449,0 0,0.24611 -0.2044449,0 0,-0.24611 z"
         id="path6323"
         inkscape:connector-curvature="0" />
      <path
         d="m 7.5024249,271.86996 0,0.19088 q -0.1114273,-0.0533 -0.2102585,-0.0795 -0.098831,-0.0262 -0.1908798,-0.0262 -0.159874,0 -0.247078,0.062 -0.086235,0.062 -0.086235,0.17635 0,0.0959 0.057167,0.14534 0.058136,0.0484 0.2189789,0.0785 l 0.1182099,0.0242 q 0.2189789,0.0417 0.3226547,0.14727 0.1046448,0.10465 0.1046448,0.28099 0,0.21026 -0.1414642,0.31878 -0.1404954,0.10852 -0.4127656,0.10852 -0.1027069,0 -0.2189789,-0.0232 -0.1153031,-0.0233 -0.2393265,-0.0688 l 0,-0.20153 q 0.1191788,0.0668 0.2335129,0.10077 0.1143341,0.0339 0.2247925,0.0339 0.1676255,0 0.2587052,-0.0659 0.09108,-0.0659 0.09108,-0.18797 0,-0.10659 -0.065887,-0.16666 -0.064919,-0.0601 -0.2141342,-0.0901 l -0.1191788,-0.0233 q -0.2189789,-0.0436 -0.3168412,-0.13662 -0.097862,-0.093 -0.097862,-0.25871 0,-0.19185 0.1346817,-0.30231 0.1356507,-0.11045 0.3730393,-0.11045 0.101738,0 0.2073517,0.0184 0.1056137,0.0184 0.2160721,0.0552 z"
         id="path6325"
         inkscape:connector-curvature="0" />
      <path
         d="m 8.094443,271.98333 0,0.54357 0.246109,0 q 0.1366196,0 0.2112274,-0.0707 0.074608,-0.0707 0.074608,-0.20154 0,-0.12984 -0.074608,-0.20057 -0.074608,-0.0707 -0.2112274,-0.0707 l -0.246109,0 z m -0.1957245,-0.16084 0.4418335,0 q 0.2432022,0 0.3672257,0.11046 0.1249924,0.10948 0.1249924,0.32168 0,0.21414 -0.1249924,0.32362 -0.1240235,0.10949 -0.3672257,0.10949 l -0.246109,0 0,0.58136 -0.1957245,0 0,-1.44661 z"
         id="path6327"
         inkscape:connector-curvature="0" />
      <path
         d="m 9.0963198,271.82249 0.9146732,0 0,0.16472 -0.7189487,0 0,0.42826 0.6889115,0 0,0.16472 -0.6889115,0 0,0.5242 0.7363897,0 0,0.16471 -0.9321142,0 0,-1.44661 z"
         id="path6329"
         inkscape:connector-curvature="0" />
      <path
         d="m 10.348181,271.82249 0.914673,0 0,0.16472 -0.718948,0 0,0.42826 0.688911,0 0,0.16472 -0.688911,0 0,0.5242 0.736389,0 0,0.16471 -0.932114,0 0,-1.44661 z"
         id="path6331"
         inkscape:connector-curvature="0" />
      <path
         d="m 11.795767,271.98333 0,1.12493 0.23642,0 q 0.2994,0 0.437958,-0.13565 0.139526,-0.13565 0.139526,-0.42827 0,-0.29068 -0.139526,-0.42536 -0.138558,-0.13565 -0.437958,-0.13565 l -0.23642,0 z m -0.195724,-0.16084 0.402107,0 q 0.420517,0 0.617211,0.17537 0.196693,0.17441 0.196693,0.54648 0,0.37401 -0.197662,0.54939 -0.197663,0.17537 -0.616242,0.17537 l -0.402107,0 0,-1.44661 z"
         id="path6333"
         inkscape:connector-curvature="0" />
      <path
         d="m 14.874069,272.0153 -0.265488,0.71992 0.531945,0 -0.266457,-0.71992 z m -0.110458,-0.19281 0.221885,0 0.551323,1.44661 -0.203476,0 -0.131775,-0.3711 -0.652092,0 -0.131775,0.3711 -0.206382,0 0.552292,-1.44661 z"
         id="path6335"
         inkscape:connector-curvature="0" />
      <path
         d="m 15.747078,271.82249 0.291648,0 0.369164,0.98443 0.371101,-0.98443 0.291649,0 0,1.44661 -0.19088,0 0,-1.27027 -0.373039,0.99219 -0.196693,0 -0.37304,-0.99219 0,1.27027 -0.18991,0 0,-1.44661 z"
         id="path6337"
         inkscape:connector-curvature="0" />
      <path
         d="m 18.043449,271.95523 q -0.213165,0 -0.339127,0.15891 -0.124992,0.1589 -0.124992,0.43311 0,0.27324 0.124992,0.43214 0.125962,0.15891 0.339127,0.15891 0.213165,0 0.337189,-0.15891 0.124992,-0.1589 0.124992,-0.43214 0,-0.27421 -0.124992,-0.43311 -0.124024,-0.15891 -0.337189,-0.15891 z m 0,-0.1589 q 0.304245,0 0.486405,0.20444 0.182159,0.20348 0.182159,0.54648 0,0.34203 -0.182159,0.54648 -0.18216,0.20347 -0.486405,0.20347 -0.305214,0 -0.488342,-0.20347 -0.18216,-0.20348 -0.18216,-0.54648 0,-0.343 0.18216,-0.54648 0.183128,-0.20444 0.488342,-0.20444 z"
         id="path6339"
         inkscape:connector-curvature="0" />
      <path
         d="m 18.99591,271.82249 0.196694,0 0,0.87882 q 0,0.23254 0.0843,0.33525 0.0843,0.10174 0.273239,0.10174 0.187973,0 0.27227,-0.10174 0.0843,-0.10271 0.0843,-0.33525 l 0,-0.87882 0.196694,0 0,0.90304 q 0,0.28293 -0.140495,0.4273 -0.139527,0.14437 -0.412766,0.14437 -0.274208,0 -0.414703,-0.14437 -0.139527,-0.14437 -0.139527,-0.4273 l 0,-0.90304 z"
         id="path6341"
         inkscape:connector-curvature="0" />
      <path
         d="m 20.471595,271.82249 0.26355,0 0.641434,1.21019 0,-1.21019 0.189911,0 0,1.44661 -0.26355,0 -0.641434,-1.21019 0,1.21019 -0.189911,0 0,-1.44661 z"
         id="path6343"
         inkscape:connector-curvature="0" />
      <path
         d="m 21.755432,271.82249 1.223762,0 0,0.16472 -0.513534,0 0,1.28189 -0.196694,0 0,-1.28189 -0.513534,0 0,-0.16472 z"
         id="path6345"
         inkscape:connector-curvature="0" />
    </g>
    <g
       style="font-size:1.98437524px;text-align:center;text-anchor:middle;fill:#ffffff;fill-opacity:1;stroke:none;stroke-width:1.41732287;stroke-miterlimit:4;stroke-dasharray:none;stroke-opacity:1"
       id="text5087">
      <path
         d="m 14.427646,239.19079 0,1.12493 0.23642,0 q 0.2994,0 0.437958,-0.13565 0.139526,-0.13565 0.139526,-0.42827 0,-0.29068 -0.139526,-0.42536 -0.138558,-0.13565 -0.437958,-0.13565 l -0.23642,0 z m -0.195724,-0.16084 0.402107,0 q 0.420517,0 0.61721,0.17537 0.196694,0.17441 0.196694,0.54648 0,0.37401 -0.197663,0.54939 -0.197662,0.17537 -0.616241,0.17537 l -0.402107,0 0,-1.44661 z"
         style=""
         id="path6348" />
      <path
         d="m 16.444965,239.79831 q 0.06298,0.0213 0.122086,0.0911 0.06007,0.0698 0.120147,0.19185 l 0.198632,0.39532 -0.210259,0 -0.185066,-0.3711 q -0.0717,-0.14534 -0.139526,-0.19282 -0.06686,-0.0475 -0.183129,-0.0475 l -0.213165,0 0,0.61139 -0.195725,0 0,-1.44661 0.441834,0 q 0.248047,0 0.370132,0.10367 0.122086,0.10368 0.122086,0.31297 0,0.13662 -0.06395,0.22673 -0.06298,0.0901 -0.184097,0.12499 z m -0.49028,-0.60752 0,0.51353 0.246109,0 q 0.141464,0 0.213165,-0.0649 0.07267,-0.0659 0.07267,-0.19281 0,-0.12693 -0.07267,-0.19088 -0.0717,-0.0649 -0.213165,-0.0649 l -0.246109,0 z"
         style=""
         id="path6350" />
      <path
         d="m 16.814129,239.02995 0.210258,0 0.401138,0.59492 0.398232,-0.59492 0.210258,0 -0.511596,0.7577 0,0.68891 -0.196694,0 0,-0.68891 -0.511596,-0.7577 z"
         style=""
         id="path6352" />
      <path
         d="m 18.536892,239.02995 0.164719,0 -0.503846,1.63071 -0.164718,0 0.503845,-1.63071 z"
         style=""
         id="path6354" />
      <path
         d="m 18.769436,239.02995 0.197662,0 0.304245,1.22279 0.303276,-1.22279 0.219948,0 0.304245,1.22279 0.303276,-1.22279 0.198632,0 -0.36335,1.44661 -0.246109,0 -0.305214,-1.25573 -0.308121,1.25573 -0.246109,0 -0.362381,-1.44661 z"
         style=""
         id="path6356" />
      <path
         d="m 20.859425,239.02995 0.914673,0 0,0.16471 -0.718948,0 0,0.42827 0.688911,0 0,0.16472 -0.688911,0 0,0.52419 0.736389,0 0,0.16472 -0.932114,0 0,-1.44661 z"
         style=""
         id="path6358" />
      <path
         d="m 21.910717,239.02995 1.223763,0 0,0.16471 -0.513535,0 0,1.2819 -0.196693,0 0,-1.2819 -0.513535,0 0,-0.16471 z"
         style=""
         id="path6360" />
    </g>
    <g
       style="font-size:1.98437524px;text-align:center;text-anchor:middle;fill:#ffffff;fill-opacity:1;stroke:none;stroke-width:1.41732287;stroke-miterlimit:4;stroke-dasharray:none;stroke-opacity:1"
       id="text5091"
       transform="translate(0.41484642,-1.5875003)">
      <path
         d="m 4.6294195,255.02735 0.1957245,0 0,1.2819 0.7044144,0 0,0.16472 -0.9001389,0 0,-1.44662 z"
         id="path6363"
         inkscape:connector-curvature="0" />
      <path
         d="m 5.9297278,255.18819 0,0.54358 0.2461091,0 q 0.1366196,0 0.2112274,-0.0707 0.074608,-0.0707 0.074608,-0.20153 0,-0.12984 -0.074608,-0.20057 -0.074608,-0.0707 -0.2112274,-0.0707 l -0.2461091,0 z m -0.1957245,-0.16084 0.4418336,0 q 0.2432022,0 0.3672257,0.11046 0.1249923,0.10949 0.1249923,0.32169 0,0.21413 -0.1249923,0.32362 -0.1240235,0.10949 -0.3672257,0.10949 l -0.2461091,0 0,0.58136 -0.1957245,0 0,-1.44662 z"
         id="path6365"
         inkscape:connector-curvature="0" />
      <path
         d="m 8.1892801,255.49728 -0.9999391,0.3556 0.9999391,0.35366 0,0.17635 -1.2421724,-0.45056 0,-0.16084 1.2421724,-0.45055 0,0.17634 z"
         id="path6367"
         inkscape:connector-curvature="0" />
      <path
         d="m 9.3006465,255.55348 0,-0.58717 0.1782837,0 0,1.50766 -0.1782837,0 0,-0.16278 q -0.056198,0.0969 -0.1424332,0.14437 -0.085266,0.0465 -0.2054138,0.0465 -0.1966934,0 -0.3207169,-0.15697 -0.1230545,-0.15697 -0.1230545,-0.41277 0,-0.25579 0.1230545,-0.41276 0.1240235,-0.15697 0.3207169,-0.15697 0.1201477,0 0.2054138,0.0475 0.086235,0.0465 0.1424332,0.1434 z m -0.6075211,0.37885 q 0,0.1967 0.080421,0.30909 0.08139,0.11143 0.2228546,0.11143 0.1414642,0 0.2228546,-0.11143 0.08139,-0.11239 0.08139,-0.30909 0,-0.19669 -0.08139,-0.30812 -0.08139,-0.11239 -0.2228546,-0.11239 -0.1414643,0 -0.2228546,0.11239 -0.080421,0.11143 -0.080421,0.30812 z"
         id="path6369"
         inkscape:connector-curvature="0" />
      <path
         d="m 10.339343,255.92846 q -0.216072,0 -0.299401,0.0494 -0.083328,0.0494 -0.083328,0.1686 0,0.0949 0.062012,0.15115 0.06298,0.0552 0.170532,0.0552 0.148247,0 0.237389,-0.10464 0.09011,-0.10562 0.09011,-0.28002 l 0,-0.0397 -0.177315,0 z m 0.355598,-0.0736 0,0.61915 -0.178283,0 0,-0.16472 q -0.06104,0.0988 -0.152123,0.14631 -0.09108,0.0465 -0.222855,0.0465 -0.1666561,0 -0.2654873,-0.093 -0.097862,-0.094 -0.097862,-0.25095 0,-0.18313 0.1220855,-0.27615 0.1230548,-0.093 0.3662568,-0.093 l 0.249985,0 0,-0.0174 q 0,-0.12305 -0.08139,-0.18991 -0.08042,-0.0678 -0.22673,-0.0678 -0.09302,0 -0.181191,0.0223 -0.088173,0.0223 -0.1695628,0.0669 l 0,-0.16472 q 0.097862,-0.0378 0.1899108,-0.0562 0.09205,-0.0194 0.179253,-0.0194 0.23545,0 0.351722,0.12209 0.116272,0.12208 0.116272,0.37013 z"
         id="path6371"
         inkscape:connector-curvature="0" />
      <path
         d="m 11.911922,255.59708 q 0.06686,-0.12014 0.159874,-0.17731 0.09302,-0.0572 0.218979,-0.0572 0.169563,0 0.261612,0.11918 0.09205,0.11821 0.09205,0.33719 l 0,0.655 -0.179252,0 0,-0.64919 q 0,-0.156 -0.05523,-0.23157 -0.05523,-0.0756 -0.168594,-0.0756 -0.138557,0 -0.218979,0.0921 -0.08042,0.0921 -0.08042,0.25095 l 0,0.61334 -0.179253,0 0,-0.64919 q 0,-0.15696 -0.05523,-0.23157 -0.05523,-0.0756 -0.170532,-0.0756 -0.13662,0 -0.217041,0.093 -0.08042,0.0921 -0.08042,0.24998 l 0,0.61334 -0.179253,0 0,-1.08521 0.179253,0 0,0.1686 q 0.06104,-0.0998 0.146309,-0.14728 0.08527,-0.0475 0.202507,-0.0475 0.11821,0 0.200569,0.0601 0.08333,0.0601 0.123055,0.1744 z"
         id="path6373"
         inkscape:connector-curvature="0" />
      <path
         d="m 13.169597,256.31119 0,0.57554 -0.179253,0 0,-1.49797 0.179253,0 0,0.16472 q 0.0562,-0.0969 0.141464,-0.1434 0.08624,-0.0475 0.205414,-0.0475 0.197662,0 0.320717,0.15697 0.124023,0.15697 0.124023,0.41276 0,0.2558 -0.124023,0.41277 -0.123055,0.15697 -0.320717,0.15697 -0.119179,0 -0.205414,-0.0465 -0.08527,-0.0475 -0.141464,-0.14437 z m 0.606552,-0.37886 q 0,-0.19669 -0.08139,-0.30812 -0.08042,-0.11239 -0.221886,-0.11239 -0.141464,0 -0.222855,0.11239 -0.08042,0.11143 -0.08042,0.30812 0,0.1967 0.08042,0.30909 0.08139,0.11143 0.222855,0.11143 0.141464,0 0.221886,-0.11143 0.08139,-0.11239 0.08139,-0.30909 z"
         id="path6375"
         inkscape:connector-curvature="0" />
      <path
         d="m 14.279994,255.49728 0,-0.17634 1.242173,0.45055 0,0.16084 -1.242173,0.45056 0,-0.17635 0.998001,-0.35366 -0.998001,-0.3556 z"
         id="path6377"
         inkscape:connector-curvature="0" />
      <path
         d="m 15.92718,255.02735 0.195725,0 0,0.59299 0.711197,0 0,-0.59299 0.195724,0 0,1.44662 -0.195724,0 0,-0.68891 -0.711197,0 0,0.68891 -0.195725,0 0,-1.44662 z"
         id="path6379"
         inkscape:connector-curvature="0" />
      <path
         d="m 17.615063,255.18819 0,0.54358 0.246109,0 q 0.136619,0 0.211227,-0.0707 0.07461,-0.0707 0.07461,-0.20153 0,-0.12984 -0.07461,-0.20057 -0.07461,-0.0707 -0.211227,-0.0707 l -0.246109,0 z m -0.195725,-0.16084 0.441834,0 q 0.243202,0 0.367226,0.11046 0.124992,0.10949 0.124992,0.32169 0,0.21413 -0.124992,0.32362 -0.124024,0.10949 -0.367226,0.10949 l -0.246109,0 0,0.58136 -0.195725,0 0,-1.44662 z"
         id="path6381"
         inkscape:connector-curvature="0" />
    </g>
    <g
       style="font-size:1.98437524px;text-align:center;text-anchor:middle;fill:#ffffff;fill-opacity:1;stroke:none;stroke-width:1.41732287;stroke-miterlimit:4;stroke-dasharray:none;stroke-opacity:1"
       id="text5095">
      <path
         d="m 1.2464386,239.19079 0,1.12493 0.2364197,0 q 0.2994004,0 0.4379579,-0.13565 0.1395263,-0.13565 0.1395263,-0.42827 0,-0.29068 -0.1395263,-0.42536 -0.1385575,-0.13565 -0.4379579,-0.13565 l -0.2364197,0 z m -0.1957245,-0.16084 0.4021073,0 q 0.420517,0 0.6172105,0.17537 0.1966934,0.17441 0.1966934,0.54648 0,0.37401 -0.1976624,0.54939 -0.1976623,0.17537 -0.6162415,0.17537 l -0.4021073,0 0,-1.44661 z"
         style=""
         id="path6384" />
      <path
         d="m 2.5777529,239.02995 0.914673,0 0,0.16471 -0.7189485,0 0,0.42827 0.6889116,0 0,0.16472 -0.6889116,0 0,0.52419 0.7363893,0 0,0.16472 -0.9321138,0 0,-1.44661 z"
         style=""
         id="path6386" />
      <path
         d="m 4.9128821,239.14137 0,0.20639 q -0.098831,-0.0921 -0.2112275,-0.13759 -0.1114273,-0.0455 -0.2373886,-0.0455 -0.2480469,0 -0.3798218,0.15212 -0.1317749,0.15115 -0.1317749,0.43796 0,0.28583 0.1317749,0.43796 0.1317749,0.15115 0.3798218,0.15115 0.1259613,0 0.2373886,-0.0455 0.1123963,-0.0455 0.2112275,-0.13759 l 0,0.20445 q -0.1027069,0.0698 -0.21801,0.10464 -0.1143341,0.0349 -0.2422333,0.0349 -0.3284684,0 -0.5174103,-0.20057 -0.188942,-0.20154 -0.188942,-0.54938 0,-0.34882 0.188942,-0.54939 0.1889419,-0.20154 0.5174103,-0.20154 0.1298371,0 0.2441712,0.0349 0.115303,0.0339 0.2160721,0.1027 z"
         style=""
         id="path6388" />
      <path
         d="m 5.7006246,239.22276 -0.2654877,0.71992 0.5319444,0 -0.2664567,-0.71992 z m -0.1104584,-0.19281 0.2218857,0 0.5513231,1.44661 -0.203476,0 -0.1317749,-0.3711 -0.6520921,0 -0.1317749,0.3711 -0.2063828,0 0.5522919,-1.44661 z"
         style=""
         id="path6390" />
      <path
         d="m 6.2199727,239.02995 0.2102585,0 0.4011384,0.59492 0.3982315,-0.59492 0.2102585,0 -0.5115967,0.7577 0,0.68891 -0.1966935,0 0,-0.68891 -0.5115967,-0.7577 z"
         style=""
         id="path6392" />
    </g>
    <g
       style="font-size:3.96875048px;text-align:center;text-anchor:middle;fill:#ffffff;fill-opacity:1;stroke:none;stroke-width:1.41732287;stroke-miterlimit:4;stroke-dasharray:none;stroke-opacity:1"
       id="text6264" />
    <g
       style="font-size:3.96875048px;text-align:center;text-anchor:middle;fill:#ffffff;fill-opacity:1;stroke:none;stroke-width:1.41732287;stroke-miterlimit:4;stroke-dasharray:none;stroke-opacity:1"
       id="text6268">
      <path
         d="m 2.560879,197.83223 q -0.4263306,0 -0.6782532,0.31781 -0.2499848,0.31781 -0.2499848,0.86623 0,0.54647 0.2499848,0.86428 0.2519226,0.31781 0.6782532,0.31781 0.4263307,0 0.6743776,-0.31781 0.2499847,-0.31781 0.2499847,-0.86428 0,-0.54842 -0.2499847,-0.86623 -0.2480469,-0.31781 -0.6743776,-0.31781 z m 0,-0.31781 q 0.6084901,0 0.972809,0.40889 0.3643189,0.40695 0.3643189,1.09296 0,0.68406 -0.3643189,1.09295 -0.3643189,0.40695 -0.972809,0.40695 -0.6104279,0 -0.9766846,-0.40695 -0.3643189,-0.40695 -0.3643189,-1.09295 0,-0.68601 0.3643189,-1.09296 0.3662567,-0.40889 0.9766846,-0.40889 z"
         style=""
         id="path6396" />
      <path
         d="m 4.4948699,197.44466 0.3565674,0 0,3.01532 -0.3565674,0 0,-3.01532 z"
         style=""
         id="path6398" />
      <path
         d="m 5.5955779,198.28957 0.3565674,0 0,2.17041 -0.3565674,0 0,-2.17041 z m 0,-0.84491 0.3565674,0 0,0.45152 -0.3565674,0 0,-0.45152 z"
         style=""
         id="path6400" />
      <path
         d="m 6.440488,198.28957 0.3778839,0 0.6782533,1.82159 0.6782532,-1.82159 0.377884,0 -0.8139039,2.17041 -0.4844666,0 -0.8139039,-2.17041 z"
         style=""
         id="path6402" />
      <path
         d="m 10.901456,199.28563 0,0.17441 -1.6394348,0 q 0.023254,0.36819 0.2209168,0.56198 0.1996003,0.19185 0.55423,0.19185 0.205414,0 0.397262,-0.0504 0.193787,-0.0504 0.383698,-0.15115 l 0,0.33719 q -0.191849,0.0814 -0.393387,0.12402 -0.201538,0.0426 -0.40889,0.0426 -0.5193479,0 -0.823593,-0.3023 -0.3023071,-0.30231 -0.3023071,-0.81778 0,-0.53292 0.2868042,-0.84491 0.2887421,-0.31394 0.7770845,-0.31394 0.4379574,0 0.6918184,0.28293 0.255798,0.28099 0.255798,0.76546 z m -0.356567,-0.10465 q -0.0039,-0.29261 -0.164719,-0.46702 -0.158905,-0.17441 -0.4224547,-0.17441 -0.2984314,0 -0.478653,0.16859 -0.1782837,0.1686 -0.2054139,0.47478 l 1.2712406,-0.002 z"
         style=""
         id="path6404" />
      <path
         d="m 12.736615,198.62288 q -0.06007,-0.0349 -0.131774,-0.0504 -0.06976,-0.0174 -0.15503,-0.0174 -0.302307,0 -0.465088,0.19767 -0.160843,0.19572 -0.160843,0.56391 l 0,1.14335 -0.358505,0 0,-2.17041 0.358505,0 0,0.33718 q 0.112397,-0.19766 0.292618,-0.29261 0.180222,-0.0969 0.437958,-0.0969 0.03682,0 0.08139,0.006 0.04457,0.004 0.09883,0.0136 l 0.0019,0.36626 z"
         style=""
         id="path6406" />
      <path
         d="m 14.672545,199.37671 q 0,-0.39339 -0.162781,-0.61624 -0.160843,-0.2248 -0.443771,-0.2248 -0.282929,0 -0.44571,0.2248 -0.160843,0.22285 -0.160843,0.61624 0,0.39339 0.160843,0.61818 0.162781,0.22285 0.44571,0.22285 0.282928,0 0.443771,-0.22285 0.162781,-0.22479 0.162781,-0.61818 z M 13.45944,198.619 q 0.112397,-0.19378 0.282929,-0.2868 0.17247,-0.095 0.410828,-0.095 0.395324,0 0.641433,0.31394 0.248047,0.31393 0.248047,0.82553 0,0.5116 -0.248047,0.82553 -0.246109,0.31393 -0.641433,0.31393 -0.238358,0 -0.410828,-0.093 -0.170532,-0.095 -0.282929,-0.28875 l 0,0.32557 -0.358505,0 0,-3.01532 0.358505,0 0,1.17434 z"
         style=""
         id="path6408" />
    </g>
    <path
       style="fill:none;fill-rule:evenodd;stroke:#ffffff;stroke-width:0.26458338px;stroke-linecap:butt;stroke-linejoin:miter;stroke-opacity:1"
       d="m 2.7511404,245.10349 6.5026954,0"
       id="path4344"
       inkscape:connector-curvature="0" />
    <text
       xml:space="preserve"
       style="font-size:1.98437524px;text-align:center;text-anchor:middle;fill:#ffffff;fill-opacity:1;stroke:none;stroke-width:0.37500006;stroke-miterlimit:4;stroke-dasharray:none;stroke-opacity:1"
       x="10.273997"
       y="206.2413"
       id="text4346"><tspan
         sodipodi:role="line"
         id="tspan4348"
         x="10.273997"
         y="206.2413"
         style="font-size:1.98437524px;fill:#ffffff;stroke:none;stroke-width:0.37500006">CLOCK</tspan></text>
  </g>
  <g
     inkscape:groupmode="layer"
     id="layer3"
     inkscape:label="widgets"
     style="display:none">
    <rect
       style="display:inline;opacity:1;fill:#ff0200;fill-opacity:1;stroke:none;stroke-width:1;stroke-miterlimit:4;stroke-dasharray:none;stroke-opacity:1"
       id="rect5091"
       width="5.6426449"
       height="5.5571499"
       x="22.004379"
       y="51.120346" />
    <rect
       style="display:inline;opacity:1;fill:#00ff00;fill-opacity:1;stroke:none;stroke-width:1;stroke-miterlimit:4;stroke-dasharray:none;stroke-opacity:1"
       id="rect5093"
       width="5.2151713"
       height="5.2151713"
       x="22.084158"
       y="45.009415" />
    <rect
       style="display:inline;opacity:1;fill:#0000ff;fill-opacity:1;stroke:none;stroke-width:1;stroke-miterlimit:4;stroke-dasharray:none;stroke-opacity:1"
       id="rect4969"
       width="5.3861609"
       height="5.3861609"
       x="22.38339"
       y="83.223175" />
    <rect
       style="display:inline;opacity:1;fill:#00ff00;fill-opacity:1;stroke:none;stroke-width:1;stroke-miterlimit:4;stroke-dasharray:none;stroke-opacity:1"
       id="rect4975"
       width="5.3546834"
       height="5.5909305"
       x="2.3290534"
       y="75.108711" />
    <rect
       style="display:inline;opacity:1;fill:#00ff00;fill-opacity:1;stroke:none;stroke-width:1;stroke-miterlimit:4;stroke-dasharray:none;stroke-opacity:1"
       id="rect4979"
       width="5.5571499"
       height="5.5571499"
       x="2.4403408"
       y="44.95977" />
    <rect
       style="display:inline;opacity:1;fill:#00ff00;fill-opacity:1;stroke:none;stroke-width:1;stroke-miterlimit:4;stroke-dasharray:none;stroke-opacity:1"
       id="rect4981"
       width="5.7281394"
       height="5.7281394"
       x="11.818956"
       y="44.461246" />
    <rect
       style="display:inline;opacity:1;fill:#00ff00;fill-opacity:1;stroke:none;stroke-width:1;stroke-miterlimit:4;stroke-dasharray:none;stroke-opacity:1"
       id="rect4983"
       width="5.8136339"
       height="5.8136339"
       x="21.57119"
       y="27.209215" />
    <rect
       style="display:inline;opacity:1;fill:#00ff00;fill-opacity:1;stroke:none;stroke-width:1;stroke-miterlimit:4;stroke-dasharray:none;stroke-opacity:1"
       id="rect4989"
       width="5.5571499"
       height="5.5571499"
       x="12.466015"
       y="27.43049" />
    <rect
       style="display:inline;opacity:1;fill:#00ff00;fill-opacity:1;stroke:none;stroke-width:1;stroke-miterlimit:4;stroke-dasharray:none;stroke-opacity:1"
       id="rect4991"
       width="5.3006663"
       height="5.3006663"
       x="2.3290534"
       y="17.041332" />
    <rect
       style="display:inline;opacity:1;fill:#00ff00;fill-opacity:1;stroke:none;stroke-width:1;stroke-miterlimit:4;stroke-dasharray:none;stroke-opacity:1"
       id="rect5041"
       width="5.7281394"
       height="5.7281394"
       x="2.7565265"
       y="27.470434" />
    <rect
       style="display:inline;opacity:1;fill:#ff0000;fill-opacity:1;stroke:none;stroke-width:1;stroke-miterlimit:4;stroke-dasharray:none;stroke-opacity:1"
       id="rect5043"
       width="5.7281394"
       height="5.7281394"
       x="2.7565265"
       y="34.256905" />
    <rect
       style="display:inline;opacity:1;fill:#ff0000;fill-opacity:1;stroke:none;stroke-width:1;stroke-miterlimit:4;stroke-dasharray:none;stroke-opacity:1"
       id="rect5045"
       width="5.0441828"
       height="5.3861609"
       x="12.722499"
       y="34.045975" />
    <rect
       style="display:inline;opacity:1;fill:#ff0000;fill-opacity:1;stroke:none;stroke-width:1;stroke-miterlimit:4;stroke-dasharray:none;stroke-opacity:1"
       id="rect5047"
       width="5.3861609"
       height="5.3861609"
       x="21.784927"
       y="34.081181" />
    <rect
       style="display:inline;opacity:1;fill:#ff0000;fill-opacity:1;stroke:none;stroke-width:1;stroke-miterlimit:4;stroke-dasharray:none;stroke-opacity:1"
       id="rect5049"
       width="5.4716558"
       height="5.4716558"
       x="12.20437"
       y="51.205566" />
    <rect
       style="display:inline;opacity:1;fill:#ff0000;fill-opacity:1;stroke:none;stroke-width:1;stroke-miterlimit:4;stroke-dasharray:none;stroke-opacity:1"
       id="rect5053"
       width="5.3006663"
       height="5.4716558"
       x="12.046068"
       y="77.941887" />
    <rect
       style="display:inline;opacity:1;fill:#00ff00;fill-opacity:1;stroke:none;stroke-width:1;stroke-miterlimit:4;stroke-dasharray:none;stroke-opacity:1"
       id="rect4923"
       width="5.6426449"
       height="5.4586453"
       x="2.3290534"
       y="83.479645" />
    <rect
       style="display:inline;opacity:1;fill:#ff0000;fill-opacity:1;stroke:none;stroke-width:1;stroke-miterlimit:4;stroke-dasharray:none;stroke-opacity:1"
       id="rect4945"
       width="5.2151713"
       height="5.2151713"
       x="10.15766"
       y="17.126818" />
    <rect
       style="display:inline;opacity:1;fill:#0000ff;fill-opacity:1;stroke:none;stroke-width:1;stroke-miterlimit:4;stroke-dasharray:none;stroke-opacity:1"
       id="rect4947"
       width="5.6302543"
       height="5.4716554"
       x="22.38339"
       y="74.894981" />
    <rect
       style="display:inline;opacity:1;fill:#00ff00;fill-opacity:1;stroke:none;stroke-width:1;stroke-miterlimit:4;stroke-dasharray:none;stroke-opacity:1"
       id="rect5332"
       width="5.4716558"
       height="5.4716558"
       x="2.2228601"
       y="10.316954" />
  </g>
</svg>
