<svg xmlns="http://www.w3.org/2000/svg" xmlns:xlink="http://www.w3.org/1999/xlink" width="60" height="380" viewBox="0 0 15.875 100.542">
    <defs>
        <linearGradient id="b">
            <stop offset="0" stop-color="#fff"/>
            <stop offset="1" stop-opacity="0"/>
        </linearGradient>
        <linearGradient id="a">
            <stop offset="0" stop-color="#fdfdfd"/>
            <stop offset="1" stop-color="#fdfdfd"/>
        </linearGradient>
        <radialGradient gradientUnits="userSpaceOnUse" gradientTransform="matrix(.4218 0 0 .02673 -115.783 272.324)" r="69.827" fy="856.052" fx="285.494" cy="856.052" cx="285.494" id="d" xlink:href="#a"/>
        <linearGradient gradientUnits="userSpaceOnUse" y2="832.532" x2="279.915" y1="830.884" x1="268.967" id="h" xlink:href="#b" gradientTransform="matrix(.26458 0 0 .26458 -61.725 72.473)"/>
        <clipPath clipPathUnits="userSpaceOnUse" id="j">
            <rect width="15.839" height="10.757" y="288.614" rx="0" ry="0" fill="#606060" stroke-width=".264"/>
        </clipPath>
        <clipPath clipPathUnits="userSpaceOnUse" id="i">
            <rect width="15.839" height="10.757" y="288.614" rx="0" ry="0" fill="#606060" stroke-width=".264"/>
        </clipPath>
        <clipPath clipPathUnits="userSpaceOnUse" id="g">
            <rect width="15.839" height="10.757" y="288.614" rx="0" ry="0" fill="#606060" stroke-width=".264"/>
        </clipPath>
        <clipPath clipPathUnits="userSpaceOnUse" id="f">
            <rect width="66.427" height="45.113" x="257.801" y="-23.027" rx="0" ry="0" fill="#606060" stroke-width=".264"/>
        </clipPath>
        <clipPath clipPathUnits="userSpaceOnUse" id="e">
            <rect width="15.839" height="10.757" y="288.614" rx="0" ry="0" fill="#606060" stroke-width=".264"/>
        </clipPath>
        <clipPath clipPathUnits="userSpaceOnUse" id="c">
            <rect width="15.839" height="10.757" y="288.614" rx="0" ry="0" fill="#606060" stroke-width=".264"/>
        </clipPath>
    </defs>
    <g transform="translate(0 -196.458)">
        <path d="M0 196.458h15.875V297H0z" fill-rule="evenodd"/>
        <rect ry="2.966" rx="3.392" y="224.918" x="8.467" height="44.723" width="6.8" fill="#393750"/>
        <path d="M21.682 295.066L4.64 294.94l-14.418.125-.878-3.47c4.81-1.005 10.75-1.725 16.17-1.72 5.716.005 9.887.466 17.047 1.845z" clip-path="url(#c)" fill="url(#d)" stroke="#8b8b8b" stroke-width=".397"/>
        <path d="M-9.801 292.126c10.904-1.21 21.546-.99 31.75.122l-.033 3.297H-9.801z" clip-path="url(#e)"/>
        <g transform="matrix(.23845 0 0 .23845 -61.472 294.105)" clip-path="url(#f)">
            <path d="M291.232-10.527l6.43-3.034 5.953-.742 4.222.511 5.886 2.16 4.683 4.37z" fill-rule="evenodd"/>
            <g stroke="#fff">
                <g color="#000" fill="none" stroke-linejoin="bevel">
                    <path d="M2.117 188.81l18.113 36.226 65.551 31.913 90.564 13.8 94.877-11.213 60.376-31.913 14.663-30.188-14.663-37.951.324 67.923-33.1-64.473-25.875 96.602-58.651-80.214-40.538 91.427-40.538-75.902-46.576 61.239-17.098-92.852-49.316 62.663 6.037-89.702 44.241 27.296 63.574 32.218 80-16.819 86.466-15.957 31.051-3.666-33.279-62.05 1.366 64.853-64.689-74.392-20.7 91.427-69.001-66.198-75.902 50.026L84.751 80.38l-59.346 55.816 24.151-56.064h34.501l81.077-37.088-18.975 69.864 89.702-24.15 62.101 7.762-66.314-54.334 4.212 46.571-70.726-45.713 66.414-1.725-53.476-15.525-12.938 16.388-49.164-6.9-66.414 44.85-33.333 49.417 9.183 6.647L2.118 188.81z" stroke-width="2.892" transform="matrix(.09825 0 0 .0698 286.195 -16.043)"/>
                    <path d="M133.17 195.51l12.99-80.876-61.407-35.517 32.081-44.697 28.463-4.313 32.776-5.175 41.401 6.9 12.938 10.35 47.438 20.7 18.975 34.501 30.188 30.188 2.803 31.913" stroke-width="2.892" transform="matrix(.09825 0 0 .0698 286.195 -16.043)"/>
                    <path d="M329.01 126.71l-49.16-63.83-59.77-31.05M1.926 188.186L16.11 129.84" stroke-width="2" transform="matrix(.09825 0 0 .0698 286.195 -16.043)"/>
                </g>
            </g>
            <path d="M320.187-2.25l-1.666-4.93" fill="none" stroke="#fff" stroke-width=".2"/>
        </g>
        <path d="M-6.975 292.22l3.149-1.342 1.329.418 1.108-.783 2.215.292.933-.35 3.024.98-1.042.477-9.503.292z" clip-path="url(#i)" fill-rule="evenodd"/>
        <path d="M4.755 281.33h5.772c.653 0 1.18.586 1.18 1.315v4.993c0 .729-.527 1.315-1.18 1.315H4.755c-.653 0-1.18-.586-1.18-1.315v-4.993c0-.729.527-1.315 1.18-1.315z" fill="#606060"/>
        <g font-size="4.63" fill="#fff" stroke-width="2">
            <path d="M1.505 197.863v1.268h.574q.319 0 .493-.165t.174-.47q0-.303-.174-.468-.174-.165-.493-.165h-.574zm-.457-.376H2.08q.568 0 .857.258.292.256.292.75 0 .5-.292.756-.29.255-.857.255h-.574v1.357h-.457v-3.376zM3.73 198.33h.416v2.533H3.73v-2.532zm0-.985h.416v.527H3.73v-.527zM6.633 198.405v.394q-.177-.09-.367-.136-.19-.045-.393-.045-.31 0-.466.095-.154.095-.154.285 0 .144.111.228.111.081.446.156l.142.032q.443.095.629.269.187.172.187.481 0 .353-.28.559-.278.205-.767.205-.203 0-.425-.04-.219-.039-.463-.118v-.43q.23.12.454.181.224.06.443.06.294 0 .453-.1.158-.102.158-.285 0-.17-.115-.26-.113-.09-.5-.174l-.145-.034q-.386-.082-.558-.249-.172-.17-.172-.463 0-.357.253-.552.253-.194.72-.194.23 0 .433.034.204.033.376.101zM7.844 197.612v.719h.857v.323h-.857v1.375q0 .31.084.397.086.089.346.089H8.7v.348h-.427q-.482 0-.665-.179-.183-.18-.183-.655v-1.375h-.305v-.323h.305v-.72h.418zM11.416 199.493v.203H9.504q.027.43.258.656.232.224.646.224.24 0 .464-.06.226-.058.447-.175v.393q-.224.095-.459.145-.235.05-.477.05-.606 0-.96-.353-.353-.353-.353-.954 0-.622.334-.986.337-.366.907-.366.51 0 .807.33.298.328.298.893zM11 199.37q-.004-.342-.192-.545-.185-.204-.493-.204-.348 0-.558.197-.208.197-.24.554L11 199.37z"/>
        </g>
        <g font-size="1.984" fill="#fff" stroke-width="2">
            <path d="M1.737 202.336v-.588h.178v1.508h-.178v-.163q-.056.097-.143.145-.085.046-.205.046-.197 0-.32-.157-.124-.157-.124-.413 0-.255.123-.412.124-.157.32-.157.121 0 .206.047.087.047.143.144zm-.608.378q0 .197.08.31.082.111.223.111.142 0 .223-.111.082-.113.082-.31 0-.196-.082-.308-.081-.112-.223-.112-.141 0-.222.112-.08.112-.08.308zM2.911 202.338q-.03-.018-.066-.026-.035-.009-.077-.009-.152 0-.233.1-.08.097-.08.281v.572h-.18v-1.085h.18v.168q.056-.099.146-.146.09-.049.219-.049.018 0 .04.003.023.002.05.007l.001.184zM3.082 202.828v-.657h.178v.65q0 .154.06.232.06.076.18.076.145 0 .228-.092.084-.092.084-.25v-.616h.178v1.085h-.178v-.167q-.065.1-.151.148-.085.047-.199.047-.187 0-.284-.116-.096-.116-.096-.34zM5.205 202.38q.066-.121.16-.178.092-.057.218-.057.17 0 .262.119.092.118.092.337v.655h-.18v-.65q0-.155-.054-.23-.056-.076-.169-.076-.139 0-.219.092-.08.092-.08.25v.614h-.18v-.65q0-.156-.055-.23-.055-.076-.17-.076-.137 0-.217.093-.08.092-.08.25v.613h-.18v-1.085h.18v.168q.06-.1.145-.147.086-.047.203-.047.118 0 .2.06.084.06.124.174zM1.195 205.574v.575h-.18v-1.498h.18v.165q.056-.097.142-.143.086-.048.205-.048.198 0 .32.157.125.157.125.413t-.124.413q-.123.157-.321.157-.12 0-.205-.047-.086-.047-.142-.144zm.607-.38q0-.196-.082-.307-.08-.113-.222-.113-.141 0-.223.113-.08.111-.08.308t.08.309q.082.111.223.111.142 0 .222-.111.082-.112.082-.31zM2.911 204.818q-.03-.017-.066-.025-.035-.01-.077-.01-.152 0-.233.1-.08.097-.08.282v.571h-.18v-1.085h.18v.169q.056-.1.146-.147.09-.048.219-.048.018 0 .04.003.023.002.05.007l.001.183zM3.48 204.776q-.144 0-.227.113-.083.111-.083.306t.082.307q.083.111.228.111.142 0 .226-.112.083-.112.083-.306 0-.193-.083-.305-.084-.114-.226-.114zm0-.15q.232 0 .365.15.133.151.133.419 0 .266-.133.418-.133.152-.365.152-.234 0-.366-.152-.132-.152-.132-.418 0-.268.132-.419.132-.15.366-.15zM5.055 204.693v.167q-.075-.042-.152-.062-.075-.022-.153-.022-.173 0-.27.11-.095.11-.095.309t.096.309q.096.11.27.11.077 0 .152-.02.077-.022.152-.064v.165q-.074.035-.155.052-.08.018-.17.018-.244 0-.389-.155-.144-.154-.144-.415 0-.266.145-.418.146-.152.4-.152.083 0 .161.017.079.017.152.05zM6.292 205.15v.087h-.82q.012.184.11.28.1.096.278.096.102 0 .198-.025.097-.025.192-.075v.168q-.096.04-.197.062-.1.022-.204.022-.26 0-.412-.152-.151-.15-.151-.408 0-.267.143-.423.145-.157.389-.157.219 0 .346.142.128.14.128.382zm-.179-.053q-.002-.146-.082-.233-.08-.088-.211-.088-.15 0-.24.085-.089.084-.102.237h.635zM7.272 204.683v.169q-.075-.039-.157-.058-.081-.02-.168-.02-.133 0-.2.041-.066.04-.066.122 0 .062.048.098.047.035.19.067l.062.014q.19.04.269.115.08.073.08.206 0 .151-.12.24-.119.088-.328.088-.087 0-.182-.018-.094-.016-.199-.05v-.184q.099.051.195.077.096.026.19.026.126 0 .193-.043.068-.044.068-.122 0-.073-.05-.112-.048-.038-.213-.074l-.062-.015q-.166-.035-.24-.106-.073-.073-.073-.199 0-.153.108-.236.109-.084.308-.084.1 0 .186.015.088.014.161.044zM8.307 204.683v.169q-.076-.039-.157-.058-.081-.02-.169-.02-.132 0-.2.041-.065.04-.065.122 0 .062.047.098.048.035.191.067l.061.014q.19.04.27.115.08.073.08.206 0 .151-.12.24-.12.088-.328.088-.088 0-.183-.018-.094-.016-.198-.05v-.184q.099.051.195.077.095.026.19.026.125 0 .193-.043.068-.044.068-.122 0-.073-.05-.112-.048-.038-.214-.074l-.062-.015q-.165-.035-.239-.106-.073-.073-.073-.199 0-.153.108-.236.109-.084.308-.084.099 0 .186.015.087.014.161.044zM9.07 204.776q-.143 0-.226.113-.083.111-.083.306t.082.307q.083.111.228.111.142 0 .225-.112.084-.112.084-.306 0-.193-.084-.305-.083-.114-.225-.114zm0-.15q.233 0 .366.15.133.151.133.419 0 .266-.133.418-.133.152-.365.152-.234 0-.367-.152-.131-.152-.131-.418 0-.268.131-.419.133-.15.367-.15zM10.492 204.818q-.03-.017-.066-.025-.035-.01-.077-.01-.152 0-.233.1-.08.097-.08.282v.571h-.18v-1.085h.18v.169q.056-.1.146-.147.09-.048.219-.048.018 0 .04.003.023.002.05.007l.001.183z"/>
        </g>
        <g font-size="2.646" fill="#fff" stroke-width="2">
            <path d="M6.084 278.455q-.285 0-.453.212-.166.212-.166.578 0 .364.166.576.168.212.453.212.284 0 .45-.212.166-.212.166-.576 0-.366-.167-.578-.165-.212-.45-.212zm0-.212q.405 0 .648.273.243.271.243.729 0 .456-.243.728-.243.272-.648.272-.407 0-.652-.272-.242-.271-.242-.728 0-.458.242-.729.245-.273.652-.273zM7.354 278.278h.262v1.172q0 .31.112.447.113.136.365.136.25 0 .363-.136.112-.137.112-.447v-1.172h.262v1.204q0 .378-.187.57-.186.193-.55.193-.366 0-.553-.193-.186-.192-.186-.57v-1.204zM9.054 278.278h1.631v.22h-.684v1.71h-.263v-1.71h-.684v-.22z"/>
        </g>
        <rect width="7.159" height="44.723" x=".46" y="224.918" rx="3.571" ry="2.966" fill="#393750"/>
        <g font-size="2.646" fill="#fff" stroke-width="2">
            <path d="M3.939 243.51v1.5h.315q.4 0 .584-.181.186-.181.186-.571 0-.388-.186-.567-.185-.181-.584-.181H3.94zm-.26-.215h.535q.56 0 .823.234.262.233.262.729 0 .498-.263.732-.264.234-.822.234h-.536v-1.929zM5.714 243.295h1.22v.22h-.959v.57h.919v.22h-.919v.7h.982v.22H5.714v-1.93zM8.828 243.444v.275q-.132-.123-.282-.183-.149-.061-.317-.061-.33 0-.506.203-.176.201-.176.584 0 .38.176.584.176.201.506.201.168 0 .317-.06.15-.061.282-.184v.273q-.137.093-.291.14-.152.046-.323.046-.438 0-.69-.268-.252-.269-.252-.732 0-.465.252-.733.252-.269.69-.269.173 0 .326.047.153.045.288.137zM9.878 243.552l-.354.96h.71l-.356-.96zm-.147-.257h.296l.735 1.93h-.272l-.175-.496h-.87l-.176.495h-.275l.737-1.929zM10.57 243.295h.28l.536.794.53-.794h.28l-.681 1.01v.92h-.262v-.92l-.683-1.01z"/>
        </g>
        <g font-size="2.646" fill="#fff" stroke-width="2">
            <path d="M2.343 259.285h1.22v.22h-.96v.57h.92v.22h-.92v.699h.983v.22H2.343v-1.93zM4.012 259.285h.352l.855 1.613v-1.613h.253v1.929h-.351l-.856-1.614v1.614h-.253v-1.93zM6.489 261.214l-.737-1.93h.273l.611 1.625.612-1.624h.272l-.735 1.929h-.296zM9.425 259.462q-.284 0-.452.212-.167.212-.167.577t.167.576q.168.212.452.212.284 0 .45-.212.166-.211.166-.576t-.166-.577q-.166-.212-.45-.212zm0-.212q.406 0 .649.273.243.27.243.728 0 .456-.243.729-.243.271-.649.271-.407 0-.65-.271-.244-.271-.244-.729 0-.457.243-.728.244-.273.651-.273zM10.695 259.285h.262v1.172q0 .31.113.447.112.135.364.135.25 0 .363-.135.113-.137.113-.447v-1.172h.262v1.204q0 .377-.188.57-.186.192-.55.192-.365 0-.553-.192-.186-.193-.186-.57v-1.204zM12.395 259.285h1.632v.22h-.685v1.709h-.262v-1.71h-.685v-.22z"/>
        </g>
        <g font-size="2.646" fill="#fff" stroke-width="2">
            <path d="M7.64 206.893v1.5h.315q.4 0 .584-.181.186-.18.186-.571 0-.388-.186-.567-.185-.181-.584-.181H7.64zm-.261-.215h.536q.56 0 .823.234.262.233.262.729 0 .499-.263.732-.264.234-.822.234h-.536v-1.929zM10.33 207.703q.083.028.162.121.08.093.16.256l.265.527h-.28l-.247-.495q-.095-.193-.186-.257-.089-.063-.244-.063h-.284v.815h-.261v-1.929h.589q.33 0 .493.139.163.138.163.417 0 .182-.085.302-.084.12-.246.167zm-.654-.81v.685h.328q.189 0 .284-.087.097-.088.097-.257 0-.17-.097-.255-.095-.086-.284-.086h-.328zM11.254 206.678h.261v1.93h-.26v-1.93zM12.532 208.607l-.736-1.929h.272l.611 1.624.613-1.624h.271l-.735 1.93h-.296zM13.843 206.678h1.22v.22h-.959v.571h.919v.22h-.919v.699h.982v.22h-1.243v-1.93z"/>
        </g>
        <g font-size="2.646" fill="#fff" stroke-width="2">
            <path d="M4.896 223.011h1.631v.22h-.684v1.71H5.58v-1.71h-.684v-.22zM7.7 224.036q.084.028.163.121.08.093.16.256l.265.527h-.28l-.247-.495q-.095-.193-.186-.257-.089-.063-.244-.063h-.284v.815h-.261v-1.929h.589q.33 0 .493.139.163.138.163.417 0 .182-.085.302-.084.12-.246.167zm-.653-.81v.684h.328q.188 0 .284-.086.097-.088.097-.257 0-.17-.097-.255-.096-.086-.284-.086h-.328zM8.625 223.011h.261v1.93h-.26v-1.93zM10.72 224.665v-.518h-.425v-.215h.684v.829q-.15.107-.333.162-.182.055-.389.055-.452 0-.708-.264-.254-.265-.254-.736 0-.473.254-.737.256-.265.708-.265.189 0 .358.047.17.046.314.137v.278q-.145-.123-.308-.185-.162-.062-.342-.062-.354 0-.532.198-.177.197-.177.589 0 .39.177.588.178.197.532.197.138 0 .247-.023.108-.025.195-.075z"/>
        </g>
        <g font-size="2.646" fill="#fff" stroke-width="2">
            <path d="M2.95 206.678h.26v1.93h-.26v-1.93zM3.73 206.678h.35l.856 1.614v-1.614h.253v1.93h-.351l-.855-1.614v1.613H3.73v-1.929z"/>
        </g>
        <g clip-path="url(#j)" font-size="1.984" fill="#fff" stroke-width="2">
            <path d="M1.393 295.418v.168q-.075-.039-.157-.058-.081-.02-.168-.02-.133 0-.2.041-.066.041-.066.122 0 .062.048.098.047.035.19.067l.062.014q.19.04.269.115.08.074.08.206 0 .152-.12.24-.119.088-.328.088-.087 0-.182-.017-.094-.017-.199-.05v-.185q.099.051.195.078.096.025.19.025.126 0 .194-.043.067-.043.067-.122 0-.073-.05-.111-.048-.039-.213-.075l-.062-.014q-.166-.035-.24-.107-.073-.073-.073-.199 0-.153.108-.236.109-.083.308-.083.1 0 .186.014.088.015.161.044zM2.789 295.51q-.144 0-.227.113-.083.111-.083.306t.082.307q.083.112.228.112.142 0 .225-.113.084-.112.084-.306 0-.193-.084-.305-.083-.113-.225-.113zm0-.15q.232 0 .365.15.133.152.133.42 0 .266-.133.418-.133.15-.365.15-.234 0-.367-.15-.131-.152-.131-.419t.131-.418q.133-.152.367-.152zM4.195 296.043v-.657h.178v.65q0 .154.06.231.06.077.18.077.144 0 .228-.092.084-.092.084-.251v-.615h.178v1.085h-.178v-.167q-.065.099-.151.147-.085.048-.199.048-.187 0-.284-.116-.096-.117-.096-.34zM6.28 295.077v.309h.368v.138H6.28v.59q0 .132.035.17.037.038.149.038h.183v.149h-.183q-.207 0-.285-.077-.079-.077-.079-.28v-.59h-.13v-.138h.13v-.308h.18zM8.417 295.816v.655H8.24v-.65q0-.153-.06-.23-.06-.076-.18-.076-.145 0-.228.092-.083.092-.083.25v.614h-.18v-1.508h.18v.591q.063-.098.15-.146.087-.049.2-.049.187 0 .283.117.096.115.096.34zM9.579 296.308v.576h-.18v-1.498h.18v.164q.056-.097.141-.143.087-.048.206-.048.197 0 .32.157.124.157.124.413t-.124.413q-.123.157-.32.157-.12 0-.206-.047-.085-.047-.141-.144zm.606-.379q0-.196-.081-.308-.08-.112-.222-.112-.141 0-.223.112-.08.112-.08.308 0 .197.08.31.082.11.223.11.142 0 .222-.11.081-.113.081-.31zM11.718 295.51q-.143 0-.226.113-.084.111-.084.306t.083.307q.083.112.227.112.143 0 .226-.113.083-.112.083-.306 0-.193-.083-.305-.083-.113-.226-.113zm0-.15q.233 0 .366.15.132.152.132.42 0 .266-.132.418-.133.15-.366.15-.233 0-.366-.15-.132-.152-.132-.419t.132-.418q.133-.152.366-.152zM13.143 294.963h.178v1.508h-.178v-1.508zM15.253 295.884v.087h-.82q.012.184.11.28.1.097.278.097.103 0 .198-.025.097-.026.192-.076v.169q-.096.04-.196.062-.101.02-.205.02-.26 0-.412-.15-.15-.151-.15-.41 0-.266.143-.422.144-.157.388-.157.22 0 .346.142.128.14.128.383zm-.178-.053q-.002-.146-.083-.233-.08-.087-.21-.087-.15 0-.24.084t-.103.237h.636z"/>
        </g>
        <g font-size="2.646" fill="#fff" stroke-width="2">
            <path d="M4.396 269.112h.39l.491 1.313.495-1.313h.39v1.929h-.255v-1.694l-.498 1.323h-.262l-.497-1.323v1.694h-.254v-1.929zM6.646 269.112h.262v1.172q0 .31.112.447.113.135.365.135.25 0 .363-.135.112-.137.112-.447v-1.172h.262v1.204q0 .377-.187.57-.186.192-.55.192-.366 0-.553-.192-.186-.193-.186-.57v-1.204zM8.346 269.112h1.631v.22h-.684v1.709H9.03v-1.71h-.684v-.219zM10.236 269.112h1.22v.22h-.96v.57h.92v.22h-.92v.7h.983v.219h-1.243v-1.929z"/>
        </g>
        <g font-size="2.646" fill="#fff" stroke-width=".3" stroke-miterlimit="10">
            <path d="M6.258 236.458v-.518h-.426v-.215h.684v.828q-.15.108-.333.163-.182.054-.389.054-.452 0-.708-.263-.254-.265-.254-.737t.254-.736q.256-.265.708-.265.189 0 .358.047.17.046.314.137v.277q-.145-.122-.307-.184-.163-.062-.343-.062-.354 0-.532.197-.177.198-.177.59 0 .39.177.587.178.198.532.198.138 0 .247-.023.108-.025.195-.075zM7.64 235.061l-.355.96h.71l-.356-.96zm-.148-.257h.296l.735 1.929H8.25l-.175-.495h-.87l-.175.495h-.276l.737-1.929zM8.803 234.804h.261v1.929h-.26v-1.929zM9.583 234.804h.352l.855 1.614v-1.614h.253v1.929h-.351l-.855-1.614v1.614h-.254v-1.929z"/>
        </g>
        <g font-size="2.646" fill="#fff" stroke-width=".999">
            <path d="M1.167 214.435h1.108v.22h-.847v.568h.765v.22h-.765v.92h-.261v-1.928zM3.6 215.46q.085.028.164.12.08.094.16.257l.265.527h-.28l-.248-.495q-.095-.194-.186-.257-.089-.063-.244-.063h-.284v.815h-.26v-1.929h.588q.33 0 .494.138.163.138.163.418 0 .182-.086.302-.084.12-.245.167zm-.653-.81v.684h.328q.189 0 .284-.086.097-.088.097-.257 0-.17-.097-.255-.095-.087-.284-.087h-.328zM4.526 214.435h1.22v.22h-.96v.57h.92v.22h-.92v.7h.983v.219H4.526v-1.929zM6.978 214.612q-.284 0-.452.212-.167.212-.167.577t.167.577q.168.211.452.211.284 0 .45-.211.166-.212.166-.577t-.167-.577q-.165-.212-.45-.212zm.365 1.717l.344.376h-.315l-.286-.309-.066.004-.042.001q-.407 0-.651-.271-.243-.273-.243-.729 0-.457.243-.728.244-.273.65-.273t.65.273q.242.27.242.728 0 .336-.135.575-.135.24-.39.353z"/>
        </g>
        <g font-size="2.646" fill="#fff" stroke-width=".999">
            <path d="M10.63 215.46q.084.028.163.12.08.094.16.257l.265.527h-.28l-.247-.495q-.096-.194-.186-.257t-.244-.063h-.285v.815h-.26v-1.929h.588q.331 0 .494.138.163.138.163.418 0 .182-.085.302-.084.12-.246.167zm-.654-.81v.684h.328q.19 0 .285-.086.097-.088.097-.257 0-.17-.097-.255-.096-.087-.285-.087h-.328zM11.555 214.435h1.22v.22h-.959v.57h.919v.22h-.919v.7h.982v.219h-1.243v-1.929zM14.38 214.498v.255q-.148-.071-.28-.106-.132-.035-.254-.035-.214 0-.33.083-.115.082-.115.235 0 .128.076.194.078.064.292.104l.158.033q.292.055.43.196.14.14.14.375 0 .28-.189.425-.187.144-.55.144-.137 0-.292-.03-.154-.032-.32-.092v-.27q.16.09.312.135.152.045.3.045.223 0 .345-.087.121-.088.121-.251 0-.142-.088-.222-.086-.08-.285-.12l-.16-.031q-.291-.059-.422-.183-.13-.124-.13-.345 0-.255.18-.403.18-.147.497-.147.136 0 .276.025.141.024.288.073z"/>
        </g>
    </g>
</svg>
