<svg xmlns="http://www.w3.org/2000/svg" xmlns:xlink="http://www.w3.org/1999/xlink" width="60" height="380" viewBox="0 0 15.875 100.542">
    <defs>
        <linearGradient id="b">
            <stop offset="0" stop-color="#fff"/>
            <stop offset="1" stop-opacity="0"/>
        </linearGradient>
        <linearGradient id="a">
            <stop offset="0" stop-color="#fdfdfd"/>
            <stop offset="1" stop-color="#fdfdfd"/>
        </linearGradient>
        <radialGradient gradientUnits="userSpaceOnUse" gradientTransform="matrix(.4218 0 0 .02673 -115.783 272.324)" r="69.827" fy="856.052" fx="285.494" cy="856.052" cx="285.494" id="d" xlink:href="#a"/>
        <linearGradient gradientUnits="userSpaceOnUse" y2="832.532" x2="279.915" y1="830.884" x1="268.967" id="g" xlink:href="#b" gradientTransform="matrix(.26458 0 0 .26458 -61.725 72.473)"/>
        <clipPath clipPathUnits="userSpaceOnUse" id="i">
            <rect width="15.839" height="10.757" y="288.614" rx="0" ry="0" fill="#606060" stroke-width=".264"/>
        </clipPath>
        <clipPath clipPathUnits="userSpaceOnUse" id="h">
            <rect width="15.839" height="10.757" y="288.614" rx="0" ry="0" fill="#606060" stroke-width=".264"/>
        </clipPath>
        <clipPath clipPathUnits="userSpaceOnUse" id="f">
            <rect width="15.839" height="10.757" y="288.614" rx="0" ry="0" fill="#606060" stroke-width=".264"/>
        </clipPath>
        <clipPath clipPathUnits="userSpaceOnUse" id="e">
            <rect width="15.839" height="10.757" y="288.614" rx="0" ry="0" fill="#606060" stroke-width=".264"/>
        </clipPath>
        <clipPath clipPathUnits="userSpaceOnUse" id="c">
            <rect width="15.839" height="10.757" y="288.614" rx="0" ry="0" fill="#606060" stroke-width=".264"/>
        </clipPath>
    </defs>
    <path d="M0 0h15.875v100.542H0z" fill-rule="evenodd"/>
    <path d="M21.682 295.066L4.64 294.94l-14.418.125-.52-2.45c4.81-1.005 10.73-2.423 15.813-2.74 5.697-.355 9.766.612 17.046 1.845z" clip-path="url(#c)" transform="matrix(-1 0 0 .82096 15.84 -143.593)" fill="url(#d)" stroke="#8b8b8b" stroke-width=".397"/>
    <path d="M-9.801 292.126c10.904-1.21 21.546-.99 31.75.122l-.033 3.297H-9.801z" clip-path="url(#e)" transform="matrix(-1 0 0 .79322 15.84 -135.347)"/>
    <path d="M-6.975 292.22l3.149-1.342 1.329.418 1.608.593-1.286-.21 3.934-1.224 3.024.98-1.042.477-9.503.292z" clip-path="url(#h)" transform="matrix(-1 0 0 1 12.367 -195.15)" fill-rule="evenodd"/>
    <g clip-path="url(#i)" transform="translate(-.036 -196.987)" font-size="1.984" fill="#fff" stroke-width="2">
        <path d="M1.393 295.418v.168q-.075-.039-.157-.058-.081-.02-.168-.02-.133 0-.2.041-.066.041-.066.122 0 .062.048.098.047.035.19.067l.062.014q.19.04.269.115.08.074.08.206 0 .152-.12.24-.119.088-.328.088-.087 0-.182-.017-.094-.017-.199-.05v-.185q.099.051.195.078.096.025.19.025.126 0 .194-.043.067-.043.067-.122 0-.073-.05-.111-.048-.039-.213-.075l-.062-.014q-.166-.035-.24-.107-.073-.073-.073-.199 0-.153.108-.236.109-.083.308-.083.1 0 .186.014.088.015.161.044zM2.789 295.51q-.144 0-.227.113-.083.111-.083.306t.082.307q.083.112.228.112.142 0 .225-.113.084-.112.084-.306 0-.193-.084-.305-.083-.113-.225-.113zm0-.15q.232 0 .365.15.133.152.133.42 0 .266-.133.418-.133.15-.365.15-.234 0-.367-.15-.131-.152-.131-.419t.131-.418q.133-.152.367-.152zM4.195 296.043v-.657h.178v.65q0 .154.06.231.06.077.18.077.144 0 .228-.092.084-.092.084-.251v-.615h.178v1.085h-.178v-.167q-.065.099-.151.147-.085.048-.199.048-.187 0-.284-.116-.096-.117-.096-.34zM6.28 295.077v.309h.368v.138H6.28v.59q0 .132.035.17.037.038.149.038h.183v.149h-.183q-.207 0-.285-.077-.079-.077-.079-.28v-.59h-.13v-.138h.13v-.308h.18zM8.417 295.816v.655H8.24v-.65q0-.153-.06-.23-.06-.076-.18-.076-.145 0-.228.092-.083.092-.083.25v.614h-.18v-1.508h.18v.591q.063-.098.15-.146.087-.049.2-.049.187 0 .283.117.096.115.096.34zM9.579 296.308v.576h-.18v-1.498h.18v.164q.056-.097.141-.143.087-.048.206-.048.197 0 .32.157.124.157.124.413t-.124.413q-.123.157-.32.157-.12 0-.206-.047-.085-.047-.141-.144zm.606-.379q0-.196-.081-.308-.08-.112-.222-.112-.141 0-.223.112-.08.112-.08.308 0 .197.08.31.082.11.223.11.142 0 .222-.11.081-.113.081-.31zM11.718 295.51q-.143 0-.226.113-.084.111-.084.306t.083.307q.083.112.227.112.143 0 .226-.113.083-.112.083-.306 0-.193-.083-.305-.083-.113-.226-.113zm0-.15q.233 0 .366.15.132.152.132.42 0 .266-.132.418-.133.15-.366.15-.233 0-.366-.15-.132-.152-.132-.419t.132-.418q.133-.152.366-.152zM13.143 294.963h.178v1.508h-.178v-1.508zM15.253 295.884v.087h-.82q.012.184.11.28.1.097.278.097.103 0 .198-.025.097-.026.192-.076v.169q-.096.04-.196.062-.101.02-.205.02-.26 0-.412-.15-.15-.151-.15-.41 0-.266.143-.422.144-.157.388-.157.22 0 .346.142.128.14.128.383zm-.178-.053q-.002-.146-.083-.233-.08-.087-.21-.087-.15 0-.24.084t-.103.237h.636z"/>
    </g>
    <path transform="matrix(-1 0 0 1 7.778 -195.304)" clip-path="url(#h)" d="M-6.975 292.22l3.149-1.342 1.329.418 1.608.593-1.286-.21 3.934-1.224 3.024.98-1.042.477-9.503.292z" fill-rule="evenodd"/>
    <g style="-inkscape-font-specification:sans-serif" font-weight="400" font-size="3.969" font-family="sans-serif" fill="#fff">
        <path d="M1.367 1.126v1.087h.492q.273 0 .422-.141.15-.141.15-.403 0-.26-.15-.401-.149-.142-.422-.142h-.492zM.975.805h.884q.486 0 .734.22.25.22.25.644 0 .428-.25.647-.248.22-.734.22h-.492v1.162H.975V.805zM3.252 2.841V1.527h.357v1.3q0 .309.12.464.12.153.36.153.29 0 .456-.184.169-.184.169-.502v-1.23h.356v2.17h-.356v-.333q-.13.197-.303.294-.17.095-.397.095-.374 0-.568-.232-.194-.233-.194-.68zM5.812.683h.357v3.015h-.357V.683zM8.297 1.591v.338q-.152-.078-.314-.117-.163-.038-.337-.038-.266 0-.4.081-.131.081-.131.244 0 .124.094.196.095.07.382.134l.122.027q.38.081.54.23.16.148.16.413 0 .302-.24.479-.239.176-.657.176-.175 0-.365-.035-.188-.033-.397-.1V3.25q.198.103.39.155.191.05.38.05.251 0 .387-.085.136-.087.136-.244 0-.145-.1-.223-.096-.077-.427-.149l-.124-.029q-.332-.07-.48-.213-.146-.146-.146-.397 0-.307.217-.473.217-.167.616-.167.198 0 .372.03.174.028.322.086zM10.84 2.524v.174H9.2q.023.368.22.562.2.192.555.192.205 0 .397-.05.194-.051.384-.152v.337q-.192.082-.394.124-.201.043-.408.043-.52 0-.824-.302-.302-.303-.302-.818 0-.533.286-.845.29-.314.777-.314.438 0 .692.283.256.281.256.765zm-.357-.105q-.004-.293-.165-.467-.16-.175-.423-.175-.298 0-.478.17-.179.168-.206.474l1.272-.002z"/>
    </g>
    <g style="-inkscape-font-specification:sans-serif" font-weight="400" font-size="1.984" font-family="sans-serif" fill="#fff">
        <path d="M2.954 8.094V8.3q-.1-.092-.212-.138-.11-.045-.237-.045-.248 0-.38.152-.131.151-.131.438 0 .286.131.438.132.151.38.151.126 0 .237-.045.113-.046.212-.138v.205q-.103.07-.218.104-.115.035-.243.035-.328 0-.517-.2-.189-.202-.189-.55 0-.349.19-.55.188-.2.516-.2.13 0 .245.034.115.034.216.103zM3.258 7.982h.196v1.282h.704v.165h-.9V7.982zM4.363 7.982h.195v.612l.65-.612h.251l-.718.675.77.772h-.258l-.695-.697v.697h-.195V7.982z"/>
    </g>
    <g style="-inkscape-font-specification:sans-serif" font-weight="400" font-size="1.984" font-family="sans-serif" fill="#fff">
        <path d="M11.502 6.142v.207q-.099-.092-.21-.138-.112-.045-.238-.045-.248 0-.38.152-.132.151-.132.438 0 .286.132.438.132.15.38.15.126 0 .237-.045.112-.045.211-.137v.204q-.102.07-.218.105-.114.035-.242.035-.328 0-.517-.2-.19-.202-.19-.55 0-.349.19-.55.189-.201.517-.201.13 0 .244.035.116.034.216.103zM11.807 6.031h.195v1.282h.705v.165h-.9V6.03zM12.911 6.031h.196v.611l.649-.611h.252l-.718.674.77.773h-.258l-.695-.697v.697h-.196V6.03zM11.006 8.644q-.213 0-.339.16-.125.158-.125.432t.125.432q.126.16.34.16.212 0 .336-.16.125-.158.125-.432t-.125-.433q-.124-.159-.337-.159zm0-.159q.304 0 .487.205.182.203.182.546 0 .342-.182.547-.183.203-.487.203-.305 0-.488-.203-.182-.204-.182-.547 0-.343.182-.546.183-.205.488-.205zM11.959 8.512h.196v.878q0 .233.085.336.084.101.273.101.188 0 .272-.101.084-.103.084-.336v-.878h.197v.903q0 .282-.14.427-.14.144-.413.144-.274 0-.415-.144-.14-.145-.14-.427v-.903zM13.234 8.512h1.224v.164h-.514v1.282h-.197V8.676h-.513v-.164z"/>
    </g>
    <g style="-inkscape-font-specification:sans-serif" font-weight="400" font-size="1.984" font-family="sans-serif" fill="#fff">
        <path d="M5.656 17.496H6.88v.165h-.514v1.282H6.17V17.66h-.514v-.165zM7.76 18.265q.063.021.122.09.06.07.12.193l.199.395h-.21l-.186-.371q-.071-.146-.14-.193-.066-.047-.182-.047h-.214v.61h-.195v-1.446h.442q.248 0 .37.104t.122.313q0 .137-.064.227-.063.09-.184.125zm-.49-.608v.514h.246q.141 0 .213-.065.072-.066.072-.193t-.072-.19q-.072-.066-.213-.066h-.247zM8.453 17.496h.196v1.447h-.196v-1.447zM10.025 18.737v-.389h-.32v-.16h.514v.62q-.114.08-.25.122-.137.041-.292.041-.339 0-.53-.198-.192-.198-.192-.552 0-.355.191-.552.192-.199.531-.199.142 0 .269.035.128.035.235.103v.208q-.108-.092-.23-.139-.123-.046-.257-.046-.266 0-.4.148-.132.148-.132.442 0 .293.132.44.134.15.4.15.103 0 .185-.018.081-.019.146-.056z"/>
    </g>
    <g style="-inkscape-font-specification:sans-serif" font-weight="400" font-size="1.984" font-family="sans-serif" fill="#fff">
        <path d="M8.881 28.722q.063.021.122.091.06.07.12.192l.2.395h-.211l-.185-.37q-.072-.146-.14-.194-.067-.047-.183-.047h-.213v.611h-.196v-1.446h.442q.248 0 .37.103.122.104.122.313 0 .137-.064.227-.063.09-.184.125zm-.49-.608v.514h.246q.142 0 .213-.065.073-.066.073-.193t-.073-.19q-.071-.065-.213-.065h-.246zM9.575 27.954h.915v.164h-.72v.429h.69v.164h-.69v.525h.737v.164h-.932v-1.446zM11.694 28.001v.191q-.111-.053-.21-.08-.099-.026-.191-.026-.16 0-.247.062-.086.062-.086.177 0 .096.057.145.058.048.219.078l.118.025q.219.041.323.147.104.105.104.28 0 .211-.141.32-.14.108-.413.108-.103 0-.219-.023-.115-.023-.24-.069v-.201q.12.066.234.1.115.034.225.034.168 0 .259-.066.09-.066.09-.188 0-.106-.065-.166-.065-.06-.214-.09l-.12-.024q-.218-.043-.316-.136-.098-.093-.098-.259 0-.192.135-.302.135-.11.373-.11.101 0 .207.018.106.018.216.055zM12.09 27.954h.915v.164h-.719v.429h.689v.164h-.689v.525h.736v.164h-.932v-1.446zM13.142 27.954h1.223v.164h-.513V29.4h-.197v-1.282h-.513v-.164z"/>
    </g>
    <g style="-inkscape-font-specification:sans-serif" font-weight="400" font-size="1.984" font-family="sans-serif" fill="#fff">
        <path d="M8.881 38.644q.063.021.122.09.06.07.12.193l.2.395h-.211l-.185-.371q-.072-.145-.14-.193-.067-.047-.183-.047h-.213v.611h-.196v-1.447h.442q.248 0 .37.104t.122.313q0 .137-.064.227-.063.09-.184.125zm-.49-.608v.514h.246q.142 0 .213-.065.073-.066.073-.193t-.073-.19q-.071-.066-.213-.066h-.246z"/>
        <path d="M9.98 38.068l-.266.72h.532l-.267-.72zm-.111-.193h.221l.552 1.447h-.204l-.131-.371h-.653l-.131.371h-.207l.553-1.447zM10.854 37.875h.264l.641 1.21v-1.21h.19v1.447h-.264l-.641-1.21v1.21h-.19v-1.447zM13.325 39.116v-.389h-.32v-.16h.514v.62q-.114.08-.25.122-.137.041-.292.041-.34 0-.531-.197-.19-.2-.19-.553 0-.354.19-.552.192-.199.53-.199.142 0 .27.035.127.035.235.103v.208q-.109-.092-.23-.138-.123-.047-.258-.047-.265 0-.399.148-.133.149-.133.442 0 .293.133.441.134.148.4.148.103 0 .184-.017.082-.018.147-.056zM13.877 37.875h.915v.165h-.72v.428h.69v.165h-.69v.524h.737v.165h-.932v-1.447z"/>
    </g>
    <g style="-inkscape-font-specification:sans-serif" font-weight="400" font-size="1.984" font-family="sans-serif" fill="#fff">
        <path d="M8.881 33.692q.063.022.122.091.06.07.12.192l.2.396h-.211L8.927 34q-.072-.146-.14-.193-.067-.048-.183-.048h-.213v.612h-.196v-1.447h.442q.248 0 .37.104.122.103.122.313 0 .136-.064.226-.063.09-.184.125zm-.49-.607v.513h.246q.142 0 .213-.065.073-.065.073-.192t-.073-.191q-.071-.065-.213-.065h-.246zM9.575 32.924h.915v.165h-.72v.428h.69v.165h-.69v.524h.737v.165h-.932v-1.447zM11.023 33.085v.543h.246q.136 0 .21-.07.076-.071.076-.202 0-.13-.075-.2-.075-.071-.211-.071h-.246zm-.196-.161h.442q.243 0 .367.11.125.11.125.322 0 .214-.125.324-.124.11-.367.11h-.246v.58h-.196v-1.446zM12.024 32.924h.915v.165h-.719v.428h.69v.165h-.69v.524h.737v.165h-.933v-1.447zM13.76 33.117l-.266.72h.532l-.266-.72zm-.11-.193h.221l.552 1.447h-.204L14.087 34h-.652l-.132.37h-.206l.552-1.446zM14.277 32.924h1.224v.165h-.514v1.282h-.196v-1.282h-.514v-.165z"/>
    </g>
    <g style="-inkscape-font-specification:sans-serif" font-weight="400" font-size="1.984" font-family="sans-serif" fill="#fff">
        <path d="M3.162 45.413v1.125h.236q.3 0 .438-.136.14-.135.14-.428 0-.29-.14-.425-.139-.136-.438-.136h-.236zm-.196-.16h.402q.42 0 .617.175.197.174.197.546 0 .374-.198.55-.197.175-.616.175h-.402v-1.447zM4.47 45.252h.197v.88q0 .232.085.334.084.102.273.102.188 0 .272-.102.084-.102.084-.335v-.879h.197v.903q0 .283-.14.428-.14.144-.413.144-.274 0-.415-.144-.14-.145-.14-.428v-.903zM6.632 46.02q.063.022.122.092.06.07.12.192l.2.395h-.211l-.185-.371q-.072-.145-.14-.193-.066-.047-.183-.047h-.213v.611h-.196v-1.447h.442q.248 0 .37.104t.122.313q0 .137-.064.227-.063.09-.184.125zm-.49-.607v.514h.246q.142 0 .213-.065.073-.066.073-.193t-.073-.19q-.071-.066-.213-.066h-.246z"/>
        <path d="M7.73 45.445l-.265.72h.532l-.267-.72zm-.11-.193h.222l.55 1.447H8.19l-.131-.371h-.652l-.132.371h-.207l.553-1.447zM8.25 45.252h1.223v.165H8.96V46.7h-.197v-1.282h-.514v-.165zM9.667 45.252h.196V46.7h-.196v-1.447zM10.84 45.385q-.214 0-.34.159-.125.159-.125.433 0 .273.125.432.126.16.34.16.213 0 .337-.16.125-.159.125-.432 0-.274-.125-.433-.124-.159-.338-.159zm0-.159q.304 0 .486.205.182.203.182.546 0 .342-.182.547-.182.203-.487.203t-.488-.203q-.182-.204-.182-.547 0-.343.182-.546.183-.205.488-.205zM11.814 45.252h.264l.641 1.21v-1.21h.19V46.7h-.263l-.642-1.21v1.21h-.19v-1.447z"/>
    </g>
    <g style="-inkscape-font-specification:sans-serif" font-weight="400" font-size="1.984" font-family="sans-serif" fill="#fff">
        <path d="M5.057 54.774V55.9h.236q.3 0 .438-.135.14-.136.14-.429 0-.29-.14-.425-.138-.136-.438-.136h-.236zm-.196-.16h.402q.42 0 .617.175.197.174.197.546 0 .374-.198.55-.197.175-.616.175h-.402v-1.446zM6.388 54.614h.915v.164h-.72v.429h.69v.164h-.69v.524h.737v.165h-.932v-1.446zM7.64 54.614h.196v1.281h.704v.165h-.9v-1.446zM9.275 54.806l-.266.72h.532l-.266-.72zm-.11-.192h.221l.551 1.446h-.203l-.132-.37H8.95l-.132.37h-.206l.552-1.446zM9.794 54.614h.21l.401.594.399-.594h.21l-.512.757v.69h-.196v-.69l-.512-.757z"/>
    </g>
    <g style="-inkscape-font-specification:sans-serif" font-weight="400" font-size="1.984" font-family="sans-serif" fill="#fff">
        <path d="M2.97 64.035l-.266.72h.532l-.267-.72zm-.111-.193h.222l.551 1.447h-.203l-.132-.371h-.652l-.132.371h-.206l.552-1.447zM3.842 63.842h.292l.37.985.37-.985h.292v1.447h-.191v-1.27l-.373.992h-.197l-.373-.992v1.27h-.19v-1.447zM5.747 64.003v.544h.246q.137 0 .212-.07.074-.072.074-.202t-.074-.201q-.075-.07-.212-.07h-.246zm-.195-.16h.441q.244 0 .368.11.125.11.125.322 0 .214-.125.323-.124.11-.368.11h-.246v.581h-.195v-1.447zM6.75 63.842h.195v1.282h.704v.165h-.9v-1.447zM7.854 63.842h.195v1.447h-.195v-1.447zM8.238 63.842h1.224v.165H8.95v1.282h-.197v-1.282h-.514v-.165zM9.634 63.842h.196v.88q0 .232.085.335.084.101.273.101.188 0 .272-.101.084-.103.084-.336v-.879h.197v.903q0 .283-.14.428-.14.144-.413.144-.274 0-.415-.144-.14-.145-.14-.428v-.903zM11.305 64.003v1.125h.236q.3 0 .438-.135.14-.136.14-.429 0-.29-.14-.425-.138-.136-.438-.136h-.236zm-.196-.16h.402q.42 0 .618.175.196.174.196.546 0 .374-.197.55-.198.175-.617.175h-.402v-1.447zM12.636 63.842h.915v.165h-.719v.428h.689v.165h-.689v.524h.736v.165h-.932v-1.447z"/>
    </g>
    <g style="-inkscape-font-specification:sans-serif" font-weight="400" font-size="1.984" font-family="sans-serif" fill="#fff">
        <path d="M.914 42.666h.32v-1.103l-.348.07v-.179l.346-.07h.195v1.282h.32v.165H.914v-.165zM2.81 41.778v.168q-.076-.038-.157-.058-.081-.02-.168-.02-.133 0-.2.042-.066.04-.066.122 0 .062.047.098.048.034.191.066l.061.014q.19.04.27.115.08.074.08.207 0 .15-.12.239-.12.088-.328.088-.088 0-.183-.017-.094-.017-.198-.05v-.185q.099.052.195.078.095.025.19.025.125 0 .193-.043t.068-.122q0-.072-.05-.111-.048-.039-.213-.075l-.062-.014q-.166-.035-.24-.107-.073-.072-.073-.198 0-.153.108-.237.109-.083.308-.083.099 0 .186.014.087.015.161.044z"/>
    </g>
    <g style="-inkscape-font-specification:sans-serif" font-weight="400" font-size="1.984" font-family="sans-serif" fill="#fff">
        <path d="M4.933 42.666h.32v-1.103l-.348.07v-.179l.346-.07h.196v1.282h.32v.165h-.834v-.165zM6.581 41.513q-.151 0-.228.15-.075.148-.075.446 0 .298.075.447.077.148.228.148.152 0 .228-.148.076-.15.076-.447 0-.298-.076-.447-.076-.149-.228-.149zm0-.155q.243 0 .371.193.13.192.13.558 0 .365-.13.558-.128.192-.37.192-.244 0-.373-.192-.128-.193-.128-.558 0-.366.128-.558.129-.193.372-.193zM8.093 41.778v.168q-.076-.038-.157-.058-.082-.02-.169-.02-.133 0-.2.042-.065.04-.065.122 0 .062.047.098.048.034.191.066l.061.014q.19.04.27.115.08.074.08.207 0 .15-.12.239-.12.088-.329.088-.087 0-.182-.017-.094-.017-.199-.05v-.185q.1.052.195.078.096.025.19.025.126 0 .194-.043t.068-.122q0-.072-.05-.111-.048-.039-.214-.075l-.062-.014q-.166-.035-.24-.107-.073-.072-.073-.198 0-.153.109-.237.108-.083.308-.083.099 0 .186.014.087.015.16.044z"/>
    </g>
    <g style="-inkscape-font-specification:sans-serif" font-weight="400" font-size="1.984" font-family="sans-serif" fill="#fff">
        <path d="M2.23 83.793h.914v.165h-.719v.428h.69v.165h-.69v.524h.737v.165H2.23v-1.447zM4.069 83.926q-.214 0-.34.159-.125.159-.125.433 0 .273.125.432.126.16.34.16.213 0 .337-.16.125-.159.125-.432 0-.274-.125-.433-.124-.159-.337-.159zm0-.159q.304 0 .486.205.182.203.182.546 0 .342-.182.547-.182.203-.486.203-.306 0-.489-.203-.182-.204-.182-.547 0-.343.182-.546.183-.205.489-.205zM6.127 83.905v.206q-.1-.092-.212-.137-.111-.046-.237-.046-.248 0-.38.152-.132.151-.132.438 0 .286.132.438.132.151.38.151.126 0 .237-.045.113-.046.212-.138v.205q-.103.07-.218.104-.115.035-.243.035-.328 0-.517-.2-.189-.202-.189-.55 0-.349.189-.55.189-.2.517-.2.13 0 .245.034.115.034.216.103z"/>
    </g>
    <g style="-inkscape-font-specification:sans-serif" font-weight="400" font-size="1.984" font-family="sans-serif" fill="#fff">
        <path d="M9.938 85.034v-.389h-.32v-.16h.513v.62q-.113.08-.25.122-.136.041-.291.041-.34 0-.531-.198t-.191-.552q0-.354.19-.552.193-.199.532-.199.141 0 .268.035.128.035.236.103v.208q-.109-.092-.231-.138-.122-.047-.257-.047-.265 0-.399.148-.133.149-.133.442 0 .293.133.441.134.148.4.148.103 0 .184-.017.082-.018.147-.056zM10.973 83.986l-.265.72h.532l-.267-.72zm-.11-.193h.222l.551 1.447h-.203l-.132-.371h-.652l-.132.371h-.206l.552-1.447zM11.49 83.793h1.225v.165H12.2v1.282h-.197v-1.282h-.513v-.165zM12.908 83.793h.915v.165h-.719v.428h.689v.165h-.689v.524h.736v.165h-.932v-1.447z"/>
    </g>
    <path d="M2.154 86.027h11.73c.862 0 1.556.801 1.556 1.796v3.59c0 .995-.694 1.796-1.556 1.796H2.154c-.862 0-1.556-.8-1.556-1.795v-3.591c0-.995.694-1.796 1.556-1.796z" fill="#505050"/>
    <g style="-inkscape-font-specification:sans-serif;text-align:center" font-weight="400" font-size="1.984" font-family="sans-serif" text-anchor="middle" fill="#fff" stroke-width="2">
        <path d="M6.175 72.621v.191q-.11-.053-.21-.08-.099-.026-.19-.026-.16 0-.248.062-.086.062-.086.177 0 .096.057.145.058.049.22.079l.117.024q.22.041.323.147.105.105.105.281 0 .21-.142.319-.14.108-.413.108-.102 0-.219-.023-.115-.023-.239-.069v-.201q.12.067.234.1.114.034.224.034.168 0 .26-.066.09-.065.09-.187 0-.107-.066-.167-.065-.06-.214-.09l-.119-.023q-.219-.044-.317-.137-.098-.093-.098-.259 0-.192.135-.302.136-.11.373-.11.102 0 .207.018.106.018.216.055zM6.572 72.574h.196v1.282h.704v.164h-.9v-1.446zM7.676 72.574h.915v.164h-.719v.429h.689v.164h-.689v.525h.736v.164h-.932v-1.446zM8.8 72.574h.197l.304 1.223.304-1.223h.22l.304 1.223.303-1.223h.199l-.364 1.446h-.246l-.305-1.255-.308 1.255h-.246l-.363-1.446z"/>
    </g>
</svg>
