<svg xmlns="http://www.w3.org/2000/svg" xmlns:xlink="http://www.w3.org/1999/xlink" width="120" height="380" viewBox="0 0 31.75 100.542">
    <defs>
        <linearGradient id="a">
            <stop offset="0" stop-color="#fdfdfd"/>
            <stop offset="1" stop-color="#fdfdfd"/>
        </linearGradient>
        <radialGradient gradientUnits="userSpaceOnUse" gradientTransform="matrix(.4218 0 0 .02673 -105.982 272.192)" r="69.827" fy="856.052" fx="285.494" cy="856.052" cx="285.494" id="c" xlink:href="#a"/>
        <clipPath clipPathUnits="userSpaceOnUse" id="g">
            <path fill="#623a58" stroke-width="3.543" d="M173.658 27.835h120v42.33h-120z"/>
        </clipPath>
        <clipPath clipPathUnits="userSpaceOnUse" id="f">
            <path fill="#623a58" stroke-width="3.543" d="M0 285.8h31.75V297H0z"/>
        </clipPath>
        <clipPath clipPathUnits="userSpaceOnUse" id="e">
            <path fill="#623a58" stroke-width="3.543" d="M216.698-34.274H349.85v46.969H216.698z"/>
        </clipPath>
        <clipPath clipPathUnits="userSpaceOnUse" id="d">
            <path fill="#623a58" stroke-width="3.543" d="M0 285.8h31.75V297H0z"/>
        </clipPath>
        <clipPath clipPathUnits="userSpaceOnUse" id="b">
            <path fill="#623a58" stroke-width="3.543" d="M0 285.8h31.75V297H0z"/>
        </clipPath>
    </defs>
    <g transform="translate(0 -196.458)">
        <path d="M0 196.458h31.75V297H0z" fill-rule="evenodd"/>
        <path d="M31.483 294.933l-17.042-.125-14.418.125-.878-3.47c4.81-1.004 10.75-1.724 16.17-1.72 5.716.006 9.887.467 17.047 1.845z" clip-path="url(#b)" fill="url(#c)" stroke="#8b8b8b" stroke-width=".397"/>
        <path d="M0 291.993c10.904-1.21 21.546-.99 31.75.123l-.033 3.296H0z" clip-path="url(#d)"/>
        <g transform="matrix(.23845 0 0 .23845 -50.084 293.973)" clip-path="url(#e)">
            <path d="M291.232-10.527l6.43-3.034 5.953-.742 4.222.511 5.886 2.16 4.683 4.37z" fill-rule="evenodd"/>
            <g stroke="#fff">
                <g color="#000" fill="none" stroke-linejoin="bevel">
                    <path d="M2.117 188.81l18.113 36.226 65.551 31.913 90.564 13.8 94.877-11.213 60.376-31.913 14.663-30.188-14.663-37.951.324 67.923-33.1-64.473-25.875 96.602-58.651-80.214-40.538 91.427-40.538-75.902-46.576 61.239-17.098-92.852-49.316 62.663 6.037-89.702 44.241 27.296 63.574 32.218 80-16.819 86.466-15.957 31.051-3.666-33.279-62.05 1.366 64.853-64.689-74.392-20.7 91.427-69.001-66.198-75.902 50.026L84.751 80.38l-59.346 55.816 24.151-56.064h34.501l81.077-37.088-18.975 69.864 89.702-24.15 62.101 7.762-66.314-54.334 4.212 46.571-70.726-45.713 66.414-1.725-53.476-15.525-12.938 16.388-49.164-6.9-66.414 44.85-33.333 49.417 9.183 6.647L2.118 188.81z" stroke-width="2.892" transform="matrix(.09825 0 0 .0698 286.195 -16.043)"/>
                    <path d="M133.17 195.51l12.99-80.876-61.407-35.517 32.081-44.697 28.463-4.313 32.776-5.175 41.401 6.9 12.938 10.35 47.438 20.7 18.975 34.501 30.188 30.188 2.803 31.913" stroke-width="2.892" transform="matrix(.09825 0 0 .0698 286.195 -16.043)"/>
                    <path d="M329.01 126.71l-49.16-63.83-59.77-31.05M1.926 188.186L16.11 129.84" stroke-width="2" transform="matrix(.09825 0 0 .0698 286.195 -16.043)"/>
                </g>
            </g>
            <path d="M320.187-2.25l-1.666-4.93" fill="none" stroke="#fff" stroke-width=".2"/>
        </g>
        <path d="M2.826 292.087l3.72-1.531.758.608 1.108-.783 2.215.291.933-.35 3.024.98-1.042.478-9.503.292z" clip-path="url(#f)" fill-rule="evenodd"/>
        <g style="line-height:125%" transform="matrix(.26458 0 0 .26458 -45.947 278.436)" clip-path="url(#g)" font-weight="400" font-size="7.5" font-family="Geneva" letter-spacing="0" word-spacing="0" fill="#fff">
            <path style="-inkscape-font-specification:Geneva" d="M186.153 66.995h.681v.015q0 .263.201.44.202.171.682.171.42 0 .68-.205.264-.205.264-.483 0-.377-.512-.535l-.348-.106-.23-.073-.473-.147q-.81-.296-.81-.985 0-.483.392-.85.392-.366 1.165-.366.761 0 1.084.315.322.311.322.692v.015h-.685v-.015q0-.205-.209-.322-.205-.117-.549-.117-.41 0-.63.172-.216.168-.216.417 0 .19.14.312.142.117.475.212l.33.092.238.07q.498.142.619.2.124.06.249.15.172.133.253.32.084.186.084.435 0 .579-.418.974-.413.396-1.212.396-.505 0-.838-.15-.334-.15-.531-.414-.198-.267-.198-.615v-.015zM199.465 68.189q-.802 0-1.37-.542-.564-.546-.564-1.619 0-1.07.564-1.611.568-.546 1.37-.546.798 0 1.362.546.568.542.568 1.611 0 1.073-.568 1.619-.564.542-1.362.542zm0-.568q.549 0 .882-.436.337-.439.337-1.157 0-.714-.337-1.15-.333-.44-.882-.44-.553 0-.89.44-.334.436-.334 1.15 0 .718.334 1.157.337.436.89.436zM212.4 63.985h.68v4.09h-.68v-.714q-.213.33-.418.495-.205.164-.421.249-.217.084-.473.084-.567 0-.963-.319-.396-.322-.396-1.292v-2.593h.682v2.307q0 .897.238 1.084.238.187.59.187.303 0 .57-.176.272-.18.429-.498.161-.322.161-.894v-2.01zM224.18 67.497v.571q-.498.12-.762.12-.38 0-.688-.153-.304-.154-.465-.447-.158-.293-.158-.934v-2.102h-.71v-.567h.71v-.967h.682v.967h1.193v.567h-1.193v1.908q0 .542.084.755.084.208.263.307.184.1.436.1.202 0 .608-.125zM233.2 68.075h-.681v-5.91h.68v2.527q.217-.334.418-.495.206-.161.425-.242.224-.084.495-.084.384 0 .688.158.308.157.476.465.169.304.169.978v2.603h-.682v-2.31q0-.55-.073-.777-.073-.23-.278-.359-.205-.132-.469-.132-.3 0-.571.176-.271.176-.436.49-.161.316-.161.902v2.01zM245.04 69.665h-.682v-5.68h.682v.71q.212-.362.402-.513.194-.15.436-.23.242-.08.498-.08.469 0 .857.256.388.252.6.758.217.505.217 1.135 0 .934-.45 1.553-.447.615-1.257.615-.26 0-.494-.077-.23-.073-.41-.22-.18-.15-.4-.53v2.303zm0-3.633q0 .696.3 1.142.3.447.846.447.498 0 .827-.395.33-.396.33-1.183 0-.92-.348-1.275-.348-.358-.795-.358-.322 0-.604.197-.278.194-.417.583-.14.384-.14.842zM258.176 68.189q-.802 0-1.37-.542-.564-.546-.564-1.619 0-1.07.564-1.611.568-.546 1.37-.546.798 0 1.362.546.567.542.567 1.611 0 1.073-.567 1.619-.564.542-1.362.542zm0-.568q.549 0 .882-.436.337-.439.337-1.157 0-.714-.337-1.15-.333-.44-.882-.44-.553 0-.89.44-.334.436-.334 1.15 0 .718.334 1.157.337.436.89.436zM269.177 68.075h-.682v-5.91h.682v5.91zM280.456 67.024h.681v.037q0 .27-.216.553-.216.282-.571.428-.356.147-.817.147-.934 0-1.443-.604-.505-.605-.505-1.528 0-.944.534-1.563.539-.623 1.385-.623.465 0 .842.202.377.201.597.63.22.424.22 1.186v.227h-2.904q0 .656.351 1.08.355.425.982.425.45 0 .655-.172.209-.176.209-.388v-.037zm-2.154-1.42h2.209v-.081q0-.286-.14-.553-.135-.271-.377-.4-.241-.131-.564-.131-.38 0-.703.307-.322.304-.425.857z"/>
        </g>
        <g style="-inkscape-font-specification:sans-serif;text-align:center" font-weight="400" font-size="3.969" font-family="sans-serif" text-anchor="middle" fill="#fff" stroke-width="2">
            <path d="M2.233 199.028q.126.042.244.182.12.14.24.383l.398.791h-.42l-.37-.742q-.144-.29-.28-.386-.133-.095-.366-.095h-.426v1.223H.86v-2.893h.884q.496 0 .74.207.244.208.244.626 0 .273-.127.454-.126.18-.369.25zm-.98-1.215v1.027h.492q.283 0 .426-.13.146-.132.146-.386t-.146-.382q-.143-.13-.426-.13h-.492zM4.51 199.293q-.432 0-.599.099-.166.099-.166.337 0 .19.124.302.126.11.34.11.297 0 .476-.208.18-.212.18-.56v-.08H4.51zm.711-.147v1.238h-.356v-.33q-.122.198-.304.293-.182.093-.446.093-.333 0-.531-.186-.196-.188-.196-.502 0-.366.244-.552.247-.186.733-.186h.5v-.035q0-.246-.163-.38-.16-.135-.453-.135-.186 0-.363.044-.176.045-.339.134v-.33q.196-.075.38-.112.184-.039.359-.039.47 0 .703.245.232.244.232.74zM5.956 197.369h.358v1.78l1.064-.935h.456l-1.151 1.015 1.2 1.155h-.466l-1.103-1.06v1.06h-.358v-3.015zM9.98 199.21v.174H8.342q.024.368.221.562.2.192.555.192.205 0 .397-.05.194-.05.384-.152v.338q-.192.081-.394.124-.201.042-.409.042-.52 0-.823-.302-.303-.302-.303-.818 0-.533.287-.845.289-.314.777-.314.438 0 .692.283.256.281.256.766zm-.356-.105q-.004-.293-.164-.467-.16-.174-.423-.174-.298 0-.478.168-.179.169-.206.475l1.271-.002zM11.942 198.278v.337q-.151-.078-.314-.116-.163-.04-.337-.04-.266 0-.4.082-.131.082-.131.244 0 .124.095.196.095.07.382.134l.122.027q.38.081.538.23.161.148.161.413 0 .303-.24.479-.238.176-.657.176-.174 0-.364-.035-.188-.033-.398-.1v-.369q.198.103.39.155.192.05.38.05.252 0 .387-.085.136-.087.136-.244 0-.145-.099-.223-.097-.077-.428-.149l-.124-.029q-.331-.07-.479-.213-.147-.145-.147-.397 0-.306.217-.473.217-.167.616-.167.198 0 .372.03.175.028.322.087z"/>
        </g>
        <g style="-inkscape-font-specification:sans-serif;text-align:center" font-weight="400" font-size="1.984" font-family="sans-serif" text-anchor="middle" fill="#fff" stroke-width="2">
            <path d="M1.633 201.513v.168q-.076-.039-.157-.058-.082-.02-.169-.02-.133 0-.2.041-.065.041-.065.123 0 .062.047.097t.19.067l.062.014q.19.04.27.115.08.074.08.207 0 .15-.12.239-.12.088-.329.088-.087 0-.182-.017-.094-.017-.199-.05v-.185q.1.052.195.078.096.025.19.025.126 0 .194-.043t.068-.122q0-.073-.05-.111-.048-.039-.214-.075l-.062-.014q-.166-.035-.24-.107-.073-.073-.073-.199 0-.153.109-.236.108-.083.308-.083.099 0 .186.014.087.015.16.044zM2.152 201.173v.308h.367v.138h-.367v.59q0 .132.036.17.037.038.148.038h.183v.149h-.183q-.206 0-.285-.077-.078-.077-.078-.28v-.59h-.131v-.138h.13v-.308h.18zM3.683 201.979v.087h-.82q.012.184.11.28.1.097.278.097.102 0 .198-.025.097-.026.192-.076v.169q-.096.04-.197.062-.1.02-.204.02-.26 0-.412-.15-.15-.151-.15-.41 0-.266.142-.422.145-.157.389-.157.219 0 .346.142.128.14.128.383zm-.178-.053q-.002-.146-.083-.233-.08-.087-.211-.087-.15 0-.24.084-.089.084-.102.237h.636zM4.6 201.647q-.03-.017-.065-.025-.035-.009-.078-.009-.151 0-.233.099-.08.098-.08.282v.572h-.18v-1.086h.18v.169q.056-.099.146-.146.09-.049.22-.049.018 0 .04.003.022.002.05.007v.183zM5.677 201.979v.087h-.82q.012.184.11.28.1.097.278.097.102 0 .198-.025.097-.026.192-.076v.169q-.096.04-.196.062-.101.02-.205.02-.26 0-.412-.15-.15-.151-.15-.41 0-.266.143-.422.144-.157.388-.157.22 0 .346.142.128.14.128.383zm-.178-.053q-.002-.146-.083-.233-.08-.087-.211-.087-.15 0-.24.084-.088.084-.102.237h.636zM6.388 201.606q-.143 0-.227.112-.083.112-.083.306 0 .195.082.307.084.112.228.112.143 0 .226-.113.083-.112.083-.306 0-.193-.083-.305-.083-.113-.226-.113zm0-.151q.233 0 .365.15.133.152.133.42 0 .266-.133.418-.132.151-.365.151-.233 0-.366-.151-.132-.152-.132-.419t.132-.418q.133-.151.366-.151zM8.441 201.647q-.03-.017-.066-.025-.035-.009-.077-.009-.151 0-.233.099-.08.098-.08.282v.572h-.18v-1.086h.18v.169q.056-.099.146-.146.09-.049.22-.049.018 0 .04.003.022.002.05.007v.183zM9.518 201.979v.087h-.82q.012.184.11.28.1.097.278.097.102 0 .198-.025.097-.026.192-.076v.169q-.096.04-.197.062-.1.02-.204.02-.26 0-.412-.15-.151-.151-.151-.41 0-.266.143-.422.145-.157.389-.157.219 0 .346.142.128.14.128.383zm-.179-.053q-.001-.146-.082-.233-.08-.087-.211-.087-.15 0-.24.084-.089.084-.102.237h.635zM10.5 201.513v.168q-.075-.039-.157-.058-.081-.02-.168-.02-.133 0-.2.041-.066.041-.066.123 0 .062.048.097.047.035.19.067l.062.014q.19.04.269.115.08.074.08.207 0 .15-.12.239-.119.088-.328.088-.087 0-.182-.017-.094-.017-.199-.05v-.185q.099.052.195.078.096.025.19.025.126 0 .193-.043.068-.043.068-.122 0-.073-.05-.111-.048-.039-.213-.075l-.062-.014q-.166-.035-.24-.107-.073-.073-.073-.199 0-.153.108-.236.109-.083.308-.083.1 0 .186.014.088.015.161.044zM11.264 201.606q-.144 0-.227.112-.083.112-.083.306 0 .195.082.307.083.112.228.112.142 0 .226-.113.083-.112.083-.306 0-.193-.083-.305-.084-.113-.226-.113zm0-.151q.232 0 .365.15.133.152.133.42 0 .266-.133.418-.133.151-.365.151-.234 0-.366-.151-.132-.152-.132-.419t.132-.418q.132-.151.366-.151zM12.958 201.91v.656h-.178v-.65q0-.153-.06-.23-.06-.076-.18-.076-.145 0-.228.092-.083.092-.083.25v.614h-.18v-1.085h.18v.168q.064-.098.15-.146.087-.048.2-.048.188 0 .284.116.095.115.095.34zM13.81 202.02q-.217 0-.3.05-.084.05-.084.168 0 .095.062.152.063.055.171.055.148 0 .237-.105.09-.106.09-.28v-.04h-.177zm.355-.073v.619h-.179v-.165q-.06.099-.152.147-.09.046-.223.046-.166 0-.265-.093-.098-.094-.098-.25 0-.184.122-.277.123-.093.366-.093h.25v-.017q0-.124-.08-.19-.081-.068-.228-.068-.093 0-.18.022-.089.022-.17.067v-.165q.097-.037.19-.056.092-.02.179-.02.235 0 .351.123.117.122.117.37zM14.713 201.173v.308h.367v.138h-.367v.59q0 .132.036.17.037.038.148.038h.183v.149h-.183q-.206 0-.285-.077-.078-.077-.078-.28v-.59h-.13v-.138h.13v-.308h.18zM15.736 201.606q-.143 0-.226.112-.084.112-.084.306 0 .195.083.307.083.112.227.112.143 0 .226-.113.083-.112.083-.306 0-.193-.083-.305-.083-.113-.226-.113zm0-.151q.233 0 .366.15.132.152.132.42 0 .266-.132.418-.133.151-.366.151-.233 0-.366-.151-.132-.152-.132-.419t.132-.418q.133-.151.366-.151zM17.158 201.647q-.03-.017-.066-.025-.035-.009-.078-.009-.15 0-.232.099-.08.098-.08.282v.572h-.18v-1.086h.18v.169q.056-.099.146-.146.09-.049.219-.049.018 0 .04.003.023.002.05.007v.183z"/>
        </g>
        <g style="-inkscape-font-specification:sans-serif;text-align:center" font-weight="400" font-size="2.646" font-family="sans-serif" text-anchor="middle" fill="#fff" stroke-width="2">
            <path d="M12.275 204.188v1.5h.316q.399 0 .584-.18.186-.182.186-.572 0-.387-.186-.567-.185-.18-.584-.18h-.316zm-.26-.214h.536q.56 0 .822.234.263.232.263.728 0 .499-.264.733-.263.234-.821.234h-.537v-1.93zM14.05 203.974h1.22v.22h-.959v.57h.919v.22h-.919v.699h.982v.22H14.05v-1.93zM17.164 204.122v.275q-.132-.122-.282-.183-.148-.06-.316-.06-.33 0-.507.202-.175.202-.175.584 0 .381.175.584.176.202.507.202.168 0 .316-.061.15-.06.282-.184v.273q-.137.093-.29.14-.153.046-.324.046-.438 0-.69-.267-.252-.27-.252-.733 0-.465.252-.732.252-.27.69-.27.173 0 .326.047.154.046.288.137zM18.214 204.23l-.354.96h.71l-.356-.96zm-.147-.256h.296l.735 1.929h-.271l-.176-.495h-.87l-.175.495h-.275l.736-1.93zM18.907 203.974h.28l.535.793.53-.793h.281l-.682 1.01v.919h-.262v-.919l-.682-1.01z"/>
        </g>
        <g style="-inkscape-font-specification:sans-serif;text-align:center" font-weight="400" font-size="2.646" font-family="sans-serif" text-anchor="middle" fill="#fff" stroke-width="2">
            <path d="M3.043 270.964h.26v1.929h-.26v-1.929zM3.823 270.964h.352l.855 1.614v-1.614h.253v1.929h-.351l-.856-1.614v1.614h-.253v-1.929z"/>
        </g>
        <g style="-inkscape-font-specification:sans-serif;text-align:center" font-weight="400" font-size="2.646" font-family="sans-serif" text-anchor="middle" fill="#fff" stroke-width="2">
            <path d="M26.42 270.905q-.284 0-.451.212-.167.212-.167.578 0 .364.167.576.167.212.452.212.284 0 .45-.212.166-.212.166-.576 0-.366-.167-.578-.165-.212-.45-.212zm0-.211q.406 0 .65.272.242.272.242.729 0 .456-.243.728-.243.272-.648.272-.407 0-.651-.272-.243-.27-.243-.728 0-.457.243-.729.244-.272.65-.272zM27.69 270.728h.263v1.172q0 .31.112.447.113.136.365.136.25 0 .363-.136.112-.137.112-.447v-1.172h.262v1.205q0 .377-.187.57-.186.192-.55.192-.366 0-.553-.193-.186-.192-.186-.57v-1.204zM29.39 270.728h1.632v.22h-.684v1.71h-.263v-1.71h-.684v-.22z"/>
        </g>
        <g style="-inkscape-font-specification:sans-serif;text-align:center" font-weight="400" font-size="2.646" font-family="sans-serif" text-anchor="middle" fill="#fff" stroke-width="2">
            <path d="M13.61 285.927H14l.491 1.312.495-1.312h.389v1.929h-.254v-1.694l-.498 1.323h-.262l-.498-1.323v1.694h-.253v-1.93zM15.89 285.927h.26v1.929h-.26v-1.93zM16.577 285.927h.28l.48.717.481-.717h.28l-.62.926.662 1.003h-.28l-.543-.82-.547.82h-.281l.688-1.03-.6-.9z"/>
        </g>
        <rect width="8.076" height="16.047" x="23.674" y="273.357" rx=".938" ry=".887" fill="#505050"/>
        <path d="M2.443 279.733h3.566l-1.92 1.981z" fill="#3d47ba"/>
        <g style="-inkscape-font-specification:sans-serif;text-align:center" font-weight="400" font-size="2.646" font-family="sans-serif" text-anchor="middle" fill="#fff" stroke-width="2">
            <path d="M3.202 217.257l-.736-1.928h.272l.612 1.624.612-1.624h.271l-.735 1.928h-.296zM4.926 215.329h.22l-.672 2.174h-.22l.672-2.174zM6.19 215.506q-.284 0-.452.212-.166.211-.166.577 0 .364.166.576.168.212.452.212.285 0 .45-.212.167-.212.167-.576 0-.366-.167-.577-.165-.212-.45-.212zm0-.212q.406 0 .649.272t.243.729q0 .456-.243.729-.243.27-.649.27t-.65-.27q-.244-.272-.244-.729 0-.457.243-.729.245-.272.651-.272zM8.935 215.477v.275q-.132-.122-.282-.183-.149-.06-.317-.06-.33 0-.506.202t-.176.584q0 .381.176.584.176.201.506.201.168 0 .317-.06.15-.06.282-.184v.273q-.137.093-.291.14-.153.046-.323.046-.438 0-.69-.267-.252-.27-.252-.733 0-.465.252-.732.252-.27.69-.27.173 0 .325.047.154.045.289.137zM9.073 215.329h1.631v.22h-.684v1.708h-.263v-1.709h-.684v-.22z"/>
        </g>
        <g style="-inkscape-font-specification:sans-serif;text-align:center" font-weight="400" font-size="2.646" font-family="sans-serif" text-anchor="middle" fill="#fff" stroke-width="2">
            <path d="M16.943 215.574h1.109v.22h-.848v.568h.765v.22h-.765v.92h-.26v-1.928zM18.462 215.574h.261v1.929h-.26v-1.929zM19.243 215.574h.351l.855 1.614v-1.614h.254v1.929h-.352l-.855-1.614v1.614h-.253v-1.929zM21.222 215.574h1.22v.22h-.96v.57h.92v.22h-.92v.7h.983v.219h-1.243v-1.929z"/>
        </g>
        <g style="-inkscape-font-specification:sans-serif;text-align:center" font-weight="400" font-size="2.646" font-family="sans-serif" text-anchor="middle" fill="#fff" stroke-width="2">
            <path d="M25.94 217.19v-.518h-.426v-.214h.685v.828q-.151.107-.333.163-.182.054-.39.054-.451 0-.707-.264-.255-.264-.255-.736 0-.473.255-.736.256-.265.708-.265.188 0 .358.046.17.047.314.137v.278q-.145-.123-.308-.185t-.342-.062q-.354 0-.532.198-.177.198-.177.589 0 .39.177.588.178.198.532.198.138 0 .247-.024.108-.024.195-.075zM27.322 215.794l-.354.96h.709l-.355-.96zm-.148-.257h.296l.735 1.928h-.27l-.177-.494h-.87l-.175.494h-.275l.736-1.928zM28.486 215.537h.26v1.928h-.26v-1.928zM29.266 215.537h.351l.856 1.613v-1.613h.253v1.928h-.352l-.855-1.613v1.613h-.253v-1.928z"/>
        </g>
        <path fill="#366a87" d="M.125 220.86h31.501v3.269H.125zM.125 229.238h31.501v3.269H.125zM.125 237.617h31.501v3.269H.125zM.125 245.995h31.501v3.269H.125zM.125 254.374h31.501v3.269H.125zM.125 262.752h31.501v3.269H.125z"/>
        <g style="-inkscape-font-specification:sans-serif;text-align:center" font-weight="400" font-size="2.646" font-family="sans-serif" text-anchor="middle" fill="#fff" stroke-width="2">
            <path d="M15.22 270.868v.255q-.148-.071-.28-.106-.131-.035-.254-.035-.213 0-.33.083-.114.082-.114.235 0 .128.076.194.077.064.292.104l.157.033q.292.055.43.196.14.14.14.375 0 .28-.188.425-.188.144-.55.144-.138 0-.293-.03-.153-.032-.319-.092v-.269q.16.09.312.134.152.046.3.046.223 0 .344-.088.122-.088.122-.251 0-.142-.088-.222-.087-.08-.286-.12l-.159-.031q-.292-.058-.422-.183-.13-.124-.13-.344 0-.256.179-.404.18-.147.497-.147.136 0 .277.025.14.024.288.073zM15.75 270.805h1.219v.22h-.959v.57h.919v.22h-.919v.7h.982v.219H15.75v-1.929zM17.418 270.805h.39l.492 1.313.494-1.313h.39v1.929h-.255v-1.694l-.498 1.323h-.262l-.497-1.323v1.694h-.254v-1.929zM19.697 270.805h.261v1.929h-.26v-1.929zM13.923 274.112h1.108v.22h-.847v.568h.764v.22h-.764v.921h-.261v-1.929zM16.357 275.137q.084.028.162.121.08.093.16.256l.265.527h-.28l-.247-.495q-.095-.193-.186-.257-.089-.063-.244-.063h-.284v.815h-.261v-1.929h.589q.33 0 .493.139.163.138.163.417 0 .182-.085.302-.084.12-.245.167zm-.654-.81v.685h.328q.189 0 .284-.087.097-.088.097-.257 0-.17-.097-.255-.095-.086-.284-.086h-.328zM17.282 274.112h1.22v.22h-.96v.571h.92v.22h-.92v.699h.982v.22h-1.242v-1.93zM18.95 274.112h1.22v.22h-.958v.571h.918v.22h-.918v.699h.982v.22H18.95v-1.93z"/>
        </g>
    </g>
</svg>
