<svg xmlns="http://www.w3.org/2000/svg" xmlns:xlink="http://www.w3.org/1999/xlink" width="240" height="380" viewBox="0 0 63.5 100.542">
    <defs>
        <linearGradient id="a">
            <stop offset="0" stop-color="#fdfdfd"/>
            <stop offset="1" stop-color="#fdfdfd"/>
        </linearGradient>
        <radialGradient gradientUnits="userSpaceOnUse" gradientTransform="matrix(.4218 0 0 .02673 -105.982 272.192)" r="69.827" fy="856.052" fx="285.494" cy="856.052" cx="285.494" id="c" xlink:href="#a"/>
        <clipPath clipPathUnits="userSpaceOnUse" id="d">
            <path fill="#fff" stroke="gray" stroke-width=".388" d="M4.03 289.485h23.689v11.965H4.03z"/>
        </clipPath>
        <clipPath clipPathUnits="userSpaceOnUse" id="b">
            <path fill="#fff" stroke="gray" stroke-width=".388" d="M4.03 289.485h23.689v11.965H4.03z"/>
        </clipPath>
        <clipPath id="e" clipPathUnits="userSpaceOnUse">
            <rect ry="0" rx="0" y="40.181" x="173.658" height="37.776" width="120" fill="#220eff"/>
        </clipPath>
        <clipPath id="g" clipPathUnits="userSpaceOnUse">
            <rect ry="0" rx="0" y="289.067" height="9.995" width="31.75" fill="#220eff"/>
        </clipPath>
        <clipPath id="f" clipPathUnits="userSpaceOnUse">
            <rect ry="0" rx="0" y="-20.575" x="216.698" height="41.916" width="133.152" fill="#220eff"/>
        </clipPath>
    </defs>
    <g transform="translate(0 -196.458)">
        <path d="M0 196.458h63.5V297H0z" fill-rule="evenodd"/>
        <flowRoot transform="matrix(1.05833 0 0 .26458 -233.84 115.922)" style="line-height:125%" xml:space="preserve" font-style="normal" font-weight="400" font-size="10" font-family="sans-serif" letter-spacing="0" word-spacing="0" fill="#000" fill-opacity="1" stroke="none" stroke-width="1" stroke-linecap="butt" stroke-linejoin="miter" stroke-opacity="1">
            <flowRegion>
                <path d="M323.249 35.538h7.829v72.478h-7.829z"/>
            </flowRegion>
            <flowPara/>
        </flowRoot>
        <path d="M31.483 294.933l-17.042-.125-14.418.125-.878-3.47s10.214-1.217 15.278-1.23c5.982-.014 17.94 1.355 17.94 1.355z" clip-path="url(#b)" transform="matrix(2.67014 0 0 1 -10.638 .53)" fill="url(#c)" stroke="#8b8b8b" stroke-width=".397"/>
        <path d="M0 291.993l31.75.123-.033 3.296H0z" clip-path="url(#d)" transform="matrix(2.67014 0 0 1.47097 -10.515 -137.542)"/>
        <g style="-inkscape-font-specification:sans-serif" font-weight="400" font-size="1.984" font-family="sans-serif" fill="#fff" stroke-width="3.543">
            <path d="M1.876 201.983v.166q-.076-.041-.152-.062-.076-.02-.153-.02-.174 0-.27.11-.095.11-.095.308t.095.309q.096.11.27.11.077 0 .153-.021t.152-.063v.165q-.075.035-.155.052-.08.017-.17.017-.245 0-.39-.154-.143-.154-.143-.415 0-.266.145-.418.146-.152.4-.152.082 0 .16.017.08.017.153.05zM3.086 202.371v.655h-.178v-.649q0-.154-.06-.23-.06-.077-.18-.077-.145 0-.228.092-.083.092-.083.251v.613h-.18v-1.507h.18v.59q.064-.097.15-.145.087-.049.2-.049.187 0 .283.116.096.116.096.34zM3.864 202.066q-.143 0-.226.113-.084.111-.084.306 0 .194.083.307.083.111.227.111.143 0 .226-.112.083-.112.083-.306 0-.193-.083-.305-.083-.114-.226-.114zm0-.151q.233 0 .366.151.132.151.132.419 0 .266-.132.418-.133.151-.366.151-.233 0-.366-.15-.132-.153-.132-.42t.132-.418q.133-.151.366-.151zM5.286 202.108q-.03-.018-.066-.025-.035-.01-.078-.01-.15 0-.232.1-.08.097-.08.281v.572h-.18v-1.085h.18v.168q.056-.098.146-.146.09-.048.219-.048.018 0 .04.003.023.002.05.007v.183zM6.156 202.106v-.587h.178v1.507h-.178v-.162q-.056.096-.143.144-.085.046-.205.046-.197 0-.32-.157-.124-.156-.124-.412t.123-.413q.124-.157.32-.157.121 0 .206.047.087.047.143.144zm-.608.379q0 .196.08.309.082.111.224.111.141 0 .222-.111.082-.113.082-.31 0-.196-.082-.307-.081-.113-.222-.113-.142 0-.223.113-.08.111-.08.308zM8.05 202.471q0-.194-.081-.3-.08-.107-.224-.107-.144 0-.224.107-.08.106-.08.3 0 .193.08.3.08.106.224.106.144 0 .224-.106.08-.107.08-.3zm.177.42q0 .278-.123.412-.123.136-.377.136-.094 0-.177-.014-.083-.014-.162-.043v-.173q.079.042.155.063.077.02.156.02.176 0 .263-.092.087-.091.087-.276v-.088q-.055.095-.141.143-.087.047-.207.047-.2 0-.321-.152-.123-.152-.123-.403 0-.252.123-.404.122-.152.321-.152.12 0 .207.048.086.047.141.143v-.165h.178v.95zM9.523 202.44v.086h-.82q.012.184.11.281.1.096.278.096.102 0 .198-.025.097-.025.192-.076v.17q-.096.04-.197.061-.1.021-.204.021-.26 0-.412-.15-.15-.152-.15-.41 0-.266.142-.422.145-.157.389-.157.219 0 .346.141.128.14.128.383zm-.178-.053q-.002-.146-.083-.234-.08-.087-.211-.087-.15 0-.24.084-.088.085-.102.238l.636-.001zM10.714 202.371v.655h-.179v-.649q0-.154-.06-.23-.06-.077-.18-.077-.144 0-.228.092-.083.092-.083.251v.613h-.18v-1.085h.18v.169q.064-.098.15-.146.087-.049.2-.049.188 0 .284.116.096.116.096.34zM12 202.44v.086h-.82q.011.184.11.281.1.096.277.096.103 0 .199-.025.097-.025.192-.076v.17q-.096.04-.197.061-.1.021-.204.021-.26 0-.412-.15-.151-.152-.151-.41 0-.266.143-.422.144-.157.389-.157.219 0 .346.141.127.14.127.383zm-.179-.053q-.002-.146-.082-.234-.08-.087-.211-.087-.15 0-.24.084-.089.085-.102.238l.635-.001zM12.917 202.108q-.03-.018-.066-.025-.035-.01-.077-.01-.152 0-.233.1-.08.097-.08.281v.572h-.18v-1.085h.18v.168q.056-.098.146-.146.09-.048.219-.048.018 0 .04.003.023.002.05.007l.001.183zM13.6 202.48q-.217 0-.3.05-.084.05-.084.169 0 .095.062.151.063.055.171.055.148 0 .237-.104.09-.106.09-.28v-.04H13.6zm.355-.073v.62h-.179v-.165q-.06.098-.152.146-.09.046-.223.046-.166 0-.265-.092-.098-.094-.098-.251 0-.184.122-.277.123-.093.366-.093h.25v-.017q0-.123-.08-.19-.081-.068-.228-.068-.093 0-.18.023-.089.022-.17.066v-.164q.097-.038.19-.056.092-.02.179-.02.235 0 .351.122.117.122.117.37zM14.503 201.633v.308h.367v.139h-.367v.589q0 .133.036.17.037.038.148.038h.183v.15h-.183q-.206 0-.285-.077-.078-.078-.078-.281v-.59h-.13v-.138h.13v-.308h.18zM15.526 202.066q-.143 0-.226.113-.084.111-.084.306 0 .194.083.307.083.111.227.111.143 0 .226-.112.083-.112.083-.306 0-.193-.083-.305-.083-.114-.226-.114zm0-.151q.233 0 .366.151.132.151.132.419 0 .266-.132.418-.133.151-.366.151-.233 0-.366-.15-.132-.153-.132-.42t.132-.418q.133-.151.366-.151zM16.948 202.108q-.03-.018-.066-.025-.035-.01-.078-.01-.15 0-.232.1-.08.097-.08.281v.572h-.18v-1.085h.18v.168q.056-.098.146-.146.09-.048.219-.048.018 0 .04.003.023.002.05.007v.183z"/>
        </g>
        <path d="M9.903 280.574h1.632v.22h-.685v1.709h-.262v-1.71h-.685v-.22zM17.063 282.283h.426v-1.472l-.463.093v-.237l.46-.093h.262v1.709h.426v.22h-1.111v-.22zM24.718 281.497q.187.04.292.167.106.127.106.313 0 .285-.196.442-.197.156-.559.156-.121 0-.25-.025-.128-.023-.265-.07v-.253q.109.064.238.096t.27.032q.245 0 .373-.097.13-.097.13-.281 0-.17-.12-.266-.12-.097-.333-.097h-.225v-.215h.235q.193 0 .295-.076.102-.077.102-.222 0-.149-.106-.228-.105-.08-.3-.08-.108 0-.23.024-.124.023-.27.072v-.233q.148-.04.277-.062.13-.02.245-.02.297 0 .47.135.174.135.174.365 0 .16-.092.271-.092.11-.261.152zM30.82 280.574h1.024v.22h-.785v.472q.056-.02.113-.028.057-.01.114-.01.323 0 .511.177.19.177.19.479 0 .311-.195.484-.193.172-.546.172-.122 0-.248-.02-.126-.021-.26-.063v-.262q.116.063.24.094.124.031.263.031.223 0 .354-.117.13-.118.13-.32 0-.2-.13-.318t-.354-.118q-.105 0-.21.023-.103.024-.211.073v-.97zM37.623 280.574h1.24v.11l-.7 1.819h-.272l.658-1.71h-.926v-.22zM44.583 282.497v-.237q.098.046.199.07.1.025.198.025.258 0 .394-.173.137-.174.156-.528-.075.11-.19.17-.115.06-.254.06-.29 0-.459-.175-.168-.175-.168-.479 0-.297.176-.477.175-.18.467-.18.335 0 .51.258.178.256.178.744 0 .456-.217.729-.216.27-.582.27-.098 0-.199-.018-.1-.02-.209-.059zm.52-.817q.175 0 .277-.12.104-.12.104-.33 0-.208-.104-.328-.102-.122-.278-.122-.175 0-.279.122-.102.12-.102.328 0 .21.102.33.104.12.28.12z" font-weight="400" font-size="2.646" font-family="sans-serif" fill="#fff" stroke-width="3.543"/>
        <g style="-inkscape-font-specification:sans-serif" font-weight="400" font-size="2.646" font-family="sans-serif" fill="#fff" stroke-width="3.543">
            <path d="M50.626 282.283h.427v-1.472l-.464.093v-.237l.461-.093h.261v1.709h.426v.22h-1.11v-.22zM52.311 282.283h.426v-1.472l-.463.093v-.237l.46-.093h.262v1.709h.426v.22h-1.11v-.22z"/>
        </g>
        <g style="-inkscape-font-specification:sans-serif" font-weight="400" font-size="2.646" font-family="sans-serif" fill="#fff" stroke-width="3.543">
            <path d="M57.491 282.318h.427v-1.472l-.464.093v-.237l.461-.093h.261v1.709h.426v.22h-1.11v-.22zM59.922 281.497q.187.04.291.167.106.127.106.313 0 .285-.196.442-.196.156-.558.156-.121 0-.25-.025-.129-.023-.266-.07v-.253q.109.064.238.096.13.032.27.032.246 0 .374-.097.129-.097.129-.281 0-.17-.12-.266-.12-.097-.332-.097h-.225v-.215h.235q.192 0 .294-.076.103-.077.103-.222 0-.149-.106-.228-.105-.08-.301-.08-.108 0-.23.024-.123.023-.27.072v-.233q.148-.04.277-.062.13-.02.246-.02.297 0 .47.135t.173.365q0 .16-.092.271-.091.11-.26.152z"/>
        </g>
        <g style="-inkscape-font-specification:sans-serif" font-weight="400" font-size="2.646" font-family="sans-serif" fill="#fff" stroke-width="3.543">
            <path d="M41.611 270.169v.724h.328q.183 0 .282-.094.1-.094.1-.269 0-.173-.1-.267-.1-.094-.282-.094h-.328zm-.26-.215h.588q.325 0 .49.147.167.146.167.43 0 .285-.167.43-.165.147-.49.147h-.328v.775h-.26v-1.929zM43.424 270.211l-.354.96h.71l-.356-.96zm-.147-.257h.295l.735 1.929h-.27l-.177-.495h-.869l-.176.495h-.275l.737-1.929zM45.505 270.979q.084.028.163.121.08.093.16.256l.265.527h-.28l-.247-.495q-.096-.194-.186-.257t-.244-.063h-.285v.815h-.26v-1.929h.589q.33 0 .493.138.163.139.163.418 0 .182-.085.302-.084.12-.246.167zm-.654-.81v.684h.329q.188 0 .284-.086.097-.088.097-.257 0-.17-.097-.255-.096-.086-.284-.086h-.329zM45.974 269.954h1.632v.22h-.685v1.709h-.262v-1.71h-.685v-.219zM49.023 270.017v.255q-.149-.071-.28-.106-.132-.035-.255-.035-.213 0-.33.083-.114.082-.114.235 0 .128.076.194.077.064.292.104l.158.033q.291.055.43.196.14.14.14.375 0 .28-.19.425-.187.144-.55.144-.137 0-.292-.03-.153-.032-.319-.092v-.269q.16.09.312.134.152.046.3.046.223 0 .344-.088.122-.088.122-.251 0-.142-.088-.222-.087-.08-.286-.12l-.159-.031q-.292-.058-.422-.183-.13-.124-.13-.344 0-.256.179-.404.18-.147.497-.147.136 0 .277.025.14.024.288.073z"/>
        </g>
        <g style="-inkscape-font-specification:sans-serif" font-weight="400" font-size="4.63" font-family="sans-serif" fill="#fff" stroke-width="3.543">
            <path d="M2.618 199.341q.147.05.285.213.14.163.28.448l.464.922h-.49l-.433-.866q-.167-.34-.325-.45-.156-.11-.427-.11h-.498v1.426h-.456v-3.375h1.03q.58 0 .864.241.285.242.285.73 0 .32-.15.53-.146.21-.429.291zm-1.144-1.417v1.198h.574q.33 0 .498-.151.17-.154.17-.45 0-.296-.17-.446-.167-.151-.498-.151h-.574zM4.219 198.392h.416v2.532h-.416v-2.532zm0-.986h.416v.527h-.416v-.527zM7.669 199.554v.203H5.756q.027.43.258.656.233.224.647.224.24 0 .463-.059.226-.059.448-.176v.393q-.224.095-.46.145-.234.05-.476.05-.606 0-.961-.353-.353-.353-.353-.954 0-.622.335-.986.337-.366.906-.366.511 0 .808.33.298.328.298.893zm-.416-.122q-.005-.342-.192-.545-.186-.204-.493-.204-.348 0-.559.197-.208.197-.24.554l1.484-.002zM10.314 198.878q.156-.28.373-.414.217-.133.511-.133.396 0 .61.278.215.276.215.787v1.528h-.418v-1.515q0-.364-.129-.54-.129-.176-.393-.176-.323 0-.511.214-.188.215-.188.586v1.431h-.418v-1.515q0-.366-.129-.54-.129-.176-.398-.176-.319 0-.506.217-.188.214-.188.583v1.431h-.418v-2.532h.418v.393q.143-.233.341-.343.2-.111.473-.111.276 0 .468.14.194.14.287.407zM13.997 199.651q-.504 0-.699.115-.194.116-.194.394 0 .221.145.353.147.128.398.128.346 0 .554-.244.21-.246.21-.653v-.093h-.414zm.83-.172v1.445h-.416v-.384q-.143.23-.355.341-.213.109-.52.109-.389 0-.62-.218-.228-.219-.228-.585 0-.427.285-.644.287-.217.854-.217h.584v-.041q0-.287-.19-.443-.188-.159-.53-.159-.216 0-.422.052t-.396.156v-.384q.229-.088.444-.131.214-.045.418-.045.55 0 .82.285.272.285.272.863zM17.8 199.396v1.528h-.416v-1.515q0-.36-.14-.538-.14-.178-.42-.178-.338 0-.532.214-.195.215-.195.586v1.431h-.418v-2.532h.418v.393q.15-.228.35-.341.204-.113.469-.113.436 0 .66.271.224.27.224.794zM20.739 199.396v1.528h-.416v-1.515q0-.36-.14-.538-.14-.178-.42-.178-.338 0-.532.214-.195.215-.195.586v1.431h-.418v-2.532h.418v.393q.15-.228.35-.341.204-.113.469-.113.436 0 .66.271.224.27.224.794z"/>
        </g>
        <g style="-inkscape-font-specification:sans-serif" font-weight="400" font-size="2.646" font-family="sans-serif" fill="#fff" stroke-width="3.543">
            <path d="M23.593 269.954h1.632v.22h-.685v1.709h-.262v-1.71h-.685v-.219zM26.398 270.979q.084.028.162.121.08.093.16.256l.265.527h-.28l-.247-.495q-.095-.194-.186-.257-.089-.063-.244-.063h-.284v.815h-.261v-1.929h.59q.33 0 .493.138.162.139.162.418 0 .182-.085.302-.084.12-.245.167zm-.654-.81v.684h.328q.189 0 .284-.086.097-.088.097-.257 0-.17-.097-.255-.095-.087-.284-.087h-.328z"/>
            <path d="M27.861 270.211l-.354.96h.71l-.356-.96zm-.147-.257h.296l.735 1.929h-.271l-.176-.495h-.87l-.175.495h-.275l.736-1.929zM29.028 269.954h.351l.856 1.614v-1.614h.253v1.929h-.352l-.855-1.614v1.614h-.253v-1.929zM32.163 270.017v.255q-.148-.071-.28-.106-.132-.035-.254-.035-.214 0-.33.083-.115.082-.115.235 0 .128.076.194.078.064.292.104l.158.033q.292.055.43.196.14.14.14.375 0 .28-.189.425-.187.144-.55.144-.137 0-.292-.03-.154-.032-.32-.092v-.269q.16.09.312.134.152.046.3.046.223 0 .345-.088.121-.088.121-.251 0-.142-.088-.222-.086-.08-.285-.12l-.16-.031q-.291-.058-.422-.183-.13-.124-.13-.344 0-.256.18-.404.18-.147.497-.147.136 0 .276.025.141.024.288.073zM32.953 270.169v.724h.328q.182 0 .282-.094.1-.094.1-.269 0-.173-.1-.267-.1-.094-.282-.094h-.328zm-.261-.215h.589q.324 0 .49.147.166.146.166.43 0 .285-.166.43-.166.147-.49.147h-.328v.775h-.261v-1.929zM35.072 270.131q-.285 0-.453.212-.166.212-.166.577t.166.577q.168.212.453.212.284 0 .45-.212.166-.212.166-.577t-.167-.577q-.165-.212-.45-.212zm0-.212q.405 0 .648.273.243.271.243.728 0 .456-.243.73-.243.27-.648.27-.407 0-.652-.27-.242-.272-.242-.73 0-.457.242-.728.245-.273.652-.273zM37.527 270.017v.255q-.148-.071-.28-.106-.132-.035-.254-.035-.214 0-.33.083-.115.082-.115.235 0 .128.076.194.078.064.292.104l.158.033q.292.055.43.196.14.14.14.375 0 .28-.189.425-.187.144-.55.144-.137 0-.292-.03-.154-.032-.32-.092v-.269q.16.09.312.134.152.046.3.046.223 0 .345-.088.121-.088.121-.251 0-.142-.088-.222-.086-.08-.285-.12l-.16-.031q-.291-.058-.422-.183-.13-.124-.13-.344 0-.256.18-.404.18-.147.497-.147.136 0 .276.025.141.024.288.073zM38.056 269.954h1.22v.22h-.96v.57h.92v.22h-.92v.7h.983v.219h-1.243v-1.929z"/>
        </g>
        <g style="-inkscape-font-specification:sans-serif" font-weight="400" font-size="2.646" font-family="sans-serif" fill="#fff" stroke-width="3.543">
            <path d="M51.713 271.883l-.736-1.929h.272l.611 1.624.613-1.624h.271l-.735 1.929h-.296zM53.763 270.131q-.284 0-.452.212-.167.212-.167.577t.167.577q.168.211.452.211.285 0 .45-.211.167-.212.167-.577t-.167-.577q-.165-.212-.45-.212zm0-.212q.406 0 .649.273.243.271.243.728 0 .456-.243.729-.243.271-.649.271-.407 0-.65-.271-.244-.271-.244-.729 0-.457.243-.728.244-.273.651-.273zM55.066 269.954h.26v1.929h-.26v-1.929zM57.29 270.103v.275q-.132-.123-.281-.184-.149-.06-.317-.06-.33 0-.506.202t-.176.584q0 .382.176.584.175.202.506.202.168 0 .317-.06.15-.061.281-.184v.272q-.137.093-.29.14-.153.046-.323.046-.438 0-.69-.267-.252-.269-.252-.733 0-.465.252-.732.252-.269.69-.269.173 0 .325.047.154.045.288.137zM57.696 269.954h.26v1.929h-.26v-1.929zM58.476 269.954h.352l.855 1.614v-1.614h.253v1.929h-.351l-.856-1.614v1.614h-.253v-1.929zM61.77 271.608v-.518h-.426v-.215h.685v.828q-.151.108-.333.163-.183.054-.39.054-.451 0-.707-.263-.255-.265-.255-.737t.255-.736q.256-.265.708-.265.188 0 .358.047.17.046.314.137v.277q-.145-.122-.308-.184t-.342-.062q-.354 0-.533.197-.177.198-.177.59 0 .39.177.587.179.198.533.198.138 0 .247-.023.108-.025.195-.075z"/>
        </g>
        <g style="-inkscape-font-specification:sans-serif" font-weight="400" font-size="2.646" font-family="sans-serif" fill="#fff" stroke-width="3.543">
            <path d="M2.003 269.96v.725h.328q.182 0 .281-.094.1-.094.1-.269 0-.173-.1-.267-.099-.094-.281-.094h-.328zm-.261-.214h.589q.324 0 .49.147.166.146.166.43 0 .285-.167.43-.165.147-.49.147h-.327v.775h-.261v-1.929zM3.364 269.746H4.39v.22h-.786v.473q.057-.02.114-.029.057-.01.114-.01.323 0 .511.177.189.177.189.48 0 .31-.194.484-.194.171-.546.171-.122 0-.248-.02t-.26-.062v-.263q.116.064.24.095.124.03.263.03.223 0 .353-.117.131-.117.131-.319 0-.201-.13-.319-.131-.118-.354-.118-.105 0-.21.024-.103.023-.212.072v-.969zM5.435 269.746h.22l-.672 2.174h-.22l.672-2.174zM6.415 271.675l-.737-1.929h.273l.61 1.624.613-1.624h.271l-.735 1.929h-.295z"/>
        </g>
        <g style="-inkscape-font-specification:sans-serif" font-weight="400" font-size="2.646" font-family="sans-serif" fill="#fff" stroke-width="3.543">
            <path d="M1.4 280.609h.39l.492 1.312.495-1.312h.388v1.928h-.254v-1.693l-.497 1.323H2.15l-.497-1.323v1.693H1.4v-1.928zM4.493 281.497q.188.04.292.167.106.127.106.313 0 .285-.196.442-.196.156-.558.156-.122 0-.25-.025-.129-.023-.266-.07v-.253q.109.064.238.096.13.032.27.032.246 0 .374-.097.129-.096.129-.281 0-.17-.12-.266-.12-.097-.332-.097h-.225v-.215h.235q.192 0 .294-.076.102-.077.102-.222 0-.149-.105-.227-.105-.08-.301-.08-.108 0-.23.023-.123.023-.27.072v-.233q.148-.04.277-.062.13-.02.246-.02.297 0 .47.135t.173.365q0 .16-.092.271-.091.11-.26.152zM5.776 280.609h.22l-.672 2.174h-.22l.672-2.174zM6.756 282.537l-.737-1.928h.273l.61 1.624.613-1.624h.272l-.736 1.928h-.295z"/>
        </g>
        <flowRoot xml:space="preserve" style="line-height:125%" transform="matrix(.26458 0 0 .26458 -36.859 133.038)" font-style="normal" font-weight="400" font-size="10" font-family="sans-serif" letter-spacing="0" word-spacing="0" fill="#000" fill-opacity="1" stroke="none" stroke-width="1" stroke-linecap="butt" stroke-linejoin="miter" stroke-opacity="1">
            <flowRegion>
                <path d="M323.249 35.538h7.829v72.478h-7.829z"/>
            </flowRegion>
            <flowPara/>
        </flowRoot>
        <g clip-path="url(#e)" transform="matrix(.26458 0 0 .26458 -30.072 278.039)" style="line-height:125%" font-weight="400" font-size="7.5" font-family="Geneva" letter-spacing="0" word-spacing="0" fill="#fff">
            <path d="M186.153 66.995h.681v.015q0 .263.201.44.202.171.682.171.42 0 .68-.205.264-.205.264-.483 0-.377-.512-.535l-.348-.106-.23-.073-.473-.147q-.81-.296-.81-.985 0-.483.392-.85.392-.366 1.165-.366.761 0 1.084.315.322.311.322.692v.015h-.685v-.015q0-.205-.209-.322-.205-.117-.549-.117-.41 0-.63.172-.216.168-.216.417 0 .19.14.312.142.117.475.212l.33.092.238.07q.498.142.619.2.124.06.249.15.172.133.253.32.084.186.084.435 0 .579-.418.974-.413.396-1.212.396-.505 0-.838-.15-.334-.15-.531-.414-.198-.267-.198-.615v-.015zM199.465 68.189q-.802 0-1.37-.542-.564-.546-.564-1.619 0-1.07.564-1.611.568-.546 1.37-.546.798 0 1.362.546.568.542.568 1.611 0 1.073-.568 1.619-.564.542-1.362.542zm0-.568q.549 0 .882-.436.337-.439.337-1.157 0-.714-.337-1.15-.333-.44-.882-.44-.553 0-.89.44-.334.436-.334 1.15 0 .718.334 1.157.337.436.89.436zM212.4 63.985h.68v4.09h-.68v-.714q-.213.33-.418.495-.205.164-.421.249-.217.084-.473.084-.567 0-.963-.319-.396-.322-.396-1.292v-2.593h.682v2.307q0 .897.238 1.084.238.187.59.187.303 0 .57-.176.272-.18.429-.498.161-.322.161-.894v-2.01zM224.18 67.497v.571q-.498.12-.762.12-.38 0-.688-.153-.304-.154-.465-.447-.158-.293-.158-.934v-2.102h-.71v-.567h.71v-.967h.682v.967h1.193v.567h-1.193v1.908q0 .542.084.755.084.208.263.307.184.1.436.1.202 0 .608-.125zM233.2 68.075h-.681v-5.91h.68v2.527q.217-.334.418-.495.206-.161.425-.242.224-.084.495-.084.384 0 .688.158.308.157.476.465.169.304.169.978v2.603h-.682v-2.31q0-.55-.073-.777-.073-.23-.278-.359-.205-.132-.469-.132-.3 0-.571.176-.271.176-.436.49-.161.316-.161.902v2.01zM245.04 69.665h-.682v-5.68h.682v.71q.212-.362.402-.513.194-.15.436-.23.242-.08.498-.08.469 0 .857.256.388.252.6.758.217.505.217 1.135 0 .934-.45 1.553-.447.615-1.257.615-.26 0-.494-.077-.23-.073-.41-.22-.18-.15-.4-.53v2.303zm0-3.633q0 .696.3 1.142.3.447.846.447.498 0 .827-.395.33-.396.33-1.183 0-.92-.348-1.275-.348-.358-.795-.358-.322 0-.604.197-.278.194-.417.583-.14.384-.14.842zM258.176 68.189q-.802 0-1.37-.542-.564-.546-.564-1.619 0-1.07.564-1.611.568-.546 1.37-.546.798 0 1.362.546.567.542.567 1.611 0 1.073-.567 1.619-.564.542-1.362.542zm0-.568q.549 0 .882-.436.337-.439.337-1.157 0-.714-.337-1.15-.333-.44-.882-.44-.553 0-.89.44-.334.436-.334 1.15 0 .718.334 1.157.337.436.89.436zM269.177 68.075h-.682v-5.91h.682v5.91zM280.456 67.024h.681v.037q0 .27-.216.553-.216.282-.571.428-.356.147-.817.147-.934 0-1.443-.604-.505-.605-.505-1.528 0-.944.534-1.563.539-.623 1.385-.623.465 0 .842.202.377.201.597.63.22.424.22 1.186v.227h-2.904q0 .656.351 1.08.355.425.982.425.45 0 .655-.172.209-.176.209-.388v-.037zm-2.154-1.42h2.209v-.081q0-.286-.14-.553-.135-.271-.377-.4-.241-.131-.564-.131-.38 0-.703.307-.322.304-.425.857z" style="-inkscape-font-specification:Geneva"/>
        </g>
        <g clip-path="url(#f)" transform="matrix(.23845 0 0 .23845 -19.823 295.031)">
            <path d="M291.232-10.527l6.43-3.034 5.953-.742 4.222.511 5.886 2.16 4.683 4.37z" fill-rule="evenodd"/>
            <g stroke="#fff">
                <g color="#000" fill="none" stroke-linejoin="bevel">
                    <path d="M2.117 188.81l18.113 36.226 65.551 31.913 90.564 13.8 94.877-11.213 60.376-31.913 14.663-30.188-14.663-37.951.324 67.923-33.1-64.473-25.875 96.602-58.651-80.214-40.538 91.427-40.538-75.902-46.576 61.239-17.098-92.852-49.316 62.663 6.037-89.702 44.241 27.296 63.574 32.218 80-16.819 86.466-15.957 31.051-3.666-33.279-62.05 1.366 64.853-64.689-74.392-20.7 91.427-69.001-66.198-75.902 50.026L84.751 80.38l-59.346 55.816 24.151-56.064h34.501l81.077-37.088-18.975 69.864 89.702-24.15 62.101 7.762-66.314-54.334 4.212 46.571-70.726-45.713 66.414-1.725-53.476-15.525-12.938 16.388-49.164-6.9-66.414 44.85-33.333 49.417 9.183 6.647L2.118 188.81z" stroke-width="2.892" transform="matrix(.09825 0 0 .0698 286.195 -16.043)"/>
                    <path d="M133.17 195.51l12.99-80.876-61.407-35.517 32.081-44.697 28.463-4.313 32.776-5.175 41.401 6.9 12.938 10.35 47.438 20.7 18.975 34.501 30.188 30.188 2.803 31.913" stroke-width="2.892" transform="matrix(.09825 0 0 .0698 286.195 -16.043)"/>
                    <path d="M329.01 126.71l-49.16-63.83-59.77-31.05M1.926 188.186L16.11 129.84" stroke-width="2" transform="matrix(.09825 0 0 .0698 286.195 -16.043)"/>
                </g>
            </g>
            <path d="M320.187-2.25l-1.666-4.93" fill="none" stroke="#fff" stroke-width=".2"/>
        </g>
        <path clip-path="url(#g)" d="M2.826 292.087l3.149-1.34 1.329.417 1.108-.783 2.215.291.933-.35 3.024.98-1.042.478-9.503.292z" transform="matrix(1.89522 0 0 1 1.538 .734)" fill-rule="evenodd"/>
        <g style="-inkscape-font-specification:sans-serif" font-weight="400" font-size="1.984" font-family="sans-serif" fill="#fff" stroke-width="3.543">
            <path d="M9.175 267.416h.292l.37.985.37-.985h.292v1.447h-.19v-1.27l-.374.992h-.197l-.373-.992v1.27h-.19v-1.447zM11.37 268.317q-.216 0-.3.05-.083.05-.083.168 0 .095.062.152.063.055.17.055.15 0 .238-.105.09-.106.09-.28v-.04h-.177zm.356-.073v.619h-.179v-.165q-.06.099-.152.147-.09.046-.223.046-.166 0-.265-.093-.098-.094-.098-.25 0-.184.122-.277.123-.093.366-.093h.25v-.017q0-.124-.081-.19-.08-.068-.227-.068-.093 0-.18.022-.09.022-.17.067v-.165q.097-.038.19-.056.091-.02.179-.02.235 0 .351.123.117.122.117.37zM12.098 267.778h.178v1.104q0 .208-.08.3-.078.094-.253.094h-.068v-.152h.047q.102 0 .139-.047.037-.047.037-.195v-1.104zm0-.423h.178v.226h-.178v-.226zM12.965 267.416h.165l-.504 1.631h-.165l.504-1.63zM14.163 267.986q.067-.12.16-.177.093-.058.22-.058.169 0 .261.12.092.118.092.337v.655h-.18v-.65q0-.155-.054-.23-.056-.077-.17-.077-.138 0-.218.093-.08.092-.08.25v.614h-.18v-.65q0-.156-.055-.23-.055-.076-.17-.076-.137 0-.218.093-.08.092-.08.25v.613h-.18v-1.085h.18v.168q.061-.1.146-.147.086-.048.203-.048.118 0 .2.06.084.06.123.175zM15.249 267.778h.178v1.085h-.178v-1.085zm0-.423h.178v.226h-.178v-.226zM16.701 268.208v.655h-.178v-.65q0-.153-.06-.23-.06-.076-.18-.076-.145 0-.228.092-.083.092-.083.25v.614h-.18v-1.085h.18v.168q.063-.098.15-.146.087-.048.2-.048.187 0 .283.116.096.115.096.34z"/>
        </g>
        <g style="-inkscape-font-specification:sans-serif" font-weight="400" font-size="1.984" font-family="sans-serif" fill="#fff" stroke-width="3.543">
            <path d="M9.548 277.641l-.265.72h.532l-.267-.72zm-.11-.193h.222l.551 1.447h-.203l-.132-.371h-.652l-.132.37h-.206l.552-1.446zM10.395 278.467v-.657h.179v.65q0 .154.06.231.06.077.18.077.144 0 .228-.092.084-.092.084-.251v-.615h.178v1.085h-.178v-.167q-.065.099-.151.147-.086.048-.199.048-.187 0-.284-.116-.097-.117-.097-.34zM12.387 278.34q0-.194-.08-.3-.08-.107-.224-.107-.143 0-.224.106-.08.107-.08.3 0 .194.08.3.08.107.224.107.145 0 .224-.107.08-.106.08-.3zm.179.42q0 .277-.123.412-.123.136-.377.136-.094 0-.178-.015-.083-.013-.161-.042v-.174q.078.043.155.063.076.02.156.02.175 0 .262-.092.087-.09.087-.276v-.088q-.055.096-.141.144-.086.047-.206.047-.2 0-.322-.152t-.122-.403q0-.252.122-.404.122-.152.322-.152.12 0 .206.047.086.048.141.144v-.165h.179v.95zM13.25 277.448h.165l-.504 1.631h-.165l.504-1.63zM14.318 277.974v-.587h.178v1.508h-.178v-.163q-.057.097-.143.144-.085.047-.205.047-.197 0-.321-.157-.123-.157-.123-.413t.123-.413q.124-.156.32-.156.12 0 .206.047t.143.143zm-.608.38q0 .196.08.308.082.112.223.112.142 0 .223-.112.082-.112.082-.309 0-.196-.082-.308-.081-.112-.223-.112-.141 0-.223.112-.08.112-.08.308zM14.863 277.81h.178v1.085h-.178v-1.085zm0-.423h.178v.226h-.178v-.226zM16.258 278.018q.067-.12.16-.177.093-.057.22-.057.169 0 .26.119.093.118.093.337v.655h-.18v-.65q0-.155-.055-.23-.055-.076-.168-.076-.139 0-.22.092-.08.092-.08.25v.614h-.179v-.65q0-.156-.055-.23-.055-.076-.17-.076-.137 0-.218.093-.08.092-.08.25v.613h-.18v-1.085h.18v.168q.06-.1.146-.147.085-.048.203-.048.118 0 .2.06.084.06.123.175z"/>
        </g>
        <g style="-inkscape-font-specification:sans-serif" font-weight="400" font-size="1.984" font-family="sans-serif" fill="#fff" stroke-width="3.543">
            <path d="M19.06 267.81v.168q-.076-.039-.157-.058-.081-.02-.169-.02-.132 0-.2.041-.065.04-.065.122 0 .062.047.098.048.035.191.067l.061.014q.19.04.27.115.08.074.08.206 0 .152-.12.24t-.329.088q-.087 0-.182-.018-.094-.016-.198-.05v-.184q.098.051.194.078.096.025.19.025.126 0 .194-.043t.068-.122q0-.073-.05-.111-.048-.04-.214-.075l-.062-.015q-.165-.034-.239-.106-.074-.073-.074-.199 0-.153.109-.236.108-.083.308-.083.099 0 .186.014.087.015.16.044zM19.384 268.434v-.657h.179v.65q0 .155.06.232.06.077.18.077.144 0 .228-.092.084-.092.084-.251v-.616h.178v1.086h-.178v-.167q-.065.099-.151.147-.085.048-.199.048-.187 0-.284-.117-.097-.116-.097-.34zM21.354 267.81v.168q-.075-.039-.157-.058-.081-.02-.168-.02-.133 0-.2.041-.066.04-.066.122 0 .062.048.098.047.035.19.067l.062.014q.19.04.269.115.08.074.08.206 0 .152-.12.24-.119.088-.328.088-.087 0-.182-.018-.094-.016-.199-.05v-.184q.099.051.195.078.096.025.19.025.126 0 .194-.043.067-.043.067-.122 0-.073-.05-.111-.048-.04-.213-.075l-.062-.015q-.166-.034-.24-.106-.073-.073-.073-.199 0-.153.108-.236.109-.083.308-.083.1 0 .186.014.088.015.161.044z"/>
        </g>
    </g>
</svg>
