<svg xmlns="http://www.w3.org/2000/svg" xmlns:xlink="http://www.w3.org/1999/xlink" width="90" height="380" viewBox="0 0 23.813 100.542">
    <defs>
        <linearGradient id="b">
            <stop offset="0" stop-color="#fff"/>
            <stop offset="1" stop-opacity="0"/>
        </linearGradient>
        <linearGradient id="a">
            <stop offset="0" stop-color="#fdfdfd"/>
            <stop offset="1" stop-color="#fdfdfd"/>
        </linearGradient>
        <radialGradient gradientUnits="userSpaceOnUse" gradientTransform="matrix(.4218 0 0 .02673 -105.982 272.192)" r="69.827" fy="856.052" fx="285.494" cy="856.052" cx="285.494" id="d" xlink:href="#a"/>
        <linearGradient gradientUnits="userSpaceOnUse" y2="832.532" x2="279.915" y1="830.884" x1="268.967" id="h" xlink:href="#b" gradientTransform="matrix(.26458 0 0 .26458 -59.861 72.341)"/>
        <clipPath clipPathUnits="userSpaceOnUse" id="j">
            <path fill="#fff" stroke="gray" stroke-width="1.664" d="M176.059 41.761h115.198v45.223H176.059z"/>
        </clipPath>
        <clipPath clipPathUnits="userSpaceOnUse" id="i">
            <path fill="#fff" stroke="gray" stroke-width=".388" d="M4.03 289.485h23.689v11.965H4.03z"/>
        </clipPath>
        <clipPath clipPathUnits="userSpaceOnUse" id="g">
            <path fill="#fff" stroke="gray" stroke-width=".388" d="M4.03 289.485h23.689v11.965H4.03z"/>
        </clipPath>
        <clipPath clipPathUnits="userSpaceOnUse" id="f">
            <path fill="#fff" stroke="gray" stroke-width="1.627" d="M233.601-18.821h99.346v50.18h-99.346z"/>
        </clipPath>
        <clipPath clipPathUnits="userSpaceOnUse" id="e">
            <path fill="#fff" stroke="gray" stroke-width=".388" d="M4.03 289.485h23.689v11.965H4.03z"/>
        </clipPath>
        <clipPath clipPathUnits="userSpaceOnUse" id="c">
            <path fill="#fff" stroke="gray" stroke-width=".388" d="M4.03 289.485h23.689v11.965H4.03z"/>
        </clipPath>
    </defs>
    <g transform="translate(0 -196.458)">
        <path d="M0 196.458h23.813V297H0z" fill-rule="evenodd"/>
        <rect width="6.749" height="14.568" x="16.255" y="274.775" rx=".806" ry=".874" fill="#404040"/>
        <flowRoot transform="matrix(.26458 0 0 .26458 -58.46 115.922)" style="line-height:125%" xml:space="preserve" font-style="normal" font-weight="400" font-size="10" font-family="sans-serif" letter-spacing="0" word-spacing="0" fill="#000" fill-opacity="1" stroke="none" stroke-width="1" stroke-linecap="butt" stroke-linejoin="miter" stroke-opacity="1">
            <flowRegion>
                <path d="M323.249 35.538h7.829v72.478h-7.829z"/>
            </flowRegion>
            <flowPara/>
        </flowRoot>
        <path clip-path="url(#c)" d="M31.483 294.933l-17.042-.125-14.418.125-.878-3.47c4.81-1.004 10.75-1.724 16.17-1.72 5.716.006 9.887.467 17.047 1.845z" fill="url(#d)" stroke="#8b8b8b" stroke-width=".397" transform="translate(-3.969)"/>
        <path clip-path="url(#e)" d="M0 291.993c10.904-1.21 21.546-.99 31.75.123l-.033 3.296H0z" transform="translate(-3.969)"/>
        <g clip-path="url(#f)" transform="matrix(.23845 0 0 .23845 -55.64 293.973)">
            <path d="M291.232-10.527l6.43-3.034 5.953-.742 4.222.511 5.886 2.16 4.683 4.37z" fill-rule="evenodd"/>
            <g stroke="#fff">
                <g color="#000" fill="none" stroke-linejoin="bevel">
                    <path d="M2.117 188.81l18.113 36.226 65.551 31.913 90.564 13.8 94.877-11.213 60.376-31.913 14.663-30.188-14.663-37.951.324 67.923-33.1-64.473-25.875 96.602-58.651-80.214-40.538 91.427-40.538-75.902-46.576 61.239-17.098-92.852-49.316 62.663 6.037-89.702 44.241 27.296 63.574 32.218 80-16.819 86.466-15.957 31.051-3.666-33.279-62.05 1.366 64.853-64.689-74.392-20.7 91.427-69.001-66.198-75.902 50.026L84.751 80.38l-59.346 55.816 24.151-56.064h34.501l81.077-37.088-18.975 69.864 89.702-24.15 62.101 7.762-66.314-54.334 4.212 46.571-70.726-45.713 66.414-1.725-53.476-15.525-12.938 16.388-49.164-6.9-66.414 44.85-33.333 49.417 9.183 6.647L2.118 188.81z" stroke-width="2.892" transform="matrix(.09825 0 0 .0698 286.195 -16.043)"/>
                    <path d="M133.17 195.51l12.99-80.876-61.407-35.517 32.081-44.697 28.463-4.313 32.776-5.175 41.401 6.9 12.938 10.35 47.438 20.7 18.975 34.501 30.188 30.188 2.803 31.913" stroke-width="2.892" transform="matrix(.09825 0 0 .0698 286.195 -16.043)"/>
                    <path d="M329.01 126.71l-49.16-63.83-59.77-31.05M1.926 188.186L16.11 129.84" stroke-width="2" transform="matrix(.09825 0 0 .0698 286.195 -16.043)"/>
                </g>
            </g>
            <path d="M320.187-2.25l-1.666-4.93" fill="none" stroke="#fff" stroke-width=".2"/>
        </g>
        <path clip-path="url(#i)" d="M2.826 292.087l3.149-1.34 1.329.417 1.108-.783 2.215.291.933-.35 3.024.98-1.042.478-9.503.292z" fill-rule="evenodd" transform="translate(-3.969)"/>
        <g clip-path="url(#j)" transform="matrix(.20564 0 0 .26458 -36.142 278.436)" style="line-height:125%" font-weight="400" font-size="7.5" font-family="Geneva" letter-spacing="0" word-spacing="0" fill="#fff">
            <path d="M186.153 66.995h.681v.015q0 .263.201.44.202.171.682.171.42 0 .68-.205.264-.205.264-.483 0-.377-.512-.535l-.348-.106-.23-.073-.473-.147q-.81-.296-.81-.985 0-.483.392-.85.392-.366 1.165-.366.761 0 1.084.315.322.311.322.692v.015h-.685v-.015q0-.205-.209-.322-.205-.117-.549-.117-.41 0-.63.172-.216.168-.216.417 0 .19.14.312.142.117.475.212l.33.092.238.07q.498.142.619.2.124.06.249.15.172.133.253.32.084.186.084.435 0 .579-.418.974-.413.396-1.212.396-.505 0-.838-.15-.334-.15-.531-.414-.198-.267-.198-.615v-.015zM199.465 68.189q-.802 0-1.37-.542-.564-.546-.564-1.619 0-1.07.564-1.611.568-.546 1.37-.546.798 0 1.362.546.568.542.568 1.611 0 1.073-.568 1.619-.564.542-1.362.542zm0-.568q.549 0 .882-.436.337-.439.337-1.157 0-.714-.337-1.15-.333-.44-.882-.44-.553 0-.89.44-.334.436-.334 1.15 0 .718.334 1.157.337.436.89.436zM212.4 63.985h.68v4.09h-.68v-.714q-.213.33-.418.495-.205.164-.421.249-.217.084-.473.084-.567 0-.963-.319-.396-.322-.396-1.292v-2.593h.682v2.307q0 .897.238 1.084.238.187.59.187.303 0 .57-.176.272-.18.429-.498.161-.322.161-.894v-2.01zM224.18 67.497v.571q-.498.12-.762.12-.38 0-.688-.153-.304-.154-.465-.447-.158-.293-.158-.934v-2.102h-.71v-.567h.71v-.967h.682v.967h1.193v.567h-1.193v1.908q0 .542.084.755.084.208.263.307.184.1.436.1.202 0 .608-.125zM233.2 68.075h-.681v-5.91h.68v2.527q.217-.334.418-.495.206-.161.425-.242.224-.084.495-.084.384 0 .688.158.308.157.476.465.169.304.169.978v2.603h-.682v-2.31q0-.55-.073-.777-.073-.23-.278-.359-.205-.132-.469-.132-.3 0-.571.176-.271.176-.436.49-.161.316-.161.902v2.01zM245.04 69.665h-.682v-5.68h.682v.71q.212-.362.402-.513.194-.15.436-.23.242-.08.498-.08.469 0 .857.256.388.252.6.758.217.505.217 1.135 0 .934-.45 1.553-.447.615-1.257.615-.26 0-.494-.077-.23-.073-.41-.22-.18-.15-.4-.53v2.303zm0-3.633q0 .696.3 1.142.3.447.846.447.498 0 .827-.395.33-.396.33-1.183 0-.92-.348-1.275-.348-.358-.795-.358-.322 0-.604.197-.278.194-.417.583-.14.384-.14.842zM258.176 68.189q-.802 0-1.37-.542-.564-.546-.564-1.619 0-1.07.564-1.611.568-.546 1.37-.546.798 0 1.362.546.567.542.567 1.611 0 1.073-.567 1.619-.564.542-1.362.542zm0-.568q.549 0 .882-.436.337-.439.337-1.157 0-.714-.337-1.15-.333-.44-.882-.44-.553 0-.89.44-.334.436-.334 1.15 0 .718.334 1.157.337.436.89.436zM269.177 68.075h-.682v-5.91h.682v5.91zM280.456 67.024h.681v.037q0 .27-.216.553-.216.282-.571.428-.356.147-.817.147-.934 0-1.443-.604-.505-.605-.505-1.528 0-.944.534-1.563.539-.623 1.385-.623.465 0 .842.202.377.201.597.63.22.424.22 1.186v.227h-2.904q0 .656.351 1.08.355.425.982.425.45 0 .655-.172.209-.176.209-.388v-.037zm-2.154-1.42h2.209v-.081q0-.286-.14-.553-.135-.271-.377-.4-.241-.131-.564-.131-.38 0-.703.307-.322.304-.425.857z" style="-inkscape-font-specification:Geneva"/>
        </g>
        <g font-size="1.984" fill="#fff">
            <path d="M1.27 219.851v.544h.247q.137 0 .211-.07.075-.072.075-.202t-.075-.201q-.074-.07-.211-.07h-.246zm-.195-.16h.442q.243 0 .367.11.125.11.125.322 0 .214-.125.323-.124.11-.367.11h-.246v.581h-.196v-1.447zM2.86 219.823q-.213 0-.34.16-.124.158-.124.432 0 .273.125.432.126.16.339.16.213 0 .337-.16.125-.159.125-.432 0-.274-.125-.433-.124-.159-.337-.159zm0-.159q.304 0 .486.205.183.203.183.546 0 .342-.183.547-.182.203-.486.203-.305 0-.488-.203-.183-.204-.183-.547 0-.343.183-.546.183-.205.488-.205zM4.702 219.738v.19q-.112-.053-.21-.079-.1-.026-.191-.026-.16 0-.247.062t-.087.177q0 .095.058.145.058.048.219.078l.118.025q.219.041.322.147.105.104.105.28 0 .211-.141.32-.14.108-.413.108-.103 0-.22-.023-.114-.023-.238-.069v-.202q.119.067.233.101.114.034.225.034.168 0 .259-.066.09-.066.09-.188 0-.106-.065-.166-.065-.06-.214-.09l-.12-.024q-.219-.043-.316-.136-.098-.093-.098-.259 0-.192.134-.302.136-.11.373-.11.102 0 .208.018.105.018.216.055zM5.098 219.69h.196v1.447h-.196v-1.447zM5.483 219.69h1.224v.165h-.514v1.282h-.197v-1.282h-.513v-.165zM6.9 219.69h.196v1.447H6.9v-1.447zM8.073 219.823q-.213 0-.34.16-.124.158-.124.432 0 .273.125.432.126.16.339.16.213 0 .337-.16.125-.159.125-.432 0-.274-.125-.433-.124-.159-.337-.159zm0-.159q.304 0 .486.205.182.203.182.546 0 .342-.182.547-.182.203-.486.203-.305 0-.489-.203-.182-.204-.182-.547 0-.343.182-.546.184-.205.489-.205zM9.048 219.69h.263l.642 1.21v-1.21h.19v1.447h-.264l-.642-1.21v1.21h-.19v-1.447z"/>
        </g>
        <g font-size="1.984" fill="#fff">
            <path d="M10.735 234.303v.191q-.112-.053-.21-.08-.1-.026-.191-.026-.16 0-.247.062t-.087.177q0 .096.058.145.058.048.219.079l.118.024q.219.041.322.147.105.105.105.281 0 .21-.141.319-.14.108-.413.108-.103 0-.22-.023-.114-.023-.239-.069v-.201q.12.067.234.1.114.034.225.034.167 0 .258-.065.092-.066.092-.188 0-.107-.066-.167-.065-.06-.214-.09l-.12-.024q-.219-.043-.316-.136-.098-.093-.098-.259 0-.192.134-.302.136-.11.373-.11.102 0 .208.018.105.018.216.055zM11.131 234.256h.196v1.446h-.196v-1.446zM11.633 234.256h1.137v.149l-.915 1.133h.937v.164H11.61v-.149l.914-1.133h-.892v-.164zM13.077 234.256h.914v.164h-.719v.429h.69v.164h-.69v.525h.737v.164h-.932v-1.446z"/>
        </g>
        <g font-size="1.984" fill="#fff">
            <path d="M17.721 219.851v.544h.246q.137 0 .211-.071.075-.07.075-.202 0-.13-.075-.2-.074-.07-.21-.07h-.247zm-.196-.16h.442q.243 0 .367.11.125.11.125.321 0 .215-.125.324-.124.11-.367.11h-.246v.58h-.196v-1.446zM18.723 219.69h.196v1.447h-.196v-1.447zM19.108 219.69h1.223v.165h-.513v1.282h-.197v-1.282h-.513v-.165zM21.492 219.802v.206q-.099-.092-.211-.137-.111-.046-.237-.046-.248 0-.38.152-.132.151-.132.438 0 .286.132.438.132.151.38.151.126 0 .237-.045.112-.046.211-.138v.205q-.103.07-.218.104-.114.035-.242.035-.329 0-.517-.2-.19-.202-.19-.55 0-.349.19-.55.188-.2.517-.2.13 0 .244.034.115.034.216.103zM21.796 219.69h.196v.593h.711v-.593h.196v1.447h-.196v-.689h-.71v.689h-.197v-1.447z"/>
        </g>
        <g font-size="1.984" fill="#fff">
            <path d="M4.441 282.879v-.389h-.32v-.16h.514v.62q-.114.08-.25.122-.137.041-.292.041-.339 0-.53-.198-.192-.198-.192-.552 0-.355.191-.552.192-.199.531-.199.142 0 .269.035.127.035.235.103v.208q-.109-.092-.23-.139-.123-.046-.257-.046-.266 0-.4.148-.132.148-.132.442 0 .293.132.44.134.15.4.15.103 0 .185-.018.081-.019.146-.056zM5.477 281.831l-.266.72h.532l-.266-.72zm-.11-.193h.221l.551 1.447h-.203l-.132-.371h-.652l-.132.37h-.206l.552-1.446zM6.35 281.638h.195v1.447H6.35v-1.447zM6.935 281.638h.264l.641 1.21v-1.21h.19v1.447h-.264l-.641-1.21v1.21h-.19v-1.447z"/>
        </g>
        <g font-size="1.984" fill="#fff">
            <path d="M1.27 239.196v1.125h.237q.3 0 .438-.136.14-.135.14-.428 0-.29-.14-.425-.138-.136-.438-.136h-.236zm-.195-.16h.402q.42 0 .618.175.196.174.196.546 0 .374-.197.55-.198.175-.617.175h-.402v-1.447zM2.602 239.035h.915v.165h-.719v.428h.689v.165h-.689v.524h.736v.165h-.932v-1.447zM3.854 239.035h.264l.641 1.21v-1.21h.19v1.447h-.264l-.641-1.21v1.21h-.19v-1.447zM6.206 239.083v.19q-.112-.053-.21-.079-.1-.026-.191-.026-.16 0-.248.062-.086.062-.086.176 0 .096.057.145.059.049.22.079l.118.024q.219.042.322.147.105.105.105.281 0 .21-.142.32-.14.108-.412.108-.103 0-.22-.023-.115-.024-.239-.07v-.2q.12.066.234.1.114.034.225.034.167 0 .258-.066t.091-.188q0-.107-.065-.167-.065-.06-.215-.09l-.119-.023q-.219-.044-.317-.137-.097-.093-.097-.258 0-.192.134-.303.136-.11.373-.11.102 0 .208.018.105.019.216.055zM6.602 239.035h.196v1.447h-.196v-1.447zM6.987 239.035H8.21v.165h-.513v1.282H7.5V239.2h-.513v-.165z"/>
            <path d="M8.206 239.035h.21l.401.595.398-.595h.21l-.511.758v.689h-.197v-.69l-.511-.757z"/>
        </g>
        <g font-size="1.984" fill="#fff">
            <path d="M7.416 253.657h1.223v.164h-.513v1.282h-.197v-1.282h-.513v-.164zM8.833 253.657h.915v.164h-.719v.429h.689v.164h-.689v.524h.736v.165h-.932v-1.446zM10.015 253.657h.21l.36.537.362-.537h.21l-.465.694.496.752h-.21l-.407-.615-.41.615h-.212l.517-.772-.45-.674zM11.212 253.657h1.224v.164h-.514v1.282h-.196v-1.282h-.514v-.164zM12.61 253.657h.196v.878q0 .233.084.336.085.101.273.101t.273-.101q.084-.103.084-.336v-.878h.197v.903q0 .283-.14.427-.14.144-.414.144-.274 0-.414-.144-.14-.144-.14-.427v-.903zM14.77 254.425q.064.021.123.091.06.07.12.192l.199.395h-.21l-.186-.37q-.071-.146-.14-.194-.066-.047-.182-.047h-.213v.611h-.196v-1.446h.442q.248 0 .37.103.122.104.122.313 0 .137-.064.227-.063.09-.184.125zm-.49-.608v.514h.247q.141 0 .213-.065.073-.066.073-.193t-.073-.19q-.072-.066-.213-.066h-.246zM15.465 253.657h.914v.164h-.719v.429h.69v.164h-.69v.524h.737v.165h-.932v-1.446z"/>
        </g>
        <g font-size="1.984" fill="#fff">
            <path d="M3.615 210.789h.831v.165H3.81v.426h.574v.165H3.81v.69h-.195v-1.446zM5.44 211.557q.063.022.122.091.06.07.12.192l.199.396h-.21l-.185-.371q-.072-.146-.14-.193-.067-.048-.183-.048H4.95v.612h-.196v-1.447h.442q.248 0 .37.104.122.103.122.313 0 .136-.064.226-.063.09-.184.125zm-.49-.607v.513h.246q.141 0 .213-.065.073-.065.073-.192t-.073-.191q-.072-.065-.213-.065H4.95zM6.134 210.789h.915v.165h-.72v.428h.69v.165h-.69v.524h.737v.165h-.932v-1.447zM7.386 210.789H8.3v.165h-.719v.428h.69v.165h-.69v.524h.737v.165h-.932v-1.447zM8.554 210.789h1.137v.15l-.915 1.132h.937v.165H8.532v-.15l.915-1.132h-.893v-.165zM9.998 210.789h.915v.165h-.72v.428h.69v.165h-.69v.524h.737v.165h-.932v-1.447z"/>
        </g>
        <g font-size="1.984" fill="#fff">
            <path d="M16.678 239.765v.53h.313q.158 0 .234-.065.077-.066.077-.2 0-.136-.077-.2-.076-.065-.234-.065h-.313zm0-.595v.436h.29q.143 0 .212-.054.071-.054.071-.164 0-.11-.07-.164-.07-.054-.214-.054h-.29zm-.196-.161h.5q.224 0 .345.093.12.093.12.264 0 .133-.061.212-.062.078-.182.098.144.03.224.13.08.097.08.244 0 .194-.132.3-.132.106-.375.106h-.52v-1.447zM17.842 239.009h.196v1.282h.704v.164h-.9v-1.446zM18.947 239.009h.914v.165h-.718v.428h.688v.165h-.688v.524h.736v.164h-.932v-1.446zM20.199 239.009h.263l.642 1.21v-1.21h.19v1.446h-.264l-.641-1.21v1.21h-.19v-1.446zM21.879 239.17v1.125h.236q.3 0 .438-.136.14-.136.14-.428 0-.29-.14-.426-.138-.135-.438-.135h-.236zm-.196-.161h.402q.42 0 .617.175t.197.547q0 .374-.198.55-.197.174-.616.174h-.402v-1.446z"/>
        </g>
        <path d="M7.157 276.678h.195v1.447h-.195v-1.447zM7.742 276.678h.264l.64 1.21v-1.21h.19v1.447h-.263l-.641-1.21v1.21h-.19v-1.447zM13.573 276.678h.196v1.282h.704v.165h-.9v-1.447zM7.413 286.946h.196v1.447h-.196v-1.447zM7.998 286.946h.264l.641 1.21v-1.21h.19v1.447H8.83l-.642-1.21v1.21h-.19v-1.447zM14.145 287.715q.063.021.123.09.06.07.12.193l.198.395h-.21l-.185-.371q-.072-.145-.14-.193-.066-.047-.183-.047h-.213v.61h-.196v-1.446h.442q.248 0 .37.104.123.104.123.313 0 .137-.064.227-.063.09-.185.125zm-.49-.608v.514h.246q.142 0 .213-.065.073-.066.073-.193t-.073-.19q-.071-.066-.213-.066h-.246z" fill="#fff"/>
        <g font-size="1.984" fill="#fff">
            <path d="M17.88 281.936q-.213 0-.339.159-.125.159-.125.433 0 .273.125.432.126.159.34.159.212 0 .337-.159.124-.159.124-.432 0-.274-.124-.433-.125-.16-.338-.16zm0-.159q.305 0 .487.204t.182.547q0 .342-.182.546-.182.204-.487.204t-.488-.204q-.182-.203-.182-.546t.182-.547q.183-.204.488-.204zM18.833 281.803h.196v.879q0 .233.085.335.084.102.273.102.188 0 .272-.102.085-.102.085-.335v-.879h.196v.903q0 .283-.14.428-.14.144-.413.144-.274 0-.415-.144-.14-.145-.14-.428v-.903zM20.108 281.803h1.224v.165h-.514v1.282h-.197v-1.282h-.513v-.165z"/>
        </g>
        <g font-size="1.984" fill="#fff">
            <path d="M7.848 206.778h1.224v.164h-.514v1.282h-.196v-1.282h-.514v-.164zM9.952 207.546q.063.021.122.091.06.07.12.192l.198.395h-.21l-.185-.37q-.072-.146-.14-.194-.066-.047-.183-.047h-.213v.611h-.195v-1.446h.441q.248 0 .37.103.123.104.123.313 0 .137-.064.227-.063.09-.184.125zm-.49-.608v.514h.245q.142 0 .214-.065.072-.066.072-.193t-.072-.19q-.072-.066-.214-.066h-.246zM10.645 206.778h.196v1.446h-.196v-1.446zM12.217 208.018v-.389h-.32v-.16h.514v.62q-.114.08-.25.123-.137.04-.292.04-.34 0-.53-.197-.192-.199-.192-.553 0-.354.191-.552.192-.199.531-.199.142 0 .268.035.128.035.236.103v.208q-.109-.092-.23-.138-.123-.047-.257-.047-.266 0-.4.149-.132.148-.132.441 0 .293.132.441.134.149.4.149.103 0 .185-.018.081-.018.146-.056z"/>
        </g>
        <g font-size="1.984" fill="#fff">
            <path d="M2.006 257.825v.19q-.111-.053-.21-.079-.099-.026-.19-.026-.16 0-.248.062-.086.062-.086.176 0 .096.057.146.058.048.219.078l.118.024q.22.042.323.148.105.104.105.28 0 .21-.142.32-.14.108-.413.108-.102 0-.219-.023-.115-.024-.239-.07v-.2q.12.066.234.1.114.034.224.034.168 0 .259-.066t.091-.188q0-.107-.066-.167-.065-.06-.214-.09l-.12-.023q-.218-.044-.316-.137-.098-.093-.098-.258 0-.192.135-.303.136-.11.373-.11.102 0 .207.018.106.019.216.056zM2.598 257.938v.544h.246q.137 0 .212-.071.074-.07.074-.202 0-.13-.074-.2-.075-.071-.212-.071h-.246zm-.195-.16h.441q.244 0 .368.11.125.109.125.321 0 .214-.125.324-.124.11-.368.11h-.246v.58h-.195v-1.446zM4.286 258.545q.063.022.122.092.06.07.12.191l.2.396h-.211l-.185-.371q-.072-.146-.14-.193-.067-.048-.183-.048h-.213v.612H3.6v-1.447h.442q.248 0 .37.104.122.103.122.313 0 .136-.064.226-.063.09-.184.125zm-.49-.607v.513h.246q.142 0 .213-.064.073-.066.073-.193t-.073-.191q-.071-.065-.213-.065h-.246zM4.98 257.777h.915v.165h-.72v.428h.69v.165h-.69v.524h.737v.165H4.98v-1.447zM6.715 257.97l-.265.72h.532l-.267-.72zm-.11-.193h.222l.551 1.447h-.203l-.132-.371H6.39l-.132.37h-.206l.552-1.446zM7.784 257.938v1.125h.237q.299 0 .437-.136.14-.135.14-.428 0-.29-.14-.425-.138-.136-.437-.136h-.237zm-.196-.16h.402q.421 0 .618.174.196.175.196.547 0 .374-.197.55-.198.175-.617.175h-.402v-1.447z"/>
        </g>
        <g font-size="1.984" fill="#fff">
            <path d="M6.71 272.544h.832v.165h-.636v.426h.574v.165h-.574v.69H6.71v-1.446zM7.85 272.544h.914v.165h-.718v.428h.688v.165h-.688v.524h.736v.164H7.85v-1.446zM9.102 272.544h.914v.165h-.719v.428h.69v.165h-.69v.524h.737v.164h-.932v-1.446zM10.55 272.705v1.125h.236q.3 0 .438-.136.14-.136.14-.428 0-.291-.14-.426-.139-.135-.438-.135h-.237zm-.196-.161h.402q.42 0 .617.175t.197.547q0 .374-.198.55-.198.174-.616.174h-.402v-1.446zM12.076 273.3v.53h.314q.158 0 .234-.065.076-.066.076-.2 0-.137-.076-.2-.076-.065-.234-.065h-.314zm0-.595v.436h.29q.143 0 .213-.054t.07-.164q0-.11-.07-.164-.07-.054-.213-.054h-.29zm-.195-.161h.5q.223 0 .344.093.122.093.122.264 0 .133-.062.212-.062.078-.183.097.145.031.224.13.08.098.08.245 0 .194-.131.3-.132.105-.375.105h-.52v-1.446zM13.724 272.737l-.265.72h.532l-.267-.72zm-.11-.193h.222l.551 1.446h-.203l-.132-.37H13.4l-.132.37h-.206l.552-1.446zM15.648 272.655v.207q-.099-.092-.211-.138-.112-.046-.238-.046-.248 0-.38.153-.131.15-.131.438 0 .285.131.438.132.15.38.15.126 0 .238-.045.112-.045.21-.137v.204q-.102.07-.217.105-.115.035-.242.035-.329 0-.518-.201-.189-.202-.189-.55 0-.348.19-.549.188-.201.517-.201.13 0 .244.035.115.033.216.102zM15.954 272.544h.196v.611l.649-.611h.252l-.718.674.77.772h-.259l-.694-.696v.696h-.196v-1.446z"/>
        </g>
        <g font-size="1.984" fill="#fff">
            <path d="M15.94 258.52q.062.02.121.09.06.07.12.192l.2.396h-.211l-.185-.372q-.072-.145-.14-.192-.067-.048-.183-.048h-.213v.612h-.196v-1.447h.442q.248 0 .37.104.122.103.122.313 0 .136-.064.226-.063.09-.184.125zm-.491-.608v.513h.246q.142 0 .213-.065.073-.065.073-.192t-.073-.191q-.071-.065-.213-.065h-.246zM16.633 257.75h.915v.166h-.72v.428h.69v.165h-.69v.524h.737v.165h-.932v-1.447zM18.258 259.198l-.552-1.447h.204l.458 1.218.46-1.218h.203l-.551 1.447h-.222zM19.241 257.75h.915v.166h-.719v.428h.689v.165h-.689v.524h.736v.165h-.932v-1.447zM21.18 258.52q.062.02.121.09.06.07.12.192l.2.396h-.211l-.185-.372q-.072-.145-.14-.192-.067-.048-.183-.048h-.213v.612h-.196v-1.447h.442q.248 0 .37.104.122.103.122.313 0 .136-.064.226-.063.09-.184.125zm-.491-.608v.513h.246q.142 0 .213-.065.073-.065.073-.192t-.073-.191q-.071-.065-.213-.065h-.246zM22.069 258.507v.53h.314q.158 0 .233-.065.077-.066.077-.2 0-.136-.077-.2-.075-.065-.233-.065h-.314zm0-.595v.436h.29q.143 0 .213-.053.07-.055.07-.165 0-.11-.07-.164-.07-.054-.214-.054h-.29zm-.196-.161h.5q.224 0 .345.093.121.093.121.264 0 .133-.062.212-.062.078-.182.098.144.03.224.13.08.097.08.245 0 .193-.132.299-.131.106-.375.106h-.519v-1.447z"/>
        </g>
        <g font-size="1.984" fill="#fff">
            <path d="M2.023 202.028v.308h.367v.139h-.367v.589q0 .133.036.17.037.038.148.038h.183v.15h-.183q-.206 0-.285-.077-.078-.078-.078-.281v-.59h-.131v-.138h.13v-.308h.18zM3.554 202.834v.087h-.82q.012.184.11.281.1.096.278.096.103 0 .199-.025.096-.025.191-.076v.169q-.096.04-.196.062-.101.021-.205.021-.26 0-.412-.15-.15-.152-.15-.41 0-.266.143-.422.144-.157.388-.157.22 0 .346.141.128.14.128.383zm-.178-.052q-.002-.146-.083-.234-.08-.087-.21-.087-.15 0-.24.084-.09.085-.103.238l.636-.001zM4.712 202.336l-.393.528.413.557h-.21l-.316-.426-.316.426h-.21l.421-.567-.385-.518h.21l.288.387.288-.387h.21zM5.162 202.028v.308h.368v.139h-.368v.589q0 .133.036.17.037.038.149.038h.183v.15h-.183q-.207 0-.285-.077-.079-.078-.079-.281v-.59h-.13v-.138h.13v-.308h.18zM5.747 202.993v-.657h.178v.65q0 .154.06.232.06.076.18.076.145 0 .228-.092.084-.092.084-.25v-.616h.179v1.085h-.179v-.166q-.065.098-.15.147-.086.047-.2.047-.186 0-.283-.116-.097-.116-.097-.34zM7.654 202.503q-.03-.018-.066-.025-.035-.01-.078-.01-.151 0-.232.1-.08.097-.08.281v.572h-.18v-1.085h.18v.168q.055-.098.146-.146.09-.048.218-.048.019 0 .041.003.022.002.05.007v.183zM8.73 202.834v.087h-.82q.012.184.11.281.1.096.278.096.103 0 .199-.025.096-.025.191-.076v.169q-.096.04-.196.062-.101.021-.205.021-.26 0-.412-.15-.15-.152-.15-.41 0-.266.143-.422.144-.157.388-.157.22 0 .346.141.128.14.128.383zm-.178-.052q-.002-.146-.083-.234-.079-.087-.21-.087-.15 0-.24.084-.09.085-.103.238l.636-.001zM10.344 202.368v.169q-.075-.039-.157-.058-.081-.02-.168-.02-.133 0-.2.04-.066.042-.066.123 0 .062.048.098.047.035.19.067l.062.013q.19.041.269.116.08.073.08.206 0 .151-.12.24-.119.088-.328.088-.087 0-.182-.018-.094-.016-.199-.05v-.184q.099.051.195.077.096.025.19.025.126 0 .193-.042.068-.044.068-.122 0-.073-.05-.112-.048-.039-.213-.074l-.062-.015q-.166-.035-.24-.106-.073-.073-.073-.199 0-.153.108-.236.109-.084.308-.084.1 0 .186.015.088.014.161.043zM11.139 203.522q-.076.194-.147.253-.072.06-.192.06h-.143v-.15h.105q.074 0 .114-.035.041-.035.09-.165l.032-.081-.439-1.068h.19l.338.849.34-.849h.189l-.477 1.186zM12.764 202.766v.655h-.179v-.649q0-.154-.06-.23-.06-.077-.18-.077-.144 0-.228.092-.083.092-.083.251v.613h-.18v-1.085h.18v.169q.064-.098.15-.147.088-.048.2-.048.188 0 .284.116.096.116.096.34zM13.298 202.028v.308h.367v.139h-.367v.589q0 .133.035.17.037.038.149.038h.183v.15h-.183q-.207 0-.285-.077-.079-.078-.079-.281v-.59h-.13v-.138h.13v-.308h.18zM14.802 202.766v.655h-.178v-.649q0-.154-.06-.23-.06-.077-.18-.077-.145 0-.228.092-.083.092-.083.251v.613h-.18v-1.507h.18v.59q.064-.097.15-.146.087-.048.2-.048.188 0 .283.116.096.116.096.34z"/>
        </g>
        <g style="-inkscape-font-specification:sans-serif" font-weight="400" font-size="4.63" font-family="sans-serif" fill="#fff" stroke-width=".5">
            <path d="M3.744 197.893v.446q-.26-.125-.49-.186-.231-.06-.446-.06-.373 0-.576.144-.202.145-.202.411 0 .224.134.34.135.112.51.183l.277.056q.51.097.752.344.245.244.245.655 0 .491-.33.744-.328.253-.964.253-.24 0-.51-.054t-.559-.16v-.47q.278.155.545.234.267.08.524.08.392 0 .604-.154.213-.154.213-.439 0-.249-.154-.389-.152-.14-.5-.21l-.278-.054q-.51-.102-.74-.319-.228-.217-.228-.604 0-.447.315-.705.316-.258.87-.258.238 0 .484.043t.504.13zM6.622 199.112q.156-.28.373-.414.217-.133.511-.133.396 0 .61.278.215.276.215.786v1.529h-.418v-1.515q0-.364-.129-.54-.129-.177-.393-.177-.323 0-.511.215t-.188.586v1.43h-.418v-1.514q0-.366-.129-.54-.129-.177-.398-.177-.319 0-.506.217-.188.215-.188.584v1.43h-.418v-2.531h.418v.393q.143-.233.342-.344.198-.11.472-.11.276 0 .468.14.194.14.287.407zM10.136 198.917q-.335 0-.53.263-.194.26-.194.714 0 .454.192.717.195.26.532.26.332 0 .526-.263.195-.262.195-.714 0-.45-.195-.712-.194-.265-.526-.265zm0-.352q.542 0 .852.352.31.353.31.977 0 .622-.31.977-.31.352-.852.352-.545 0-.855-.352-.308-.355-.308-.977 0-.624.308-.977.31-.352.855-.352zM11.97 197.64h.417v2.078l1.242-1.092h.53l-1.342 1.184 1.4 1.348h-.543l-1.287-1.237v1.237h-.418v-3.518zM16.665 199.788v.203h-1.913q.027.43.258.656.233.224.646.224.24 0 .464-.06.226-.058.448-.175v.393q-.224.095-.46.145-.234.05-.476.05-.606 0-.961-.353-.353-.353-.353-.954 0-.622.335-.986.337-.366.906-.366.511 0 .807.33.299.327.299.893zm-.416-.122q-.005-.342-.192-.545-.186-.204-.493-.204-.348 0-.559.197-.208.197-.24.554l1.484-.002z"/>
        </g>
    </g>
</svg>
