<?xml version="1.0" encoding="UTF-8" standalone="no"?>
<!-- Created with Inkscape (http://www.inkscape.org/) -->

<svg
   xmlns:dc="http://purl.org/dc/elements/1.1/"
   xmlns:cc="http://creativecommons.org/ns#"
   xmlns:rdf="http://www.w3.org/1999/02/22-rdf-syntax-ns#"
   xmlns:svg="http://www.w3.org/2000/svg"
   xmlns="http://www.w3.org/2000/svg"
   xmlns:xlink="http://www.w3.org/1999/xlink"
   xmlns:sodipodi="http://sodipodi.sourceforge.net/DTD/sodipodi-0.dtd"
   xmlns:inkscape="http://www.inkscape.org/namespaces/inkscape"
   width="120"
   height="380"
   viewBox="0 0 31.750001 100.54167"
   version="1.1"
   id="svg8"
   inkscape:version="0.91 r13725"
   sodipodi:docname="Smoke.svg">
  <defs
     id="defs2">
    <inkscape:perspective
       id="perspective4197"
       inkscape:persp3d-origin="240 : 126.66667 : 1"
       inkscape:vp_z="480 : 190 : 1"
       inkscape:vp_y="0 : 1000 : 0"
       inkscape:vp_x="0 : 190 : 1"
       sodipodi:type="inkscape:persp3d" />
    <linearGradient
       id="linearGradient4189"
       inkscape:collect="always">
      <stop
         id="stop4191"
         offset="0"
         style="stop-color:#ffffff;stop-opacity:1" />
      <stop
         id="stop4193"
         offset="1"
         style="stop-color:#000000;stop-opacity:0;" />
    </linearGradient>
    <linearGradient
       id="linearGradient5349"
       inkscape:collect="always">
      <stop
         id="stop5351"
         offset="0"
         style="stop-color:#fdfdfd;stop-opacity:1;" />
      <stop
         id="stop5353"
         offset="1"
         style="stop-color:#fdfdfd;stop-opacity:1" />
    </linearGradient>
    <radialGradient
       gradientUnits="userSpaceOnUse"
       gradientTransform="matrix(0.42180436,0,0,0.0267339,-105.98218,272.19192)"
       r="69.826797"
       fy="856.052"
       fx="285.49445"
       cy="856.052"
       cx="285.49445"
       id="radialGradient5357"
       xlink:href="#linearGradient5349"
       inkscape:collect="always" />
    <linearGradient
       gradientUnits="userSpaceOnUse"
       y2="832.53247"
       x2="279.91517"
       y1="830.88361"
       x1="268.96658"
       id="linearGradient4195"
       xlink:href="#linearGradient4189"
       inkscape:collect="always"
       gradientTransform="matrix(0.26458334,0,0,0.26458334,-59.861442,72.341009)" />
  </defs>
  <sodipodi:namedview
     id="base"
     pagecolor="#ffffff"
     bordercolor="#666666"
     borderopacity="1.0"
     inkscape:pageopacity="0.0"
     inkscape:pageshadow="2"
     inkscape:zoom="2.7793234"
     inkscape:cx="23.400521"
     inkscape:cy="99.510365"
     inkscape:document-units="mm"
     inkscape:current-layer="layer1"
     showgrid="false"
     units="px"
     inkscape:snap-bbox="true"
     inkscape:snap-page="true"
     inkscape:bbox-nodes="true"
     inkscape:snap-bbox-edge-midpoints="true"
     inkscape:window-width="1165"
     inkscape:window-height="1347"
     inkscape:window-x="1331"
     inkscape:window-y="28"
     inkscape:window-maximized="0"
     inkscape:showpageshadow="false"
     borderlayer="true" />
  <metadata
     id="metadata5">
    <rdf:RDF>
      <cc:Work
         rdf:about="">
        <dc:format>image/svg+xml</dc:format>
        <dc:type
           rdf:resource="http://purl.org/dc/dcmitype/StillImage" />
        <dc:title />
      </cc:Work>
    </rdf:RDF>
  </metadata>
  <g
     inkscape:label="Layer 1"
     inkscape:groupmode="layer"
     id="layer1"
     transform="translate(0,-196.45832)"
     style="display:inline">
    <path
       style="opacity:1;fill:#000000;fill-opacity:1;fill-rule:evenodd;stroke:none;stroke-width:0.48607069;stroke-linecap:butt;stroke-linejoin:round;stroke-miterlimit:4;stroke-dasharray:none;stroke-dashoffset:0;stroke-opacity:1;paint-order:normal"
       d="m 0,196.45831 31.750001,0 0,100.54168 -31.750001,0 z"
       id="rect817"
       inkscape:connector-curvature="0" />
    <path
       style="opacity:1;fill:url(#radialGradient5357);fill-opacity:1;stroke:#8b8b8b;stroke-width:0.39687501;stroke-linejoin:miter;stroke-miterlimit:4;stroke-dasharray:none;stroke-opacity:1"
       d="m 31.483446,294.93321 -17.042828,-0.12503 -14.4172474,0.12503 -0.87873195,-3.46985 c 4.80992545,-1.00484 10.75039865,-1.72449 16.17117335,-1.71947 5.715286,0.005 9.886121,0.46573 17.046366,1.84449 z"
       id="path5329"
       inkscape:connector-curvature="0"
       sodipodi:nodetypes="ccccacc" />
    <flowRoot
       transform="matrix(0.26458334,0,0,0.26458334,-58.459936,293.81811)"
       style="font-style:normal;font-variant:normal;font-weight:normal;font-stretch:normal;font-size:10px;line-height:125%;font-family:'Trajan Pro 3';-inkscape-font-specification:'Trajan Pro 3, ';letter-spacing:0px;word-spacing:0px;fill:#000000;fill-opacity:1;stroke:none;stroke-width:1px;stroke-linecap:butt;stroke-linejoin:miter;stroke-opacity:1"
       id="flowRoot4136"
       xml:space="preserve"><flowRegion
         id="flowRegion4138"><rect
           style="font-style:normal;font-variant:normal;font-weight:normal;font-stretch:normal;font-family:'Trajan Pro 3';-inkscape-font-specification:'Trajan Pro 3, '"
           y="51.42857"
           x="91.428574"
           height="117.14286"
           width="388.57144"
           id="rect4140" /></flowRegion><flowPara
         id="flowPara4142" /></flowRoot>    <flowRoot
       transform="matrix(0.26458334,0,0,0.26458334,-58.459936,115.92228)"
       style="font-style:normal;font-weight:normal;font-size:10px;line-height:125%;font-family:sans-serif;letter-spacing:0px;word-spacing:0px;fill:#000000;fill-opacity:1;stroke:none;stroke-width:1px;stroke-linecap:butt;stroke-linejoin:miter;stroke-opacity:1"
       id="flowRoot5341"
       xml:space="preserve"><flowRegion
         id="flowRegion5343"><rect
           y="35.537983"
           x="323.24881"
           height="72.478447"
           width="7.8286824"
           id="rect5345" /></flowRegion><flowPara
         id="flowPara5347" /></flowRoot>    <path
       sodipodi:nodetypes="ccccc"
       inkscape:connector-curvature="0"
       id="rect5381"
       d="M -1.0865176e-6,291.9933 C 10.904412,290.78346 21.545669,291.00362 31.750002,292.11599 l -0.03339,3.29649 -31.7166130865176,0 z"
       style="opacity:1;fill:#000000;fill-opacity:1;stroke:none;stroke-width:1.00699997;stroke-linejoin:miter;stroke-miterlimit:4;stroke-dasharray:none;stroke-opacity:1" />
    <g
       transform="matrix(0.23844891,0,0,0.23844891,-51.671412,293.97285)"
       id="g5348">
      <path
         style="fill:#000000;fill-opacity:1;fill-rule:evenodd;stroke:none;stroke-width:1px;stroke-linecap:butt;stroke-linejoin:miter;stroke-opacity:1"
         d="m 291.23228,-10.52707 6.43066,-3.03395 5.95249,-0.742 4.22115,0.51115 5.88653,2.16005 4.68284,4.36955 z"
         id="path4179"
         inkscape:connector-curvature="0" />
      <g
         inkscape:label="Back"
         id="layer2-0"
         transform="translate(109.83831,-148.57805)">
        <g
           inkscape:label="Back"
           id="layer2-5"
           transform="matrix(0.09824765,0,0,0.06980857,176.35705,132.53479)"
           style="stroke:#ffffff;stroke-opacity:1">
          <g
             id="g2838"
             style="stroke:#ffffff;stroke-opacity:1" />
          <g
             id="g2852"
             style="stroke:#ffffff;stroke-opacity:1">
            <path
               d="m 2.1174,188.81 18.113,36.226 65.551,31.913 90.564,13.8 94.877,-11.213 60.376,-31.913 14.663,-30.188 -14.663,-37.951 0.32345,67.923 -33.099,-64.473 -25.876,96.602 -58.651,-80.214 -40.538,91.427 -40.538,-75.902 -46.576,61.239 -17.098,-92.852 -49.316,62.663 6.0376,-89.702 44.241,27.296 63.574,32.218 79.999,-16.819 86.467,-15.957 31.051,-3.6657 -33.27949,-62.050611 1.366,64.853611 -64.689,-74.392 -20.7,91.427 -69.001,-66.198 -75.902,50.026 15.35717,-82.554584 -59.34617,55.816584 24.151,-56.064 34.501,0 81.077,-37.088 -18.975,69.864 89.702,-24.151 62.101,7.7627 -66.314,-54.334 4.2124,46.571 -70.726,-45.713 66.414,-1.725 -53.476,-15.525 -12.938,16.388 -49.164,-6.9001 -66.414,44.851 -33.333,49.416 9.1828,6.6475 -23.288,52.614 z"
               style="color:#000000;fill:none;stroke:#ffffff;stroke-width:2.89188218;stroke-linejoin:bevel;stroke-miterlimit:4;stroke-dasharray:none;stroke-opacity:1"
               sodipodi:nodetypes="ccccccccccccccccccccccccccccccccccccccccccccccccc"
               id="path3614"
               inkscape:connector-curvature="0" />
            <path
               d="M 133.17,195.51 146.16,114.634 84.75317,79.116604 116.834,34.42 l 28.463,-4.3126 32.776,-5.1751 41.401,6.9001 12.938,10.35 47.438,20.7 18.975,34.501 30.188,30.188 2.8032,31.913"
               style="color:#000000;fill:none;stroke:#ffffff;stroke-width:2.89188218;stroke-linejoin:bevel;stroke-miterlimit:4;stroke-dasharray:none;stroke-opacity:1"
               sodipodi:nodetypes="cccccccccccc"
               id="path3616"
               inkscape:connector-curvature="0" />
            <path
               d="M 329.01,126.71 279.85,62.88 220.08,31.83"
               style="color:#000000;fill:none;stroke:#ffffff;stroke-width:2;stroke-linejoin:bevel;stroke-opacity:1"
               sodipodi:nodetypes="ccc"
               id="path3618"
               inkscape:connector-curvature="0" />
            <path
               d="M 1.9262189,188.1862 16.108581,129.83899"
               style="color:#000000;fill:none;stroke:#ffffff;stroke-width:2;stroke-linejoin:bevel;stroke-opacity:1"
               id="path3620"
               inkscape:connector-curvature="0"
               sodipodi:nodetypes="cc" />
          </g>
        </g>
      </g>
      <path
         style="fill:none;fill-rule:evenodd;stroke:#ffffff;stroke-width:0.2;stroke-linecap:butt;stroke-linejoin:miter;stroke-miterlimit:4;stroke-dasharray:none;stroke-opacity:1"
         d="m 320.18675,-2.24965 -1.66538,-4.93018"
         id="path4177"
         inkscape:connector-curvature="0" />
      <ellipse
         style="opacity:0;fill:#000000;fill-opacity:1;stroke:none;stroke-width:0.2;stroke-miterlimit:4;stroke-dasharray:none;stroke-opacity:1"
         id="path4183"
         cx="308.89188"
         cy="-0.40290931"
         rx="12.102836"
         ry="4.2211528" />
    </g>
    <ellipse
       ry="1.0121423"
       rx="2.800842"
       cy="292.6152"
       cx="11.398611"
       id="path4187"
       style="opacity:0;fill:url(#linearGradient4195);fill-opacity:1;stroke:none;stroke-width:0.2;stroke-miterlimit:4;stroke-dasharray:none;stroke-opacity:1" />
    <path
       sodipodi:nodetypes="cccccccccc"
       inkscape:connector-curvature="0"
       id="path4209"
       d="m 2.826339,292.08697 3.148468,-1.34092 1.3291208,0.4179 1.1077655,-0.7832 2.2155227,0.29151 0.932852,-0.34981 3.023931,0.97939 -1.041619,0.47818 -9.5034344,0.29152 z"
       style="fill:#000000;fill-opacity:1;fill-rule:evenodd;stroke:none;stroke-width:1px;stroke-linecap:butt;stroke-linejoin:miter;stroke-opacity:1" />
    <g
       id="layer2"
       inkscape:label="Layer 2"
       transform="matrix(0.26458334,0,0,0.26458334,-59.404877,294.76305)" />
    <g
       id="flowRoot4144"
       style="font-style:normal;font-weight:normal;font-size:10px;line-height:125%;font-family:sans-serif;letter-spacing:0px;word-spacing:0px;fill:#000000;fill-opacity:1;stroke:none;stroke-width:1px;stroke-linecap:butt;stroke-linejoin:miter;stroke-opacity:1"
       transform="matrix(0.26458334,0,0,0.26458334,-45.946934,278.43557)">
      <path
         inkscape:connector-curvature="0"
         id="path5362"
         style="font-style:normal;font-variant:normal;font-weight:normal;font-stretch:normal;font-size:7.5px;font-family:Geneva;-inkscape-font-specification:Geneva;fill:#ffffff;fill-opacity:1"
         d="m 186.15283,66.994991 0.68115,0 0,0.01465 q 0,0.263672 0.20142,0.439453 0.20142,0.172119 0.68115,0.172119 0.42115,0 0.68116,-0.205078 0.26367,-0.205078 0.26367,-0.483398 0,-0.377198 -0.5127,-0.534668 l -0.3479,-0.106202 -0.23071,-0.07324 -0.47241,-0.146484 q -0.80933,-0.296631 -0.80933,-0.985108 0,-0.483398 0.39185,-0.849609 0.39184,-0.366211 1.16455,-0.366211 0.76172,0 1.08398,0.314942 0.32227,0.311279 0.32227,0.692138 l 0,0.01465 -0.68482,0 0,-0.01465 q 0,-0.205078 -0.20874,-0.322265 -0.20508,-0.117188 -0.54931,-0.117188 -0.41016,0 -0.62989,0.172119 -0.21606,0.168457 -0.21606,0.417481 0,0.190429 0.13916,0.311279 0.14282,0.117187 0.47607,0.212402 l 0.32959,0.09155 0.23804,0.06958 q 0.49805,0.142822 0.6189,0.201416 0.12451,0.05859 0.24902,0.150147 0.17212,0.131836 0.25268,0.318603 0.0842,0.186768 0.0842,0.435791 0,0.578613 -0.41748,0.974121 -0.41382,0.395508 -1.21216,0.395508 -0.50537,0 -0.83862,-0.150146 -0.33325,-0.150147 -0.531,-0.413819 -0.19776,-0.267334 -0.19776,-0.615234 l 0,-0.01465 z" />
      <path
         inkscape:connector-curvature="0"
         id="path5364"
         style="font-style:normal;font-variant:normal;font-weight:normal;font-stretch:normal;font-size:7.5px;font-family:Geneva;-inkscape-font-specification:Geneva;fill:#ffffff;fill-opacity:1"
         d="m 199.4646,68.188839 q -0.802,0 -1.36963,-0.541992 -0.56396,-0.545654 -0.56396,-1.618652 0,-1.069336 0.56396,-1.611329 0.56763,-0.545654 1.36963,-0.545654 0.79834,0 1.3623,0.545654 0.56763,0.541993 0.56763,1.611329 0,1.072998 -0.56763,1.618652 -0.56396,0.541992 -1.3623,0.541992 z m 0,-0.567627 q 0.54932,0 0.88257,-0.435791 0.33691,-0.439453 0.33691,-1.157226 0,-0.714112 -0.33691,-1.149903 -0.33325,-0.439453 -0.88257,-0.439453 -0.55298,0 -0.88989,0.439453 -0.33325,0.435791 -0.33325,1.149903 0,0.717773 0.33325,1.157226 0.33691,0.435791 0.88989,0.435791 z" />
      <path
         inkscape:connector-curvature="0"
         id="path5366"
         style="font-style:normal;font-variant:normal;font-weight:normal;font-stretch:normal;font-size:7.5px;font-family:Geneva;-inkscape-font-specification:Geneva;fill:#ffffff;fill-opacity:1"
         d="m 212.39917,63.984738 0.68115,0 0,4.090576 -0.68115,0 0,-0.714112 q -0.2124,0.32959 -0.41748,0.494385 -0.20508,0.164795 -0.42114,0.249024 -0.21607,0.08423 -0.47242,0.08423 -0.56762,0 -0.96313,-0.318603 -0.39551,-0.322266 -0.39551,-1.292725 l 0,-2.592773 0.68115,0 0,2.307128 q 0,0.897217 0.23804,1.083985 0.23804,0.186767 0.5896,0.186767 0.30396,0 0.57129,-0.175781 0.271,-0.179443 0.42847,-0.498047 0.16113,-0.322265 0.16113,-0.893554 l 0,-2.010498 z" />
      <path
         inkscape:connector-curvature="0"
         id="path5368"
         style="font-style:normal;font-variant:normal;font-weight:normal;font-stretch:normal;font-size:7.5px;font-family:Geneva;-inkscape-font-specification:Geneva;fill:#ffffff;fill-opacity:1"
         d="m 224.18018,67.4967 0,0.571289 q -0.49805,0.12085 -0.76172,0.12085 -0.38086,0 -0.68848,-0.153809 -0.30395,-0.153808 -0.46509,-0.446777 -0.15747,-0.292969 -0.15747,-0.933838 l 0,-2.102051 -0.71045,0 0,-0.567626 0.71045,0 0,-0.966797 0.68115,0 0,0.966797 1.19385,0 0,0.567626 -1.19385,0 0,1.907959 q 0,0.541993 0.0842,0.754395 0.0842,0.20874 0.26367,0.307617 0.18311,0.09888 0.4358,0.09888 0.20141,0 0.60791,-0.124512 z" />
      <path
         inkscape:connector-curvature="0"
         id="path5370"
         style="font-style:normal;font-variant:normal;font-weight:normal;font-stretch:normal;font-size:7.5px;font-family:Geneva;-inkscape-font-specification:Geneva;fill:#ffffff;fill-opacity:1"
         d="m 233.19995,68.075314 -0.68115,0 0,-5.910645 0.68115,0 0,2.526856 q 0.21607,-0.333252 0.41748,-0.494385 0.20508,-0.161133 0.42481,-0.241699 0.22338,-0.08423 0.49438,-0.08423 0.38452,0 0.68848,0.157471 0.30761,0.157471 0.47607,0.465088 0.16846,0.303955 0.16846,0.977783 l 0,2.60376 -0.68115,0 0,-2.310791 q 0,-0.549317 -0.0733,-0.776368 -0.0732,-0.230712 -0.27832,-0.358886 -0.20507,-0.131836 -0.46875,-0.131836 -0.30029,0 -0.57129,0.175781 -0.27099,0.175781 -0.43579,0.490723 -0.16113,0.314941 -0.16113,0.900879 l 0,2.010498 z" />
      <path
         inkscape:connector-curvature="0"
         id="path5372"
         style="font-style:normal;font-variant:normal;font-weight:normal;font-stretch:normal;font-size:7.5px;font-family:Geneva;-inkscape-font-specification:Geneva;fill:#ffffff;fill-opacity:1"
         d="m 245.03955,69.664669 -0.68115,0 0,-5.679931 0.68115,0 0,0.710449 q 0.2124,-0.362549 0.40283,-0.512696 0.19409,-0.150146 0.43579,-0.230712 0.2417,-0.08057 0.49805,-0.08057 0.46875,0 0.85693,0.256348 0.38819,0.252685 0.60059,0.758056 0.21606,0.505372 0.21606,1.135254 0,0.933838 -0.45043,1.552735 -0.44678,0.615234 -1.25611,0.615234 -0.26001,0 -0.49438,-0.0769 -0.23072,-0.07324 -0.41016,-0.219727 -0.17944,-0.150146 -0.39917,-0.531006 l 0,2.303467 z m 0,-3.632812 q 0,0.6958 0.30029,1.142578 0.3003,0.446777 0.84595,0.446777 0.49805,0 0.82764,-0.395508 0.32959,-0.395508 0.32959,-1.182861 0,-0.919189 -0.3479,-1.274414 -0.3479,-0.358887 -0.79468,-0.358887 -0.32227,0 -0.60425,0.197754 -0.27832,0.194092 -0.41748,0.582275 -0.13916,0.384522 -0.13916,0.842286 z" />
      <path
         inkscape:connector-curvature="0"
         id="path5374"
         style="font-style:normal;font-variant:normal;font-weight:normal;font-stretch:normal;font-size:7.5px;font-family:Geneva;-inkscape-font-specification:Geneva;fill:#ffffff;fill-opacity:1"
         d="m 258.17554,68.188839 q -0.802,0 -1.36963,-0.541992 -0.56397,-0.545654 -0.56397,-1.618652 0,-1.069336 0.56397,-1.611329 0.56763,-0.545654 1.36963,-0.545654 0.79834,0 1.3623,0.545654 0.56763,0.541993 0.56763,1.611329 0,1.072998 -0.56763,1.618652 -0.56396,0.541992 -1.3623,0.541992 z m 0,-0.567627 q 0.54931,0 0.88257,-0.435791 0.33691,-0.439453 0.33691,-1.157226 0,-0.714112 -0.33691,-1.149903 -0.33326,-0.439453 -0.88257,-0.439453 -0.55298,0 -0.8899,0.439453 -0.33325,0.435791 -0.33325,1.149903 0,0.717773 0.33325,1.157226 0.33692,0.435791 0.8899,0.435791 z" />
      <path
         inkscape:connector-curvature="0"
         id="path5376"
         style="font-style:normal;font-variant:normal;font-weight:normal;font-stretch:normal;font-size:7.5px;font-family:Geneva;-inkscape-font-specification:Geneva;fill:#ffffff;fill-opacity:1"
         d="m 269.17651,68.075314 -0.68115,0 0,-5.910645 0.68115,0 0,5.910645 z" />
      <path
         inkscape:connector-curvature="0"
         id="path5378"
         style="font-style:normal;font-variant:normal;font-weight:normal;font-stretch:normal;font-size:7.5px;font-family:Geneva;-inkscape-font-specification:Geneva;fill:#ffffff;fill-opacity:1"
         d="m 280.45581,67.024288 0.68115,0 0,0.03662 q 0,0.270996 -0.21606,0.552979 -0.21607,0.281982 -0.57129,0.428467 -0.35523,0.146484 -0.81665,0.146484 -0.93384,0 -1.44287,-0.604248 -0.50537,-0.604248 -0.50537,-1.5271 0,-0.944824 0.53466,-1.56372 0.53833,-0.622559 1.38428,-0.622559 0.46509,0 0.84229,0.201416 0.37719,0.201416 0.59692,0.629883 0.21973,0.424805 0.21973,1.186523 l 0,0.227051 -2.90406,0 q 0,0.655518 0.35157,1.080322 0.35522,0.424805 0.98144,0.424805 0.45044,0 0.65552,-0.172119 0.20874,-0.175781 0.20874,-0.388184 l 0,-0.03662 z m -2.15332,-1.420898 2.20825,0 0,-0.08057 q 0,-0.285644 -0.13916,-0.552978 -0.1355,-0.270996 -0.3772,-0.39917 -0.24169,-0.131836 -0.56396,-0.131836 -0.38086,0 -0.70313,0.307617 -0.32226,0.303955 -0.4248,0.856934 z" />
    </g>
    <path
       style="opacity:0;fill:#ffffff;fill-opacity:1;stroke:#ffffff;stroke-width:0.82020831;stroke-miterlimit:4;stroke-dasharray:none;stroke-opacity:1"
       d="M 31.120041,285.73086 A 15.56002,2.6503332 0 0 1 15.56002,288.3812 15.56002,2.6503332 0 0 1 0,285.73086 a 15.56002,2.6503332 0 0 1 15.56002,-2.65033 15.56002,2.6503332 0 0 1 15.560021,2.65033 z"
       id="path5422"
       inkscape:connector-curvature="0" />
    <g
       style="font-size:1.984375px;display:inline;opacity:1;fill:#ffffff;fill-opacity:1;stroke:none;stroke-width:1;stroke-miterlimit:4;stroke-dasharray:none;stroke-opacity:1"
       id="text5001"
       transform="translate(-9.2468526,-8.2446501)">
      <path
         d="m 11.41682,228.09591 0,0.54357 0.246109,0 q 0.136619,0 0.211227,-0.0707 0.07461,-0.0707 0.07461,-0.20154 0,-0.12984 -0.07461,-0.20057 -0.07461,-0.0707 -0.211227,-0.0707 l -0.246109,0 z m -0.195725,-0.16084 0.441834,0 q 0.243202,0 0.367225,0.11045 0.124993,0.10949 0.124993,0.32169 0,0.21413 -0.124993,0.32362 -0.124023,0.10949 -0.367225,0.10949 l -0.246109,0 0,0.58136 -0.195725,0 0,-1.44661 z"
         id="path5125"
         inkscape:connector-curvature="0" />
      <path
         d="m 13.00587,228.06781 q -0.213165,0 -0.339127,0.15891 -0.124992,0.1589 -0.124992,0.43311 0,0.27324 0.124992,0.43214 0.125962,0.15891 0.339127,0.15891 0.213165,0 0.337189,-0.15891 0.124992,-0.1589 0.124992,-0.43214 0,-0.27421 -0.124992,-0.43311 -0.124024,-0.15891 -0.337189,-0.15891 z m 0,-0.1589 q 0.304245,0 0.486404,0.20444 0.18216,0.20348 0.18216,0.54648 0,0.34203 -0.18216,0.54648 -0.182159,0.20347 -0.486404,0.20347 -0.305214,0 -0.488342,-0.20347 -0.18216,-0.20348 -0.18216,-0.54648 0,-0.343 0.18216,-0.54648 0.183128,-0.20444 0.488342,-0.20444 z"
         id="path5127"
         inkscape:connector-curvature="0" />
      <path
         d="m 14.847812,227.98254 0,0.19088 q -0.111428,-0.0533 -0.210259,-0.0794 -0.09883,-0.0262 -0.19088,-0.0262 -0.159874,0 -0.247078,0.062 -0.08624,0.062 -0.08624,0.17635 0,0.0959 0.05717,0.14534 0.05814,0.0484 0.218979,0.0785 l 0.11821,0.0242 q 0.218979,0.0417 0.322655,0.14728 0.104645,0.10465 0.104645,0.28099 0,0.21026 -0.141465,0.31878 -0.140495,0.10852 -0.412765,0.10852 -0.102707,0 -0.218979,-0.0233 -0.115303,-0.0233 -0.239326,-0.0688 l 0,-0.20153 q 0.119178,0.0669 0.233512,0.10076 0.114335,0.0339 0.224793,0.0339 0.167625,0 0.258705,-0.0659 0.09108,-0.0659 0.09108,-0.18797 0,-0.10659 -0.06589,-0.16666 -0.06492,-0.0601 -0.214134,-0.0901 L 14.33137,228.717 q -0.218979,-0.0436 -0.316841,-0.13662 -0.09786,-0.093 -0.09786,-0.25871 0,-0.19185 0.134682,-0.30231 0.13565,-0.11045 0.373039,-0.11045 0.101738,0 0.207352,0.0184 0.105613,0.0184 0.216072,0.0552 z"
         id="path5129"
         inkscape:connector-curvature="0" />
      <path
         d="m 15.244105,227.93507 0.195725,0 0,1.44661 -0.195725,0 0,-1.44661 z"
         id="path5131"
         inkscape:connector-curvature="0" />
      <path
         d="m 15.628772,227.93507 1.223762,0 0,0.16471 -0.513534,0 0,1.2819 -0.196694,0 0,-1.2819 -0.513534,0 0,-0.16471 z"
         id="path5133"
         inkscape:connector-curvature="0" />
      <path
         d="m 17.046321,227.93507 0.195724,0 0,1.44661 -0.195724,0 0,-1.44661 z"
         id="path5135"
         inkscape:connector-curvature="0" />
      <path
         d="m 18.21873,228.06781 q -0.213165,0 -0.339127,0.15891 -0.124992,0.1589 -0.124992,0.43311 0,0.27324 0.124992,0.43214 0.125962,0.15891 0.339127,0.15891 0.213165,0 0.337189,-0.15891 0.124992,-0.1589 0.124992,-0.43214 0,-0.27421 -0.124992,-0.43311 -0.124024,-0.15891 -0.337189,-0.15891 z m 0,-0.1589 q 0.304245,0 0.486404,0.20444 0.18216,0.20348 0.18216,0.54648 0,0.34203 -0.18216,0.54648 -0.182159,0.20347 -0.486404,0.20347 -0.305214,0 -0.488342,-0.20347 -0.18216,-0.20348 -0.18216,-0.54648 0,-0.343 0.18216,-0.54648 0.183128,-0.20444 0.488342,-0.20444 z"
         id="path5137"
         inkscape:connector-curvature="0" />
      <path
         d="m 19.193477,227.93507 0.263549,0 0.641434,1.21019 0,-1.21019 0.189911,0 0,1.44661 -0.26355,0 -0.641433,-1.21019 0,1.21019 -0.189911,0 0,-1.44661 z"
         id="path5139"
         inkscape:connector-curvature="0" />
    </g>
    <g
       style="font-size:1.984375px;display:inline;opacity:1;fill:#ffffff;fill-opacity:1;stroke:none;stroke-width:1;stroke-miterlimit:4;stroke-dasharray:none;stroke-opacity:1"
       id="text5009"
       transform="translate(0.22967737,-14.951121)">
      <path
         d="m 14.583293,234.68913 0,0.19088 q -0.111427,-0.0533 -0.210259,-0.0795 -0.09883,-0.0262 -0.190879,-0.0262 -0.159874,0 -0.247078,0.062 -0.08624,0.062 -0.08624,0.17635 0,0.0959 0.05717,0.14534 0.05814,0.0484 0.218979,0.0785 l 0.118209,0.0242 q 0.218979,0.0417 0.322655,0.14728 0.104645,0.10465 0.104645,0.28099 0,0.21026 -0.141464,0.31878 -0.140496,0.10852 -0.412766,0.10852 -0.102707,0 -0.218979,-0.0232 -0.115303,-0.0233 -0.239326,-0.0688 l 0,-0.20154 q 0.119179,0.0669 0.233513,0.10077 0.114334,0.0339 0.224792,0.0339 0.167626,0 0.258705,-0.0659 0.09108,-0.0659 0.09108,-0.18797 0,-0.10659 -0.06589,-0.16666 -0.06492,-0.0601 -0.214135,-0.0901 l -0.119178,-0.0233 q -0.218979,-0.0436 -0.316842,-0.13662 -0.09786,-0.093 -0.09786,-0.2587 0,-0.19185 0.134682,-0.30231 0.135651,-0.11046 0.373039,-0.11046 0.101738,0 0.207352,0.0184 0.105614,0.0184 0.216072,0.0552 z"
         id="path5142"
         inkscape:connector-curvature="0" />
      <path
         d="m 14.979587,234.64165 0.195724,0 0,1.44662 -0.195724,0 0,-1.44662 z"
         id="path5144"
         inkscape:connector-curvature="0" />
      <path
         d="m 15.481494,234.64165 1.136558,0 0,0.14922 -0.914672,1.13268 0.936958,0 0,0.16472 -1.18113,0 0,-0.14921 0.914673,-1.13269 -0.892387,0 0,-0.16472 z"
         id="path5146"
         inkscape:connector-curvature="0" />
      <path
         d="m 16.925204,234.64165 0.914673,0 0,0.16472 -0.718948,0 0,0.42827 0.688911,0 0,0.16472 -0.688911,0 0,0.52419 0.736389,0 0,0.16472 -0.932114,0 0,-1.44662 z"
         id="path5148"
         inkscape:connector-curvature="0" />
    </g>
    <g
       style="font-size:1.984375px;display:inline;opacity:1;fill:#ffffff;fill-opacity:1;stroke:none;stroke-width:1;stroke-miterlimit:4;stroke-dasharray:none;stroke-opacity:1"
       id="text5013"
       transform="translate(9.2199842,-22.560371)">
      <path
         d="m 13.263606,242.41154 0,0.54357 0.246109,0 q 0.13662,0 0.211227,-0.0707 0.07461,-0.0707 0.07461,-0.20154 0,-0.12984 -0.07461,-0.20057 -0.07461,-0.0707 -0.211227,-0.0707 l -0.246109,0 z m -0.195724,-0.16085 0.441833,0 q 0.243202,0 0.367226,0.11046 0.124992,0.10949 0.124992,0.32169 0,0.21413 -0.124992,0.32362 -0.124024,0.10949 -0.367226,0.10949 l -0.246109,0 0,0.58136 -0.195724,0 0,-1.44662 z"
         id="path5151"
         inkscape:connector-curvature="0" />
      <path
         d="m 14.265483,242.25069 0.195724,0 0,1.44662 -0.195724,0 0,-1.44662 z"
         id="path5153"
         inkscape:connector-curvature="0" />
      <path
         d="m 14.650149,242.25069 1.223763,0 0,0.16472 -0.513535,0 0,1.2819 -0.196693,0 0,-1.2819 -0.513535,0 0,-0.16472 z"
         id="path5155"
         inkscape:connector-curvature="0" />
      <path
         d="m 17.034694,242.36212 0,0.20638 q -0.09883,-0.092 -0.211228,-0.13758 -0.111427,-0.0455 -0.237388,-0.0455 -0.248047,0 -0.379822,0.15212 -0.131775,0.15115 -0.131775,0.43796 0,0.28583 0.131775,0.43795 0.131775,0.15116 0.379822,0.15116 0.125961,0 0.237388,-0.0455 0.112397,-0.0455 0.211228,-0.13759 l 0,0.20444 q -0.102707,0.0698 -0.21801,0.10465 -0.114334,0.0349 -0.242234,0.0349 -0.328468,0 -0.51741,-0.20057 -0.188942,-0.20154 -0.188942,-0.54938 0,-0.34882 0.188942,-0.54939 0.188942,-0.20154 0.51741,-0.20154 0.129838,0 0.244172,0.0349 0.115303,0.0339 0.216072,0.10271 z"
         id="path5157"
         inkscape:connector-curvature="0" />
      <path
         d="m 17.338939,242.25069 0.195724,0 0,0.59299 0.711197,0 0,-0.59299 0.195725,0 0,1.44662 -0.195725,0 0,-0.68891 -0.711197,0 0,0.68891 -0.195724,0 0,-1.44662 z"
         id="path5159"
         inkscape:connector-curvature="0" />
    </g>
    <g
       style="font-size:1.984375px;display:inline;opacity:1;fill:#ffffff;fill-opacity:1;stroke:none;stroke-width:1;stroke-miterlimit:4;stroke-dasharray:none;stroke-opacity:1"
       id="text5021"
       transform="translate(4.7625003,0.52916669)">
      <path
         d="m 13.436788,282.87852 0,-0.38855 -0.319748,0 0,-0.16084 0.513534,0 0,0.62109 q -0.113365,0.0804 -0.249985,0.12208 -0.136619,0.0407 -0.291648,0.0407 -0.339127,0 -0.530976,-0.19766 -0.19088,-0.19863 -0.19088,-0.5523 0,-0.35462 0.19088,-0.55229 0.191849,-0.19863 0.530976,-0.19863 0.141464,0 0.268394,0.0349 0.127899,0.0349 0.235451,0.10271 l 0,0.20832 q -0.108521,-0.0921 -0.230606,-0.13856 -0.122086,-0.0465 -0.256768,-0.0465 -0.265487,0 -0.3992,0.14825 -0.132744,0.14825 -0.132744,0.44183 0,0.29262 0.132744,0.44087 0.133713,0.14825 0.3992,0.14825 0.103676,0 0.185067,-0.0174 0.08139,-0.0184 0.146309,-0.0562 z"
         id="path5219"
         inkscape:connector-curvature="0" />
      <path
         d="m 14.472577,281.8311 -0.265488,0.71992 0.531945,0 -0.266457,-0.71992 z m -0.110458,-0.19282 0.221885,0 0.551323,1.44662 -0.203476,0 -0.131775,-0.3711 -0.652091,0 -0.131775,0.3711 -0.206383,0 0.552292,-1.44662 z"
         id="path5221"
         inkscape:connector-curvature="0" />
      <path
         d="m 15.345586,281.63828 0.195724,0 0,1.44662 -0.195724,0 0,-1.44662 z"
         id="path5223"
         inkscape:connector-curvature="0" />
      <path
         d="m 15.930821,281.63828 0.26355,0 0.641434,1.2102 0,-1.2102 0.189911,0 0,1.44662 -0.26355,0 -0.641434,-1.2102 0,1.2102 -0.189911,0 0,-1.44662 z"
         id="path5225"
         inkscape:connector-curvature="0" />
    </g>
    <g
       style="font-size:1.984375px;display:inline;opacity:1;fill:#ffffff;fill-opacity:1;stroke:none;stroke-width:1;stroke-miterlimit:4;stroke-dasharray:none;stroke-opacity:1"
       id="text5029"
       transform="translate(-9.4460636,-12.021437)">
      <path
         d="m 11.775325,251.21743 0,1.12493 0.236419,0 q 0.299401,0 0.437958,-0.13565 0.139527,-0.13565 0.139527,-0.42827 0,-0.29068 -0.139527,-0.42536 -0.138557,-0.13565 -0.437958,-0.13565 l -0.236419,0 z m -0.195725,-0.16084 0.402108,0 q 0.420517,0 0.61721,0.17537 0.196693,0.17441 0.196693,0.54648 0,0.37401 -0.197662,0.54939 -0.197662,0.17537 -0.616241,0.17537 l -0.402108,0 0,-1.44661 z"
         id="path5162"
         inkscape:connector-curvature="0" />
      <path
         d="m 13.106639,251.05659 0.914673,0 0,0.16472 -0.718949,0 0,0.42826 0.688912,0 0,0.16472 -0.688912,0 0,0.5242 0.73639,0 0,0.16471 -0.932114,0 0,-1.44661 z"
         id="path5164"
         inkscape:connector-curvature="0" />
      <path
         d="m 14.3585,251.05659 0.26355,0 0.641434,1.21019 0,-1.21019 0.189911,0 0,1.44661 -0.26355,0 -0.641434,-1.21019 0,1.21019 -0.189911,0 0,-1.44661 z"
         id="path5166"
         inkscape:connector-curvature="0" />
      <path
         d="m 16.710101,251.10406 0,0.19088 q -0.111427,-0.0533 -0.210258,-0.0795 -0.09883,-0.0262 -0.19088,-0.0262 -0.159874,0 -0.247078,0.062 -0.08624,0.062 -0.08624,0.17635 0,0.0959 0.05717,0.14534 0.05814,0.0485 0.218979,0.0785 l 0.11821,0.0242 q 0.218978,0.0417 0.322654,0.14727 0.104645,0.10465 0.104645,0.28099 0,0.21026 -0.141464,0.31878 -0.140495,0.10852 -0.412766,0.10852 -0.102707,0 -0.218979,-0.0232 -0.115303,-0.0233 -0.239326,-0.0688 l 0,-0.20153 q 0.119179,0.0669 0.233513,0.10077 0.114334,0.0339 0.224792,0.0339 0.167626,0 0.258706,-0.0659 0.09108,-0.0659 0.09108,-0.18797 0,-0.10658 -0.06589,-0.16666 -0.06492,-0.0601 -0.214134,-0.0901 l -0.119179,-0.0233 q -0.218979,-0.0436 -0.316841,-0.13662 -0.09786,-0.093 -0.09786,-0.25871 0,-0.19185 0.134682,-0.30231 0.135651,-0.11045 0.373039,-0.11045 0.101738,0 0.207352,0.0184 0.105614,0.0184 0.216072,0.0552 z"
         id="path5168"
         inkscape:connector-curvature="0" />
      <path
         d="m 17.106395,251.05659 0.195724,0 0,1.44661 -0.195724,0 0,-1.44661 z"
         id="path5170"
         inkscape:connector-curvature="0" />
      <path
         d="m 17.491061,251.05659 1.223763,0 0,0.16472 -0.513535,0 0,1.28189 -0.196693,0 0,-1.28189 -0.513535,0 0,-0.16472 z"
         id="path5172"
         inkscape:connector-curvature="0" />
      <path
         d="m 18.709979,251.05659 0.210259,0 0.401138,0.59492 0.398231,-0.59492 0.210259,0 -0.511597,0.7577 0,0.68891 -0.196693,0 0,-0.68891 -0.511597,-0.7577 z"
         id="path5174"
         inkscape:connector-curvature="0" />
    </g>
    <g
       style="font-size:1.984375px;display:inline;opacity:1;fill:#ffffff;fill-opacity:1;stroke:none;stroke-width:1;stroke-miterlimit:4;stroke-dasharray:none;stroke-opacity:1"
       id="text5033"
       transform="translate(0.56920651,-20.675827)">
      <path
         d="m 11.264213,259.6847 1.223762,0 0,0.16472 -0.513534,0 0,1.2819 -0.196694,0 0,-1.2819 -0.513534,0 0,-0.16472 z"
         id="path5177"
         inkscape:connector-curvature="0" />
      <path
         d="m 12.681762,259.6847 0.914673,0 0,0.16472 -0.718949,0 0,0.42827 0.688912,0 0,0.16472 -0.688912,0 0,0.52419 0.736389,0 0,0.16472 -0.932113,0 0,-1.44662 z"
         id="path5179"
         inkscape:connector-curvature="0" />
      <path
         d="m 13.86386,259.6847 0.210259,0 0.359474,0.53776 0.361412,-0.53776 0.210258,0 -0.465088,0.69473 0.496094,0.75189 -0.210258,0 -0.406952,-0.61528 -0.409859,0.61528 -0.211227,0 0.516441,-0.77224 -0.450554,-0.67438 z"
         id="path5181"
         inkscape:connector-curvature="0" />
      <path
         d="m 15.060493,259.6847 1.223762,0 0,0.16472 -0.513535,0 0,1.2819 -0.196693,0 0,-1.2819 -0.513534,0 0,-0.16472 z"
         id="path5183"
         inkscape:connector-curvature="0" />
      <path
         d="m 16.457694,259.6847 0.196693,0 0,0.87882 q 0,0.23255 0.0843,0.33525 0.0843,0.10174 0.273239,0.10174 0.187973,0 0.27227,-0.10174 0.0843,-0.1027 0.0843,-0.33525 l 0,-0.87882 0.196694,0 0,0.90305 q 0,0.28292 -0.140496,0.4273 -0.139526,0.14437 -0.412765,0.14437 -0.274208,0 -0.414704,-0.14437 -0.139526,-0.14438 -0.139526,-0.4273 l 0,-0.90305 z"
         id="path5185"
         inkscape:connector-curvature="0" />
      <path
         d="m 18.619384,260.45306 q 0.06298,0.0213 0.122085,0.0911 0.06007,0.0698 0.120148,0.19185 l 0.198631,0.39533 -0.210258,0 -0.185066,-0.3711 q -0.0717,-0.14534 -0.139527,-0.19282 -0.06686,-0.0475 -0.183128,-0.0475 l -0.213165,0 0,0.6114 -0.195725,0 0,-1.44662 0.441834,0 q 0.248047,0 0.370132,0.10368 0.122086,0.10367 0.122086,0.31296 0,0.13662 -0.06395,0.22673 -0.06298,0.0901 -0.184097,0.12499 z m -0.49028,-0.60752 0,0.51354 0.246109,0 q 0.141464,0 0.213165,-0.0649 0.07267,-0.0659 0.07267,-0.19282 0,-0.12693 -0.07267,-0.19088 -0.0717,-0.0649 -0.213165,-0.0649 l -0.246109,0 z"
         id="path5187"
         inkscape:connector-curvature="0" />
      <path
         d="m 19.31314,259.6847 0.914673,0 0,0.16472 -0.718949,0 0,0.42827 0.688912,0 0,0.16472 -0.688912,0 0,0.52419 0.73639,0 0,0.16472 -0.932114,0 0,-1.44662 z"
         id="path5189"
         inkscape:connector-curvature="0" />
    </g>
    <g
       style="font-size:1.984375px;display:inline;opacity:1;fill:#ffffff;fill-opacity:1;stroke:none;stroke-width:1;stroke-miterlimit:4;stroke-dasharray:none;stroke-opacity:1"
       id="text5037"
       transform="translate(-2.1323524,-1.802173)">
      <path
         d="m 12.097011,217.35369 0.831344,0 0,0.16472 -0.63562,0 0,0.42633 0.573608,0 0,0.16472 -0.573608,0 0,0.69085 -0.195724,0 0,-1.44662 z"
         id="path5112"
         inkscape:connector-curvature="0" />
      <path
         d="m 13.922481,218.12206 q 0.06298,0.0213 0.122085,0.0911 0.06007,0.0698 0.120148,0.19185 l 0.198631,0.39533 -0.210258,0 -0.185067,-0.3711 q -0.0717,-0.14534 -0.139526,-0.19282 -0.06686,-0.0475 -0.183128,-0.0475 l -0.213166,0 0,0.6114 -0.195724,0 0,-1.44662 0.441833,0 q 0.248047,0 0.370133,0.10368 0.122085,0.10367 0.122085,0.31296 0,0.13662 -0.06395,0.22673 -0.06298,0.0901 -0.184097,0.125 z m -0.490281,-0.60753 0,0.51354 0.246109,0 q 0.141465,0 0.213166,-0.0649 0.07267,-0.0659 0.07267,-0.19282 0,-0.12693 -0.07267,-0.19088 -0.0717,-0.0649 -0.213166,-0.0649 l -0.246109,0 z"
         id="path5114"
         inkscape:connector-curvature="0" />
      <path
         d="m 14.616237,217.35369 0.914673,0 0,0.16472 -0.718949,0 0,0.42827 0.688912,0 0,0.16472 -0.688912,0 0,0.52419 0.736389,0 0,0.16472 -0.932113,0 0,-1.44662 z"
         id="path5116"
         inkscape:connector-curvature="0" />
      <path
         d="m 15.868098,217.35369 0.914673,0 0,0.16472 -0.718948,0 0,0.42827 0.688911,0 0,0.16472 -0.688911,0 0,0.52419 0.736389,0 0,0.16472 -0.932114,0 0,-1.44662 z"
         id="path5118"
         inkscape:connector-curvature="0" />
      <path
         d="m 17.036632,217.35369 1.136558,0 0,0.14922 -0.914673,1.13268 0.936959,0 0,0.16472 -1.18113,0 0,-0.14922 0.914673,-1.13268 -0.892387,0 0,-0.16472 z"
         id="path5120"
         inkscape:connector-curvature="0" />
      <path
         d="m 18.480342,217.35369 0.914673,0 0,0.16472 -0.718949,0 0,0.42827 0.688912,0 0,0.16472 -0.688912,0 0,0.52419 0.73639,0 0,0.16472 -0.932114,0 0,-1.44662 z"
         id="path5122"
         inkscape:connector-curvature="0" />
    </g>
    <g
       style="font-size:1.984375px;opacity:1;fill:#ffffff;fill-opacity:1;stroke:none;stroke-width:1;stroke-miterlimit:4;stroke-dasharray:none;stroke-opacity:1"
       id="text5087"
       transform="translate(10.791286,-30.034379)">
      <path
         d="m 12.741836,269.79902 0,0.53001 0.313934,0 q 0.157936,0 0.233513,-0.0649 0.07655,-0.0659 0.07655,-0.20057 0,-0.13565 -0.07655,-0.1996 -0.07558,-0.0649 -0.233513,-0.0649 l -0.313934,0 z m 0,-0.59493 0,0.43602 0.289711,0 q 0.143402,0 0.213165,-0.0533 0.07073,-0.0543 0.07073,-0.16472 0,-0.10949 -0.07073,-0.16375 -0.06976,-0.0543 -0.213165,-0.0543 l -0.289711,0 z m -0.195725,-0.16084 0.49997,0 q 0.223823,0 0.34494,0.093 0.121116,0.093 0.121116,0.26452 0,0.13274 -0.06201,0.21122 -0.06201,0.0785 -0.18216,0.0979 0.144371,0.031 0.223824,0.12983 0.08042,0.0979 0.08042,0.24514 0,0.19379 -0.131775,0.2994 -0.131775,0.10562 -0.374977,0.10562 l -0.519348,0 0,-1.44662 z"
         id="path5192"
         inkscape:connector-curvature="0" />
      <path
         d="m 13.906493,269.04325 0.195725,0 0,1.2819 0.704414,0 0,0.16472 -0.900139,0 0,-1.44662 z"
         id="path5194"
         inkscape:connector-curvature="0" />
      <path
         d="m 15.011077,269.04325 0.914673,0 0,0.16472 -0.718949,0 0,0.42827 0.688912,0 0,0.16472 -0.688912,0 0,0.52419 0.73639,0 0,0.16472 -0.932114,0 0,-1.44662 z"
         id="path5196"
         inkscape:connector-curvature="0" />
      <path
         d="m 16.262938,269.04325 0.26355,0 0.641434,1.2102 0,-1.2102 0.189911,0 0,1.44662 -0.26355,0 -0.641434,-1.2102 0,1.2102 -0.189911,0 0,-1.44662 z"
         id="path5198"
         inkscape:connector-curvature="0" />
      <path
         d="m 17.943069,269.20409 0,1.12494 0.236419,0 q 0.299401,0 0.437958,-0.13566 0.139526,-0.13565 0.139526,-0.42826 0,-0.29068 -0.139526,-0.42537 -0.138557,-0.13565 -0.437958,-0.13565 l -0.236419,0 z m -0.195725,-0.16084 0.402107,0 q 0.420517,0 0.617211,0.17538 0.196693,0.17441 0.196693,0.54648 0,0.374 -0.197662,0.54938 -0.197663,0.17538 -0.616242,0.17538 l -0.402107,0 0,-1.44662 z"
         id="path5200"
         inkscape:connector-curvature="0" />
    </g>
    <g
       style="font-size:1.984375px;opacity:1;fill:#00ff00;fill-opacity:1;stroke:none;stroke-width:1;stroke-miterlimit:4;stroke-dasharray:none;stroke-opacity:1"
       id="text5095"
       transform="translate(0.52916669,4.0904436)">
      <path
         d="m 8.7442169,272.58775 0.1957245,0 0,1.44661 -0.1957245,0 0,-1.44661 z"
         style="fill:#ffffff;fill-opacity:1"
         id="path5212"
         inkscape:connector-curvature="0" />
      <path
         d="m 9.3294525,272.58775 0.2635498,0 0.6414337,1.21019 0,-1.21019 0.189911,0 0,1.44661 -0.26355,0 -0.6414336,-1.21019 0,1.21019 -0.1899109,0 0,-1.44661 z"
         style="fill:#ffffff;fill-opacity:1"
         id="path5214"
         inkscape:connector-curvature="0" />
      <path
         d="m 11.445602,272.58775 0.195725,0 0,1.28189 0.704414,0 0,0.16472 -0.900139,0 0,-1.44661 z"
         style="fill:#ffffff;fill-opacity:1"
         id="path5216"
         inkscape:connector-curvature="0" />
    </g>
    <g
       style="font-size:1.984375px;opacity:1;fill:#ffffff;fill-opacity:1;stroke:none;stroke-width:1;stroke-miterlimit:4;stroke-dasharray:none;stroke-opacity:1"
       id="text5099"
       transform="translate(0.52916669,2.6458335)">
      <path
         d="m 9.0007019,284.30048 0.1957245,0 0,1.44662 -0.1957245,0 0,-1.44662 z"
         id="path5237"
         inkscape:connector-curvature="0" />
      <path
         d="m 9.5859375,284.30048 0.2635498,0 0.6414337,1.2102 0,-1.2102 0.189911,0 0,1.44662 -0.26355,0 -0.6414336,-1.2102 0,1.2102 -0.1899109,0 0,-1.44662 z"
         id="path5239"
         inkscape:connector-curvature="0" />
      <path
         d="m 12.388092,285.06885 q 0.06298,0.0213 0.122086,0.0911 0.06007,0.0698 0.120147,0.19185 l 0.198632,0.39532 -0.210259,0 -0.185066,-0.3711 q -0.0717,-0.14534 -0.139526,-0.19282 -0.06686,-0.0475 -0.183129,-0.0475 l -0.213165,0 0,0.6114 -0.195725,0 0,-1.44662 0.441834,0 q 0.248047,0 0.370132,0.10368 0.122086,0.10368 0.122086,0.31296 0,0.13662 -0.06395,0.22674 -0.06298,0.0901 -0.184097,0.12499 z m -0.49028,-0.60752 0,0.51353 0.246109,0 q 0.141464,0 0.213165,-0.0649 0.07267,-0.0659 0.07267,-0.19282 0,-0.12693 -0.07267,-0.19087 -0.0717,-0.0649 -0.213165,-0.0649 l -0.246109,0 z"
         id="path5241"
         inkscape:connector-curvature="0" />
    </g>
    <g
       style="font-size:1.984375px;opacity:1;fill:#ffffff;fill-opacity:1;stroke:none;stroke-width:1;stroke-miterlimit:4;stroke-dasharray:none;stroke-opacity:1"
       id="text5103"
       transform="translate(1.1647576,4.2333336)">
      <path
         d="m 16.106163,272.5495 q -0.213165,0 -0.339127,0.1589 -0.124992,0.15891 -0.124992,0.43312 0,0.27324 0.124992,0.43214 0.125962,0.15891 0.339127,0.15891 0.213165,0 0.337189,-0.15891 0.124992,-0.1589 0.124992,-0.43214 0,-0.27421 -0.124992,-0.43312 -0.124024,-0.1589 -0.337189,-0.1589 z m 0,-0.15891 q 0.304245,0 0.486404,0.20445 0.18216,0.20348 0.18216,0.54648 0,0.34203 -0.18216,0.54648 -0.182159,0.20347 -0.486404,0.20347 -0.305214,0 -0.488342,-0.20347 -0.18216,-0.20348 -0.18216,-0.54648 0,-0.343 0.18216,-0.54648 0.183128,-0.20445 0.488342,-0.20445 z"
         id="path5203"
         inkscape:connector-curvature="0" />
      <path
         d="m 17.058624,272.41676 0.196694,0 0,0.87882 q 0,0.23254 0.0843,0.33525 0.0843,0.10174 0.273239,0.10174 0.187973,0 0.27227,-0.10174 0.0843,-0.10271 0.0843,-0.33525 l 0,-0.87882 0.196694,0 0,0.90304 q 0,0.28293 -0.140495,0.4273 -0.139527,0.14437 -0.412766,0.14437 -0.274208,0 -0.414703,-0.14437 -0.139527,-0.14437 -0.139527,-0.4273 l 0,-0.90304 z"
         id="path5205"
         inkscape:connector-curvature="0" />
      <path
         d="m 18.33374,272.41676 1.223763,0 0,0.16471 -0.513535,0 0,1.2819 -0.196693,0 0,-1.2819 -0.513535,0 0,-0.16471 z"
         id="path5207"
         inkscape:connector-curvature="0" />
      <path
         d="m 20.383034,272.41676 0.195724,0 0,1.28189 0.704415,0 0,0.16472 -0.900139,0 0,-1.44661 z"
         id="path5209"
         inkscape:connector-curvature="0" />
    </g>
    <g
       style="font-size:1.984375px;opacity:1;fill:#ffffff;fill-opacity:1;stroke:none;stroke-width:1;stroke-miterlimit:4;stroke-dasharray:none;stroke-opacity:1"
       id="text5107"
       transform="translate(0.63559091,2.6458335)">
      <path
         d="m 16.106163,284.43323 q -0.213165,0 -0.339127,0.1589 -0.124992,0.15891 -0.124992,0.43312 0,0.27323 0.124992,0.43214 0.125962,0.1589 0.339127,0.1589 0.213165,0 0.337189,-0.1589 0.124992,-0.15891 0.124992,-0.43214 0,-0.27421 -0.124992,-0.43312 -0.124024,-0.1589 -0.337189,-0.1589 z m 0,-0.15891 q 0.304245,0 0.486404,0.20445 0.18216,0.20347 0.18216,0.54648 0,0.34203 -0.18216,0.54647 -0.182159,0.20348 -0.486404,0.20348 -0.305214,0 -0.488342,-0.20348 -0.18216,-0.20347 -0.18216,-0.54647 0,-0.34301 0.18216,-0.54648 0.183128,-0.20445 0.488342,-0.20445 z"
         id="path5228"
         inkscape:connector-curvature="0" />
      <path
         d="m 17.058624,284.30048 0.196694,0 0,0.87883 q 0,0.23254 0.0843,0.33525 0.0843,0.10173 0.273239,0.10173 0.187973,0 0.27227,-0.10173 0.0843,-0.10271 0.0843,-0.33525 l 0,-0.87883 0.196694,0 0,0.90305 q 0,0.28293 -0.140495,0.4273 -0.139527,0.14437 -0.412766,0.14437 -0.274208,0 -0.414703,-0.14437 -0.139527,-0.14437 -0.139527,-0.4273 l 0,-0.90305 z"
         id="path5230"
         inkscape:connector-curvature="0" />
      <path
         d="m 18.33374,284.30048 1.223763,0 0,0.16472 -0.513535,0 0,1.2819 -0.196693,0 0,-1.2819 -0.513535,0 0,-0.16472 z"
         id="path5232"
         inkscape:connector-curvature="0" />
      <path
         d="m 21.069038,285.06885 q 0.06298,0.0213 0.122086,0.0911 0.06007,0.0698 0.120148,0.19185 l 0.198631,0.39532 -0.210259,0 -0.185066,-0.3711 q -0.0717,-0.14534 -0.139526,-0.19282 -0.06686,-0.0475 -0.183128,-0.0475 l -0.213166,0 0,0.6114 -0.195724,0 0,-1.44662 0.441833,0 q 0.248047,0 0.370133,0.10368 0.122085,0.10368 0.122085,0.31296 0,0.13662 -0.06395,0.22674 -0.06298,0.0901 -0.184098,0.12499 z m -0.49028,-0.60752 0,0.51353 0.246109,0 q 0.141464,0 0.213166,-0.0649 0.07267,-0.0659 0.07267,-0.19282 0,-0.12693 -0.07267,-0.19087 -0.0717,-0.0649 -0.213166,-0.0649 l -0.246109,0 z"
         id="path5234"
         inkscape:connector-curvature="0" />
    </g>
    <g
       style="font-size:1.984375px;display:inline;opacity:1;fill:#ffffff;fill-opacity:1;stroke:none;stroke-width:1;stroke-miterlimit:4;stroke-dasharray:none;stroke-opacity:1"
       id="text5316"
       transform="translate(-1.0583334,-2.6458335)">
      <path
         d="m 11.022992,208.89426 1.223763,0 0,0.16472 -0.513535,0 0,1.2819 -0.196693,0 0,-1.2819 -0.513535,0 0,-0.16472 z"
         id="path5418"
         inkscape:connector-curvature="0" />
      <path
         d="m 13.126546,209.66263 q 0.06298,0.0213 0.122085,0.0911 0.06007,0.0698 0.120148,0.19185 l 0.198631,0.39532 -0.210258,0 -0.185066,-0.3711 q -0.0717,-0.14534 -0.139527,-0.19282 -0.06686,-0.0475 -0.183128,-0.0475 l -0.213165,0 0,0.6114 -0.195725,0 0,-1.44662 0.441834,0 q 0.248047,0 0.370132,0.10368 0.122086,0.10368 0.122086,0.31297 0,0.13662 -0.06395,0.22673 -0.06298,0.0901 -0.184097,0.12499 z m -0.49028,-0.60752 0,0.51353 0.246109,0 q 0.141464,0 0.213165,-0.0649 0.07267,-0.0659 0.07267,-0.19281 0,-0.12693 -0.07267,-0.19088 -0.0717,-0.0649 -0.213165,-0.0649 l -0.246109,0 z"
         id="path5420"
         inkscape:connector-curvature="0" />
      <path
         d="m 13.820302,208.89426 0.195724,0 0,1.44662 -0.195724,0 0,-1.44662 z"
         id="path5423"
         inkscape:connector-curvature="0" />
      <path
         d="m 15.391912,210.1345 0,-0.38854 -0.319748,0 0,-0.16085 0.513534,0 0,0.62109 q -0.113365,0.0804 -0.249985,0.12209 -0.136619,0.0407 -0.291648,0.0407 -0.339127,0 -0.530976,-0.19766 -0.19088,-0.19863 -0.19088,-0.55229 0,-0.35463 0.19088,-0.5523 0.191849,-0.19863 0.530976,-0.19863 0.141464,0 0.268394,0.0349 0.127899,0.0349 0.235451,0.10271 l 0,0.20832 q -0.108521,-0.0921 -0.230606,-0.13856 -0.122086,-0.0465 -0.256768,-0.0465 -0.265487,0 -0.3992,0.14824 -0.132744,0.14825 -0.132744,0.44184 0,0.29261 0.132744,0.44086 0.133713,0.14825 0.3992,0.14825 0.103676,0 0.185067,-0.0174 0.08139,-0.0184 0.146309,-0.0562 z"
         id="path5425"
         inkscape:connector-curvature="0" />
    </g>
    <g
       id="g5243"
       transform="matrix(1.3445784,0,0,1.3445784,-11.87554,-69.317722)">
      <g
         style="font-style:normal;font-weight:normal;font-size:4.01525927px;line-height:125%;font-family:sans-serif;letter-spacing:0px;word-spacing:0px;fill:#000000;fill-opacity:1;stroke:none;stroke-width:1px;stroke-linecap:butt;stroke-linejoin:miter;stroke-opacity:1"
         id="text4910"
         transform="translate(6.2138641,0)">
        <path
           d="m 5.8027785,198.68796 0,0.38623 q -0.2254662,-0.10783 -0.425445,-0.16077 -0.1999787,-0.0529 -0.3862334,-0.0529 -0.323495,0 -0.4999468,0.12547 -0.1744913,0.12548 -0.1744913,0.35683 0,0.1941 0.115674,0.29408 0.1176346,0.098 0.4430901,0.15881 l 0.2391903,0.049 q 0.4430901,0.0843 0.6528717,0.298 0.2117422,0.21175 0.2117422,0.56857 0,0.42545 -0.286244,0.64503 -0.2842835,0.21958 -0.8352053,0.21958 -0.2078211,0 -0.4430902,-0.0471 -0.2333085,-0.0471 -0.4842622,-0.1392 l 0,-0.4078 q 0.2411508,0.13528 0.4724988,0.2039 0.2313479,0.0686 0.4548536,0.0686 0.3391796,0 0.5234737,-0.13332 0.1842941,-0.13332 0.1842941,-0.38035 0,-0.21566 -0.1333191,-0.33722 -0.1313586,-0.12156 -0.4332873,-0.18233 l -0.2411508,-0.0471 q -0.4430901,-0.0882 -0.6411083,-0.27644 -0.1980182,-0.18821 -0.1980182,-0.52347 0,-0.3882 0.2725201,-0.6117 0.2744806,-0.22351 0.7548217,-0.22351 0.2058604,0 0.4195632,0.0373 0.2137028,0.0373 0.4372084,0.11176 z"
           style="fill:#ffffff;fill-opacity:1;stroke:none;stroke-opacity:1"
           id="path5269"
           inkscape:connector-curvature="0" />
        <path
           d="m 8.2985914,199.74471 q 0.1352798,-0.24311 0.3234951,-0.35879 0.1882152,-0.11567 0.4430901,-0.11567 0.3431008,0 0.5293555,0.24115 0.1862547,0.23919 0.1862547,0.68228 l 0,1.32535 -0.3627066,0 0,-1.31359 q 0,-0.31565 -0.1117528,-0.46858 -0.1117528,-0.15292 -0.3411402,-0.15292 -0.2803623,0 -0.4430901,0.18625 -0.1627278,0.18626 -0.1627278,0.50779 l 0,1.24105 -0.3627065,0 0,-1.31359 q 0,-0.31761 -0.1117529,-0.46858 -0.1117528,-0.15292 -0.3450613,-0.15292 -0.2764412,0 -0.439169,0.18821 -0.1627278,0.18626 -0.1627278,0.50583 l 0,1.24105 -0.3627065,0 0,-2.19585 0.3627065,0 0,0.34114 q 0.1235163,-0.20194 0.296047,-0.298 0.1725306,-0.0961 0.4097603,-0.0961 0.2391903,0 0.4058392,0.12155 0.1686095,0.12156 0.2489931,0.35291 z"
           style="fill:#ffffff;fill-opacity:1;stroke:none;stroke-opacity:1"
           id="path5271"
           inkscape:connector-curvature="0" />
        <path
           d="m 11.345327,199.5761 q -0.290166,0 -0.458775,0.22742 -0.16861,0.22547 -0.16861,0.61955 0,0.39407 0.166649,0.6215 0.16861,0.22546 0.460736,0.22546 0.288204,0 0.456814,-0.22742 0.168609,-0.22743 0.168609,-0.61954 0,-0.39016 -0.168609,-0.61759 -0.16861,-0.22938 -0.456814,-0.22938 z m 0,-0.30585 q 0.470538,0 0.739137,0.30585 0.268598,0.30585 0.268598,0.84697 0,0.53915 -0.268598,0.84696 -0.268599,0.30585 -0.739137,0.30585 -0.472499,0 -0.741098,-0.30585 -0.266638,-0.30781 -0.266638,-0.84696 0,-0.54112 0.266638,-0.84697 0.268599,-0.30585 0.741098,-0.30585 z"
           style="fill:#ffffff;fill-opacity:1;stroke:none;stroke-opacity:1"
           id="path5273"
           inkscape:connector-curvature="0" />
        <path
           d="m 12.935353,198.46837 0.362706,0 0,1.80177 1.076357,-0.94696 0.460735,0 -1.164582,1.02734 1.213596,1.16851 -0.470538,0 -1.115568,-1.07244 0,1.07244 -0.362706,0 0,-3.05066 z"
           style="fill:#ffffff;fill-opacity:1;stroke:none;stroke-opacity:1"
           id="path5275"
           inkscape:connector-curvature="0" />
        <path
           d="m 17.007469,200.33092 0,0.17645 -1.658647,0 q 0.02353,0.37251 0.223506,0.56857 0.201939,0.19409 0.560724,0.19409 0.207821,0 0.401918,-0.051 0.196058,-0.051 0.388194,-0.15293 l 0,0.34114 q -0.194097,0.0823 -0.397997,0.12548 -0.203899,0.0431 -0.413681,0.0431 -0.525434,0 -0.833245,-0.30585 -0.30585,-0.30585 -0.30585,-0.82736 0,-0.53916 0.290166,-0.85481 0.292125,-0.31761 0.786191,-0.31761 0.44309,0 0.699925,0.28624 0.258796,0.28428 0.258796,0.77443 z m -0.360746,-0.10587 q -0.0039,-0.29605 -0.166649,-0.4725 -0.160767,-0.17645 -0.427405,-0.17645 -0.301929,0 -0.484262,0.17057 -0.180373,0.17057 -0.207822,0.48034 l 1.286138,-0.002 z"
           style="fill:#ffffff;fill-opacity:1;stroke:none;stroke-opacity:1"
           id="path5277"
           inkscape:connector-curvature="0" />
      </g>
    </g>
    <path
       d="m 21.781059,197.9392 0,0.38186 0.455117,0 0,0.17173 -0.455117,0 0,0.7301 q 0,0.16451 0.04443,0.21135 0.04563,0.0468 0.183728,0.0468 l 0.226957,0 0,0.18492 -0.226957,0 q -0.255779,0 -0.353047,-0.0948 -0.09726,-0.096 -0.09726,-0.34824 l 0,-0.73011 -0.162113,0 0,-0.17172 0.162113,0 0,-0.38187 0.222154,0 z"
       style="font-size:medium;fill:#ffffff;fill-opacity:1;stroke:none;stroke-width:1;stroke-miterlimit:4;stroke-dasharray:none;stroke-opacity:1"
       id="path5393"
       inkscape:connector-curvature="0" />
    <path
       d="m 23.678381,198.93829 0,0.10807 -1.015908,0 q 0.01441,0.22817 0.136896,0.34826 0.123686,0.11885 0.343439,0.11885 0.127288,0 0.246171,-0.0312 0.12008,-0.0312 0.237766,-0.0937 l 0,0.20896 q -0.11889,0.0504 -0.24377,0.0768 -0.124887,0.0264 -0.253377,0.0264 -0.321824,0 -0.510354,-0.18732 -0.187331,-0.18733 -0.187331,-0.50676 0,-0.33023 0.177723,-0.52355 0.178925,-0.19454 0.481535,-0.19454 0.271389,0 0.4287,0.17531 0.15851,0.17413 0.15851,0.47434 z m -0.220954,-0.0648 q -0.0024,-0.18133 -0.102072,-0.2894 -0.09847,-0.10807 -0.261783,-0.10807 -0.184928,0 -0.296606,0.10447 -0.110475,0.10448 -0.127289,0.29421 l 0.787748,-10e-4 z"
       style="font-size:medium;fill:#ffffff;fill-opacity:1;stroke:none;stroke-width:1;stroke-miterlimit:4;stroke-dasharray:none;stroke-opacity:1"
       id="path5395"
       inkscape:connector-curvature="0" />
    <path
       d="m 25.11338,198.32106 -0.486339,0.65446 0.511555,0.69047 -0.26058,0 -0.391473,-0.52836 -0.391472,0.52836 -0.260582,0 0.522364,-0.70368 -0.477932,-0.64125 0.26058,0 0.356648,0.47913 0.356649,-0.47913 0.260582,0 z"
       style="font-size:medium;fill:#ffffff;fill-opacity:1;stroke:none;stroke-width:1;stroke-miterlimit:4;stroke-dasharray:none;stroke-opacity:1"
       id="path5397"
       inkscape:connector-curvature="0" />
    <path
       d="m 25.671768,197.9392 0,0.38186 0.455116,0 0,0.17173 -0.455116,0 0,0.7301 q 0,0.16451 0.04443,0.21135 0.04563,0.0468 0.183728,0.0468 l 0.226957,0 0,0.18492 -0.226957,0 q -0.255779,0 -0.353045,-0.0948 -0.09726,-0.096 -0.09726,-0.34824 l 0,-0.73011 -0.162113,0 0,-0.17172 0.162113,0 0,-0.38187 0.222155,0 z"
       style="font-size:medium;fill:#ffffff;fill-opacity:1;stroke:none;stroke-width:1;stroke-miterlimit:4;stroke-dasharray:none;stroke-opacity:1"
       id="path5399"
       inkscape:connector-curvature="0" />
    <path
       d="m 26.395872,199.13524 0,-0.81418 0.220954,0 0,0.80576 q 0,0.19093 0.07445,0.28701 0.07445,0.0948 0.223355,0.0948 0.178924,0 0.282197,-0.11402 0.104476,-0.11415 0.104476,-0.31103 l 0,-0.76253 0.220954,0 0,1.34493 -0.220954,0 0,-0.20653 q -0.08046,0.12245 -0.187331,0.18253 -0.105678,0.0589 -0.246171,0.0589 -0.231761,0 -0.351844,-0.1441 -0.12008,-0.1441 -0.12008,-0.42149 z"
       style="font-size:medium;fill:#ffffff;fill-opacity:1;stroke:none;stroke-width:1;stroke-miterlimit:4;stroke-dasharray:none;stroke-opacity:1"
       id="path5401"
       inkscape:connector-curvature="0" />
    <path
       d="m 28.759117,198.52761 q -0.03723,-0.0216 -0.08166,-0.0312 -0.04323,-0.0112 -0.09606,-0.0112 -0.187331,0 -0.2882,0.12244 -0.09967,0.12134 -0.09967,0.34945 l 0,0.70849 -0.222154,0 0,-1.34493 0.222154,0 0,0.20894 q 0.06965,-0.12245 0.181326,-0.18133 0.111677,-0.06 0.271389,-0.06 0.02282,0 0.05043,0.004 0.02763,0.002 0.06125,0.009 l 0.0012,0.22696 z"
       style="font-size:medium;fill:#ffffff;fill-opacity:1;stroke:none;stroke-width:1;stroke-miterlimit:4;stroke-dasharray:none;stroke-opacity:1"
       id="path5403"
       inkscape:connector-curvature="0" />
    <path
       d="m 30.093245,198.93829 0,0.10807 -1.015906,0 q 0.01441,0.22817 0.136894,0.34826 0.123686,0.11885 0.34344,0.11885 0.127288,0 0.246172,-0.0312 0.120079,-0.0312 0.237764,-0.0937 l 0,0.20896 q -0.118877,0.0504 -0.243769,0.0768 -0.124887,0.0264 -0.253376,0.0264 -0.321824,0 -0.510356,-0.18732 -0.18733,-0.18733 -0.18733,-0.50676 0,-0.33023 0.177724,-0.52355 0.178924,-0.19454 0.481535,-0.19454 0.271389,0 0.428698,0.17531 0.15851,0.17413 0.15851,0.47434 z m -0.220953,-0.0648 q -0.0024,-0.18133 -0.102072,-0.2894 -0.09847,-0.10807 -0.261781,-0.10807 -0.184929,0 -0.296607,0.10447 -0.110475,0.10448 -0.127288,0.29421 l 0.787748,-10e-4 z"
       style="font-size:medium;fill:#ffffff;fill-opacity:1;stroke:none;stroke-width:1;stroke-miterlimit:4;stroke-dasharray:none;stroke-opacity:1"
       id="path5405"
       inkscape:connector-curvature="0" />
    <path
       d="m 22.419905,201.43483 0,0.20895 q -0.09367,-0.0481 -0.194536,-0.072 -0.100869,-0.024 -0.208946,-0.024 -0.164514,0 -0.247372,0.0504 -0.08166,0.0504 -0.08166,0.1513 0,0.0768 0.05884,0.12133 0.05884,0.0433 0.236565,0.0829 l 0.07565,0.0169 q 0.235364,0.0504 0.333832,0.14289 0.09967,0.0912 0.09967,0.25578 0,0.18734 -0.148904,0.29661 -0.147703,0.10931 -0.407083,0.10931 -0.108071,0 -0.225758,-0.0216 -0.116486,-0.0205 -0.246171,-0.0625 l 0,-0.22816 q 0.122484,0.0637 0.241368,0.096 0.118878,0.0312 0.235364,0.0312 0.156109,0 0.240167,-0.0528 0.08406,-0.054 0.08406,-0.15129 0,-0.0901 -0.06124,-0.1381 -0.06005,-0.0481 -0.265384,-0.0925 l -0.07685,-0.018 q -0.205344,-0.0433 -0.296608,-0.13209 -0.09126,-0.0901 -0.09126,-0.24618 0,-0.18973 0.134493,-0.29299 0.134494,-0.10324 0.381866,-0.10324 0.122483,0 0.23056,0.018 0.10807,0.018 0.199339,0.054 z"
       style="font-size:medium;fill:#ffffff;fill-opacity:1;stroke:none;stroke-width:1;stroke-miterlimit:4;stroke-dasharray:none;stroke-opacity:1"
       id="path5407"
       inkscape:connector-curvature="0" />
    <path
       d="m 23.40459,202.86502 q -0.09367,0.24018 -0.182527,0.31342 -0.08886,0.0733 -0.237766,0.0733 l -0.176523,0 0,-0.18494 0.129691,0 q 0.09126,0 0.141698,-0.0433 0.05043,-0.0433 0.111677,-0.20415 l 0.03962,-0.10088 -0.543979,-1.32331 0.234163,0 0.420293,1.05192 0.420292,-1.05192 0.234163,0 -0.590812,1.46981 z"
       style="font-size:medium;fill:#ffffff;fill-opacity:1;stroke:none;stroke-width:1;stroke-miterlimit:4;stroke-dasharray:none;stroke-opacity:1"
       id="path5409"
       inkscape:connector-curvature="0" />
    <path
       d="m 25.418392,201.92837 0,0.81177 -0.220954,0 0,-0.80456 q 0,-0.19093 -0.07445,-0.2858 -0.07445,-0.0948 -0.223355,-0.0948 -0.178925,0 -0.282197,0.11402 -0.103275,0.11414 -0.103275,0.31102 l 0,0.76013 -0.222153,0 0,-1.34493 0.222153,0 0,0.20894 q 0.07926,-0.12133 0.186131,-0.18133 0.10807,-0.06 0.248572,-0.06 0.231762,0 0.350644,0.1441 0.118877,0.1429 0.118877,0.42149 z"
       style="font-size:medium;fill:#ffffff;fill-opacity:1;stroke:none;stroke-width:1;stroke-miterlimit:4;stroke-dasharray:none;stroke-opacity:1"
       id="path5411"
       inkscape:connector-curvature="0" />
    <path
       d="m 26.080052,201.01334 0,0.38187 0.455117,0 0,0.17172 -0.455117,0 0,0.73011 q 0,0.16451 0.04443,0.21134 0.04563,0.0468 0.183728,0.0468 l 0.226958,0 0,0.18492 -0.226958,0 q -0.255779,0 -0.353046,-0.0948 -0.09726,-0.096 -0.09726,-0.34824 l 0,-0.73011 -0.162113,0 0,-0.17172 0.162113,0 0,-0.38187 0.222155,0 z"
       style="font-size:medium;fill:#ffffff;fill-opacity:1;stroke:none;stroke-width:1;stroke-miterlimit:4;stroke-dasharray:none;stroke-opacity:1"
       id="path5413"
       inkscape:connector-curvature="0" />
    <path
       d="m 27.94495,201.92837 0,0.81177 -0.220954,0 0,-0.80456 q 0,-0.19093 -0.07445,-0.2858 -0.07445,-0.0948 -0.223356,-0.0948 -0.178925,0 -0.282196,0.11402 -0.103274,0.11414 -0.103274,0.31102 l 0,0.76013 -0.222154,0 0,-1.8685 0.222154,0 0,0.73251 q 0.07926,-0.12133 0.18613,-0.18133 0.10807,-0.06 0.248573,-0.06 0.231761,0 0.350644,0.1441 0.118878,0.1429 0.118878,0.42149 z"
       style="font-size:medium;fill:#ffffff;fill-opacity:1;stroke:none;stroke-width:1;stroke-miterlimit:4;stroke-dasharray:none;stroke-opacity:1"
       id="path5415"
       inkscape:connector-curvature="0" />
    <g
       style="font-size:1.984375px;opacity:1;fill:#ffffff;fill-opacity:1;stroke:none;stroke-width:1;stroke-miterlimit:4;stroke-dasharray:none;stroke-opacity:1"
       id="text5428"
       transform="translate(1.0583334,-0.894193)">
      <path
         d="m 20.715511,217.18611 q 0.06298,0.0213 0.122086,0.0911 0.06007,0.0698 0.120148,0.19185 l 0.198631,0.39532 -0.210259,0 -0.185066,-0.3711 q -0.0717,-0.14534 -0.139526,-0.19281 -0.06686,-0.0475 -0.183129,-0.0475 l -0.213165,0 0,0.61139 -0.195724,0 0,-1.44661 0.441833,0 q 0.248047,0 0.370133,0.10367 0.122085,0.10368 0.122085,0.31297 0,0.13662 -0.06395,0.22673 -0.06298,0.0901 -0.184098,0.12499 z m -0.49028,-0.60752 0,0.51353 0.246109,0 q 0.141464,0 0.213165,-0.0649 0.07267,-0.0659 0.07267,-0.19282 0,-0.12693 -0.07267,-0.19088 -0.0717,-0.0649 -0.213165,-0.0649 l -0.246109,0 z"
         id="path5433"
         inkscape:connector-curvature="0" />
      <path
         d="m 21.409267,216.41775 0.914673,0 0,0.16472 -0.718948,0 0,0.42826 0.688911,0 0,0.16472 -0.688911,0 0,0.5242 0.736389,0 0,0.16471 -0.932114,0 0,-1.44661 z"
         id="path5435"
         inkscape:connector-curvature="0" />
      <path
         d="m 23.034168,217.86436 -0.552292,-1.44661 0.204445,0 0.458306,1.21795 0.459274,-1.21795 0.203476,0 -0.551323,1.44661 -0.221886,0 z"
         id="path5437"
         inkscape:connector-curvature="0" />
      <path
         d="m 24.017635,216.41775 0.914673,0 0,0.16472 -0.718948,0 0,0.42826 0.688911,0 0,0.16472 -0.688911,0 0,0.5242 0.736389,0 0,0.16471 -0.932114,0 0,-1.44661 z"
         id="path5439"
         inkscape:connector-curvature="0" />
      <path
         d="m 25.955502,217.18611 q 0.06298,0.0213 0.122085,0.0911 0.06007,0.0698 0.120148,0.19185 l 0.198631,0.39532 -0.210258,0 -0.185067,-0.3711 q -0.0717,-0.14534 -0.139526,-0.19281 -0.06686,-0.0475 -0.183128,-0.0475 l -0.213166,0 0,0.61139 -0.195724,0 0,-1.44661 0.441833,0 q 0.248047,0 0.370133,0.10367 0.122085,0.10368 0.122085,0.31297 0,0.13662 -0.06395,0.22673 -0.06298,0.0901 -0.184097,0.12499 z m -0.490281,-0.60752 0,0.51353 0.246109,0 q 0.141465,0 0.213166,-0.0649 0.07267,-0.0659 0.07267,-0.19282 0,-0.12693 -0.07267,-0.19088 -0.0717,-0.0649 -0.213166,-0.0649 l -0.246109,0 z"
         id="path5441"
         inkscape:connector-curvature="0" />
      <path
         d="m 27.516453,216.46523 0,0.19088 q -0.111428,-0.0533 -0.210259,-0.0795 -0.09883,-0.0262 -0.19088,-0.0262 -0.159873,0 -0.247077,0.062 -0.08624,0.062 -0.08624,0.17635 0,0.0959 0.05717,0.14534 0.05814,0.0485 0.218978,0.0785 l 0.11821,0.0242 q 0.218979,0.0417 0.322655,0.14727 0.104645,0.10465 0.104645,0.28099 0,0.21026 -0.141464,0.31878 -0.140496,0.10852 -0.412766,0.10852 -0.102707,0 -0.218979,-0.0232 -0.115303,-0.0233 -0.239326,-0.0688 l 0,-0.20154 q 0.119178,0.0668 0.233513,0.10077 0.114334,0.0339 0.224792,0.0339 0.167625,0 0.258705,-0.0659 0.09108,-0.0659 0.09108,-0.18797 0,-0.10658 -0.06589,-0.16666 -0.06492,-0.0601 -0.214134,-0.0901 l -0.119179,-0.0232 q -0.218978,-0.0436 -0.316841,-0.13662 -0.09786,-0.093 -0.09786,-0.25871 0,-0.19185 0.134682,-0.30231 0.13565,-0.11045 0.373039,-0.11045 0.101738,0 0.207352,0.0184 0.105613,0.0184 0.216072,0.0552 z"
         id="path5443"
         inkscape:connector-curvature="0" />
      <path
         d="m 27.912746,216.41775 0.914673,0 0,0.16472 -0.718948,0 0,0.42826 0.688911,0 0,0.16472 -0.688911,0 0,0.5242 0.736389,0 0,0.16471 -0.932114,0 0,-1.44661 z"
         id="path5445"
         inkscape:connector-curvature="0" />
    </g>
    <g
       transform="translate(-0.28611732,187.38304)"
       style="font-size:1.984375px;display:inline;opacity:1;fill:#ffffff;fill-opacity:1;stroke:none;stroke-width:1;stroke-miterlimit:4;stroke-dasharray:none;stroke-opacity:1"
       id="text5320">
      <path
         d="m 2.5186448,70.441536 0,0.19088 q -0.1114273,-0.05329 -0.2102585,-0.07945 -0.098831,-0.02616 -0.1908798,-0.02616 -0.159874,0 -0.2470779,0.06201 -0.086235,0.06201 -0.086235,0.176346 0,0.09592 0.057167,0.14534 0.058136,0.04845 0.2189789,0.07848 l 0.1182098,0.02422 q 0.2189789,0.04167 0.3226547,0.147278 0.1046448,0.104645 0.1046448,0.280991 0,0.210258 -0.1414642,0.318779 -0.1404953,0.10852 -0.4127655,0.10852 -0.102707,0 -0.2189789,-0.02325 -0.1153031,-0.02325 -0.2393265,-0.06879 l 0,-0.201538 q 0.1191788,0.06686 0.2335129,0.100769 0.1143341,0.03391 0.2247925,0.03391 0.1676254,0 0.2587051,-0.06589 0.09108,-0.06589 0.09108,-0.187973 0,-0.106583 -0.065887,-0.166657 -0.064919,-0.06007 -0.2141343,-0.09011 l -0.1191787,-0.02325 q -0.2189789,-0.0436 -0.3168412,-0.136619 -0.097862,-0.09302 -0.097862,-0.258705 0,-0.191849 0.1346817,-0.302308 0.1356506,-0.110458 0.3730392,-0.110458 0.101738,0 0.2073517,0.01841 0.1056137,0.01841 0.2160721,0.05523 z"
         id="path5454"
         inkscape:connector-curvature="0" />
      <path
         d="m 3.1106629,70.554901 0,0.543572 0.246109,0 q 0.1366196,0 0.2112275,-0.07073 0.074608,-0.07073 0.074608,-0.201538 0,-0.129837 -0.074608,-0.200569 -0.074608,-0.07073 -0.2112275,-0.07073 l -0.246109,0 z m -0.1957245,-0.160843 0.4418335,0 q 0.2432023,0 0.3672257,0.110459 0.1249924,0.109489 0.1249924,0.321685 0,0.214135 -0.1249924,0.323624 -0.1240234,0.109489 -0.3672257,0.109489 l -0.246109,0 0,0.58136 -0.1957245,0 0,-1.446617 z"
         id="path5456"
         inkscape:connector-curvature="0" />
      <path
         d="m 4.7985444,71.162422 q 0.062981,0.02132 0.1220856,0.09108 0.060074,0.06976 0.1201477,0.191849 l 0.1986313,0.395324 -0.2102585,0 -0.1850662,-0.371101 q -0.071701,-0.14534 -0.1395264,-0.192818 -0.066856,-0.04748 -0.1831284,-0.04748 l -0.2131652,0 0,0.611396 -0.1957245,0 0,-1.446617 0.4418335,0 q 0.2480468,0 0.3701324,0.103676 0.1220856,0.103676 0.1220856,0.312965 0,0.13662 -0.06395,0.226731 -0.062981,0.09011 -0.1840973,0.124992 z m -0.4902801,-0.607521 0,0.513535 0.246109,0 q 0.1414642,0 0.2131652,-0.06492 0.07267,-0.06589 0.07267,-0.192818 0,-0.12693 -0.07267,-0.190879 -0.071701,-0.06492 -0.2131652,-0.06492 l -0.246109,0 z"
         id="path5458"
         inkscape:connector-curvature="0" />
      <path
         d="m 5.4923005,70.394058 0.9146729,0 0,0.164719 -0.7189484,0 0,0.428268 0.6889114,0 0,0.164719 -0.6889114,0 0,0.524193 0.7363892,0 0,0.164718 -0.9321137,0 0,-1.446617 z"
         id="path5460"
         inkscape:connector-curvature="0" />
      <path
         d="m 7.2276597,70.586876 -0.2654877,0.719917 0.5319443,0 -0.2664566,-0.719917 z m -0.1104584,-0.192818 0.2218857,0 0.5513229,1.446617 -0.2034759,0 -0.1317749,-0.371101 -0.652092,0 -0.1317749,0.371101 -0.2063827,0 0.5522918,-1.446617 z"
         id="path5462"
         inkscape:connector-curvature="0" />
      <path
         d="m 8.2963929,70.554901 0,1.124931 0.2364197,0 q 0.2994003,0 0.4379578,-0.13565 0.1395263,-0.135651 0.1395263,-0.428269 0,-0.29068 -0.1395263,-0.425361 -0.1385575,-0.135651 -0.4379578,-0.135651 l -0.2364197,0 z m -0.1957245,-0.160843 0.4021073,0 q 0.4205169,0 0.6172104,0.175377 0.1966934,0.174408 0.1966934,0.546478 0,0.374009 -0.1976624,0.549385 -0.1976623,0.175377 -0.6162414,0.175377 l -0.4021073,0 0,-1.446617 z"
         id="path5464"
         inkscape:connector-curvature="0" />
    </g>
    <g
       transform="translate(-0.28611732,187.09417)"
       style="font-size:1.984375px;display:inline;opacity:1;fill:#ffffff;fill-opacity:1;stroke:none;stroke-width:1;stroke-miterlimit:4;stroke-dasharray:none;stroke-opacity:1"
       id="text5324">
      <path
         d="m 11.138066,70.682938 0.831345,0 0,0.164718 -0.63562,0 0,0.426331 0.573608,0 0,0.164718 -0.573608,0 0,0.69085 -0.195725,0 0,-1.446617 z"
         id="path5467"
         inkscape:connector-curvature="0" />
      <path
         d="m 12.277532,70.682938 0.914672,0 0,0.164718 -0.718948,0 0,0.428269 0.688912,0 0,0.164718 -0.688912,0 0,0.524193 0.736389,0 0,0.164719 -0.932113,0 0,-1.446617 z"
         id="path5469"
         inkscape:connector-curvature="0" />
      <path
         d="m 13.529393,70.682938 0.914673,0 0,0.164718 -0.718948,0 0,0.428269 0.688911,0 0,0.164718 -0.688911,0 0,0.524193 0.736389,0 0,0.164719 -0.932114,0 0,-1.446617 z"
         id="path5471"
         inkscape:connector-curvature="0" />
      <path
         d="m 14.976979,70.843781 0,1.124931 0.23642,0 q 0.2994,0 0.437958,-0.135651 0.139526,-0.13565 0.139526,-0.428268 0,-0.29068 -0.139526,-0.425362 -0.138558,-0.13565 -0.437958,-0.13565 l -0.23642,0 z m -0.195724,-0.160843 0.402107,0 q 0.420517,0 0.61721,0.175377 0.196694,0.174407 0.196694,0.546478 0,0.374008 -0.197663,0.549385 -0.197662,0.175377 -0.616241,0.175377 l -0.402107,0 0,-1.446617 z"
         id="path5473"
         inkscape:connector-curvature="0" />
      <path
         d="m 16.504018,71.438705 0,0.530007 0.313934,0 q 0.157936,0 0.233513,-0.06492 0.07655,-0.06589 0.07655,-0.200569 0,-0.13565 -0.07655,-0.1996 -0.07558,-0.06492 -0.233513,-0.06492 l -0.313934,0 z m 0,-0.594924 0,0.436019 0.289711,0 q 0.143402,0 0.213165,-0.05329 0.07073,-0.05426 0.07073,-0.164719 0,-0.109489 -0.07073,-0.163749 -0.06976,-0.05426 -0.213165,-0.05426 l -0.289711,0 z m -0.195725,-0.160843 0.49997,0 q 0.223823,0 0.34494,0.09302 0.121117,0.09302 0.121117,0.264519 0,0.132744 -0.06201,0.211227 -0.06201,0.07848 -0.182159,0.09786 0.144371,0.031 0.223823,0.129837 0.08042,0.09786 0.08042,0.24514 0,0.193786 -0.131775,0.2994 -0.131775,0.105614 -0.374978,0.105614 l -0.519348,0 0,-1.446617 z"
         id="path5475"
         inkscape:connector-curvature="0" />
      <path
         d="m 18.152173,70.875755 -0.265488,0.719918 0.531945,0 -0.266457,-0.719918 z m -0.110458,-0.192817 0.221885,0 0.551323,1.446617 -0.203476,0 -0.131775,-0.371102 -0.652092,0 -0.131774,0.371102 -0.206383,0 0.552292,-1.446617 z"
         id="path5477"
         inkscape:connector-curvature="0" />
      <path
         d="m 20.075505,70.794365 0,0.206383 q -0.09883,-0.09205 -0.211227,-0.137589 -0.111427,-0.04554 -0.237389,-0.04554 -0.248047,0 -0.379822,0.152123 -0.131774,0.151153 -0.131774,0.437958 0,0.285835 0.131774,0.437957 0.131775,0.151154 0.379822,0.151154 0.125962,0 0.237389,-0.04554 0.112396,-0.04554 0.211227,-0.137588 l 0,0.204444 q -0.102707,0.06976 -0.21801,0.104645 -0.114334,0.03488 -0.242233,0.03488 -0.328468,0 -0.51741,-0.200569 -0.188942,-0.201538 -0.188942,-0.549385 0,-0.348816 0.188942,-0.549385 0.188942,-0.201539 0.51741,-0.201539 0.129837,0 0.244171,0.03488 0.115303,0.03391 0.216072,0.102707 z"
         id="path5479"
         inkscape:connector-curvature="0" />
      <path
         d="m 20.381688,70.682938 0.195725,0 0,0.611396 0.649185,-0.611396 0.251922,0 -0.717979,0.674377 0.769333,0.77224 -0.257736,0 -0.694725,-0.696663 0,0.696663 -0.195725,0 0,-1.446617 z"
         id="path5481"
         inkscape:connector-curvature="0" />
    </g>
    <g
       transform="translate(-0.81528401,187.40999)"
       style="font-size:1.984375px;display:inline;opacity:1;fill:#ffffff;fill-opacity:1;stroke:none;stroke-width:1;stroke-miterlimit:4;stroke-dasharray:none;stroke-opacity:1"
       id="text5328">
      <path
         d="m 24.790155,71.109322 q 0.06298,0.02132 0.122086,0.09108 0.06007,0.06976 0.120148,0.191849 l 0.198631,0.395325 -0.210259,0 -0.185066,-0.371102 q -0.0717,-0.14534 -0.139526,-0.192817 -0.06686,-0.04748 -0.183128,-0.04748 l -0.213166,0 0,0.611397 -0.195724,0 0,-1.446617 0.441833,0 q 0.248047,0 0.370133,0.103675 0.122085,0.103676 0.122085,0.312966 0,0.136619 -0.06395,0.22673 -0.06298,0.09011 -0.184098,0.124993 z m -0.49028,-0.607521 0,0.513534 0.246109,0 q 0.141465,0 0.213166,-0.06492 0.07267,-0.06589 0.07267,-0.192818 0,-0.12693 -0.07267,-0.19088 -0.0717,-0.06492 -0.213166,-0.06492 l -0.246109,0 z"
         id="path5484"
         inkscape:connector-curvature="0" />
      <path
         d="m 25.483912,70.340958 0.914672,0 0,0.164718 -0.718948,0 0,0.428269 0.688911,0 0,0.164718 -0.688911,0 0,0.524193 0.736389,0 0,0.164719 -0.932113,0 0,-1.446617 z"
         id="path5486"
         inkscape:connector-curvature="0" />
      <path
         d="m 27.108812,71.787575 -0.552292,-1.446617 0.204445,0 0.458306,1.217949 0.459274,-1.217949 0.203476,0 -0.551323,1.446617 -0.221886,0 z"
         id="path5488"
         inkscape:connector-curvature="0" />
      <path
         d="m 28.092279,70.340958 0.914673,0 0,0.164718 -0.718948,0 0,0.428269 0.688911,0 0,0.164718 -0.688911,0 0,0.524193 0.736389,0 0,0.164719 -0.932114,0 0,-1.446617 z"
         id="path5490"
         inkscape:connector-curvature="0" />
      <path
         d="m 30.030146,71.109322 q 0.06298,0.02132 0.122085,0.09108 0.06007,0.06976 0.120148,0.191849 l 0.198631,0.395325 -0.210258,0 -0.185066,-0.371102 q -0.0717,-0.14534 -0.139527,-0.192817 -0.06686,-0.04748 -0.183128,-0.04748 l -0.213166,0 0,0.611397 -0.195724,0 0,-1.446617 0.441834,0 q 0.248046,0 0.370132,0.103675 0.122086,0.103676 0.122086,0.312966 0,0.136619 -0.06395,0.22673 -0.06298,0.09011 -0.184097,0.124993 z m -0.490281,-0.607521 0,0.513534 0.24611,0 q 0.141464,0 0.213165,-0.06492 0.07267,-0.06589 0.07267,-0.192818 0,-0.12693 -0.07267,-0.19088 -0.0717,-0.06492 -0.213165,-0.06492 l -0.24611,0 z"
         id="path5492"
         inkscape:connector-curvature="0" />
      <path
         d="m 30.919626,71.096725 0,0.530007 0.313935,0 q 0.157936,0 0.233512,-0.06492 0.07655,-0.06589 0.07655,-0.200569 0,-0.13565 -0.07655,-0.1996 -0.07558,-0.06492 -0.233512,-0.06492 l -0.313935,0 z m 0,-0.594924 0,0.436019 0.289711,0 q 0.143402,0 0.213166,-0.05329 0.07073,-0.05426 0.07073,-0.164719 0,-0.109489 -0.07073,-0.163749 -0.06976,-0.05426 -0.213166,-0.05426 l -0.289711,0 z m -0.195724,-0.160843 0.499969,0 q 0.223824,0 0.34494,0.09302 0.121117,0.09302 0.121117,0.264519 0,0.132744 -0.06201,0.211227 -0.06201,0.07848 -0.182159,0.09786 0.144371,0.03101 0.223823,0.129837 0.08042,0.09786 0.08042,0.24514 0,0.193786 -0.131775,0.2994 -0.131775,0.105614 -0.374977,0.105614 l -0.519348,0 0,-1.446617 z"
         id="path5494"
         inkscape:connector-curvature="0" />
    </g>
    <path
       style="fill:none;fill-rule:evenodd;stroke:#ffffff;stroke-width:0.46875003;stroke-linecap:butt;stroke-linejoin:miter;stroke-miterlimit:4;stroke-dasharray:none;stroke-opacity:1"
       d="m 5.2151715,264.96743 0,5.04418"
       id="path5528"
       inkscape:connector-curvature="0" />
    <path
       style="fill:none;fill-rule:evenodd;stroke:#ffffff;stroke-width:0.46875003;stroke-linecap:butt;stroke-linejoin:miter;stroke-miterlimit:4;stroke-dasharray:none;stroke-opacity:1"
       d="m 15.754733,264.96743 0,4.87319"
       id="path5530"
       inkscape:connector-curvature="0" />
    <path
       style="fill:none;fill-rule:evenodd;stroke:#ffffff;stroke-width:0.46875003;stroke-linecap:butt;stroke-linejoin:miter;stroke-miterlimit:4;stroke-dasharray:none;stroke-opacity:1"
       d="m 26.124456,264.96743 0,5.30067"
       id="path5532"
       inkscape:connector-curvature="0" />
    <path
       style="fill:none;fill-rule:evenodd;stroke:#ffffff;stroke-width:0.46875003;stroke-linecap:butt;stroke-linejoin:miter;stroke-miterlimit:4;stroke-dasharray:none;stroke-opacity:1"
       d="m 5.1296769,244.27773 0.1709891,6.49759"
       id="path5534"
       inkscape:connector-curvature="0" />
    <path
       style="fill:none;fill-rule:evenodd;stroke:#ffffff;stroke-width:0.46875003;stroke-linecap:butt;stroke-linejoin:miter;stroke-miterlimit:4;stroke-dasharray:none;stroke-opacity:1"
       d="m 15.754733,244.27425 0,6.15561"
       id="path5536"
       inkscape:connector-curvature="0" />
    <path
       style="fill:none;fill-rule:evenodd;stroke:#ffffff;stroke-width:0.46875003;stroke-linecap:butt;stroke-linejoin:miter;stroke-miterlimit:4;stroke-dasharray:none;stroke-opacity:1"
       d="m 26.075524,243.74508 0,6.3266 0.170989,0.0855"
       id="path5538"
       inkscape:connector-curvature="0" />
    <path
       style="fill:none;fill-rule:evenodd;stroke:#ffffff;stroke-width:0.46875003;stroke-linecap:butt;stroke-linejoin:miter;stroke-miterlimit:4;stroke-dasharray:none;stroke-opacity:1"
       d="m 5.2151715,224.95595 0,6.75408"
       id="path5540"
       inkscape:connector-curvature="0" />
    <path
       style="fill:none;fill-rule:evenodd;stroke:#ffffff;stroke-width:0.46875003;stroke-linecap:butt;stroke-linejoin:miter;stroke-miterlimit:4;stroke-dasharray:none;stroke-opacity:1"
       d="m 15.754733,224.95595 0,6.66859"
       id="path5542"
       inkscape:connector-curvature="0" />
    <path
       style="fill:none;fill-rule:evenodd;stroke:#ffffff;stroke-width:0.46875003;stroke-linecap:butt;stroke-linejoin:miter;stroke-miterlimit:4;stroke-dasharray:none;stroke-opacity:1"
       d="m 26.124456,224.95595 0,6.4121 0,0"
       id="path5544"
       inkscape:connector-curvature="0"
       sodipodi:nodetypes="ccc" />
    <path
       style="fill:none;fill-rule:evenodd;stroke:#ffffff;stroke-width:0.46875003;stroke-linecap:butt;stroke-linejoin:miter;stroke-miterlimit:4;stroke-dasharray:none;stroke-opacity:1"
       d="m 5.3861609,214.48148 7.8655051,-2.82132"
       id="path5546"
       inkscape:connector-curvature="0" />
    <path
       style="fill:none;fill-rule:evenodd;stroke:#7c7c7c;stroke-width:0.46875002;stroke-linecap:butt;stroke-linejoin:miter;stroke-opacity:1;stroke-miterlimit:4;stroke-dasharray:none"
       d="m 0,237.69224 31.750001,0"
       id="path6028"
       inkscape:connector-curvature="0" />
    <flowRoot
       xml:space="preserve"
       id="flowRoot6030"
       style="fill:#ffffff;font-size:7.5px;fill-opacity:1;stroke:#9f9f9f;stroke-opacity:1;opacity:1;stroke-width:1.77165354;stroke-miterlimit:4;stroke-dasharray:none"><flowRegion
         id="flowRegion6032"><rect
           id="rect6034"
           width="7.9155955"
           height="17.98999"
           x="-7.9155955"
           y="209.8147" /></flowRegion><flowPara
         id="flowPara6036" /></flowRoot>    <path
       style="fill:none;fill-rule:evenodd;stroke:#7c7c7c;stroke-width:0.46875002;stroke-linecap:butt;stroke-linejoin:miter;stroke-opacity:1;stroke-miterlimit:4;stroke-dasharray:none"
       d="m 0,256.82684 31.750001,0"
       id="path6038"
       inkscape:connector-curvature="0" />
  </g>
  <g
     inkscape:groupmode="layer"
     id="layer3"
     inkscape:label="widgets"
     style="display:none">
    <rect
       style="display:inline;opacity:1;fill:#ff0200;fill-opacity:1;stroke:none;stroke-width:1;stroke-miterlimit:4;stroke-dasharray:none;stroke-opacity:1"
       id="rect5091"
       width="5.6426449"
       height="5.5571499"
       x="22.004379"
       y="51.120346" />
    <rect
       style="display:inline;opacity:1;fill:#00ff00;fill-opacity:1;stroke:none;stroke-width:1;stroke-miterlimit:4;stroke-dasharray:none;stroke-opacity:1"
       id="rect5093"
       width="5.2151713"
       height="5.2151713"
       x="22.084158"
       y="45.009415" />
    <rect
       style="display:inline;opacity:1;fill:#0000ff;fill-opacity:1;stroke:none;stroke-width:1;stroke-miterlimit:4;stroke-dasharray:none;stroke-opacity:1"
       id="rect4969"
       width="5.3861609"
       height="5.3861609"
       x="22.38339"
       y="83.223175" />
    <rect
       style="display:inline;opacity:1;fill:#00ff00;fill-opacity:1;stroke:none;stroke-width:1;stroke-miterlimit:4;stroke-dasharray:none;stroke-opacity:1"
       id="rect4975"
       width="5.3546834"
       height="5.5909305"
       x="2.3290534"
       y="75.108711" />
    <rect
       style="display:inline;opacity:1;fill:#00ff00;fill-opacity:1;stroke:none;stroke-width:1;stroke-miterlimit:4;stroke-dasharray:none;stroke-opacity:1"
       id="rect4979"
       width="5.5571499"
       height="5.5571499"
       x="2.4403408"
       y="44.95977" />
    <rect
       style="display:inline;opacity:1;fill:#00ff00;fill-opacity:1;stroke:none;stroke-width:1;stroke-miterlimit:4;stroke-dasharray:none;stroke-opacity:1"
       id="rect4981"
       width="5.7281394"
       height="5.7281394"
       x="11.818956"
       y="44.461246" />
    <rect
       style="display:inline;opacity:1;fill:#00ff00;fill-opacity:1;stroke:none;stroke-width:1;stroke-miterlimit:4;stroke-dasharray:none;stroke-opacity:1"
       id="rect4983"
       width="5.8136339"
       height="5.8136339"
       x="21.57119"
       y="27.209215" />
    <rect
       style="display:inline;opacity:1;fill:#00ff00;fill-opacity:1;stroke:none;stroke-width:1;stroke-miterlimit:4;stroke-dasharray:none;stroke-opacity:1"
       id="rect4989"
       width="5.5571499"
       height="5.5571499"
       x="12.466015"
       y="27.43049" />
    <rect
       style="display:inline;opacity:1;fill:#00ff00;fill-opacity:1;stroke:none;stroke-width:1;stroke-miterlimit:4;stroke-dasharray:none;stroke-opacity:1"
       id="rect4991"
       width="5.3006663"
       height="5.3006663"
       x="2.3290534"
       y="17.041332" />
    <rect
       style="display:inline;opacity:1;fill:#00ff00;fill-opacity:1;stroke:none;stroke-width:1;stroke-miterlimit:4;stroke-dasharray:none;stroke-opacity:1"
       id="rect5041"
       width="5.7281394"
       height="5.7281394"
       x="2.7565265"
       y="27.470434" />
    <rect
       style="display:inline;opacity:1;fill:#ff0000;fill-opacity:1;stroke:none;stroke-width:1;stroke-miterlimit:4;stroke-dasharray:none;stroke-opacity:1"
       id="rect5043"
       width="5.7281394"
       height="5.7281394"
       x="2.7565265"
       y="34.256905" />
    <rect
       style="display:inline;opacity:1;fill:#ff0000;fill-opacity:1;stroke:none;stroke-width:1;stroke-miterlimit:4;stroke-dasharray:none;stroke-opacity:1"
       id="rect5045"
       width="5.0441828"
       height="5.3861609"
       x="12.722499"
       y="34.045975" />
    <rect
       style="display:inline;opacity:1;fill:#ff0000;fill-opacity:1;stroke:none;stroke-width:1;stroke-miterlimit:4;stroke-dasharray:none;stroke-opacity:1"
       id="rect5047"
       width="5.3861609"
       height="5.3861609"
       x="21.784927"
       y="34.081181" />
    <rect
       style="display:inline;opacity:1;fill:#ff0000;fill-opacity:1;stroke:none;stroke-width:1;stroke-miterlimit:4;stroke-dasharray:none;stroke-opacity:1"
       id="rect5049"
       width="5.4716558"
       height="5.4716558"
       x="12.20437"
       y="51.205566" />
    <rect
       style="display:inline;opacity:1;fill:#ff0000;fill-opacity:1;stroke:none;stroke-width:1;stroke-miterlimit:4;stroke-dasharray:none;stroke-opacity:1"
       id="rect5053"
       width="5.3006663"
       height="5.4716558"
       x="12.046068"
       y="77.941887" />
    <rect
       style="display:inline;opacity:1;fill:#00ff00;fill-opacity:1;stroke:none;stroke-width:1;stroke-miterlimit:4;stroke-dasharray:none;stroke-opacity:1"
       id="rect4923"
       width="5.6426449"
       height="5.4586453"
       x="2.3290534"
       y="83.479645" />
    <rect
       style="display:inline;opacity:1;fill:#ff0000;fill-opacity:1;stroke:none;stroke-width:1;stroke-miterlimit:4;stroke-dasharray:none;stroke-opacity:1"
       id="rect4945"
       width="5.2151713"
       height="5.2151713"
       x="10.15766"
       y="17.126818" />
    <rect
       style="display:inline;opacity:1;fill:#0000ff;fill-opacity:1;stroke:none;stroke-width:1;stroke-miterlimit:4;stroke-dasharray:none;stroke-opacity:1"
       id="rect4947"
       width="5.6302543"
       height="5.4716554"
       x="22.38339"
       y="74.894981" />
    <rect
       style="display:inline;opacity:1;fill:#00ff00;fill-opacity:1;stroke:none;stroke-width:1;stroke-miterlimit:4;stroke-dasharray:none;stroke-opacity:1"
       id="rect5332"
       width="5.4716558"
       height="5.4716558"
       x="2.2228601"
       y="10.316954" />
  </g>
</svg>
