<svg xmlns="http://www.w3.org/2000/svg" xmlns:xlink="http://www.w3.org/1999/xlink" width="90" height="380" viewBox="0 0 23.813 100.542">
    <defs>
        <linearGradient id="b">
            <stop offset="0" stop-color="#fff"/>
            <stop offset="1" stop-opacity="0"/>
        </linearGradient>
        <linearGradient id="a">
            <stop offset="0" stop-color="#fdfdfd"/>
            <stop offset="1" stop-color="#fdfdfd"/>
        </linearGradient>
        <radialGradient gradientUnits="userSpaceOnUse" gradientTransform="matrix(-.4218 0 0 .02673 133.787 272.192)" r="69.827" fy="856.052" fx="285.494" cy="856.052" cx="285.494" id="d" xlink:href="#a"/>
        <linearGradient gradientUnits="userSpaceOnUse" y2="832.532" x2="279.915" y1="830.884" x1="268.967" id="h" xlink:href="#b" gradientTransform="matrix(.26458 0 0 .26458 -87.667 72.341)"/>
        <clipPath clipPathUnits="userSpaceOnUse" id="j">
            <path fill="#606060" stroke-width=".999" d="M178.191 16.792h110.327v106.746H178.191z"/>
        </clipPath>
        <clipPath clipPathUnits="userSpaceOnUse" id="i">
            <path fill="#606060" stroke-width=".999" d="M0 282.878h23.813v28.243H0z"/>
        </clipPath>
        <clipPath clipPathUnits="userSpaceOnUse" id="g">
            <path transform="scale(-1 1)" fill="#606060" stroke-width=".999" d="M0 282.878h23.813v28.243H0z"/>
        </clipPath>
        <clipPath clipPathUnits="userSpaceOnUse" id="f">
            <path transform="scale(-1 1)" fill="#606060" stroke-width=".999" d="M-333.307-46.528h99.864V71.918h-99.864z"/>
        </clipPath>
        <clipPath clipPathUnits="userSpaceOnUse" id="e">
            <path fill="#606060" stroke-width=".999" d="M0 282.878h23.813v28.243H0z"/>
        </clipPath>
        <clipPath clipPathUnits="userSpaceOnUse" id="c">
            <path fill="#606060" stroke-width=".999" d="M0 282.878h23.813v28.243H0z"/>
        </clipPath>
    </defs>
    <g transform="translate(0 -196.458)">
        <path d="M0 196.458h23.813V297H0z" fill-rule="evenodd"/>
        <path d="M-3.678 294.933l17.043-.125 14.417.125.879-3.47c-4.81-1.004-10.75-1.724-16.172-1.72-5.715.006-9.886.467-17.046 1.845z" clip-path="url(#c)" fill="url(#d)" stroke="#8b8b8b" stroke-width=".397"/>
        <flowRoot transform="matrix(.26458 0 0 .26458 -58.46 115.922)" style="line-height:125%" xml:space="preserve" font-style="normal" font-weight="400" font-size="10" font-family="sans-serif" letter-spacing="0" word-spacing="0" fill="#000" fill-opacity="1" stroke="none" stroke-width="1" stroke-linecap="butt" stroke-linejoin="miter" stroke-opacity="1">
            <flowRegion>
                <path d="M323.249 35.538h7.829v72.478h-7.829z"/>
            </flowRegion>
            <flowPara/>
        </flowRoot>
        <path d="M0 291.993c10.904-1.21 21.546-.99 31.75.123l-.033 3.296H0z" clip-path="url(#e)"/>
        <g transform="matrix(-.23845 0 0 .23845 79.477 293.973)" clip-path="url(#f)">
            <path d="M291.232-10.527l6.43-3.034 5.953-.742 4.222.511 5.886 2.16 4.683 4.37z" fill-rule="evenodd"/>
            <g stroke="#fff">
                <g color="#000" fill="none" stroke-linejoin="bevel">
                    <path d="M2.117 188.81l18.113 36.226 65.551 31.913 90.564 13.8 94.877-11.213 60.376-31.913 14.663-30.188-14.663-37.951.324 67.923-33.1-64.473-25.875 96.602-58.651-80.214-40.538 91.427-40.538-75.902-46.576 61.239-17.098-92.852-49.316 62.663 6.037-89.702 44.241 27.296 63.574 32.218 80-16.819 86.466-15.957 31.051-3.666-33.279-62.05 1.366 64.853-64.689-74.392-20.7 91.427-69.001-66.198-75.902 50.026L84.751 80.38l-59.346 55.816 24.151-56.064h34.501l81.077-37.088-18.975 69.864 89.702-24.15 62.101 7.762-66.314-54.334 4.212 46.571-70.726-45.713 66.414-1.725-53.476-15.525-12.938 16.388-49.164-6.9-66.414 44.85-33.333 49.417 9.183 6.647L2.118 188.81z" stroke-width="2.892" transform="matrix(.09825 0 0 .0698 286.195 -16.043)"/>
                    <path d="M133.17 195.51l12.99-80.876-61.407-35.517 32.081-44.697 28.463-4.313 32.776-5.175 41.401 6.9 12.938 10.35 47.438 20.7 18.975 34.501 30.188 30.188 2.803 31.913" stroke-width="2.892" transform="matrix(.09825 0 0 .0698 286.195 -16.043)"/>
                    <path d="M329.01 126.71l-49.16-63.83-59.77-31.05M1.926 188.186L16.11 129.84" stroke-width="2" transform="matrix(.09825 0 0 .0698 286.195 -16.043)"/>
                </g>
            </g>
            <path d="M320.187-2.25l-1.666-4.93" fill="none" stroke="#fff" stroke-width=".2"/>
        </g>
        <path d="M24.979 292.087l-3.149-1.34-1.329.417-1.107-.783-2.216.291-.933-.35-3.024.98 1.042.478 9.503.292z" clip-path="url(#i)" fill-rule="evenodd"/>
        <g style="line-height:125%" transform="matrix(.21584 0 0 .26458 -38.46 278.436)" clip-path="url(#j)" font-weight="400" font-size="7.5" font-family="Geneva" letter-spacing="0" word-spacing="0" fill="#fff">
            <path style="-inkscape-font-specification:Geneva" d="M186.153 66.995h.681v.015q0 .263.201.44.202.171.682.171.42 0 .68-.205.264-.205.264-.483 0-.377-.512-.535l-.348-.106-.23-.073-.473-.147q-.81-.296-.81-.985 0-.483.392-.85.392-.366 1.165-.366.761 0 1.084.315.322.311.322.692v.015h-.685v-.015q0-.205-.209-.322-.205-.117-.549-.117-.41 0-.63.172-.216.168-.216.417 0 .19.14.312.142.117.475.212l.33.092.238.07q.498.142.619.2.124.06.249.15.172.133.253.32.084.186.084.435 0 .579-.418.974-.413.396-1.212.396-.505 0-.838-.15-.334-.15-.531-.414-.198-.267-.198-.615v-.015zM199.465 68.189q-.802 0-1.37-.542-.564-.546-.564-1.619 0-1.07.564-1.611.568-.546 1.37-.546.798 0 1.362.546.568.542.568 1.611 0 1.073-.568 1.619-.564.542-1.362.542zm0-.568q.549 0 .882-.436.337-.439.337-1.157 0-.714-.337-1.15-.333-.44-.882-.44-.553 0-.89.44-.334.436-.334 1.15 0 .718.334 1.157.337.436.89.436zM212.4 63.985h.68v4.09h-.68v-.714q-.213.33-.418.495-.205.164-.421.249-.217.084-.473.084-.567 0-.963-.319-.396-.322-.396-1.292v-2.593h.682v2.307q0 .897.238 1.084.238.187.59.187.303 0 .57-.176.272-.18.429-.498.161-.322.161-.894v-2.01zM224.18 67.497v.571q-.498.12-.762.12-.38 0-.688-.153-.304-.154-.465-.447-.158-.293-.158-.934v-2.102h-.71v-.567h.71v-.967h.682v.967h1.193v.567h-1.193v1.908q0 .542.084.755.084.208.263.307.184.1.436.1.202 0 .608-.125zM233.2 68.075h-.681v-5.91h.68v2.527q.217-.334.418-.495.206-.161.425-.242.224-.084.495-.084.384 0 .688.158.308.157.476.465.169.304.169.978v2.603h-.682v-2.31q0-.55-.073-.777-.073-.23-.278-.359-.205-.132-.469-.132-.3 0-.571.176-.271.176-.436.49-.161.316-.161.902v2.01zM245.04 69.665h-.682v-5.68h.682v.71q.212-.362.402-.513.194-.15.436-.23.242-.08.498-.08.469 0 .857.256.388.252.6.758.217.505.217 1.135 0 .934-.45 1.553-.447.615-1.257.615-.26 0-.494-.077-.23-.073-.41-.22-.18-.15-.4-.53v2.303zm0-3.633q0 .696.3 1.142.3.447.846.447.498 0 .827-.395.33-.396.33-1.183 0-.92-.348-1.275-.348-.358-.795-.358-.322 0-.604.197-.278.194-.417.583-.14.384-.14.842zM258.176 68.189q-.802 0-1.37-.542-.564-.546-.564-1.619 0-1.07.564-1.611.568-.546 1.37-.546.798 0 1.362.546.567.542.567 1.611 0 1.073-.567 1.619-.564.542-1.362.542zm0-.568q.549 0 .882-.436.337-.439.337-1.157 0-.714-.337-1.15-.333-.44-.882-.44-.553 0-.89.44-.334.436-.334 1.15 0 .718.334 1.157.337.436.89.436zM269.177 68.075h-.682v-5.91h.682v5.91zM280.456 67.024h.681v.037q0 .27-.216.553-.216.282-.571.428-.356.147-.817.147-.934 0-1.443-.604-.505-.605-.505-1.528 0-.944.534-1.563.539-.623 1.385-.623.465 0 .842.202.377.201.597.63.22.424.22 1.186v.227h-2.904q0 .656.351 1.08.355.425.982.425.45 0 .655-.172.209-.176.209-.388v-.037zm-2.154-1.42h2.209v-.081q0-.286-.14-.553-.135-.271-.377-.4-.241-.131-.564-.131-.38 0-.703.307-.322.304-.425.857z"/>
        </g>
        <g style="line-height:125%" font-weight="400" font-size="4.63" font-family="sans-serif" letter-spacing="0" word-spacing="0" fill="#fff">
            <path d="M3.231 197.388v.445q-.26-.124-.49-.186-.231-.06-.446-.06-.373 0-.577.144-.2.145-.2.412 0 .223.133.339.135.113.51.183l.276.056q.511.098.753.344.244.244.244.656 0 .49-.33.744-.327.253-.963.253-.24 0-.51-.055-.27-.054-.56-.16v-.47q.279.156.546.235.267.079.524.079.391 0 .604-.154.212-.154.212-.438 0-.25-.153-.39-.152-.14-.5-.21l-.278-.054q-.511-.102-.74-.319-.228-.217-.228-.603 0-.448.315-.706.316-.257.87-.257.237 0 .484.043.246.042.504.128zM4.156 197.277h.615l1.496 2.824v-2.824h.443v3.375h-.615L4.6 197.828v2.824h-.443v-3.375zM9.643 197.388v.445q-.26-.124-.49-.186-.231-.06-.446-.06-.373 0-.577.144-.201.145-.201.412 0 .223.133.339.136.113.511.183l.276.056q.511.098.753.344.244.244.244.656 0 .49-.33.744-.328.253-.963.253-.24 0-.51-.055-.27-.054-.56-.16v-.47q.279.156.546.235.266.079.524.079.391 0 .604-.154.212-.154.212-.438 0-.25-.154-.39-.151-.14-.5-.21l-.277-.054q-.511-.102-.74-.319-.228-.217-.228-.603 0-.448.314-.706.317-.257.87-.257.238 0 .485.043.246.042.504.128z"/>
        </g>
        <g font-size="2.646" fill="#fff" stroke-width=".3" stroke-miterlimit="10">
            <path d="M2.614 273.296v.275q-.132-.122-.282-.183-.148-.06-.316-.06-.331 0-.507.202-.175.202-.175.584 0 .381.175.584.176.201.507.201.168 0 .316-.06.15-.06.282-.184v.273q-.137.093-.29.14-.153.046-.324.046-.438 0-.69-.267-.252-.27-.252-.733 0-.465.252-.733.252-.268.69-.268.173 0 .326.046.153.045.288.137zM3.02 273.148h.26v1.709h.94v.22h-1.2v-1.93zM4.492 273.148h.261v.815l.866-.815h.336l-.958.899 1.026 1.03H5.68l-.926-.93v.93h-.26v-1.93z"/>
        </g>
        <g font-size="2.646" fill="#fff" stroke-width=".3" stroke-miterlimit="10">
            <path d="M2.024 288.266q.084.029.162.122.08.093.16.255l.265.528h-.28l-.247-.495q-.095-.194-.186-.257-.089-.064-.244-.064H1.37v.816h-.261v-1.93h.589q.33 0 .493.139.163.138.163.417 0 .182-.085.303-.084.12-.245.166zm-.654-.81v.685h.328q.189 0 .284-.087.097-.088.097-.257 0-.17-.097-.254-.095-.087-.284-.087H1.37zM4.105 287.305v.255q-.149-.072-.28-.106-.132-.035-.255-.035-.213 0-.33.082-.114.083-.114.235 0 .128.076.194.077.065.292.105l.157.032q.292.056.43.197.14.14.14.374 0 .28-.189.425-.187.145-.55.145-.137 0-.292-.031-.154-.031-.319-.092v-.268q.159.089.311.134.153.045.3.045.224 0 .345-.088.121-.088.121-.25 0-.143-.087-.223-.087-.08-.286-.12l-.159-.03q-.292-.059-.422-.183t-.13-.345q0-.256.179-.403.18-.147.497-.147.136 0 .277.024.14.025.288.074zM4.366 287.242h1.631v.22h-.684v1.709H5.05v-1.71h-.684v-.22z"/>
        </g>
        <g font-size="2.646" fill="#fff" stroke-width=".3" stroke-miterlimit="10">
            <path d="M9.994 235.297v.254q-.148-.07-.28-.105-.132-.035-.255-.035-.213 0-.33.082-.114.083-.114.235 0 .128.076.194.078.065.292.105l.158.032q.292.056.43.197.14.139.14.374 0 .28-.19.425-.186.145-.55.145-.136 0-.291-.031-.154-.031-.32-.092v-.269q.16.09.312.135.152.045.3.045.223 0 .344-.088.122-.088.122-.25 0-.143-.088-.223-.087-.08-.285-.12l-.16-.03q-.291-.059-.422-.183-.13-.124-.13-.345 0-.256.18-.403.18-.147.497-.147.135 0 .276.024.14.025.288.074zM10.255 235.234h1.632v.22h-.685v1.708h-.262v-1.709h-.685v-.22zM12.145 235.234h1.22v.22h-.959v.57h.919v.22h-.919v.699h.982v.22h-1.243v-1.93zM14.075 235.448v.725h.329q.182 0 .281-.094.1-.095.1-.27 0-.172-.1-.267-.1-.094-.281-.094h-.329zm-.26-.214h.589q.324 0 .49.147.166.146.166.429 0 .285-.167.431-.165.146-.49.146h-.328v.775h-.26v-1.928z"/>
        </g>
        <g font-size="2.646" fill="#fff" stroke-width=".3" stroke-miterlimit="10">
            <path d="M1.46 235.271H2.57v.22H1.72v.568h.765v.22H1.72v.92h-.26v-1.928zM2.98 235.271h.26v1.929h-.26v-1.929zM3.76 235.271h.26v1.71h.94v.219h-1.2v-1.929zM5.233 235.271h.26v1.71h.94v.219h-1.2v-1.929z"/>
        </g>
        <g font-size="2.646" fill="#fff" stroke-width=".3" stroke-miterlimit="10">
            <path d="M9.301 255.599l-.354.96h.71l-.356-.96zm-.147-.257h.296l.735 1.929h-.271l-.176-.495h-.87l-.175.495h-.275l.736-1.93zM11.866 255.49v.275q-.132-.122-.282-.183-.149-.06-.316-.06-.331 0-.507.202t-.176.584q0 .381.176.584.176.202.507.202.167 0 .316-.061.15-.06.282-.184v.273q-.137.093-.291.14-.152.046-.323.046-.438 0-.69-.267-.252-.27-.252-.733 0-.465.252-.732.252-.27.69-.27.173 0 .326.047.153.046.288.137zM13.718 255.49v.275q-.131-.122-.281-.183-.149-.06-.317-.06-.33 0-.506.202t-.176.584q0 .381.176.584.175.202.506.202.168 0 .317-.061.15-.06.281-.184v.273q-.137.093-.29.14-.153.046-.323.046-.438 0-.69-.267-.252-.27-.252-.733 0-.465.252-.732.252-.27.69-.27.173 0 .325.047.154.046.288.137z"/>
        </g>
        <g font-size="1.984" fill="#fff" stroke-width=".3" stroke-miterlimit="10">
            <path d="M2.064 202.575v.087h-.82q.012.185.11.281.1.096.278.096.103 0 .199-.025.096-.025.191-.075v.168q-.096.04-.196.062-.101.021-.205.021-.26 0-.412-.15-.15-.152-.15-.41 0-.266.143-.422.144-.157.388-.157.22 0 .346.141.128.141.128.383zm-.178-.052q-.002-.146-.083-.234-.079-.087-.21-.087-.15 0-.24.085-.09.084-.103.237l.636-.001zM2.334 202.734v-.657h.179v.65q0 .154.06.232.06.076.18.076.144 0 .228-.092.084-.092.084-.25v-.616h.178v1.085h-.178v-.166q-.065.099-.151.147-.085.048-.199.048-.187 0-.284-.117-.097-.116-.097-.34zM4.393 202.119v.167q-.075-.042-.152-.062-.075-.022-.153-.022-.173 0-.27.11-.095.11-.095.309 0 .198.096.309.096.11.27.11.077 0 .152-.021.077-.021.152-.063v.165q-.074.035-.155.052-.08.017-.17.017-.244 0-.389-.154-.144-.154-.144-.415 0-.266.145-.418.147-.152.4-.152.083 0 .161.017.079.017.152.05zM4.702 201.655h.178v1.507h-.178v-1.507zM5.252 202.077h.178v1.085h-.178v-1.085zm0-.422h.178v.226h-.178v-.226zM6.516 202.242v-.587h.179v1.507h-.179V203q-.056.097-.142.144-.085.047-.206.047-.196 0-.32-.157-.123-.157-.123-.413t.123-.413q.124-.157.32-.157.12 0 .206.048.086.046.142.143zm-.607.379q0 .196.08.309.082.111.223.111.142 0 .223-.111.081-.113.081-.31 0-.196-.081-.307-.081-.113-.223-.113-.141 0-.223.113-.08.111-.08.308zM7.99 202.575v.087h-.82q.012.185.11.281.1.096.278.096.103 0 .199-.025.096-.025.191-.075v.168q-.096.04-.196.062-.101.021-.205.021-.26 0-.412-.15-.15-.152-.15-.41 0-.266.143-.422.144-.157.388-.157.22 0 .346.141.128.141.128.383zm-.178-.052q-.002-.146-.083-.234-.079-.087-.21-.087-.15 0-.24.085-.09.084-.103.237l.636-.001zM8.772 202.617q-.216 0-.3.05-.083.049-.083.168 0 .095.062.151.063.055.17.055.15 0 .238-.104.09-.106.09-.28v-.04h-.177zm.356-.074v.62h-.179v-.165q-.06.099-.152.146-.09.047-.223.047-.166 0-.265-.093-.098-.094-.098-.251 0-.184.122-.277.123-.093.366-.093h.25v-.017q0-.123-.081-.19-.08-.068-.227-.068-.093 0-.181.023-.088.022-.17.066v-.164q.098-.038.19-.056.092-.02.18-.02.235 0 .351.122.117.122.117.37zM10.402 202.507v.655h-.179v-.649q0-.154-.06-.23-.06-.077-.18-.077-.144 0-.228.092-.083.092-.083.251v.614h-.18v-1.086h.18v.169q.064-.098.15-.146.088-.049.2-.049.188 0 .284.116.096.116.096.34zM12.083 202.11v.168q-.076-.039-.157-.058-.082-.02-.169-.02-.132 0-.2.041-.065.04-.065.122 0 .062.047.098.048.035.191.067l.061.013q.19.041.27.116.08.073.08.206 0 .151-.12.24-.12.088-.329.088-.087 0-.182-.018-.094-.016-.198-.05v-.184q.098.051.194.077.096.026.19.026.126 0 .194-.043.068-.044.068-.122 0-.073-.05-.112-.048-.038-.214-.074l-.062-.015q-.165-.035-.239-.106-.074-.073-.074-.199 0-.153.109-.236.108-.084.308-.084.099 0 .186.015.087.014.16.043zM13.354 202.575v.087h-.82q.012.185.11.281.1.096.278.096.103 0 .199-.025.096-.025.191-.075v.168q-.095.04-.196.062-.101.021-.205.021-.26 0-.412-.15-.15-.152-.15-.41 0-.266.143-.422.144-.157.388-.157.22 0 .346.141.128.141.128.383zm-.178-.052q-.002-.146-.083-.234-.079-.087-.21-.087-.15 0-.24.085-.09.084-.103.237l.636-.001zM13.75 202.62q0 .198.08.31.081.111.223.111.141 0 .223-.111.08-.113.08-.31 0-.196-.08-.307-.082-.113-.223-.113-.142 0-.223.113-.08.111-.08.308zm.607.38q-.056.097-.142.144-.086.047-.206.047-.197 0-.32-.157-.124-.157-.124-.413t.123-.413q.124-.157.321-.157.12 0 .206.048.086.046.142.143v-.165h.178v1.498h-.178V203zM14.884 202.734v-.657h.178v.65q0 .154.06.232.06.076.18.076.145 0 .228-.092.085-.092.085-.25v-.616h.178v1.085h-.178v-.166q-.065.099-.152.147-.085.048-.198.048-.187 0-.284-.117-.097-.116-.097-.34zM17.09 202.575v.087h-.82q.012.185.111.281.1.096.277.096.103 0 .199-.025.097-.025.192-.075v.168q-.096.04-.197.062-.1.021-.205.021-.26 0-.411-.15-.151-.152-.151-.41 0-.266.143-.422.144-.157.388-.157.22 0 .346.141.128.141.128.383zm-.178-.052q-.002-.146-.082-.234-.08-.087-.212-.087-.149 0-.239.085-.089.084-.103.237l.636-.001zM18.281 202.507v.655h-.178v-.649q0-.154-.06-.23-.06-.077-.18-.077-.145 0-.228.092-.083.092-.083.251v.614h-.18v-1.086h.18v.169q.063-.098.15-.146.087-.049.2-.049.187 0 .283.116.096.116.096.34zM19.42 202.119v.167q-.076-.042-.153-.062-.075-.022-.153-.022-.173 0-.269.11-.096.11-.096.309 0 .198.096.309.096.11.27.11.077 0 .152-.021.077-.021.153-.063v.165q-.075.035-.155.052-.08.017-.17.017-.245 0-.39-.154-.144-.154-.144-.415 0-.266.145-.418.147-.152.4-.152.083 0 .161.017.079.017.153.05zM20.656 202.575v.087h-.82q.012.185.11.281.1.096.278.096.103 0 .198-.025.097-.025.192-.075v.168q-.096.04-.196.062-.101.021-.205.021-.26 0-.412-.15-.15-.152-.15-.41 0-.266.143-.422.144-.157.388-.157.22 0 .346.141.128.141.128.383zm-.178-.052q-.002-.146-.083-.234-.08-.087-.21-.087-.15 0-.24.085-.09.084-.103.237l.636-.001zM21.574 202.244q-.03-.018-.066-.025-.035-.01-.078-.01-.151 0-.232.1-.08.097-.08.281v.572h-.18v-1.085h.18v.169q.055-.1.146-.147.09-.048.218-.048.019 0 .041.003.022.002.05.007v.183z"/>
        </g>
        <g style="line-height:125%" font-weight="400" font-size="2.646" font-family="sans-serif" letter-spacing="0" word-spacing="0" fill="#fff">
            <path d="M17.799 236.258q.084.029.163.122.08.093.16.255l.265.527h-.28l-.247-.494q-.096-.194-.186-.257-.09-.064-.245-.064h-.284v.815h-.26v-1.928h.588q.331 0 .494.138.163.138.163.417 0 .182-.086.302-.084.12-.245.167zm-.654-.81v.685h.328q.189 0 .285-.087.096-.088.096-.257 0-.17-.096-.254-.096-.087-.285-.087h-.328zM19.507 235.41q-.284 0-.452.212-.167.212-.167.578 0 .364.167.576.168.212.452.212.284 0 .45-.212.166-.212.166-.576 0-.366-.167-.578-.165-.211-.45-.211zm0-.211q.405 0 .648.272t.243.729q0 .456-.243.729-.243.27-.648.27-.407 0-.651-.27-.243-.272-.243-.729 0-.457.243-.729.244-.272.65-.272zM20.54 235.234h1.63v.22h-.684v1.708h-.262v-1.709h-.685v-.22z"/>
        </g>
        <g style="line-height:125%" font-weight="400" font-size="2.646" font-family="sans-serif" letter-spacing="0" word-spacing="0" fill="#fff">
            <path d="M1.721 255.594v.724h.328q.182 0 .282-.094.1-.094.1-.269 0-.173-.1-.267-.1-.094-.282-.094h-.328zm-.26-.215h.588q.325 0 .49.147.167.146.167.43 0 .285-.167.43-.165.147-.49.147h-.328v.775h-.26v-1.929zM3.534 255.636l-.354.96h.709l-.355-.96zm-.148-.257h.296l.735 1.929h-.271l-.176-.495H3.1l-.175.495H2.65l.736-1.929zM4.961 255.594v1.5h.315q.4 0 .584-.181.186-.181.186-.571 0-.388-.186-.567-.184-.181-.584-.181h-.315zm-.26-.215h.535q.561 0 .823.234.263.233.263.729 0 .498-.264.732-.263.234-.822.234H4.7v-1.929z"/>
        </g>
        <g font-size="2.646" fill="#fff" stroke-width=".3" stroke-miterlimit="10">
            <path d="M17.768 255.599l-.354.96h.71l-.356-.96zm-.147-.257h.295l.736 1.929h-.272l-.175-.495h-.87l-.176.495h-.275l.737-1.93zM20.332 255.49v.275q-.131-.122-.281-.183-.149-.06-.317-.06-.33 0-.506.202t-.176.584q0 .381.176.584.175.202.506.202.168 0 .317-.061.15-.06.281-.184v.273q-.137.093-.29.14-.153.046-.323.046-.438 0-.69-.267-.252-.27-.252-.733 0-.465.252-.732.252-.27.69-.27.173 0 .325.047.154.046.288.137zM22.185 255.49v.275q-.132-.122-.282-.183-.148-.06-.316-.06-.33 0-.507.202-.175.202-.175.584 0 .381.175.584.176.202.507.202.168 0 .316-.061.15-.06.282-.184v.273q-.137.093-.29.14-.153.046-.324.046-.438 0-.69-.267-.252-.27-.252-.733 0-.465.252-.732.252-.27.69-.27.173 0 .326.047.154.046.288.137z"/>
        </g>
        <g style="line-height:125%" font-weight="400" font-size="2.646" font-family="sans-serif" letter-spacing="0" word-spacing="0" fill="#fff">
            <path d="M17.799 253.72q.084.029.163.122.08.093.16.256l.265.527h-.28l-.247-.495q-.096-.194-.186-.257t-.245-.063h-.284v.815h-.26v-1.93h.588q.331 0 .494.14.163.137.163.416 0 .183-.086.303-.084.12-.245.166zm-.654-.81v.685h.328q.189 0 .285-.087.096-.087.096-.257 0-.169-.096-.254-.096-.087-.285-.087h-.328zM19.507 252.873q-.284 0-.452.212-.167.212-.167.577t.167.576q.168.212.452.212.284 0 .45-.212.166-.211.166-.576t-.167-.577q-.165-.212-.45-.212zm0-.212q.405 0 .648.273.243.27.243.728 0 .456-.243.729-.243.271-.648.271-.407 0-.651-.271-.243-.271-.243-.729 0-.457.243-.728.244-.273.65-.273zM20.54 252.696h1.63v.22h-.684v1.709h-.262v-1.71h-.685v-.22z"/>
        </g>
        <g style="line-height:125%" font-weight="400" font-size="2.646" font-family="sans-serif" letter-spacing="0" word-spacing="0" fill="#fff">
            <path d="M10.017 274.801v-.518h-.426v-.214h.685v.828q-.151.107-.333.163-.183.054-.39.054-.451 0-.707-.264-.255-.264-.255-.736 0-.473.255-.736.256-.265.708-.265.188 0 .358.046.17.047.313.137v.278q-.144-.123-.307-.185t-.342-.062q-.354 0-.533.198-.177.198-.177.589 0 .39.177.588.179.197.533.197.138 0 .246-.023.109-.024.195-.075zM11.399 273.405l-.354.96h.709l-.355-.96zm-.148-.257h.296l.735 1.928h-.271l-.176-.494h-.87l-.175.494h-.275l.736-1.928zM12.088 273.148h1.632v.22h-.685v1.708h-.262v-1.709h-.685v-.22zM13.978 273.148h1.22v.22h-.959v.57h.919v.22h-.919v.699h.982v.22h-1.243v-1.93z"/>
        </g>
        <g font-size="2.646" fill="#fff" stroke-width=".999">
            <path d="M10.14 287.499l-.354.96h.709l-.355-.96zm-.148-.257h.296l.735 1.928h-.271l-.176-.494h-.87l-.175.494h-.275l.736-1.928zM12.704 287.39v.275q-.132-.122-.282-.183-.148-.06-.316-.06-.33 0-.507.202-.175.202-.175.584 0 .381.175.584.176.201.507.201.168 0 .316-.06.15-.06.282-.184v.273q-.137.093-.29.14-.153.046-.324.046-.438 0-.69-.267-.251-.27-.251-.733 0-.465.251-.732.252-.27.69-.27.173 0 .326.047.154.045.288.137zM14.557 287.39v.275q-.132-.122-.282-.183-.149-.06-.317-.06-.33 0-.506.202t-.176.584q0 .381.176.584.176.201.506.201.168 0 .317-.06.15-.06.282-.184v.273q-.137.093-.291.14-.153.046-.323.046-.438 0-.69-.267-.252-.27-.252-.733 0-.465.252-.732.252-.27.69-.27.173 0 .326.047.153.045.288.137z"/>
        </g>
        <path d="M3.182 278.208c4.671 4.279 12.006 4.22 16.398-.12M3.182 284.428c4.432-4.038 12.006-4.219 16.398.12" fill="none" stroke="#fff" stroke-width=".265"/>
    </g>
</svg>
