<svg xmlns="http://www.w3.org/2000/svg" width="59.734" height="59.729" viewBox="0 0 15.805 15.803">
    <defs>
        <filter id="a" filterUnits="objectBoundingBox" x="0" y="0" width="1" height="1">
            <feColorMatrix in="SourceGraphic" values="0 0 0 0 1 0 0 0 0 1 0 0 0 0 1 0 0 0 1 0"/>
        </filter>
        <filter id="b" filterUnits="objectBoundingBox" x="0" y="0" width="1" height="1">
            <feColorMatrix in="SourceGraphic" values="0 0 0 0 1 0 0 0 0 1 0 0 0 0 1 0 0 0 1 0"/>
        </filter>
        <filter id="c" filterUnits="objectBoundingBox" x="0" y="0" width="1" height="1">
            <feColorMatrix in="SourceGraphic" values="0 0 0 0 1 0 0 0 0 1 0 0 0 0 1 0 0 0 1 0"/>
        </filter>
    </defs>
    <path d="M15.805 7.902a7.901 7.901 0 0 1-7.902 7.901A7.902 7.902 0 1 1 7.903 0a7.902 7.902 0 0 1 7.902 7.902"/>
    <path d="M13.596 3.936c.162.212.28.609.263.88l-.08 1.2c-.018.273.073.688.204.924l.566 1.03c.13.236.19.647.13.911l-.258 1.175c-.06.264-.282.607-.497.763l-.953.683a1.908 1.908 0 0 0-.567.742l-.42 1.104a1.44 1.44 0 0 1-.603.674l-1.051.523c-.236.119-.633.15-.884.07l-1.09-.345a1.77 1.77 0 0 0-.91-.002l-1.107.349c-.25.08-.648.047-.883-.072l-1.035-.522c-.236-.119-.506-.423-.604-.675l-.419-1.104a1.908 1.908 0 0 0-.568-.742l-.952-.683a1.482 1.482 0 0 1-.496-.763L1.124 8.88c-.057-.264 0-.675.131-.91l.568-1.031c.13-.236.222-.65.203-.924l-.08-1.2c-.018-.271.1-.668.264-.88l.721-.943c.163-.212.509-.42.766-.462l1.128-.181c.257-.042.627-.226.82-.41l.852-.814C6.69.943 7.061.79 7.323.79h1.159c.26 0 .632.152.824.336l.838.804c.193.184.562.37.82.412l1.142.186c.26.042.604.25.768.464zm0 0" fill="none" stroke="#6d6d6d" stroke-width=".433" stroke-miterlimit="10"/>
</svg>
