<svg xmlns="http://www.w3.org/2000/svg" width="20" height="20" viewBox="0 0 5.292 5.292">
    <path d="M5.067 2.654a2.421 2.421 0 1 1-4.843 0 2.421 2.421 0 0 1 4.843 0" fill="#191919" stroke="#adb2bd" stroke-width=".405"/>
    <path d="M30.346-.124c-.186-.301-.498-.597-.673-1.018-.174-.42-.162-.85-.243-1.193a4.25 4.25 0 0 0-.637-.637c-.343-.08-.772-.069-1.193-.243-.42-.174-.717-.487-1.017-.673a4.253 4.253 0 0 0-.895 0c-.301.186-.597.499-1.019.673-.42.174-.848.163-1.192.243-.234.19-.448.403-.637.637-.08.343-.07.773-.244 1.193-.174.42-.486.717-.672 1.018a4.25 4.25 0 0 0 0 .895c.186.301.498.597.672 1.018.175.42.164.85.244 1.192.19.235.403.448.637.638.344.08.773.069 1.192.242.422.175.718.488 1.019.674a4.318 4.318 0 0 0 .895 0c.3-.186.596-.499 1.017-.674.42-.174.85-.162 1.193-.242a4.23 4.23 0 0 0 .637-.638c.08-.343.07-.772.243-1.192.175-.421.487-.717.673-1.018a4.342 4.342 0 0 0 0-.895" fill="#232323" fill-rule="evenodd"/>
    <path d="M30.61-.152c-.198-.32-.53-.635-.715-1.082-.185-.446-.173-.902-.259-1.267a4.516 4.516 0 0 0-.677-.677c-.365-.085-.82-.073-1.267-.258-.447-.186-.762-.517-1.081-.715a4.517 4.517 0 0 0-.951 0c-.32.198-.635.53-1.082.715-.446.185-.902.173-1.267.258-.25.202-.476.428-.677.677-.085.365-.073.821-.259 1.267-.185.447-.517.762-.714 1.082a4.517 4.517 0 0 0 0 .951c.197.32.53.634.714 1.082.186.446.174.902.26 1.266.2.25.427.476.676.678.365.085.82.073 1.267.257.447.186.762.518 1.082.716a4.59 4.59 0 0 0 .95 0c.32-.198.635-.53 1.082-.716.447-.184.902-.172 1.267-.257.25-.202.476-.428.677-.678.086-.364.074-.82.259-1.266.185-.448.517-.762.715-1.082a4.629 4.629 0 0 0 0-.951" fill="#1e1e1e" fill-opacity=".973" fill-rule="evenodd"/>
    <g transform="translate(-52.65 -83.256)" paint-order="stroke fill markers">
        <path d="M82.372 83.198c-.158-.257-.425-.509-.573-.868-.148-.357-.138-.723-.207-1.015a3.62 3.62 0 0 0-.543-.543c-.293-.069-.658-.059-1.016-.207-.359-.149-.61-.415-.867-.574a3.638 3.638 0 0 0-.763 0c-.256.159-.508.425-.867.574-.358.148-.723.138-1.016.207a3.62 3.62 0 0 0-.542.543c-.069.292-.06.658-.208 1.015-.148.36-.415.611-.573.868a3.638 3.638 0 0 0 0 .763c.158.256.425.508.573.867.149.357.139.723.208 1.015.16.2.343.382.542.543.293.069.658.059 1.016.207.359.149.611.415.867.574a3.691 3.691 0 0 0 .763 0c.256-.159.508-.425.867-.574.358-.148.723-.138 1.016-.207.2-.161.382-.343.543-.543.069-.292.059-.658.207-1.015.148-.36.415-.611.573-.867a3.711 3.711 0 0 0 0-.763" fill="#323232" fill-rule="evenodd" stroke="#282828" stroke-width=".284" stroke-linecap="round"/>
        <circle r=".595" cy="81.337" cx="78.785" fill="#bcbcbc"/>
    </g>
    <g fill="#fff" stroke="#fff" stroke-width=".987">
        <path d="M0 0a2.643 2.643 0 0 1-1.196 0v-18.157H0z" fill-rule="evenodd" transform="matrix(.17742 0 0 -.11551 2.752 .31)"/>
    </g>
</svg>
