<svg xmlns="http://www.w3.org/2000/svg" width="22" height="22" viewBox="0 0 6.209 6.209">
    <defs>
        <filter id="a" filterUnits="objectBoundingBox" x="0" y="0" width="1" height="1">
            <feColorMatrix in="SourceGraphic" values="0 0 0 0 1 0 0 0 0 1 0 0 0 0 1 0 0 0 1 0"/>
        </filter>
    </defs>
    <path d="M3.104 6.115c-1.66 0-3.01-1.35-3.01-3.01 0-1.66 1.35-3.011 3.01-3.011 1.66 0 3.01 1.35 3.01 3.01 0 1.66-1.35 3.01-3.01 3.01" fill="#e6e6e6" stroke="#636663" stroke-width=".186"/>
    <path d="M3.104 5.272A2.17 2.17 0 0 1 .936 3.104 2.17 2.17 0 0 1 3.104.936a2.17 2.17 0 0 1 2.168 2.168 2.17 2.17 0 0 1-2.168 2.168" fill="#e6e6e6" stroke="#636663" stroke-width=".186"/>
    <path d="M4.441 3.104a1.337 1.337 0 1 1-2.674 0 1.337 1.337 0 0 1 2.674 0"/>
</svg>
