<svg xmlns="http://www.w3.org/2000/svg" xmlns:xlink="http://www.w3.org/1999/xlink" width="90" height="380" viewBox="0 0 23.813 100.542">
    <defs>
        <linearGradient id="b">
            <stop offset="0" stop-color="#fff"/>
            <stop offset="1" stop-opacity="0"/>
        </linearGradient>
        <linearGradient id="a">
            <stop offset="0" stop-color="#fdfdfd"/>
            <stop offset="1" stop-color="#fdfdfd"/>
        </linearGradient>
        <radialGradient gradientUnits="userSpaceOnUse" gradientTransform="matrix(.4218 0 0 .02673 -105.982 272.192)" r="69.827" fy="856.052" fx="285.494" cy="856.052" cx="285.494" id="d" xlink:href="#a"/>
        <linearGradient gradientUnits="userSpaceOnUse" y2="832.532" x2="279.915" y1="830.884" x1="268.967" id="g" xlink:href="#b" gradientTransform="matrix(.26458 0 0 .26458 -59.861 72.341)"/>
        <clipPath clipPathUnits="userSpaceOnUse" id="h">
            <path fill="#fff" stroke="gray" stroke-width=".388" d="M4.03 289.485h23.689v11.965H4.03z"/>
        </clipPath>
        <clipPath clipPathUnits="userSpaceOnUse" id="f">
            <path fill="#fff" stroke="gray" stroke-width=".388" d="M4.03 289.485h23.689v11.965H4.03z"/>
        </clipPath>
        <clipPath clipPathUnits="userSpaceOnUse" id="e">
            <path fill="#fff" stroke="gray" stroke-width=".388" d="M4.03 289.485h23.689v11.965H4.03z"/>
        </clipPath>
        <clipPath clipPathUnits="userSpaceOnUse" id="c">
            <path fill="#fff" stroke="gray" stroke-width=".388" d="M4.03 289.485h23.689v11.965H4.03z"/>
        </clipPath>
    </defs>
    <path clip-path="url(#c)" d="M31.483 294.933l-17.042-.125-14.418.125-.878-3.47c4.81-1.004 10.75-1.724 16.17-1.72 5.716.006 9.887.467 17.047 1.845z" fill="url(#d)" stroke="#8b8b8b" stroke-width=".397" transform="translate(-3.969 -196.458)"/>
    <path clip-path="url(#e)" d="M0 291.993c10.904-1.21 21.546-.99 31.75.123l-.033 3.296H0z" transform="matrix(1 0 0 1.36593 -3.969 -303.009)"/>
    <g stroke-width=".532" stroke="#fff">
        <path d="M14.983 294.241c.21-1.012 1.87-3.909 3.617-3.862.376.123.385 2.708.43 3.78l-1.43.338z" fill-rule="evenodd" transform="matrix(.2035 0 0 .39075 16.845 -18.67)"/>
        <path d="M18.59 290.43c-.45 1.151-1.001 2.803-1.001 4.036M18.376 290.4c-1.124 1.66-1.841 2.74-1.788 3.964M17.824 290.522c-1.317 1.671-1.953 2.566-2.085 3.76" fill="none" transform="matrix(.2035 0 0 .39075 16.845 -18.67)"/>
    </g>
    <g stroke-width=".288" stroke="#fff">
        <path d="M14.983 294.241c.21-1.012 1.87-3.909 3.617-3.862.376.123.385 2.708.43 3.78l-1.43.338z" fill-rule="evenodd" transform="matrix(.50086 0 0 .81336 8.76 -142.316)"/>
        <path d="M18.59 290.43c-.45 1.151-1.001 2.803-1.001 4.036M18.376 290.4c-1.124 1.66-1.841 2.74-1.788 3.964M17.824 290.522c-1.317 1.671-1.953 2.566-2.085 3.76" fill="none" transform="matrix(.50086 0 0 .81336 8.76 -142.316)"/>
    </g>
    <path clip-path="url(#h)" d="M2.826 292.087l3.149-1.954.634 1.317.617-1.151.377.864-.007-1.086 1.006 1.042.557-1.206.638 1.083.435-.674.556.756.72-1.043.149 1.083 1.292-1.124-.47 1.827-8.44.25z" transform="matrix(1.37577 0 0 1.30085 -5.483 -284.208)" fill-rule="evenodd"/>
    <g style="-inkscape-font-specification:Luminari" font-weight="400" font-size="1.984" font-family="Luminari" fill="#fff" stroke-width="10.63">
        <path d="M2.805 99.713q-.015.01-.03.034-.013.022-.017.034-.002.004-.012.006-.008.004-.012.004-.018 0-.018-.018 0-.006.016-.032l.038-.061.051-.088.05-.081q.024-.038.034-.05.01-.01.023-.002.014.006.008.016-.004.004-.006.01t-.002.02q0 .018.03.046.032.025.08.051.047.024.105.042.057.018.113.018.065 0 .103-.038.04-.038.04-.099 0-.07-.044-.103-.044-.034-.109-.052-.064-.018-.14-.028-.076-.012-.142-.033-.063-.022-.107-.064t-.044-.12q0-.062.042-.126.044-.063.113-.113.072-.05.163-.081.091-.032.19-.032.03 0 .07.006.04.006.077.016.04.008.072.018.033.008.05.014.003 0-.003.016-.006.017-.03.055-.023.036-.053.072-.028.035-.054.063-.023.028-.033.028h-.012q-.01 0-.014-.004.002-.01.002-.026 0-.07-.064-.11-.061-.039-.18-.039-.058 0-.095.034-.036.034-.036.081 0 .078.043.115.044.038.11.058.065.018.14.028.076.01.141.031.066.02.11.062.043.041.043.125 0 .038-.016.073-.016.036-.041.068-.026.031-.058.06-.032.025-.063.045-.03.02-.068.042-.038.02-.081.037-.044.018-.09.028-.045.012-.09.012-.023 0-.07-.01-.048-.008-.098-.02l-.085-.022q-.038-.012-.04-.016zM4.514 99.604l-.06.048q-.038.03-.087.06-.05.03-.11.05-.059.02-.124.02-.1 0-.177-.033-.077-.036-.131-.093-.052-.06-.08-.14-.025-.079-.025-.168 0-.105.032-.186.031-.082.077-.141.048-.062.101-.101.054-.042.097-.066.02-.012.05-.026.032-.014.068-.026.037-.011.079-.02.044-.01.09-.01.085 0 .164.022.081.022.143.07.061.045.099.119.038.073.038.177 0 .083-.032.156-.03.074-.072.131-.041.058-.083.1l-.057.057zm-.225.032q.113 0 .173-.085.062-.086.062-.262 0-.09-.026-.165-.024-.077-.07-.135-.043-.057-.103-.09-.06-.033-.129-.033-.05 0-.095.026-.044.026-.078.075-.033.048-.053.117-.02.07-.02.157 0 .093.028.167.03.073.077.125.048.05.107.077.062.026.127.026zM4.843 98.943q-.016-.004-.016-.015.002-.012.016-.014l.038-.014.075-.028.094-.034.087-.03.032-.01q.01-.004.016-.004t.014.006q.007.004.004.014-.006.016-.014.076l-.012.133-.012.143q-.004.071-.004.113 0 .158.067.246.068.085.21.085.074 0 .122-.03.05-.03.075-.07.018-.025.024-.112v-.042q.002-.026.002-.054l.002-.055.002-.046q.002-.091-.006-.169-.006-.079-.02-.117-.006-.023-.024-.023l-.024.002q-.01 0-.011-.018 0-.006.011-.012.012-.008.046-.022l.07-.024q.04-.012.077-.02.038-.008.067-.01.03-.004.044.002l.002.006q.004.002.006.012.004.012-.006.076-.008.061-.018.202l-.014.189q-.006.09-.006.139 0 .093.034.148.036.054.087.054.034 0 .064-.014.032-.014.046-.024.015 0 .015.014.002.014-.006.018-.03.02-.083.05-.052.03-.11.057-.055.026-.106.046-.052.018-.084.018-.015 0-.03-.02-.011-.022-.02-.052-.007-.03-.011-.061-.004-.032-.004-.056-.042.03-.095.064-.054.031-.111.061-.058.028-.116.046-.055.018-.103.018-.12 0-.198-.064-.078-.065-.078-.169 0-.021.004-.065l.01-.1q.006-.055.01-.118.004-.064.004-.123 0-.092-.03-.14-.027-.049-.073-.055l-.032-.004zM7.027 99.487q.004-.004.006.002.004.004.004.014.002.008 0 .018-.002.01-.008.016-.04.038-.1.08-.06.041-.123.077-.017.01-.05.025-.031.016-.07.032-.038.014-.08.024-.04.012-.075.012-.072 0-.135-.028-.064-.028-.112-.075-.047-.05-.075-.117-.026-.068-.026-.147 0-.086.024-.161.024-.075.054-.135.031-.06.06-.1.027-.04.037-.06-.038-.003-.07-.003l-.057-.002q-.064 0-.107.002-.044 0-.078.008-.016.004-.03.016-.013.012-.023.018l-.01-.01q-.008-.008-.008-.016 0-.004.002-.006 0-.002.026-.022l.063-.05.086-.063.089-.065.073-.05q.032-.022.042-.026.012-.004.024.004t.008.012l-.018.016q-.012.01-.008.018.022.018.075.032.054.014.121.024.068.008.14.014.07.004.128.004.086 0 .137-.004.052-.006.085-.014.032-.008.042-.012.002 0 .008.006t.006.014q0 .004-.03.02-.028.015-.057.033l-.044.026q-.024.016-.054.032-.027.014-.06.025-.03.012-.06.014-.03.004-.07.006l-.083.004-.09.002h-.081l-.02.034q-.012.022-.024.058-.012.035-.022.081-.01.046-.01.1 0 .08.024.15.026.067.07.117.045.05.107.077.062.028.133.028.042 0 .08-.01.039-.01.073-.026.035-.015.065-.033.03-.02.052-.038l.024-.022z"/>
        <path d="M7.334 98.991q.04-.036.089-.073.05-.04.103-.072.056-.033.115-.053.06-.022.121-.022.072 0 .133.024.064.021.111.065.048.044.076.105.028.06.028.135 0 .153-.054.282-.052.127-.123.224-.07.096-.139.159-.07.064-.103.083-.01.006-.02-.004t0-.021q.016-.012.048-.06.033-.046.067-.117.034-.071.06-.163.025-.091.025-.196 0-.088-.021-.155-.02-.067-.056-.113-.036-.046-.083-.07-.046-.023-.1-.023-.035 0-.075.012-.04.01-.073.03-.036.021-.07.053-.034.032-.05.065l-.007.016-.006.02-.006.032-.004.053-.01.114q-.002.053-.002.128 0 .098.012.151.012.052.07.06h.013l.018-.004.02-.006q.006 0 .008.006.004.006.004.012t-.022.018q-.022.012-.056.025l-.075.026-.076.024-.065.018q-.026.008-.036.008-.06 0-.06-.046 0-.01.01-.037.01-.028.016-.086l.016-.182q.008-.101.012-.203.006-.1.008-.198.004-.097.004-.175 0-.143-.006-.242-.004-.099-.008-.14-.006-.052-.012-.068-.006-.018-.014-.032-.01-.018-.025-.024-.014-.008-.028-.01-.012-.002-.022 0-.008 0-.008-.004 0-.028.018-.045.018-.018.048-.018l.119-.002q.061-.002.113-.006.043-.004.08-.012.037-.008.049-.012.016-.002.016.006.002.006.002.024 0 .012-.01.018-.01.006-.022.01l-.024.008q-.01.002-.014.008-.008.012-.016.073-.008.062-.016.157-.006.093-.011.208-.004.115-.006.232l.002.002zM9.009 99.672q-.064.04-.157.071-.093.032-.18.032-.029 0-.064-.004l-.056-.008-.004.077q0 .04-.002.076 0 .037-.002.07v.053q0 .101.016.137.018.035.054.035.018 0 .047-.006.032-.004.056-.015.004-.004.008.008.006.011.006.021 0 .002-.028.01-.028.01-.071.022-.042.014-.092.028-.05.016-.095.028-.046.014-.08.022-.031.008-.039.008-.012 0-.022-.002-.01-.002-.01-.018 0-.01.006-.014.008-.002.012-.008.01-.012.012-.046.002-.032.006-.063l.012-.185q.008-.105.014-.222l.01-.23q.006-.117.006-.213 0-.135-.012-.21-.01-.077-.03-.113-.02-.038-.046-.046-.023-.01-.051-.01l-.018.002h-.02q-.008 0-.008-.014 0-.01.002-.012 0-.004.008-.008l.036-.02.061-.03.076-.035q.04-.02.073-.034.036-.016.062-.025.026-.01.035-.01.03 0 .04.025.012.026.014.07l-.002.057-.002.088q.026-.028.07-.068.045-.042.1-.08.058-.037.12-.063.063-.028.123-.028.085 0 .15.032.068.03.112.082.043.05.065.115.024.063.024.13 0 .096-.03.177-.028.08-.07.143-.04.062-.09.107-.05.046-.092.072l-.063.041zm-.447-.153q.006.022.032.046.026.021.065.041.042.018.094.032.053.012.113.012.053 0 .101-.02.05-.022.085-.065.036-.046.056-.118.022-.071.022-.172 0-.072-.02-.135-.02-.064-.058-.111-.037-.048-.089-.074-.052-.027-.113-.027-.032 0-.072.013-.037.014-.073.038t-.067.056q-.03.032-.044.067-.01.024-.018.076-.006.05-.01.11l-.004.122v.109zM10.23 99.604l-.06.048q-.037.03-.087.06-.05.03-.109.05-.06.02-.125.02-.099 0-.176-.033-.078-.036-.131-.093-.052-.06-.08-.14-.025-.079-.025-.168 0-.105.031-.186.032-.082.078-.141.047-.062.1-.101.054-.042.098-.066.02-.012.05-.026.031-.014.067-.026.038-.011.08-.02.043-.01.089-.01.085 0 .165.022t.142.07q.062.045.1.119.037.073.037.177 0 .083-.031.156-.03.074-.072.131-.041.058-.083.1l-.058.057zm-.224.032q.113 0 .173-.085.061-.086.061-.262 0-.09-.026-.165-.023-.077-.069-.135-.044-.057-.103-.09-.06-.033-.13-.033-.049 0-.094.026-.044.026-.078.075-.034.048-.053.117-.02.07-.02.157 0 .093.028.167.03.073.077.125.048.05.107.077.062.026.127.026zM11.253 99.56q.012.009.012.02 0 .016-.046.042-.048.028-.127.066-.078.037-.155.065l-.067.024q-.03.01-.054.01-.028 0-.07-.014-.04-.012-.069-.03l-.038-.024q-.013-.01-.013-.02 0-.008.004-.013.006-.008.01-.018l.003-.016.002-.02q.006-.05.012-.143.008-.095.012-.208.004-.115.006-.236.004-.123.004-.229 0-.129-.002-.208 0-.08-.004-.127-.006-.065-.016-.085-.01-.022-.021-.032-.014-.012-.028-.014-.012-.004-.024-.004l-.018-.002q-.006 0-.006-.004 0-.065.056-.065l.097.002h.095l.05-.002.053-.006.048-.008q.022-.004.032-.008.008-.002.012.006.006.008.006.02.002.011-.004.021-.004.01-.012.012l-.022.002q-.008 0-.03.008-.01.004-.018.026-.008.02-.014.065-.006.044-.012.118-.006.07-.011.18-.006.087-.01.179-.002.089-.006.174l-.004.16v.241q.002.058.012.091.01.032.051.06.042.028.087.028.036 0 .074-.01t.07-.024q.031-.014.055-.028l.038-.022z"/>
        <path d="M12.045 99.53q-.022.025-.067.066-.046.042-.111.084-.064.041-.143.071-.08.03-.169.03-.081 0-.159-.024-.077-.026-.139-.075-.061-.052-.099-.13-.036-.079-.036-.188 0-.09.012-.153.012-.065.032-.113.02-.05.044-.083.026-.036.051-.064.032-.035.078-.067.045-.032.097-.058.054-.025.111-.04.06-.015.12-.015.106 0 .166.036.061.035.061.099 0 .04-.023.073.02-.006.05-.02l.063-.028.055-.027q.026-.012.034-.018.004-.004.008-.002.006 0 .006.006 0 .026-.01.043-.01.016-.024.026-.032.02-.091.05-.06.03-.133.063l-.149.066-.147.061-.119.054q-.05.022-.067.032 0 .067.026.127.027.057.075.1.048.045.113.07.068.024.147.024.071 0 .129-.014.057-.016.097-.033.04-.02.062-.034.023-.016.025-.016.008 0 .016.008.008.006.008.014zm-.698-.303l.075-.028q.044-.017.083-.037l.076-.038q.034-.018.051-.032.036-.025.036-.087 0-.024-.01-.05-.008-.025-.025-.045-.018-.022-.044-.034-.026-.014-.058-.014-.027 0-.06.02-.031.018-.059.062-.028.041-.047.113-.018.07-.018.17zM12.648 99.082q-.022.034-.041.082l-.038.085q-.084-.006-.143-.006h-.11q-.057 0-.124.004-.066.004-.1.008l.042-.087q.024-.05.046-.09.032.008.097.012l.13.002h.124l.064-.004q.031-.002.053-.006zM13.528 99.672q-.064.04-.157.071-.093.032-.18.032-.028 0-.064-.004l-.056-.008-.004.077q0 .04-.002.076 0 .037-.002.07v.053q0 .101.016.137.018.035.054.035.018 0 .047-.006.032-.004.056-.015.004-.004.008.008.006.011.006.021 0 .002-.028.01-.028.01-.071.022-.042.014-.092.028-.05.016-.095.028-.046.014-.08.022-.031.008-.039.008-.012 0-.022-.002-.01-.002-.01-.018 0-.01.006-.014.008-.002.012-.008.01-.012.012-.046.002-.032.006-.063l.012-.185q.008-.105.014-.222l.01-.23q.006-.117.006-.213 0-.135-.012-.21-.01-.077-.03-.113-.02-.038-.045-.046-.024-.01-.052-.01l-.018.002h-.02q-.008 0-.008-.014 0-.01.002-.012 0-.004.008-.008l.036-.02.061-.03.076-.035q.04-.02.073-.034.036-.016.062-.025.026-.01.036-.01.03 0 .04.025.011.026.013.07l-.002.057-.002.088q.026-.028.07-.068.045-.042.1-.08.058-.037.12-.063.063-.028.123-.028.085 0 .15.032.068.03.112.082.043.05.065.115.024.063.024.13 0 .096-.03.177-.027.08-.07.143-.04.062-.09.107-.05.046-.092.072l-.063.041zm-.447-.153q.006.022.032.046.026.021.065.041.042.018.094.032.053.012.113.012.053 0 .101-.02.05-.022.085-.065.036-.046.056-.118.022-.071.022-.172 0-.072-.02-.135-.02-.064-.058-.111-.037-.048-.089-.074-.052-.027-.113-.027-.032 0-.071.013-.038.014-.074.038t-.067.056q-.03.032-.044.067-.01.024-.018.076-.006.05-.01.11l-.004.122v.109zM14.61 99.453l-.011-.073-.012-.075-.012-.062-.006-.034-.072.028q-.04.016-.079.036-.04.018-.075.038-.036.018-.06.033-.046.03-.07.06-.023.03-.023.071 0 .058.034.101.033.044.105.044.037 0 .077-.014.042-.014.075-.031.036-.018.062-.036.026-.018.036-.028l.024-.026q.01-.012.007-.031zm-.057-.307q-.012-.062-.028-.11-.016-.049-.04-.08-.023-.034-.057-.05-.034-.018-.083-.018-.044 0-.082.016-.035.016-.063.037-.026.022-.042.044-.014.022-.016.034-.002.016-.018.016-.027 0-.051-.02-.024-.02-.024-.048 0-.016.004-.023.046-.026.111-.056.066-.03.135-.056.071-.025.14-.041.07-.018.126-.018.083 0 .127.024.046.023.067.067.022.044.026.103.006.058.01.125.006.101.016.197.01.093.03.166.02.072.05.117.031.044.077.044.022 0 .047-.008.026-.008.05-.018l.042-.022.025-.015q.018 0 .022.017 0 .01-.004.018-.004.004-.03.02l-.063.038-.083.047-.092.046q-.043.022-.081.036-.038.014-.06.014-.025 0-.045-.022-.018-.02-.032-.054-.014-.035-.024-.081t-.018-.095q-.035.03-.09.07-.056.04-.122.076-.065.036-.135.062-.067.024-.13.024-.054 0-.094-.016-.04-.018-.068-.046-.025-.028-.04-.063-.011-.038-.011-.078 0-.063.038-.103.04-.042.12-.085.038-.02.106-.052.067-.034.137-.067l.13-.064q.062-.032.09-.05z"/>
        <path d="M15.971 98.92l-.051.045q-.03.026-.064.052-.031.024-.065.042-.034.017-.066.017-.027 0-.05-.011l-.041-.028q-.018-.016-.036-.028-.018-.014-.037-.014-.054 0-.092.044-.035.043-.06.11-.021.068-.033.148-.01.08-.01.152 0 .062.004.102.006.037.016.061.01.022.026.03.018.008.042.008.025 0 .055-.008.006-.002.008.008.004.01.004.016 0 .004-.006.01l-.008.004q-.044.018-.09.04l-.075.033q-.027.012-.067.026-.038.014-.066.014-.031 0-.053-.01-.02-.01-.02-.02t.004-.018q.006-.008.01-.03l.008-.069q.006-.042.01-.09.006-.047.008-.097.004-.051.004-.1 0-.112-.008-.19-.006-.077-.024-.124-.018-.048-.05-.068-.03-.022-.077-.022h-.018l-.016.002q-.012 0-.012-.011 0-.012.012-.018l.068-.04q.045-.028.093-.052.05-.025.095-.045.046-.02.068-.02.025 0 .043.018.018.016.026.042.01.025.014.06.004.03.004.063l-.002.05v.055q.09-.131.16-.203.072-.073.136-.073.023 0 .045.02.024.02.05.045.026.024.053.044.028.02.058.02.026 0 .038-.006l.02-.01q.015 0 .015.022v.002zM16.525 99.453l-.012-.073-.012-.075-.012-.062-.006-.034-.071.028q-.04.016-.08.036-.04.018-.075.038-.036.018-.06.033-.045.03-.069.06-.024.03-.024.071 0 .058.034.101.034.044.105.044.038 0 .078-.014.041-.014.075-.031.036-.018.062-.036.025-.018.035-.028l.024-.026q.01-.012.008-.031zm-.057-.307q-.012-.062-.028-.11-.016-.049-.04-.08-.024-.034-.057-.05-.034-.018-.084-.018-.043 0-.081.016-.036.016-.064.037-.025.022-.041.044-.014.022-.016.034-.002.016-.018.016-.028 0-.052-.02-.023-.02-.023-.048 0-.016.004-.023.045-.026.11-.056.066-.03.136-.056.071-.025.14-.041.07-.018.126-.018.083 0 .127.024.045.023.067.067.022.044.026.103.006.058.01.125.006.101.016.197.01.093.03.166.02.072.049.117.032.044.077.044.022 0 .048-.008.026-.008.05-.018l.041-.022.026-.015q.018 0 .022.017 0 .01-.004.018-.004.004-.03.02l-.063.038-.084.047q-.045.024-.091.046-.044.022-.081.036-.038.014-.06.014-.026 0-.046-.022-.017-.02-.031-.054-.014-.035-.024-.081t-.018-.095q-.036.03-.091.07-.056.04-.121.076-.066.036-.135.062-.068.024-.131.024-.054 0-.093-.016-.04-.018-.068-.046-.026-.028-.04-.063-.012-.038-.012-.078 0-.063.038-.103.04-.042.121-.085.038-.02.105-.052l.137-.067q.072-.034.131-.064.062-.032.09-.05z"/>
        <path d="M16.975 99.713q-.016.01-.03.034-.014.022-.017.034-.002.004-.012.006-.008.004-.012.004-.018 0-.018-.018 0-.006.016-.032l.037-.061.052-.088.05-.081q.023-.038.033-.05.01-.01.024-.002.014.006.008.016-.004.004-.006.01t-.002.02q0 .018.03.046.032.025.08.051.047.024.104.042.058.018.113.018.066 0 .104-.038.04-.038.04-.099 0-.07-.044-.103-.044-.034-.11-.052-.063-.018-.14-.028-.076-.012-.141-.033-.064-.022-.107-.064-.044-.042-.044-.12 0-.062.042-.126.043-.063.113-.113.071-.05.162-.081.092-.032.19-.032.03 0 .07.006.04.006.078.016.04.008.071.018.034.008.05.014.004 0-.002.016-.006.017-.03.055-.024.036-.054.072-.027.035-.053.063-.024.028-.034.028h-.012q-.01 0-.014-.004.002-.01.002-.026 0-.07-.063-.11-.062-.039-.18-.039-.058 0-.096.034-.036.034-.036.081 0 .078.044.115.044.038.11.058.065.018.14.028.075.01.14.031.066.02.11.062.044.041.044.125 0 .038-.016.073-.016.036-.042.068-.026.031-.057.06-.032.025-.064.045-.03.02-.067.042-.038.02-.082.037-.043.018-.089.028-.046.012-.091.012-.022 0-.07-.01-.047-.008-.097-.02l-.085-.022q-.038-.012-.04-.016zM18.203 99.418q0 .041.002.081.002.038.014.066.012.027.036.045.023.016.067.016.022 0 .05-.004.028-.006.051-.014.026-.008.044-.016.02-.008.024-.012.006-.006.008 0t0 .016q0 .008-.004.018-.004.008-.01.012l-.07.036q-.05.026-.117.053-.063.028-.125.048-.06.018-.099.018-.046 0-.071-.028-.026-.028-.026-.07v-.023l.004-.026.006-.071q.006-.054.01-.12l.01-.13q.004-.068.004-.116v-.069q0-.052-.006-.091-.006-.04-.02-.062-.01-.014-.026-.022-.014-.01-.036-.01-.012 0-.024.006-.011.004-.017.004-.004 0-.014-.012-.008-.011.002-.017.014-.01.057-.032l.095-.048q.056-.028.108-.047.051-.022.073-.022t.03.014q.008.012.008.028v.008q0 .02-.006.063l-.014.107-.012.147q-.006.083-.006.18v.096zm-.08-1.032q.01.002.032.022.024.02.048.045.024.026.042.05.018.024.018.032 0 .01-.024.03-.024.02-.056.041-.03.02-.06.036-.027.016-.039.016-.006 0-.03-.018-.022-.02-.045-.044l-.044-.045q-.018-.024-.018-.032 0-.01.026-.03l.055-.044q.032-.024.06-.04l.036-.02zM19.37 99.487q.005-.004.007.002.004.004.004.014.002.008 0 .018-.002.01-.008.016-.04.038-.1.08-.059.041-.122.077l-.05.025q-.032.016-.071.032-.038.014-.08.024-.04.012-.075.012-.072 0-.135-.028-.064-.028-.111-.075-.048-.05-.076-.117-.026-.068-.026-.147 0-.086.024-.161.024-.075.054-.135.032-.06.06-.1.027-.04.037-.06-.038-.003-.07-.003l-.057-.002q-.063 0-.107.002-.044 0-.077.008-.016.004-.03.016-.014.012-.024.018l-.01-.01q-.008-.008-.008-.016 0-.004.002-.006 0-.002.026-.022l.063-.05.086-.063.09-.065.073-.05q.031-.022.041-.026.012-.004.024.004t.008.012l-.018.016q-.012.01-.008.018.022.018.076.032.053.014.12.024.068.008.14.014.07.004.128.004.086 0 .137-.004.052-.006.086-.014.031-.008.041-.012.002 0 .008.006t.006.014q0 .004-.03.02l-.057.033-.044.026q-.023.016-.053.032-.028.014-.06.025-.032.012-.061.014-.03.004-.07.006l-.083.004-.09.002h-.08l-.02.034q-.012.022-.024.058-.012.035-.022.081-.01.046-.01.1 0 .08.024.15.025.067.07.117.045.05.106.077.062.028.133.028.042 0 .08-.01.04-.01.073-.026.036-.015.066-.033.03-.02.051-.038l.024-.022z"/>
        <path d="M20.285 99.53q-.022.025-.067.066-.046.042-.112.084-.063.041-.142.071-.08.03-.17.03-.08 0-.158-.024-.077-.026-.139-.075-.061-.052-.099-.13-.036-.079-.036-.188 0-.09.012-.153.012-.065.032-.113.02-.05.044-.083.025-.036.051-.064.032-.035.078-.067.045-.032.097-.058.053-.025.111-.04.06-.015.119-.015.107 0 .167.036.061.035.061.099 0 .04-.024.073.02-.006.05-.02l.064-.028.055-.027q.026-.012.034-.018.004-.004.008-.002.006 0 .006.006 0 .026-.01.043-.01.016-.024.026-.032.02-.091.05-.06.03-.133.063l-.149.066-.147.061-.119.054q-.05.022-.067.032 0 .067.025.127.028.057.076.1.047.045.113.07.067.024.147.024.071 0 .129-.014.057-.016.097-.033.04-.02.061-.034.024-.016.026-.016.008 0 .016.008.008.006.008.014zm-.698-.303l.075-.028q.044-.017.083-.037l.076-.038q.033-.018.051-.032.036-.025.036-.087 0-.024-.01-.05-.008-.025-.026-.045-.018-.022-.043-.034-.026-.014-.058-.014-.028 0-.06.02-.031.018-.059.062-.028.041-.048.113-.017.07-.017.17z"/>
        <path d="M20.297 99.713q-.016.01-.03.034-.014.022-.018.034-.002.004-.012.006-.008.004-.012.004-.018 0-.018-.018 0-.006.016-.032l.038-.061.052-.088.05-.081q.023-.038.033-.05.01-.01.024-.002.014.006.008.016-.004.004-.006.01t-.002.02q0 .018.03.046.031.025.079.051.047.024.105.042.057.018.113.018.065 0 .103-.038.04-.038.04-.099 0-.07-.044-.103-.043-.034-.109-.052-.063-.018-.14-.028-.076-.012-.142-.033-.063-.022-.107-.064t-.044-.12q0-.062.042-.126.044-.063.113-.113.072-.05.163-.081.091-.032.19-.032.03 0 .07.006.04.006.077.016.04.008.072.018.033.008.05.014.003 0-.003.016-.006.017-.03.055-.023.036-.053.072-.028.035-.054.063-.023.028-.033.028h-.012q-.01 0-.014-.004.002-.01.002-.026 0-.07-.064-.11-.061-.039-.18-.039-.058 0-.095.034-.036.034-.036.081 0 .078.044.115.043.038.109.058.065.018.14.028.076.01.141.031.066.02.11.062.043.041.043.125 0 .038-.016.073-.016.036-.041.068-.026.031-.058.06-.032.025-.063.045-.03.02-.068.042-.038.02-.081.037-.044.018-.09.028-.045.012-.09.012-.023 0-.07-.01-.048-.008-.097-.02l-.086-.022q-.037-.012-.04-.016z"/>
    </g>
    <g stroke-width=".154" stroke="#fff">
        <path d="M14.983 294.241c.21-1.012 1.87-3.909 3.617-3.862.376.123.385 2.708.43 3.78l-1.43.338z" fill-rule="evenodd" transform="matrix(.89624 0 0 1.17437 -.467 -247.696)"/>
        <path d="M18.59 290.43c-.45 1.151-1.001 2.803-1.001 4.036M18.376 290.4c-1.124 1.66-1.841 2.74-1.788 3.964M17.824 290.522c-1.317 1.671-1.953 2.566-2.085 3.76" fill="none" transform="matrix(.89624 0 0 1.17437 -.467 -247.696)"/>
    </g>
</svg>
