<svg xmlns="http://www.w3.org/2000/svg" width="21" height="14" viewBox="0 0 5.556 3.704">
    <path d="M.46 3.704a.39.39 0 0 1-.387-.39V.39A.39.39 0 0 1 .46 0h4.637a.39.39 0 0 1 .386.39v2.924a.39.39 0 0 1-.386.39z" fill="#848789"/>
    <path d="M.422 3.124c0 .129.105.234.232.234h4.287a.234.234 0 0 0 .232-.234V.58a.234.234 0 0 0-.232-.233H.654A.233.233 0 0 0 .422.58z" fill="#282828" stroke-width="1.282"/>
    <path d="M2.855 3.358V.346h2.318v3.012z" fill="#aaa"/>
    <path d="M3.887 3.358V.346h.255v3.012zM4.918 3.358V.346h.255v3.012zM4.403 3.358V.346h.255v3.012zM3.37 3.358V.346h.256v3.012zM2.855 3.358V.346h.255v3.012z" fill="#444"/>
</svg>
