<svg xmlns="http://www.w3.org/2000/svg" width="21" height="14" viewBox="0 0 5.556 3.704">
    <path d="M5.096 3.704a.39.39 0 0 0 .387-.39V.39A.39.39 0 0 0 5.096 0H.46a.39.39 0 0 0-.386.39v2.924c0 .214.174.39.386.39z" fill="#848789"/>
    <path d="M5.134 3.124a.233.233 0 0 1-.232.234H.615a.234.234 0 0 1-.232-.234V.58c0-.128.104-.233.232-.233h4.287c.128 0 .232.105.232.233z" fill="#282828" stroke-width="1.282"/>
    <path d="M2.701 3.358V.346H.383v3.012z" fill="#aaa"/>
    <path d="M1.67 3.358V.346h-.255v3.012zM.638 3.358V.346H.383v3.012zM1.154 3.358V.346H.898v3.012zM2.186 3.358V.346H1.93v3.012zM2.701 3.358V.346h-.255v3.012z" fill="#444"/>
</svg>
