<svg xmlns="http://www.w3.org/2000/svg" viewBox="0 0 4.763 4.763" height="18" width="18">
    <g transform="translate(-73.816 -83.785)">
        <ellipse cx="76.203" cy="86.161" rx="2.258" ry="2.26" stroke="#515151" stroke-width=".251"/>
        <path d="M0 0a2.643 2.643 0 0 1-1.196 0v-18.157H0z" fill-rule="evenodd" transform="matrix(.16157 0 0 -.1052 76.294 83.814)" fill="#fff" stroke="#fff" stroke-width=".987"/>
        <g fill="#383838" stroke-width=".219">
            <path d="M78.616 85.88l-.028.543-.47-.023.028-.543zM78.427 87.107l-.282.464-.402-.244.282-.465zM77.65 88.07l-.465.282-.244-.402.465-.282zM76.504 88.519l-.543.027-.024-.47.543-.027zM75.29 88.364l-.464-.282.244-.402.465.282zM74.324 87.591l-.283-.465.402-.244.283.465zM73.87 86.447l-.028-.543.47-.024.027.543zM74.017 85.232l.282-.464.402.244-.282.464zM74.786 84.261l.465-.282.244.402-.465.282zM77.145 83.942l.465.283-.244.401-.465-.282zM78.12 84.708l.283.464-.402.244-.283-.464z"/>
        </g>
        <ellipse cx="76.197" cy="86.166" rx=".203" ry=".055" fill="none"/>
        <ellipse cx="76.197" cy="86.166" rx="6.707" ry="6.117" fill="none"/>
    </g>
</svg>
