<svg xmlns="http://www.w3.org/2000/svg" xmlns:xlink="http://www.w3.org/1999/xlink" width="120" height="380" viewBox="0 0 31.75 100.542">
    <defs>
        <linearGradient id="b">
            <stop offset="0" stop-color="#fff"/>
            <stop offset="1" stop-opacity="0"/>
        </linearGradient>
        <linearGradient id="a">
            <stop offset="0" stop-color="#fdfdfd"/>
            <stop offset="1" stop-color="#fdfdfd"/>
        </linearGradient>
        <radialGradient gradientUnits="userSpaceOnUse" gradientTransform="matrix(.4218 0 0 .02673 -105.982 272.192)" r="69.827" fy="856.052" fx="285.494" cy="856.052" cx="285.494" id="d" xlink:href="#a"/>
        <linearGradient gradientUnits="userSpaceOnUse" y2="832.532" x2="279.915" y1="830.884" x1="268.967" id="h" xlink:href="#b" gradientTransform="matrix(.26458 0 0 .26458 -59.861 72.341)"/>
        <clipPath clipPathUnits="userSpaceOnUse" id="j">
            <rect width="120" height="37.776" x="173.658" y="40.181" rx="0" ry="0" fill="#220eff"/>
        </clipPath>
        <clipPath clipPathUnits="userSpaceOnUse" id="i">
            <rect width="31.75" height="9.995" y="289.067" rx="0" ry="0" fill="#220eff"/>
        </clipPath>
        <clipPath clipPathUnits="userSpaceOnUse" id="g">
            <rect width="31.75" height="9.995" y="289.067" rx="0" ry="0" fill="#220eff"/>
        </clipPath>
        <clipPath clipPathUnits="userSpaceOnUse" id="f">
            <rect width="133.152" height="41.916" x="216.698" y="-20.575" rx="0" ry="0" fill="#220eff"/>
        </clipPath>
        <clipPath clipPathUnits="userSpaceOnUse" id="e">
            <rect width="31.75" height="9.995" y="289.067" rx="0" ry="0" fill="#220eff"/>
        </clipPath>
        <clipPath clipPathUnits="userSpaceOnUse" id="c">
            <rect width="31.75" height="9.995" y="289.067" rx="0" ry="0" fill="#220eff"/>
        </clipPath>
    </defs>
    <g transform="translate(0 -196.458)">
        <path d="M0 196.458h31.75V297H0z" fill-rule="evenodd"/>
        <path d="M31.483 294.933l-17.042-.125-14.418.125-.878-3.47c4.81-1.004 10.75-1.724 16.17-1.72 5.716.006 9.887.467 17.047 1.845z" clip-path="url(#c)" fill="url(#d)" stroke="#8b8b8b" stroke-width=".397"/>
        <flowRoot transform="matrix(.26458 0 0 .26458 -58.46 115.922)" style="line-height:125%" xml:space="preserve" font-style="normal" font-weight="400" font-size="10" font-family="sans-serif" letter-spacing="0" word-spacing="0" fill="#000" fill-opacity="1" stroke="none" stroke-width="1" stroke-linecap="butt" stroke-linejoin="miter" stroke-opacity="1">
            <flowRegion>
                <path d="M323.249 35.538h7.829v72.478h-7.829z"/>
            </flowRegion>
            <flowPara/>
        </flowRoot>
        <path d="M0 291.993c10.904-1.21 21.546-.99 31.75.123l-.033 3.296H0z" clip-path="url(#e)"/>
        <g transform="matrix(.23845 0 0 .23845 -51.671 293.973)" clip-path="url(#f)">
            <path d="M291.232-10.527l6.43-3.034 5.953-.742 4.222.511 5.886 2.16 4.683 4.37z" fill-rule="evenodd"/>
            <g stroke="#fff">
                <g color="#000" fill="none" stroke-linejoin="bevel">
                    <path d="M2.117 188.81l18.113 36.226 65.551 31.913 90.564 13.8 94.877-11.213 60.376-31.913 14.663-30.188-14.663-37.951.324 67.923-33.1-64.473-25.875 96.602-58.651-80.214-40.538 91.427-40.538-75.902-46.576 61.239-17.098-92.852-49.316 62.663 6.037-89.702 44.241 27.296 63.574 32.218 80-16.819 86.466-15.957 31.051-3.666-33.279-62.05 1.366 64.853-64.689-74.392-20.7 91.427-69.001-66.198-75.902 50.026L84.751 80.38l-59.346 55.816 24.151-56.064h34.501l81.077-37.088-18.975 69.864 89.702-24.15 62.101 7.762-66.314-54.334 4.212 46.571-70.726-45.713 66.414-1.725-53.476-15.525-12.938 16.388-49.164-6.9-66.414 44.85-33.333 49.417 9.183 6.647L2.118 188.81z" stroke-width="2.892" transform="matrix(.09825 0 0 .0698 286.195 -16.043)"/>
                    <path d="M133.17 195.51l12.99-80.876-61.407-35.517 32.081-44.697 28.463-4.313 32.776-5.175 41.401 6.9 12.938 10.35 47.438 20.7 18.975 34.501 30.188 30.188 2.803 31.913" stroke-width="2.892" transform="matrix(.09825 0 0 .0698 286.195 -16.043)"/>
                    <path d="M329.01 126.71l-49.16-63.83-59.77-31.05M1.926 188.186L16.11 129.84" stroke-width="2" transform="matrix(.09825 0 0 .0698 286.195 -16.043)"/>
                </g>
            </g>
            <path d="M320.187-2.25l-1.666-4.93" fill="none" stroke="#fff" stroke-width=".2"/>
        </g>
        <path d="M2.826 292.087l3.149-1.34 1.329.417 1.108-.783 2.215.291.933-.35 3.024.98-1.042.478-9.503.292z" clip-path="url(#i)" fill-rule="evenodd"/>
        <g style="line-height:125%" transform="matrix(.26458 0 0 .26458 -45.947 278.436)" clip-path="url(#j)" font-weight="400" font-size="7.5" font-family="Geneva" letter-spacing="0" word-spacing="0" fill="#fff">
            <path style="-inkscape-font-specification:Geneva" d="M186.153 66.995h.681v.015q0 .263.201.44.202.171.682.171.42 0 .68-.205.264-.205.264-.483 0-.377-.512-.535l-.348-.106-.23-.073-.473-.147q-.81-.296-.81-.985 0-.483.392-.85.392-.366 1.165-.366.761 0 1.084.315.322.311.322.692v.015h-.685v-.015q0-.205-.209-.322-.205-.117-.549-.117-.41 0-.63.172-.216.168-.216.417 0 .19.14.312.142.117.475.212l.33.092.238.07q.498.142.619.2.124.06.249.15.172.133.253.32.084.186.084.435 0 .579-.418.974-.413.396-1.212.396-.505 0-.838-.15-.334-.15-.531-.414-.198-.267-.198-.615v-.015zM199.465 68.189q-.802 0-1.37-.542-.564-.546-.564-1.619 0-1.07.564-1.611.568-.546 1.37-.546.798 0 1.362.546.568.542.568 1.611 0 1.073-.568 1.619-.564.542-1.362.542zm0-.568q.549 0 .882-.436.337-.439.337-1.157 0-.714-.337-1.15-.333-.44-.882-.44-.553 0-.89.44-.334.436-.334 1.15 0 .718.334 1.157.337.436.89.436zM212.4 63.985h.68v4.09h-.68v-.714q-.213.33-.418.495-.205.164-.421.249-.217.084-.473.084-.567 0-.963-.319-.396-.322-.396-1.292v-2.593h.682v2.307q0 .897.238 1.084.238.187.59.187.303 0 .57-.176.272-.18.429-.498.161-.322.161-.894v-2.01zM224.18 67.497v.571q-.498.12-.762.12-.38 0-.688-.153-.304-.154-.465-.447-.158-.293-.158-.934v-2.102h-.71v-.567h.71v-.967h.682v.967h1.193v.567h-1.193v1.908q0 .542.084.755.084.208.263.307.184.1.436.1.202 0 .608-.125zM233.2 68.075h-.681v-5.91h.68v2.527q.217-.334.418-.495.206-.161.425-.242.224-.084.495-.084.384 0 .688.158.308.157.476.465.169.304.169.978v2.603h-.682v-2.31q0-.55-.073-.777-.073-.23-.278-.359-.205-.132-.469-.132-.3 0-.571.176-.271.176-.436.49-.161.316-.161.902v2.01zM245.04 69.665h-.682v-5.68h.682v.71q.212-.362.402-.513.194-.15.436-.23.242-.08.498-.08.469 0 .857.256.388.252.6.758.217.505.217 1.135 0 .934-.45 1.553-.447.615-1.257.615-.26 0-.494-.077-.23-.073-.41-.22-.18-.15-.4-.53v2.303zm0-3.633q0 .696.3 1.142.3.447.846.447.498 0 .827-.395.33-.396.33-1.183 0-.92-.348-1.275-.348-.358-.795-.358-.322 0-.604.197-.278.194-.417.583-.14.384-.14.842zM258.176 68.189q-.802 0-1.37-.542-.564-.546-.564-1.619 0-1.07.564-1.611.568-.546 1.37-.546.798 0 1.362.546.567.542.567 1.611 0 1.073-.567 1.619-.564.542-1.362.542zm0-.568q.549 0 .882-.436.337-.439.337-1.157 0-.714-.337-1.15-.333-.44-.882-.44-.553 0-.89.44-.334.436-.334 1.15 0 .718.334 1.157.337.436.89.436zM269.177 68.075h-.682v-5.91h.682v5.91zM280.456 67.024h.681v.037q0 .27-.216.553-.216.282-.571.428-.356.147-.817.147-.934 0-1.443-.604-.505-.605-.505-1.528 0-.944.534-1.563.539-.623 1.385-.623.465 0 .842.202.377.201.597.63.22.424.22 1.186v.227h-2.904q0 .656.351 1.08.355.425.982.425.45 0 .655-.172.209-.176.209-.388v-.037zm-2.154-1.42h2.209v-.081q0-.286-.14-.553-.135-.271-.377-.4-.241-.131-.564-.131-.38 0-.703.307-.322.304-.425.857z"/>
        </g>
        <g style="line-height:125%" font-weight="400" font-size="4.63" font-family="sans-serif" letter-spacing="0" word-spacing="0" fill="#fff">
            <path d="M3.813 197.77v.445q-.26-.124-.49-.185-.23-.061-.446-.061-.373 0-.576.145-.201.144-.201.411 0 .224.133.34.136.112.511.182l.276.057q.51.097.753.343.244.245.244.656 0 .49-.33.744-.328.253-.963.253-.24 0-.511-.054-.27-.055-.559-.16v-.471q.278.156.545.235.267.08.525.08.39 0 .603-.154.213-.154.213-.44 0-.248-.154-.388-.151-.14-.5-.21l-.278-.055q-.51-.101-.739-.318-.228-.217-.228-.604 0-.448.314-.705.317-.258.87-.258.238 0 .484.043.247.043.504.129zM5.122 200.655v1.343h-.418v-3.496h.418v.385q.132-.226.33-.335.202-.11.48-.11.461 0 .748.366.29.366.29.963t-.29.963q-.287.366-.748.366-.278 0-.48-.108-.198-.111-.33-.337zm1.416-.884q0-.46-.19-.72-.188-.262-.518-.262t-.52.263q-.188.26-.188.719 0 .459.188.72.19.26.52.26t.518-.26q.19-.261.19-.72zM7.66 197.517h.415v3.518H7.66v-3.518zM10.094 199.762q-.504 0-.699.115-.194.115-.194.393 0 .222.145.353.147.129.398.129.346 0 .554-.244.21-.247.21-.654v-.092h-.414zm.83-.172v1.445h-.416v-.385q-.143.23-.355.342-.213.108-.52.108-.389 0-.62-.217-.228-.22-.228-.586 0-.427.285-.644.287-.217.855-.217h.583v-.04q0-.288-.19-.444-.188-.158-.53-.158-.216 0-.422.052t-.396.156v-.384q.229-.089.444-.131.214-.046.418-.046.55 0 .82.285.272.285.272.864zM13.406 198.577v.393q-.176-.09-.366-.135-.19-.045-.393-.045-.31 0-.466.094-.154.095-.154.285 0 .145.11.229.112.081.446.156l.143.031q.443.095.628.27.188.171.188.48 0 .354-.28.56-.279.205-.767.205-.203 0-.425-.04-.22-.04-.463-.118v-.43q.23.12.454.181.224.059.443.059.294 0 .452-.1.159-.101.159-.285 0-.17-.116-.26-.113-.09-.5-.174l-.144-.034q-.387-.08-.558-.248-.172-.17-.172-.464 0-.357.253-.551.253-.195.719-.195.23 0 .434.034.203.034.375.102zM16.311 199.506v1.529h-.416v-1.515q0-.36-.14-.538-.14-.179-.42-.179-.337 0-.532.215-.194.215-.194.585v1.432h-.418v-3.518h.418v1.379q.15-.229.35-.342.204-.113.468-.113.437 0 .66.272.224.269.224.793z"/>
        </g>
        <rect width="29.701" height="11.614" x=".904" y="276.955" rx="1.713" ry="1.66" fill="#5b5b5b"/>
        <g font-size="2.646" fill="#fff" stroke-width="1.533" stroke-miterlimit="10">
            <path d="M2.402 285.767h.261v.79h.949v-.79h.26v1.928h-.26v-.918h-.949v.919h-.26v-1.93zM4.392 285.767h.261v1.928h-.261v-1.928zM6.487 287.42v-.518h-.426v-.214h.685v.828q-.151.107-.333.163-.183.054-.39.054-.451 0-.707-.264-.255-.264-.255-.736 0-.473.255-.736.256-.265.708-.265.188 0 .358.046.17.047.313.137v.278q-.144-.123-.307-.185t-.342-.062q-.354 0-.533.198-.177.198-.177.59 0 .39.177.587.179.198.533.198.138 0 .246-.024.109-.024.195-.075zM7.224 285.767h.26v.79h.95v-.79h.26v1.928h-.26v-.918h-.95v.919h-.26v-1.93z"/>
        </g>
        <g font-size="2.646" fill="#fff" stroke-width="1.533" stroke-miterlimit="10">
            <path d="M10.357 285.767h.26v1.709h.94v.22h-1.2v-1.93zM12.52 285.944q-.285 0-.453.212-.166.211-.166.577 0 .364.166.576.168.212.453.212.284 0 .45-.212.166-.212.166-.576 0-.366-.167-.577-.165-.212-.45-.212zm0-.212q.405 0 .648.272t.243.729q0 .456-.243.729-.243.271-.648.271-.407 0-.651-.271-.243-.272-.243-.729 0-.457.243-.729.244-.272.65-.272zM13.647 285.767h.264l.406 1.63.404-1.63h.293l.406 1.63.404-1.63h.265l-.484 1.928h-.328l-.407-1.674-.411 1.674h-.328l-.484-1.928z"/>
        </g>
        <g font-size="2.646" fill="#fff" stroke-width="1.533" stroke-miterlimit="10">
            <path d="M18.853 285.767h.262v1.171q0 .31.113.447.112.136.364.136.25 0 .363-.136.112-.137.112-.447v-1.171h.263v1.204q0 .377-.188.57-.186.192-.55.192-.366 0-.553-.193-.186-.192-.186-.57v-1.203zM20.82 285.767h.352l.855 1.613v-1.613h.253v1.928h-.351l-.855-1.613v1.613h-.253v-1.928zM22.8 285.767h.26v1.928h-.26v-1.928z"/>
        </g>
        <g font-size="2.646" fill="#fff" stroke-width="1.533" stroke-miterlimit="10">
            <path d="M26.855 286.812v.706h.418q.21 0 .312-.086.102-.088.102-.267 0-.181-.102-.267-.101-.086-.312-.086h-.418zm0-.793v.58h.386q.191 0 .284-.07.094-.072.094-.22 0-.146-.094-.218-.093-.072-.284-.072h-.386zm-.261-.215h.666q.299 0 .46.124.162.124.162.353 0 .177-.083.281-.083.105-.243.13.193.042.299.174.107.13.107.327 0 .258-.176.4-.176.14-.5.14h-.692v-1.929zM28.407 285.804h.261v1.929h-.26v-1.929z"/>
        </g>
        <g font-size="2.646" fill="#fff" stroke-width="1.533" stroke-miterlimit="10">
            <path d="M1.058 215.128H2.69v.22h-.685v1.709h-.262v-1.71h-.685v-.22zM3.863 216.152q.084.029.163.122.08.093.16.256l.265.527h-.28l-.247-.495q-.096-.194-.186-.257t-.244-.063h-.285v.815h-.26v-1.93h.589q.33 0 .493.14.163.137.163.416 0 .183-.085.303-.084.12-.246.166zm-.654-.81v.685h.329q.188 0 .284-.086.097-.088.097-.258 0-.169-.097-.254-.096-.087-.284-.087h-.329zM4.788 215.128h.261v1.929h-.26v-1.93zM6.884 216.782v-.518h-.427v-.215h.685v.828q-.151.107-.333.163-.183.054-.39.054-.451 0-.707-.263-.255-.265-.255-.737 0-.473.255-.736.256-.265.708-.265.188 0 .358.047.17.046.314.137v.277q-.145-.122-.308-.184t-.342-.062q-.354 0-.533.197-.177.198-.177.59 0 .39.177.587.179.198.533.198.138 0 .246-.023.109-.025.196-.075z"/>
        </g>
        <g font-size="2.646" fill="#fff" stroke-width="1.533" stroke-miterlimit="10">
            <path d="M9.303 215.165h1.109v.22h-.848v.568h.765v.22h-.765v.921h-.26v-1.929zM11.737 216.19q.084.028.163.121.08.093.16.256l.265.527h-.28l-.247-.495q-.096-.193-.186-.257-.09-.063-.244-.063h-.284v.815h-.261v-1.929h.589q.33 0 .493.139.163.138.163.417 0 .182-.085.302-.084.12-.246.167zm-.653-.81v.685h.328q.188 0 .284-.087.097-.088.097-.257 0-.17-.097-.255-.096-.086-.284-.086h-.328zM12.662 215.165h1.22v.22h-.959v.571h.919v.22h-.919v.699h.982v.22h-1.243v-1.93zM14.332 215.165h1.22v.22h-.96v.571h.919v.22h-.919v.699h.982v.22h-1.242v-1.93zM15.89 215.165h1.515v.2l-1.22 1.51h1.25v.22H15.86v-.2l1.22-1.51h-1.19v-.22zM17.815 215.165h1.22v.22h-.96v.571h.919v.22h-.919v.699h.982v.22h-1.242v-1.93z"/>
        </g>
        <g font-size="2.646" fill="#fff" stroke-width="1.533" stroke-miterlimit="10">
            <path d="M3.008 273.763v.275q-.131-.123-.281-.183-.149-.061-.317-.061-.33 0-.506.203-.176.201-.176.584 0 .38.176.584.175.201.506.201.168 0 .317-.06.15-.061.281-.184v.273q-.137.093-.29.14-.153.046-.323.046-.438 0-.69-.268-.252-.268-.252-.732 0-.465.252-.733.252-.268.69-.268.173 0 .325.046.154.045.288.137zM3.414 273.614h.261v1.71h.94v.22H3.413v-1.93zM5.577 273.791q-.285 0-.452.212-.167.212-.167.578 0 .364.167.576.167.212.452.212.284 0 .45-.212.166-.212.166-.576 0-.366-.167-.578-.165-.212-.45-.212zm0-.212q.405 0 .648.273.243.271.243.729 0 .456-.243.728-.243.272-.648.272-.407 0-.651-.272-.243-.27-.243-.728 0-.458.243-.729.244-.273.65-.273zM8.32 273.763v.275q-.131-.123-.28-.183-.15-.061-.317-.061-.331 0-.507.203-.176.201-.176.584 0 .38.176.584.176.201.507.201.167 0 .316-.06.15-.061.282-.184v.273q-.137.093-.291.14-.152.046-.323.046-.438 0-.69-.268-.252-.268-.252-.732 0-.465.252-.733.252-.268.69-.268.173 0 .326.046.153.045.288.137zM8.726 273.614h.261v.816l.866-.816h.336l-.958.9 1.026 1.03h-.343l-.927-.93v.93h-.26v-1.93z"/>
        </g>
        <g font-size="2.646" fill="#fff" stroke-width="1.533" stroke-miterlimit="10">
            <path d="M22.428 273.652h.261v1.709h.94v.22h-1.2v-1.93zM23.9 273.652h1.22v.22h-.958v.57h.918v.22h-.918v.699h.982v.22H23.9v-1.93zM26.067 275.58l-.736-1.928h.273l.61 1.624.613-1.624h.271l-.735 1.929h-.296zM27.379 273.652h1.22v.22h-.96v.57h.92v.22h-.92v.699h.983v.22h-1.243v-1.93zM29.048 273.652h.26v1.709h.94v.22h-1.2v-1.93z"/>
        </g>
        <g font-size="2.646" fill="#fff" stroke-width="1.533" stroke-miterlimit="10">
            <path d="M2.12 232.757l-.736-1.929h.273l.61 1.624.613-1.624h.272l-.735 1.929H2.12zM3.844 230.828h.22l-.672 2.174h-.22l.672-2.174zM5.109 231.005q-.284 0-.452.212-.167.212-.167.577t.167.576q.168.212.452.212.284 0 .45-.212.166-.211.166-.576t-.167-.577q-.165-.212-.45-.212zm0-.212q.406 0 .648.273.243.271.243.728 0 .456-.243.729-.242.271-.648.271-.407 0-.651-.271-.243-.271-.243-.729 0-.457.243-.728.244-.273.65-.273zM7.853 230.977v.275q-.132-.123-.282-.184-.148-.06-.316-.06-.331 0-.507.202-.175.202-.175.584 0 .381.175.584.176.202.507.202.168 0 .316-.06.15-.062.282-.184v.272q-.137.093-.29.14-.153.046-.324.046-.438 0-.69-.267-.252-.269-.252-.733 0-.465.252-.732.252-.269.69-.269.173 0 .326.047.154.045.288.137zM7.991 230.828h1.632v.22h-.685v1.709h-.262v-1.71H7.99v-.219z"/>
        </g>
        <g font-size="2.646" fill="#fff" stroke-width="1.533" stroke-miterlimit="10">
            <path d="M12.013 230.697h1.108v.22h-.847v.568h.765v.22h-.765v.921h-.261v-1.929zM14.447 231.722q.084.028.163.121.08.093.16.256l.265.527h-.28l-.248-.495q-.095-.193-.186-.257-.089-.063-.244-.063h-.284v.815h-.26v-1.929h.588q.33 0 .494.139.163.138.163.417 0 .182-.086.302-.084.12-.245.167zm-.654-.81v.684h.328q.189 0 .284-.086.097-.088.097-.257 0-.17-.097-.255-.095-.086-.284-.086h-.328zM15.372 230.697h1.22v.22h-.96v.57h.92v.22h-.92v.7h.983v.22h-1.243v-1.93zM17.824 230.91q-.284 0-.452.211-.167.212-.167.578 0 .364.167.576.168.212.452.212.284 0 .45-.212.166-.212.166-.576 0-.366-.167-.578-.165-.212-.45-.212zm.365 1.716l.344.376h-.315l-.286-.309-.066.004-.042.001q-.407 0-.651-.27-.243-.273-.243-.73 0-.457.243-.728.244-.273.65-.273t.65.273q.242.271.242.729 0 .335-.135.574-.135.24-.39.353z"/>
        </g>
        <g font-size="2.646" fill="#fff" stroke-width="1.533" stroke-miterlimit="10">
            <path d="M11.734 245.223v.255q-.149-.072-.28-.106-.132-.035-.255-.035-.213 0-.33.082-.114.083-.114.236 0 .127.076.193.078.065.292.105l.158.032q.292.056.43.197.14.14.14.374 0 .28-.19.425-.187.145-.55.145-.137 0-.292-.031-.153-.031-.319-.092v-.268q.16.089.312.134.152.045.3.045.223 0 .344-.088.122-.088.122-.25 0-.142-.088-.223-.087-.08-.286-.12l-.159-.03q-.292-.059-.422-.183t-.13-.345q0-.256.18-.403.18-.147.496-.147.136 0 .277.024.14.025.288.074zM12.262 245.16h.261v.79h.949v-.79h.26v1.929h-.26v-.919h-.949v.919h-.26v-1.93zM14.897 245.417l-.354.96h.709l-.355-.96zm-.148-.257h.296l.735 1.929h-.271l-.176-.495h-.87l-.175.495h-.275l.736-1.93zM16.322 245.374v.725h.328q.182 0 .281-.094.1-.095.1-.27 0-.172-.1-.267-.1-.094-.281-.094h-.328zm-.261-.214h.589q.324 0 .49.147.166.146.166.429 0 .285-.167.431-.165.146-.49.146h-.327v.776h-.261v-1.93zM17.657 245.16h1.22v.22h-.959v.57h.919v.22h-.919v.699h.982v.22h-1.243v-1.93z"/>
        </g>
        <g font-size="2.646" fill="#fff" stroke-width="1.533" stroke-miterlimit="10">
            <path d="M11.902 252.354v.255q-.149-.071-.28-.106-.132-.035-.255-.035-.213 0-.33.083-.114.082-.114.235 0 .128.076.194.077.064.292.104l.158.032q.292.056.43.197.14.14.14.374 0 .28-.19.426-.187.144-.55.144-.137 0-.292-.03-.153-.032-.319-.092v-.27q.16.09.312.135.152.045.3.045.223 0 .344-.087.122-.088.122-.251 0-.142-.088-.222-.087-.08-.286-.12l-.159-.031q-.292-.059-.422-.183t-.13-.345q0-.255.179-.403.18-.147.497-.147.136 0 .277.025.14.024.288.073zM12.43 252.29h.261V254h.94v.22h-1.2v-1.93zM14.593 252.468q-.284 0-.452.212-.167.212-.167.577t.167.576q.168.212.452.212.284 0 .45-.212.166-.211.166-.576t-.166-.577q-.166-.212-.45-.212zm0-.212q.406 0 .649.273.242.27.242.728 0 .456-.242.729-.243.271-.649.271-.407 0-.651-.271-.243-.271-.243-.729 0-.457.243-.728.244-.273.651-.273zM16.154 252.505v.725h.328q.182 0 .281-.094.1-.094.1-.269 0-.173-.1-.267-.099-.095-.281-.095h-.328zm-.261-.214h.589q.324 0 .49.147.166.146.166.43 0 .285-.167.43-.165.147-.49.147h-.327v.775h-.261v-1.93zM17.49 252.29h1.22v.22h-.96v.572h.919v.22h-.919V254h.982v.22H17.49v-1.93z"/>
        </g>
        <g font-size="2.646" fill="#fff" stroke-width="1.533" stroke-miterlimit="10">
            <path d="M10.285 260.787v.255q-.149-.071-.28-.106-.133-.035-.255-.035-.213 0-.33.083-.115.082-.115.235 0 .128.076.194.078.064.292.104l.158.033q.292.055.43.196.14.14.14.375 0 .28-.189.425-.187.144-.55.144-.137 0-.292-.03-.154-.032-.32-.092v-.269q.16.09.312.134.153.046.3.046.223 0 .345-.088.121-.088.121-.251 0-.142-.088-.222-.086-.08-.285-.12l-.16-.031q-.291-.058-.422-.183-.13-.124-.13-.344 0-.256.18-.404.18-.147.497-.147.136 0 .276.025.141.024.289.073zM10.813 260.724h.389l.492 1.313.495-1.313h.389v1.929h-.255v-1.694l-.497 1.323h-.262l-.498-1.323v1.694h-.253v-1.929zM13.875 260.901q-.284 0-.452.212-.167.212-.167.577t.167.577q.168.212.452.212.284 0 .45-.212.166-.212.166-.577t-.167-.577q-.165-.212-.45-.212zm0-.212q.405 0 .648.273.243.271.243.728 0 .456-.243.73-.243.27-.648.27-.407 0-.651-.27-.243-.272-.243-.73 0-.457.243-.728.244-.273.65-.273zM15.957 260.901q-.284 0-.452.212-.167.212-.167.577t.167.577q.168.212.452.212.285 0 .45-.212.167-.212.167-.577t-.167-.577q-.165-.212-.45-.212zm0-.212q.406 0 .649.273.243.271.243.728 0 .456-.243.73-.243.27-.649.27-.407 0-.65-.27-.244-.272-.244-.73 0-.457.243-.728.244-.273.651-.273zM16.99 260.724h1.631v.22h-.684v1.709h-.263v-1.71h-.684v-.219zM18.88 260.724h.26v.79h.949v-.79h.26v1.929h-.26v-.919h-.948v.919h-.261v-1.929z"/>
        </g>
        <g font-size="2.646" fill="#fff" stroke-width="1.533" stroke-miterlimit="10">
            <path d="M21.922 238.033h1.108v.22h-.847v.568h.765v.22h-.765v.921h-.261v-1.929zM23.441 238.033h.389l.492 1.313.495-1.313h.389v1.929h-.255v-1.694l-.497 1.323h-.262l-.498-1.323v1.694h-.253v-1.929z"/>
        </g>
        <path d="M20.232 217.032l1.174-2.18 1.174 2.18" fill="none" stroke="#00d900" stroke-width=".265"/>
        <path d="M23.079 217.029l.703-2.158.525.915.485-.763.485.734.441-.81.704 2.107" fill="none" stroke="#ff0" stroke-width=".253"/>
        <path d="M27.088 217.058l.503-2.348h2.096l.671 2.348" fill="none" stroke="red" stroke-width=".265"/>
        <path d="M21.859 231.073h.26v1.71h.94v.22h-1.2v-1.93z" font-size="2.646" fill="#0f0" stroke-width=".053" stroke-miterlimit="10"/>
        <path d="M24.739 231.047h.389l.492 1.313.495-1.313h.388v1.929h-.254v-1.694l-.497 1.323h-.263l-.497-1.323v1.694h-.253v-1.93z" font-size="2.646" fill="#ff0" stroke-width=".053" stroke-miterlimit="10"/>
        <path d="M28.296 231.073h.261v.791h.948v-.79h.261v1.928h-.26v-.918h-.949v.918h-.26v-1.929z" font-size="2.646" fill="red" stroke-width=".053" stroke-miterlimit="10"/>
        <g font-size="2.646" fill="#fff" stroke-width=".2" stroke-miterlimit="10">
            <path d="M10.595 235.818h1.374v.296h-1.374v-.296zM19.377 234.99v.719h.72v.22h-.72v.72h-.217v-.72h-.72v-.22h.72v-.72h.217z"/>
        </g>
        <g style="-inkscape-font-specification:sans-serif" font-weight="400" font-size="1.984" font-family="sans-serif" fill="#fff" stroke-width=".3">
            <path d="M1.95 202.942v.308h.368v.139h-.367v.59q0 .132.036.17.037.037.148.037h.183v.15h-.183q-.206 0-.285-.077-.078-.077-.078-.28v-.59H1.64v-.139h.13v-.308h.18zM2.554 203.25h.178v1.086h-.178v-1.086zm0-.422h.178v.226h-.178v-.226zM3.818 203.415v-.587h.178v1.508h-.178v-.163q-.056.097-.142.144-.086.047-.206.047-.197 0-.32-.157-.124-.157-.124-.413t.123-.413q.124-.157.321-.157.12 0 .206.048.086.046.142.143zm-.608.379q0 .197.08.31.082.11.224.11.141 0 .223-.11.081-.113.081-.31t-.081-.308q-.082-.113-.223-.113-.142 0-.223.113-.08.111-.08.308zM4.857 203.79q-.216 0-.3.05-.083.049-.083.168 0 .095.062.151.063.055.17.055.149 0 .238-.104.09-.106.09-.28v-.04h-.177zm.355-.073v.619h-.178v-.165q-.061.099-.152.146-.091.047-.223.047-.167 0-.265-.093-.098-.094-.098-.251 0-.183.122-.276.123-.093.366-.093h.25v-.018q0-.123-.081-.19-.08-.067-.227-.067-.093 0-.181.022t-.17.067v-.165q.098-.038.19-.056.092-.02.18-.02.235 0 .351.123.116.122.116.37zM5.584 202.828h.179v1.508h-.179v-1.508zM7.611 203.459q.067-.12.16-.178.093-.057.22-.057.169 0 .26.12.093.118.093.337v.655h-.18v-.65q0-.156-.055-.231-.055-.076-.168-.076-.139 0-.22.092-.08.092-.08.251v.614h-.179v-.65q0-.157-.055-.231-.055-.076-.17-.076-.137 0-.218.093-.08.092-.08.25v.613h-.18v-1.085h.18v.169q.061-.1.146-.147.085-.048.203-.048.118 0 .2.06.084.06.123.175zM9.117 203.375q-.143 0-.227.113-.083.111-.083.306t.082.307q.084.112.228.112.143 0 .226-.113.083-.112.083-.306 0-.193-.083-.305-.083-.114-.226-.114zm0-.15q.233 0 .365.15.133.152.133.419 0 .266-.133.419-.132.15-.365.15-.233 0-.366-.15-.132-.153-.132-.419 0-.267.132-.419.133-.15.366-.15zM10.624 203.415v-.587h.178v1.508h-.178v-.163q-.056.097-.143.144-.085.047-.205.047-.197 0-.32-.157-.124-.157-.124-.413t.123-.413q.124-.157.32-.157.121 0 .206.048.087.046.143.143zm-.608.379q0 .197.08.31.082.11.224.11.141 0 .222-.11.082-.113.082-.31t-.082-.308q-.081-.113-.222-.113-.142 0-.223.113-.08.111-.08.308zM11.15 203.907v-.657h.18v.65q0 .155.06.232.06.077.18.077.144 0 .227-.092.084-.093.084-.251v-.616h.179v1.086h-.179v-.167q-.064.099-.15.147-.086.048-.2.048-.186 0-.283-.117-.097-.116-.097-.34zM12.429 202.828h.178v1.508h-.178v-1.508zM13.472 203.79q-.216 0-.299.05-.083.049-.083.168 0 .095.062.151.063.055.17.055.148 0 .238-.104.09-.106.09-.28v-.04h-.178zm.356-.073v.619h-.178v-.165q-.061.099-.152.146-.091.047-.223.047-.167 0-.266-.093-.098-.094-.098-.251 0-.183.123-.276.123-.093.366-.093h.25v-.018q0-.123-.082-.19-.08-.067-.226-.067-.093 0-.182.022-.088.022-.17.067v-.165q.099-.038.19-.056.093-.02.18-.02.235 0 .352.123.116.122.116.37zM14.376 202.942v.308h.368v.139h-.368v.59q0 .132.036.17.037.037.149.037h.183v.15h-.183q-.207 0-.285-.077-.079-.077-.079-.28v-.59h-.13v-.139h.13v-.308h.18zM15.4 203.375q-.144 0-.227.113-.083.111-.083.306t.082.307q.083.112.228.112.142 0 .225-.113.084-.112.084-.306 0-.193-.084-.305-.083-.114-.225-.114zm0-.15q.232 0 .365.15.133.152.133.419 0 .266-.133.419-.133.15-.365.15-.234 0-.367-.15-.131-.153-.131-.419 0-.267.131-.419.133-.15.367-.15zM16.821 203.417q-.03-.017-.066-.025-.035-.01-.077-.01-.151 0-.233.1-.08.098-.08.282v.571h-.18v-1.085h.18v.169q.056-.1.146-.147.09-.048.219-.048.018 0 .04.003.023.002.05.007l.001.183z"/>
        </g>
    </g>
</svg>
