<svg xmlns="http://www.w3.org/2000/svg" xmlns:xlink="http://www.w3.org/1999/xlink" width="60" height="380" viewBox="0 0 15.875 100.542">
    <defs>
        <linearGradient id="b">
            <stop offset="0" stop-color="#fff"/>
            <stop offset="1" stop-opacity="0"/>
        </linearGradient>
        <linearGradient id="a">
            <stop offset="0" stop-color="#fdfdfd"/>
            <stop offset="1" stop-color="#fdfdfd"/>
        </linearGradient>
        <radialGradient gradientUnits="userSpaceOnUse" gradientTransform="matrix(.4218 0 0 .02673 -115.783 272.324)" r="69.827" fy="856.052" fx="285.494" cy="856.052" cx="285.494" id="d" xlink:href="#a"/>
        <linearGradient gradientUnits="userSpaceOnUse" y2="832.532" x2="279.915" y1="830.884" x1="268.967" id="h" xlink:href="#b" gradientTransform="matrix(.26458 0 0 .26458 -61.725 72.473)"/>
        <clipPath clipPathUnits="userSpaceOnUse" id="j">
            <rect width="15.839" height="10.757" y="288.614" rx="0" ry="0" fill="#606060" stroke-width=".264"/>
        </clipPath>
        <clipPath clipPathUnits="userSpaceOnUse" id="i">
            <rect width="15.839" height="10.757" y="288.614" rx="0" ry="0" fill="#606060" stroke-width=".264"/>
        </clipPath>
        <clipPath clipPathUnits="userSpaceOnUse" id="g">
            <rect width="15.839" height="10.757" y="288.614" rx="0" ry="0" fill="#606060" stroke-width=".264"/>
        </clipPath>
        <clipPath clipPathUnits="userSpaceOnUse" id="f">
            <rect width="66.427" height="45.113" x="257.801" y="-23.027" rx="0" ry="0" fill="#606060" stroke-width=".264"/>
        </clipPath>
        <clipPath clipPathUnits="userSpaceOnUse" id="e">
            <rect width="15.839" height="10.757" y="288.614" rx="0" ry="0" fill="#606060" stroke-width=".264"/>
        </clipPath>
        <clipPath clipPathUnits="userSpaceOnUse" id="c">
            <rect width="15.839" height="10.757" y="288.614" rx="0" ry="0" fill="#606060" stroke-width=".264"/>
        </clipPath>
    </defs>
    <path d="M0 0h15.875v100.542H0z" fill-rule="evenodd"/>
    <path d="M21.682 295.066L4.64 294.94l-14.418.125-.878-3.47c4.81-1.005 10.75-1.725 16.17-1.72 5.716.005 9.887.466 17.047 1.845z" clip-path="url(#c)" transform="matrix(-1 0 0 1 15.84 -196.458)" fill="url(#d)" stroke="#8b8b8b" stroke-width=".397"/>
    <path d="M-9.801 292.126c10.904-1.21 21.546-.99 31.75.122l-.033 3.297H-9.801z" clip-path="url(#e)" transform="matrix(-1 0 0 1 15.84 -196.458)"/>
    <g transform="matrix(-.23845 0 0 .23845 77.312 97.647)" clip-path="url(#f)">
        <path d="M291.232-10.527l6.43-3.034 5.953-.742 4.222.511 5.886 2.16 4.683 4.37z" fill-rule="evenodd"/>
        <g stroke="#fff">
            <g color="#000" fill="none" stroke-linejoin="bevel">
                <path d="M2.117 188.81l18.113 36.226 65.551 31.913 90.564 13.8 94.877-11.213 60.376-31.913 14.663-30.188-14.663-37.951.324 67.923-33.1-64.473-25.875 96.602-58.651-80.214-40.538 91.427-40.538-75.902-46.576 61.239-17.098-92.852-49.316 62.663 6.037-89.702 44.241 27.296 63.574 32.218 80-16.819 86.466-15.957 31.051-3.666-33.279-62.05 1.366 64.853-64.689-74.392-20.7 91.427-69.001-66.198-75.902 50.026L84.751 80.38l-59.346 55.816 24.151-56.064h34.501l81.077-37.088-18.975 69.864 89.702-24.15 62.101 7.762-66.314-54.334 4.212 46.571-70.726-45.713 66.414-1.725-53.476-15.525-12.938 16.388-49.164-6.9-66.414 44.85-33.333 49.417 9.183 6.647L2.118 188.81z" stroke-width="2.892" transform="matrix(.09825 0 0 .0698 286.195 -16.043)"/>
                <path d="M133.17 195.51l12.99-80.876-61.407-35.517 32.081-44.697 28.463-4.313 32.776-5.175 41.401 6.9 12.938 10.35 47.438 20.7 18.975 34.501 30.188 30.188 2.803 31.913" stroke-width="2.892" transform="matrix(.09825 0 0 .0698 286.195 -16.043)"/>
                <path d="M329.01 126.71l-49.16-63.83-59.77-31.05M1.926 188.186L16.11 129.84" stroke-width="2" transform="matrix(.09825 0 0 .0698 286.195 -16.043)"/>
            </g>
        </g>
        <path d="M320.187-2.25l-1.666-4.93" fill="none" stroke="#fff" stroke-width=".2"/>
    </g>
    <path d="M-6.975 292.22l3.149-1.342 1.329.418 1.108-.783 2.215.292.933-.35 3.024.98-1.042.477-9.503.292z" clip-path="url(#i)" transform="matrix(-1 0 0 1 15.84 -196.458)" fill-rule="evenodd"/>
    <g clip-path="url(#j)" transform="translate(-.036 -196.458)" font-size="1.984" fill="#fff" stroke-width="2">
        <path d="M1.393 295.418v.168q-.075-.039-.157-.058-.081-.02-.168-.02-.133 0-.2.041-.066.041-.066.122 0 .062.048.098.047.035.19.067l.062.014q.19.04.269.115.08.074.08.206 0 .152-.12.24-.119.088-.328.088-.087 0-.182-.017-.094-.017-.199-.05v-.185q.099.051.195.078.096.025.19.025.126 0 .194-.043.067-.043.067-.122 0-.073-.05-.111-.048-.039-.213-.075l-.062-.014q-.166-.035-.24-.107-.073-.073-.073-.199 0-.153.108-.236.109-.083.308-.083.1 0 .186.014.088.015.161.044zM2.789 295.51q-.144 0-.227.113-.083.111-.083.306t.082.307q.083.112.228.112.142 0 .225-.113.084-.112.084-.306 0-.193-.084-.305-.083-.113-.225-.113zm0-.15q.232 0 .365.15.133.152.133.42 0 .266-.133.418-.133.15-.365.15-.234 0-.367-.15-.131-.152-.131-.419t.131-.418q.133-.152.367-.152zM4.195 296.043v-.657h.178v.65q0 .154.06.231.06.077.18.077.144 0 .228-.092.084-.092.084-.251v-.615h.178v1.085h-.178v-.167q-.065.099-.151.147-.085.048-.199.048-.187 0-.284-.116-.096-.117-.096-.34zM6.28 295.077v.309h.368v.138H6.28v.59q0 .132.035.17.037.038.149.038h.183v.149h-.183q-.207 0-.285-.077-.079-.077-.079-.28v-.59h-.13v-.138h.13v-.308h.18zM8.417 295.816v.655H8.24v-.65q0-.153-.06-.23-.06-.076-.18-.076-.145 0-.228.092-.083.092-.083.25v.614h-.18v-1.508h.18v.591q.063-.098.15-.146.087-.049.2-.049.187 0 .283.117.096.115.096.34zM9.579 296.308v.576h-.18v-1.498h.18v.164q.056-.097.141-.143.087-.048.206-.048.197 0 .32.157.124.157.124.413t-.124.413q-.123.157-.32.157-.12 0-.206-.047-.085-.047-.141-.144zm.606-.379q0-.196-.081-.308-.08-.112-.222-.112-.141 0-.223.112-.08.112-.08.308 0 .197.08.31.082.11.223.11.142 0 .222-.11.081-.113.081-.31zM11.718 295.51q-.143 0-.226.113-.084.111-.084.306t.083.307q.083.112.227.112.143 0 .226-.113.083-.112.083-.306 0-.193-.083-.305-.083-.113-.226-.113zm0-.15q.233 0 .366.15.132.152.132.42 0 .266-.132.418-.133.15-.366.15-.233 0-.366-.15-.132-.152-.132-.419t.132-.418q.133-.152.366-.152zM13.143 294.963h.178v1.508h-.178v-1.508zM15.253 295.884v.087h-.82q.012.184.11.28.1.097.278.097.103 0 .198-.025.097-.026.192-.076v.169q-.096.04-.196.062-.101.02-.205.02-.26 0-.412-.15-.15-.151-.15-.41 0-.266.143-.422.144-.157.388-.157.22 0 .346.142.128.14.128.383zm-.178-.053q-.002-.146-.083-.233-.08-.087-.21-.087-.15 0-.24.084t-.103.237h.636z"/>
    </g>
    <g font-size="4.63" fill="#fff" stroke-width=".3" stroke-miterlimit="10">
        <path d="M2.925 1.095v.445q-.26-.124-.49-.185-.231-.061-.446-.061-.373 0-.576.144-.202.145-.202.412 0 .224.134.339.135.113.51.183l.277.057q.51.097.752.343.245.244.245.656 0 .49-.33.744-.328.253-.964.253-.24 0-.51-.054-.27-.055-.559-.16V3.74q.278.156.545.235.267.08.524.08.392 0 .604-.155.213-.153.213-.438 0-.249-.154-.39-.152-.14-.5-.21l-.278-.054q-.51-.101-.74-.318-.228-.217-.228-.604 0-.448.315-.705.316-.258.87-.258.238 0 .484.043t.504.129zM5.446 1.902v.393q-.176-.09-.366-.135-.19-.046-.394-.046-.31 0-.465.095-.154.095-.154.285 0 .145.11.229.111.08.446.156l.142.031q.444.095.629.27.188.171.188.48 0 .353-.28.56-.279.205-.767.205-.204 0-.425-.04-.22-.04-.464-.118v-.43q.231.12.455.18t.443.06q.294 0 .452-.1.158-.101.158-.285 0-.17-.115-.26-.113-.09-.5-.174l-.144-.034q-.387-.081-.559-.248-.172-.17-.172-.464 0-.357.254-.551.253-.195.719-.195.23 0 .434.034.203.034.375.102zM7.86 1.902v.393q-.176-.09-.366-.135-.19-.046-.393-.046-.31 0-.466.095-.154.095-.154.285 0 .145.111.229.111.08.446.156l.142.031q.443.095.629.27.187.171.187.48 0 .353-.28.56-.278.205-.767.205-.203 0-.425-.04-.219-.04-.463-.118v-.43q.23.12.454.18t.444.06q.293 0 .452-.1.158-.101.158-.285 0-.17-.115-.26-.113-.09-.5-.174l-.145-.034q-.386-.081-.558-.248-.172-.17-.172-.464 0-.357.253-.551.253-.195.72-.195.23 0 .433.034.204.034.376.102zM10.766 2.831v1.528h-.416V2.845q0-.36-.14-.539-.14-.178-.42-.178-.338 0-.532.215-.195.214-.195.585V4.36h-.418V.841h.418v1.38q.15-.229.35-.342.204-.113.469-.113.436 0 .66.271.224.27.224.794zM11.659 3.785h.477v.574h-.477v-.574zM13.133 3.785h.477v.574h-.477v-.574zM14.607 3.785h.477v.574h-.477v-.574z"/>
    </g>
    <g font-size="2.646" fill="#fff" stroke-width=".3" stroke-miterlimit="10">
        <path d="M2.479 84.045v.874H2.24v-.866q0-.205-.08-.307-.08-.102-.24-.102-.193 0-.304.122-.11.123-.11.335v.818h-.24v-1.447h.24v.224q.084-.13.2-.195.116-.064.267-.064.25 0 .377.155.128.154.128.453zM3.516 83.638q-.19 0-.302.15-.111.149-.111.408 0 .26.11.41.11.149.303.149.19 0 .301-.15.111-.15.111-.409 0-.257-.11-.406-.112-.152-.302-.152zm0-.201q.31 0 .487.201.177.202.177.558 0 .356-.177.559-.177.201-.487.201-.311 0-.488-.201-.176-.203-.176-.559 0-.356.176-.558.177-.201.488-.201zM4.573 83.472h.238v1.447h-.238v-1.447zm0-.564h.238v.301h-.238v-.3zM6.23 83.514v.225q-.101-.052-.21-.077-.108-.026-.225-.026-.177 0-.266.054-.088.054-.088.163 0 .083.064.13.063.047.254.09l.081.018q.254.054.36.153.107.099.107.276 0 .201-.16.319-.16.117-.438.117-.117 0-.243-.023-.125-.022-.265-.067v-.246q.132.069.26.104.128.033.253.033.168 0 .258-.057.09-.058.09-.162 0-.097-.065-.149-.065-.052-.286-.1l-.082-.019q-.221-.046-.32-.142-.098-.097-.098-.265 0-.204.145-.315.145-.111.41-.111.133 0 .249.02.116.019.214.057zM7.924 84.136v.116H6.831q.016.245.148.375.133.128.37.128.136 0 .264-.034.13-.034.256-.1v.224q-.128.054-.262.083-.135.028-.273.028-.346 0-.55-.201-.2-.202-.2-.546 0-.355.19-.563.193-.21.519-.21.292 0 .46.19.171.187.171.51zm-.237-.07q-.003-.195-.11-.311-.106-.117-.282-.117-.199 0-.319.113-.119.112-.137.316h.848z"/>
        <g>
            <path d="M10.04 73.507v.41h.49v.185h-.49v.786q0 .177.048.227.05.05.198.05h.244v.2h-.244q-.276 0-.38-.102-.105-.104-.105-.375v-.786h-.174v-.184H9.8v-.411h.24zM11.682 74.14q-.04-.023-.088-.034-.046-.011-.103-.011-.202 0-.31.132-.107.13-.107.375v.763h-.24v-1.447h.24v.225q.075-.132.195-.196.12-.064.292-.064.024 0 .054.004.03.003.066.009l.001.244zM11.934 73.918h.238v1.447h-.238v-1.447zm0-.564h.238v.301h-.238v-.3zM13.62 74.624q0-.258-.107-.4-.106-.142-.299-.142-.19 0-.298.142-.106.142-.106.4 0 .257.106.4.107.142.298.142.193 0 .299-.142.107-.143.107-.4zm.238.561q0 .37-.164.55-.164.18-.503.18-.125 0-.236-.02-.111-.017-.216-.056v-.231q.105.056.207.084.102.027.208.027.234 0 .35-.123.116-.121.116-.368v-.118q-.074.128-.189.191-.115.064-.275.064-.266 0-.429-.203-.162-.203-.162-.538t.162-.538q.163-.203.43-.203.16 0 .274.063.115.063.19.191v-.22h.237v1.268z"/>
        </g>
        <g>
            <path d="M3.153 73.918h.237v1.447h-.237v-1.447zm0-.564h.237v.301h-.237v-.3zM5.09 74.491v.874h-.238v-.866q0-.205-.08-.307-.08-.102-.24-.102-.193 0-.304.122-.112.123-.112.335v.818h-.239v-1.447h.24v.225q.085-.131.2-.196.116-.064.267-.064.25 0 .377.155.128.154.128.453z"/>
        </g>
        <g>
            <path d="M10.656 83.638q-.19 0-.302.15-.111.149-.111.408 0 .26.11.41.11.149.303.149.19 0 .301-.15.111-.15.111-.409 0-.257-.11-.406-.112-.152-.302-.152zm0-.201q.31 0 .487.201.177.202.177.558 0 .356-.177.559-.177.201-.487.201-.311 0-.488-.201-.176-.203-.176-.559 0-.356.176-.558.177-.201.488-.201zM11.689 84.348v-.876h.237v.867q0 .205.08.308.08.102.24.102.193 0 .304-.122.113-.123.113-.335v-.82h.237v1.447h-.237v-.223q-.087.132-.202.197-.114.063-.265.063-.25 0-.378-.155-.13-.155-.13-.453zM13.628 83.06v.412h.49v.184h-.49v.786q0 .177.048.227.049.05.197.05h.244v.2h-.244q-.275 0-.38-.102-.104-.104-.104-.375v-.786h-.175v-.184h.175v-.411h.239z"/>
        </g>
    </g>
    <g font-size="1.984" fill="#fff" stroke-width=".3" stroke-miterlimit="10">
        <path d="M1.684 5.582v.191q-.112-.053-.21-.08-.1-.025-.192-.025-.16 0-.247.062-.086.062-.086.176 0 .096.057.145.058.049.22.079l.118.024q.219.042.322.147.105.105.105.281 0 .21-.142.32-.14.108-.412.108-.103 0-.22-.024-.115-.023-.239-.068v-.202q.12.067.234.1.114.035.225.035.167 0 .258-.066t.091-.188q0-.107-.065-.167-.065-.06-.215-.09l-.119-.023Q.948 6.273.85 6.18q-.098-.093-.098-.259 0-.191.135-.302.136-.11.373-.11.102 0 .208.018.105.019.216.055zM2.798 5.738v.54h.54v.164h-.54v.54h-.163v-.54h-.54v-.165h.54v-.54h.163zM3.743 5.535h.195v.593h.712v-.593h.195v1.447H4.65v-.69h-.712v.69h-.195V5.535z"/>
    </g>
    <g font-size="2.646" fill="#fff" stroke-width=".3" stroke-miterlimit="10">
        <path d="M2.479 62.879v.873H2.24v-.866q0-.205-.08-.307-.08-.102-.24-.102-.193 0-.304.123-.11.122-.11.334v.818h-.24v-1.447h.24v.225q.084-.13.2-.195t.267-.065q.25 0 .377.155.128.154.128.454zM3.516 62.472q-.19 0-.302.15-.111.148-.111.408t.11.41q.11.148.303.148.19 0 .301-.15.111-.15.111-.408 0-.257-.11-.407-.112-.151-.302-.151zm0-.202q.31 0 .487.202.177.201.177.558 0 .355-.177.558-.177.201-.487.201-.311 0-.488-.201-.176-.203-.176-.558 0-.357.176-.558.177-.202.488-.202zM4.573 62.305h.238v1.447h-.238v-1.447zm0-.563h.238v.3h-.238v-.3zM6.23 62.348v.224q-.101-.051-.21-.077-.108-.026-.225-.026-.177 0-.266.054-.088.055-.088.163 0 .083.064.13.063.047.254.09l.081.018q.254.054.36.154.107.098.107.275 0 .201-.16.319t-.438.118q-.117 0-.243-.024-.125-.022-.265-.067v-.245q.132.068.26.103.128.034.253.034.168 0 .258-.057.09-.058.09-.163 0-.097-.065-.149-.065-.051-.286-.1l-.082-.019q-.221-.046-.32-.142-.098-.097-.098-.264 0-.205.145-.316.145-.11.41-.11.133 0 .249.019.116.019.214.058zM7.924 62.97v.115H6.831q.016.246.148.375.133.128.37.128.136 0 .264-.034.13-.033.256-.1v.224q-.128.055-.262.083-.135.028-.273.028-.346 0-.55-.201-.2-.202-.2-.545 0-.356.19-.564.193-.209.519-.209.292 0 .46.189.171.187.171.51zm-.237-.07q-.003-.196-.11-.312-.106-.116-.282-.116-.199 0-.319.112-.119.112-.137.317l.848-.001z"/>
        <g>
            <path d="M10.04 52.34v.411h.49v.185h-.49v.785q0 .177.048.228.05.05.198.05h.244v.199h-.244q-.276 0-.38-.102-.105-.103-.105-.375v-.785h-.174v-.185H9.8v-.41h.24zM11.682 52.973q-.04-.023-.088-.033-.046-.012-.103-.012-.202 0-.31.132-.107.13-.107.376v.762h-.24v-1.447h.24v.225q.075-.132.195-.195.12-.065.292-.065.024 0 .054.004.03.003.066.01l.001.243zM11.934 52.751h.238v1.447h-.238v-1.447zm0-.563h.238v.3h-.238v-.3zM13.62 53.458q0-.259-.107-.4-.106-.143-.299-.143-.19 0-.298.142-.106.142-.106.4t.106.4q.107.142.298.142.193 0 .299-.142.107-.142.107-.4zm.238.56q0 .37-.164.55-.164.18-.503.18-.125 0-.236-.019-.111-.018-.216-.057v-.231q.105.057.207.084.102.027.208.027.234 0 .35-.123.116-.121.116-.368v-.117q-.074.127-.189.19-.115.064-.275.064-.266 0-.429-.203-.162-.203-.162-.537 0-.336.162-.539.163-.203.43-.203.16 0 .274.064.115.063.19.19v-.219h.237v1.267z"/>
        </g>
        <g>
            <path d="M3.153 52.751h.237v1.447h-.237v-1.447zm0-.563h.237v.3h-.237v-.3zM5.09 53.325v.873h-.238v-.866q0-.205-.08-.307-.08-.102-.24-.102-.193 0-.304.123-.112.122-.112.334v.818h-.239v-1.447h.24v.225q.085-.13.2-.195.116-.065.267-.065.25 0 .377.155.128.154.128.454z"/>
        </g>
        <g>
            <path d="M10.656 62.472q-.19 0-.302.15-.111.148-.111.408t.11.41q.11.148.303.148.19 0 .301-.15.111-.15.111-.408 0-.257-.11-.407-.112-.151-.302-.151zm0-.202q.31 0 .487.202.177.201.177.558 0 .355-.177.558-.177.201-.487.201-.311 0-.488-.201-.176-.203-.176-.558 0-.357.176-.558.177-.202.488-.202zM11.689 63.181v-.876h.237v.867q0 .205.08.309.08.102.24.102.193 0 .304-.123.113-.123.113-.335v-.82h.237v1.447h-.237v-.222q-.087.132-.202.196-.114.063-.265.063-.25 0-.378-.155-.13-.155-.13-.453zM13.628 61.894v.411h.49v.185h-.49v.785q0 .177.048.228.049.05.197.05h.244v.199h-.244q-.275 0-.38-.102-.104-.103-.104-.375v-.785h-.175v-.185h.175v-.41h.239z"/>
        </g>
    </g>
    <g font-size="2.646" fill="#fff" stroke-width=".3" stroke-miterlimit="10">
        <path d="M2.479 41.712v.873H2.24v-.865q0-.206-.08-.308-.08-.102-.24-.102-.193 0-.304.123-.11.123-.11.335v.817h-.24v-1.447h.24v.225q.084-.13.2-.195t.267-.065q.25 0 .377.156.128.153.128.453zM3.516 41.305q-.19 0-.302.15-.111.148-.111.408t.11.41q.11.148.303.148.19 0 .301-.15.111-.15.111-.408 0-.257-.11-.407-.112-.151-.302-.151zm0-.202q.31 0 .487.202t.177.558q0 .355-.177.558-.177.202-.487.202-.311 0-.488-.202-.176-.203-.176-.558 0-.356.176-.558.177-.202.488-.202zM4.573 41.138h.238v1.447h-.238v-1.447zm0-.563h.238v.301h-.238v-.3zM6.23 41.181v.225q-.101-.052-.21-.078-.108-.026-.225-.026-.177 0-.266.055-.088.054-.088.163 0 .082.064.13.063.047.254.09l.081.017q.254.055.36.154.107.098.107.275 0 .202-.16.32-.16.117-.438.117-.117 0-.243-.023-.125-.022-.265-.068v-.245q.132.068.26.103.128.034.253.034.168 0 .258-.057.09-.058.09-.163 0-.097-.065-.148-.065-.052-.286-.1l-.082-.02q-.221-.046-.32-.141-.098-.097-.098-.265 0-.204.145-.315.145-.111.41-.111.133 0 .249.019.116.02.214.058zM7.924 41.802v.117H6.831q.016.245.148.374.133.128.37.128.136 0 .264-.033.13-.034.256-.101v.225q-.128.054-.262.082-.135.029-.273.029-.346 0-.55-.202-.2-.201-.2-.545 0-.355.19-.563.193-.21.519-.21.292 0 .46.19.171.186.171.51zm-.237-.07q-.003-.194-.11-.31-.106-.117-.282-.117-.199 0-.319.112-.119.113-.137.317l.848-.001z"/>
        <g>
            <path d="M10.04 31.174v.41h.49v.185h-.49v.786q0 .177.048.227.05.05.198.05h.244v.2h-.244q-.276 0-.38-.103-.105-.103-.105-.374v-.786h-.174v-.185H9.8v-.41h.24zM11.682 31.807q-.04-.024-.088-.034-.046-.012-.103-.012-.202 0-.31.132-.107.13-.107.376v.762h-.24v-1.447h.24v.225q.075-.132.195-.195.12-.064.292-.064.024 0 .054.004.03.003.066.009l.001.244zM11.934 31.584h.238v1.447h-.238v-1.447zm0-.563h.238v.301h-.238v-.3zM13.62 32.291q0-.258-.107-.4-.106-.143-.299-.143-.19 0-.298.143-.106.142-.106.4 0 .257.106.4.107.141.298.141.193 0 .299-.142.107-.142.107-.399zm.238.56q0 .37-.164.55-.164.18-.503.18-.125 0-.236-.019-.111-.018-.216-.057v-.23q.105.056.207.083.102.027.208.027.234 0 .35-.122.116-.122.116-.369v-.117q-.074.128-.189.191t-.275.063q-.266 0-.429-.202-.162-.203-.162-.538 0-.336.162-.539.163-.202.43-.202.16 0 .274.063.115.063.19.191v-.22h.237v1.268z"/>
        </g>
        <g>
            <path d="M3.153 31.584h.237v1.447h-.237v-1.447zm0-.563h.237v.301h-.237v-.3zM5.09 32.158v.873h-.238v-.865q0-.206-.08-.308-.08-.102-.24-.102-.193 0-.304.123-.112.123-.112.335v.817h-.239v-1.447h.24v.225q.085-.13.2-.195.116-.064.267-.064.25 0 .377.155.128.153.128.453z"/>
        </g>
        <g>
            <path d="M10.656 41.305q-.19 0-.302.15-.111.148-.111.408t.11.41q.11.148.303.148.19 0 .301-.15.111-.15.111-.408 0-.257-.11-.407-.112-.151-.302-.151zm0-.202q.31 0 .487.202t.177.558q0 .355-.177.558-.177.202-.487.202-.311 0-.488-.202-.176-.203-.176-.558 0-.356.176-.558.177-.202.488-.202zM11.689 42.014v-.876h.237v.867q0 .206.08.309.08.102.24.102.193 0 .304-.123.113-.122.113-.334v-.82h.237v1.446h-.237v-.222q-.087.132-.202.196-.114.064-.265.064-.25 0-.378-.155-.13-.155-.13-.454zM13.628 40.728v.41h.49v.185h-.49v.786q0 .177.048.227.049.05.197.05h.244v.2h-.244q-.275 0-.38-.103-.104-.103-.104-.374v-.786h-.175v-.185h.175v-.41h.239z"/>
        </g>
    </g>
    <g font-size="2.646" fill="#fff" stroke-width=".3" stroke-miterlimit="10">
        <path d="M2.479 20.545v.874H2.24v-.866q0-.205-.08-.307-.08-.102-.24-.102-.193 0-.304.122-.11.123-.11.335v.818h-.24v-1.447h.24v.224q.084-.13.2-.195.116-.064.267-.064.25 0 .377.155.128.154.128.453zM3.516 20.138q-.19 0-.302.15-.111.149-.111.408 0 .26.11.41.11.149.303.149.19 0 .301-.15.111-.15.111-.409 0-.257-.11-.406-.112-.152-.302-.152zm0-.201q.31 0 .487.201.177.202.177.558 0 .356-.177.559-.177.201-.487.201-.311 0-.488-.201-.176-.203-.176-.559 0-.356.176-.558.177-.201.488-.201zM4.573 19.972h.238v1.447h-.238v-1.447zm0-.564h.238v.301h-.238v-.3zM6.23 20.014v.225q-.101-.052-.21-.077-.108-.026-.225-.026-.177 0-.266.054-.088.054-.088.163 0 .083.064.13.063.047.254.09l.081.018q.254.054.36.153.107.099.107.276 0 .201-.16.319-.16.117-.438.117-.117 0-.243-.023-.125-.022-.265-.067v-.246q.132.069.26.104.128.033.253.033.168 0 .258-.057.09-.058.09-.162 0-.097-.065-.149-.065-.052-.286-.1l-.082-.019q-.221-.046-.32-.142-.098-.097-.098-.265 0-.204.145-.315.145-.111.41-.111.133 0 .249.02.116.019.214.057zM7.924 20.636v.116H6.831q.016.245.148.375.133.128.37.128.136 0 .264-.034.13-.034.256-.1v.224q-.128.054-.262.083-.135.028-.273.028-.346 0-.55-.201-.2-.202-.2-.546 0-.355.19-.563.193-.21.519-.21.292 0 .46.19.171.187.171.51zm-.237-.07q-.003-.195-.11-.311-.106-.117-.282-.117-.199 0-.319.113-.119.112-.137.316h.848z"/>
        <g>
            <path d="M10.04 10.007v.41h.49v.185h-.49v.786q0 .177.048.227.05.05.198.05h.244v.2h-.244q-.276 0-.38-.102-.105-.104-.105-.375v-.786h-.174v-.184H9.8v-.411h.24zM11.682 10.64q-.04-.023-.088-.034-.046-.011-.103-.011-.202 0-.31.132-.107.13-.107.375v.763h-.24v-1.447h.24v.225q.075-.132.195-.196.12-.064.292-.064.024 0 .054.004.03.003.066.009l.001.244zM11.934 10.418h.238v1.447h-.238v-1.447zm0-.564h.238v.301h-.238v-.3zM13.62 11.124q0-.258-.107-.4-.106-.142-.299-.142-.19 0-.298.142-.106.142-.106.4 0 .257.106.4.107.142.298.142.193 0 .299-.142.107-.143.107-.4zm.238.561q0 .37-.164.55-.164.18-.503.18-.125 0-.236-.02-.111-.017-.216-.056v-.231q.105.056.207.084.102.027.208.027.234 0 .35-.123.116-.122.116-.368v-.118q-.074.128-.189.191-.115.064-.275.064-.266 0-.429-.203-.162-.203-.162-.538t.162-.538q.163-.203.43-.203.16 0 .274.063.115.063.19.191v-.22h.237v1.268z"/>
        </g>
        <g>
            <path d="M3.153 10.418h.237v1.447h-.237v-1.447zm0-.564h.237v.301h-.237v-.3zM5.09 10.991v.874h-.238v-.866q0-.205-.08-.307-.08-.102-.24-.102-.193 0-.304.122-.112.123-.112.335v.818h-.239v-1.447h.24v.225q.085-.131.2-.196.116-.064.267-.064.25 0 .377.155.128.154.128.453z"/>
        </g>
        <g>
            <path d="M10.656 20.138q-.19 0-.302.15-.111.149-.111.408 0 .26.11.41.11.149.303.149.19 0 .301-.15.111-.15.111-.409 0-.257-.11-.406-.112-.152-.302-.152zm0-.201q.31 0 .487.201.177.202.177.558 0 .356-.177.559-.177.201-.487.201-.311 0-.488-.201-.176-.203-.176-.559 0-.356.176-.558.177-.201.488-.201zM11.689 20.848v-.876h.237v.867q0 .205.08.308.08.102.24.102.193 0 .304-.122.113-.123.113-.335v-.82h.237v1.447h-.237v-.223q-.087.132-.202.197-.114.063-.265.063-.25 0-.378-.155-.13-.155-.13-.453zM13.628 19.56v.412h.49v.184h-.49v.786q0 .177.048.227.049.05.197.05h.244v.2h-.244q-.275 0-.38-.102-.104-.104-.104-.375v-.786h-.175v-.184h.175v-.411h.239z"/>
        </g>
    </g>
    <path d="M5.314 28.137h5.247l-2.539 2.285M5.314 49.304h5.247l-2.539 2.285M5.314 70.47h5.247l-2.539 2.286" fill="#4a6889" fill-rule="evenodd"/>
</svg>
