<svg xmlns="http://www.w3.org/2000/svg" xmlns:xlink="http://www.w3.org/1999/xlink" width="30" height="380" viewBox="0 0 7.938 100.542">
    <defs>
        <linearGradient id="b">
            <stop offset="0" stop-color="#fff"/>
            <stop offset="1" stop-opacity="0"/>
        </linearGradient>
        <linearGradient id="a">
            <stop offset="0" stop-color="#fdfdfd"/>
            <stop offset="1" stop-color="#fdfdfd"/>
        </linearGradient>
        <radialGradient gradientUnits="userSpaceOnUse" gradientTransform="matrix(.15594 0 0 .02763 -41.463 271.518)" r="69.827" fy="856.052" fx="285.494" cy="856.052" cx="285.494" id="d" xlink:href="#a"/>
        <linearGradient gradientUnits="userSpaceOnUse" y2="832.532" x2="279.915" y1="830.884" x1="268.967" id="f" xlink:href="#b" gradientTransform="matrix(.26458 0 0 .26458 -59.861 72.341)"/>
        <clipPath clipPathUnits="userSpaceOnUse" id="g">
            <path d="M0 287.09h7.938v16.26H0z" fill-rule="evenodd" stroke-width=".486" stroke-linejoin="round"/>
        </clipPath>
        <clipPath clipPathUnits="userSpaceOnUse" id="e">
            <path d="M0 287.09h7.938v16.26H0z" fill-rule="evenodd" stroke-width=".486" stroke-linejoin="round"/>
        </clipPath>
        <clipPath clipPathUnits="userSpaceOnUse" id="c">
            <path d="M0 287.09h7.938v16.26H0z" fill-rule="evenodd" stroke-width=".486" stroke-linejoin="round"/>
        </clipPath>
    </defs>
    <g transform="translate(0 -196.458)">
        <path d="M0 196.458h7.938V297H0z" fill-rule="evenodd"/>
        <path d="M9.357 295.02l-6.3-.13-5.33.13-.265-3.285c2.598-.557 4.255-.399 6.46-.434 2.014-.032 5.58-.039 5.7.864z" clip-path="url(#c)" fill="url(#d)" stroke="#8b8b8b" stroke-width=".245"/>
        <path clip-path="url(#g)" d="M0 292.064c2.887-.422 5.412-.361 7.938 0V297H0z"/>
        <g font-size="2.937" fill="#fc00d8" stroke="#f057ff" stroke-width=".132">
            <path d="M.425 133.263h.293l.45 1.81.45-1.81h.325l.45 1.81.449-1.81h.294l-.538 2.141h-.364l-.452-1.859-.456 1.86H.962l-.537-2.142zM4.31 134.044q-.045-.025-.098-.037-.052-.013-.115-.013-.224 0-.344.147-.12.144-.12.417v.846h-.265v-1.606h.266v.25q.083-.147.216-.217.134-.072.324-.072.028 0 .06.004.034.003.074.01l.001.271zM4.592 133.798h.264v1.606h-.264v-1.606zm0-.626h.264v.335h-.264v-.335zM6.464 134.582q0-.287-.12-.444-.117-.158-.33-.158-.213 0-.332.158-.118.157-.118.444 0 .286.118.443.119.158.331.158.214 0 .331-.158.12-.157.12-.443zm.263.623q0 .41-.182.61t-.558.2q-.139 0-.262-.021-.123-.02-.24-.063v-.257q.117.063.23.093t.23.03q.26 0 .39-.136.129-.135.129-.409v-.13q-.082.142-.21.212t-.305.07q-.296 0-.477-.225-.18-.225-.18-.597 0-.373.18-.598.181-.225.477-.225.177 0 .305.07t.21.213v-.244h.263v1.407zM8.328 134.582q0-.287-.119-.444-.118-.158-.331-.158-.213 0-.332.158-.117.157-.117.444 0 .286.117.443.12.158.332.158.213 0 .331-.158.12-.157.12-.443zm.264.623q0 .41-.182.61t-.558.2q-.14 0-.263-.021-.123-.02-.24-.063v-.257q.117.063.23.093.114.03.231.03.26 0 .389-.136.13-.135.13-.409v-.13q-.083.142-.21.212-.128.07-.306.07-.295 0-.476-.225-.18-.225-.18-.597 0-.373.18-.598.18-.225.476-.225.178 0 .306.07.127.07.21.213v-.244h.263v1.407zM9.136 133.172h.263v2.232h-.263v-2.232zM11.324 134.535v.129h-1.213q.017.273.163.416.148.142.41.142.153 0 .295-.037.143-.038.284-.112v.25q-.142.06-.292.091-.149.032-.302.032-.385 0-.61-.224-.224-.224-.224-.605 0-.395.213-.626.213-.232.575-.232.324 0 .512.21.19.207.19.566zm-.264-.077q-.003-.217-.122-.346-.117-.13-.312-.13-.221 0-.354.126-.132.124-.153.351l.941-.001z" transform="matrix(.67556 0 0 1.48025 0 1.058)"/>
        </g>
        <g font-size="1.984" fill="#fff">
            <path d="M2.533 203.562h.334v2.473h-.334v-2.473zM3.533 203.562h.45l1.097 2.069v-2.07h.325v2.474h-.45l-1.097-2.069v2.069h-.325v-2.473z"/>
        </g>
        <g font-size="1.984" fill="#fff">
            <path d="M1.417 230.749v1.125h.236q.3 0 .438-.136.14-.136.14-.428 0-.29-.14-.426-.139-.135-.438-.135h-.236zm-.196-.161h.402q.42 0 .617.175t.197.547q0 .374-.198.55-.197.174-.616.174h-.402v-1.446zM3.198 230.78l-.265.72h.532l-.267-.72zm-.11-.192h.222l.551 1.446h-.203l-.132-.37h-.652l-.132.37h-.206l.552-1.446zM4.073 230.588h.292l.37.984.37-.984h.292v1.446h-.19v-1.27l-.374.992h-.197l-.373-.992v1.27h-.19v-1.446zM5.978 230.749v.543h.246q.137 0 .212-.07.074-.071.074-.202 0-.13-.074-.2-.075-.071-.212-.071h-.246zm-.195-.161h.441q.244 0 .368.11.125.11.125.322 0 .214-.125.324-.124.11-.368.11h-.246v.58h-.195v-1.446z"/>
        </g>
        <g font-size="1.984" fill="#fff">
            <path d="M1.846 246.783v.191q-.112-.053-.21-.08-.1-.026-.191-.026-.16 0-.247.062t-.087.177q0 .096.058.145.058.049.219.079l.118.024q.219.042.322.147.105.105.105.281 0 .21-.141.319-.14.108-.413.108-.103 0-.22-.023-.114-.023-.239-.069v-.201q.12.067.234.1.114.035.225.035.167 0 .258-.066.092-.066.092-.188 0-.107-.066-.167-.065-.06-.214-.09l-.12-.023q-.219-.044-.316-.137-.098-.093-.098-.259 0-.192.134-.302.136-.11.373-.11.102 0 .208.018.105.018.216.055zM3.325 246.847v.207q-.098-.092-.21-.138-.112-.046-.238-.046-.248 0-.38.153-.132.15-.132.438 0 .285.132.438.132.15.38.15.126 0 .237-.045.113-.045.211-.137v.204q-.102.07-.218.105-.114.035-.242.035-.328 0-.517-.201-.19-.202-.19-.55 0-.348.19-.549.189-.201.517-.201.13 0 .244.035.116.033.216.102zM4.113 246.929l-.265.72h.532l-.267-.72zm-.11-.193h.222l.55 1.446h-.203l-.131-.37h-.652l-.132.37H3.45l.553-1.446zM4.986 246.736h.196v1.282h.704v.164h-.9v-1.446zM6.09 246.736h.915v.164h-.719v.429h.69v.164h-.69v.525h.737v.164H6.09v-1.446z"/>
        </g>
        <g font-size="1.984" fill="#fff">
            <path d="M.923 263.59q-.213 0-.339.16-.125.159-.125.433 0 .273.125.432.126.159.34.159.213 0 .337-.159.125-.159.125-.432 0-.274-.125-.433-.124-.16-.338-.16zm0-.158q.305 0 .487.204t.182.547q0 .342-.182.546-.182.204-.487.204t-.488-.204q-.182-.203-.182-.546t.182-.547q.183-.204.488-.204zM1.898 263.458h.831v.165h-.635v.426h.573v.165h-.573v.69h-.196v-1.446zM3.038 263.458h.831v.165h-.636v.426h.574v.165h-.574v.69h-.195v-1.446zM5.011 263.506v.19q-.111-.053-.21-.079-.099-.026-.19-.026-.16 0-.248.062-.086.062-.086.176 0 .096.057.146.058.048.219.078l.118.024q.22.042.323.148.105.104.105.28 0 .21-.142.32-.14.108-.413.108-.102 0-.219-.023-.115-.024-.239-.07v-.2q.12.066.234.1.114.034.224.034.168 0 .259-.066t.091-.188q0-.107-.066-.167-.065-.06-.214-.09l-.12-.023q-.218-.044-.316-.137-.098-.093-.098-.258 0-.192.135-.303.136-.11.373-.11.102 0 .207.018.106.019.216.055zM5.41 263.458h.914v.165h-.719v.428h.69v.165h-.69v.524h.737v.165H5.41v-1.447zM6.46 263.458h1.225v.165H7.17v1.282h-.197v-1.282h-.513v-.165z"/>
        </g>
        <rect width="6.575" height="10.301" x=".681" y="278.867" rx="1.076" ry=".964" fill="#606060"/>
        <g font-size="1.984" fill="#fff">
            <path d="M1.947 280.093q-.31 0-.494.232-.181.23-.181.63 0 .397.181.628.184.231.494.231t.49-.231q.182-.231.182-.629t-.182-.63q-.18-.23-.49-.23zm0-.23q.442 0 .707.297.265.296.265.794 0 .498-.265.795-.265.296-.707.296-.444 0-.71-.296-.266-.296-.266-.795 0-.498.265-.794.267-.298.71-.298zM3.332 279.9h.286v1.279q0 .338.122.487.123.148.398.148.273 0 .396-.148.122-.15.122-.487V279.9h.287v1.314q0 .411-.205.621-.203.21-.6.21-.399 0-.603-.21-.203-.21-.203-.621V279.9zM5.186 279.9h1.78v.24H6.22v1.864h-.286v-1.864h-.747v-.24z"/>
        </g>
        <path style="text-align:center" d="M1.967 293.326v.169q-.076-.04-.157-.059-.081-.019-.169-.019-.132 0-.2.04-.065.041-.065.123 0 .062.047.098.048.035.191.067l.061.013q.19.041.27.116.08.073.08.206 0 .151-.12.24-.12.087-.329.087-.087 0-.182-.017-.094-.016-.198-.05v-.184q.098.051.194.077.096.025.19.025.126 0 .194-.042.068-.044.068-.122 0-.073-.05-.112-.048-.039-.214-.074l-.062-.015q-.165-.035-.239-.107-.074-.072-.074-.198 0-.153.109-.237.108-.083.308-.083.099 0 .186.015.087.014.16.043zM2.73 293.419q-.143 0-.226.112-.084.112-.084.307 0 .194.083.307.083.111.227.111.143 0 .226-.112.084-.113.084-.306t-.084-.306q-.083-.113-.226-.113zm0-.151q.233 0 .366.151.132.151.132.419 0 .266-.132.418-.133.151-.366.151-.233 0-.366-.15-.132-.153-.132-.42t.132-.418q.133-.151.366-.151zM3.505 293.951v-.657h.178v.65q0 .154.06.232.06.076.18.076.145 0 .228-.092.084-.092.084-.25v-.616h.178v1.085h-.178v-.167q-.065.1-.15.148-.086.047-.2.047-.187 0-.283-.116-.097-.116-.097-.34zM4.959 292.986v.308h.367v.139H4.96v.589q0 .132.036.17.037.038.148.038h.183v.15h-.183q-.206 0-.285-.077-.078-.078-.078-.281v-.59h-.131v-.138h.13v-.308h.18z" text-anchor="middle" fill="#fff"/>
        <path d="M3.317 292.765l1.668-1.606 1.429 1.772z" fill-rule="evenodd" stroke="#000" stroke-width=".357"/>
        <path d="M5.2 292.834l.842-1.746.723 1.926z" fill-rule="evenodd" stroke="#000" stroke-width=".265"/>
        <path style="text-align:center" d="M6.464 293.724v.655h-.179v-.649q0-.154-.06-.23-.06-.077-.18-.077-.144 0-.228.092-.083.092-.083.25v.614h-.18v-1.507h.18v.59q.064-.097.15-.146.088-.048.2-.048.188 0 .284.116.096.115.096.34zM2.1 296.168v.575h-.179v-1.498h.18v.165q.056-.097.141-.143.086-.048.206-.048.197 0 .32.157.124.157.124.413t-.124.413q-.123.157-.32.157-.12 0-.206-.047-.085-.047-.141-.144zm.607-.38q0-.196-.081-.307-.08-.113-.222-.113-.142 0-.223.113-.08.111-.08.308t.08.309q.081.111.223.111.141 0 .222-.111.081-.112.081-.31zM3.608 295.37q-.143 0-.226.113-.084.111-.084.306t.083.307q.083.111.227.111.143 0 .226-.112.083-.112.083-.306 0-.193-.083-.305-.083-.114-.226-.114zm0-.15q.233 0 .366.15.132.151.132.419 0 .266-.132.418-.133.152-.366.152-.233 0-.366-.152-.132-.152-.132-.418 0-.268.132-.419.133-.15.366-.15zM4.4 294.823h.18v1.508H4.4v-1.508zM5.88 295.743v.088h-.82q.011.184.11.28.1.096.277.096.103 0 .199-.025.097-.025.192-.075v.168q-.096.04-.197.062-.1.022-.204.022-.26 0-.412-.152-.151-.15-.151-.409 0-.266.143-.422.145-.157.389-.157.219 0 .346.142.127.14.127.382zm-.179-.052q-.002-.146-.082-.233-.08-.088-.211-.088-.15 0-.24.085-.089.084-.102.237H5.7z" text-anchor="middle" fill="#fff"/>
        <g font-size="1.984" fill="#fff">
            <path d="M1.415 213.492h1.223v.165h-.513v1.282h-.197v-1.282h-.513v-.165zM2.832 213.492h.915v.165h-.72v.428h.69v.165h-.69v.524h.737v.165h-.932v-1.447zM4.084 213.492h.264l.641 1.21v-1.21h.19v1.447h-.264l-.641-1.21v1.21h-.19v-1.447zM6.436 213.54v.19q-.112-.053-.21-.079-.1-.026-.191-.026-.16 0-.248.062-.086.062-.086.176 0 .096.057.146.059.048.22.078l.118.024q.219.042.322.148.105.104.105.28 0 .21-.142.32-.14.108-.412.108-.103 0-.22-.023-.115-.024-.239-.07v-.2q.12.066.234.1.114.034.225.034.167 0 .258-.066t.091-.188q0-.107-.065-.167-.065-.06-.215-.09l-.119-.023q-.219-.044-.317-.137-.097-.093-.097-.258 0-.192.134-.303.136-.11.373-.11.102 0 .208.018.105.019.216.056z"/>
        </g>
    </g>
</svg>
